<?xml version="1.0" standalone="no"?> <!DOCTYPE svg PUBLIC "-//W3C//DTD SVG 1.1//EN" "http://www.w3.org/Graphics/SVG/1.1/DTD/svg11.dtd"> <svg   version="1.1"     xmlns="http://www.w3.org/2000/svg"  xmlns:xlink="http://www.w3.org/1999/xlink" name="" width="768.0" height="1024.0" background="N_PAPERBACKGROUND_WHITE_WITH_GRAY_LINE" line-height="30.0" margin-top="40.0" margin-right="40.0" margin-bottom="40.0" margin-left="40.0"><g id='id-background-layer'  type='type-normal' preserveAspectRatio="none" ><rect  style = ' stroke:#FFFFFF;  fill:#FFFFFF;  stroke-width:0.0;' x="0" y="0" width="768" height="1024" preserveAspectRatio="none" transform="rotate(   0,  384,  512)" ></rect><polyline  style = ' stroke:#D7D6D6;  fill:none;  stroke-width:1.0;' points = ' 0,70 768,70' preserveAspectRatio="none" transform="rotate(   0,  384,   70)" ></polyline><polyline  style = ' stroke:#D7D6D6;  fill:none;  stroke-width:1.0;' points = ' 0,100 768,100' preserveAspectRatio="none" transform="rotate(   0,  384,  100)" ></polyline><polyline  style = ' stroke:#D7D6D6;  fill:none;  stroke-width:1.0;' points = ' 0,130 768,130' preserveAspectRatio="none" transform="rotate(   0,  384,  130)" ></polyline><polyline  style = ' stroke:#D7D6D6;  fill:none;  stroke-width:1.0;' points = ' 0,160 768,160' preserveAspectRatio="none" transform="rotate(   0,  384,  160)" ></polyline><polyline  style = ' stroke:#D7D6D6;  fill:none;  stroke-width:1.0;' points = ' 0,190 768,190' preserveAspectRatio="none" transform="rotate(   0,  384,  190)" ></polyline><polyline  style = ' stroke:#D7D6D6;  fill:none;  stroke-width:1.0;' points = ' 0,220 768,220' preserveAspectRatio="none" transform="rotate(   0,  384,  220)" ></polyline><polyline  style = ' stroke:#D7D6D6;  fill:none;  stroke-width:1.0;' points = ' 0,250 768,250' preserveAspectRatio="none" transform="rotate(   0,  384,  250)" ></polyline><polyline  style = ' stroke:#D7D6D6;  fill:none;  stroke-width:1.0;' points = ' 0,280 768,280' preserveAspectRatio="none" transform="rotate(   0,  384,  280)" ></polyline><polyline  style = ' stroke:#D7D6D6;  fill:none;  stroke-width:1.0;' points = ' 0,310 768,310' preserveAspectRatio="none" transform="rotate(   0,  384,  310)" ></polyline><polyline  style = ' stroke:#D7D6D6;  fill:none;  stroke-width:1.0;' points = ' 0,340 768,340' preserveAspectRatio="none" transform="rotate(   0,  384,  340)" ></polyline><polyline  style = ' stroke:#D7D6D6;  fill:none;  stroke-width:1.0;' points = ' 0,370 768,370' preserveAspectRatio="none" transform="rotate(   0,  384,  370)" ></polyline><polyline  style = ' stroke:#D7D6D6;  fill:none;  stroke-width:1.0;' points = ' 0,400 768,400' preserveAspectRatio="none" transform="rotate(   0,  384,  400)" ></polyline><polyline  style = ' stroke:#D7D6D6;  fill:none;  stroke-width:1.0;' points = ' 0,430 768,430' preserveAspectRatio="none" transform="rotate(   0,  384,  430)" ></polyline><polyline  style = ' stroke:#D7D6D6;  fill:none;  stroke-width:1.0;' points = ' 0,460 768,460' preserveAspectRatio="none" transform="rotate(   0,  384,  460)" ></polyline><polyline  style = ' stroke:#D7D6D6;  fill:none;  stroke-width:1.0;' points = ' 0,490 768,490' preserveAspectRatio="none" transform="rotate(   0,  384,  490)" ></polyline><polyline  style = ' stroke:#D7D6D6;  fill:none;  stroke-width:1.0;' points = ' 0,520 768,520' preserveAspectRatio="none" transform="rotate(   0,  384,  520)" ></polyline><polyline  style = ' stroke:#D7D6D6;  fill:none;  stroke-width:1.0;' points = ' 0,550 768,550' preserveAspectRatio="none" transform="rotate(   0,  384,  550)" ></polyline><polyline  style = ' stroke:#D7D6D6;  fill:none;  stroke-width:1.0;' points = ' 0,580 768,580' preserveAspectRatio="none" transform="rotate(   0,  384,  580)" ></polyline><polyline  style = ' stroke:#D7D6D6;  fill:none;  stroke-width:1.0;' points = ' 0,610 768,610' preserveAspectRatio="none" transform="rotate(   0,  384,  610)" ></polyline><polyline  style = ' stroke:#D7D6D6;  fill:none;  stroke-width:1.0;' points = ' 0,640 768,640' preserveAspectRatio="none" transform="rotate(   0,  384,  640)" ></polyline><polyline  style = ' stroke:#D7D6D6;  fill:none;  stroke-width:1.0;' points = ' 0,670 768,670' preserveAspectRatio="none" transform="rotate(   0,  384,  670)" ></polyline><polyline  style = ' stroke:#D7D6D6;  fill:none;  stroke-width:1.0;' points = ' 0,700 768,700' preserveAspectRatio="none" transform="rotate(   0,  384,  700)" ></polyline><polyline  style = ' stroke:#D7D6D6;  fill:none;  stroke-width:1.0;' points = ' 0,730 768,730' preserveAspectRatio="none" transform="rotate(   0,  384,  730)" ></polyline><polyline  style = ' stroke:#D7D6D6;  fill:none;  stroke-width:1.0;' points = ' 0,760 768,760' preserveAspectRatio="none" transform="rotate(   0,  384,  760)" ></polyline><polyline  style = ' stroke:#D7D6D6;  fill:none;  stroke-width:1.0;' points = ' 0,790 768,790' preserveAspectRatio="none" transform="rotate(   0,  384,  790)" ></polyline><polyline  style = ' stroke:#D7D6D6;  fill:none;  stroke-width:1.0;' points = ' 0,820 768,820' preserveAspectRatio="none" transform="rotate(   0,  384,  820)" ></polyline><polyline  style = ' stroke:#D7D6D6;  fill:none;  stroke-width:1.0;' points = ' 0,850 768,850' preserveAspectRatio="none" transform="rotate(   0,  384,  850)" ></polyline><polyline  style = ' stroke:#D7D6D6;  fill:none;  stroke-width:1.0;' points = ' 0,880 768,880' preserveAspectRatio="none" transform="rotate(   0,  384,  880)" ></polyline><polyline  style = ' stroke:#D7D6D6;  fill:none;  stroke-width:1.0;' points = ' 0,910 768,910' preserveAspectRatio="none" transform="rotate(   0,  384,  910)" ></polyline><polyline  style = ' stroke:#D7D6D6;  fill:none;  stroke-width:1.0;' points = ' 0,940 768,940' preserveAspectRatio="none" transform="rotate(   0,  384,  940)" ></polyline><polyline  style = ' stroke:#D7D6D6;  fill:none;  stroke-width:1.0;' points = ' 0,970 768,970' preserveAspectRatio="none" transform="rotate(   0,  384,  970)" ></polyline><polyline  style = ' stroke:#C74F4F;  fill:none;  stroke-width:0.5;' points = ' 40,0 40,1024' preserveAspectRatio="none" transform="rotate(   0,   40,  512)" ></polyline><polyline  style = ' stroke:#B6B6B6; stroke-opacity:0.8; fill:none;  stroke-width:0.5;' points = ' 728,0 728,1024' preserveAspectRatio="none" transform="rotate(   0,  728,  512)" ></polyline></g><g id='id-main-layer'  type='type-normal' preserveAspectRatio="none" ><path  style = ' stroke:#000000;  fill:none;  stroke-width:1.0;' d="M55.75 98.37 L55.66 97.50 L55.63 96.72 L55.54 94.92 L55.36 92.66 L55.11 89.76 L54.84 86.47 L54.68 83.08 L54.59 79.84 L54.56 77.01 L54.68 74.84 L54.96 73.47 L55.42 72.70 L56.09 72.40 L57.00 72.31 L58.16 72.76 L59.44 73.92 L60.60 75.91 L61.37 78.38 L61.64 81.00 L61.31 83.44 L60.51 85.58 L59.29 87.32 L57.95 88.78 L56.67 89.91 L55.60 90.77 L54.93 91.47 L54.62 92.17 L54.78 92.97 L55.39 93.82 L56.58 94.64 L58.16 95.44 L59.93 96.08 L61.70 96.51 " stroke-linecap='round' stroke-linejoin='round' brush-type='1' stroke-wetness='0.5'></path><path  style = ' stroke:#000000;  fill:none;  stroke-width:1.0;' d="M66.19 91.04 L66.46 91.23 L66.92 91.29 L67.93 91.41 L69.33 91.23 L70.83 90.71 L72.14 89.85 L72.90 88.85 L73.18 87.93 L72.75 87.20 L71.74 86.80 L70.28 86.89 L68.81 87.63 L67.65 88.97 L66.95 90.71 L66.74 92.45 L67.29 94.00 L68.63 95.22 L70.86 96.05 L73.18 96.44 " stroke-linecap='round' stroke-linejoin='round' brush-type='1' stroke-wetness='0.5'></path><path  style = ' stroke:#000000;  fill:none;  stroke-width:1.0;' d="M80.74 90.04 L79.87 90.91 L79.22 91.65 L78.09 93.12 L77.54 94.43 L77.54 95.68 L78.55 96.78 " stroke-linecap='round' stroke-linejoin='round' brush-type='1' stroke-wetness='0.5'></path><path  style = ' stroke:#000000;  fill:none;  stroke-width:1.0;' d="M89.08 92.23 L88.30 92.51 L87.55 92.90 L86.33 93.76 L85.57 94.83 L85.32 95.83 L85.69 96.51 L86.54 96.51 L87.79 95.74 L88.86 94.43 L89.59 93.06 L89.93 92.14 L89.99 92.57 L89.90 94.00 L89.78 95.99 L89.75 97.30 " stroke-linecap='round' stroke-linejoin='round' brush-type='1' stroke-wetness='0.5'></path><path  style = ' stroke:#000000;  fill:none;  stroke-width:1.0;' d="M95.21 82.71 L95.12 83.49 L95.06 84.85 L94.84 87.84 L94.57 91.38 L94.29 94.61 L94.14 96.99 " stroke-linecap='round' stroke-linejoin='round' brush-type='1' stroke-wetness='0.5'></path><path  style = ' stroke:#000000;  fill:none;  stroke-width:1.0;' d="M98.14 82.53 L98.23 82.90 L98.26 83.72 L98.32 85.76 L98.32 88.85 L98.32 92.29 L98.32 95.56 " stroke-linecap='round' stroke-linejoin='round' brush-type='1' stroke-wetness='0.5'></path><path  style = ' stroke:#000000;  fill:none;  stroke-width:1.0;' d="M115.99 91.68 L115.76 92.10 L115.68 93.03 L115.53 94.55 L115.65 96.11 L116.11 96.99 L116.97 97.42 L118.13 97.30 L119.29 96.60 L120.32 95.38 L121.06 94.06 L121.51 93.15 L121.70 93.58 L121.76 95.07 L121.88 97.39 L122.15 99.19 " stroke-linecap='round' stroke-linejoin='round' brush-type='1' stroke-wetness='0.5'></path><path  style = ' stroke:#000000;  fill:none;  stroke-width:1.0;' d="M125.79 103.31 L125.56 102.35 L125.48 101.51 L125.33 99.74 L125.33 97.88 L125.39 95.86 L125.72 93.94 L126.33 92.45 L127.16 91.50 L127.92 91.04 L128.53 91.07 L128.93 91.68 L129.11 92.78 L128.90 94.09 L128.23 95.32 L127.22 96.32 L126.21 96.96 L125.39 97.24 " stroke-linecap='round' stroke-linejoin='round' brush-type='1' stroke-wetness='0.5'></path><path  style = ' stroke:#000000;  fill:none;  stroke-width:1.0;' d="M136.86 88.94 L136.95 89.49 L136.98 90.16 L137.05 91.65 L136.95 93.42 L136.74 95.35 L136.40 97.21 L136.16 98.64 " stroke-linecap='round' stroke-linejoin='round' brush-type='1' stroke-wetness='0.5'></path><path  style = ' stroke:#000000;  fill:none;  stroke-width:1.0;' d="M135.03 90.95 L135.72 90.95 L136.47 91.10 L137.96 91.50 " stroke-linecap='round' stroke-linejoin='round' brush-type='1' stroke-wetness='0.5'></path><path  style = ' stroke:#000000;  fill:none;  stroke-width:1.0;' d="M140.43 92.69 L140.75 93.33 L140.49 94.25 L140.28 95.83 L139.88 97.36 L140.31 98.31 L141.41 98.79 L142.94 98.55 L144.16 97.73 L144.77 96.41 L144.49 94.89 L143.45 93.55 L141.93 92.60 " stroke-linecap='round' stroke-linejoin='round' brush-type='1' stroke-wetness='0.5'></path><path  style = ' stroke:#000000;  fill:none;  stroke-width:1.0;' d="M154.07 93.97 L155.22 94.11 L156.39 92.81 L157.40 91.56 L157.06 90.52 L155.39 91.56 L153.83 93.27 L152.76 95.25 L152.27 96.90 L152.73 98.09 L153.95 98.79 L156.03 99.16 L158.22 99.31 " stroke-linecap='round' stroke-linejoin='round' brush-type='1' stroke-wetness='0.5'></path><path  style = ' stroke:#000000;  fill:none;  stroke-width:1.0;' d="M167.71 91.04 L166.98 90.81 L166.19 90.80 L164.75 91.01 L163.41 91.81 L162.37 93.00 L161.70 94.31 L161.46 95.47 L161.79 96.26 L162.65 96.63 L163.93 96.29 L165.27 95.32 L166.28 93.88 L166.86 92.60 L167.04 91.81 L166.80 91.59 L166.28 92.36 L165.49 94.28 L164.85 97.27 L164.45 100.29 L164.45 102.76 L165.00 104.32 L166.19 105.14 L167.90 105.11 " stroke-linecap='round' stroke-linejoin='round' brush-type='1' stroke-wetness='0.5'></path><path  style = ' stroke:#000000;  fill:none;  stroke-width:1.0;' d="M172.20 93.33 L171.74 93.88 L171.53 94.77 L171.16 96.35 L171.10 98.00 L171.25 99.07 L171.68 99.65 L172.47 99.50 L173.45 98.64 L174.34 97.09 L175.01 95.44 L175.37 94.28 L175.62 93.88 L175.77 94.67 L175.92 96.17 L176.20 98.06 L176.56 99.28 " stroke-linecap='round' stroke-linejoin='round' brush-type='1' stroke-wetness='0.5'></path><path  style = ' stroke:#000000;  fill:none;  stroke-width:1.0;' d="M181.81 93.51 L181.77 94.34 L181.75 95.41 L181.72 97.30 L181.69 99.07 " stroke-linecap='round' stroke-linejoin='round' brush-type='1' stroke-wetness='0.5'></path><path  style = ' stroke:#000000;  fill:none;  stroke-width:1.0;' d="M185.20 91.87 L185.25 92.65 L185.26 93.88 L185.29 95.99 L185.35 97.91 L185.66 98.92 L186.30 99.10 L187.27 98.28 L188.25 96.57 L189.17 94.40 L189.93 92.63 L190.72 91.68 L191.39 91.44 " stroke-linecap='round' stroke-linejoin='round' brush-type='1' stroke-wetness='0.5'></path><path  style = ' stroke:#000000;  fill:none;  stroke-width:1.0;' d="M193.44 95.44 L192.66 95.62 L192.22 95.89 L191.49 96.47 L191.36 97.12 L191.85 97.57 L192.83 97.51 L194.08 96.81 L195.03 95.62 L195.51 94.43 L195.64 93.67 L195.61 94.19 L195.51 95.59 L195.42 97.54 L195.39 98.89 " stroke-linecap='round' stroke-linejoin='round' brush-type='1' stroke-wetness='0.5'></path><path  style = ' stroke:#000000;  fill:none;  stroke-width:1.0;' d="M201.31 84.54 L201.22 85.18 L201.19 86.28 L201.10 88.72 L200.95 91.84 L200.73 94.92 L200.52 97.51 L200.43 99.28 " stroke-linecap='round' stroke-linejoin='round' brush-type='1' stroke-wetness='0.5'></path><path  style = ' stroke:#000000;  fill:none;  stroke-width:1.0;' d="M205.52 94.16 L205.89 94.29 L206.47 94.34 L207.57 94.40 L208.85 94.09 L209.95 93.45 L210.68 92.54 L210.74 91.65 L210.07 91.04 L208.91 90.74 L207.60 91.07 L206.50 92.11 L205.77 93.79 L205.43 95.71 L205.74 97.48 L206.41 98.76 " stroke-linecap='round' stroke-linejoin='round' brush-type='1' stroke-wetness='0.5'></path><path  style = ' stroke:#000000;  fill:none;  stroke-width:1.0;' d="M212.39 96.99 L212.21 96.44 L212.14 96.02 L212.11 95.16 L212.45 94.40 L213.09 93.76 L213.95 93.36 L214.77 93.45 L215.35 94.19 L215.68 95.50 L215.81 97.12 L215.90 98.64 L216.05 99.74 " stroke-linecap='round' stroke-linejoin='round' brush-type='1' stroke-wetness='0.5'></path><path  style = ' stroke:#000000;  fill:none;  stroke-width:1.0;' d="M220.44 91.87 L219.94 92.42 L219.65 93.03 L219.13 94.25 L218.95 95.47 L218.98 96.51 L219.41 97.18 L220.23 97.48 " stroke-linecap='round' stroke-linejoin='round' brush-type='1' stroke-wetness='0.5'></path><path  style = ' stroke:#000000;  fill:none;  stroke-width:1.0;' d="M223.10 95.16 L223.47 95.21 L223.95 95.19 L224.87 95.01 L225.69 94.55 L226.24 93.88 L226.49 93.18 L226.49 92.63 L226.15 92.32 L225.51 92.39 L224.66 93.03 L223.86 94.16 L223.31 95.56 L223.07 96.78 L223.31 97.73 L224.14 98.37 L225.75 98.70 L227.89 98.52 " stroke-linecap='round' stroke-linejoin='round' brush-type='1' stroke-wetness='0.5'></path><path  style = ' stroke:#000000;  fill:none;  stroke-width:1.0;' d="M241.23 92.69 L240.81 92.60 L240.43 92.63 L239.67 92.97 L238.94 93.85 L238.30 95.19 L237.90 96.72 L237.87 98.21 L238.45 99.43 L239.64 100.17 L241.32 100.17 L242.97 99.47 L244.13 98.31 L244.67 97.12 L244.46 96.08 L243.64 95.25 L242.32 94.64 L241.04 94.34 L240.13 94.25 L239.70 94.31 L239.85 94.46 " stroke-linecap='round' stroke-linejoin='round' brush-type='1' stroke-wetness='0.5'></path><path  style = ' stroke:#000000;  fill:none;  stroke-width:1.0;' d="M252.85 83.90 L252.17 83.58 L251.63 83.48 L250.50 83.41 L249.40 83.87 L248.24 84.73 L247.27 85.89 L246.66 87.29 L246.41 89.00 L246.51 90.92 L246.87 92.87 L247.39 94.61 L247.82 95.96 L248.06 96.84 " stroke-linecap='round' stroke-linejoin='round' brush-type='1' stroke-wetness='0.5'></path><path  style = ' stroke:#000000;  fill:none;  stroke-width:1.0;' d="M246.99 93.70 a0.50 0.50 0 1 0 0.01 0 " stroke-linecap='round' stroke-linejoin='round' brush-type='1' stroke-wetness='0.5'></path><path  style = ' stroke:#000000;  fill:none;  stroke-width:1.0;' d="M246.63 92.51 L247.31 92.42 L248.06 92.39 L249.74 92.32 " stroke-linecap='round' stroke-linejoin='round' brush-type='1' stroke-wetness='0.5'></path><path  style = ' stroke:#000000;  fill:none;  stroke-width:1.0;' d="M257.52 94.16 L258.12 94.25 L258.99 94.25 L260.63 94.03 L262.40 93.39 L263.78 92.45 L264.63 91.53 L264.81 90.83 L264.23 90.37 L263.04 90.13 L261.55 90.40 L260.24 91.32 L259.44 92.84 L259.20 94.61 L259.81 96.35 L261.21 97.85 L263.44 98.79 " stroke-linecap='round' stroke-linejoin='round' brush-type='1' stroke-wetness='0.5'></path><path  style = ' stroke:#000000;  fill:none;  stroke-width:1.0;' d="M270.25 90.13 L270.66 90.54 L271.44 91.20 L272.93 92.42 L274.73 93.70 L276.04 94.58 " stroke-linecap='round' stroke-linejoin='round' brush-type='1' stroke-wetness='0.5'></path><path  style = ' stroke:#000000;  fill:none;  stroke-width:1.0;' d="M274.82 88.02 L274.32 88.85 L273.73 90.22 L272.66 92.69 L271.74 95.44 L271.19 97.76 " stroke-linecap='round' stroke-linejoin='round' brush-type='1' stroke-wetness='0.5'></path><path  style = ' stroke:#000000;  fill:none;  stroke-width:1.0;' d="M278.94 88.66 L279.04 89.12 L279.07 90.25 L279.13 92.20 L279.07 94.52 L278.85 96.44 " stroke-linecap='round' stroke-linejoin='round' brush-type='1' stroke-wetness='0.5'></path><path  style = ' stroke:#000000;  fill:none;  stroke-width:1.0;' d="M277.57 91.87 L277.98 91.96 L278.52 91.99 L279.65 92.05 L280.99 92.08 L282.18 92.17 " stroke-linecap='round' stroke-linejoin='round' brush-type='1' stroke-wetness='0.5'></path><path  style = ' stroke:#000000;  fill:none;  stroke-width:1.0;' d="M284.80 93.97 L285.17 94.16 L285.81 94.13 L286.94 93.85 L288.01 93.15 L288.56 92.29 L288.56 91.62 L287.98 91.26 L286.94 91.41 L285.72 92.20 L284.74 93.61 L284.19 95.35 L284.28 97.21 " stroke-linecap='round' stroke-linejoin='round' brush-type='1' stroke-wetness='0.5'></path><path  style = ' stroke:#000000;  fill:none;  stroke-width:1.0;' d="M289.38 98.18 L289.38 97.41 L289.38 96.81 L289.53 95.59 L289.96 94.61 L290.69 93.85 L291.58 93.45 L292.46 93.55 L293.16 94.28 L293.62 95.59 L293.80 97.24 L293.87 98.55 " stroke-linecap='round' stroke-linejoin='round' brush-type='1' stroke-wetness='0.5'></path><path  style = ' stroke:#000000;  fill:none;  stroke-width:1.0;' d="M298.44 91.32 L298.12 91.55 L297.74 91.84 L296.95 92.45 L296.25 93.15 L295.82 93.76 L295.85 94.28 L296.40 94.74 L297.25 95.32 L298.11 95.99 L298.57 96.69 L298.72 97.45 L298.41 98.18 L297.68 98.89 L296.58 99.31 " stroke-linecap='round' stroke-linejoin='round' brush-type='1' stroke-wetness='0.5'></path><path  style = ' stroke:#000000;  fill:none;  stroke-width:1.0;' d="M301.10 93.24 L301.37 94.02 L301.37 94.77 L301.28 96.23 L300.79 97.66 L300.37 99.01 " stroke-linecap='round' stroke-linejoin='round' brush-type='1' stroke-wetness='0.5'></path><path  style = ' stroke:#000000;  fill:none;  stroke-width:1.0;' d="M303.57 95.07 L303.29 95.57 L302.99 96.41 L302.56 97.91 L302.47 99.25 L303.05 99.92 L304.03 99.80 L305.06 99.07 L305.68 97.88 L305.92 96.60 L305.80 95.53 L305.46 94.92 L304.85 94.74 L304.24 95.10 L303.81 95.93 " stroke-linecap='round' stroke-linejoin='round' brush-type='1' stroke-wetness='0.5'></path><path  style = ' stroke:#000000;  fill:none;  stroke-width:1.0;' d="M308.51 97.18 L308.28 96.35 L308.21 95.80 L308.18 94.74 L308.64 94.13 L309.49 93.79 L310.56 93.88 L311.50 94.52 L312.14 95.68 L312.45 97.18 L312.54 98.64 L312.45 99.89 L312.18 100.78 " stroke-linecap='round' stroke-linejoin='round' brush-type='1' stroke-wetness='0.5'></path><path  style = ' stroke:#000000;  fill:none;  stroke-width:1.0;' d="M327.74 98.28 L327.92 97.91 L328.01 97.15 L328.20 95.62 L328.29 93.42 L328.35 90.74 L328.38 87.69 L328.35 84.73 L328.26 82.25 L328.07 80.48 L327.89 79.48 L328.13 79.26 L329.02 79.54 L330.51 80.03 L332.28 80.52 L334.05 80.91 L335.64 81.22 L336.77 81.43 L337.38 81.58 " stroke-linecap='round' stroke-linejoin='round' brush-type='1' stroke-wetness='0.5'></path><path  style = ' stroke:#000000;  fill:none;  stroke-width:1.0;' d="M328.20 89.40 L328.47 89.49 L329.29 89.52 L331.03 89.58 L333.38 89.52 L335.58 89.43 L337.17 89.33 " stroke-linecap='round' stroke-linejoin='round' brush-type='1' stroke-wetness='0.5'></path><path  style = ' stroke:#000000;  fill:none;  stroke-width:1.0;' d="M328.20 98.00 L328.70 98.46 L329.72 98.70 L331.89 99.04 L334.67 98.58 L337.01 97.76 " stroke-linecap='round' stroke-linejoin='round' brush-type='1' stroke-wetness='0.5'></path><path  style = ' stroke:#000000;  fill:none;  stroke-width:1.0;' d="M339.73 90.59 L339.82 90.91 L340.10 91.38 L341.01 92.42 L342.48 93.67 L344.40 94.92 L346.23 95.96 L347.73 96.63 L348.58 96.93 " stroke-linecap='round' stroke-linejoin='round' brush-type='1' stroke-wetness='0.5'></path><path  style = ' stroke:#000000;  fill:none;  stroke-width:1.0;' d="M344.22 90.95 L343.99 91.64 L343.91 92.39 L343.64 93.91 L343.36 95.59 L343.06 97.30 " stroke-linecap='round' stroke-linejoin='round' brush-type='1' stroke-wetness='0.5'></path><path  style = ' stroke:#000000;  fill:none;  stroke-width:1.0;' d="M349.25 88.94 L349.43 89.53 L349.50 90.25 L349.62 91.71 L349.62 93.45 L349.59 95.22 " stroke-linecap='round' stroke-linejoin='round' brush-type='1' stroke-wetness='0.5'></path><path  style = ' stroke:#000000;  fill:none;  stroke-width:1.0;' d="M346.14 91.78 L346.51 91.78 L347.30 91.78 L348.73 91.78 L350.44 91.74 " stroke-linecap='round' stroke-linejoin='round' brush-type='1' stroke-wetness='0.5'></path><path  style = ' stroke:#000000;  fill:none;  stroke-width:1.0;' d="M355.11 78.32 L355.39 78.96 L355.54 79.87 L355.90 81.52 L356.18 83.14 L356.45 84.36 L356.61 85.18 " stroke-linecap='round' stroke-linejoin='round' brush-type='1' stroke-wetness='0.5'></path><path  style = ' stroke:#000000;  fill:none;  stroke-width:1.0;' d="M366.37 77.59 L366.05 77.81 L365.67 78.29 L364.81 79.42 L363.75 81.19 L362.65 83.38 L361.73 85.82 L361.18 88.30 L360.94 90.62 L361.09 92.63 L361.64 94.28 L362.53 95.59 L363.53 96.63 L364.57 97.42 L365.49 97.97 L366.19 98.34 L366.71 98.46 " stroke-linecap='round' stroke-linejoin='round' brush-type='1' stroke-wetness='0.5'></path><path  style = ' stroke:#000000;  fill:none;  stroke-width:1.0;' d="M353.74 95.44 L354.10 95.16 L354.53 95.07 L355.35 94.89 L356.21 94.89 L356.91 94.89 L357.40 94.89 L357.61 95.07 L357.52 95.53 L357.06 96.35 L356.27 97.36 L355.32 98.40 L354.50 99.31 L353.98 100.01 L353.77 100.53 L353.77 100.93 L354.07 101.27 L354.74 101.54 L355.72 101.72 L356.70 101.81 L357.40 101.85 L357.77 101.75 " stroke-linecap='round' stroke-linejoin='round' brush-type='1' stroke-wetness='0.5'></path><path  style = ' stroke:#000000;  fill:none;  stroke-width:1.0;' d="M352.91 99.56 L353.23 99.47 L353.77 99.43 L354.96 99.31 L356.61 99.10 L358.56 98.70 " stroke-linecap='round' stroke-linejoin='round' brush-type='1' stroke-wetness='0.5'></path><path  style = ' stroke:#000000;  fill:none;  stroke-width:1.0;' d="M371.77 80.15 L372.28 79.92 L372.78 79.84 L373.85 79.66 L375.07 79.57 L376.38 79.42 L377.63 79.29 L378.61 79.23 L379.22 79.23 L379.40 79.72 L379.03 80.76 L378.15 82.41 L376.93 84.15 L375.71 85.76 L374.76 87.05 L374.18 87.87 L373.91 88.30 " stroke-linecap='round' stroke-linejoin='round' brush-type='1' stroke-wetness='0.5'></path><path  style = ' stroke:#000000;  fill:none;  stroke-width:1.0;' d="M376.72 81.16 L376.26 81.25 L375.83 81.83 L374.95 82.99 L374.15 84.63 L373.45 86.10 L372.99 87.20 L372.75 87.78 L372.90 88.05 L373.60 88.14 L374.88 88.21 L376.41 88.17 L377.72 88.11 L378.61 87.99 L379.22 87.96 " stroke-linecap='round' stroke-linejoin='round' brush-type='1' stroke-wetness='0.5'></path><path  style = ' stroke:#000000;  fill:none;  stroke-width:1.0;' d="M377.26 93.70 L377.49 93.10 L377.72 92.54 L378.36 91.32 L379.22 89.94 L380.22 88.39 L381.14 86.83 L381.84 85.52 L382.27 84.67 L382.54 84.05 " stroke-linecap='round' stroke-linejoin='round' brush-type='1' stroke-wetness='0.5'></path><path  style = ' stroke:#000000;  fill:none;  stroke-width:1.0;' d="M380.38 97.54 L380.19 96.99 L380.13 96.54 L380.01 95.62 L380.10 94.83 L380.38 94.13 L380.84 93.67 L381.42 93.45 L381.96 93.73 L382.36 94.55 L382.57 95.89 L382.64 97.36 L382.67 98.58 " stroke-linecap='round' stroke-linejoin='round' brush-type='1' stroke-wetness='0.5'></path><path  style = ' stroke:#000000;  fill:none;  stroke-width:1.0;' d="M385.14 91.50 L385.46 91.45 L385.99 91.44 L386.94 91.38 L387.91 91.32 L388.62 91.26 L389.14 91.29 L389.44 91.74 L389.59 92.75 L389.35 94.28 L388.65 96.23 L387.76 97.85 " stroke-linecap='round' stroke-linejoin='round' brush-type='1' stroke-wetness='0.5'></path><path  style = ' stroke:#000000;  fill:none;  stroke-width:1.0;' d="M388.89 91.96 L388.57 92.51 L388.34 93.03 L387.79 94.09 L387.24 95.22 L386.76 96.29 L386.48 97.18 L386.51 97.76 L386.91 98.12 L387.70 98.34 L388.83 98.43 L389.99 98.46 L390.97 98.46 L391.55 98.46 " stroke-linecap='round' stroke-linejoin='round' brush-type='1' stroke-wetness='0.5'></path><path  style = ' stroke:#000000;  fill:none;  stroke-width:1.0;' d="M394.66 97.18 L394.70 97.68 L394.60 98.34 L394.23 99.59 L393.53 100.90 L392.64 102.03 L391.88 102.85 " stroke-linecap='round' stroke-linejoin='round' brush-type='1' stroke-wetness='0.5'></path><path  style = ' stroke:#000000;  fill:none;  stroke-width:1.0;' d="M398.32 82.53 L399.10 82.30 L399.88 82.22 L401.74 82.07 L403.69 82.07 L405.67 82.07 L407.20 82.07 L408.27 82.07 L408.82 82.59 L408.67 84.24 L407.99 86.71 L406.90 89.46 L405.77 91.62 L404.70 93.36 L403.81 94.61 L403.26 95.35 " stroke-linecap='round' stroke-linejoin='round' brush-type='1' stroke-wetness='0.5'></path><path  style = ' stroke:#000000;  fill:none;  stroke-width:1.0;' d="M406.10 83.63 L405.96 84.04 L405.86 84.67 L405.43 86.16 L404.70 88.27 L403.63 90.71 L402.56 92.93 L401.80 94.49 L401.43 95.28 L401.74 95.56 L402.71 95.62 L404.55 95.62 L406.68 95.62 L408.60 95.62 L409.89 95.62 L410.56 95.62 " stroke-linecap='round' stroke-linejoin='round' brush-type='1' stroke-wetness='0.5'></path><path  style = ' stroke:#000000;  fill:none;  stroke-width:1.0;' d="M412.97 80.33 L413.84 80.84 L414.40 81.55 L415.44 83.23 L415.93 85.55 L416.14 88.33 L415.90 91.20 L415.10 93.82 L413.85 95.96 L412.36 97.63 L410.62 98.95 L408.57 99.92 L406.29 100.53 L404.33 100.78 " stroke-linecap='round' stroke-linejoin='round' brush-type='1' stroke-wetness='0.5'></path><path  style = ' stroke:#000000;  fill:none;  stroke-width:1.0;' d="M431.83 89.94 L431.37 90.08 L430.91 90.34 L430.00 91.04 L429.11 92.14 L428.44 93.55 L428.07 94.98 L428.01 96.20 L428.41 97.09 L429.32 97.57 L430.70 97.79 " stroke-linecap='round' stroke-linejoin='round' brush-type='1' stroke-wetness='0.5'></path><path  style = ' stroke:#000000;  fill:none;  stroke-width:1.0;' d="M435.40 92.51 L434.39 92.87 L433.81 93.24 L432.77 94.06 L432.38 95.16 L432.22 96.38 L432.56 97.48 L433.47 98.06 L434.82 97.94 L435.98 97.21 L436.59 96.14 L436.71 95.07 L436.28 94.16 L435.52 93.45 L434.60 93.09 L433.93 93.15 L433.60 93.58 " stroke-linecap='round' stroke-linejoin='round' brush-type='1' stroke-wetness='0.5'></path><path  style = ' stroke:#000000;  fill:none;  stroke-width:1.0;' d="M437.78 97.54 L438.14 97.04 L438.27 96.57 L438.51 95.47 L438.66 94.37 L438.91 93.45 L439.30 93.00 L439.70 93.15 L440.13 93.88 L440.49 95.10 L440.83 96.47 " stroke-linecap='round' stroke-linejoin='round' brush-type='1' stroke-wetness='0.5'></path><path  style = ' stroke:#000000;  fill:none;  stroke-width:1.0;' d="M445.47 90.31 L444.64 90.86 L444.37 91.35 L443.88 92.51 L443.97 93.79 L444.06 95.25 L444.09 96.60 L444.09 97.73 " stroke-linecap='round' stroke-linejoin='round' brush-type='1' stroke-wetness='0.5'></path><path  style = ' stroke:#000000;  fill:none;  stroke-width:1.0;' d="M442.35 92.51 L442.68 92.32 L443.12 92.26 L444.16 92.14 L445.50 92.17 L446.78 92.26 " stroke-linecap='round' stroke-linejoin='round' brush-type='1' stroke-wetness='0.5'></path><path  style = ' stroke:#000000;  fill:none;  stroke-width:1.0;' d="M448.76 93.06 L448.31 93.56 L447.88 94.09 L447.15 95.19 L446.72 96.20 L446.69 96.87 L447.27 97.02 L448.24 96.44 L449.34 95.38 L450.08 94.16 L450.41 93.36 L450.50 93.51 L450.50 94.46 L450.50 95.65 " stroke-linecap='round' stroke-linejoin='round' brush-type='1' stroke-wetness='0.5'></path><path  style = ' stroke:#000000;  fill:none;  stroke-width:1.0;' d="M453.62 93.24 L453.52 93.84 L453.49 94.52 L453.37 95.89 L453.19 97.48 " stroke-linecap='round' stroke-linejoin='round' brush-type='1' stroke-wetness='0.5'></path><path  style = ' stroke:#000000;  fill:none;  stroke-width:1.0;' d="M453.25 89.12 L453.48 89.44 L453.68 89.88 L454.04 90.68 " stroke-linecap='round' stroke-linejoin='round' brush-type='1' stroke-wetness='0.5'></path><path  style = ' stroke:#000000;  fill:none;  stroke-width:1.0;' d="M456.45 95.62 L456.27 95.07 L456.21 94.58 L456.18 93.55 L456.51 92.66 L457.06 91.99 L457.73 91.68 L458.34 91.74 L458.80 92.36 L459.05 93.51 L459.11 95.07 L459.11 96.54 " stroke-linecap='round' stroke-linejoin='round' brush-type='1' stroke-wetness='0.5'></path><path  style = ' stroke:#000000;  fill:none;  stroke-width:1.0;' d="M462.40 91.68 L462.08 91.91 L461.79 92.26 L461.40 93.00 L461.37 93.73 L461.79 94.37 L462.40 94.80 L462.92 95.22 L463.20 95.62 L463.20 96.14 L462.80 96.72 L461.95 97.36 L460.79 97.91 L459.78 98.28 " stroke-linecap='round' stroke-linejoin='round' brush-type='1' stroke-wetness='0.5'></path><path  style = ' stroke:#000000;  fill:none;  stroke-width:1.0;' d="M478.79 82.25 L478.84 82.57 L478.85 83.57 L478.88 85.52 L478.88 88.14 L478.88 90.62 L478.79 92.84 L478.67 94.67 L478.52 96.14 L478.45 97.21 " stroke-linecap='round' stroke-linejoin='round' brush-type='1' stroke-wetness='0.5'></path><path  style = ' stroke:#000000;  fill:none;  stroke-width:1.0;' d="M483.28 91.87 L483.64 91.87 L484.19 91.87 L485.44 91.87 L487.09 91.90 L488.92 91.93 L490.72 91.96 L492.31 91.93 L493.47 91.78 L494.14 91.59 L494.38 91.29 L494.14 90.92 L493.47 90.46 L492.55 90.07 L491.85 89.82 L491.97 90.19 L492.49 90.95 L493.10 92.05 L493.16 92.97 L492.74 93.88 L491.94 94.70 L490.87 95.35 L489.96 95.71 " stroke-linecap='round' stroke-linejoin='round' brush-type='1' stroke-wetness='0.5'></path><path  style = ' stroke:#000000;  fill:none;  stroke-width:1.0;' d="M513.49 88.48 L513.81 88.57 L514.77 88.60 L516.72 88.66 L519.32 88.66 L521.82 88.66 L524.05 88.66 L525.72 88.66 L526.70 88.66 L526.61 88.54 L525.72 88.21 L524.41 87.72 L523.40 87.29 L522.86 87.05 L523.01 87.11 L523.68 87.47 L524.69 88.14 L525.45 88.85 L525.88 89.46 L526.00 89.94 L525.75 90.46 L525.11 90.98 L524.14 91.41 L523.25 91.65 " stroke-linecap='round' stroke-linejoin='round' brush-type='1' stroke-wetness='0.5'></path><path  style = ' stroke:#000000;  fill:none;  stroke-width:1.0;' d="M529.23 81.34 L530.15 80.61 L532.80 80.00 L536.80 79.60 L540.46 80.45 L541.87 82.44 L542.23 84.79 L542.32 87.01 L542.26 89.12 L542.20 90.89 L542.14 92.39 L542.29 93.45 L542.93 94.19 L544.12 94.55 L545.65 94.70 L547.08 94.70 L548.21 94.67 L548.92 94.58 L549.10 94.34 " stroke-linecap='round' stroke-linejoin='round' brush-type='1' stroke-wetness='0.5'></path><path  style = ' stroke:#000000;  fill:none;  stroke-width:1.0;' d="M547.82 79.14 L547.36 79.69 L546.69 80.70 L545.38 82.68 L543.82 85.21 L542.32 87.75 L540.89 90.16 L539.67 92.11 L538.69 93.51 L538.05 94.37 L537.75 94.83 L537.90 94.92 " stroke-linecap='round' stroke-linejoin='round' brush-type='1' stroke-wetness='0.5'></path><path  style = ' stroke:#000000;  fill:none;  stroke-width:1.0;' d="M553.86 88.02 L554.27 88.11 L555.08 88.14 L556.67 88.21 L558.68 88.21 L560.69 88.21 L562.62 88.21 L564.26 88.21 L565.45 88.21 L566.19 88.21 L566.34 87.96 L566.00 87.47 L565.33 86.86 L564.69 86.44 L564.69 86.74 L565.09 87.53 L565.67 88.66 L565.88 89.55 L565.91 90.31 L565.64 90.98 L565.00 91.59 L564.05 92.05 L563.07 92.39 L562.31 92.54 " stroke-linecap='round' stroke-linejoin='round' brush-type='1' stroke-wetness='0.5'></path><path  style = ' stroke:#000000;  fill:none;  stroke-width:1.0;' d="M568.23 76.49 L568.69 76.40 L569.27 76.36 L570.64 76.27 L572.32 76.21 L574.12 76.12 L575.62 76.06 L576.68 76.03 L577.29 76.12 L577.57 76.58 L577.42 77.56 L576.81 78.99 L575.80 80.61 L574.64 82.16 L573.60 83.57 L572.87 84.57 " stroke-linecap='round' stroke-linejoin='round' brush-type='1' stroke-wetness='0.5'></path><path  style = ' stroke:#000000;  fill:none;  stroke-width:1.0;' d="M575.56 77.04 L575.33 77.40 L574.79 78.23 L573.72 79.78 L572.41 81.55 L571.37 82.90 L570.76 83.69 L570.55 84.05 L570.86 84.15 L571.65 84.18 L572.93 84.18 L574.24 84.18 L575.37 84.15 L576.14 84.12 L576.59 84.09 L576.75 84.33 " stroke-linecap='round' stroke-linejoin='round' brush-type='1' stroke-wetness='0.5'></path><path  style = ' stroke:#000000;  fill:none;  stroke-width:1.0;' d="M574.55 89.85 L575.05 89.17 L575.83 88.36 L577.33 86.71 L578.97 84.94 L580.50 83.20 L581.84 81.71 L582.91 80.58 L583.55 79.97 L583.83 79.97 " stroke-linecap='round' stroke-linejoin='round' brush-type='1' stroke-wetness='0.5'></path><path  style = ' stroke:#000000;  fill:none;  stroke-width:1.0;' d="M575.56 96.63 L575.42 96.17 L575.37 95.80 L575.31 94.95 L575.46 94.03 L575.77 93.03 L576.26 92.14 L576.84 91.53 L577.51 91.23 L578.21 91.44 L578.82 92.26 L579.22 93.70 L579.37 95.32 L579.34 96.75 L579.19 97.79 " stroke-linecap='round' stroke-linejoin='round' brush-type='1' stroke-wetness='0.5'></path><path  style = ' stroke:#000000;  fill:none;  stroke-width:1.0;' d="M581.78 89.76 L582.15 89.67 L582.60 89.64 L583.64 89.58 L584.95 89.55 L586.36 89.49 L587.55 89.43 L588.31 89.40 L588.68 89.61 L588.77 90.34 L588.40 91.65 L587.55 93.36 L586.39 95.07 L585.32 96.60 L584.56 97.79 L584.04 98.61 " stroke-linecap='round' stroke-linejoin='round' brush-type='1' stroke-wetness='0.5'></path><path  style = ' stroke:#000000;  fill:none;  stroke-width:1.0;' d="M585.44 90.31 L585.21 90.63 L585.11 91.23 L584.68 92.57 L584.16 94.40 L583.46 96.23 L582.94 97.73 L582.67 98.64 L582.73 99.10 L583.25 99.25 L584.31 99.28 L585.84 99.13 L587.40 98.85 L588.77 98.46 L589.90 98.06 L590.75 97.66 " stroke-linecap='round' stroke-linejoin='round' brush-type='1' stroke-wetness='0.5'></path><path  style = ' stroke:#000000;  fill:none;  stroke-width:1.0;' d="M592.31 90.22 L592.81 90.08 L593.35 90.04 L594.60 89.94 L596.15 89.94 L597.98 89.94 L599.91 89.94 L601.71 90.01 L603.23 90.13 L604.39 90.25 L605.09 90.31 L605.37 90.16 L605.16 89.70 L604.76 89.09 L604.39 88.54 L604.61 88.82 L604.97 89.64 L605.37 90.92 L605.34 91.99 L605.03 92.93 L604.48 93.67 L603.78 94.25 L603.11 94.61 L602.59 94.83 " stroke-linecap='round' stroke-linejoin='round' brush-type='1' stroke-wetness='0.5'></path><path  style = ' stroke:#000000;  fill:none;  stroke-width:1.0;' d="M608.51 83.08 L608.56 83.86 L608.57 84.88 L608.54 87.14 L608.39 89.88 L608.15 92.75 L607.84 95.25 L607.57 97.24 L607.32 98.76 L607.20 99.80 " stroke-linecap='round' stroke-linejoin='round' brush-type='1' stroke-wetness='0.5'></path><path  style = ' stroke:#000000;  fill:none;  stroke-width:1.0;' d="M60.60 126.56 L60.83 126.29 L61.09 125.31 L61.76 123.39 L62.62 120.70 L63.56 117.84 L64.45 115.09 L65.18 112.68 L65.79 110.97 L66.22 109.87 L66.52 109.38 L66.89 110.08 L67.38 112.10 L67.93 115.49 L68.36 119.18 L68.66 122.47 L68.97 124.85 L69.21 126.29 " stroke-linecap='round' stroke-linejoin='round' brush-type='1' stroke-wetness='0.5'></path><path  style = ' stroke:#000000;  fill:none;  stroke-width:1.0;' d="M63.63 119.88 L63.99 119.74 L65.06 119.70 L67.07 119.61 L69.79 119.61 " stroke-linecap='round' stroke-linejoin='round' brush-type='1' stroke-wetness='0.5'></path><path  style = ' stroke:#000000;  fill:none;  stroke-width:1.0;' d="M77.17 115.03 L77.04 115.58 L76.99 116.34 L76.87 118.20 L76.84 120.64 L76.81 123.39 L76.87 125.53 " stroke-linecap='round' stroke-linejoin='round' brush-type='1' stroke-wetness='0.5'></path><path  style = ' stroke:#000000;  fill:none;  stroke-width:1.0;' d="M82.85 121.53 L82.12 121.76 L81.57 122.02 L80.74 122.60 L80.44 123.33 L80.81 124.18 L81.63 125.07 L82.70 125.86 L83.52 126.50 L83.92 126.99 L83.98 127.42 L83.55 127.88 L82.67 128.39 L81.48 128.94 L80.53 129.37 " stroke-linecap='round' stroke-linejoin='round' brush-type='1' stroke-wetness='0.5'></path><path  style = ' stroke:#000000;  fill:none;  stroke-width:1.0;' d="M88.34 123.45 L87.61 124.09 L87.15 124.82 L86.42 126.26 L86.21 127.75 L86.82 128.88 L88.19 129.25 L89.96 128.61 L91.30 127.30 L91.91 125.83 L91.85 124.52 L91.24 123.51 L90.36 122.90 L89.50 122.72 L89.01 122.99 " stroke-linecap='round' stroke-linejoin='round' brush-type='1' stroke-wetness='0.5'></path><path  style = ' stroke:#000000;  fill:none;  stroke-width:1.0;' d="M109.58 128.03 L109.22 127.52 L109.03 126.93 L108.61 125.62 L108.33 123.82 L108.09 121.56 L107.96 118.96 L107.93 116.49 L107.93 114.42 L107.93 112.95 L107.93 112.16 L108.15 111.85 L108.79 111.82 L109.89 111.82 L111.20 111.82 L112.42 111.85 L113.46 111.95 L114.19 112.13 " stroke-linecap='round' stroke-linejoin='round' brush-type='1' stroke-wetness='0.5'></path><path  style = ' stroke:#000000;  fill:none;  stroke-width:1.0;' d="M108.39 120.34 L109.03 120.15 L110.10 120.06 L112.08 119.76 L114.22 119.51 L115.84 119.30 " stroke-linecap='round' stroke-linejoin='round' brush-type='1' stroke-wetness='0.5'></path><path  style = ' stroke:#000000;  fill:none;  stroke-width:1.0;' d="M109.49 126.01 L109.81 126.15 L110.62 126.20 L112.18 126.23 L114.16 125.95 L115.68 125.59 " stroke-linecap='round' stroke-linejoin='round' brush-type='1' stroke-wetness='0.5'></path><path  style = ' stroke:#000000;  fill:none;  stroke-width:1.0;' d="M119.65 117.41 L120.02 117.68 L120.75 118.26 L122.58 119.97 L124.56 121.92 L126.24 123.73 L127.07 124.67 " stroke-linecap='round' stroke-linejoin='round' brush-type='1' stroke-wetness='0.5'></path><path  style = ' stroke:#000000;  fill:none;  stroke-width:1.0;' d="M125.97 116.77 L125.56 117.41 L125.11 118.08 L124.20 119.58 L123.25 121.28 L122.37 123.11 L121.76 124.73 L121.45 125.83 " stroke-linecap='round' stroke-linejoin='round' brush-type='1' stroke-wetness='0.5'></path><path  style = ' stroke:#000000;  fill:none;  stroke-width:1.0;' d="M129.72 116.77 L129.68 117.18 L129.66 117.81 L129.63 119.21 L129.63 121.01 L129.63 122.90 L129.63 124.43 " stroke-linecap='round' stroke-linejoin='round' brush-type='1' stroke-wetness='0.5'></path><path  style = ' stroke:#000000;  fill:none;  stroke-width:1.0;' d="M128.07 119.51 L128.76 119.42 L129.66 119.39 L131.37 119.36 L132.90 119.39 " stroke-linecap='round' stroke-linejoin='round' brush-type='1' stroke-wetness='0.5'></path><path  style = ' stroke:#000000;  fill:none;  stroke-width:1.0;' d="M135.67 108.80 L135.72 109.40 L135.73 109.93 L135.76 111.03 L135.76 112.13 L135.76 113.41 L135.76 114.54 " stroke-linecap='round' stroke-linejoin='round' brush-type='1' stroke-wetness='0.5'></path><path  style = ' stroke:#000000;  fill:none;  stroke-width:1.0;' d="M134.76 121.35 L135.12 121.07 L135.76 120.95 L136.92 120.61 L138.11 120.46 L138.94 120.34 L139.40 120.49 L139.36 121.10 L138.79 122.32 L137.72 123.91 L136.53 125.40 L135.58 126.44 L135.06 127.02 L135.15 127.27 L135.86 127.36 L137.02 127.39 L138.30 127.39 L139.33 127.39 L140.07 127.39 L140.43 127.17 " stroke-linecap='round' stroke-linejoin='round' brush-type='1' stroke-wetness='0.5'></path><path  style = ' stroke:#000000;  fill:none;  stroke-width:1.0;' d="M137.87 121.35 L137.78 121.62 L137.47 122.38 L136.77 123.82 L135.79 125.65 L134.88 127.20 L134.24 128.33 L133.93 128.94 L134.15 129.16 L135.12 129.22 L136.53 129.22 L137.96 129.19 L138.91 129.13 L139.49 129.07 L139.79 128.91 " stroke-linecap='round' stroke-linejoin='round' brush-type='1' stroke-wetness='0.5'></path><path  style = ' stroke:#000000;  fill:none;  stroke-width:1.0;' d="M150.78 110.18 L149.59 111.92 L148.49 114.36 L146.84 118.48 L145.99 122.35 L145.99 125.04 L146.60 127.02 L147.70 128.30 L149.25 129.00 L150.96 129.31 L152.76 129.22 L154.17 128.79 L155.20 128.06 " stroke-linecap='round' stroke-linejoin='round' brush-type='1' stroke-wetness='0.5'></path><path  style = ' stroke:#000000;  fill:none;  stroke-width:1.0;' d="M157.00 110.54 L157.60 110.22 L158.35 110.12 L159.93 109.78 L161.76 109.60 L163.66 109.35 L165.33 109.23 L166.52 109.20 L167.16 109.54 L167.38 110.36 L167.20 111.85 L166.58 113.69 L165.64 115.64 L164.72 117.32 L164.05 118.60 L163.66 119.36 L163.38 119.76 " stroke-linecap='round' stroke-linejoin='round' brush-type='1' stroke-wetness='0.5'></path><path  style = ' stroke:#000000;  fill:none;  stroke-width:1.0;' d="M164.69 111.00 L164.37 111.18 L163.96 111.85 L163.11 113.26 L162.16 115.21 L161.31 117.07 L160.63 118.54 L160.27 119.36 L160.12 119.73 L160.42 119.85 L161.18 119.94 L162.56 119.97 L164.24 119.79 L165.94 119.42 L167.32 118.93 L168.20 118.57 " stroke-linecap='round' stroke-linejoin='round' brush-type='1' stroke-wetness='0.5'></path><path  style = ' stroke:#000000;  fill:none;  stroke-width:1.0;' d="M162.40 126.20 L163.00 125.37 L163.78 124.55 L165.55 122.69 L167.90 120.52 L170.61 117.99 L173.33 115.55 L175.65 113.56 L177.42 112.25 L178.58 111.58 L179.22 111.31 " stroke-linecap='round' stroke-linejoin='round' brush-type='1' stroke-wetness='0.5'></path><path  style = ' stroke:#000000;  fill:none;  stroke-width:1.0;' d="M168.08 127.75 L168.03 127.20 L168.02 126.56 L168.14 125.37 L168.48 124.27 L169.06 123.48 L169.76 123.05 L170.52 122.99 L171.22 123.54 L171.74 124.67 L172.02 126.23 L172.11 127.72 L172.02 128.88 L171.83 129.52 " stroke-linecap='round' stroke-linejoin='round' brush-type='1' stroke-wetness='0.5'></path><path  style = ' stroke:#000000;  fill:none;  stroke-width:1.0;' d="M174.76 121.07 L175.40 120.84 L176.29 120.73 L177.94 120.43 L179.58 120.19 L180.84 119.94 L181.60 119.79 L181.90 120.22 L181.60 121.28 L180.84 122.99 L179.77 124.76 L178.76 126.32 L178.03 127.54 L177.60 128.30 L177.42 128.67 L177.39 128.52 " stroke-linecap='round' stroke-linejoin='round' brush-type='1' stroke-wetness='0.5'></path><path  style = ' stroke:#000000;  fill:none;  stroke-width:1.0;' d="M178.79 121.44 L178.20 121.76 L177.78 122.44 L176.96 123.79 L176.32 125.46 L175.86 126.87 L175.62 127.78 L175.59 128.21 L175.89 128.39 L176.66 128.52 L178.06 128.58 L179.74 128.58 L181.38 128.58 L182.64 128.58 L183.40 128.58 L183.77 128.58 L183.95 128.33 " stroke-linecap='round' stroke-linejoin='round' brush-type='1' stroke-wetness='0.5'></path><path  style = ' stroke:#000000;  fill:none;  stroke-width:1.0;' d="M190.33 126.56 L190.51 126.93 L190.57 127.33 L190.69 128.21 L190.57 129.19 L190.20 130.19 L189.56 131.08 L188.80 131.78 L188.07 132.27 L187.46 132.54 L186.91 132.70 L186.48 132.76 " stroke-linecap='round' stroke-linejoin='round' brush-type='1' stroke-wetness='0.5'></path><path  style = ' stroke:#000000;  fill:none;  stroke-width:1.0;' d="M198.29 111.18 L199.07 110.77 L200.12 110.60 L202.01 110.30 L203.81 110.27 L205.07 110.30 L205.83 110.63 L206.16 111.52 L205.95 113.08 L205.10 115.12 L203.23 117.96 L201.37 120.55 L199.85 122.66 L199.30 123.54 L199.05 124.00 L199.36 123.91 " stroke-linecap='round' stroke-linejoin='round' brush-type='1' stroke-wetness='0.5'></path><path  style = ' stroke:#000000;  fill:none;  stroke-width:1.0;' d="M203.69 112.74 L203.37 113.11 L202.99 113.66 L202.14 114.97 L201.16 116.71 L200.12 118.66 L199.21 120.46 L198.53 121.89 L198.20 122.84 L198.11 123.39 L198.35 123.66 L199.08 123.82 L200.34 123.88 L201.95 123.91 L203.54 123.91 L205.07 123.91 L206.35 123.85 L207.29 123.69 " stroke-linecap='round' stroke-linejoin='round' brush-type='1' stroke-wetness='0.5'></path><path  style = ' stroke:#000000;  fill:none;  stroke-width:1.0;' d="M210.37 110.91 L210.83 111.27 L211.38 112.31 L212.21 114.36 L212.72 117.07 L212.57 119.73 L211.90 122.11 L210.65 124.15 L209.12 125.65 L207.57 126.72 L206.22 127.23 L205.25 127.39 L204.70 127.14 " stroke-linecap='round' stroke-linejoin='round' brush-type='1' stroke-wetness='0.5'></path><path  style = ' stroke:#000000;  fill:none;  stroke-width:1.0;' d="M217.24 119.24 L217.61 119.33 L218.13 119.36 L219.32 119.42 L220.96 119.42 L222.83 119.36 L224.60 119.21 L225.75 119.06 " stroke-linecap='round' stroke-linejoin='round' brush-type='1' stroke-wetness='0.5'></path><path  style = ' stroke:#000000;  fill:none;  stroke-width:1.0;' d="M217.06 124.55 L218.16 124.59 L219.10 124.61 L221.15 124.58 L223.10 124.34 L224.96 123.88 " stroke-linecap='round' stroke-linejoin='round' brush-type='1' stroke-wetness='0.5'></path><path  style = ' stroke:#000000;  fill:none;  stroke-width:1.0;' d="M217.15 116.13 L217.56 115.62 L218.37 115.21 L219.80 114.54 L221.30 114.20 L222.31 114.14 L222.89 114.36 L223.16 114.72 L223.31 115.12 L223.56 115.39 L224.08 115.52 L224.99 115.49 L226.18 115.21 L227.16 114.81 " stroke-linecap='round' stroke-linejoin='round' brush-type='1' stroke-wetness='0.5'></path><path  style = ' stroke:#000000;  fill:none;  stroke-width:1.0;' d="M232.53 108.99 L232.99 108.62 L233.99 108.41 L235.95 107.92 L238.33 107.58 L240.55 107.34 L242.45 107.25 L243.82 107.25 L244.58 107.34 L244.89 107.86 L244.74 109.05 L244.06 110.91 L242.94 113.11 L241.71 115.27 L240.65 117.19 L239.85 118.66 L238.94 119.79 " stroke-linecap='round' stroke-linejoin='round' brush-type='1' stroke-wetness='0.5'></path><path  style = ' stroke:#000000;  fill:none;  stroke-width:1.0;' d="M242.97 108.89 L242.55 109.58 L241.90 110.73 L240.71 112.86 L239.46 115.12 L238.45 116.83 L237.75 117.87 L237.38 118.35 L237.66 118.48 L238.57 118.51 L240.13 118.38 L241.93 118.08 L243.64 117.68 L245.04 117.38 L245.93 117.26 " stroke-linecap='round' stroke-linejoin='round' brush-type='1' stroke-wetness='0.5'></path><path  style = ' stroke:#000000;  fill:none;  stroke-width:1.0;' d="M242.05 126.11 L242.51 125.33 L243.09 124.58 L244.46 122.87 L246.32 120.83 L248.49 118.42 L250.69 115.97 L252.58 113.96 L254.01 112.65 L254.90 112.07 L255.35 112.04 " stroke-linecap='round' stroke-linejoin='round' brush-type='1' stroke-wetness='0.5'></path><path  style = ' stroke:#000000;  fill:none;  stroke-width:1.0;' d="M249.19 129.58 L249.28 129.22 L249.31 128.76 L249.50 127.72 L249.89 126.44 L250.62 125.19 L251.54 124.27 L252.49 123.85 L253.31 123.88 L253.95 124.46 L254.32 125.56 L254.47 126.96 L254.44 128.27 L254.23 129.19 " stroke-linecap='round' stroke-linejoin='round' brush-type='1' stroke-wetness='0.5'></path><path  style = ' stroke:#000000;  fill:none;  stroke-width:1.0;' d="M256.06 121.16 L256.61 121.12 L257.19 121.10 L258.53 121.04 L260.18 120.89 L261.92 120.61 L263.32 120.34 L264.14 120.19 L264.39 120.61 L264.02 121.74 L263.04 123.60 L261.73 125.59 L260.45 127.39 L259.51 128.76 L258.93 129.65 L258.59 130.07 " stroke-linecap='round' stroke-linejoin='round' brush-type='1' stroke-wetness='0.5'></path><path  style = ' stroke:#000000;  fill:none;  stroke-width:1.0;' d="M262.65 121.25 L262.51 121.57 L262.28 122.05 L261.70 123.05 L260.88 124.43 L259.99 125.86 L259.32 127.14 L258.99 128.00 L258.99 128.52 L259.44 128.82 L260.45 129.07 L261.89 129.25 L263.38 129.37 L264.66 129.40 L265.67 129.40 L266.40 129.40 L266.86 129.40 " stroke-linecap='round' stroke-linejoin='round' brush-type='1' stroke-wetness='0.5'></path><path  style = ' stroke:#000000;  fill:none;  stroke-width:1.0;' d="M271.62 129.03 a0.50 0.50 0 1 0 0.01 0 " stroke-linecap='round' stroke-linejoin='round' brush-type='1' stroke-wetness='0.5'></path><path  style = ' stroke:#000000;  fill:none;  stroke-width:1.0;' d="M63.26 157.96 L63.44 157.64 L63.53 157.02 L63.72 155.61 L63.78 153.72 L63.72 151.43 L63.47 148.99 L63.14 146.49 L62.89 144.38 L62.80 142.74 L63.05 141.58 L63.63 140.78 L64.69 140.36 L66.01 140.39 L67.35 141.09 L68.32 142.46 L68.81 144.29 L68.60 146.15 L67.74 147.77 L66.46 148.99 L65.21 149.82 L64.39 150.27 L63.96 150.52 L64.48 150.76 L65.55 151.13 L67.01 151.71 L67.99 152.38 L68.54 153.11 L68.66 153.87 L68.26 154.73 L67.35 155.61 L66.04 156.41 L64.72 156.96 L63.35 157.32 " stroke-linecap='round' stroke-linejoin='round' brush-type='1' stroke-wetness='0.5'></path><path  style = ' stroke:#000000;  fill:none;  stroke-width:1.0;' d="M70.22 152.47 L70.40 152.93 L70.46 153.60 L70.58 154.82 L70.64 155.98 L71.01 156.62 L71.74 156.77 L72.78 156.22 L73.76 155.19 L74.52 153.87 L74.98 152.93 L75.19 152.44 L75.19 152.78 L74.98 153.66 L74.61 155.16 L74.28 156.65 L74.09 157.84 " stroke-linecap='round' stroke-linejoin='round' brush-type='1' stroke-wetness='0.5'></path><path  style = ' stroke:#000000;  fill:none;  stroke-width:1.0;' d="M78.91 150.55 L78.82 151.24 L78.70 152.14 L78.39 153.84 L78.06 155.31 " stroke-linecap='round' stroke-linejoin='round' brush-type='1' stroke-wetness='0.5'></path><path  style = ' stroke:#000000;  fill:none;  stroke-width:1.0;' d="M76.90 151.56 L77.77 151.10 L79.00 150.98 L81.35 150.95 L83.52 151.37 " stroke-linecap='round' stroke-linejoin='round' brush-type='1' stroke-wetness='0.5'></path><path  style = ' stroke:#000000;  fill:none;  stroke-width:1.0;' d="M91.27 153.39 L90.31 153.75 L89.65 154.18 L88.46 155.19 L87.85 156.50 L87.73 157.93 L88.53 158.97 L90.17 159.15 L92.28 158.36 L94.11 156.93 L95.21 155.34 L95.64 153.91 L95.30 152.87 L94.57 152.26 L93.59 152.04 L92.80 152.38 L92.34 153.36 " stroke-linecap='round' stroke-linejoin='round' brush-type='1' stroke-wetness='0.5'></path><path  style = ' stroke:#000000;  fill:none;  stroke-width:1.0;' d="M96.95 157.87 L96.67 157.19 L96.58 156.53 L96.40 155.19 L96.46 153.91 L96.83 152.84 L97.56 152.23 L98.60 152.17 L99.57 152.78 L100.24 154.00 L100.55 155.61 L100.58 157.23 L100.37 158.51 L100.09 159.25 " stroke-linecap='round' stroke-linejoin='round' brush-type='1' stroke-wetness='0.5'></path><path  style = ' stroke:#000000;  fill:none;  stroke-width:1.0;' d="M105.10 147.62 L105.19 148.31 L105.22 149.24 L104.97 151.52 L104.24 154.42 L103.20 157.60 L102.35 160.41 L101.92 162.48 " stroke-linecap='round' stroke-linejoin='round' brush-type='1' stroke-wetness='0.5'></path><path  style = ' stroke:#000000;  fill:none;  stroke-width:1.0;' d="M110.59 153.11 L110.41 153.75 L109.95 155.03 L109.03 157.45 L107.99 160.10 " stroke-linecap='round' stroke-linejoin='round' brush-type='1' stroke-wetness='0.5'></path><path  style = ' stroke:#000000;  fill:none;  stroke-width:1.0;' d="M107.29 160.25 L107.16 158.97 L106.84 157.96 L106.26 156.13 L105.58 154.97 L105.16 154.36 " stroke-linecap='round' stroke-linejoin='round' brush-type='1' stroke-wetness='0.5'></path><path  style = ' stroke:#000000;  fill:none;  stroke-width:1.0;' d="M120.11 147.53 L120.43 147.25 L120.99 147.16 L122.15 147.04 L123.44 147.56 L124.38 148.69 L124.84 150.52 L124.69 152.53 L123.92 154.39 L122.76 155.77 L121.70 156.62 L121.09 157.08 L121.24 157.35 L122.12 157.54 L123.53 157.66 L124.96 157.69 L126.00 157.72 L126.61 157.93 " stroke-linecap='round' stroke-linejoin='round' brush-type='1' stroke-wetness='0.5'></path><path  style = ' stroke:#000000;  fill:none;  stroke-width:1.0;' d="M107.38 158.06 L107.38 158.51 L107.38 159.03 L107.29 160.19 L107.02 161.47 L106.59 162.79 L106.16 163.98 L105.92 164.89 " stroke-linecap='round' stroke-linejoin='round' brush-type='1' stroke-wetness='0.5'></path><path  style = ' stroke:#000000;  fill:none;  stroke-width:1.0;' d="M154.44 159.15 L153.94 158.42 L153.77 157.84 L153.43 156.47 L153.43 155.00 L153.43 153.42 L153.49 152.14 L153.74 151.31 L154.26 150.95 L155.14 150.98 L156.48 151.52 " stroke-linecap='round' stroke-linejoin='round' brush-type='1' stroke-wetness='0.5'></path><path  style = ' stroke:#000000;  fill:none;  stroke-width:1.0;' d="M161.49 152.93 L160.71 153.07 L159.99 153.23 L158.68 153.75 L157.67 154.58 L157.09 155.68 L156.91 156.83 L157.52 157.72 L158.89 158.06 L160.85 157.41 L162.62 156.10 L163.72 154.52 L164.05 153.33 L163.59 152.62 L162.68 152.35 L161.64 152.56 " stroke-linecap='round' stroke-linejoin='round' brush-type='1' stroke-wetness='0.5'></path><path  style = ' stroke:#000000;  fill:none;  stroke-width:1.0;' d="M163.96 155.68 L164.10 156.54 L164.24 156.99 L164.60 157.72 L165.24 157.60 L166.10 156.83 L166.95 155.58 L167.50 154.39 L167.77 153.66 L167.87 153.94 L167.90 155.03 L167.90 157.05 L167.93 158.85 " stroke-linecap='round' stroke-linejoin='round' brush-type='1' stroke-wetness='0.5'></path><path  style = ' stroke:#000000;  fill:none;  stroke-width:1.0;' d="M169.64 163.82 L169.32 163.09 L169.18 162.02 L168.93 159.79 L168.97 156.93 L169.30 154.21 L169.97 152.01 L170.92 150.88 L171.89 150.49 L172.75 150.85 L173.30 151.74 L173.54 153.02 L173.27 154.33 L172.54 155.46 L171.47 156.32 L170.61 156.77 " stroke-linecap='round' stroke-linejoin='round' brush-type='1' stroke-wetness='0.5'></path><path  style = ' stroke:#000000;  fill:none;  stroke-width:1.0;' d="M178.88 151.83 L177.60 152.24 L176.53 152.96 L175.04 154.09 L174.82 155.03 L175.65 155.46 L176.72 155.68 L177.45 155.86 L177.78 156.01 L177.75 156.22 L177.23 156.47 L176.26 156.77 L175.22 156.96 " stroke-linecap='round' stroke-linejoin='round' brush-type='1' stroke-wetness='0.5'></path><path  style = ' stroke:#000000;  fill:none;  stroke-width:1.0;' d="M182.54 144.41 L182.45 145.01 L182.39 145.76 L182.15 147.19 L181.78 148.81 L181.38 150.12 " stroke-linecap='round' stroke-linejoin='round' brush-type='1' stroke-wetness='0.5'></path><path  style = ' stroke:#000000;  fill:none;  stroke-width:1.0;' d="M184.38 146.15 L184.28 146.84 L184.19 147.65 L183.95 149.14 L183.64 150.67 " stroke-linecap='round' stroke-linejoin='round' brush-type='1' stroke-wetness='0.5'></path><path  style = ' stroke:#000000;  fill:none;  stroke-width:1.0;' d="M115.81 141.21 L114.98 142.95 L114.40 144.35 L113.49 146.58 " stroke-linecap='round' stroke-linejoin='round' brush-type='1' stroke-wetness='0.5'></path><path  style = ' stroke:#000000;  fill:none;  stroke-width:1.0;' d="M115.99 143.41 L115.67 144.09 L115.56 144.90 L115.38 146.37 " stroke-linecap='round' stroke-linejoin='round' brush-type='1' stroke-wetness='0.5'></path><path  style = ' stroke:#000000;  fill:none;  stroke-width:1.0;' d="M148.86 150.82 L147.89 150.82 L147.09 150.95 L145.71 151.40 L144.86 152.23 L144.46 153.29 L144.40 154.30 L144.86 155.06 L145.83 155.49 L147.18 155.43 L148.40 154.88 L149.19 153.91 L149.53 152.84 L149.59 151.92 L149.56 151.34 L149.50 151.56 L149.44 152.68 L149.40 154.67 L149.37 156.87 L149.04 159.00 L148.24 160.86 L146.72 162.42 L144.74 163.55 L142.26 164.16 L139.61 164.31 L136.83 163.61 " stroke-linecap='round' stroke-linejoin='round' brush-type='1' stroke-wetness='0.5'></path><path  style = ' stroke:#000000;  fill:none;  stroke-width:1.0;' d="M209.68 150.02 L209.47 150.55 L209.15 151.90 L208.45 154.48 L207.53 157.87 L206.61 160.99 L205.90 163.74 L205.51 165.65 " stroke-linecap='round' stroke-linejoin='round' brush-type='1' stroke-wetness='0.5'></path><path  style = ' stroke:#000000;  fill:none;  stroke-width:1.0;' d="M204.70 156.39 L203.74 155.33 L203.42 154.80 L202.79 153.88 L202.89 153.49 " stroke-linecap='round' stroke-linejoin='round' brush-type='1' stroke-wetness='0.5'></path><path  style = ' stroke:#000000;  fill:none;  stroke-width:1.0;' d="M214.88 151.82 L214.09 152.04 L213.33 152.28 L211.91 153.06 L210.78 154.19 L210.07 155.75 L209.79 157.31 L210.32 158.51 L211.63 159.04 L213.50 158.65 L215.27 157.63 L216.48 156.28 L217.08 154.97 L217.04 153.84 L216.51 152.96 L215.73 152.46 L214.95 152.32 " stroke-linecap='round' stroke-linejoin='round' brush-type='1' stroke-wetness='0.5'></path><path  style = ' stroke:#000000;  fill:none;  stroke-width:1.0;' d="M219.98 151.51 L219.92 152.30 L219.91 153.10 L219.87 154.37 L219.91 155.22 L220.12 155.54 L220.68 155.40 L221.53 154.65 L222.45 153.35 L223.16 151.93 L223.62 150.87 L223.83 150.41 L223.90 150.73 L223.90 151.79 L223.83 153.38 L223.76 154.97 L223.69 156.07 " stroke-linecap='round' stroke-linejoin='round' brush-type='1' stroke-wetness='0.5'></path><path  style = ' stroke:#000000;  fill:none;  stroke-width:1.0;' d="M241.88 150.00 L241.23 150.09 L240.60 150.31 L239.45 150.96 L238.52 152.11 L237.96 153.67 L237.74 155.38 L238.18 156.84 L239.30 157.80 L241.23 158.18 " stroke-linecap='round' stroke-linejoin='round' brush-type='1' stroke-wetness='0.5'></path><path  style = ' stroke:#000000;  fill:none;  stroke-width:1.0;' d="M246.82 152.61 L246.03 152.98 L245.49 153.48 L244.55 154.51 L244.15 155.59 L244.18 156.46 L244.71 156.93 L245.67 156.71 L246.73 155.94 L247.57 154.72 L248.03 153.70 L248.25 153.04 L248.31 153.11 L248.31 153.82 L248.35 155.10 " stroke-linecap='round' stroke-linejoin='round' brush-type='1' stroke-wetness='0.5'></path><path  style = ' stroke:#000000;  fill:none;  stroke-width:1.0;' d="M250.83 156.25 L250.97 155.31 L251.08 154.66 L251.42 153.51 L251.92 152.95 L252.61 152.76 L253.29 153.20 L253.82 154.23 L254.10 155.81 L254.19 157.43 L254.19 158.67 " stroke-linecap='round' stroke-linejoin='round' brush-type='1' stroke-wetness='0.5'></path><path  style = ' stroke:#000000;  fill:none;  stroke-width:1.0;' d="M265.57 156.25 L265.71 155.17 L266.26 154.01 L267.34 151.99 L268.77 150.40 L270.02 149.62 L270.92 149.69 L271.39 150.96 L271.29 153.20 L270.67 155.75 L269.65 157.68 L268.53 158.67 L267.44 158.80 L266.50 157.83 L265.76 155.69 L265.35 152.45 L265.20 148.97 L265.23 146.05 L265.39 144.31 L265.67 143.62 L265.98 144.18 L266.26 145.96 L266.41 148.94 L266.63 152.27 " stroke-linecap='round' stroke-linejoin='round' brush-type='1' stroke-wetness='0.5'></path><path  style = ' stroke:#000000;  fill:none;  stroke-width:1.0;' d="M272.47 153.08 L272.19 153.64 L272.04 154.23 L271.79 155.41 L271.73 156.50 L271.85 157.21 L272.32 157.43 L273.13 156.87 L274.06 155.72 L274.84 154.16 L275.34 152.95 L275.62 152.33 L275.71 153.01 L275.65 154.51 L275.55 156.59 L275.46 158.02 " stroke-linecap='round' stroke-linejoin='round' brush-type='1' stroke-wetness='0.5'></path><path  style = ' stroke:#000000;  fill:none;  stroke-width:1.0;' d="M279.75 149.90 L279.70 150.42 L279.69 151.33 L279.66 153.01 L279.66 154.91 L279.66 156.43 " stroke-linecap='round' stroke-linejoin='round' brush-type='1' stroke-wetness='0.5'></path><path  style = ' stroke:#000000;  fill:none;  stroke-width:1.0;' d="M278.26 151.21 L279.14 151.26 L280.40 151.30 L282.27 151.43 " stroke-linecap='round' stroke-linejoin='round' brush-type='1' stroke-wetness='0.5'></path><path  style = ' stroke:#000000;  fill:none;  stroke-width:1.0;' d="M291.32 153.26 L291.50 153.87 L291.57 154.63 L291.72 156.06 L291.85 157.55 L292.28 158.83 " stroke-linecap='round' stroke-linejoin='round' brush-type='1' stroke-wetness='0.5'></path><path  style = ' stroke:#000000;  fill:none;  stroke-width:1.0;' d="M295.24 157.55 L294.96 156.76 L294.86 156.15 L294.68 154.94 L294.86 153.95 L295.33 153.23 L296.07 152.92 L296.88 153.39 L297.60 154.54 L298.16 156.19 L298.62 157.86 L299.00 159.08 " stroke-linecap='round' stroke-linejoin='round' brush-type='1' stroke-wetness='0.5'></path><path  style = ' stroke:#000000;  fill:none;  stroke-width:1.0;' d="M310.35 148.78 a0.50 0.50 0 1 0 0.01 0 " stroke-linecap='round' stroke-linejoin='round' brush-type='1' stroke-wetness='0.5'></path><path  style = ' stroke:#000000;  fill:none;  stroke-width:1.0;' d="M309.23 158.11 L308.90 157.18 L308.79 156.09 L308.57 154.10 L308.76 152.27 L309.26 150.99 L310.07 150.31 L310.97 150.25 L311.75 150.93 L312.27 152.21 L312.52 153.82 L312.59 155.10 L312.59 155.81 L312.77 155.38 L313.18 154.13 L313.89 152.48 L314.64 151.43 L315.32 151.18 L315.76 151.83 L316.04 153.17 L316.22 154.85 " stroke-linecap='round' stroke-linejoin='round' brush-type='1' stroke-wetness='0.5'></path><path  style = ' stroke:#000000;  fill:none;  stroke-width:1.0;' d="M319.49 152.42 L319.63 153.03 L319.67 153.70 L319.77 155.03 L319.77 156.43 L319.80 157.86 " stroke-linecap='round' stroke-linejoin='round' brush-type='1' stroke-wetness='0.5'></path><path  style = ' stroke:#000000;  fill:none;  stroke-width:1.0;' d="M327.42 154.38 L326.72 153.92 L326.02 153.76 L324.71 153.48 L323.47 153.95 L322.54 154.97 L321.98 156.50 L321.94 157.86 L322.47 158.70 L323.47 158.70 L324.71 157.83 L325.89 156.15 L326.86 153.76 L327.60 150.81 L328.13 147.79 L328.47 145.43 L328.69 144.21 L328.79 144.99 L328.54 147.45 L328.07 151.05 L327.60 154.47 " stroke-linecap='round' stroke-linejoin='round' brush-type='1' stroke-wetness='0.5'></path><path  style = ' stroke:#000000;  fill:none;  stroke-width:1.0;' d="M333.85 154.94 L333.20 154.89 L332.55 155.19 L331.43 155.94 L330.71 157.18 L330.43 158.39 L330.59 159.20 L331.21 159.33 L332.30 158.45 L333.64 156.56 L334.85 153.70 L335.75 150.22 L336.37 146.95 L336.78 144.62 L337.03 143.69 L336.96 144.62 L336.59 146.95 L336.09 150.25 L335.72 153.29 L335.56 155.84 L335.81 157.77 " stroke-linecap='round' stroke-linejoin='round' brush-type='1' stroke-wetness='0.5'></path><path  style = ' stroke:#000000;  fill:none;  stroke-width:1.0;' d="M341.04 142.63 L340.99 143.28 L340.97 144.90 L340.91 147.98 L340.76 151.61 L340.57 154.60 L340.41 156.81 L340.38 158.18 " stroke-linecap='round' stroke-linejoin='round' brush-type='1' stroke-wetness='0.5'></path><path  style = ' stroke:#000000;  fill:none;  stroke-width:1.0;' d="M343.46 154.85 L343.79 154.85 L344.21 154.79 L345.17 154.38 L346.26 153.57 L347.22 152.39 L347.78 151.15 L347.88 150.15 L347.35 149.62 L346.29 150.22 L344.86 151.80 L343.62 154.04 L342.78 156.15 L342.44 157.77 L342.62 158.95 L343.21 159.70 L344.18 160.10 L345.23 160.26 " stroke-linecap='round' stroke-linejoin='round' brush-type='1' stroke-wetness='0.5'></path><path  style = ' stroke:#000000;  fill:none;  stroke-width:1.0;' d="M359.41 140.95 L359.83 140.58 L360.35 140.20 L361.53 139.46 L363.02 138.90 L364.67 138.59 L366.32 138.59 L367.84 139.05 L369.08 140.27 L369.89 142.29 L370.23 144.90 L370.33 147.76 L370.26 150.53 L370.14 152.86 L370.02 154.54 L369.98 155.63 L370.20 156.28 L370.73 156.65 L371.66 156.84 L372.88 156.90 L374.12 156.90 L375.21 156.90 L376.08 156.90 L376.79 156.84 L377.23 156.74 " stroke-linecap='round' stroke-linejoin='round' brush-type='1' stroke-wetness='0.5'></path><path  style = ' stroke:#000000;  fill:none;  stroke-width:1.0;' d="M375.92 140.86 L375.50 141.28 L374.80 142.32 L373.50 144.37 L371.85 147.11 L370.02 149.94 L368.06 152.73 L366.22 155.28 L364.79 157.27 L363.86 158.61 L363.42 159.29 L363.70 159.61 " stroke-linecap='round' stroke-linejoin='round' brush-type='1' stroke-wetness='0.5'></path><path  style = ' stroke:#000000;  fill:none;  stroke-width:1.0;' d="M380.40 149.72 L380.96 149.62 L381.83 149.59 L383.42 149.56 L385.07 149.66 L386.37 149.81 L387.43 150.00 L388.08 150.15 " stroke-linecap='round' stroke-linejoin='round' brush-type='1' stroke-wetness='0.5'></path><path  style = ' stroke:#000000;  fill:none;  stroke-width:1.0;' d="M382.27 154.38 L382.59 154.47 L383.23 154.51 L384.29 154.57 L385.34 154.57 L386.00 154.57 " stroke-linecap='round' stroke-linejoin='round' brush-type='1' stroke-wetness='0.5'></path><path  style = ' stroke:#000000;  fill:none;  stroke-width:1.0;' d="M397.47 139.92 L397.80 139.88 L398.37 139.86 L399.68 139.83 L401.45 139.83 L403.44 139.83 L405.43 139.83 L407.23 139.86 L408.70 139.92 L409.72 140.05 L410.31 140.20 L410.56 140.54 L410.62 141.17 L410.31 142.16 L409.47 143.53 L407.98 145.21 L406.21 147.07 L404.37 148.94 L402.73 150.62 L401.33 152.11 L400.30 153.32 L399.55 154.26 L399.09 154.82 " stroke-linecap='round' stroke-linejoin='round' brush-type='1' stroke-wetness='0.5'></path><path  style = ' stroke:#000000;  fill:none;  stroke-width:1.0;' d="M406.05 139.92 L405.82 140.25 L405.59 140.89 L404.81 142.47 L403.69 144.65 L402.29 146.98 L400.99 149.06 L399.90 150.77 L399.12 152.08 L398.68 152.95 L398.53 153.54 L398.75 153.98 L399.46 154.35 L400.99 154.63 L403.07 154.79 L405.59 154.85 L407.92 154.85 L410.10 154.85 L411.81 154.85 L413.17 154.85 L414.04 154.85 L414.54 154.85 L414.85 154.85 L415.13 154.85 " stroke-linecap='round' stroke-linejoin='round' brush-type='1' stroke-wetness='0.5'></path><path  style = ' stroke:#000000;  fill:none;  stroke-width:1.0;' d="M429.56 149.81 L428.91 149.81 L428.35 149.87 L427.20 150.22 L426.14 150.99 L425.27 152.21 L424.77 153.54 L424.62 154.60 L424.90 155.19 L425.61 155.22 L426.76 154.63 L427.91 153.54 L428.69 152.27 L429.06 151.37 L429.16 150.90 L429.06 151.33 L428.85 152.42 L428.63 154.07 " stroke-linecap='round' stroke-linejoin='round' brush-type='1' stroke-wetness='0.5'></path><path  style = ' stroke:#000000;  fill:none;  stroke-width:1.0;' d="M431.15 155.13 L431.38 154.29 L431.58 153.82 L432.08 152.98 L432.61 152.70 L433.17 152.61 L433.57 152.89 L433.82 153.54 L433.91 154.60 L433.94 155.78 L433.94 156.71 " stroke-linecap='round' stroke-linejoin='round' brush-type='1' stroke-wetness='0.5'></path><path  style = ' stroke:#000000;  fill:none;  stroke-width:1.0;' d="M439.54 153.36 L438.84 153.22 L438.20 153.36 L436.99 153.85 L436.00 154.88 L435.34 156.06 L435.03 157.06 L435.25 157.68 L435.97 157.90 L437.15 157.37 L438.45 156.06 L439.57 153.98 L440.41 151.37 L440.94 148.23 L441.31 145.15 L441.56 142.78 L441.72 141.63 L441.53 142.32 L440.94 144.65 L440.10 148.44 L439.35 152.24 L438.95 155.50 L438.80 157.86 L438.92 159.26 " stroke-linecap='round' stroke-linejoin='round' brush-type='1' stroke-wetness='0.5'></path><path  style = ' stroke:#000000;  fill:none;  stroke-width:1.0;' d="M454.09 143.19 L454.42 142.81 L455.27 142.35 L456.92 141.60 L459.10 141.10 L461.24 141.23 L463.11 142.22 L464.45 144.15 L465.13 146.70 L465.41 149.28 L465.47 151.52 L465.50 153.23 L465.66 154.47 L466.10 155.31 L466.93 155.87 L468.12 156.19 L469.48 156.31 L470.85 156.31 L471.97 156.15 L472.72 155.94 L473.03 155.69 " stroke-linecap='round' stroke-linejoin='round' brush-type='1' stroke-wetness='0.5'></path><path  style = ' stroke:#000000;  fill:none;  stroke-width:1.0;' d="M470.51 140.02 L470.00 140.58 L469.36 141.70 L468.05 143.93 L466.56 146.76 L464.98 149.53 L463.30 152.14 L461.74 154.35 L460.50 156.03 L459.75 157.15 L459.44 157.77 L459.57 158.05 " stroke-linecap='round' stroke-linejoin='round' brush-type='1' stroke-wetness='0.5'></path><path  style = ' stroke:#000000;  fill:none;  stroke-width:1.0;' d="M475.83 148.97 L476.48 148.97 L477.13 148.97 L478.41 148.97 L479.62 148.94 L480.62 148.91 L481.30 148.88 " stroke-linecap='round' stroke-linejoin='round' brush-type='1' stroke-wetness='0.5'></path><path  style = ' stroke:#000000;  fill:none;  stroke-width:1.0;' d="M477.41 154.01 L477.83 153.87 L478.32 153.82 L479.31 153.70 L480.49 153.60 L481.74 153.51 L482.89 153.45 L483.82 153.45 L484.44 153.45 " stroke-linecap='round' stroke-linejoin='round' brush-type='1' stroke-wetness='0.5'></path><path  style = ' stroke:#000000;  fill:none;  stroke-width:1.0;' d="M490.75 140.20 L491.08 140.20 L491.97 140.20 L493.71 140.20 L495.88 140.17 L497.84 140.11 L499.49 140.05 L500.73 140.02 L501.57 140.08 L502.04 140.33 L502.26 140.95 L502.20 142.01 L501.60 143.56 L500.61 145.40 L499.18 147.42 L497.69 149.28 L496.19 150.93 L494.98 152.17 L494.14 153.14 L493.64 153.85 " stroke-linecap='round' stroke-linejoin='round' brush-type='1' stroke-wetness='0.5'></path><path  style = ' stroke:#000000;  fill:none;  stroke-width:1.0;' d="M498.96 141.14 L498.73 141.56 L498.43 142.41 L497.66 144.18 L496.54 146.45 L495.14 148.75 L493.68 150.81 L492.37 152.55 L491.41 153.82 L490.91 154.63 L490.97 155.07 L491.78 155.22 L493.43 155.31 L495.57 155.31 L497.72 155.28 L499.55 155.22 L501.01 155.16 L502.16 155.13 L502.91 155.13 " stroke-linecap='round' stroke-linejoin='round' brush-type='1' stroke-wetness='0.5'></path><path  style = ' stroke:#000000;  fill:none;  stroke-width:1.0;' d="M509.69 147.11 L510.16 147.53 L510.81 148.26 L511.90 149.53 L512.92 150.84 L513.67 151.83 L514.29 152.61 L514.82 153.20 L515.16 153.57 " stroke-linecap='round' stroke-linejoin='round' brush-type='1' stroke-wetness='0.5'></path><path  style = ' stroke:#000000;  fill:none;  stroke-width:1.0;' d="M515.19 148.69 L514.73 149.06 L514.32 149.50 L513.45 150.49 L512.58 151.65 L511.68 152.83 L510.90 153.92 L510.34 154.82 L510.06 155.69 " stroke-linecap='round' stroke-linejoin='round' brush-type='1' stroke-wetness='0.5'></path><path  style = ' stroke:#000000;  fill:none;  stroke-width:1.0;' d="M521.16 136.66 L521.49 136.52 L521.94 136.47 L523.06 136.38 L524.65 136.35 L526.51 136.19 L528.41 136.01 L529.93 135.85 L530.96 135.82 L531.42 135.88 L531.58 136.32 L531.42 137.37 L530.80 139.08 L529.84 141.01 L528.75 142.85 L527.85 144.37 L527.10 145.49 L526.57 146.17 " stroke-linecap='round' stroke-linejoin='round' brush-type='1' stroke-wetness='0.5'></path><path  style = ' stroke:#000000;  fill:none;  stroke-width:1.0;' d="M528.53 138.52 L528.11 138.94 L527.66 139.52 L526.73 140.79 L525.73 142.41 L524.80 144.00 L524.12 145.24 L523.77 145.92 L523.90 146.24 L524.71 146.36 L526.14 146.42 L527.94 146.45 L529.62 146.45 L530.96 146.45 L531.86 146.45 L532.29 146.48 L532.33 146.70 " stroke-linecap='round' stroke-linejoin='round' brush-type='1' stroke-wetness='0.5'></path><path  style = ' stroke:#000000;  fill:none;  stroke-width:1.0;' d="M525.45 155.03 L526.01 154.47 L527.29 153.48 L529.68 151.65 L532.70 149.47 L535.40 147.39 L537.89 145.30 L539.82 143.50 L541.12 142.19 L541.75 141.51 L541.62 141.35 " stroke-linecap='round' stroke-linejoin='round' brush-type='1' stroke-wetness='0.5'></path><path  style = ' stroke:#000000;  fill:none;  stroke-width:1.0;' d="M533.01 158.30 L533.10 157.93 L533.13 157.52 L533.26 156.62 L533.51 155.53 L533.97 154.41 L534.53 153.51 L535.06 153.01 L535.56 152.83 L536.09 153.01 L536.55 153.60 L536.86 154.60 L536.99 155.72 L537.02 156.74 L537.02 157.55 L537.02 158.08 " stroke-linecap='round' stroke-linejoin='round' brush-type='1' stroke-wetness='0.5'></path><path  style = ' stroke:#000000;  fill:none;  stroke-width:1.0;' d="M539.73 148.50 L540.15 148.41 L540.84 148.38 L542.18 148.29 L543.64 148.23 L544.79 148.13 L545.57 148.07 L545.98 148.04 L546.13 148.35 L546.07 149.34 L545.54 151.12 L544.61 153.36 L543.46 155.53 L542.52 157.40 L541.87 158.77 L541.44 159.57 " stroke-linecap='round' stroke-linejoin='round' brush-type='1' stroke-wetness='0.5'></path><path  style = ' stroke:#000000;  fill:none;  stroke-width:1.0;' d="M542.62 149.25 L542.52 149.48 L542.49 150.03 L542.31 151.24 L541.90 153.11 L541.19 155.13 L540.38 157.15 L539.73 158.67 L539.38 159.70 L539.26 160.20 L539.54 160.41 L540.22 160.51 L541.44 160.54 L542.99 160.38 L544.70 160.10 L546.29 159.73 L547.47 159.51 L548.31 159.42 L548.93 159.42 L549.55 159.42 " stroke-linecap='round' stroke-linejoin='round' brush-type='1' stroke-wetness='0.5'></path><path  style = ' stroke:#000000;  fill:none;  stroke-width:1.0;' d="M499.33 80.60 L499.75 80.50 L500.30 80.47 L501.51 80.38 L502.94 80.35 L504.37 80.29 L505.55 80.25 L506.46 80.22 L507.05 80.25 L507.42 80.41 L507.57 80.75 L507.64 81.37 L507.48 82.37 L507.08 83.67 L506.49 85.17 L505.83 86.72 L505.24 88.25 L504.68 89.61 L504.28 90.73 L504.03 91.57 L503.81 92.44 " stroke-linecap='round' stroke-linejoin='round' brush-type='1' stroke-wetness='0.5'></path><path  style = ' stroke:#000000;  fill:none;  stroke-width:1.0;' d="M505.21 80.69 L504.88 81.16 L504.78 81.65 L504.40 82.87 L504.06 84.27 L503.47 85.98 L502.85 87.81 L502.16 89.80 L501.54 91.67 L500.98 93.13 L500.67 94.03 L500.55 94.46 L500.86 94.68 L501.85 94.81 L503.50 94.87 L505.58 94.87 L507.54 94.87 L509.19 94.87 L510.25 94.87 L510.81 94.87 " stroke-linecap='round' stroke-linejoin='round' brush-type='1' stroke-wetness='0.5'></path><path  style = ' stroke:#000000;  fill:none;  stroke-width:1.0;' d="M69.31 170.89 L68.61 170.38 L67.85 170.30 L66.45 170.36 L65.14 171.17 L64.05 172.35 L63.21 173.63 L62.72 174.87 L62.56 175.96 L63.00 177.02 L63.96 178.08 L65.39 179.13 L66.70 180.19 L67.60 181.18 L68.00 182.21 L67.88 183.30 L67.04 184.54 L65.64 185.85 L63.90 187.06 L62.37 188.03 L61.16 188.71 " stroke-linecap='round' stroke-linejoin='round' brush-type='1' stroke-wetness='0.5'></path><path  style = ' stroke:#000000;  fill:none;  stroke-width:1.0;' d="M71.64 181.53 L71.13 182.27 L70.74 183.02 L70.09 184.54 L69.77 185.91 L69.84 186.91 L70.46 187.37 L71.64 187.15 L73.04 186.35 L74.13 185.20 L74.69 184.08 L74.84 183.17 L74.59 182.49 L74.07 182.09 L73.35 181.96 L72.88 182.12 " stroke-linecap='round' stroke-linejoin='round' brush-type='1' stroke-wetness='0.5'></path><path  style = ' stroke:#000000;  fill:none;  stroke-width:1.0;' d="M85.26 182.46 L85.54 183.11 L85.63 183.52 L85.97 184.29 L86.47 184.67 L87.44 184.70 L88.71 184.17 L89.92 183.21 L90.82 182.24 L91.29 181.68 L91.60 181.90 L91.82 182.65 L92.16 183.70 L92.63 184.54 L93.31 185.04 L94.18 185.16 L95.24 184.70 L96.20 183.92 " stroke-linecap='round' stroke-linejoin='round' brush-type='1' stroke-wetness='0.5'></path><path  style = ' stroke:#000000;  fill:none;  stroke-width:1.0;' d="M98.60 175.65 L98.64 176.02 L98.69 176.92 L98.82 178.88 L98.94 181.40 L99.03 183.83 L99.06 185.69 L99.06 186.84 L99.10 187.31 L99.28 187.25 L99.75 186.35 L100.59 184.82 L101.52 183.21 L102.33 182.33 L102.80 182.33 L103.04 183.02 L103.14 184.23 L103.17 185.76 L103.20 187.15 " stroke-linecap='round' stroke-linejoin='round' brush-type='1' stroke-wetness='0.5'></path><path  style = ' stroke:#000000;  fill:none;  stroke-width:1.0;' d="M108.95 182.83 L108.16 183.02 L107.52 183.52 L106.50 184.42 L106.00 185.54 L105.87 186.35 L106.09 186.84 L106.71 186.78 L107.58 186.13 L108.39 185.04 L108.86 183.95 L109.08 183.30 L109.14 183.67 L109.14 184.79 L109.14 186.38 L109.14 187.43 " stroke-linecap='round' stroke-linejoin='round' brush-type='1' stroke-wetness='0.5'></path><path  style = ' stroke:#000000;  fill:none;  stroke-width:1.0;' d="M111.94 179.01 L112.12 179.47 L112.19 180.16 L112.31 181.59 L112.34 183.33 L112.44 185.10 L112.53 186.44 " stroke-linecap='round' stroke-linejoin='round' brush-type='1' stroke-wetness='0.5'></path><path  style = ' stroke:#000000;  fill:none;  stroke-width:1.0;' d="M109.61 181.53 L110.26 181.34 L110.94 181.28 L112.31 181.15 L113.90 181.15 L115.33 181.15 " stroke-linecap='round' stroke-linejoin='round' brush-type='1' stroke-wetness='0.5'></path><path  style = ' stroke:#000000;  fill:none;  stroke-width:1.0;' d="M130.97 183.02 L130.73 182.55 L130.03 182.49 L128.88 182.65 L127.61 183.52 L126.83 184.73 L126.43 185.91 L126.46 186.87 L127.02 187.40 L128.08 187.43 L129.35 186.87 L130.50 185.85 L131.28 184.51 L131.74 183.33 L131.93 182.52 L131.90 182.80 L131.81 183.89 L131.71 185.88 " stroke-linecap='round' stroke-linejoin='round' brush-type='1' stroke-wetness='0.5'></path><path  style = ' stroke:#000000;  fill:none;  stroke-width:1.0;' d="M134.70 188.90 L134.28 188.24 L134.14 187.59 L133.83 186.38 L133.80 185.20 L133.98 184.11 L134.60 183.05 L135.63 182.24 L136.87 181.78 L137.93 181.62 " stroke-linecap='round' stroke-linejoin='round' brush-type='1' stroke-wetness='0.5'></path><path  style = ' stroke:#000000;  fill:none;  stroke-width:1.0;' d="M139.83 186.19 L140.16 186.00 L140.57 185.82 L141.51 185.23 L142.50 184.42 L143.34 183.39 L143.78 182.46 L143.93 181.68 L143.72 181.22 L143.09 181.06 L142.04 181.56 L140.82 182.68 L139.77 184.32 L139.05 186.00 L138.71 187.43 L138.62 188.49 L138.86 189.18 L139.46 189.58 L140.48 189.80 L141.57 189.89 L142.60 189.92 L143.34 189.92 L144.00 189.89 L144.52 189.74 L144.99 189.49 " stroke-linecap='round' stroke-linejoin='round' brush-type='1' stroke-wetness='0.5'></path><path  style = ' stroke:#000000;  fill:none;  stroke-width:1.0;' d="M163.52 188.15 L163.52 187.68 L163.52 187.43 L163.52 186.91 L163.52 186.56 L163.52 186.16 L163.52 185.76 L163.52 185.38 L163.52 185.04 L163.52 184.67 L163.52 184.14 L163.52 183.52 L163.52 182.80 L163.52 182.18 L163.55 181.56 L163.65 180.97 L163.77 180.34 L163.93 179.75 L164.11 179.26 L164.33 178.85 L164.58 178.54 L164.86 178.29 L165.23 178.11 L165.67 178.01 L166.17 177.98 L166.76 177.98 L167.41 178.17 L168.16 178.70 L168.87 179.63 L169.59 180.84 L170.11 182.12 L170.49 183.33 L170.64 184.42 L170.70 185.51 L170.70 186.69 L170.64 187.84 L170.55 188.74 L170.46 189.36 L170.42 189.80 L170.46 190.14 " stroke-linecap='round' stroke-linejoin='round' brush-type='1' stroke-wetness='0.5'></path><path  style = ' stroke:#000000;  fill:none;  stroke-width:1.0;' d="M191.60 184.23 L191.18 183.63 L190.67 183.42 L189.55 183.02 L188.21 183.21 L186.81 183.67 L185.60 184.48 L184.79 185.54 L184.42 186.81 L184.63 188.15 L185.51 189.24 L187.09 189.83 L189.05 189.46 L191.01 188.09 L192.59 185.94 L193.59 183.42 L194.03 180.81 L194.12 178.35 L194.03 176.52 L193.90 175.56 L193.71 175.21 L193.59 175.65 L193.50 176.92 L193.47 179.13 " stroke-linecap='round' stroke-linejoin='round' brush-type='1' stroke-wetness='0.5'></path><path  style = ' stroke:#000000;  fill:none;  stroke-width:1.0;' d="M196.26 184.14 L196.31 184.70 L196.33 185.32 L196.36 186.47 L196.42 187.59 L196.79 188.43 " stroke-linecap='round' stroke-linejoin='round' brush-type='1' stroke-wetness='0.5'></path><path  style = ' stroke:#000000;  fill:none;  stroke-width:1.0;' d="M204.94 174.81 L204.38 174.11 L203.91 173.88 L202.95 173.41 L202.14 173.41 L201.46 173.57 L200.99 173.97 L200.74 174.81 L200.71 176.09 L201.05 177.89 L201.64 179.97 L202.33 182.12 L202.82 183.98 L203.07 185.57 L203.10 186.87 L202.70 187.96 " stroke-linecap='round' stroke-linejoin='round' brush-type='1' stroke-wetness='0.5'></path><path  style = ' stroke:#000000;  fill:none;  stroke-width:1.0;' d="M199.25 185.54 L199.95 185.21 L200.74 185.04 L202.45 184.54 L204.41 184.08 L206.43 183.49 " stroke-linecap='round' stroke-linejoin='round' brush-type='1' stroke-wetness='0.5'></path><path  style = ' stroke:#000000;  fill:none;  stroke-width:1.0;' d="M213.89 175.28 L213.29 174.62 L212.59 174.41 L211.34 174.19 L210.22 174.78 L209.45 175.96 L208.98 177.61 L208.79 179.69 L208.92 181.81 L209.29 183.80 L209.79 185.48 L210.22 186.91 L210.44 188.03 L210.44 188.83 " stroke-linecap='round' stroke-linejoin='round' brush-type='1' stroke-wetness='0.5'></path><path  style = ' stroke:#000000;  fill:none;  stroke-width:1.0;' d="M208.58 182.37 L210.49 182.37 L211.66 182.37 L213.58 182.40 " stroke-linecap='round' stroke-linejoin='round' brush-type='1' stroke-wetness='0.5'></path><path  style = ' stroke:#000000;  fill:none;  stroke-width:1.0;' d="M219.21 185.07 L220.00 185.07 L220.67 184.98 L221.95 184.60 L223.00 183.77 L223.72 182.61 L224.12 181.46 L224.03 180.62 L223.38 180.19 L222.13 180.28 L220.52 181.12 L219.06 182.49 L218.06 184.11 L217.63 185.57 L217.78 186.87 L218.62 187.90 L220.24 188.58 L222.26 188.96 L224.06 189.11 L225.31 189.18 L225.93 189.14 L226.08 188.83 L225.90 188.21 L225.59 187.19 L225.34 186.07 L225.21 184.95 L225.37 183.98 L225.87 183.17 L226.80 182.49 L227.95 182.06 L229.04 181.84 " stroke-linecap='round' stroke-linejoin='round' brush-type='1' stroke-wetness='0.5'></path><path  style = ' stroke:#000000;  fill:none;  stroke-width:1.0;' d="M230.87 185.07 L231.24 185.21 L231.84 185.26 L232.99 185.32 L234.29 185.07 L235.41 184.54 L236.19 183.80 L236.56 183.02 L236.37 182.33 L235.66 181.84 L234.45 181.62 L233.08 181.96 L231.84 182.83 L231.00 184.11 L230.59 185.54 L230.90 186.97 L231.71 188.18 " stroke-linecap='round' stroke-linejoin='round' brush-type='1' stroke-wetness='0.5'></path><path  style = ' stroke:#000000;  fill:none;  stroke-width:1.0;' d="M237.77 187.59 L237.59 186.75 L237.53 186.22 L237.40 185.13 L237.62 184.20 L238.21 183.17 L239.20 182.27 L240.39 181.78 L241.54 181.78 L242.53 182.40 L243.18 183.61 L243.50 185.23 L243.56 186.78 L243.53 187.96 L243.50 188.62 L243.46 188.49 " stroke-linecap='round' stroke-linejoin='round' brush-type='1' stroke-wetness='0.5'></path><path  style = ' stroke:#000000;  fill:none;  stroke-width:1.0;' d="M246.82 177.80 L246.96 178.26 L247.01 178.95 L247.13 180.38 L247.23 182.18 L247.38 184.05 L247.54 185.72 L247.69 186.87 " stroke-linecap='round' stroke-linejoin='round' brush-type='1' stroke-wetness='0.5'></path><path  style = ' stroke:#000000;  fill:none;  stroke-width:1.0;' d="M245.05 181.34 L245.84 181.11 L247.04 181.03 L249.28 180.87 L251.80 180.90 L253.85 181.06 " stroke-linecap='round' stroke-linejoin='round' brush-type='1' stroke-wetness='0.5'></path><path  style = ' stroke:#000000;  fill:none;  stroke-width:1.0;' d="M265.20 185.35 L265.90 185.21 L266.88 185.07 L268.65 184.60 L270.45 183.92 L271.85 183.02 L272.79 182.15 L273.22 181.40 L273.19 180.84 L272.69 180.53 L271.79 180.41 L270.48 180.78 L269.05 181.71 L267.69 183.33 L266.66 185.13 L266.13 186.75 L266.07 187.90 L266.85 188.58 L268.43 188.96 L270.80 189.11 L272.94 189.08 " stroke-linecap='round' stroke-linejoin='round' brush-type='1' stroke-wetness='0.5'></path><path  style = ' stroke:#000000;  fill:none;  stroke-width:1.0;' d="M279.75 184.05 L279.28 183.67 L278.72 183.55 L277.57 183.49 L276.27 184.01 L275.02 185.01 L274.15 186.25 L273.75 187.43 L274.03 188.30 L274.96 188.74 L276.55 188.68 L278.32 187.99 L279.87 186.75 L280.90 185.26 L281.40 184.05 L281.40 183.36 L280.78 183.73 L279.63 185.10 L278.16 187.34 L276.98 189.70 L276.30 191.79 L276.11 193.40 L276.70 194.49 L278.01 195.18 L280.12 195.49 L282.08 195.36 " stroke-linecap='round' stroke-linejoin='round' brush-type='1' stroke-wetness='0.5'></path><path  style = ' stroke:#000000;  fill:none;  stroke-width:1.0;' d="M286.75 184.98 L286.47 185.63 L286.37 186.31 L286.19 187.68 L286.40 189.02 L286.96 190.02 L287.93 190.54 L289.05 190.23 L290.14 189.18 L291.01 187.25 L291.57 185.23 L291.85 183.67 L291.94 183.67 L291.97 184.85 L291.97 186.84 L291.97 188.65 L292.03 189.95 " stroke-linecap='round' stroke-linejoin='round' brush-type='1' stroke-wetness='0.5'></path><path  style = ' stroke:#000000;  fill:none;  stroke-width:1.0;' d="M296.54 183.77 L296.45 184.56 L296.42 185.41 L296.35 187.03 L296.32 188.65 L296.29 189.89 " stroke-linecap='round' stroke-linejoin='round' brush-type='1' stroke-wetness='0.5'></path><path  style = ' stroke:#000000;  fill:none;  stroke-width:1.0;' d="M298.97 183.77 L299.11 184.42 L299.15 185.38 L299.25 186.91 L299.28 188.18 L299.56 188.71 L300.27 188.65 L301.52 187.68 L303.04 185.94 L304.56 184.01 L305.87 182.71 L306.83 182.18 " stroke-linecap='round' stroke-linejoin='round' brush-type='1' stroke-wetness='0.5'></path><path  style = ' stroke:#000000;  fill:none;  stroke-width:1.0;' d="M310.16 183.39 L309.51 183.53 L308.79 183.89 L307.58 184.67 L306.65 185.79 L306.21 186.87 L306.18 187.68 L306.68 188.06 L307.58 187.75 L308.67 186.78 L309.54 185.10 L310.07 183.39 L310.32 182.15 L310.38 182.40 L310.25 183.77 L310.00 185.85 L309.69 187.47 " stroke-linecap='round' stroke-linejoin='round' brush-type='1' stroke-wetness='0.5'></path><path  style = ' stroke:#000000;  fill:none;  stroke-width:1.0;' d="M313.70 173.41 L313.70 173.92 L313.70 175.46 L313.58 178.45 L313.30 182.09 L312.90 185.16 L312.59 187.56 L312.43 189.33 L312.40 190.36 " stroke-linecap='round' stroke-linejoin='round' brush-type='1' stroke-wetness='0.5'></path><path  style = ' stroke:#000000;  fill:none;  stroke-width:1.0;' d="M317.34 185.63 L317.81 185.54 L318.49 185.51 L319.77 185.26 L321.14 184.76 L322.26 183.92 L323.03 182.86 L323.44 181.84 L323.47 181.03 L323.03 180.59 L322.13 180.56 L320.89 181.12 L319.74 182.37 L318.93 184.14 L318.56 185.97 L318.80 187.56 L319.77 188.77 L321.48 189.55 " stroke-linecap='round' stroke-linejoin='round' brush-type='1' stroke-wetness='0.5'></path><path  style = ' stroke:#000000;  fill:none;  stroke-width:1.0;' d="M326.48 188.06 L325.83 187.36 L325.58 186.81 L325.12 185.69 L325.24 184.64 L325.77 183.61 L326.70 182.80 L327.88 182.40 L328.97 182.43 L329.87 183.02 L330.46 184.20 L330.81 185.82 L330.93 187.47 L330.96 188.71 " stroke-linecap='round' stroke-linejoin='round' brush-type='1' stroke-wetness='0.5'></path><path  style = ' stroke:#000000;  fill:none;  stroke-width:1.0;' d="M335.07 182.93 L334.41 183.63 L334.04 184.20 L333.39 185.41 L333.17 186.47 L333.20 187.37 L333.64 187.93 L334.44 188.18 L335.32 188.21 " stroke-linecap='round' stroke-linejoin='round' brush-type='1' stroke-wetness='0.5'></path><path  style = ' stroke:#000000;  fill:none;  stroke-width:1.0;' d="M336.75 187.59 L337.31 187.36 L337.77 187.28 L338.70 187.00 L339.61 186.63 L340.54 185.88 L341.41 184.95 L342.00 183.95 L342.28 183.14 L342.25 182.52 L341.81 182.21 L340.91 182.27 L339.61 182.99 L338.27 184.36 L337.24 186.07 L336.71 187.62 L336.65 188.74 L337.18 189.42 L338.49 189.77 L340.60 189.89 L343.37 189.52 L345.82 188.93 " stroke-linecap='round' stroke-linejoin='round' brush-type='1' stroke-wetness='0.5'></path><path  style = ' stroke:#000000;  fill:none;  stroke-width:1.0;' d="M369.67 179.66 L369.07 179.71 L368.15 180.16 L366.44 181.22 L364.73 182.89 L363.45 184.82 L362.74 186.69 L362.46 188.21 L362.90 189.30 L364.01 189.92 L365.94 190.20 L368.40 189.61 " stroke-linecap='round' stroke-linejoin='round' brush-type='1' stroke-wetness='0.5'></path><path  style = ' stroke:#000000;  fill:none;  stroke-width:1.0;' d="M374.99 174.44 L375.13 174.76 L375.18 175.53 L375.27 177.42 L375.27 180.34 L375.24 183.67 L375.21 186.87 L375.18 189.14 " stroke-linecap='round' stroke-linejoin='round' brush-type='1' stroke-wetness='0.5'></path><path  style = ' stroke:#000000;  fill:none;  stroke-width:1.0;' d="M381.80 181.34 L381.24 181.53 L380.62 182.09 L379.65 183.27 L379.00 184.98 L378.78 186.59 L379.00 187.75 L379.69 188.15 L380.77 187.62 L381.83 186.38 L382.61 184.67 L382.98 183.21 L383.08 182.33 L382.67 182.89 L382.05 184.48 L381.36 186.75 L381.18 188.49 " stroke-linecap='round' stroke-linejoin='round' brush-type='1' stroke-wetness='0.5'></path><path  style = ' stroke:#000000;  fill:none;  stroke-width:1.0;' d="M388.89 181.71 L388.75 181.39 L388.39 181.40 L387.74 181.53 L387.09 182.15 L386.74 182.86 L386.90 183.58 L387.55 184.17 L388.49 184.70 L389.26 185.10 L389.67 185.48 L389.76 185.88 L389.36 186.44 L388.49 187.03 L387.21 187.56 L386.18 187.87 L385.69 188.03 " stroke-linecap='round' stroke-linejoin='round' brush-type='1' stroke-wetness='0.5'></path><path  style = ' stroke:#000000;  fill:none;  stroke-width:1.0;' d="M395.61 182.27 L395.14 182.37 L394.42 182.52 L393.24 182.89 L392.25 183.33 L391.81 183.83 L391.91 184.32 L392.56 184.95 L393.52 185.60 L394.39 186.28 L394.86 186.94 L395.02 187.65 L394.77 188.40 L394.14 189.18 L393.37 189.77 " stroke-linecap='round' stroke-linejoin='round' brush-type='1' stroke-wetness='0.5'></path><path  style = ' stroke:#000000;  fill:none;  stroke-width:1.0;' d="M398.50 185.26 L399.43 185.21 L400.21 185.20 L401.73 185.13 L403.04 184.92 L404.22 184.48 L405.15 183.86 L405.68 183.17 L405.87 182.46 L405.52 181.84 L404.75 181.46 L403.44 181.56 L402.10 182.27 L400.95 183.58 L400.30 185.20 L400.05 186.72 L400.55 187.87 L401.82 188.52 " stroke-linecap='round' stroke-linejoin='round' brush-type='1' stroke-wetness='0.5'></path><path  style = ' stroke:#000000;  fill:none;  stroke-width:1.0;' d="M409.97 181.43 L409.04 181.62 L408.39 181.78 L407.39 182.15 L407.23 182.68 L407.95 183.42 L409.19 184.32 L410.53 185.16 L411.40 185.91 L411.77 186.53 L411.65 187.15 L410.81 187.84 L408.98 188.62 L406.71 189.30 " stroke-linecap='round' stroke-linejoin='round' brush-type='1' stroke-wetness='0.5'></path><path  style = ' stroke:#000000;  fill:none;  stroke-width:1.0;' d="M416.03 167.07 L417.01 166.32 L417.87 165.86 L419.67 164.98 L421.44 164.52 L423.22 164.24 L424.71 164.11 L425.74 164.21 L426.26 164.74 L426.42 165.76 L426.05 167.29 L425.14 169.09 L423.81 171.08 L422.50 173.07 L421.54 174.90 L421.01 176.40 L420.82 177.52 L420.89 178.29 L421.23 178.98 L421.85 179.75 L422.56 180.69 " stroke-linecap='round' stroke-linejoin='round' brush-type='1' stroke-wetness='0.5'></path><path  style = ' stroke:#000000;  fill:none;  stroke-width:1.0;' d="M421.16 188.06 L421.26 187.40 L421.51 186.81 L422.00 185.85 L422.63 185.29 L423.15 185.10 L423.56 185.13 L423.81 185.51 L423.93 186.13 L423.71 186.91 L423.15 187.43 L422.41 187.71 L421.76 187.78 L421.35 187.56 " stroke-linecap='round' stroke-linejoin='round' brush-type='1' stroke-wetness='0.5'></path></g><g id='id-text-layer'  type='type-normal' preserveAspectRatio="none" ><text  style = 'fill: #000000; font-family:Helvetica-Light; font-size:18.0; ' preserveAspectRatio="none" x= '40' y='40' width = '688' height = '944' transform="rotate(   0,  384,  512)" ><tspan visibility='hidden'><![CDATA[]]></tspan></text></g><recordings ></recordings><defs   ></defs><htext lang='en_US' timestamp='20171107-103419'><![CDATA[Recall up to equivalence of extension Extztthe, 2) contains lkX4nz|
Also Extk like, 2) I Hnz.
But only" 2 groups" you can but in middle X=k and X=Zxz
So what are n different equivalence classes?]]></htext></svg> 