<?xml version="1.0" standalone="no"?> <!DOCTYPE svg PUBLIC "-//W3C//DTD SVG 1.1//EN" "http://www.w3.org/Graphics/SVG/1.1/DTD/svg11.dtd"> <svg   version="1.1"     xmlns="http://www.w3.org/2000/svg"  xmlns:xlink="http://www.w3.org/1999/xlink" name="" width="768.0" height="1024.0" background="N_PAPERBACKGROUND_WHITE_WITH_GRAY_LINE" line-height="30.0" margin-top="40.0" margin-right="40.0" margin-bottom="40.0" margin-left="40.0"><g id='id-background-layer'  type='type-normal' preserveAspectRatio="none" ><rect  style = ' stroke:#FFFFFF;  fill:#FFFFFF;  stroke-width:0.0;' x="0" y="0" width="768" height="1024" preserveAspectRatio="none" transform="rotate(   0,  384,  512)" ></rect><polyline  style = ' stroke:#D7D6D6;  fill:none;  stroke-width:1.0;' points = ' 0,70 768,70' preserveAspectRatio="none" transform="rotate(   0,  384,   70)" ></polyline><polyline  style = ' stroke:#D7D6D6;  fill:none;  stroke-width:1.0;' points = ' 0,100 768,100' preserveAspectRatio="none" transform="rotate(   0,  384,  100)" ></polyline><polyline  style = ' stroke:#D7D6D6;  fill:none;  stroke-width:1.0;' points = ' 0,130 768,130' preserveAspectRatio="none" transform="rotate(   0,  384,  130)" ></polyline><polyline  style = ' stroke:#D7D6D6;  fill:none;  stroke-width:1.0;' points = ' 0,160 768,160' preserveAspectRatio="none" transform="rotate(   0,  384,  160)" ></polyline><polyline  style = ' stroke:#D7D6D6;  fill:none;  stroke-width:1.0;' points = ' 0,190 768,190' preserveAspectRatio="none" transform="rotate(   0,  384,  190)" ></polyline><polyline  style = ' stroke:#D7D6D6;  fill:none;  stroke-width:1.0;' points = ' 0,220 768,220' preserveAspectRatio="none" transform="rotate(   0,  384,  220)" ></polyline><polyline  style = ' stroke:#D7D6D6;  fill:none;  stroke-width:1.0;' points = ' 0,250 768,250' preserveAspectRatio="none" transform="rotate(   0,  384,  250)" ></polyline><polyline  style = ' stroke:#D7D6D6;  fill:none;  stroke-width:1.0;' points = ' 0,280 768,280' preserveAspectRatio="none" transform="rotate(   0,  384,  280)" ></polyline><polyline  style = ' stroke:#D7D6D6;  fill:none;  stroke-width:1.0;' points = ' 0,310 768,310' preserveAspectRatio="none" transform="rotate(   0,  384,  310)" ></polyline><polyline  style = ' stroke:#D7D6D6;  fill:none;  stroke-width:1.0;' points = ' 0,340 768,340' preserveAspectRatio="none" transform="rotate(   0,  384,  340)" ></polyline><polyline  style = ' stroke:#D7D6D6;  fill:none;  stroke-width:1.0;' points = ' 0,370 768,370' preserveAspectRatio="none" transform="rotate(   0,  384,  370)" ></polyline><polyline  style = ' stroke:#D7D6D6;  fill:none;  stroke-width:1.0;' points = ' 0,400 768,400' preserveAspectRatio="none" transform="rotate(   0,  384,  400)" ></polyline><polyline  style = ' stroke:#D7D6D6;  fill:none;  stroke-width:1.0;' points = ' 0,430 768,430' preserveAspectRatio="none" transform="rotate(   0,  384,  430)" ></polyline><polyline  style = ' stroke:#D7D6D6;  fill:none;  stroke-width:1.0;' points = ' 0,460 768,460' preserveAspectRatio="none" transform="rotate(   0,  384,  460)" ></polyline><polyline  style = ' stroke:#D7D6D6;  fill:none;  stroke-width:1.0;' points = ' 0,490 768,490' preserveAspectRatio="none" transform="rotate(   0,  384,  490)" ></polyline><polyline  style = ' stroke:#D7D6D6;  fill:none;  stroke-width:1.0;' points = ' 0,520 768,520' preserveAspectRatio="none" transform="rotate(   0,  384,  520)" ></polyline><polyline  style = ' stroke:#D7D6D6;  fill:none;  stroke-width:1.0;' points = ' 0,550 768,550' preserveAspectRatio="none" transform="rotate(   0,  384,  550)" ></polyline><polyline  style = ' stroke:#D7D6D6;  fill:none;  stroke-width:1.0;' points = ' 0,580 768,580' preserveAspectRatio="none" transform="rotate(   0,  384,  580)" ></polyline><polyline  style = ' stroke:#D7D6D6;  fill:none;  stroke-width:1.0;' points = ' 0,610 768,610' preserveAspectRatio="none" transform="rotate(   0,  384,  610)" ></polyline><polyline  style = ' stroke:#D7D6D6;  fill:none;  stroke-width:1.0;' points = ' 0,640 768,640' preserveAspectRatio="none" transform="rotate(   0,  384,  640)" ></polyline><polyline  style = ' stroke:#D7D6D6;  fill:none;  stroke-width:1.0;' points = ' 0,670 768,670' preserveAspectRatio="none" transform="rotate(   0,  384,  670)" ></polyline><polyline  style = ' stroke:#D7D6D6;  fill:none;  stroke-width:1.0;' points = ' 0,700 768,700' preserveAspectRatio="none" transform="rotate(   0,  384,  700)" ></polyline><polyline  style = ' stroke:#D7D6D6;  fill:none;  stroke-width:1.0;' points = ' 0,730 768,730' preserveAspectRatio="none" transform="rotate(   0,  384,  730)" ></polyline><polyline  style = ' stroke:#D7D6D6;  fill:none;  stroke-width:1.0;' points = ' 0,760 768,760' preserveAspectRatio="none" transform="rotate(   0,  384,  760)" ></polyline><polyline  style = ' stroke:#D7D6D6;  fill:none;  stroke-width:1.0;' points = ' 0,790 768,790' preserveAspectRatio="none" transform="rotate(   0,  384,  790)" ></polyline><polyline  style = ' stroke:#D7D6D6;  fill:none;  stroke-width:1.0;' points = ' 0,820 768,820' preserveAspectRatio="none" transform="rotate(   0,  384,  820)" ></polyline><polyline  style = ' stroke:#D7D6D6;  fill:none;  stroke-width:1.0;' points = ' 0,850 768,850' preserveAspectRatio="none" transform="rotate(   0,  384,  850)" ></polyline><polyline  style = ' stroke:#D7D6D6;  fill:none;  stroke-width:1.0;' points = ' 0,880 768,880' preserveAspectRatio="none" transform="rotate(   0,  384,  880)" ></polyline><polyline  style = ' stroke:#D7D6D6;  fill:none;  stroke-width:1.0;' points = ' 0,910 768,910' preserveAspectRatio="none" transform="rotate(   0,  384,  910)" ></polyline><polyline  style = ' stroke:#D7D6D6;  fill:none;  stroke-width:1.0;' points = ' 0,940 768,940' preserveAspectRatio="none" transform="rotate(   0,  384,  940)" ></polyline><polyline  style = ' stroke:#D7D6D6;  fill:none;  stroke-width:1.0;' points = ' 0,970 768,970' preserveAspectRatio="none" transform="rotate(   0,  384,  970)" ></polyline><polyline  style = ' stroke:#C74F4F;  fill:none;  stroke-width:0.5;' points = ' 40,0 40,1024' preserveAspectRatio="none" transform="rotate(   0,   40,  512)" ></polyline><polyline  style = ' stroke:#B6B6B6; stroke-opacity:0.8; fill:none;  stroke-width:0.5;' points = ' 728,0 728,1024' preserveAspectRatio="none" transform="rotate(   0,  728,  512)" ></polyline></g><g id='id-main-layer'  type='type-normal' preserveAspectRatio="none" ><path  style = ' stroke:#000000;  fill:none;  stroke-width:1.0;' d="M45.62 75.12 L45.30 75.57 L45.19 77.76 L44.97 82.05 L44.97 87.81 L45.02 92.75 L45.10 96.56 L45.28 98.95 L45.49 100.16 L45.71 100.07 " stroke-linecap='round' stroke-linejoin='round' brush-type='1' stroke-wetness='0.5'></path><path  style = ' stroke:#000000;  fill:none;  stroke-width:1.0;' d="M43.93 78.63 L44.65 78.11 L45.84 78.24 L48.18 79.01 L50.87 81.22 L53.16 84.17 L54.68 87.25 L55.37 90.24 L54.98 93.14 L53.68 95.83 L51.47 98.08 L48.96 99.64 L46.49 100.46 L44.50 100.46 " stroke-linecap='round' stroke-linejoin='round' brush-type='1' stroke-wetness='0.5'></path><path  style = ' stroke:#000000;  fill:none;  stroke-width:1.0;' d="M58.36 92.27 L59.34 92.34 L60.49 92.32 L62.69 92.01 L65.03 91.10 L67.07 89.63 L68.50 88.03 L69.15 86.68 L68.72 85.86 L67.16 85.47 L64.43 85.90 L61.27 87.25 L58.45 89.41 L56.54 91.88 L55.63 94.31 L55.98 96.43 L57.67 97.95 L60.92 98.69 L64.82 98.43 " stroke-linecap='round' stroke-linejoin='round' brush-type='1' stroke-wetness='0.5'></path><path  style = ' stroke:#000000;  fill:none;  stroke-width:1.0;' d="M78.64 81.87 L77.99 80.96 L77.38 80.66 L76.13 80.05 L74.87 80.27 L73.61 81.27 L72.53 83.35 L71.79 86.38 L71.40 89.72 L71.27 92.75 L71.23 95.18 L71.06 96.82 L70.80 97.78 " stroke-linecap='round' stroke-linejoin='round' brush-type='1' stroke-wetness='0.5'></path><path  style = ' stroke:#000000;  fill:none;  stroke-width:1.0;' d="M67.72 92.53 L69.87 92.53 L71.66 92.53 " stroke-linecap='round' stroke-linejoin='round' brush-type='1' stroke-wetness='0.5'></path><path  style = ' stroke:#000000;  fill:none;  stroke-width:1.0;' d="M77.21 98.25 L76.95 97.47 L76.86 96.13 L76.99 93.83 L77.86 91.45 L79.42 89.85 L81.28 88.94 L83.06 88.89 L84.40 89.89 L85.18 91.80 L85.49 94.22 L85.44 96.43 L84.84 98.12 L83.97 99.12 " stroke-linecap='round' stroke-linejoin='round' brush-type='1' stroke-wetness='0.5'></path><path  style = ' stroke:#000000;  fill:none;  stroke-width:1.0;' d="M48.87 96.30 L49.52 96.43 L51.08 96.48 L54.25 96.69 L58.45 97.00 L62.74 97.43 L66.94 97.86 L70.84 98.25 L74.26 98.69 L77.25 99.12 L79.77 99.60 L81.85 99.99 L83.41 100.33 L84.45 100.51 L85.10 100.59 L85.49 100.59 L85.83 100.59 L86.18 100.59 " stroke-linecap='round' stroke-linejoin='round' brush-type='1' stroke-wetness='0.5'></path><path  style = ' stroke:#000000;  fill:none;  stroke-width:1.0;' d="M90.08 89.41 a0.50 0.50 0 1 0 0.01 0 " stroke-linecap='round' stroke-linejoin='round' brush-type='1' stroke-wetness='0.5'></path><path  style = ' stroke:#000000;  fill:none;  stroke-width:1.0;' d="M90.34 96.56 a0.50 0.50 0 1 0 0.01 0 " stroke-linecap='round' stroke-linejoin='round' brush-type='1' stroke-wetness='0.5'></path><path  style = ' stroke:#000000;  fill:none;  stroke-width:1.0;' d="M100.09 100.59 L100.35 99.68 L100.61 98.34 L101.30 95.52 L102.34 92.06 L103.68 88.55 L105.11 85.47 L106.24 83.22 L107.02 81.87 L107.41 81.27 L107.84 81.92 L108.49 84.04 L109.36 87.59 L110.18 91.41 L110.88 94.79 L111.48 97.13 L111.92 98.60 " stroke-linecap='round' stroke-linejoin='round' brush-type='1' stroke-wetness='0.5'></path><path  style = ' stroke:#000000;  fill:none;  stroke-width:1.0;' d="M106.07 91.49 L106.85 91.36 L107.76 91.32 L109.92 91.28 L112.52 91.49 " stroke-linecap='round' stroke-linejoin='round' brush-type='1' stroke-wetness='0.5'></path><path  style = ' stroke:#000000;  fill:none;  stroke-width:1.0;' d="M127.90 107.48 L128.10 106.96 L128.16 106.14 L128.29 104.14 L128.03 101.29 L127.60 97.86 L127.12 94.44 L126.91 91.49 L126.99 89.24 L127.43 87.68 L128.25 86.81 L129.46 86.64 L130.72 87.51 L131.72 89.11 L132.19 91.19 L132.24 92.97 L131.72 94.40 L130.72 95.26 L129.33 95.70 L128.21 95.74 " stroke-linecap='round' stroke-linejoin='round' brush-type='1' stroke-wetness='0.5'></path><path  style = ' stroke:#000000;  fill:none;  stroke-width:1.0;' d="M135.18 99.03 L135.18 98.64 L135.18 97.86 L135.18 96.00 L135.18 93.49 L135.23 91.06 L135.40 89.37 L135.79 88.50 L136.48 88.20 L137.48 88.11 L138.73 88.20 L139.86 88.42 " stroke-linecap='round' stroke-linejoin='round' brush-type='1' stroke-wetness='0.5'></path><path  style = ' stroke:#000000;  fill:none;  stroke-width:1.0;' d="M141.29 91.75 L142.27 92.40 L143.37 92.40 L145.32 92.23 L146.97 91.28 L147.92 90.24 L148.35 89.41 L147.96 88.85 L146.79 88.68 L144.89 89.28 L142.85 90.67 L141.25 92.58 L140.34 94.44 L140.29 96.00 L141.29 97.08 L143.59 97.56 " stroke-linecap='round' stroke-linejoin='round' brush-type='1' stroke-wetness='0.5'></path><path  style = ' stroke:#000000;  fill:none;  stroke-width:1.0;' d="M153.77 90.19 L152.66 90.78 L152.08 91.23 L151.08 92.10 L150.87 92.92 L151.21 93.79 L151.86 94.74 L152.60 95.65 L152.99 96.52 L152.99 97.39 L152.38 98.25 L151.13 99.12 L149.44 99.81 L147.96 100.29 " stroke-linecap='round' stroke-linejoin='round' brush-type='1' stroke-wetness='0.5'></path><path  style = ' stroke:#000000;  fill:none;  stroke-width:1.0;' d="M161.70 91.10 L160.79 91.23 L159.88 91.67 L158.19 92.79 L156.89 94.61 L156.20 96.69 L156.33 98.56 L157.54 99.68 L159.62 99.77 L161.92 98.60 " stroke-linecap='round' stroke-linejoin='round' brush-type='1' stroke-wetness='0.5'></path><path  style = ' stroke:#000000;  fill:none;  stroke-width:1.0;' d="M167.29 81.61 L167.22 82.20 L167.20 83.87 L167.16 87.12 L167.07 91.32 L166.85 95.00 L166.55 97.78 L166.33 99.34 L166.29 98.90 L166.55 97.17 L167.20 94.87 L168.15 93.62 L169.19 93.40 L170.02 94.18 L170.58 95.52 L170.88 97.08 L171.06 98.25 " stroke-linecap='round' stroke-linejoin='round' brush-type='1' stroke-wetness='0.5'></path><path  style = ' stroke:#000000;  fill:none;  stroke-width:1.0;' d="M173.27 96.04 L174.31 95.59 L175.48 95.22 L177.51 94.61 L179.25 93.96 L180.29 93.18 L180.81 92.19 L180.76 91.32 L179.98 90.80 L178.51 90.71 L176.60 91.54 L174.91 93.14 L173.87 95.26 L173.48 97.21 L174.09 98.64 L175.61 99.47 L178.21 99.47 L180.81 98.64 L182.89 97.30 L183.97 95.96 L184.45 94.92 L184.32 94.22 L183.58 93.83 L182.45 93.79 L181.33 94.44 L180.59 95.52 L180.24 96.74 L180.42 97.43 L181.28 97.60 L182.63 97.17 L184.01 96.26 L184.88 95.22 L185.31 94.48 L185.44 94.61 L185.49 95.52 L185.49 97.04 L185.62 98.38 L186.01 99.21 " stroke-linecap='round' stroke-linejoin='round' brush-type='1' stroke-wetness='0.5'></path><path  style = ' stroke:#000000;  fill:none;  stroke-width:1.0;' d="M199.26 86.16 L199.46 84.99 L199.31 83.91 L198.87 82.05 L197.79 80.62 L196.40 79.75 L194.93 79.27 L193.67 79.14 L192.72 79.45 L192.11 80.75 L191.77 83.22 L191.64 86.51 L191.59 89.80 L191.59 92.62 L191.59 94.87 L191.51 96.43 L191.33 97.39 L191.07 97.78 L190.81 97.78 " stroke-linecap='round' stroke-linejoin='round' brush-type='1' stroke-wetness='0.5'></path><path  style = ' stroke:#000000;  fill:none;  stroke-width:1.0;' d="M187.05 90.84 L187.50 91.17 L188.56 91.49 L190.60 92.14 L193.11 92.71 L195.28 93.18 L196.97 93.53 L198.01 93.83 " stroke-linecap='round' stroke-linejoin='round' brush-type='1' stroke-wetness='0.5'></path><path  style = ' stroke:#000000;  fill:none;  stroke-width:1.0;' d="M220.58 98.90 L220.65 97.93 L220.67 97.34 L220.71 95.87 L220.62 94.35 L220.32 92.14 L219.84 89.37 L219.28 86.25 L218.93 83.22 L218.76 80.70 L218.76 78.88 L218.76 77.72 L219.15 77.07 L220.06 76.76 L221.62 76.68 L223.48 76.76 L225.56 77.07 L227.77 77.54 L230.03 78.06 L232.19 78.45 L234.01 78.76 L235.31 79.01 " stroke-linecap='round' stroke-linejoin='round' brush-type='1' stroke-wetness='0.5'></path><path  style = ' stroke:#000000;  fill:none;  stroke-width:1.0;' d="M221.62 86.68 L222.40 86.68 L223.96 86.68 L226.99 86.64 L230.46 86.55 " stroke-linecap='round' stroke-linejoin='round' brush-type='1' stroke-wetness='0.5'></path><path  style = ' stroke:#000000;  fill:none;  stroke-width:1.0;' d="M238.65 87.59 a0.50 0.50 0 1 0 0.01 0 " stroke-linecap='round' stroke-linejoin='round' brush-type='1' stroke-wetness='0.5'></path><path  style = ' stroke:#000000;  fill:none;  stroke-width:1.0;' d="M241.51 93.18 a0.50 0.50 0 1 0 0.01 0 " stroke-linecap='round' stroke-linejoin='round' brush-type='1' stroke-wetness='0.5'></path><path  style = ' stroke:#000000;  fill:none;  stroke-width:1.0;' d="M262.95 79.66 L262.30 79.66 L261.48 79.97 L259.71 80.75 L257.76 82.05 L256.02 83.48 L254.90 84.65 L254.42 85.51 L255.11 86.25 L256.98 87.12 L259.62 88.16 L262.05 89.28 L263.73 90.41 L264.64 91.54 L264.99 92.66 L264.64 93.83 L263.65 94.92 L262.09 95.78 L260.53 96.30 L259.49 96.52 " stroke-linecap='round' stroke-linejoin='round' brush-type='1' stroke-wetness='0.5'></path><path  style = ' stroke:#000000;  fill:none;  stroke-width:1.0;' d="M271.40 88.11 L270.56 88.37 L269.76 89.33 L268.50 91.15 L267.81 93.40 L267.89 95.09 L268.85 96.04 L270.54 96.13 L272.53 95.31 " stroke-linecap='round' stroke-linejoin='round' brush-type='1' stroke-wetness='0.5'></path><path  style = ' stroke:#000000;  fill:none;  stroke-width:1.0;' d="M277.12 77.59 L277.45 78.17 L277.64 79.32 L278.12 81.83 L278.47 85.34 L278.77 88.98 L278.90 92.27 L278.94 94.66 L278.94 96.13 L279.12 95.87 L279.85 94.35 L281.15 92.19 L282.76 90.80 L284.06 90.19 L284.92 90.63 L285.36 91.88 L285.53 93.79 L285.57 95.65 L285.57 97.04 " stroke-linecap='round' stroke-linejoin='round' brush-type='1' stroke-wetness='0.5'></path><path  style = ' stroke:#000000;  fill:none;  stroke-width:1.0;' d="M293.24 74.21 L292.27 74.27 L291.55 74.68 L290.29 75.85 L289.56 77.85 L289.21 80.10 L289.43 81.83 L290.60 82.70 L292.55 82.52 L294.67 81.61 L296.19 80.18 L296.97 78.58 L297.05 77.11 L296.53 75.94 L295.62 75.29 L294.58 75.03 L293.80 74.99 L293.37 75.33 L293.37 75.98 " stroke-linecap='round' stroke-linejoin='round' brush-type='1' stroke-wetness='0.5'></path><path  style = ' stroke:#000000;  fill:none;  stroke-width:1.0;' d="M298.96 86.16 L298.96 85.25 L298.96 83.95 L299.05 81.44 L299.26 78.71 L299.70 76.46 L300.17 74.77 L300.61 73.77 L301.00 73.30 L301.56 73.17 L302.38 73.51 L303.16 74.42 L303.64 76.24 L303.38 77.98 L302.51 79.32 L301.26 79.79 L300.04 80.01 L299.22 80.05 " stroke-linecap='round' stroke-linejoin='round' brush-type='1' stroke-wetness='0.5'></path><path  style = ' stroke:#000000;  fill:none;  stroke-width:1.0;' d="M255.94 100.33 L256.46 100.20 L257.24 100.16 L259.10 100.07 L261.66 100.07 L264.99 100.07 L268.85 100.12 L273.14 100.20 L277.64 100.29 L281.98 100.33 L286.01 100.25 L289.47 99.94 L292.50 99.42 L294.67 98.95 " stroke-linecap='round' stroke-linejoin='round' brush-type='1' stroke-wetness='0.5'></path><path  style = ' stroke:#000000;  fill:none;  stroke-width:1.0;' d="M311.96 90.06 L312.41 89.80 L313.47 89.72 L315.51 89.54 L318.20 89.54 L320.88 89.54 L323.44 89.54 L325.56 89.54 L327.04 89.54 L327.95 89.54 L328.34 89.50 L328.42 89.20 L327.90 88.50 L326.95 87.42 L325.78 86.38 L325.09 85.69 L325.43 85.90 L326.39 86.77 L327.51 88.03 L328.12 89.07 L328.38 89.80 L328.34 90.28 L327.73 90.63 L326.47 90.93 L325.00 91.15 " stroke-linecap='round' stroke-linejoin='round' brush-type='1' stroke-wetness='0.5'></path><path  style = ' stroke:#000000;  fill:none;  stroke-width:1.0;' d="M347.70 78.63 L346.53 78.56 L345.45 79.01 L343.54 80.01 L342.11 81.61 L341.29 83.30 L340.94 84.82 L341.46 86.21 L342.72 87.46 L344.41 88.72 L345.75 89.93 L346.49 91.06 L346.75 92.23 L346.23 93.49 L344.97 94.79 L343.15 95.96 L341.68 96.69 L340.90 97.00 L341.29 96.56 L342.94 95.52 L345.32 94.27 L347.62 93.36 L349.26 93.01 L350.48 92.92 L351.43 92.97 L352.25 93.01 L353.08 93.05 L354.03 92.66 L354.94 91.84 L355.59 90.63 L355.72 89.41 L355.20 88.46 L354.16 87.90 L352.64 88.16 L351.04 89.41 L349.61 91.62 L348.79 94.05 L348.74 96.13 L349.70 97.43 L351.47 98.08 L353.73 97.78 " stroke-linecap='round' stroke-linejoin='round' brush-type='1' stroke-wetness='0.5'></path><path  style = ' stroke:#000000;  fill:none;  stroke-width:1.0;' d="M361.74 84.34 L361.74 85.19 L361.74 86.29 L361.74 88.59 L361.74 91.23 L361.74 93.70 L361.74 95.39 " stroke-linecap='round' stroke-linejoin='round' brush-type='1' stroke-wetness='0.5'></path><path  style = ' stroke:#000000;  fill:none;  stroke-width:1.0;' d="M358.23 88.37 L358.75 88.50 L359.49 88.55 L361.22 88.63 L363.60 88.63 L366.16 88.55 L368.28 88.37 L369.50 88.11 L369.97 87.90 L369.54 87.90 L368.76 88.20 L367.89 88.68 L367.55 89.24 L367.94 89.89 L369.02 90.76 L370.49 91.75 L371.62 92.84 L372.14 94.05 L371.88 95.44 L370.62 96.87 L368.20 98.17 L365.60 98.99 " stroke-linecap='round' stroke-linejoin='round' brush-type='1' stroke-wetness='0.5'></path><path  style = ' stroke:#000000;  fill:none;  stroke-width:1.0;' d="M343.15 99.42 L344.00 99.23 L345.88 99.16 L349.35 99.08 L354.12 99.16 L359.14 99.29 L364.69 99.38 L369.89 99.47 L374.65 99.55 L378.55 99.68 L381.76 99.77 L384.01 99.81 L385.53 99.81 L386.35 99.81 L386.70 99.90 L387.00 100.12 " stroke-linecap='round' stroke-linejoin='round' brush-type='1' stroke-wetness='0.5'></path><path  style = ' stroke:#000000;  fill:none;  stroke-width:1.0;' d="M398.92 84.99 L398.85 85.25 L398.87 85.99 L399.22 87.29 L399.87 89.07 L400.56 90.93 L400.95 92.97 L401.08 94.96 L401.21 96.52 L401.47 97.47 " stroke-linecap='round' stroke-linejoin='round' brush-type='1' stroke-wetness='0.5'></path><path  style = ' stroke:#000000;  fill:none;  stroke-width:1.0;' d="M409.45 85.77 L408.28 86.29 L407.19 86.90 L405.55 87.98 L404.68 89.02 L404.72 89.98 L405.37 90.97 L406.33 92.06 L407.19 93.14 L407.67 94.14 L407.80 95.00 L407.32 95.78 L406.33 96.43 L405.03 96.82 L404.16 96.95 L404.29 96.78 " stroke-linecap='round' stroke-linejoin='round' brush-type='1' stroke-wetness='0.5'></path><path  style = ' stroke:#000000;  fill:none;  stroke-width:1.0;' d="M426.34 87.98 L425.50 88.05 L424.57 88.46 L422.70 89.72 L420.97 91.80 L419.76 94.31 L419.19 96.56 L419.97 98.21 L421.84 99.03 " stroke-linecap='round' stroke-linejoin='round' brush-type='1' stroke-wetness='0.5'></path><path  style = ' stroke:#000000;  fill:none;  stroke-width:1.0;' d="M432.97 91.23 L432.39 90.91 L431.46 91.02 L429.98 91.54 L428.68 93.01 L428.12 94.83 L428.08 96.39 L428.73 97.21 L429.90 97.04 L431.24 95.96 L432.24 94.09 L432.76 92.01 L432.93 90.41 L433.02 89.59 L433.10 89.89 L433.19 91.15 L433.32 93.23 L433.45 95.35 L433.67 96.78 " stroke-linecap='round' stroke-linejoin='round' brush-type='1' stroke-wetness='0.5'></path><path  style = ' stroke:#000000;  fill:none;  stroke-width:1.0;' d="M438.04 80.57 L438.11 81.09 L438.13 82.52 L438.04 85.25 L437.74 88.68 L437.30 91.58 L437.00 93.57 " stroke-linecap='round' stroke-linejoin='round' brush-type='1' stroke-wetness='0.5'></path><path  style = ' stroke:#000000;  fill:none;  stroke-width:1.0;' d="M441.16 83.04 L441.23 84.08 L441.25 85.34 L441.25 87.90 L441.07 90.71 L440.81 93.36 L440.55 95.52 " stroke-linecap='round' stroke-linejoin='round' brush-type='1' stroke-wetness='0.5'></path><path  style = ' stroke:#000000;  fill:none;  stroke-width:1.0;' d="M442.72 94.35 L443.18 94.09 L443.76 93.79 L444.93 93.40 L446.27 92.88 L447.53 92.23 L448.44 91.32 L448.87 90.45 L448.61 89.85 L447.70 89.50 L446.19 89.93 L444.58 91.28 L443.41 93.40 L442.85 95.57 L443.11 97.17 L444.32 98.04 " stroke-linecap='round' stroke-linejoin='round' brush-type='1' stroke-wetness='0.5'></path><path  style = ' stroke:#000000;  fill:none;  stroke-width:1.0;' d="M451.95 95.39 L452.99 93.64 L453.08 92.84 L453.08 91.45 L451.91 91.41 L450.61 92.23 L449.52 93.70 L448.92 95.44 L448.87 96.74 L449.61 97.39 L450.91 97.04 L452.47 95.70 L453.68 93.18 L454.42 89.76 L454.77 85.82 L454.94 82.09 L455.03 79.53 L455.07 80.18 L454.85 83.52 L454.51 88.59 L454.16 92.79 L454.03 95.96 " stroke-linecap='round' stroke-linejoin='round' brush-type='1' stroke-wetness='0.5'></path><path  style = ' stroke:#000000;  fill:none;  stroke-width:1.0;' d="M475.48 89.41 L474.57 89.15 L473.44 89.46 L471.53 90.32 L469.84 92.19 L468.85 94.40 L468.33 96.26 L468.46 97.34 L469.37 97.26 L470.93 96.04 L472.75 93.92 L474.13 91.54 L474.96 89.59 L475.26 88.46 L475.43 89.11 L475.78 91.19 L476.73 94.14 " stroke-linecap='round' stroke-linejoin='round' brush-type='1' stroke-wetness='0.5'></path><path  style = ' stroke:#000000;  fill:none;  stroke-width:1.0;' d="M493.02 96.82 L492.50 95.91 L492.20 94.57 L491.72 92.10 L491.68 89.41 L492.20 87.29 L493.24 85.86 L494.76 85.47 L496.23 86.55 L497.27 88.81 L497.75 91.62 L497.83 93.75 L497.79 94.87 L497.88 94.01 L498.40 92.01 L499.39 89.54 L500.56 88.29 L501.39 88.20 L501.82 89.33 L501.95 91.36 L501.99 93.70 L502.12 95.39 " stroke-linecap='round' stroke-linejoin='round' brush-type='1' stroke-wetness='0.5'></path><path  style = ' stroke:#000000;  fill:none;  stroke-width:1.0;' d="M510.44 90.71 L508.82 91.30 L507.80 92.53 L506.20 94.57 L505.81 96.61 L506.59 97.60 L508.15 97.47 L510.10 96.26 L511.48 94.48 L512.13 92.75 L511.87 91.49 L511.05 90.80 L509.84 90.63 L508.75 91.23 L508.10 92.32 " stroke-linecap='round' stroke-linejoin='round' brush-type='1' stroke-wetness='0.5'></path><path  style = ' stroke:#000000;  fill:none;  stroke-width:1.0;' d="M516.55 93.31 L515.58 92.99 L514.90 93.44 L513.86 94.44 L513.47 96.13 L513.69 97.47 L514.47 98.17 L515.77 97.82 L517.16 96.43 L518.15 94.05 L518.67 90.97 L518.85 87.38 L518.80 83.78 L518.72 81.01 L518.63 79.53 L518.41 80.57 L518.02 83.69 L517.59 88.16 L517.37 92.01 L517.37 94.74 " stroke-linecap='round' stroke-linejoin='round' brush-type='1' stroke-wetness='0.5'></path><path  style = ' stroke:#000000;  fill:none;  stroke-width:1.0;' d="M523.05 91.88 L522.79 92.34 L522.66 93.44 L522.44 95.31 L522.40 97.21 L522.66 98.25 L523.53 98.51 L525.00 97.60 L526.60 95.74 L527.77 93.49 L528.42 91.93 L528.68 91.36 L528.77 92.10 L528.77 93.83 L528.77 96.09 L528.90 97.95 L529.25 98.99 L529.68 99.16 " stroke-linecap='round' stroke-linejoin='round' brush-type='1' stroke-wetness='0.5'></path><path  style = ' stroke:#000000;  fill:none;  stroke-width:1.0;' d="M532.93 82.00 L533.25 82.72 L533.36 83.74 L533.58 86.21 L533.58 89.54 L533.58 93.14 L533.58 96.30 L533.58 98.34 " stroke-linecap='round' stroke-linejoin='round' brush-type='1' stroke-wetness='0.5'></path><path  style = ' stroke:#000000;  fill:none;  stroke-width:1.0;' d="M540.34 88.76 L540.27 89.61 L540.25 90.80 L540.12 92.88 L539.86 95.00 L539.56 96.65 " stroke-linecap='round' stroke-linejoin='round' brush-type='1' stroke-wetness='0.5'></path><path  style = ' stroke:#000000;  fill:none;  stroke-width:1.0;' d="M540.73 82.39 L541.05 82.78 L541.20 83.35 " stroke-linecap='round' stroke-linejoin='round' brush-type='1' stroke-wetness='0.5'></path><path  style = ' stroke:#000000;  fill:none;  stroke-width:1.0;' d="M498.35 98.77 L499.00 99.10 L500.26 99.42 L502.90 100.07 L506.76 100.68 L511.40 101.11 L516.72 101.33 L522.36 101.37 L528.29 101.37 L534.53 101.29 L541.03 101.07 L547.36 100.85 L553.16 100.72 L557.84 100.72 L561.53 100.72 L564.21 100.72 L566.20 100.72 L567.46 100.72 " stroke-linecap='round' stroke-linejoin='round' brush-type='1' stroke-wetness='0.5'></path><path  style = ' stroke:#000000;  fill:none;  stroke-width:1.0;' d="M555.16 113.72 L554.90 112.94 L554.81 111.94 L554.46 109.73 L554.03 106.79 L553.38 102.93 L552.90 98.69 L552.69 94.79 L552.77 91.97 L553.21 90.37 L554.03 89.67 L555.07 89.85 L555.89 90.67 L556.33 92.10 L556.07 93.66 L555.16 95.09 L553.73 96.04 L552.30 96.61 L551.34 96.74 L550.91 96.56 " stroke-linecap='round' stroke-linejoin='round' brush-type='1' stroke-wetness='0.5'></path><path  style = ' stroke:#000000;  fill:none;  stroke-width:1.0;' d="M560.49 98.12 L560.36 97.21 L560.31 96.26 L560.23 94.18 L560.31 92.06 L560.75 90.24 L561.61 89.20 L562.82 88.81 " stroke-linecap='round' stroke-linejoin='round' brush-type='1' stroke-wetness='0.5'></path><path  style = ' stroke:#000000;  fill:none;  stroke-width:1.0;' d="M570.10 90.97 L569.06 91.10 L567.94 91.80 L566.07 93.23 L564.82 95.22 L564.38 96.91 L564.99 97.91 L566.46 97.99 L568.50 97.17 L570.15 95.91 L571.06 94.57 L571.23 93.44 L570.88 92.58 L570.36 92.06 L569.97 91.93 " stroke-linecap='round' stroke-linejoin='round' brush-type='1' stroke-wetness='0.5'></path><path  style = ' stroke:#000000;  fill:none;  stroke-width:1.0;' d="M577.38 94.61 L577.38 93.90 L577.38 93.18 L577.77 91.84 L578.64 90.84 L579.94 90.32 L581.02 90.76 L581.63 92.06 L581.24 94.09 L580.03 96.00 L578.29 97.17 L576.78 97.34 L575.78 95.87 L575.30 92.71 L575.17 88.03 L575.26 83.52 L575.52 80.31 L575.82 78.88 L576.04 79.23 L576.08 81.31 L576.08 84.82 L576.04 88.72 L576.04 91.93 L576.26 93.75 " stroke-linecap='round' stroke-linejoin='round' brush-type='1' stroke-wetness='0.5'></path><path  style = ' stroke:#000000;  fill:none;  stroke-width:1.0;' d="M583.49 81.74 L583.56 82.72 L583.58 84.47 L583.62 87.55 L583.62 90.97 L583.62 93.66 " stroke-linecap='round' stroke-linejoin='round' brush-type='1' stroke-wetness='0.5'></path><path  style = ' stroke:#000000;  fill:none;  stroke-width:1.0;' d="M588.43 94.09 L588.89 94.09 L589.69 94.01 L591.07 93.53 L592.37 92.66 L593.02 91.54 L593.15 90.45 L592.59 89.72 L591.51 89.37 L590.12 89.93 L588.95 91.23 L588.26 93.14 L588.00 95.05 L588.56 96.69 " stroke-linecap='round' stroke-linejoin='round' brush-type='1' stroke-wetness='0.5'></path><path  style = ' stroke:#000000;  fill:none;  stroke-width:1.0;' d="M594.93 96.95 L594.35 95.91 L594.15 95.00 L593.76 93.18 L593.98 91.58 L594.67 90.37 L595.93 89.72 L597.27 89.93 L598.27 90.93 L598.70 92.58 L598.74 94.22 L598.61 95.31 L598.48 94.87 L598.87 93.05 L599.83 90.58 L601.17 88.89 L602.38 88.42 L603.25 89.33 L603.73 91.15 L603.90 93.53 L603.86 95.83 " stroke-linecap='round' stroke-linejoin='round' brush-type='1' stroke-wetness='0.5'></path><path  style = ' stroke:#000000;  fill:none;  stroke-width:1.0;' d="M575.95 100.98 L576.28 100.85 L577.43 100.85 L579.72 100.98 L582.93 101.24 L586.31 101.55 L589.73 101.72 L593.07 101.85 L596.10 101.89 L598.61 101.89 L600.56 101.89 L601.95 101.89 L603.08 101.89 L603.99 101.89 L604.81 101.85 L605.55 101.76 " stroke-linecap='round' stroke-linejoin='round' brush-type='1' stroke-wetness='0.5'></path><path  style = ' stroke:#000000;  fill:none;  stroke-width:1.0;' d="M627.04 91.88 L625.87 91.88 L624.65 92.32 L622.62 93.27 L621.14 94.92 L620.49 96.69 L620.67 98.25 L622.01 99.12 L624.52 98.90 L627.47 97.73 L630.03 95.96 L631.50 94.22 L632.15 92.84 L631.80 91.88 L630.85 91.41 L629.42 91.54 L628.21 92.40 L627.56 93.79 " stroke-linecap='round' stroke-linejoin='round' brush-type='1' stroke-wetness='0.5'></path><path  style = ' stroke:#000000;  fill:none;  stroke-width:1.0;' d="M634.58 98.64 L634.25 97.80 L634.14 96.52 L634.01 94.31 L634.58 92.27 L635.75 91.15 L637.48 90.71 L639.25 91.23 L640.77 92.45 L641.94 94.18 L642.98 95.74 " stroke-linecap='round' stroke-linejoin='round' brush-type='1' stroke-wetness='0.5'></path><path  style = ' stroke:#000000;  fill:none;  stroke-width:1.0;' d="M657.32 88.11 L656.35 88.18 L655.24 88.55 L653.55 89.20 L652.38 90.19 L651.99 91.15 L652.25 92.19 L653.21 93.05 L654.55 93.88 L655.72 94.57 L656.41 95.26 L656.72 95.96 L656.54 96.61 L655.94 97.17 L655.07 97.56 " stroke-linecap='round' stroke-linejoin='round' brush-type='1' stroke-wetness='0.5'></path><path  style = ' stroke:#000000;  fill:none;  stroke-width:1.0;' d="M666.29 84.73 L665.38 85.64 L664.69 87.38 L663.69 90.32 L663.34 93.36 L663.73 95.26 L664.64 96.35 L666.03 96.61 L667.68 96.09 L669.24 94.79 " stroke-linecap='round' stroke-linejoin='round' brush-type='1' stroke-wetness='0.5'></path><path  style = ' stroke:#000000;  fill:none;  stroke-width:1.0;' d="M670.71 79.27 L670.97 79.79 L671.10 81.22 L671.32 84.08 L671.36 87.81 L671.36 91.15 L671.36 93.62 L671.36 94.96 L671.79 94.44 L672.62 92.79 L673.74 90.80 L674.61 89.80 L675.22 89.98 L675.56 90.97 L675.74 92.45 L675.87 93.75 L676.00 94.53 " stroke-linecap='round' stroke-linejoin='round' brush-type='1' stroke-wetness='0.5'></path><path  style = ' stroke:#000000;  fill:none;  stroke-width:1.0;' d="M676.95 95.00 L678.64 93.90 L679.85 93.53 L682.19 92.58 L683.71 92.01 L684.62 91.06 L684.92 90.02 L684.45 89.24 L683.41 88.89 L681.93 89.54 L680.63 91.10 L679.85 93.36 L679.59 95.48 L680.24 97.08 L681.24 98.04 " stroke-linecap='round' stroke-linejoin='round' brush-type='1' stroke-wetness='0.5'></path><path  style = ' stroke:#000000;  fill:none;  stroke-width:1.0;' d="M687.22 97.08 L687.28 96.37 L687.30 95.61 L687.35 94.01 L687.48 92.32 L687.95 90.89 L688.78 90.02 L689.77 89.89 L690.51 90.76 L690.90 92.53 L690.81 94.74 L690.51 96.48 L690.73 96.22 L691.77 94.70 L693.54 92.71 L695.15 91.84 L696.23 92.10 L696.79 93.18 L697.05 94.74 L697.40 96.04 " stroke-linecap='round' stroke-linejoin='round' brush-type='1' stroke-wetness='0.5'></path><path  style = ' stroke:#000000;  fill:none;  stroke-width:1.0;' d="M701.78 94.09 L702.43 94.22 L703.08 94.27 L704.46 94.18 L705.89 93.62 L707.15 92.71 L707.93 91.62 L707.93 90.71 L706.98 90.15 L705.07 90.50 L702.77 91.88 L700.87 94.05 L699.87 96.17 L700.04 97.78 L701.60 98.64 L704.29 98.69 " stroke-linecap='round' stroke-linejoin='round' brush-type='1' stroke-wetness='0.5'></path><path  style = ' stroke:#000000;  fill:none;  stroke-width:1.0;' d="M712.69 95.52 L714.45 93.38 L714.51 92.66 L714.64 91.49 L713.30 92.01 L712.39 92.79 L712.09 93.66 L712.65 94.70 L713.78 95.87 L715.08 97.04 L715.86 98.04 L716.16 98.90 L715.68 99.64 L714.43 100.25 L712.61 100.59 L711.01 100.72 " stroke-linecap='round' stroke-linejoin='round' brush-type='1' stroke-wetness='0.5'></path><path  style = ' stroke:#000000;  fill:none;  stroke-width:1.0;' d="M724.52 100.85 L723.22 100.85 L722.14 100.85 L720.06 100.85 L718.24 100.85 L716.20 100.85 L713.69 100.85 L710.23 100.85 L706.07 100.85 L701.08 100.85 L695.28 100.81 L688.47 100.64 L680.55 100.29 L671.84 99.81 L662.22 99.29 L652.04 98.90 L641.20 98.64 L630.16 98.56 L619.41 98.51 L609.75 98.60 L601.69 98.99 " stroke-linecap='round' stroke-linejoin='round' brush-type='1' stroke-wetness='0.5'></path><path  style = ' stroke:#000000;  fill:none;  stroke-width:1.0;' d="M47.57 108.13 L46.92 108.65 L46.62 110.90 L45.97 115.15 L45.71 120.52 L45.54 124.77 L45.49 127.59 L45.54 128.93 L45.84 128.58 " stroke-linecap='round' stroke-linejoin='round' brush-type='1' stroke-wetness='0.5'></path><path  style = ' stroke:#000000;  fill:none;  stroke-width:1.0;' d="M44.84 112.55 L44.84 111.77 L45.02 111.42 L45.67 110.82 L47.05 110.90 L49.09 111.77 L51.21 113.50 L52.82 116.06 L53.60 118.88 L53.51 121.69 L52.51 124.21 L50.87 126.29 L48.96 127.72 L47.40 128.50 L46.40 128.76 " stroke-linecap='round' stroke-linejoin='round' brush-type='1' stroke-wetness='0.5'></path><path  style = ' stroke:#000000;  fill:none;  stroke-width:1.0;' d="M55.11 122.95 L55.76 123.14 L56.33 123.21 L57.41 123.34 L58.41 123.25 L59.45 122.78 L60.44 121.82 L61.14 120.48 L61.27 119.14 L60.66 118.18 L59.32 117.75 L57.50 118.36 L55.72 119.92 L54.55 122.21 L54.12 124.51 L54.98 126.29 L57.24 127.37 L60.01 127.80 " stroke-linecap='round' stroke-linejoin='round' brush-type='1' stroke-wetness='0.5'></path><path  style = ' stroke:#000000;  fill:none;  stroke-width:1.0;' d="M72.66 115.02 L71.95 113.92 L70.80 113.55 L68.80 112.85 L66.77 113.20 L65.38 114.07 L64.60 115.71 L64.64 118.14 L65.42 120.91 L66.59 123.56 L67.63 125.64 L68.20 127.15 " stroke-linecap='round' stroke-linejoin='round' brush-type='1' stroke-wetness='0.5'></path><path  style = ' stroke:#000000;  fill:none;  stroke-width:1.0;' d="M64.60 122.82 L65.71 122.10 L67.16 121.82 L69.80 121.30 L72.10 121.26 " stroke-linecap='round' stroke-linejoin='round' brush-type='1' stroke-wetness='0.5'></path><path  style = ' stroke:#000000;  fill:none;  stroke-width:1.0;' d="M74.35 126.85 L73.90 126.07 L73.74 125.25 L73.53 123.34 L74.18 121.17 L75.43 119.18 L77.21 117.97 L78.90 117.75 L80.20 118.66 L80.94 120.48 L81.11 122.95 L80.63 125.42 L79.77 127.28 " stroke-linecap='round' stroke-linejoin='round' brush-type='1' stroke-wetness='0.5'></path><path  style = ' stroke:#000000;  fill:none;  stroke-width:1.0;' d="M50.04 128.54 L50.30 128.47 L51.26 128.45 L53.81 128.41 L57.84 128.41 L62.48 128.41 L67.07 128.41 L70.97 128.45 L74.18 128.54 L76.52 128.67 L78.29 128.76 L79.51 128.80 " stroke-linecap='round' stroke-linejoin='round' brush-type='1' stroke-wetness='0.5'></path><path  style = ' stroke:#000000;  fill:none;  stroke-width:1.0;' d="M86.18 119.70 a0.50 0.50 0 1 0 0.01 0 " stroke-linecap='round' stroke-linejoin='round' brush-type='1' stroke-wetness='0.5'></path><path  style = ' stroke:#000000;  fill:none;  stroke-width:1.0;' d="M83.45 124.90 a0.50 0.50 0 1 0 0.01 0 " stroke-linecap='round' stroke-linejoin='round' brush-type='1' stroke-wetness='0.5'></path><path  style = ' stroke:#000000;  fill:none;  stroke-width:1.0;' d="M95.54 126.85 L95.47 126.59 L95.49 125.64 L95.71 123.77 L96.14 121.17 L96.71 118.40 L97.23 115.50 L97.79 112.85 L98.31 110.95 L98.74 109.91 L99.05 109.52 L99.31 109.52 L99.70 110.25 L100.22 112.12 L100.82 115.24 L101.39 119.05 L101.82 122.73 L102.17 125.81 L102.38 127.89 L102.56 129.45 " stroke-linecap='round' stroke-linejoin='round' brush-type='1' stroke-wetness='0.5'></path><path  style = ' stroke:#000000;  fill:none;  stroke-width:1.0;' d="M95.41 120.48 L96.06 120.02 L97.14 119.87 L99.44 119.53 L102.60 119.44 " stroke-linecap='round' stroke-linejoin='round' brush-type='1' stroke-wetness='0.5'></path><path  style = ' stroke:#000000;  fill:none;  stroke-width:1.0;' d="M122.96 128.41 L122.83 127.89 L122.79 127.24 L122.70 125.64 L122.70 123.51 L122.70 120.87 L122.70 118.14 L122.66 115.58 L122.62 113.55 L122.62 112.07 L123.01 111.12 L123.92 110.60 L125.43 110.38 L127.21 110.56 L128.86 111.34 L129.90 112.42 " stroke-linecap='round' stroke-linejoin='round' brush-type='1' stroke-wetness='0.5'></path><path  style = ' stroke:#000000;  fill:none;  stroke-width:1.0;' d="M120.49 119.70 L121.47 119.31 L122.53 119.18 L124.74 118.88 L127.21 118.83 " stroke-linecap='round' stroke-linejoin='round' brush-type='1' stroke-wetness='0.5'></path><path  style = ' stroke:#000000;  fill:none;  stroke-width:1.0;' d="M132.19 121.52 L131.87 122.30 L131.76 122.95 L131.54 124.08 L131.93 124.73 L132.97 124.94 L134.66 124.38 L136.40 123.21 L137.61 121.61 L138.21 120.48 L138.30 120.87 L138.21 122.56 L138.08 124.77 " stroke-linecap='round' stroke-linejoin='round' brush-type='1' stroke-wetness='0.5'></path><path  style = ' stroke:#000000;  fill:none;  stroke-width:1.0;' d="M140.12 127.63 L140.12 126.65 L140.16 125.51 L140.55 123.51 L141.33 121.95 L142.42 121.22 L143.33 121.30 L143.93 122.30 L144.24 124.16 L144.41 126.07 " stroke-linecap='round' stroke-linejoin='round' brush-type='1' stroke-wetness='0.5'></path><path  style = ' stroke:#000000;  fill:none;  stroke-width:1.0;' d="M151.95 120.87 L150.91 121.32 L150.13 122.00 L148.74 123.47 L147.96 125.33 L147.66 127.20 L148.22 128.58 L149.61 129.27 L151.56 129.06 " stroke-linecap='round' stroke-linejoin='round' brush-type='1' stroke-wetness='0.5'></path><path  style = ' stroke:#000000;  fill:none;  stroke-width:1.0;' d="M156.89 118.27 L156.95 119.05 L156.98 120.00 L157.02 122.08 L157.02 124.60 L157.06 126.94 " stroke-linecap='round' stroke-linejoin='round' brush-type='1' stroke-wetness='0.5'></path><path  style = ' stroke:#000000;  fill:none;  stroke-width:1.0;' d="M155.98 121.13 L156.63 120.80 L157.32 120.70 L158.93 120.70 L160.83 121.09 " stroke-linecap='round' stroke-linejoin='round' brush-type='1' stroke-wetness='0.5'></path><path  style = ' stroke:#000000;  fill:none;  stroke-width:1.0;' d="M164.43 122.30 L164.23 122.69 L163.60 123.90 L162.87 125.90 L162.65 127.85 L163.73 128.71 L165.60 128.50 L167.59 127.41 L168.93 125.64 L169.54 123.56 L169.37 121.65 L168.67 120.35 L167.68 119.79 L166.72 120.18 L166.16 121.04 " stroke-linecap='round' stroke-linejoin='round' brush-type='1' stroke-wetness='0.5'></path><path  style = ' stroke:#000000;  fill:none;  stroke-width:1.0;' d="M173.40 128.02 L173.33 126.91 L173.31 125.81 L173.27 123.56 L173.48 121.43 L174.00 119.66 L174.91 118.53 L176.17 117.97 L177.73 117.79 L179.55 117.79 " stroke-linecap='round' stroke-linejoin='round' brush-type='1' stroke-wetness='0.5'></path><path  style = ' stroke:#000000;  fill:none;  stroke-width:1.0;' d="M199.00 117.36 L199.46 117.68 L200.30 117.79 L202.34 118.01 L204.98 118.01 " stroke-linecap='round' stroke-linejoin='round' brush-type='1' stroke-wetness='0.5'></path><path  style = ' stroke:#000000;  fill:none;  stroke-width:1.0;' d="M195.23 129.97 L195.88 129.58 L196.10 128.45 L196.53 126.29 L196.53 123.17 L196.53 119.83 L196.53 116.32 L196.53 113.16 L196.49 110.60 L196.36 108.74 L196.14 107.57 L195.93 107.00 L196.27 106.83 L197.31 106.83 L199.22 106.87 L201.47 107.00 L203.94 107.18 L206.41 107.35 L208.80 107.44 L211.09 107.57 " stroke-linecap='round' stroke-linejoin='round' brush-type='1' stroke-wetness='0.5'></path><path  style = ' stroke:#000000;  fill:none;  stroke-width:1.0;' d="M235.40 118.79 L235.40 119.44 L235.40 120.78 L235.40 123.04 L235.40 125.55 L235.40 127.37 L235.44 128.63 " stroke-linecap='round' stroke-linejoin='round' brush-type='1' stroke-wetness='0.5'></path><path  style = ' stroke:#000000;  fill:none;  stroke-width:1.0;' d="M241.77 120.48 L241.44 120.67 L240.99 121.00 L240.21 121.61 L239.64 122.30 L239.43 123.04 L239.77 123.90 L240.47 124.90 L241.38 125.85 L242.03 126.72 L242.33 127.50 L242.07 128.28 L241.25 128.93 L239.99 129.36 L238.86 129.53 L238.21 129.45 " stroke-linecap='round' stroke-linejoin='round' brush-type='1' stroke-wetness='0.5'></path><path  style = ' stroke:#000000;  fill:none;  stroke-width:1.0;' d="M258.02 129.45 L257.95 128.41 L257.93 127.24 L257.89 124.86 L257.89 122.30 L257.89 119.87 L257.93 117.92 L258.23 116.71 L259.01 116.19 L260.44 116.10 L262.26 116.62 " stroke-linecap='round' stroke-linejoin='round' brush-type='1' stroke-wetness='0.5'></path><path  style = ' stroke:#000000;  fill:none;  stroke-width:1.0;' d="M264.51 125.29 L265.10 125.09 L266.03 124.81 L267.85 123.99 L269.80 122.78 L271.14 121.43 L271.79 120.26 L271.36 119.57 L269.97 119.44 L267.89 120.31 L265.77 122.04 L264.38 124.25 L263.69 126.29 L263.99 127.93 L265.21 129.10 L266.81 129.88 " stroke-linecap='round' stroke-linejoin='round' brush-type='1' stroke-wetness='0.5'></path><path  style = ' stroke:#000000;  fill:none;  stroke-width:1.0;' d="M275.17 135.30 L274.65 135.30 L274.48 134.56 L274.13 132.74 L274.13 129.58 L274.13 125.94 L274.44 122.56 L275.09 120.00 L276.08 118.57 L277.08 117.97 L277.86 118.40 L278.34 119.53 L278.42 121.22 L277.90 122.82 L276.91 124.12 L275.69 124.94 L274.74 125.33 L274.22 125.25 " stroke-linecap='round' stroke-linejoin='round' brush-type='1' stroke-wetness='0.5'></path><path  style = ' stroke:#000000;  fill:none;  stroke-width:1.0;' d="M281.93 128.02 L281.61 127.43 L281.46 126.76 L281.02 125.20 L280.76 123.30 L280.55 121.35 L280.63 119.79 L281.20 118.83 L282.37 118.31 L284.19 118.10 L286.22 118.10 " stroke-linecap='round' stroke-linejoin='round' brush-type='1' stroke-wetness='0.5'></path><path  style = ' stroke:#000000;  fill:none;  stroke-width:1.0;' d="M287.65 124.25 L287.98 124.38 L288.86 124.29 L290.42 123.86 L292.20 122.95 L293.33 121.82 L293.85 120.78 L293.41 120.00 L292.24 119.57 L290.34 119.87 L288.43 121.04 L286.92 122.86 L286.18 124.77 L286.31 126.24 L287.43 127.15 L289.08 127.54 " stroke-linecap='round' stroke-linejoin='round' brush-type='1' stroke-wetness='0.5'></path><path  style = ' stroke:#000000;  fill:none;  stroke-width:1.0;' d="M296.49 123.34 L296.75 121.39 L296.71 120.83 L296.79 120.48 L297.01 122.00 L297.49 123.95 L297.92 125.46 L297.62 126.89 L296.53 128.19 L294.80 129.23 L292.94 129.79 L291.51 129.97 " stroke-linecap='round' stroke-linejoin='round' brush-type='1' stroke-wetness='0.5'></path><path  style = ' stroke:#000000;  fill:none;  stroke-width:1.0;' d="M303.77 125.16 L304.68 125.29 L305.20 125.25 L306.24 124.94 L306.67 124.25 L306.89 123.34 L306.46 122.56 L305.50 122.08 L304.03 122.21 L302.64 123.21 L301.69 124.86 L301.34 126.85 L301.91 128.58 L303.29 129.88 " stroke-linecap='round' stroke-linejoin='round' brush-type='1' stroke-wetness='0.5'></path><path  style = ' stroke:#000000;  fill:none;  stroke-width:1.0;' d="M306.76 131.27 L307.67 128.99 L307.97 127.63 L308.75 125.12 L309.36 123.86 L310.49 123.21 L311.96 122.95 L313.30 123.43 L314.25 124.55 L314.69 126.24 L314.82 127.85 L314.73 128.84 " stroke-linecap='round' stroke-linejoin='round' brush-type='1' stroke-wetness='0.5'></path><path  style = ' stroke:#000000;  fill:none;  stroke-width:1.0;' d="M317.68 118.27 L318.26 118.98 L318.46 119.87 L318.89 121.65 L318.93 123.60 L318.98 125.38 L318.98 126.72 " stroke-linecap='round' stroke-linejoin='round' brush-type='1' stroke-wetness='0.5'></path><path  style = ' stroke:#000000;  fill:none;  stroke-width:1.0;' d="M317.29 120.35 L317.81 120.54 L318.54 120.65 L320.19 121.00 L322.31 121.35 L324.78 121.74 L327.04 122.00 L328.60 122.13 L329.25 122.04 L329.12 121.82 L328.38 121.61 L327.04 121.69 L325.56 122.34 L324.44 123.34 L323.92 124.38 L324.09 124.94 L325.00 125.03 L326.34 124.51 L327.60 123.77 L328.34 123.12 L328.64 123.08 L328.73 123.73 L328.73 124.94 " stroke-linecap='round' stroke-linejoin='round' brush-type='1' stroke-wetness='0.5'></path><path  style = ' stroke:#000000;  fill:none;  stroke-width:1.0;' d="M328.86 127.37 L330.68 125.61 L331.98 124.25 L334.45 122.13 L336.09 121.17 L337.17 121.39 L337.65 122.52 L337.05 124.51 L335.70 126.63 L333.93 128.15 L332.50 128.80 L331.50 128.28 L330.94 126.55 L330.72 123.30 L330.94 119.09 L331.63 114.76 L332.54 111.55 L333.23 109.91 L333.54 110.21 L333.58 112.07 L333.32 115.19 L333.02 118.44 L332.76 120.83 " stroke-linecap='round' stroke-linejoin='round' brush-type='1' stroke-wetness='0.5'></path><path  style = ' stroke:#000000;  fill:none;  stroke-width:1.0;' d="M341.85 113.07 L341.79 113.92 L341.77 115.67 L341.46 118.79 L340.86 122.34 L340.03 125.20 L339.34 127.37 " stroke-linecap='round' stroke-linejoin='round' brush-type='1' stroke-wetness='0.5'></path><path  style = ' stroke:#000000;  fill:none;  stroke-width:1.0;' d="M344.19 124.51 L344.52 124.77 L345.10 124.86 L346.40 125.03 L348.18 124.94 L350.04 124.47 L351.65 123.60 L352.64 122.56 L353.08 121.74 L352.64 121.17 L351.43 120.87 L349.48 121.09 L347.49 122.04 L345.97 123.56 L345.19 125.20 L345.32 126.55 L346.36 127.59 L348.22 128.24 L350.65 128.67 L352.82 128.84 " stroke-linecap='round' stroke-linejoin='round' brush-type='1' stroke-wetness='0.5'></path><path  style = ' stroke:#000000;  fill:none;  stroke-width:1.0;' d="M361.22 130.36 L360.31 130.23 L359.53 130.18 L357.63 130.05 L355.24 129.92 L352.04 129.66 L348.05 129.23 L343.24 128.71 L337.43 128.19 L330.76 127.89 L323.31 127.76 L315.77 127.93 " stroke-linecap='round' stroke-linejoin='round' brush-type='1' stroke-wetness='0.5'></path><path  style = ' stroke:#000000;  fill:none;  stroke-width:1.0;' d="M322.62 128.15 L321.77 128.47 L321.14 128.63 L319.71 128.97 L318.20 129.19 L316.29 129.45 L313.95 129.71 L311.22 129.88 L307.93 129.97 L304.29 129.97 L300.22 129.97 L295.80 129.97 L291.03 129.97 L286.01 130.05 L280.89 130.23 L275.69 130.44 L270.67 130.66 L265.90 130.88 L261.61 131.05 L258.06 131.14 L255.59 131.14 " stroke-linecap='round' stroke-linejoin='round' brush-type='1' stroke-wetness='0.5'></path><path  style = ' stroke:#000000;  fill:none;  stroke-width:1.0;' d="M297.79 121.26 L296.95 120.74 L296.66 120.26 L296.10 119.40 L296.19 118.62 L296.53 117.92 L297.18 117.27 L298.09 116.84 L299.00 116.58 L299.87 116.49 L300.74 116.45 L301.47 116.49 " stroke-linecap='round' stroke-linejoin='round' brush-type='1' stroke-wetness='0.5'></path><path  style = ' stroke:#000000;  fill:none;  stroke-width:1.0;' d="M378.38 118.14 a0.50 0.50 0 1 0 0.01 0 " stroke-linecap='round' stroke-linejoin='round' brush-type='1' stroke-wetness='0.5'></path><path  style = ' stroke:#000000;  fill:none;  stroke-width:1.0;' d="M378.38 118.14 L379.61 121.32 L379.98 123.12 L380.55 126.63 L380.20 128.50 L379.85 129.88 " stroke-linecap='round' stroke-linejoin='round' brush-type='1' stroke-wetness='0.5'></path><path  style = ' stroke:#000000;  fill:none;  stroke-width:1.0;' d="M389.43 114.76 L389.10 113.27 L388.86 112.64 L388.13 111.47 L387.17 111.29 L385.96 111.29 L384.88 111.64 L384.10 112.51 L383.71 113.89 L383.62 115.63 L383.93 117.45 L384.58 119.31 L385.44 121.17 L386.09 122.95 L386.40 124.51 L386.44 125.64 L386.35 126.37 L386.05 126.72 " stroke-linecap='round' stroke-linejoin='round' brush-type='1' stroke-wetness='0.5'></path><path  style = ' stroke:#000000;  fill:none;  stroke-width:1.0;' d="M384.23 120.48 L384.68 120.48 L385.44 120.48 L387.04 120.48 L388.73 120.48 " stroke-linecap='round' stroke-linejoin='round' brush-type='1' stroke-wetness='0.5'></path><path  style = ' stroke:#000000;  fill:none;  stroke-width:1.0;' d="M404.25 109.43 L404.77 109.30 L405.55 109.26 L407.24 109.17 L409.40 109.17 L411.57 109.17 L413.30 109.17 L414.38 109.17 L414.90 109.47 L415.12 110.30 L415.16 111.90 L415.12 114.33 L415.03 117.27 L414.90 120.48 L414.82 123.43 L414.77 125.90 L414.90 127.67 L415.21 128.80 L415.60 129.49 L415.90 129.84 L415.64 129.97 L414.64 129.71 L412.82 129.23 L410.75 128.58 L408.80 128.02 L407.32 127.63 L406.50 127.33 " stroke-linecap='round' stroke-linejoin='round' brush-type='1' stroke-wetness='0.5'></path><path  style = ' stroke:#000000;  fill:none;  stroke-width:1.0;' d="M415.16 119.18 L413.86 118.79 L412.56 118.66 L410.27 118.40 L408.45 118.44 L407.41 118.62 " stroke-linecap='round' stroke-linejoin='round' brush-type='1' stroke-wetness='0.5'></path><path  style = ' stroke:#000000;  fill:none;  stroke-width:1.0;' d="M425.17 112.68 L425.56 113.40 L426.04 114.28 L427.17 116.41 L428.60 118.88 L430.33 121.56 L432.02 123.99 L433.49 126.20 L434.53 127.98 L435.31 129.32 L435.79 130.14 L436.09 130.53 " stroke-linecap='round' stroke-linejoin='round' brush-type='1' stroke-wetness='0.5'></path><path  style = ' stroke:#000000;  fill:none;  stroke-width:1.0;' d="M434.92 110.21 L434.14 110.86 L433.49 111.86 L432.06 114.15 L430.59 117.23 L429.03 120.52 L427.64 123.56 L426.65 125.85 L426.08 127.37 L425.87 128.11 " stroke-linecap='round' stroke-linejoin='round' brush-type='1' stroke-wetness='0.5'></path><path  style = ' stroke:#000000;  fill:none;  stroke-width:1.0;' d="M443.24 117.10 L442.33 117.16 L441.51 117.45 L439.86 118.36 L438.30 119.92 L437.00 121.87 L436.22 123.69 L435.96 125.12 L436.53 126.03 L437.78 126.46 L439.86 126.24 L441.98 125.46 L443.54 124.47 " stroke-linecap='round' stroke-linejoin='round' brush-type='1' stroke-wetness='0.5'></path><path  style = ' stroke:#000000;  fill:none;  stroke-width:1.0;' d="M438.56 121.00 L439.54 121.06 L440.77 121.09 L442.72 121.13 L444.63 120.91 " stroke-linecap='round' stroke-linejoin='round' brush-type='1' stroke-wetness='0.5'></path><path  style = ' stroke:#000000;  fill:none;  stroke-width:1.0;' d="M461.18 110.99 L460.27 110.93 L459.32 110.95 L457.41 111.25 L455.50 111.99 L453.86 113.07 L452.82 114.11 L452.43 115.06 L453.03 115.97 L454.46 117.14 L456.41 118.49 L458.06 120.09 L458.97 121.74 L459.19 123.43 L458.62 124.94 L457.54 126.07 L456.15 126.68 L455.11 126.63 " stroke-linecap='round' stroke-linejoin='round' brush-type='1' stroke-wetness='0.5'></path><path  style = ' stroke:#000000;  fill:none;  stroke-width:1.0;' d="M467.03 119.31 L466.12 119.70 L465.03 120.52 L463.34 122.17 L462.22 124.21 L461.87 126.07 L462.39 127.50 L463.69 128.32 L465.73 128.41 L467.85 127.59 L469.50 126.33 " stroke-linecap='round' stroke-linejoin='round' brush-type='1' stroke-wetness='0.5'></path><path  style = ' stroke:#000000;  fill:none;  stroke-width:1.0;' d="M471.32 110.34 L470.99 110.41 L470.88 111.38 L470.67 113.72 L470.67 117.36 L470.67 121.09 L470.58 124.16 L470.49 126.11 L470.41 127.07 L470.58 126.29 L471.32 124.55 L472.53 122.47 L474.00 121.39 L475.26 121.26 L476.21 122.08 L476.78 123.69 L476.99 125.81 L477.04 127.85 L477.04 129.27 " stroke-linecap='round' stroke-linejoin='round' brush-type='1' stroke-wetness='0.5'></path><path  style = ' stroke:#000000;  fill:none;  stroke-width:1.0;' d="M452.99 127.76 L454.22 127.95 L455.98 128.15 L459.71 128.45 L463.95 128.71 L468.24 128.88 L471.88 129.06 L474.96 129.19 L477.25 129.32 L479.03 129.40 L480.20 129.49 L480.89 129.53 L481.15 129.71 " stroke-linecap='round' stroke-linejoin='round' brush-type='1' stroke-wetness='0.5'></path><path  style = ' stroke:#000000;  fill:none;  stroke-width:1.0;' d="M509.27 116.19 L508.36 115.87 L507.37 115.97 L505.50 116.36 L503.94 117.32 L502.99 118.31 L502.64 119.14 L503.12 119.92 L504.29 120.74 L505.89 121.61 L507.24 122.43 L508.02 123.12 L508.28 123.82 L507.80 124.47 L506.76 125.07 L505.24 125.55 L503.90 125.81 L502.99 125.94 " stroke-linecap='round' stroke-linejoin='round' brush-type='1' stroke-wetness='0.5'></path><path  style = ' stroke:#000000;  fill:none;  stroke-width:1.0;' d="M511.74 119.83 L511.03 120.48 L510.66 121.74 L510.05 123.86 L509.92 125.98 L510.31 127.24 L511.14 127.85 L512.39 127.54 L513.47 126.50 L514.25 124.86 L514.64 123.12 L514.82 121.78 L514.86 121.91 L514.86 123.17 L514.86 124.99 " stroke-linecap='round' stroke-linejoin='round' brush-type='1' stroke-wetness='0.5'></path><path  style = ' stroke:#000000;  fill:none;  stroke-width:1.0;' d="M520.97 121.39 L520.32 121.91 L519.58 122.91 L518.54 124.64 L517.94 126.46 L518.11 127.72 L518.89 128.41 L520.15 128.28 L521.58 127.24 " stroke-linecap='round' stroke-linejoin='round' brush-type='1' stroke-wetness='0.5'></path><path  style = ' stroke:#000000;  fill:none;  stroke-width:1.0;' d="M524.35 116.71 L524.61 116.00 L524.70 116.62 L524.70 118.10 L524.39 121.00 L524.09 123.77 L523.96 125.90 L523.96 127.11 L524.31 126.85 L525.04 125.38 L526.08 123.43 L526.99 122.21 L527.64 121.95 L528.03 122.78 L528.21 124.34 L528.25 126.42 L528.25 128.15 " stroke-linecap='round' stroke-linejoin='round' brush-type='1' stroke-wetness='0.5'></path><path  style = ' stroke:#000000;  fill:none;  stroke-width:1.0;' d="M541.38 117.23 L541.51 117.62 L541.55 118.57 L541.72 120.83 L541.98 123.86 L542.33 126.76 L542.68 128.71 " stroke-linecap='round' stroke-linejoin='round' brush-type='1' stroke-wetness='0.5'></path><path  style = ' stroke:#000000;  fill:none;  stroke-width:1.0;' d="M538.78 118.66 L538.97 118.33 L539.51 118.23 L540.81 118.01 L542.55 118.14 L544.19 118.92 L545.23 120.44 L545.71 122.52 L545.80 124.29 L545.71 125.46 L546.40 125.12 L547.57 124.34 L549.18 123.47 L550.13 123.95 L550.61 125.20 L550.74 127.02 L550.74 128.58 " stroke-linecap='round' stroke-linejoin='round' brush-type='1' stroke-wetness='0.5'></path><path  style = ' stroke:#000000;  fill:none;  stroke-width:1.0;' d="M555.94 122.43 L555.22 122.62 L554.59 123.60 L553.73 125.29 L553.34 127.20 L553.73 128.24 L554.59 128.41 L555.85 127.54 L556.85 125.98 L557.37 124.12 L557.50 122.73 L557.41 122.00 L557.24 122.00 L556.93 123.04 L556.72 124.86 L556.59 127.11 " stroke-linecap='round' stroke-linejoin='round' brush-type='1' stroke-wetness='0.5'></path><path  style = ' stroke:#000000;  fill:none;  stroke-width:1.0;' d="M560.88 118.40 L561.33 117.88 L561.57 118.70 L562.04 120.26 L562.30 122.99 L562.52 125.33 " stroke-linecap='round' stroke-linejoin='round' brush-type='1' stroke-wetness='0.5'></path><path  style = ' stroke:#000000;  fill:none;  stroke-width:1.0;' d="M559.32 119.96 L559.77 119.89 L560.49 119.87 L562.09 119.92 L564.38 120.13 L566.98 120.57 L569.28 121.04 " stroke-linecap='round' stroke-linejoin='round' brush-type='1' stroke-wetness='0.5'></path><path  style = ' stroke:#000000;  fill:none;  stroke-width:1.0;' d="M589.99 128.67 L590.25 128.41 L590.34 127.46 L590.51 124.25 L590.51 119.92 L590.47 115.24 L590.42 111.90 L590.29 109.34 L590.12 107.74 L589.82 106.87 L590.08 106.53 L590.94 106.44 L592.50 106.44 L594.15 106.44 L595.84 106.48 L597.40 106.66 L598.87 107.13 L600.00 107.65 " stroke-linecap='round' stroke-linejoin='round' brush-type='1' stroke-wetness='0.5'></path><path  style = ' stroke:#000000;  fill:none;  stroke-width:1.0;' d="M591.94 115.93 L592.66 115.87 L593.89 115.84 L596.23 115.80 L599.00 115.80 " stroke-linecap='round' stroke-linejoin='round' brush-type='1' stroke-wetness='0.5'></path><path  style = ' stroke:#000000;  fill:none;  stroke-width:1.0;' d="M606.37 119.57 L607.28 119.50 L608.23 119.48 L610.27 119.44 L612.56 119.44 L614.86 119.44 L616.77 119.44 L617.89 119.44 L618.33 119.53 " stroke-linecap='round' stroke-linejoin='round' brush-type='1' stroke-wetness='0.5'></path><path  style = ' stroke:#000000;  fill:none;  stroke-width:1.0;' d="M605.20 125.03 L606.11 125.16 L607.89 125.16 L611.05 124.90 L614.60 124.25 L617.37 123.34 L619.41 122.47 L620.49 121.52 " stroke-linecap='round' stroke-linejoin='round' brush-type='1' stroke-wetness='0.5'></path><path  style = ' stroke:#000000;  fill:none;  stroke-width:1.0;' d="M605.72 115.80 L606.37 115.09 L607.24 114.59 L609.14 113.55 L611.40 112.81 L613.56 112.29 L615.16 112.12 L616.07 112.64 L616.42 113.89 L616.51 115.63 L616.68 117.06 L617.29 117.79 L618.50 118.01 L620.10 117.66 L621.71 117.01 L622.83 116.19 " stroke-linecap='round' stroke-linejoin='round' brush-type='1' stroke-wetness='0.5'></path><path  style = ' stroke:#000000;  fill:none;  stroke-width:1.0;' d="M629.38 109.17 L629.38 109.95 L629.38 111.77 L629.33 115.06 L629.20 118.96 L628.99 122.17 L628.77 124.73 L628.64 126.37 L628.60 127.20 L628.77 126.42 L629.33 124.77 L630.24 122.65 L631.37 121.52 L632.45 121.09 L633.45 121.74 L634.23 123.25 L634.71 125.46 L634.92 127.67 L634.97 129.40 " stroke-linecap='round' stroke-linejoin='round' brush-type='1' stroke-wetness='0.5'></path><path  style = ' stroke:#000000;  fill:none;  stroke-width:1.0;' d="M641.20 121.91 L641.53 122.30 L642.29 123.25 L643.85 124.99 L645.75 127.07 L647.53 128.84 L649.05 130.44 L650.26 131.74 L651.13 132.70 L651.86 133.30 " stroke-linecap='round' stroke-linejoin='round' brush-type='1' stroke-wetness='0.5'></path><path  style = ' stroke:#000000;  fill:none;  stroke-width:1.0;' d="M648.74 121.13 L647.96 121.13 L647.01 122.17 L645.32 124.03 L643.67 126.72 L642.33 129.06 L641.25 131.18 L640.42 133.04 L639.82 134.69 L639.30 135.99 " stroke-linecap='round' stroke-linejoin='round' brush-type='1' stroke-wetness='0.5'></path><path  style = ' stroke:#000000;  fill:none;  stroke-width:1.0;' d="M52.51 148.56 L53.23 148.56 L54.03 148.56 L55.76 148.56 L57.80 148.56 L59.97 148.56 L61.96 148.56 L63.73 148.56 L65.21 148.56 L66.55 148.60 " stroke-linecap='round' stroke-linejoin='round' brush-type='1' stroke-wetness='0.5'></path><path  style = ' stroke:#000000;  fill:none;  stroke-width:1.0;' d="M73.44 155.57 L73.44 155.05 L73.44 154.10 L73.61 152.28 L74.09 150.25 L74.87 148.69 L75.69 147.78 L76.43 147.47 L77.04 148.04 L77.51 149.42 L77.77 151.59 L77.90 153.88 L78.25 155.88 L78.77 157.09 " stroke-linecap='round' stroke-linejoin='round' brush-type='1' stroke-wetness='0.5'></path><path  style = ' stroke:#000000;  fill:none;  stroke-width:1.0;' d="M89.17 150.12 L88.13 150.05 L87.18 150.38 L85.36 151.29 L83.97 152.98 L83.19 155.01 L83.32 156.79 L84.58 157.87 L86.70 158.04 L89.04 157.39 L90.64 156.27 L91.38 154.79 L90.99 153.32 L89.82 152.07 L88.13 151.37 L86.70 151.29 L85.92 151.63 " stroke-linecap='round' stroke-linejoin='round' brush-type='1' stroke-wetness='0.5'></path><path  style = ' stroke:#000000;  fill:none;  stroke-width:1.0;' d="M96.19 146.74 L96.19 147.19 L96.14 148.34 L95.93 150.59 L95.62 153.37 L95.36 155.66 L95.28 157.13 " stroke-linecap='round' stroke-linejoin='round' brush-type='1' stroke-wetness='0.5'></path><path  style = ' stroke:#000000;  fill:none;  stroke-width:1.0;' d="M94.63 149.21 L95.41 149.21 L96.66 149.21 L98.92 149.25 " stroke-linecap='round' stroke-linejoin='round' brush-type='1' stroke-wetness='0.5'></path><path  style = ' stroke:#000000;  fill:none;  stroke-width:1.0;' d="M102.69 152.59 L103.40 152.52 L104.38 152.28 L106.02 151.72 L107.28 150.98 L107.80 150.25 L107.37 149.68 L106.20 149.34 L104.42 149.60 L102.73 150.55 L101.56 152.11 L101.04 153.88 L101.60 155.62 L103.34 157.18 L106.24 158.39 L109.66 159.17 L112.65 159.52 " stroke-linecap='round' stroke-linejoin='round' brush-type='1' stroke-wetness='0.5'></path><path  style = ' stroke:#000000;  fill:none;  stroke-width:1.0;' d="M122.96 141.67 L123.42 141.99 L124.18 142.88 L126.00 144.92 L128.38 147.69 L131.11 150.55 L133.62 153.02 L135.79 155.10 L137.35 156.70 L138.43 157.87 L139.12 158.52 L139.51 158.78 " stroke-linecap='round' stroke-linejoin='round' brush-type='1' stroke-wetness='0.5'></path><path  style = ' stroke:#000000;  fill:none;  stroke-width:1.0;' d="M136.35 140.89 L135.57 141.54 L134.66 142.53 L132.89 144.87 L130.76 147.95 L128.55 151.42 L126.47 154.62 L125.04 157.31 L124.35 159.43 L124.18 160.99 " stroke-linecap='round' stroke-linejoin='round' brush-type='1' stroke-wetness='0.5'></path><path  style = ' stroke:#000000;  fill:none;  stroke-width:1.0;' d="M161.96 148.69 L161.89 149.14 L161.87 149.73 L161.83 151.03 L161.83 152.67 L161.87 154.62 L161.96 156.31 " stroke-linecap='round' stroke-linejoin='round' brush-type='1' stroke-wetness='0.5'></path><path  style = ' stroke:#000000;  fill:none;  stroke-width:1.0;' d="M177.04 146.09 L176.13 144.85 L175.26 144.35 L173.53 143.31 L171.84 143.10 L170.36 142.97 L169.32 143.01 L168.85 143.62 L168.72 145.09 L168.98 147.52 L169.45 150.25 L170.02 152.76 L170.36 154.75 L170.49 156.27 L170.32 157.31 L169.93 157.87 " stroke-linecap='round' stroke-linejoin='round' brush-type='1' stroke-wetness='0.5'></path><path  style = ' stroke:#000000;  fill:none;  stroke-width:1.0;' d="M167.03 152.07 L167.68 151.61 L169.11 151.46 L171.62 151.16 L174.13 151.29 " stroke-linecap='round' stroke-linejoin='round' brush-type='1' stroke-wetness='0.5'></path><path  style = ' stroke:#000000;  fill:none;  stroke-width:1.0;' d="M184.19 151.55 L184.38 152.26 L184.45 153.19 L184.58 154.92 L184.62 156.66 L184.79 157.83 " stroke-linecap='round' stroke-linejoin='round' brush-type='1' stroke-wetness='0.5'></path><path  style = ' stroke:#000000;  fill:none;  stroke-width:1.0;' d="M191.98 147.65 L192.11 148.10 L192.16 148.90 L192.24 150.59 L192.24 152.89 L192.16 155.31 L191.94 157.57 L191.59 159.17 " stroke-linecap='round' stroke-linejoin='round' brush-type='1' stroke-wetness='0.5'></path><path  style = ' stroke:#000000;  fill:none;  stroke-width:1.0;' d="M190.81 150.51 L191.85 150.51 L193.28 150.64 L195.84 151.07 L198.44 151.94 " stroke-linecap='round' stroke-linejoin='round' brush-type='1' stroke-wetness='0.5'></path><path  style = ' stroke:#000000;  fill:none;  stroke-width:1.0;' d="M212.00 154.01 L212.91 153.63 L213.99 153.24 L215.94 152.41 L217.59 151.50 L218.54 150.59 L218.89 149.77 L218.28 149.25 L216.72 149.03 L214.43 149.47 L212.30 150.64 L210.92 152.54 L210.36 154.66 L211.01 156.57 L212.91 158.00 L215.81 158.78 L218.98 158.69 " stroke-linecap='round' stroke-linejoin='round' brush-type='1' stroke-wetness='0.5'></path><path  style = ' stroke:#000000;  fill:none;  stroke-width:1.0;' d="M222.40 148.82 L222.60 149.60 L223.05 150.46 L224.35 152.24 L226.34 154.10 L228.90 155.83 L231.28 157.09 L233.02 157.74 " stroke-linecap='round' stroke-linejoin='round' brush-type='1' stroke-wetness='0.5'></path><path  style = ' stroke:#000000;  fill:none;  stroke-width:1.0;' d="M229.29 148.56 L228.12 149.79 L227.17 151.11 L225.39 153.63 L224.13 155.96 L223.35 157.96 " stroke-linecap='round' stroke-linejoin='round' brush-type='1' stroke-wetness='0.5'></path><path  style = ' stroke:#000000;  fill:none;  stroke-width:1.0;' d="M233.06 151.42 L233.51 152.00 L233.67 153.15 L234.01 155.01 L234.23 157.00 L234.62 158.26 " stroke-linecap='round' stroke-linejoin='round' brush-type='1' stroke-wetness='0.5'></path><path  style = ' stroke:#000000;  fill:none;  stroke-width:1.0;' d="M243.33 149.47 L242.55 149.86 L241.81 150.46 L240.68 151.46 L240.08 152.50 L240.34 153.37 L241.33 154.36 L242.76 155.40 L243.98 156.53 L244.63 157.61 L244.63 158.74 L243.93 159.73 L242.63 160.47 L241.38 160.82 " stroke-linecap='round' stroke-linejoin='round' brush-type='1' stroke-wetness='0.5'></path><path  style = ' stroke:#000000;  fill:none;  stroke-width:1.0;' d="M246.71 149.21 L247.68 150.18 L248.22 151.50 L249.13 153.88 L249.39 156.31 L249.44 158.22 " stroke-linecap='round' stroke-linejoin='round' brush-type='1' stroke-wetness='0.5'></path><path  style = ' stroke:#000000;  fill:none;  stroke-width:1.0;' d="M245.41 150.77 L246.45 150.96 L248.05 151.16 L250.82 151.59 L253.77 152.02 L256.07 152.41 L257.76 152.59 L258.58 152.59 L258.32 152.46 L257.32 152.37 L255.89 152.33 L254.77 152.41 L254.16 152.80 L254.03 153.50 L254.46 154.45 L255.11 155.44 L255.81 156.44 L256.11 157.35 L255.85 158.22 L254.81 159.04 L252.99 159.78 L250.82 160.21 L249.09 160.12 " stroke-linecap='round' stroke-linejoin='round' brush-type='1' stroke-wetness='0.5'></path><path  style = ' stroke:#000000;  fill:none;  stroke-width:1.0;' d="M271.27 151.29 L271.47 152.26 L271.53 153.32 L271.58 155.53 L271.40 157.87 L271.23 159.99 " stroke-linecap='round' stroke-linejoin='round' brush-type='1' stroke-wetness='0.5'></path><path  style = ' stroke:#000000;  fill:none;  stroke-width:1.0;' d="M280.24 150.38 L279.07 150.70 L277.95 151.24 L276.08 152.15 L274.96 153.02 L274.61 153.67 L275.22 154.36 L276.52 155.18 L278.38 156.14 L279.85 157.05 L280.72 157.83 L280.94 158.48 L280.33 159.13 L278.94 159.73 L276.82 160.17 L274.91 160.34 L273.74 160.34 " stroke-linecap='round' stroke-linejoin='round' brush-type='1' stroke-wetness='0.5'></path><path  style = ' stroke:#000000;  fill:none;  stroke-width:1.0;' d="M293.63 151.68 L293.50 152.33 L293.46 153.32 L293.37 155.18 L293.59 157.05 L294.32 158.22 L295.75 158.56 L297.66 157.83 L299.48 156.27 L300.82 154.10 L301.56 152.07 L301.91 150.64 L302.08 150.07 L302.17 150.77 L302.21 152.50 L302.21 155.01 L302.25 157.48 " stroke-linecap='round' stroke-linejoin='round' brush-type='1' stroke-wetness='0.5'></path><path  style = ' stroke:#000000;  fill:none;  stroke-width:1.0;' d="M307.41 157.65 L307.41 156.35 L307.41 154.97 L307.63 152.54 L308.32 150.55 L309.53 149.42 L311.01 148.99 L312.30 149.86 L313.17 151.85 L313.56 154.79 L313.56 157.57 L313.39 159.65 " stroke-linecap='round' stroke-linejoin='round' brush-type='1' stroke-wetness='0.5'></path><path  style = ' stroke:#000000;  fill:none;  stroke-width:1.0;' d="M318.33 151.29 L318.91 152.13 L319.11 153.02 L319.50 154.88 L319.50 156.92 L319.50 158.82 L319.50 160.25 " stroke-linecap='round' stroke-linejoin='round' brush-type='1' stroke-wetness='0.5'></path><path  style = ' stroke:#000000;  fill:none;  stroke-width:1.0;' d="M326.65 152.33 L325.54 152.33 L324.61 153.15 L323.14 154.62 L322.40 156.48 L322.40 157.65 L323.14 158.09 L324.35 157.70 L325.65 156.74 L326.47 155.40 L326.82 154.14 L326.78 153.37 L326.34 154.06 L325.56 156.35 L324.78 159.65 L324.31 162.81 L324.57 165.32 L326.08 167.01 L328.90 167.84 L332.67 167.49 " stroke-linecap='round' stroke-linejoin='round' brush-type='1' stroke-wetness='0.5'></path><path  style = ' stroke:#000000;  fill:none;  stroke-width:1.0;' d="M331.07 152.33 L330.87 152.91 L330.81 153.80 L330.85 155.53 L331.46 157.35 L332.67 158.56 L334.32 158.95 L336.14 158.22 L337.78 156.61 L339.04 154.45 L339.82 152.37 L340.21 150.98 L340.38 150.38 L340.42 151.63 L340.42 153.88 L340.47 156.74 L340.73 158.52 " stroke-linecap='round' stroke-linejoin='round' brush-type='1' stroke-wetness='0.5'></path><path  style = ' stroke:#000000;  fill:none;  stroke-width:1.0;' d="M345.62 155.70 L346.14 155.90 L346.66 155.96 L347.92 156.01 L349.26 155.57 L350.56 154.71 L351.39 153.54 L351.73 152.33 L351.21 151.29 L350.00 150.59 L348.18 150.51 L346.36 151.50 L344.84 153.45 L343.93 156.05 L343.76 158.56 L344.63 160.56 L346.53 161.73 L349.31 161.81 L352.04 160.56 " stroke-linecap='round' stroke-linejoin='round' brush-type='1' stroke-wetness='0.5'></path><path  style = ' stroke:#000000;  fill:none;  stroke-width:1.0;' d="M357.19 142.19 L356.93 143.23 L356.76 144.66 L356.28 147.82 L355.85 151.72 L355.50 155.53 L355.37 158.52 L355.50 160.17 L355.81 160.77 " stroke-linecap='round' stroke-linejoin='round' brush-type='1' stroke-wetness='0.5'></path><path  style = ' stroke:#000000;  fill:none;  stroke-width:1.0;' d="M360.96 144.92 L361.16 145.83 L361.22 147.78 L361.35 151.50 L361.27 155.88 L361.18 159.47 L361.27 161.99 " stroke-linecap='round' stroke-linejoin='round' brush-type='1' stroke-wetness='0.5'></path><path  style = ' stroke:#000000;  fill:none;  stroke-width:1.0;' d="M371.75 149.34 L371.36 150.51 L371.01 152.15 L370.06 155.66 L368.98 159.69 L367.94 163.50 L367.37 166.23 L367.37 167.53 L367.81 166.75 L368.28 164.37 L368.41 160.95 L367.94 157.65 L367.16 154.97 L366.46 153.24 L366.25 152.41 " stroke-linecap='round' stroke-linejoin='round' brush-type='1' stroke-wetness='0.5'></path><path  style = ' stroke:#000000;  fill:none;  stroke-width:1.0;' d="M394.11 154.53 L393.26 153.69 L391.94 153.41 L389.69 153.28 L387.39 154.58 L385.92 156.70 L385.10 158.91 L385.27 160.38 L386.35 160.86 L388.26 159.91 L390.42 157.83 L392.24 154.71 L393.28 151.16 L393.67 147.56 L393.72 144.57 L393.72 142.88 L393.41 143.79 L392.98 147.08 L392.46 151.89 L392.29 156.09 L392.68 158.95 " stroke-linecap='round' stroke-linejoin='round' brush-type='1' stroke-wetness='0.5'></path><path  style = ' stroke:#000000;  fill:none;  stroke-width:1.0;' d="M397.75 156.61 L398.53 156.03 L399.31 155.70 L400.95 154.84 L402.64 153.84 L404.03 152.54 L404.81 151.24 L404.68 150.33 L403.64 149.86 L401.78 150.33 L399.61 151.76 L397.79 154.01 L396.79 156.35 L396.66 158.35 L397.62 159.82 L399.52 160.64 L402.25 160.90 L405.07 160.25 " stroke-linecap='round' stroke-linejoin='round' brush-type='1' stroke-wetness='0.5'></path><path  style = ' stroke:#000000;  fill:none;  stroke-width:1.0;' d="M412.04 145.44 L412.17 145.96 L412.22 147.13 L412.30 149.64 L412.30 152.89 L412.30 156.05 L412.30 158.65 L412.35 160.25 " stroke-linecap='round' stroke-linejoin='round' brush-type='1' stroke-wetness='0.5'></path><path  style = ' stroke:#000000;  fill:none;  stroke-width:1.0;' d="M409.58 152.07 L410.36 151.94 L411.53 151.89 L413.60 151.81 L415.68 152.02 " stroke-linecap='round' stroke-linejoin='round' brush-type='1' stroke-wetness='0.5'></path><path  style = ' stroke:#000000;  fill:none;  stroke-width:1.0;' d="M417.89 155.05 L418.41 155.44 L419.06 155.57 L420.45 155.75 L422.14 155.31 L423.79 154.49 L425.04 153.41 L425.65 152.33 L425.22 151.50 L423.83 151.03 L421.71 151.29 L419.63 152.41 L418.11 154.27 L417.33 156.40 L417.50 158.30 L418.67 159.86 L420.28 160.82 " stroke-linecap='round' stroke-linejoin='round' brush-type='1' stroke-wetness='0.5'></path><path  style = ' stroke:#000000;  fill:none;  stroke-width:1.0;' d="M428.42 156.87 L428.42 155.64 L428.42 154.36 L428.77 152.07 L429.55 150.25 L430.76 149.25 L432.15 148.90 L433.62 149.60 L434.84 150.77 " stroke-linecap='round' stroke-linejoin='round' brush-type='1' stroke-wetness='0.5'></path><path  style = ' stroke:#000000;  fill:none;  stroke-width:1.0;' d="M437.65 156.74 L437.46 156.48 L437.26 155.70 L436.96 154.06 L436.83 151.94 L437.22 150.20 L438.13 149.25 L439.43 149.21 L440.51 150.20 L441.16 151.98 L441.38 153.97 L441.42 155.36 L441.55 155.36 L441.98 154.01 L442.94 151.72 L444.37 149.68 L445.93 148.51 L447.23 148.51 L448.05 149.68 L448.44 151.81 L448.57 154.45 L448.57 156.92 " stroke-linecap='round' stroke-linejoin='round' brush-type='1' stroke-wetness='0.5'></path><path  style = ' stroke:#000000;  fill:none;  stroke-width:1.0;' d="M455.46 148.04 a0.50 0.50 0 1 0 0.01 0 " stroke-linecap='round' stroke-linejoin='round' brush-type='1' stroke-wetness='0.5'></path><path  style = ' stroke:#000000;  fill:none;  stroke-width:1.0;' d="M454.55 153.76 L454.81 154.66 L454.90 155.57 L455.16 157.09 L455.33 158.30 " stroke-linecap='round' stroke-linejoin='round' brush-type='1' stroke-wetness='0.5'></path><path  style = ' stroke:#000000;  fill:none;  stroke-width:1.0;' d="M458.84 155.31 L459.10 154.34 L459.19 153.58 L459.66 151.94 L460.44 150.59 L461.70 149.60 L463.08 149.42 L464.25 150.33 L464.99 152.20 L465.29 154.53 L465.25 156.70 L464.99 158.26 " stroke-linecap='round' stroke-linejoin='round' brush-type='1' stroke-wetness='0.5'></path><path  style = ' stroke:#000000;  fill:none;  stroke-width:1.0;' d="M468.20 154.92 L468.85 155.05 L469.67 155.10 L471.23 155.18 L472.92 155.05 L474.44 154.62 L475.56 153.84 L476.08 152.72 L475.65 151.59 L474.57 150.77 L473.01 150.46 L471.53 150.90 L470.19 152.02 L469.28 153.80 L468.80 155.70 L469.02 157.44 L470.15 158.69 L471.88 159.43 " stroke-linecap='round' stroke-linejoin='round' brush-type='1' stroke-wetness='0.5'></path><path  style = ' stroke:#000000;  fill:none;  stroke-width:1.0;' d="M482.76 153.76 L482.17 152.91 L481.15 152.67 L479.29 152.59 L477.34 153.76 L476.00 155.49 L475.30 157.22 L475.39 158.43 L476.43 159.04 L478.29 158.78 L480.55 157.65 L482.50 155.49 L483.75 152.46 L484.40 148.64 L484.62 144.74 L484.71 141.58 L484.71 139.80 L484.62 139.59 L484.14 142.27 L483.41 146.87 L482.67 152.37 L482.32 156.53 L482.24 159.39 " stroke-linecap='round' stroke-linejoin='round' brush-type='1' stroke-wetness='0.5'></path><path  style = ' stroke:#000000;  fill:none;  stroke-width:1.0;' d="M503.16 158.56 L502.97 157.65 L503.12 156.44 L503.86 154.14 L505.55 151.94 L507.84 150.51 L510.10 149.99 L511.79 150.77 L512.69 152.72 L512.78 155.40 L512.13 157.83 L510.88 159.30 L509.23 159.78 L507.45 158.87 L505.72 156.48 L504.25 152.59 L503.29 147.82 L502.86 143.40 L502.86 140.15 L503.08 138.59 L503.38 138.50 L503.73 140.37 L503.99 144.22 L504.16 149.51 L504.38 154.45 L504.81 158.26 L505.72 160.43 L506.76 161.47 " stroke-linecap='round' stroke-linejoin='round' brush-type='1' stroke-wetness='0.5'></path><path  style = ' stroke:#000000;  fill:none;  stroke-width:1.0;' d="M524.09 148.30 L523.83 149.01 L523.57 150.16 L522.83 152.72 L521.84 156.09 L520.67 159.78 L519.58 163.37 L518.89 166.28 L518.54 168.05 " stroke-linecap='round' stroke-linejoin='round' brush-type='1' stroke-wetness='0.5'></path><path  style = ' stroke:#000000;  fill:none;  stroke-width:1.0;' d="M521.36 156.87 L520.97 155.51 L520.41 154.62 L519.32 152.89 L518.15 151.72 L517.07 150.68 " stroke-linecap='round' stroke-linejoin='round' brush-type='1' stroke-wetness='0.5'></path><path  style = ' stroke:#000000;  fill:none;  stroke-width:1.0;' d="M545.54 158.82 L545.67 159.15 L545.67 158.56 L545.58 157.39 L545.28 155.05 L544.93 152.24 L544.71 149.12 L544.63 146.09 L544.58 143.57 L544.41 141.67 L544.11 140.41 L543.72 139.67 L543.41 139.28 L543.67 139.11 L544.76 139.07 L546.66 139.07 L549.05 139.07 L551.69 139.02 L554.38 138.85 L556.85 138.63 L558.88 138.42 L560.40 138.33 L561.35 138.29 L561.83 138.37 " stroke-linecap='round' stroke-linejoin='round' brush-type='1' stroke-wetness='0.5'></path><path  style = ' stroke:#000000;  fill:none;  stroke-width:1.0;' d="M546.32 146.22 L546.64 146.41 L547.44 146.48 L548.92 146.61 L550.61 146.61 L552.12 146.61 L553.47 146.61 L554.77 146.69 L555.72 146.87 " stroke-linecap='round' stroke-linejoin='round' brush-type='1' stroke-wetness='0.5'></path></g><g id='id-text-layer'  type='type-normal' preserveAspectRatio="none" ><text  style = 'fill: #000000; font-family:Helvetica-Light; font-size:18.0; ' preserveAspectRatio="none" x= '40' y='40' width = '688' height = '944' transform="rotate(   0,  384,  512)" ><tspan visibility='hidden'><![CDATA[]]></tspan></text></g><recordings ></recordings><defs   ></defs><htext lang='en_US' timestamp='20170928-093350'><![CDATA[Deft: A prescheaf F: SCIP  Sett Is called a modulioblemonschemedefn: A Functor F is representable if FXE# such mat Fh
-note X if it exist is uniquely determined by F]]></htext></svg> 