<?xml version="1.0" standalone="no"?> <!DOCTYPE svg PUBLIC "-//W3C//DTD SVG 1.1//EN" "http://www.w3.org/Graphics/SVG/1.1/DTD/svg11.dtd"> <svg   version="1.1"     xmlns="http://www.w3.org/2000/svg"  xmlns:xlink="http://www.w3.org/1999/xlink" name="" width="768.0" height="1004.0" background="N_PAPERBACKGROUND_WHITE_WITH_GRAY_LINE" line-height="30.0" margin-top="40.0" margin-right="40.0" margin-bottom="40.0" margin-left="40.0"><g id='id-background-layer'  type='type-normal' preserveAspectRatio="none" ><rect  style = ' stroke:#FFFFFF;  fill:#FFFFFF;  stroke-width:0.0;' x="0" y="0" width="768" height="1004" preserveAspectRatio="none" transform="rotate(   0,  384,  502)" ></rect><polyline  style = ' stroke:#D7D6D6;  fill:none;  stroke-width:1.0;' points = ' 0,70 768,70' preserveAspectRatio="none" transform="rotate(   0,  384,   70)" ></polyline><polyline  style = ' stroke:#D7D6D6;  fill:none;  stroke-width:1.0;' points = ' 0,100 768,100' preserveAspectRatio="none" transform="rotate(   0,  384,  100)" ></polyline><polyline  style = ' stroke:#D7D6D6;  fill:none;  stroke-width:1.0;' points = ' 0,130 768,130' preserveAspectRatio="none" transform="rotate(   0,  384,  130)" ></polyline><polyline  style = ' stroke:#D7D6D6;  fill:none;  stroke-width:1.0;' points = ' 0,160 768,160' preserveAspectRatio="none" transform="rotate(   0,  384,  160)" ></polyline><polyline  style = ' stroke:#D7D6D6;  fill:none;  stroke-width:1.0;' points = ' 0,190 768,190' preserveAspectRatio="none" transform="rotate(   0,  384,  190)" ></polyline><polyline  style = ' stroke:#D7D6D6;  fill:none;  stroke-width:1.0;' points = ' 0,220 768,220' preserveAspectRatio="none" transform="rotate(   0,  384,  220)" ></polyline><polyline  style = ' stroke:#D7D6D6;  fill:none;  stroke-width:1.0;' points = ' 0,250 768,250' preserveAspectRatio="none" transform="rotate(   0,  384,  250)" ></polyline><polyline  style = ' stroke:#D7D6D6;  fill:none;  stroke-width:1.0;' points = ' 0,280 768,280' preserveAspectRatio="none" transform="rotate(   0,  384,  280)" ></polyline><polyline  style = ' stroke:#D7D6D6;  fill:none;  stroke-width:1.0;' points = ' 0,310 768,310' preserveAspectRatio="none" transform="rotate(   0,  384,  310)" ></polyline><polyline  style = ' stroke:#D7D6D6;  fill:none;  stroke-width:1.0;' points = ' 0,340 768,340' preserveAspectRatio="none" transform="rotate(   0,  384,  340)" ></polyline><polyline  style = ' stroke:#D7D6D6;  fill:none;  stroke-width:1.0;' points = ' 0,370 768,370' preserveAspectRatio="none" transform="rotate(   0,  384,  370)" ></polyline><polyline  style = ' stroke:#D7D6D6;  fill:none;  stroke-width:1.0;' points = ' 0,400 768,400' preserveAspectRatio="none" transform="rotate(   0,  384,  400)" ></polyline><polyline  style = ' stroke:#D7D6D6;  fill:none;  stroke-width:1.0;' points = ' 0,430 768,430' preserveAspectRatio="none" transform="rotate(   0,  384,  430)" ></polyline><polyline  style = ' stroke:#D7D6D6;  fill:none;  stroke-width:1.0;' points = ' 0,460 768,460' preserveAspectRatio="none" transform="rotate(   0,  384,  460)" ></polyline><polyline  style = ' stroke:#D7D6D6;  fill:none;  stroke-width:1.0;' points = ' 0,490 768,490' preserveAspectRatio="none" transform="rotate(   0,  384,  490)" ></polyline><polyline  style = ' stroke:#D7D6D6;  fill:none;  stroke-width:1.0;' points = ' 0,520 768,520' preserveAspectRatio="none" transform="rotate(   0,  384,  520)" ></polyline><polyline  style = ' stroke:#D7D6D6;  fill:none;  stroke-width:1.0;' points = ' 0,550 768,550' preserveAspectRatio="none" transform="rotate(   0,  384,  550)" ></polyline><polyline  style = ' stroke:#D7D6D6;  fill:none;  stroke-width:1.0;' points = ' 0,580 768,580' preserveAspectRatio="none" transform="rotate(   0,  384,  580)" ></polyline><polyline  style = ' stroke:#D7D6D6;  fill:none;  stroke-width:1.0;' points = ' 0,610 768,610' preserveAspectRatio="none" transform="rotate(   0,  384,  610)" ></polyline><polyline  style = ' stroke:#D7D6D6;  fill:none;  stroke-width:1.0;' points = ' 0,640 768,640' preserveAspectRatio="none" transform="rotate(   0,  384,  640)" ></polyline><polyline  style = ' stroke:#D7D6D6;  fill:none;  stroke-width:1.0;' points = ' 0,670 768,670' preserveAspectRatio="none" transform="rotate(   0,  384,  670)" ></polyline><polyline  style = ' stroke:#D7D6D6;  fill:none;  stroke-width:1.0;' points = ' 0,700 768,700' preserveAspectRatio="none" transform="rotate(   0,  384,  700)" ></polyline><polyline  style = ' stroke:#D7D6D6;  fill:none;  stroke-width:1.0;' points = ' 0,730 768,730' preserveAspectRatio="none" transform="rotate(   0,  384,  730)" ></polyline><polyline  style = ' stroke:#D7D6D6;  fill:none;  stroke-width:1.0;' points = ' 0,760 768,760' preserveAspectRatio="none" transform="rotate(   0,  384,  760)" ></polyline><polyline  style = ' stroke:#D7D6D6;  fill:none;  stroke-width:1.0;' points = ' 0,790 768,790' preserveAspectRatio="none" transform="rotate(   0,  384,  790)" ></polyline><polyline  style = ' stroke:#D7D6D6;  fill:none;  stroke-width:1.0;' points = ' 0,820 768,820' preserveAspectRatio="none" transform="rotate(   0,  384,  820)" ></polyline><polyline  style = ' stroke:#D7D6D6;  fill:none;  stroke-width:1.0;' points = ' 0,850 768,850' preserveAspectRatio="none" transform="rotate(   0,  384,  850)" ></polyline><polyline  style = ' stroke:#D7D6D6;  fill:none;  stroke-width:1.0;' points = ' 0,880 768,880' preserveAspectRatio="none" transform="rotate(   0,  384,  880)" ></polyline><polyline  style = ' stroke:#D7D6D6;  fill:none;  stroke-width:1.0;' points = ' 0,910 768,910' preserveAspectRatio="none" transform="rotate(   0,  384,  910)" ></polyline><polyline  style = ' stroke:#D7D6D6;  fill:none;  stroke-width:1.0;' points = ' 0,940 768,940' preserveAspectRatio="none" transform="rotate(   0,  384,  940)" ></polyline><polyline  style = ' stroke:#C74F4F;  fill:none;  stroke-width:0.5;' points = ' 40,0 40,1004' preserveAspectRatio="none" transform="rotate(   0,   40,  502)" ></polyline><polyline  style = ' stroke:#B6B6B6; stroke-opacity:0.8; fill:none;  stroke-width:0.5;' points = ' 728,0 728,1004' preserveAspectRatio="none" transform="rotate(   0,  728,  502)" ></polyline></g><g id='id-main-layer'  type='type-normal' preserveAspectRatio="none" ><path  style = ' stroke:#000000;  fill:none;  stroke-width:1.0;' d="M46.22 102.55 L46.10 102.00 L46.06 101.05 L45.98 98.91 L45.98 96.16 L45.98 92.64 L45.98 88.76 L45.98 84.47 L45.98 80.39 L45.98 76.67 L46.18 73.51 L46.79 71.29 L47.80 69.91 L49.17 69.39 L50.75 70.04 L52.33 71.86 L53.50 74.81 L54.06 77.92 L53.98 80.95 L53.34 83.42 L52.12 85.48 L50.51 86.90 L48.69 87.87 L47.07 88.35 L45.98 88.56 L45.49 88.64 " stroke-linecap='round' stroke-linejoin='round' brush-type='1' stroke-wetness='0.5'></path><path  style = ' stroke:#000000;  fill:none;  stroke-width:1.0;' d="M55.56 97.94 L55.44 97.45 L55.40 96.68 L55.32 95.11 L55.32 93.04 L55.68 90.74 L56.37 88.60 L57.46 87.06 L58.67 86.37 L59.77 86.29 " stroke-linecap='round' stroke-linejoin='round' brush-type='1' stroke-wetness='0.5'></path><path  style = ' stroke:#000000;  fill:none;  stroke-width:1.0;' d="M65.02 90.66 L64.11 91.33 L63.04 92.32 L61.26 94.30 L60.01 96.48 L59.52 98.38 L59.81 99.72 L60.82 100.44 L62.52 100.32 L64.54 99.23 L66.28 97.41 L67.37 95.43 L67.57 93.89 L66.92 92.92 L65.83 92.48 L64.62 92.36 L63.69 92.56 L63.12 93.29 L62.88 94.70 " stroke-linecap='round' stroke-linejoin='round' brush-type='1' stroke-wetness='0.5'></path><path  style = ' stroke:#000000;  fill:none;  stroke-width:1.0;' d="M71.94 109.58 L71.94 109.28 L71.94 108.45 L71.86 106.43 L71.65 103.28 L71.41 99.35 L71.25 95.55 L71.25 92.40 L71.37 90.42 L71.74 89.28 L72.46 88.84 L73.55 89.20 L74.65 90.21 L75.46 91.71 L75.82 93.29 L75.70 94.82 L74.85 96.28 L73.43 97.37 L71.78 98.02 L70.20 98.26 L68.86 98.30 L67.89 98.30 " stroke-linecap='round' stroke-linejoin='round' brush-type='1' stroke-wetness='0.5'></path><path  style = ' stroke:#000000;  fill:none;  stroke-width:1.0;' d="M41.85 104.73 L42.16 104.61 L43.55 104.49 L46.34 104.21 L50.47 103.84 L54.63 103.52 L58.96 103.28 L63.41 103.15 L67.93 102.95 L72.30 102.59 L76.30 102.14 L79.82 101.70 L82.90 101.33 L85.32 100.97 L87.14 100.65 L88.23 100.44 L88.68 100.20 L88.76 99.72 " stroke-linecap='round' stroke-linejoin='round' brush-type='1' stroke-wetness='0.5'></path><path  style = ' stroke:#000000;  fill:none;  stroke-width:1.0;' d="M84.80 86.05 a0.50 0.50 0 1 0 0.01 0 " stroke-linecap='round' stroke-linejoin='round' brush-type='1' stroke-wetness='0.5'></path><path  style = ' stroke:#000000;  fill:none;  stroke-width:1.0;' d="M85.16 94.06 a0.50 0.50 0 1 0 0.01 0 " stroke-linecap='round' stroke-linejoin='round' brush-type='1' stroke-wetness='0.5'></path><path  style = ' stroke:#000000;  fill:none;  stroke-width:1.0;' d="M102.39 75.62 L102.20 75.86 L102.14 76.99 L102.02 79.30 L102.02 82.65 L102.02 86.25 L101.94 89.65 L101.86 92.52 L101.78 94.46 L101.78 95.67 L101.94 96.32 L102.51 96.64 L103.72 96.81 L105.50 96.85 L107.60 96.64 L109.83 96.20 L111.93 95.63 L113.79 95.23 " stroke-linecap='round' stroke-linejoin='round' brush-type='1' stroke-wetness='0.5'></path><path  style = ' stroke:#000000;  fill:none;  stroke-width:1.0;' d="M118.40 92.72 L118.95 92.60 L119.53 92.52 L120.79 92.11 L122.20 91.43 L123.53 90.38 L124.51 89.32 L124.95 88.39 L124.67 87.79 L123.74 87.42 L122.16 87.34 L120.18 87.91 L118.16 89.20 L116.42 91.18 L115.41 93.41 L114.96 95.63 L115.12 97.61 L116.13 99.15 L117.95 100.12 L120.46 100.53 L122.73 99.96 " stroke-linecap='round' stroke-linejoin='round' brush-type='1' stroke-wetness='0.5'></path><path  style = ' stroke:#000000;  fill:none;  stroke-width:1.0;' d="M130.29 86.78 L130.35 87.08 L130.37 88.03 L130.49 89.89 L130.69 92.44 L131.06 94.82 L131.38 96.85 L131.62 98.22 L131.54 98.87 " stroke-linecap='round' stroke-linejoin='round' brush-type='1' stroke-wetness='0.5'></path><path  style = ' stroke:#000000;  fill:none;  stroke-width:1.0;' d="M129.20 93.21 L129.56 93.02 L130.53 92.96 L132.43 92.84 L134.90 92.84 " stroke-linecap='round' stroke-linejoin='round' brush-type='1' stroke-wetness='0.5'></path><path  style = ' stroke:#000000;  fill:none;  stroke-width:1.0;' d="M155.76 99.27 L155.76 98.79 L155.76 97.82 L155.76 96.00 L155.68 93.53 L155.48 91.02 L155.16 88.44 L154.91 86.09 L154.79 84.07 L154.79 82.41 L155.08 81.20 L155.84 80.31 L157.14 79.70 L158.63 79.34 L160.29 79.17 L161.99 79.30 L163.53 79.62 L164.62 80.15 L165.23 80.67 L165.51 81.32 " stroke-linecap='round' stroke-linejoin='round' brush-type='1' stroke-wetness='0.5'></path><path  style = ' stroke:#000000;  fill:none;  stroke-width:1.0;' d="M153.22 89.81 L153.70 89.93 L154.95 89.97 L157.14 90.01 L159.89 89.93 L161.87 89.85 " stroke-linecap='round' stroke-linejoin='round' brush-type='1' stroke-wetness='0.5'></path><path  style = ' stroke:#000000;  fill:none;  stroke-width:1.0;' d="M169.84 88.60 a0.50 0.50 0 1 0 0.01 0 " stroke-linecap='round' stroke-linejoin='round' brush-type='1' stroke-wetness='0.5'></path><path  style = ' stroke:#000000;  fill:none;  stroke-width:1.0;' d="M169.84 93.45 a0.50 0.50 0 1 0 0.01 0 " stroke-linecap='round' stroke-linejoin='round' brush-type='1' stroke-wetness='0.5'></path><path  style = ' stroke:#000000;  fill:none;  stroke-width:1.0;' d="M176.75 95.88 L177.11 95.81 L177.72 94.90 L178.77 92.96 L179.78 90.17 L180.47 87.10 L181.00 84.19 L181.52 81.52 L182.05 79.74 L182.53 78.77 L182.98 78.49 L183.50 79.26 L184.03 81.40 L184.43 84.84 L184.64 88.23 L184.72 90.58 L184.80 91.63 L185.32 90.78 L186.37 88.44 L187.91 85.00 L189.41 82.09 L190.62 80.19 L191.47 79.34 L191.91 79.58 L192.16 81.32 L192.24 84.27 L192.28 87.83 L192.28 90.82 L192.32 93.09 L192.52 94.38 " stroke-linecap='round' stroke-linejoin='round' brush-type='1' stroke-wetness='0.5'></path><path  style = ' stroke:#000000;  fill:none;  stroke-width:1.0;' d="M202.83 85.81 L203.38 86.17 L204.04 86.29 L205.62 86.74 L207.85 87.06 L210.64 87.55 L213.71 87.91 L216.70 88.23 L219.45 88.44 L221.72 88.56 L223.33 88.60 L224.26 88.52 L224.67 88.31 L224.79 87.83 L224.51 87.10 L223.90 86.29 L222.97 85.64 L222.04 85.24 L221.31 85.04 L220.83 85.00 L220.62 85.40 L220.58 86.01 " stroke-linecap='round' stroke-linejoin='round' brush-type='1' stroke-wetness='0.5'></path><path  style = ' stroke:#000000;  fill:none;  stroke-width:1.0;' d="M223.58 88.60 L224.55 89.20 L224.75 89.81 L224.91 91.02 L223.94 92.24 L222.52 93.45 L221.19 94.58 " stroke-linecap='round' stroke-linejoin='round' brush-type='1' stroke-wetness='0.5'></path><path  style = ' stroke:#000000;  fill:none;  stroke-width:1.0;' d="M231.10 97.21 L231.34 96.91 L231.42 96.04 L231.74 94.26 L232.11 91.39 L232.80 88.11 L233.64 84.80 L234.57 82.25 L235.26 80.75 L235.71 80.11 L235.95 80.06 L236.15 81.24 L236.35 83.70 L236.56 87.14 L236.84 90.01 L237.16 91.71 L237.65 92.32 L238.46 91.63 L239.59 89.73 L240.84 86.70 L241.81 83.87 L242.42 82.01 L242.70 81.97 L242.86 83.42 L242.95 86.25 L242.99 89.24 L243.07 91.83 L243.19 93.41 L243.51 94.26 L244.04 94.50 " stroke-linecap='round' stroke-linejoin='round' brush-type='1' stroke-wetness='0.5'></path><path  style = ' stroke:#000000;  fill:none;  stroke-width:1.0;' d="M248.93 75.01 L249.35 75.50 L249.50 76.51 L249.78 78.16 L249.78 79.86 L249.78 80.95 L249.74 81.68 L249.58 82.13 L249.21 82.41 " stroke-linecap='round' stroke-linejoin='round' brush-type='1' stroke-wetness='0.5'></path><path  style = ' stroke:#000000;  fill:none;  stroke-width:1.0;' d="M267.85 94.66 L267.67 94.00 L267.89 93.04 L268.58 91.31 L269.96 89.73 L271.49 88.84 L272.83 88.80 L273.64 89.81 L273.92 91.67 L273.52 93.89 L272.63 95.63 L271.45 96.56 L270.32 96.64 L269.35 95.63 L268.42 93.25 L267.65 89.61 L267.13 85.36 L266.92 81.60 L266.88 79.01 L266.88 78.69 L266.88 80.91 L266.72 85.24 L266.56 90.01 L266.56 93.97 L267.33 96.36 " stroke-linecap='round' stroke-linejoin='round' brush-type='1' stroke-wetness='0.5'></path><path  style = ' stroke:#000000;  fill:none;  stroke-width:1.0;' d="M280.35 93.09 L281.02 93.15 L281.81 93.17 L283.22 92.96 L284.43 92.40 L285.16 91.43 L285.48 90.30 L285.40 89.32 L284.80 88.76 L283.67 88.84 L282.25 89.81 L280.92 91.51 L279.95 93.65 L279.42 95.59 L279.62 97.13 L280.47 98.14 L282.05 98.63 L283.99 98.79 L285.89 98.30 " stroke-linecap='round' stroke-linejoin='round' brush-type='1' stroke-wetness='0.5'></path><path  style = ' stroke:#000000;  fill:none;  stroke-width:1.0;' d="M304.61 98.91 L304.49 98.60 L304.49 97.57 L304.53 95.59 L304.81 92.72 L305.14 89.97 L305.46 87.14 L305.70 84.67 L305.99 82.49 L306.35 80.87 L306.75 79.82 L307.20 79.22 L307.81 78.97 L308.61 78.97 L309.71 79.62 L310.76 80.99 L311.53 83.10 L311.85 85.28 L311.53 87.30 L310.68 88.88 L309.42 90.05 L308.21 90.78 L307.36 91.23 L306.92 91.55 L306.80 91.95 L307.08 92.44 L307.85 93.00 L309.10 93.45 L310.68 93.89 L312.29 94.18 L313.87 94.42 " stroke-linecap='round' stroke-linejoin='round' brush-type='1' stroke-wetness='0.5'></path><path  style = ' stroke:#000000;  fill:none;  stroke-width:1.0;' d="M319.29 89.57 L319.78 89.63 L320.30 89.65 L321.39 89.69 L322.77 89.69 L323.98 89.69 " stroke-linecap='round' stroke-linejoin='round' brush-type='1' stroke-wetness='0.5'></path><path  style = ' stroke:#000000;  fill:none;  stroke-width:1.0;' d="M330.33 80.35 L330.15 81.26 L330.05 83.26 L329.88 86.62 L329.84 90.30 L329.93 92.96 L330.37 94.95 L330.98 96.00 " stroke-linecap='round' stroke-linejoin='round' brush-type='1' stroke-wetness='0.5'></path><path  style = ' stroke:#000000;  fill:none;  stroke-width:1.0;' d="M336.27 88.96 L336.21 89.87 L336.19 90.94 L336.15 93.09 L336.15 95.35 L336.27 97.25 " stroke-linecap='round' stroke-linejoin='round' brush-type='1' stroke-wetness='0.5'></path><path  style = ' stroke:#000000;  fill:none;  stroke-width:1.0;' d="M341.13 93.57 L341.31 92.84 L341.65 92.40 L342.34 91.71 L343.19 91.59 L343.92 92.11 L344.40 93.21 L344.60 94.70 L344.68 95.96 L344.73 96.68 " stroke-linecap='round' stroke-linejoin='round' brush-type='1' stroke-wetness='0.5'></path><path  style = ' stroke:#000000;  fill:none;  stroke-width:1.0;' d="M348.53 93.21 L348.89 93.27 L349.33 93.29 L350.31 93.33 L351.48 93.33 L352.61 93.21 L353.54 92.80 L354.07 92.03 L354.31 90.98 L354.15 90.01 L353.50 89.41 L352.25 89.53 L350.63 90.50 L349.05 92.16 L348.04 94.14 L347.60 96.00 L348.00 97.45 L349.21 98.30 " stroke-linecap='round' stroke-linejoin='round' brush-type='1' stroke-wetness='0.5'></path><path  style = ' stroke:#000000;  fill:none;  stroke-width:1.0;' d="M360.78 93.45 L359.69 93.39 L359.08 93.37 L357.62 93.65 L356.57 94.54 L355.68 96.04 L355.28 97.57 L355.52 98.63 L356.41 98.99 L357.79 98.46 L359.16 97.29 L360.05 95.67 L360.54 94.38 L360.66 94.18 L360.62 95.23 L360.46 97.13 L360.33 98.99 L360.70 100.24 " stroke-linecap='round' stroke-linejoin='round' brush-type='1' stroke-wetness='0.5'></path><path  style = ' stroke:#000000;  fill:none;  stroke-width:1.0;' d="M362.48 101.21 L363.57 99.76 L363.93 98.54 L364.66 96.24 L364.66 94.34 L364.86 92.72 L365.35 91.55 L366.20 90.94 L367.49 90.98 L369.15 91.71 " stroke-linecap='round' stroke-linejoin='round' brush-type='1' stroke-wetness='0.5'></path><path  style = ' stroke:#000000;  fill:none;  stroke-width:1.0;' d="M382.49 101.09 L382.31 100.42 L382.25 99.80 L382.13 98.42 L382.21 96.85 L382.70 95.07 L383.58 93.45 L384.76 92.40 L385.85 91.95 L386.74 92.36 L387.31 93.53 L387.43 95.47 L387.31 97.01 L387.26 97.37 L387.83 96.24 L389.00 94.46 L390.50 92.96 L391.87 92.20 L392.89 92.32 L393.53 93.37 L393.86 95.27 L394.02 97.53 L394.34 99.51 L394.75 100.73 " stroke-linecap='round' stroke-linejoin='round' brush-type='1' stroke-wetness='0.5'></path><path  style = ' stroke:#000000;  fill:none;  stroke-width:1.0;' d="M405.06 94.66 L404.27 94.24 L403.28 94.26 L401.54 94.70 L400.08 96.08 L399.31 97.78 L399.15 99.07 L399.80 99.76 L400.97 99.84 L402.39 99.35 L403.40 98.30 L403.97 96.81 L404.17 95.75 L404.21 95.92 L404.17 97.53 L404.09 100.16 L404.01 102.95 L403.97 105.18 " stroke-linecap='round' stroke-linejoin='round' brush-type='1' stroke-wetness='0.5'></path><path  style = ' stroke:#000000;  fill:none;  stroke-width:1.0;' d="M407.36 111.65 L407.36 111.16 L407.36 110.51 L407.40 108.98 L407.64 106.83 L408.09 104.00 L408.74 100.69 L409.46 97.29 L410.31 94.38 L411.37 92.20 L412.58 90.90 L413.95 90.30 L415.17 90.78 L416.06 92.11 L415.89 94.78 L414.68 97.21 L412.70 99.07 L410.72 99.60 L409.10 99.51 L408.17 98.54 " stroke-linecap='round' stroke-linejoin='round' brush-type='1' stroke-wetness='0.5'></path><path  style = ' stroke:#000000;  fill:none;  stroke-width:1.0;' d="M438.42 90.78 L437.51 90.72 L436.80 90.70 L435.47 90.78 L434.37 91.27 L433.44 92.28 L432.76 93.81 L432.43 95.75 L432.51 97.70 L433.08 99.15 L434.09 99.84 L435.43 99.51 L436.76 98.30 L437.85 96.32 L438.54 94.10 L438.82 92.07 L438.90 90.70 L438.86 91.10 L438.82 92.76 L438.78 95.35 L439.06 97.45 " stroke-linecap='round' stroke-linejoin='round' brush-type='1' stroke-wetness='0.5'></path><path  style = ' stroke:#000000;  fill:none;  stroke-width:1.0;' d="M442.66 97.94 L442.91 96.85 L443.11 95.92 L443.59 94.30 L444.24 93.17 L445.01 92.52 L445.78 92.20 L446.34 92.20 L446.79 92.64 L447.03 93.61 L447.15 95.03 L447.15 96.40 L447.39 97.29 " stroke-linecap='round' stroke-linejoin='round' brush-type='1' stroke-wetness='0.5'></path><path  style = ' stroke:#000000;  fill:none;  stroke-width:1.0;' d="M454.19 92.60 L453.40 92.54 L452.73 92.72 L451.60 93.29 L450.91 94.46 L450.63 95.92 L450.55 97.21 L450.67 97.98 L451.03 98.14 L451.64 97.37 L452.33 95.84 L452.93 93.41 L453.34 90.58 L453.54 87.30 L453.58 84.35 L453.58 82.21 L453.58 81.20 L453.58 81.40 L453.62 83.06 L453.74 86.41 L453.95 90.58 L454.23 94.50 L454.67 97.33 L455.20 99.19 L455.68 100.28 " stroke-linecap='round' stroke-linejoin='round' brush-type='1' stroke-wetness='0.5'></path><path  style = ' stroke:#000000;  fill:none;  stroke-width:1.0;' d="M478.33 83.02 L478.57 83.62 L478.69 85.08 L479.10 87.91 L479.46 91.27 L479.91 94.18 L480.27 96.40 L480.55 97.94 L480.71 98.71 L480.59 98.42 " stroke-linecap='round' stroke-linejoin='round' brush-type='1' stroke-wetness='0.5'></path><path  style = ' stroke:#000000;  fill:none;  stroke-width:1.0;' d="M476.99 89.81 L477.60 89.45 L478.33 89.32 L479.99 89.08 L482.01 89.24 L484.15 89.65 " stroke-linecap='round' stroke-linejoin='round' brush-type='1' stroke-wetness='0.5'></path><path  style = ' stroke:#000000;  fill:none;  stroke-width:1.0;' d="M490.95 89.81 L490.28 90.17 L489.73 90.62 L488.72 91.63 L488.11 92.80 L487.83 93.97 L487.91 94.82 L488.32 95.27 L489.04 94.99 L489.89 94.10 L490.54 92.68 L490.90 91.31 L491.03 90.30 L491.07 90.82 L491.07 92.44 L491.07 94.66 L491.15 96.04 L491.47 96.68 L492.04 96.36 " stroke-linecap='round' stroke-linejoin='round' brush-type='1' stroke-wetness='0.5'></path><path  style = ' stroke:#000000;  fill:none;  stroke-width:1.0;' d="M497.86 81.80 L497.68 82.23 L497.62 83.34 L497.50 85.93 L497.50 89.24 L497.50 92.52 L497.50 95.11 L497.58 97.05 L497.94 98.10 " stroke-linecap='round' stroke-linejoin='round' brush-type='1' stroke-wetness='0.5'></path><path  style = ' stroke:#000000;  fill:none;  stroke-width:1.0;' d="M502.71 89.45 L501.74 89.87 L500.69 90.62 L499.07 91.87 L497.94 93.13 L497.54 94.02 L497.42 94.70 L497.86 95.23 L498.91 95.55 L500.53 95.71 L502.35 95.75 " stroke-linecap='round' stroke-linejoin='round' brush-type='1' stroke-wetness='0.5'></path><path  style = ' stroke:#000000;  fill:none;  stroke-width:1.0;' d="M507.93 95.39 L508.66 95.09 L509.34 94.78 L510.60 94.06 L511.53 93.33 L512.05 92.48 L512.13 91.75 L511.69 91.18 L510.84 91.10 L509.71 91.79 L508.66 93.17 L507.85 94.90 L507.44 96.48 L507.65 97.65 L508.58 98.42 L510.48 98.83 L512.94 98.83 " stroke-linecap='round' stroke-linejoin='round' brush-type='1' stroke-wetness='0.5'></path><path  style = ' stroke:#000000;  fill:none;  stroke-width:1.0;' d="M530.74 99.64 L530.55 99.15 L530.49 98.38 L530.37 96.68 L530.37 94.34 L530.37 91.71 L530.45 89.16 L530.74 87.14 L531.30 85.77 L532.07 85.00 L533.08 84.67 L534.25 84.71 L535.59 85.24 L536.88 86.17 " stroke-linecap='round' stroke-linejoin='round' brush-type='1' stroke-wetness='0.5'></path><path  style = ' stroke:#000000;  fill:none;  stroke-width:1.0;' d="M536.19 86.05 L536.50 86.35 L536.92 86.70 L537.73 87.55 L538.38 88.56 L538.70 89.73 L538.42 90.82 L537.57 91.83 L536.07 92.76 L534.25 93.53 L532.43 94.10 L530.94 94.34 L529.93 94.42 L530.13 94.14 " stroke-linecap='round' stroke-linejoin='round' brush-type='1' stroke-wetness='0.5'></path><path  style = ' stroke:#000000;  fill:none;  stroke-width:1.0;' d="M545.29 96.24 L544.69 95.45 L544.48 94.78 L544.08 93.33 L544.08 91.67 L544.08 89.85 L544.20 88.19 L544.52 87.18 L545.25 86.74 L546.38 86.82 L548.00 87.42 " stroke-linecap='round' stroke-linejoin='round' brush-type='1' stroke-wetness='0.5'></path><path  style = ' stroke:#000000;  fill:none;  stroke-width:1.0;' d="M552.69 89.81 L551.72 89.99 L550.83 90.38 L549.38 91.23 L548.53 92.40 L548.24 93.69 L548.69 94.70 L549.86 95.23 L551.64 94.82 L553.26 93.77 L554.23 92.28 L554.59 90.82 L554.27 89.61 L553.62 88.80 L552.81 88.44 L552.41 88.52 " stroke-linecap='round' stroke-linejoin='round' brush-type='1' stroke-wetness='0.5'></path><path  style = ' stroke:#000000;  fill:none;  stroke-width:1.0;' d="M560.94 88.23 L560.82 88.72 L560.58 89.57 L560.17 91.06 L559.85 92.60 L559.73 93.65 L559.73 94.42 L559.81 95.23 L559.89 96.40 L559.97 97.94 L559.93 99.51 L559.57 100.81 L558.80 101.78 L557.67 102.43 L556.41 102.83 L555.16 102.99 L554.07 102.75 L553.42 102.22 " stroke-linecap='round' stroke-linejoin='round' brush-type='1' stroke-wetness='0.5'></path><path  style = ' stroke:#000000;  fill:none;  stroke-width:1.0;' d="M567.49 95.51 L568.16 95.39 L568.79 95.31 L570.04 94.95 L571.21 94.30 L572.14 93.37 L572.67 92.40 L572.63 91.59 L571.86 91.10 L570.53 90.98 L568.79 91.59 L567.17 92.72 L565.96 94.34 L565.35 95.88 L565.59 97.29 L566.80 98.30 L568.83 98.87 " stroke-linecap='round' stroke-linejoin='round' brush-type='1' stroke-wetness='0.5'></path><path  style = ' stroke:#000000;  fill:none;  stroke-width:1.0;' d="M581.20 93.09 L580.35 93.02 L579.30 93.49 L577.56 94.54 L576.19 96.32 L575.58 98.18 L575.62 99.76 L576.51 100.69 L578.17 100.81 L580.35 99.76 " stroke-linecap='round' stroke-linejoin='round' brush-type='1' stroke-wetness='0.5'></path><path  style = ' stroke:#000000;  fill:none;  stroke-width:1.0;' d="M587.14 88.60 L587.21 88.84 L587.23 89.93 L587.27 92.07 L587.27 94.90 L587.23 97.25 L587.10 98.79 L586.86 99.47 " stroke-linecap='round' stroke-linejoin='round' brush-type='1' stroke-wetness='0.5'></path><path  style = ' stroke:#000000;  fill:none;  stroke-width:1.0;' d="M583.51 93.33 L583.99 93.21 L584.88 93.17 L586.62 93.09 " stroke-linecap='round' stroke-linejoin='round' brush-type='1' stroke-wetness='0.5'></path><path  style = ' stroke:#000000;  fill:none;  stroke-width:1.0;' d="M594.06 92.72 L594.00 93.69 L593.98 94.58 L593.94 96.28 L593.94 97.78 L593.94 98.83 " stroke-linecap='round' stroke-linejoin='round' brush-type='1' stroke-wetness='0.5'></path><path  style = ' stroke:#000000;  fill:none;  stroke-width:1.0;' d="M597.46 92.72 L597.82 93.51 L597.94 94.22 L598.22 95.47 L598.47 96.36 L598.95 96.85 L599.72 96.85 L600.61 96.08 L601.58 94.66 L602.55 93.00 L603.44 91.91 L604.01 91.47 " stroke-linecap='round' stroke-linejoin='round' brush-type='1' stroke-wetness='0.5'></path><path  style = ' stroke:#000000;  fill:none;  stroke-width:1.0;' d="M607.52 95.75 L608.07 96.00 L608.70 96.08 L609.91 96.08 L611.08 95.55 L611.97 94.70 L612.50 93.73 L612.70 93.00 L612.34 92.60 L611.25 92.64 L609.59 93.29 L608.01 94.50 L607.04 96.00 L606.64 97.33 L607.00 98.30 L609.14 98.91 L612.13 99.11 L615.05 98.87 " stroke-linecap='round' stroke-linejoin='round' brush-type='1' stroke-wetness='0.5'></path><path  style = ' stroke:#000000;  fill:none;  stroke-width:1.0;' d="M76.06 129.84 L75.88 129.11 L75.82 127.98 L75.70 125.92 L75.70 123.45 L75.74 121.07 L75.90 118.84 L76.26 117.15 L76.95 116.05 L78.00 115.37 L79.50 115.04 L81.16 114.92 L82.73 115.33 L83.74 116.09 " stroke-linecap='round' stroke-linejoin='round' brush-type='1' stroke-wetness='0.5'></path><path  style = ' stroke:#000000;  fill:none;  stroke-width:1.0;' d="M83.10 123.05 L83.46 123.29 L84.11 123.37 L85.52 123.33 L87.18 122.77 L88.60 121.80 L89.41 120.74 L89.73 119.90 L89.49 119.41 L88.68 119.25 L87.26 119.77 L85.73 120.87 L84.51 122.52 L83.91 124.26 L83.74 125.92 L84.39 127.29 L85.81 128.10 L88.03 128.47 L90.34 128.10 " stroke-linecap='round' stroke-linejoin='round' brush-type='1' stroke-wetness='0.5'></path><path  style = ' stroke:#000000;  fill:none;  stroke-width:1.0;' d="M98.75 121.11 L98.32 120.80 L97.78 120.83 L96.73 120.99 L95.80 121.59 L95.27 122.36 L95.19 123.25 L95.63 124.26 L96.36 125.27 L97.21 126.20 L97.70 126.93 L97.90 127.50 L97.61 128.02 L96.93 128.55 L95.75 129.03 L94.54 129.28 L93.65 129.36 " stroke-linecap='round' stroke-linejoin='round' brush-type='1' stroke-wetness='0.5'></path><path  style = ' stroke:#000000;  fill:none;  stroke-width:1.0;' d="M104.69 123.90 L103.54 124.44 L102.83 125.39 L101.74 126.85 L101.58 128.10 L102.43 128.63 L104.08 128.51 L106.07 127.70 L107.52 126.45 L108.17 125.19 L108.09 124.14 L107.24 123.25 L105.78 122.52 L104.13 122.04 L102.91 121.80 " stroke-linecap='round' stroke-linejoin='round' brush-type='1' stroke-wetness='0.5'></path><path  style = ' stroke:#000000;  fill:none;  stroke-width:1.0;' d="M110.51 115.77 L110.39 116.32 L110.35 117.59 L110.27 120.10 L110.27 123.29 L110.27 126.12 L110.47 128.35 L110.76 129.60 " stroke-linecap='round' stroke-linejoin='round' brush-type='1' stroke-wetness='0.5'></path><path  style = ' stroke:#000000;  fill:none;  stroke-width:1.0;' d="M116.09 122.69 L115.97 122.93 L115.93 123.82 L115.85 125.35 L116.13 127.05 L116.82 127.98 L118.00 128.18 L119.17 127.42 L120.06 125.96 L120.50 124.22 L120.66 123.05 L120.70 123.45 L120.70 125.03 L120.70 127.25 L120.83 128.55 " stroke-linecap='round' stroke-linejoin='round' brush-type='1' stroke-wetness='0.5'></path><path  style = ' stroke:#000000;  fill:none;  stroke-width:1.0;' d="M127.62 118.56 L127.74 119.11 L127.78 120.42 L127.86 122.73 L127.78 125.43 L127.62 127.25 " stroke-linecap='round' stroke-linejoin='round' brush-type='1' stroke-wetness='0.5'></path><path  style = ' stroke:#000000;  fill:none;  stroke-width:1.0;' d="M124.95 121.47 L125.86 121.53 L126.97 121.55 L129.07 121.59 L131.02 121.63 " stroke-linecap='round' stroke-linejoin='round' brush-type='1' stroke-wetness='0.5'></path><path  style = ' stroke:#000000;  fill:none;  stroke-width:1.0;' d="M133.44 122.44 L133.81 124.14 L133.93 125.23 L134.13 127.29 L134.09 128.55 L134.09 129.44 " stroke-linecap='round' stroke-linejoin='round' brush-type='1' stroke-wetness='0.5'></path><path  style = ' stroke:#000000;  fill:none;  stroke-width:1.0;' d="M139.99 122.69 L139.57 123.29 L139.39 124.06 L139.06 125.60 L139.06 127.17 L139.63 128.35 L140.92 128.95 L142.70 128.95 L144.16 128.43 L144.89 127.50 L144.72 126.28 L143.75 125.15 L142.38 124.30 L141.17 123.90 L140.56 123.86 L140.40 124.46 L140.72 125.27 " stroke-linecap='round' stroke-linejoin='round' brush-type='1' stroke-wetness='0.5'></path><path  style = ' stroke:#000000;  fill:none;  stroke-width:1.0;' d="M148.12 129.60 L147.64 128.63 L147.47 127.21 L147.15 124.91 L147.23 122.97 L147.76 122.08 L148.81 121.80 L150.10 122.20 L151.11 123.29 L151.68 125.07 L151.96 126.89 L152.20 128.18 " stroke-linecap='round' stroke-linejoin='round' brush-type='1' stroke-wetness='0.5'></path><path  style = ' stroke:#000000;  fill:none;  stroke-width:1.0;' d="M159.52 121.11 L158.74 121.59 L158.11 122.08 L157.18 123.05 L156.81 124.10 L157.22 125.27 L158.03 126.45 L159.08 127.50 L159.81 128.23 L160.17 128.75 L160.09 129.20 L159.48 129.72 L158.35 130.25 L156.77 130.61 L155.32 130.77 L154.39 130.69 " stroke-linecap='round' stroke-linejoin='round' brush-type='1' stroke-wetness='0.5'></path><path  style = ' stroke:#000000;  fill:none;  stroke-width:1.0;' d="M177.11 122.69 L176.45 122.50 L175.46 122.48 L173.80 122.77 L172.30 123.86 L171.49 125.48 L171.13 127.13 L171.41 128.18 L172.38 128.67 L173.96 128.47 L175.46 127.78 L176.43 126.16 L176.43 124.59 L175.78 123.33 L174.81 123.01 " stroke-linecap='round' stroke-linejoin='round' brush-type='1' stroke-wetness='0.5'></path><path  style = ' stroke:#000000;  fill:none;  stroke-width:1.0;' d="M189.61 113.71 L188.76 113.10 L187.95 112.90 L186.41 112.50 L185.00 112.70 L183.71 113.47 L182.57 114.92 L181.84 117.23 L181.52 119.81 L181.60 122.48 L181.89 124.71 L182.33 126.49 L182.69 127.74 L182.78 128.35 " stroke-linecap='round' stroke-linejoin='round' brush-type='1' stroke-wetness='0.5'></path><path  style = ' stroke:#000000;  fill:none;  stroke-width:1.0;' d="M180.51 122.32 L181.00 122.26 L181.60 122.24 L182.82 122.20 L184.27 122.20 L185.77 122.40 " stroke-linecap='round' stroke-linejoin='round' brush-type='1' stroke-wetness='0.5'></path><path  style = ' stroke:#000000;  fill:none;  stroke-width:1.0;' d="M204.65 127.17 L207.56 119.29 L208.70 116.98 L211.00 113.10 L211.44 115.89 L211.81 119.09 L212.05 121.55 L212.25 122.64 L212.58 122.28 L212.94 120.66 L213.51 117.79 L214.11 114.80 L214.84 112.29 L215.45 110.88 L215.93 110.39 L216.30 111.20 L216.66 113.34 L216.94 116.86 L217.11 120.42 L217.15 123.45 L217.31 125.43 L217.51 126.57 " stroke-linecap='round' stroke-linejoin='round' brush-type='1' stroke-wetness='0.5'></path><path  style = ' stroke:#000000;  fill:none;  stroke-width:1.0;' d="M233.64 120.99 L232.61 120.93 L231.46 121.11 L229.48 121.67 L227.94 122.81 L227.17 124.38 L226.97 126.00 L227.58 127.17 L228.91 127.54 L230.81 126.77 L232.55 125.27 L233.69 123.53 L234.17 122.28 L234.21 121.67 L233.93 122.00 L233.60 123.29 L233.32 125.27 " stroke-linecap='round' stroke-linejoin='round' brush-type='1' stroke-wetness='0.5'></path><path  style = ' stroke:#000000;  fill:none;  stroke-width:1.0;' d="M238.25 126.20 L238.32 125.54 L238.34 124.99 L238.58 123.94 L239.14 123.21 L240.03 122.81 L241.00 122.89 L241.69 123.70 L242.14 125.19 L242.34 127.09 L242.58 128.79 " stroke-linecap='round' stroke-linejoin='round' brush-type='1' stroke-wetness='0.5'></path><path  style = ' stroke:#000000;  fill:none;  stroke-width:1.0;' d="M250.63 123.90 L249.72 124.02 L248.69 124.59 L247.07 125.76 L245.98 127.29 L245.61 128.47 L245.98 129.07 L246.95 128.79 L248.40 127.54 L249.70 125.52 L250.59 122.85 L251.03 119.94 L251.19 116.98 L251.23 114.92 L251.23 114.52 L251.23 116.05 L251.23 119.01 L251.56 122.52 L252.12 125.19 " stroke-linecap='round' stroke-linejoin='round' brush-type='1' stroke-wetness='0.5'></path><path  style = ' stroke:#000000;  fill:none;  stroke-width:1.0;' d="M270.77 128.14 L271.07 127.54 L271.21 126.65 L271.74 124.50 L272.38 121.47 L273.27 118.16 L274.04 115.29 L274.57 113.55 L274.85 112.78 L275.13 113.71 L275.38 116.05 L275.62 119.29 L275.74 121.88 L275.90 123.29 L276.18 123.82 L276.71 123.62 L277.64 122.48 L278.69 120.34 L279.70 117.71 L280.35 115.69 L280.75 114.68 L281.00 115.69 L281.12 118.03 L281.20 121.31 L281.20 123.98 L281.24 125.80 L281.48 126.73 L281.85 126.85 L282.41 126.16 " stroke-linecap='round' stroke-linejoin='round' brush-type='1' stroke-wetness='0.5'></path><path  style = ' stroke:#000000;  fill:none;  stroke-width:1.0;' d="M288.11 108.01 L288.60 108.49 L289.00 109.42 L289.69 111.08 L290.09 112.86 L290.26 114.11 L290.30 114.92 L290.14 115.41 L289.77 115.73 L289.25 115.97 L288.80 116.17 " stroke-linecap='round' stroke-linejoin='round' brush-type='1' stroke-wetness='0.5'></path><path  style = ' stroke:#000000;  fill:none;  stroke-width:1.0;' d="M294.66 127.90 a0.50 0.50 0 1 0 0.01 0 " stroke-linecap='round' stroke-linejoin='round' brush-type='1' stroke-wetness='0.5'></path><path  style = ' stroke:#000000;  fill:none;  stroke-width:1.0;' d="M304.98 111.65 L305.04 111.40 L305.54 111.32 L306.75 111.16 L308.86 111.16 L311.32 111.08 L313.79 110.96 L315.77 110.84 L317.07 110.84 L317.67 110.96 " stroke-linecap='round' stroke-linejoin='round' brush-type='1' stroke-wetness='0.5'></path><path  style = ' stroke:#000000;  fill:none;  stroke-width:1.0;' d="M312.86 111.28 L312.13 112.19 L311.89 113.38 L311.41 116.01 L311.41 119.13 L311.49 122.36 L311.73 125.15 L312.09 127.13 L312.42 127.70 " stroke-linecap='round' stroke-linejoin='round' brush-type='1' stroke-wetness='0.5'></path><path  style = ' stroke:#000000;  fill:none;  stroke-width:1.0;' d="M317.23 113.83 L317.65 114.62 L317.83 116.54 L318.20 119.85 L318.32 123.57 L318.48 126.04 L318.64 127.42 L318.85 127.25 L319.17 126.08 L319.61 124.63 L320.18 123.70 L320.71 123.37 L321.19 123.57 L321.55 124.34 L321.84 125.64 L322.08 126.89 L322.32 127.74 " stroke-linecap='round' stroke-linejoin='round' brush-type='1' stroke-wetness='0.5'></path><path  style = ' stroke:#000000;  fill:none;  stroke-width:1.0;' d="M323.29 128.02 L325.36 126.26 L326.45 125.64 L328.43 124.26 L329.12 123.82 L329.40 123.21 L329.16 122.52 L328.47 122.04 L327.46 121.76 L326.45 122.08 L325.60 123.01 L325.07 124.59 L324.91 126.36 L325.36 128.06 " stroke-linecap='round' stroke-linejoin='round' brush-type='1' stroke-wetness='0.5'></path><path  style = ' stroke:#000000;  fill:none;  stroke-width:1.0;' d="M330.21 128.39 L330.21 127.78 L330.33 126.81 L330.53 125.27 L330.94 123.94 L331.50 123.25 L332.35 122.93 L333.32 122.93 L334.21 123.62 L334.86 124.95 L335.26 126.65 L335.63 128.02 " stroke-linecap='round' stroke-linejoin='round' brush-type='1' stroke-wetness='0.5'></path><path  style = ' stroke:#000000;  fill:none;  stroke-width:1.0;' d="M352.17 110.68 L352.35 111.22 L352.41 111.77 L352.73 113.47 L353.14 116.01 L353.62 119.33 L353.99 122.69 L354.19 125.56 L354.39 127.78 L354.55 129.11 L354.71 129.76 L355.04 129.36 L355.56 127.70 L356.29 124.55 L356.98 120.87 L357.71 117.31 L358.43 114.52 L359.08 112.54 L359.48 111.52 L359.24 111.73 " stroke-linecap='round' stroke-linejoin='round' brush-type='1' stroke-wetness='0.5'></path><path  style = ' stroke:#000000;  fill:none;  stroke-width:1.0;' d="M349.86 120.02 L350.53 120.08 L351.96 120.10 L354.51 120.02 L357.54 119.85 L360.17 119.69 L362.48 119.77 " stroke-linecap='round' stroke-linejoin='round' brush-type='1' stroke-wetness='0.5'></path><path  style = ' stroke:#000000;  fill:none;  stroke-width:1.0;' d="M367.81 127.66 L367.63 127.23 L367.61 126.41 L367.81 124.87 L368.50 123.17 L369.47 121.84 L370.48 120.91 L371.37 120.42 L372.22 120.50 L372.87 121.31 L373.31 122.85 L373.48 124.79 L373.52 126.65 L373.52 128.02 L373.56 128.75 " stroke-linecap='round' stroke-linejoin='round' brush-type='1' stroke-wetness='0.5'></path><path  style = ' stroke:#000000;  fill:none;  stroke-width:1.0;' d="M385.04 118.56 L384.43 118.56 L383.87 118.84 L382.74 119.57 L381.68 120.83 L380.88 122.28 L380.43 123.74 L380.31 124.99 L380.63 125.96 L381.24 126.65 L382.17 127.05 L382.98 127.25 L383.75 127.29 L384.35 127.25 L384.80 126.97 " stroke-linecap='round' stroke-linejoin='round' brush-type='1' stroke-wetness='0.5'></path><path  style = ' stroke:#000000;  fill:none;  stroke-width:1.0;' d="M379.34 124.26 L379.88 123.96 L380.59 123.86 L382.25 123.66 L383.87 123.66 " stroke-linecap='round' stroke-linejoin='round' brush-type='1' stroke-wetness='0.5'></path><path  style = ' stroke:#000000;  fill:none;  stroke-width:1.0;' d="M393.05 127.78 L393.41 127.48 L393.57 126.45 L393.90 124.50 L394.02 121.59 L394.18 118.48 L394.34 115.33 L394.54 112.94 L394.75 111.52 L394.95 110.96 L395.39 111.36 L396.08 113.02 L397.09 116.01 L398.18 119.41 L399.36 122.64 L400.49 125.15 L401.50 127.05 L402.35 128.14 L403.08 128.67 L403.76 128.83 L404.53 128.27 L405.38 126.53 L406.19 123.53 L406.80 120.18 L407.16 117.31 L407.32 115.37 L407.36 114.27 L407.36 113.71 L407.36 113.38 L407.04 113.59 " stroke-linecap='round' stroke-linejoin='round' brush-type='1' stroke-wetness='0.5'></path><path  style = ' stroke:#000000;  fill:none;  stroke-width:1.0;' d="M398.26 118.44 L398.32 118.80 L398.34 119.90 L398.38 121.88 L398.34 124.34 L398.26 126.24 L398.18 127.74 L398.14 128.75 L398.14 129.68 L398.14 130.33 " stroke-linecap='round' stroke-linejoin='round' brush-type='1' stroke-wetness='0.5'></path><path  style = ' stroke:#000000;  fill:none;  stroke-width:1.0;' d="M411.24 127.54 L411.55 127.90 L411.69 128.02 L411.89 128.39 " stroke-linecap='round' stroke-linejoin='round' brush-type='1' stroke-wetness='0.5'></path><path  style = ' stroke:#000000;  fill:none;  stroke-width:1.0;' d="M423.13 109.83 L423.56 109.77 L424.43 109.75 L426.12 109.70 L428.11 109.70 L429.76 109.66 L430.98 109.62 L431.70 109.58 L432.15 109.58 L432.47 109.83 L432.72 110.47 L432.84 111.81 L432.84 113.63 L432.76 116.05 L432.64 118.64 L432.47 121.31 L432.39 123.74 L432.35 125.84 L432.35 127.46 L432.35 128.43 L432.35 128.95 L431.95 128.99 L431.02 128.59 L429.56 127.82 L428.03 127.01 L426.69 126.41 L425.68 125.96 L425.11 125.68 L425.07 125.31 " stroke-linecap='round' stroke-linejoin='round' brush-type='1' stroke-wetness='0.5'></path><path  style = ' stroke:#000000;  fill:none;  stroke-width:1.0;' d="M432.84 119.53 L431.62 119.23 L430.53 119.13 L428.67 118.92 L427.38 118.96 L426.77 119.17 " stroke-linecap='round' stroke-linejoin='round' brush-type='1' stroke-wetness='0.5'></path><path  style = ' stroke:#000000;  fill:none;  stroke-width:1.0;' d="M451.64 113.47 L450.91 112.92 L450.27 112.74 L448.85 112.41 L447.48 112.66 L446.18 113.10 L445.25 113.83 L444.64 114.72 L444.36 115.89 L444.24 117.47 L444.24 119.41 L444.32 121.55 L444.44 123.70 L444.56 125.68 L444.60 127.38 L444.60 128.63 L444.60 129.44 L444.56 129.92 L444.20 130.13 " stroke-linecap='round' stroke-linejoin='round' brush-type='1' stroke-wetness='0.5'></path><path  style = ' stroke:#000000;  fill:none;  stroke-width:1.0;' d="M440.72 124.26 L441.57 123.59 L442.50 123.37 L444.40 122.93 L446.42 123.09 L448.08 123.45 " stroke-linecap='round' stroke-linejoin='round' brush-type='1' stroke-wetness='0.5'></path><path  style = ' stroke:#000000;  fill:none;  stroke-width:1.0;' d="M451.88 130.33 a0.50 0.50 0 1 0 0.01 0 " stroke-linecap='round' stroke-linejoin='round' brush-type='1' stroke-wetness='0.5'></path><path  style = ' stroke:#000000;  fill:none;  stroke-width:1.0;' d="M451.40 133.00 L451.09 132.51 L450.99 132.15 L450.79 131.46 L450.79 130.93 L450.79 130.49 L450.87 130.04 L451.07 129.60 L451.44 129.11 L451.96 128.67 L452.61 128.27 L453.30 128.02 L453.99 127.90 L454.67 127.94 L455.32 128.31 L455.81 128.99 L456.13 130.00 L456.37 131.06 L456.53 132.11 L456.61 133.00 L456.61 133.64 L456.61 134.05 L456.61 134.33 L456.90 134.49 " stroke-linecap='round' stroke-linejoin='round' brush-type='1' stroke-wetness='0.5'></path><path  style = ' stroke:#000000;  fill:none;  stroke-width:1.0;' d="M464.62 116.74 L464.80 116.07 L465.39 115.85 L466.28 115.57 L467.13 115.97 L467.49 116.66 L467.61 117.39 L467.45 117.99 L466.97 118.32 L466.24 118.44 L465.51 118.28 L464.90 117.83 L464.54 117.15 L464.42 116.50 L464.86 116.13 L465.67 116.17 L466.60 116.90 " stroke-linecap='round' stroke-linejoin='round' brush-type='1' stroke-wetness='0.5'></path><path  style = ' stroke:#000000;  fill:none;  stroke-width:1.0;' d="M466.44 127.54 L466.99 126.87 L466.76 126.85 L466.60 126.61 L466.00 126.73 L465.79 126.36 L465.83 125.80 L466.28 125.23 L466.93 124.95 L467.49 124.87 L467.25 124.87 " stroke-linecap='round' stroke-linejoin='round' brush-type='1' stroke-wetness='0.5'></path><path  style = ' stroke:#000000;  fill:none;  stroke-width:1.0;' d="M547.60 120.74 L546.81 120.44 L546.18 120.34 L544.77 120.34 L543.31 120.87 L541.81 121.80 L540.60 123.05 L539.91 124.50 L539.63 125.92 L540.00 126.93 L541.01 127.42 L542.62 127.21 L544.44 126.24 L546.06 124.71 L547.27 123.09 L547.96 121.96 L548.24 121.51 L548.28 122.04 L548.12 123.45 L547.92 125.31 L547.76 126.81 " stroke-linecap='round' stroke-linejoin='round' brush-type='1' stroke-wetness='0.5'></path><path  style = ' stroke:#000000;  fill:none;  stroke-width:1.0;' d="M570.04 111.04 L569.98 111.65 L569.96 112.98 L569.92 115.73 L569.92 119.05 L569.92 122.04 L569.92 124.42 L569.92 126.24 L569.92 127.50 " stroke-linecap='round' stroke-linejoin='round' brush-type='1' stroke-wetness='0.5'></path><path  style = ' stroke:#000000;  fill:none;  stroke-width:1.0;' d="M575.74 118.80 L575.50 120.87 L575.42 122.16 L575.34 124.38 L575.42 125.48 L575.50 126.12 L575.50 126.65 L575.50 126.97 L575.70 127.13 " stroke-linecap='round' stroke-linejoin='round' brush-type='1' stroke-wetness='0.5'></path><path  style = ' stroke:#000000;  fill:none;  stroke-width:1.0;' d="M587.75 112.50 L587.14 112.01 L586.54 111.85 L585.32 111.52 L584.07 111.77 L582.82 112.33 L581.73 113.43 L581.04 114.88 L580.76 116.90 L580.92 119.25 L581.44 121.67 L582.13 123.70 L582.66 125.11 L582.86 126.00 L582.70 126.45 L582.29 126.65 " stroke-linecap='round' stroke-linejoin='round' brush-type='1' stroke-wetness='0.5'></path><path  style = ' stroke:#000000;  fill:none;  stroke-width:1.0;' d="M579.26 120.26 L579.74 120.44 L580.72 120.54 L582.49 120.74 L584.56 120.91 " stroke-linecap='round' stroke-linejoin='round' brush-type='1' stroke-wetness='0.5'></path><path  style = ' stroke:#000000;  fill:none;  stroke-width:1.0;' d="M590.18 118.56 L590.24 119.29 L590.26 120.38 L590.30 122.40 L590.26 124.55 L590.10 126.20 L589.77 127.21 " stroke-linecap='round' stroke-linejoin='round' brush-type='1' stroke-wetness='0.5'></path><path  style = ' stroke:#000000;  fill:none;  stroke-width:1.0;' d="M587.27 124.75 L587.87 123.11 L588.56 122.56 L590.06 121.47 L591.88 121.51 L593.94 121.84 " stroke-linecap='round' stroke-linejoin='round' brush-type='1' stroke-wetness='0.5'></path><path  style = ' stroke:#000000;  fill:none;  stroke-width:1.0;' d="M608.01 121.23 L607.52 121.59 L606.59 122.08 L605.18 123.25 L603.97 124.79 L603.52 126.36 L603.44 127.58 L604.05 128.18 L605.26 128.35 L606.92 127.94 L608.17 127.17 L608.86 126.04 L608.90 124.87 L608.25 123.70 L607.08 122.69 L605.83 122.00 L605.30 121.67 L605.87 121.71 " stroke-linecap='round' stroke-linejoin='round' brush-type='1' stroke-wetness='0.5'></path><path  style = ' stroke:#000000;  fill:none;  stroke-width:1.0;' d="M622.81 111.28 L621.72 110.74 L620.79 110.55 L619.09 110.19 L617.84 110.35 L616.99 110.92 L616.50 112.29 L616.30 114.56 L616.26 117.47 L616.26 120.30 L616.30 122.60 L616.38 124.18 L616.46 125.23 L616.50 125.80 " stroke-linecap='round' stroke-linejoin='round' brush-type='1' stroke-wetness='0.5'></path><path  style = ' stroke:#000000;  fill:none;  stroke-width:1.0;' d="M614.68 120.26 L615.41 120.44 L616.30 120.50 L618.16 120.62 L619.98 120.62 " stroke-linecap='round' stroke-linejoin='round' brush-type='1' stroke-wetness='0.5'></path><path  style = ' stroke:#000000;  fill:none;  stroke-width:1.0;' d="M647.68 111.40 L646.53 110.43 L645.37 110.07 L643.43 109.38 L641.94 109.42 L640.93 109.91 L640.20 111.16 L639.75 113.18 L639.59 115.69 L639.55 118.24 L639.55 120.42 L639.59 122.16 L639.63 123.37 L639.67 124.34 L639.47 124.91 " stroke-linecap='round' stroke-linejoin='round' brush-type='1' stroke-wetness='0.5'></path><path  style = ' stroke:#000000;  fill:none;  stroke-width:1.0;' d="M638.10 118.08 L638.64 118.20 L639.31 118.24 L640.72 118.36 L642.66 118.48 L644.89 118.68 " stroke-linecap='round' stroke-linejoin='round' brush-type='1' stroke-wetness='0.5'></path><path  style = ' stroke:#000000;  fill:none;  stroke-width:1.0;' d="M662.96 117.23 L662.66 117.41 L662.20 117.71 L661.23 118.48 L660.21 119.45 L659.53 120.42 L659.24 121.23 L659.61 122.04 L660.50 122.93 L661.67 123.90 L662.56 124.83 L662.96 125.72 L663.00 126.53 L662.44 127.29 L661.27 127.94 L659.77 128.43 L658.60 128.67 " stroke-linecap='round' stroke-linejoin='round' brush-type='1' stroke-wetness='0.5'></path><path  style = ' stroke:#000000;  fill:none;  stroke-width:1.0;' d="M667.57 125.48 L667.88 126.02 L667.98 126.45 L668.18 127.38 L668.10 128.06 L667.98 128.51 " stroke-linecap='round' stroke-linejoin='round' brush-type='1' stroke-wetness='0.5'></path><path  style = ' stroke:#000000;  fill:none;  stroke-width:1.0;' d="M673.64 115.16 L674.12 115.71 L674.29 116.42 L674.61 117.99 L674.61 119.94 L674.61 122.04 L674.61 123.98 L674.61 125.52 L674.45 126.41 L674.16 126.77 " stroke-linecap='round' stroke-linejoin='round' brush-type='1' stroke-wetness='0.5'></path><path  style = ' stroke:#000000;  fill:none;  stroke-width:1.0;' d="M670.61 120.50 L671.03 120.44 L672.10 120.42 L673.92 120.38 L676.11 120.38 L677.60 120.38 " stroke-linecap='round' stroke-linejoin='round' brush-type='1' stroke-wetness='0.5'></path><path  style = ' stroke:#000000;  fill:none;  stroke-width:1.0;' d="M679.83 125.60 a0.50 0.50 0 1 0 0.01 0 " stroke-linecap='round' stroke-linejoin='round' brush-type='1' stroke-wetness='0.5'></path><path  style = ' stroke:#000000;  fill:none;  stroke-width:1.0;' d="M276.12 144.58 L275.70 144.46 L275.15 144.42 L273.86 144.62 L272.28 145.31 L270.54 146.60 L268.88 148.42 L267.55 150.64 L266.78 152.99 L266.66 155.21 L267.31 157.11 L268.56 158.49 L270.42 159.22 L272.52 159.34 L274.55 158.73 L276.12 157.40 L277.05 155.37 L277.46 152.99 L277.42 150.56 L276.97 148.34 L276.20 146.64 L275.23 145.63 L274.14 145.26 " stroke-linecap='round' stroke-linejoin='round' brush-type='1' stroke-wetness='0.5'></path><path  style = ' stroke:#000000;  fill:none;  stroke-width:1.0;' d="M249.07 151.13 L249.74 151.13 L250.40 151.13 L251.94 151.13 L253.72 151.01 L255.54 150.80 L257.08 150.60 L258.17 150.52 L258.86 150.52 L259.22 150.52 L259.34 150.36 L259.34 150.12 L259.10 149.79 L258.69 149.55 L258.21 149.31 L257.80 149.07 L257.48 148.82 L257.24 148.62 L257.56 148.54 " stroke-linecap='round' stroke-linejoin='round' brush-type='1' stroke-wetness='0.5'></path><path  style = ' stroke:#000000;  fill:none;  stroke-width:1.0;' d="M258.90 151.13 L258.78 151.43 L258.53 152.14 L258.01 153.27 L257.32 154.48 L256.67 155.33 L256.19 155.94 " stroke-linecap='round' stroke-linejoin='round' brush-type='1' stroke-wetness='0.5'></path><path  style = ' stroke:#000000;  fill:none;  stroke-width:1.0;' d="M223.11 157.80 L223.66 157.44 L224.12 156.63 L225.01 155.09 L225.78 153.07 L226.43 151.01 L227.03 148.98 L227.52 147.45 L227.92 146.60 L228.29 146.32 L228.73 146.84 L229.30 148.58 L229.78 151.25 L230.19 153.92 L230.55 155.66 L230.95 156.51 L231.40 156.67 L231.97 155.98 L232.69 154.28 L233.62 151.73 L234.55 149.11 L235.32 147.25 L235.77 146.36 L236.01 146.44 L236.13 147.57 L236.21 149.71 L236.17 152.34 L236.05 154.77 L235.93 156.59 L235.85 157.76 " stroke-linecap='round' stroke-linejoin='round' brush-type='1' stroke-wetness='0.5'></path><path  style = ' stroke:#000000;  fill:none;  stroke-width:1.0;' d="M202.85 152.46 L203.52 152.64 L204.27 152.71 L205.96 152.83 L208.23 152.83 L210.78 152.83 L213.61 152.83 L216.19 152.83 L218.46 152.83 L220.04 152.83 L221.05 152.83 L221.65 152.71 L221.94 152.34 L221.90 151.61 L221.57 150.80 L221.17 150.12 L220.85 149.75 L220.72 150.08 L220.68 150.97 L220.68 152.26 L220.68 153.31 L220.60 154.16 L220.36 154.85 L219.96 155.50 L219.47 156.10 L218.94 156.59 " stroke-linecap='round' stroke-linejoin='round' brush-type='1' stroke-wetness='0.5'></path><path  style = ' stroke:#000000;  fill:none;  stroke-width:1.0;' d="M214.01 140.21 L213.22 140.21 L212.60 140.21 L211.30 140.37 L210.21 140.78 L209.28 141.46 L208.71 142.23 L208.47 143.04 L208.71 143.73 L209.44 144.29 L210.53 144.58 L211.63 144.70 L212.35 144.70 L212.35 144.98 L211.67 145.59 L210.57 146.44 L209.77 147.17 L209.36 147.73 L209.68 148.14 L210.66 148.42 L212.03 148.54 L213.36 148.58 " stroke-linecap='round' stroke-linejoin='round' brush-type='1' stroke-wetness='0.5'></path><path  style = ' stroke:#000000;  fill:none;  stroke-width:1.0;' d="M184.41 160.59 L184.78 160.17 L184.94 159.09 L185.22 157.11 L185.26 154.44 L185.26 151.86 L185.22 149.15 L185.18 146.72 L185.14 144.66 L185.34 143.24 L185.83 142.35 L186.64 141.95 L187.57 141.99 L188.46 142.84 L189.18 144.29 L189.59 146.03 L189.71 147.37 L189.34 148.30 L188.58 148.94 L187.44 149.47 L186.31 149.83 L185.50 150.08 L185.10 150.48 L185.06 150.97 " stroke-linecap='round' stroke-linejoin='round' brush-type='1' stroke-wetness='0.5'></path><path  style = ' stroke:#000000;  fill:none;  stroke-width:1.0;' d="M195.57 157.07 L194.78 157.07 L194.28 157.23 L193.23 157.80 L192.62 158.77 L192.26 159.90 L192.30 160.83 L192.74 161.44 L193.51 161.76 L194.48 161.88 L195.29 161.68 L195.81 161.12 L196.02 160.19 L195.86 159.22 L195.49 158.37 L194.97 157.88 L194.48 157.64 " stroke-linecap='round' stroke-linejoin='round' brush-type='1' stroke-wetness='0.5'></path><path  style = ' stroke:#000000;  fill:none;  stroke-width:1.0;' d="M157.24 153.68 L157.72 153.43 L158.41 153.35 L160.23 153.07 L162.74 152.83 L165.85 152.42 L168.84 152.10 L171.71 151.82 L174.10 151.69 L176.00 151.61 L177.13 151.61 L177.13 151.61 L176.28 151.61 L174.99 151.61 L174.02 151.61 L173.45 151.69 L173.21 152.02 L173.13 152.62 L173.13 153.39 L173.13 154.12 L173.13 154.77 L173.13 155.29 L173.13 155.70 L173.05 155.98 L172.85 156.06 " stroke-linecap='round' stroke-linejoin='round' brush-type='1' stroke-wetness='0.5'></path><path  style = ' stroke:#000000;  fill:none;  stroke-width:1.0;' d="M168.64 143.85 L168.03 143.18 L167.31 142.96 L166.01 142.52 L164.68 142.88 L163.51 143.73 L162.45 144.98 L161.85 146.15 L161.65 147.00 L162.05 147.49 L162.82 147.69 L163.91 147.33 L164.92 146.32 L165.85 144.62 L166.54 142.60 L166.98 140.41 L167.14 138.51 L167.19 137.22 L167.14 136.69 L167.02 137.42 L166.90 139.00 L166.82 141.34 L166.82 143.45 L166.90 145.18 " stroke-linecap='round' stroke-linejoin='round' brush-type='1' stroke-wetness='0.5'></path><path  style = ' stroke:#000000;  fill:none;  stroke-width:1.0;' d="M169.37 145.43 L169.25 146.09 L169.17 146.76 L169.01 148.05 L168.88 149.27 " stroke-linecap='round' stroke-linejoin='round' brush-type='1' stroke-wetness='0.5'></path><path  style = ' stroke:#000000;  fill:none;  stroke-width:1.0;' d="M137.34 159.86 L137.83 159.26 L138.03 158.16 L138.39 156.10 L138.43 153.43 L138.43 150.68 L138.43 147.69 L138.56 144.94 L138.92 142.76 L139.61 141.38 L140.62 140.78 L141.83 140.70 L143.00 141.50 L143.89 143.08 L144.34 145.14 L144.34 146.92 L143.61 148.26 L142.36 149.15 L140.78 149.67 L139.41 149.87 L138.31 149.83 L138.27 150.28 " stroke-linecap='round' stroke-linejoin='round' brush-type='1' stroke-wetness='0.5'></path><path  style = ' stroke:#000000;  fill:none;  stroke-width:1.0;' d="M147.41 155.98 L147.23 156.41 L147.17 157.03 L146.97 158.08 L146.89 159.18 L146.76 160.06 L146.72 160.99 L146.68 161.64 " stroke-linecap='round' stroke-linejoin='round' brush-type='1' stroke-wetness='0.5'></path><path  style = ' stroke:#000000;  fill:none;  stroke-width:1.0;' d="M174.46 147.61 L174.83 147.97 L175.31 148.26 L176.32 148.90 L177.46 149.59 L178.47 150.36 L179.24 151.05 L179.68 151.61 L179.84 152.18 L179.44 152.87 L178.55 153.68 L177.25 154.52 L176.00 155.25 L174.91 155.90 L174.02 156.47 L173.33 157.03 L172.93 157.44 " stroke-linecap='round' stroke-linejoin='round' brush-type='1' stroke-wetness='0.5'></path><path  style = ' stroke:#000000;  fill:none;  stroke-width:1.0;' d="M113.08 148.94 L113.63 149.01 L114.37 149.03 L116.11 149.07 L118.26 149.07 L120.68 149.07 L123.07 148.98 L125.25 148.74 L127.03 148.30 L128.37 147.89 L129.26 147.57 L129.74 147.45 L129.66 147.33 L129.34 147.29 L128.85 147.65 L128.57 148.62 L128.41 150.20 L128.37 151.82 L128.37 153.11 L128.24 154.04 " stroke-linecap='round' stroke-linejoin='round' brush-type='1' stroke-wetness='0.5'></path><path  style = ' stroke:#000000;  fill:none;  stroke-width:1.0;' d="M128.97 147.97 L128.06 147.49 L127.44 147.29 L126.10 146.80 L125.05 146.48 L124.16 146.19 " stroke-linecap='round' stroke-linejoin='round' brush-type='1' stroke-wetness='0.5'></path><path  style = ' stroke:#000000;  fill:none;  stroke-width:1.0;' d="M118.05 141.79 L117.75 141.85 L117.16 141.87 L116.03 141.95 L114.74 142.19 L113.65 142.76 L112.92 143.61 L112.56 144.50 L112.56 145.14 L112.96 145.47 L113.89 145.31 L115.18 144.54 L116.48 143.00 L117.41 140.94 L117.93 138.75 L118.14 137.06 L118.18 136.09 L118.18 136.53 L118.18 138.15 L118.18 140.57 L118.18 142.52 " stroke-linecap='round' stroke-linejoin='round' brush-type='1' stroke-wetness='0.5'></path><path  style = ' stroke:#000000;  fill:none;  stroke-width:1.0;' d="M120.60 142.39 L121.09 142.09 L121.37 141.99 L121.82 141.99 L121.94 142.60 L121.57 143.53 L121.05 144.46 L120.44 145.06 L120.20 145.47 L120.44 145.71 L121.41 145.87 " stroke-linecap='round' stroke-linejoin='round' brush-type='1' stroke-wetness='0.5'></path><path  style = ' stroke:#000000;  fill:none;  stroke-width:1.0;' d="M88.70 158.04 L88.82 157.62 L88.86 156.75 L88.90 154.93 L88.86 152.50 L88.82 149.63 L88.94 146.76 L89.34 144.21 L90.07 142.60 L90.92 141.79 L91.73 141.59 L92.42 142.07 L92.94 143.12 L93.23 144.74 L93.19 146.32 L92.70 147.57 L91.81 148.34 L90.72 148.70 L89.75 148.82 L89.14 148.62 " stroke-linecap='round' stroke-linejoin='round' brush-type='1' stroke-wetness='0.5'></path><path  style = ' stroke:#000000;  fill:none;  stroke-width:1.0;' d="M94.76 157.32 L95.19 156.89 L95.90 156.79 L96.87 156.95 L97.55 157.96 L97.35 159.38 L96.74 160.75 L95.98 161.68 L95.49 162.21 L95.29 162.45 L95.49 162.65 L96.38 162.81 L97.92 162.90 L99.66 162.94 " stroke-linecap='round' stroke-linejoin='round' brush-type='1' stroke-wetness='0.5'></path><path  style = ' stroke:#000000;  fill:none;  stroke-width:1.0;' d="M66.98 150.40 L67.35 150.34 L67.91 150.32 L69.37 150.28 L71.51 150.28 L74.06 150.28 L76.61 150.28 L78.75 150.28 L80.33 150.28 L81.22 150.28 L81.62 150.28 L81.54 150.00 L81.26 149.55 L80.89 149.11 L80.97 149.15 L81.26 149.51 L81.58 150.08 L81.54 150.68 L80.97 151.41 L79.88 152.14 L78.59 152.75 L77.66 153.11 " stroke-linecap='round' stroke-linejoin='round' brush-type='1' stroke-wetness='0.5'></path><path  style = ' stroke:#000000;  fill:none;  stroke-width:1.0;' d="M74.36 208.57 L74.24 208.21 L74.93 208.09 L76.55 207.85 L79.26 207.80 L82.37 207.72 L85.40 207.60 L88.40 207.48 L90.94 207.28 L93.05 207.08 L94.42 206.83 L95.15 206.67 L95.43 206.47 L95.47 206.15 L95.31 205.66 L94.95 205.01 L94.42 204.45 L93.98 204.04 L93.94 204.17 L94.34 204.61 L95.03 205.26 L95.55 205.86 L95.80 206.59 L95.47 207.68 L94.70 209.06 L93.45 210.51 L92.20 211.73 L91.19 212.58 L90.66 213.10 " stroke-linecap='round' stroke-linejoin='round' brush-type='1' stroke-wetness='0.5'></path><path  style = ' stroke:#000000;  fill:none;  stroke-width:1.0;' d="M99.11 218.64 L99.35 218.40 L99.43 217.83 L99.60 216.54 L99.60 214.68 L99.60 212.33 L99.60 209.67 L99.60 206.79 L99.60 204.17 L99.60 201.94 L99.72 200.24 L99.92 199.03 L100.24 198.30 L100.69 197.98 L101.54 197.94 L102.75 198.46 L104.08 199.47 L105.06 200.85 L105.58 202.02 L105.74 202.99 L105.42 203.80 L104.53 204.53 L103.24 205.06 L102.06 205.42 L101.29 205.58 L101.09 205.82 " stroke-linecap='round' stroke-linejoin='round' brush-type='1' stroke-wetness='0.5'></path><path  style = ' stroke:#000000;  fill:none;  stroke-width:1.0;' d="M102.39 214.27 L102.57 213.85 L103.11 213.67 L103.92 213.34 L104.69 213.30 L105.01 213.55 L105.06 214.19 L104.69 215.33 L104.00 216.50 L103.20 217.47 L102.71 218.08 L102.51 218.44 L102.75 218.76 L103.44 218.97 L104.49 219.13 L105.58 219.13 L106.43 219.13 L107.12 219.05 L107.72 218.72 L108.21 218.28 " stroke-linecap='round' stroke-linejoin='round' brush-type='1' stroke-wetness='0.5'></path><path  style = ' stroke:#000000;  fill:none;  stroke-width:1.0;' d="M111.85 195.96 L111.91 196.38 L111.93 196.97 L111.97 198.06 L111.97 199.11 L111.85 199.96 L111.48 200.61 L110.92 201.13 L110.43 201.62 L110.15 202.02 " stroke-linecap='round' stroke-linejoin='round' brush-type='1' stroke-wetness='0.5'></path><path  style = ' stroke:#000000;  fill:none;  stroke-width:1.0;' d="M115.85 209.79 L116.16 209.73 L116.70 209.71 L118.24 209.67 L120.42 209.67 L122.97 209.67 L125.64 209.67 L128.31 209.67 L131.02 209.67 L133.52 209.67 L135.75 209.62 L137.45 209.50 L138.46 209.30 L138.90 209.06 L139.02 208.65 L138.98 208.05 L138.74 207.28 L138.38 206.59 L137.93 206.07 L137.65 205.78 L137.49 205.86 L137.45 206.35 L137.61 207.08 L137.85 207.80 L138.13 208.45 L138.25 209.14 L138.17 210.03 L137.65 211.08 L136.72 212.17 L135.54 213.06 L134.70 213.63 " stroke-linecap='round' stroke-linejoin='round' brush-type='1' stroke-wetness='0.5'></path><path  style = ' stroke:#000000;  fill:none;  stroke-width:1.0;' d="M127.13 198.63 L126.65 198.87 L126.24 199.03 L125.44 199.56 L124.75 200.28 L124.18 201.38 L123.86 202.59 L123.86 203.72 L124.22 204.53 L124.83 204.93 L125.64 204.49 L126.53 203.32 L127.46 201.34 L128.23 199.03 L128.75 196.48 L129.03 193.98 L129.16 192.07 L129.20 190.94 L129.20 191.14 L129.20 192.40 L129.16 194.66 L129.12 197.21 L129.07 199.64 L129.12 201.46 " stroke-linecap='round' stroke-linejoin='round' brush-type='1' stroke-wetness='0.5'></path><path  style = ' stroke:#000000;  fill:none;  stroke-width:1.0;' d="M131.50 201.78 L132.11 201.78 L132.35 202.18 L132.71 203.07 L132.43 204.29 L131.95 205.26 L131.54 205.82 L131.50 206.15 L131.99 206.31 L132.96 206.39 L134.13 206.43 L135.02 206.51 " stroke-linecap='round' stroke-linejoin='round' brush-type='1' stroke-wetness='0.5'></path><path  style = ' stroke:#000000;  fill:none;  stroke-width:1.0;' d="M147.64 218.88 L147.76 218.10 L147.80 217.19 L147.88 215.25 L147.88 212.78 L147.92 209.91 L148.04 206.67 L148.32 203.60 L148.73 200.89 L149.21 198.91 L149.70 197.70 L150.22 197.17 L150.95 197.25 L151.96 198.10 L153.13 199.64 L154.02 201.66 L154.47 203.52 L154.31 205.10 L153.58 206.27 L152.45 207.12 L151.15 207.64 L150.02 207.93 L149.01 208.05 L148.36 208.09 L148.24 208.37 " stroke-linecap='round' stroke-linejoin='round' brush-type='1' stroke-wetness='0.5'></path><path  style = ' stroke:#000000;  fill:none;  stroke-width:1.0;' d="M157.34 216.34 L157.34 216.82 L157.34 217.35 L157.34 218.36 L157.34 219.25 L157.34 219.94 L157.34 220.46 L157.34 220.95 L157.34 221.35 " stroke-linecap='round' stroke-linejoin='round' brush-type='1' stroke-wetness='0.5'></path><path  style = ' stroke:#000000;  fill:none;  stroke-width:1.0;' d="M162.07 191.47 L162.37 191.83 L162.48 192.52 L162.68 193.69 L162.68 194.95 L162.64 196.00 L162.31 197.05 L161.71 198.14 L160.86 199.07 L160.17 199.84 " stroke-linecap='round' stroke-linejoin='round' brush-type='1' stroke-wetness='0.5'></path><path  style = ' stroke:#000000;  fill:none;  stroke-width:1.0;' d="M135.99 189.28 L136.23 189.83 L136.31 190.62 L136.39 191.87 L136.07 192.96 L135.46 193.57 L134.70 194.02 L134.13 194.30 " stroke-linecap='round' stroke-linejoin='round' brush-type='1' stroke-wetness='0.5'></path><path  style = ' stroke:#000000;  fill:none;  stroke-width:1.0;' d="M167.17 210.51 L167.53 210.27 L168.38 210.11 L170.24 209.71 L172.75 209.42 L175.42 209.22 L178.04 209.18 L180.35 209.18 L182.13 209.18 L183.22 209.18 L183.83 209.18 L183.71 208.82 L183.30 208.13 L182.69 207.32 L182.41 206.83 L182.45 206.96 L182.90 207.48 L183.46 208.37 L183.87 209.34 L183.91 210.43 L183.46 211.61 L182.49 212.66 L181.16 213.43 L179.82 213.91 L178.77 214.23 L178.12 214.44 " stroke-linecap='round' stroke-linejoin='round' brush-type='1' stroke-wetness='0.5'></path><path  style = ' stroke:#000000;  fill:none;  stroke-width:1.0;' d="M191.06 220.46 L191.00 219.98 L190.98 219.29 L190.94 217.67 L190.94 215.49 L190.86 212.78 L190.70 209.91 L190.54 206.96 L190.46 204.29 L190.70 201.94 L191.31 200.20 L192.28 199.15 L193.37 198.71 L194.46 199.03 L195.51 200.00 L196.32 201.62 L196.77 203.40 L196.60 205.18 L195.92 206.71 L194.66 207.97 L193.09 208.82 L191.51 209.42 L190.42 209.95 L190.05 210.60 L190.22 211.20 " stroke-linecap='round' stroke-linejoin='round' brush-type='1' stroke-wetness='0.5'></path><path  style = ' stroke:#000000;  fill:none;  stroke-width:1.0;' d="M201.13 217.07 L200.04 217.31 L199.23 217.59 L197.78 218.28 L197.01 219.21 L196.69 220.34 L197.09 221.35 L198.10 222.00 L199.56 222.08 L200.85 221.55 L201.66 220.62 L202.02 219.45 L201.90 218.24 L201.42 217.07 L200.65 216.22 L199.96 215.81 L199.52 215.73 " stroke-linecap='round' stroke-linejoin='round' brush-type='1' stroke-wetness='0.5'></path><path  style = ' stroke:#000000;  fill:none;  stroke-width:1.0;' d="M205.38 192.56 L205.86 192.98 L206.15 193.77 L206.67 195.19 L206.88 196.73 L206.96 197.86 L206.84 198.71 L206.47 199.31 L205.90 199.72 L205.34 199.96 " stroke-linecap='round' stroke-linejoin='round' brush-type='1' stroke-wetness='0.5'></path><path  style = ' stroke:#000000;  fill:none;  stroke-width:1.0;' d="M174.45 198.87 L173.72 198.75 L173.15 198.75 L172.10 198.91 L171.37 199.47 L170.93 200.36 L170.72 201.42 L170.68 202.35 L170.93 202.95 L171.49 203.15 L172.34 202.63 L173.15 201.38 L173.76 199.47 L174.12 197.49 L174.28 195.67 L174.32 194.30 L174.32 193.49 L174.32 194.02 L174.32 195.63 L174.32 198.06 L174.32 200.20 L174.32 201.70 " stroke-linecap='round' stroke-linejoin='round' brush-type='1' stroke-wetness='0.5'></path><path  style = ' stroke:#000000;  fill:none;  stroke-width:1.0;' d="M174.45 203.11 L175.48 202.93 L175.82 203.36 L176.51 204.13 L176.55 205.18 L176.67 205.74 " stroke-linecap='round' stroke-linejoin='round' brush-type='1' stroke-wetness='0.5'></path><path  style = ' stroke:#000000;  fill:none;  stroke-width:1.0;' d="M179.54 191.59 L179.84 192.14 L179.94 192.72 L180.15 193.89 L179.98 195.11 L179.58 196.20 L178.89 197.13 L178.21 197.86 L177.68 198.34 " stroke-linecap='round' stroke-linejoin='round' brush-type='1' stroke-wetness='0.5'></path><path  style = ' stroke:#000000;  fill:none;  stroke-width:1.0;' d="M211.57 209.06 L211.99 208.88 L212.74 208.82 L214.68 208.69 L217.27 208.69 L220.46 208.69 L223.50 208.69 L226.57 208.69 L229.16 208.69 L231.38 208.65 L232.88 208.49 L233.77 208.29 L234.17 208.05 L234.33 207.68 L234.17 207.00 L233.73 206.07 L233.12 205.14 L232.59 204.45 L232.27 204.08 L232.11 204.53 L232.23 205.46 L232.51 206.63 L232.88 207.52 L233.08 208.45 L233.16 209.62 L233.16 210.92 L232.88 212.09 L232.31 212.94 L231.50 213.47 L230.73 213.71 L230.17 213.79 " stroke-linecap='round' stroke-linejoin='round' brush-type='1' stroke-wetness='0.5'></path><path  style = ' stroke:#000000;  fill:none;  stroke-width:1.0;' d="M224.18 195.59 L224.18 195.23 L223.50 195.11 L222.36 195.11 L220.87 195.71 L219.73 196.73 L218.97 197.78 L218.56 198.67 L218.48 199.31 L218.89 199.80 L219.77 200.12 L221.15 200.28 L222.48 200.32 L223.41 200.32 L223.86 200.36 L223.41 200.85 L222.61 201.66 L221.72 202.75 L221.35 203.64 L221.31 204.37 L221.72 204.85 L222.65 205.14 L224.02 205.22 L225.40 204.93 L226.45 204.49 " stroke-linecap='round' stroke-linejoin='round' brush-type='1' stroke-wetness='0.5'></path><path  style = ' stroke:#000000;  fill:none;  stroke-width:1.0;' d="M229.28 191.59 L229.64 192.01 L229.80 192.64 L230.17 193.77 L230.29 194.99 L230.37 196.00 L230.09 196.93 L229.48 197.66 L228.67 198.22 L228.23 198.46 " stroke-linecap='round' stroke-linejoin='round' brush-type='1' stroke-wetness='0.5'></path><path  style = ' stroke:#000000;  fill:none;  stroke-width:1.0;' d="M238.74 217.55 L238.74 217.25 L238.78 216.54 L238.98 215.04 L239.47 212.74 L240.16 210.11 L240.88 207.08 L241.53 204.45 L242.06 202.55 L242.42 201.74 L242.58 202.47 L242.62 204.37 L242.62 207.28 L242.62 209.79 L242.70 211.44 L242.99 212.09 L243.55 211.73 L244.28 210.39 L245.17 207.89 L246.06 205.14 L246.83 202.91 L247.31 201.86 L247.51 202.51 L247.60 204.57 L247.60 207.89 L247.60 210.88 L247.60 213.14 L247.72 214.27 L248.04 214.76 L248.57 214.60 L248.97 213.95 " stroke-linecap='round' stroke-linejoin='round' brush-type='1' stroke-wetness='0.5'></path><path  style = ' stroke:#000000;  fill:none;  stroke-width:1.0;' d="M252.57 194.50 L252.93 194.93 L253.42 195.63 L254.23 197.17 L254.91 199.03 L255.24 200.81 L255.16 202.39 L254.55 203.72 L253.62 204.81 L252.69 205.50 L252.12 205.82 " stroke-linecap='round' stroke-linejoin='round' brush-type='1' stroke-wetness='0.5'></path><path  style = ' stroke:#000000;  fill:none;  stroke-width:1.0;' d="M258.51 210.76 L259.00 210.64 L260.37 210.47 L262.96 210.11 L266.16 209.75 L268.91 209.50 L271.41 209.42 L273.56 209.42 L275.25 209.42 L276.27 209.42 L276.71 209.38 L276.83 209.10 L276.75 208.37 L276.39 207.20 L275.82 205.94 L275.21 204.97 L274.85 204.45 L274.69 204.53 L274.73 205.26 L275.05 206.51 L275.54 207.80 L275.98 208.90 L276.18 209.99 L276.14 211.20 L275.70 212.54 L274.81 213.75 L273.72 214.80 L272.91 215.65 L273.15 215.61 " stroke-linecap='round' stroke-linejoin='round' brush-type='1' stroke-wetness='0.5'></path><path  style = ' stroke:#000000;  fill:none;  stroke-width:1.0;' d="M288.60 205.06 L287.93 205.30 L286.86 205.90 L285.12 207.44 L283.67 209.67 L283.06 212.01 L282.94 213.99 L283.42 215.37 L284.64 216.09 L286.46 216.18 L288.28 215.53 L289.53 214.19 L290.18 212.17 L290.34 209.91 L290.05 207.89 L289.49 206.43 L288.76 205.54 L288.11 204.97 " stroke-linecap='round' stroke-linejoin='round' brush-type='1' stroke-wetness='0.5'></path><path  style = ' stroke:#000000;  fill:none;  stroke-width:1.0;' d="M235.95 166.84 L236.37 167.08 L236.60 167.97 L237.16 169.79 L237.65 172.38 L238.29 175.17 L238.94 178.04 L239.55 181.00 L240.11 183.70 L240.64 186.25 L241.21 188.40 L241.69 190.21 L242.10 191.55 L242.38 192.32 L242.58 192.68 L242.86 192.36 L243.19 191.55 L243.63 190.34 L243.96 189.33 L244.24 188.68 L244.36 188.88 L244.32 189.49 L243.88 190.30 L242.78 190.78 L241.17 191.23 L239.35 191.67 L237.89 191.99 L236.96 192.16 L236.60 192.03 " stroke-linecap='round' stroke-linejoin='round' brush-type='1' stroke-wetness='0.5'></path><path  style = ' stroke:#000000;  fill:none;  stroke-width:1.0;' d="M255.72 170.85 L255.00 170.30 L254.31 170.12 L253.09 169.75 L252.08 170.00 L251.36 170.56 L250.79 171.49 L250.47 172.54 L250.30 173.76 L250.26 175.29 L250.39 177.15 L250.71 179.09 L251.15 180.87 L251.56 182.37 L251.80 183.54 L251.92 184.31 L251.96 184.76 L251.68 184.59 " stroke-linecap='round' stroke-linejoin='round' brush-type='1' stroke-wetness='0.5'></path><path  style = ' stroke:#000000;  fill:none;  stroke-width:1.0;' d="M246.87 178.73 L247.41 178.79 L248.08 178.81 L249.50 178.85 L251.36 178.97 L253.46 179.09 L255.68 179.26 " stroke-linecap='round' stroke-linejoin='round' brush-type='1' stroke-wetness='0.5'></path><path  style = ' stroke:#26CC26;  fill:none;  stroke-width:1.0;' d="M189.37 171.33 L189.61 171.51 L189.69 172.46 L189.85 174.32 L189.89 177.07 L189.97 179.90 L190.13 182.86 L190.34 185.44 L190.62 187.51 L190.86 188.84 L191.11 189.69 L191.27 190.17 L191.63 189.97 L192.28 189.16 L193.21 187.87 L194.10 186.82 L194.70 186.13 L195.07 185.85 L195.11 186.33 L194.74 187.22 L193.90 188.31 L192.76 189.00 L191.55 189.45 L190.34 189.77 L189.12 189.97 L187.99 190.09 " stroke-linecap='round' stroke-linejoin='round' brush-type='1' stroke-wetness='0.5'></path><path  style = ' stroke:#26CC26;  fill:none;  stroke-width:1.0;' d="M201.25 174.12 L200.65 173.51 L200.12 173.31 L199.23 172.99 L198.59 173.31 L198.22 174.00 L198.02 175.13 L198.02 176.67 L198.30 178.41 L198.79 180.07 L199.35 181.40 L199.72 182.37 L199.88 183.06 L199.92 183.50 L199.48 183.62 " stroke-linecap='round' stroke-linejoin='round' brush-type='1' stroke-wetness='0.5'></path><path  style = ' stroke:#26CC26;  fill:none;  stroke-width:1.0;' d="M197.62 180.31 L198.10 180.25 L198.83 180.23 L200.16 180.31 L201.42 180.63 " stroke-linecap='round' stroke-linejoin='round' brush-type='1' stroke-wetness='0.5'></path><path  style = ' stroke:#26CC26;  fill:none;  stroke-width:1.0;' d="M206.35 182.13 L205.99 182.43 L205.46 182.77 L204.73 183.54 L204.25 184.51 L204.21 185.56 L204.69 186.41 L205.74 186.90 L207.16 187.06 L208.33 186.82 L209.02 186.17 L209.30 185.12 L209.14 184.07 L208.49 183.22 L207.44 182.73 L206.23 182.53 L205.38 182.49 " stroke-linecap='round' stroke-linejoin='round' brush-type='1' stroke-wetness='0.5'></path><path  style = ' stroke:#26CC26;  fill:none;  stroke-width:1.0;' d="M143.03 170.60 L143.57 170.66 L143.75 171.65 L144.20 173.55 L144.32 176.55 L144.52 179.58 L144.72 182.61 L144.93 185.04 L145.13 186.74 L145.29 187.63 L145.45 187.99 L145.73 187.91 L146.30 187.42 L147.11 186.74 L147.96 186.13 L148.61 185.85 L148.97 185.89 L149.09 186.33 L148.85 186.98 L148.20 187.59 L147.11 187.91 L145.78 188.03 L144.44 188.07 L143.31 187.99 L142.58 187.83 L142.26 187.59 " stroke-linecap='round' stroke-linejoin='round' brush-type='1' stroke-wetness='0.5'></path><path  style = ' stroke:#26CC26;  fill:none;  stroke-width:1.0;' d="M159.65 171.69 L158.67 171.09 L158.03 170.89 L156.73 170.48 L155.80 170.68 L154.99 171.17 L154.43 172.18 L154.15 173.60 L154.11 175.37 L154.39 177.23 L154.83 179.01 L155.32 180.47 L155.60 181.48 L155.72 182.05 L155.28 181.97 " stroke-linecap='round' stroke-linejoin='round' brush-type='1' stroke-wetness='0.5'></path><path  style = ' stroke:#26CC26;  fill:none;  stroke-width:1.0;' d="M154.31 181.40 L153.64 180.00 L154.31 179.50 L155.32 178.53 L157.34 178.49 " stroke-linecap='round' stroke-linejoin='round' brush-type='1' stroke-wetness='0.5'></path><path  style = ' stroke:#26CC26;  fill:none;  stroke-width:1.0;' d="M161.95 179.94 L161.89 180.61 L161.87 181.16 L161.83 182.33 L161.83 183.42 L161.83 184.55 L161.83 185.36 " stroke-linecap='round' stroke-linejoin='round' brush-type='1' stroke-wetness='0.5'></path><path  style = ' stroke:#26CC26;  fill:none;  stroke-width:1.0;' d="M92.32 170.60 L92.56 170.91 L92.72 172.22 L93.13 174.85 L93.49 178.33 L93.94 181.60 L94.30 184.31 L94.66 186.33 L94.95 187.42 L95.15 187.91 L95.63 187.63 L96.36 186.70 L97.33 185.28 L98.10 184.07 L98.63 183.38 L98.95 183.18 L99.07 183.66 L98.87 184.68 L98.34 185.93 L97.37 186.86 L96.24 187.30 L94.91 187.42 L93.61 187.34 L92.36 187.22 L91.39 187.14 L90.78 187.06 " stroke-linecap='round' stroke-linejoin='round' brush-type='1' stroke-wetness='0.5'></path><path  style = ' stroke:#26CC26;  fill:none;  stroke-width:1.0;' d="M108.09 171.09 L107.18 171.03 L106.67 171.09 L105.62 171.53 L104.97 172.58 L104.41 174.08 L104.04 175.70 L103.88 177.28 L103.88 178.77 L104.04 180.11 L104.29 181.16 L104.53 181.97 L104.57 182.81 " stroke-linecap='round' stroke-linejoin='round' brush-type='1' stroke-wetness='0.5'></path><path  style = ' stroke:#26CC26;  fill:none;  stroke-width:1.0;' d="M101.54 178.73 L101.72 178.49 L102.63 178.41 L104.29 178.25 L106.39 178.25 " stroke-linecap='round' stroke-linejoin='round' brush-type='1' stroke-wetness='0.5'></path><path  style = ' stroke:#26CC26;  fill:none;  stroke-width:1.0;' d="M109.06 181.76 L109.48 181.28 L110.15 181.12 L111.12 180.87 L111.85 181.32 L112.05 182.17 L111.85 183.30 L111.44 184.31 L110.92 185.00 L110.60 185.44 L110.47 185.73 L110.76 185.93 L111.40 186.01 L112.41 186.01 L113.55 186.01 L114.72 186.01 L115.73 186.01 L116.42 186.01 " stroke-linecap='round' stroke-linejoin='round' brush-type='1' stroke-wetness='0.5'></path><path  style = ' stroke:#000000;  fill:none;  stroke-width:1.0;' d="M332.39 147.55 L331.97 147.68 L331.02 148.12 L329.40 149.25 L327.62 151.07 L326.37 153.38 L325.64 155.80 L325.80 157.99 L327.30 159.44 L330.29 160.13 " stroke-linecap='round' stroke-linejoin='round' brush-type='1' stroke-wetness='0.5'></path><path  style = ' stroke:#000000;  fill:none;  stroke-width:1.0;' d="M347.68 151.44 L346.77 151.50 L345.45 152.12 L343.31 153.42 L341.41 155.52 L340.44 157.66 L340.07 159.52 L340.88 160.57 L342.74 160.78 L345.25 160.01 L347.43 158.55 L348.69 156.77 L349.09 155.08 L348.61 153.62 L347.72 152.45 L346.67 151.76 L345.94 151.56 L345.70 152.00 " stroke-linecap='round' stroke-linejoin='round' brush-type='1' stroke-wetness='0.5'></path><path  style = ' stroke:#000000;  fill:none;  stroke-width:1.0;' d="M353.99 158.23 L353.68 157.80 L353.58 157.10 L353.38 155.64 L353.70 153.74 L354.55 152.00 L356.01 150.83 L357.58 150.67 L358.92 151.60 L359.73 153.34 L360.09 155.28 L360.17 156.65 L360.17 157.30 L360.29 156.69 L360.70 155.20 L361.59 153.09 L362.72 151.68 L363.89 151.15 L364.70 151.88 L365.23 153.58 L365.43 156.01 L365.51 158.35 L365.55 159.97 " stroke-linecap='round' stroke-linejoin='round' brush-type='1' stroke-wetness='0.5'></path><path  style = ' stroke:#000000;  fill:none;  stroke-width:1.0;' d="M369.39 158.59 L369.21 158.05 L369.15 157.26 L369.03 155.72 L369.23 154.06 L369.84 152.65 L370.93 151.80 L372.14 151.56 L373.15 152.29 L373.76 153.66 L374.04 155.40 L374.12 156.65 L374.37 156.33 L375.01 154.91 L375.98 153.13 L376.95 152.29 L377.64 152.45 L378.00 153.62 L378.13 155.60 L378.13 157.70 L378.25 159.16 L378.57 159.81 " stroke-linecap='round' stroke-linejoin='round' brush-type='1' stroke-wetness='0.5'></path><path  style = ' stroke:#000000;  fill:none;  stroke-width:1.0;' d="M381.77 155.32 L382.25 154.59 L382.41 154.79 L382.74 155.40 L382.82 156.89 L383.30 158.07 L384.27 158.55 L385.73 158.07 L387.26 156.81 L388.60 154.95 L389.49 153.42 L389.93 152.53 L390.10 153.22 L390.01 155.03 L389.85 157.46 L389.69 159.16 L389.89 159.89 " stroke-linecap='round' stroke-linejoin='round' brush-type='1' stroke-wetness='0.5'></path><path  style = ' stroke:#000000;  fill:none;  stroke-width:1.0;' d="M396.81 149.25 L396.93 151.25 L396.97 152.61 L397.05 155.68 L397.05 157.78 L396.97 159.20 " stroke-linecap='round' stroke-linejoin='round' brush-type='1' stroke-wetness='0.5'></path><path  style = ' stroke:#000000;  fill:none;  stroke-width:1.0;' d="M395.59 156.17 L396.14 154.77 L397.17 154.27 L399.15 153.22 L401.22 153.05 " stroke-linecap='round' stroke-linejoin='round' brush-type='1' stroke-wetness='0.5'></path><path  style = ' stroke:#000000;  fill:none;  stroke-width:1.0;' d="M403.12 154.47 L403.78 155.08 L404.77 155.28 L406.55 155.48 L408.29 154.99 L409.38 154.19 L409.91 153.22 L409.95 152.24 L409.42 151.56 L408.25 151.40 L406.63 152.16 L405.14 153.66 L404.25 155.60 L404.01 157.30 L404.98 158.43 L406.35 158.96 " stroke-linecap='round' stroke-linejoin='round' brush-type='1' stroke-wetness='0.5'></path><path  style = ' stroke:#000000;  fill:none;  stroke-width:1.0;' d="M417.43 153.98 L416.82 153.56 L416.02 153.50 L414.80 153.50 L413.95 154.06 L413.91 154.99 L414.40 156.29 L415.09 157.70 L415.65 158.92 L415.89 159.73 L415.65 160.21 L414.68 160.49 L413.02 160.62 L410.88 160.17 " stroke-linecap='round' stroke-linejoin='round' brush-type='1' stroke-wetness='0.5'></path><path  style = ' stroke:#000000;  fill:none;  stroke-width:1.0;' d="M472.75 129.60 L473.11 129.54 L473.23 129.11 L473.48 128.14 L473.52 126.53 L473.64 124.50 L473.76 122.20 L473.84 119.69 L473.84 117.27 L473.88 115.00 L474.00 113.14 L474.24 111.69 L474.61 110.68 L475.17 110.11 L475.94 109.87 L476.95 110.27 L477.96 111.32 L478.73 112.98 L479.10 114.80 L479.14 116.46 L478.73 117.83 L477.92 118.80 L476.75 119.41 L475.66 119.73 L474.81 119.85 L474.29 119.90 L474.16 120.14 " stroke-linecap='round' stroke-linejoin='round' brush-type='1' stroke-wetness='0.5'></path><path  style = ' stroke:#000000;  fill:none;  stroke-width:1.0;' d="M481.00 131.30 L480.82 130.87 L480.75 130.13 L480.63 128.75 L480.63 127.29 L480.75 126.16 L481.08 125.35 L481.69 124.91 L482.45 124.75 L483.26 124.99 L483.87 125.68 L484.19 126.89 L484.27 128.27 L484.27 129.56 L484.27 130.53 L484.27 131.14 " stroke-linecap='round' stroke-linejoin='round' brush-type='1' stroke-wetness='0.5'></path><path  style = ' stroke:#000000;  fill:none;  stroke-width:1.0;' d="M488.76 120.62 L489.91 120.56 L490.99 120.54 L493.41 120.50 L495.88 120.50 L498.26 120.58 L500.08 120.70 L501.26 120.83 L501.86 120.87 L501.70 120.62 L501.09 120.06 L500.33 119.29 L499.88 118.68 L499.72 118.84 L499.76 119.41 L500.16 120.42 L500.49 121.23 L500.37 122.28 L499.19 123.66 L497.94 125.07 L497.05 126.12 " stroke-linecap='round' stroke-linejoin='round' brush-type='1' stroke-wetness='0.5'></path><path  style = ' stroke:#000000;  fill:none;  stroke-width:1.0;' d="M508.05 129.96 L507.75 129.60 L507.65 128.71 L507.44 127.01 L507.44 124.59 L507.44 121.92 L507.44 118.96 L507.44 116.38 L507.61 114.40 L508.13 113.30 L509.06 112.82 L510.19 112.90 L511.20 113.59 L511.89 114.88 L512.21 116.58 L512.01 118.16 L511.28 119.45 L510.11 120.34 L508.86 120.95 L507.97 121.35 " stroke-linecap='round' stroke-linejoin='round' brush-type='1' stroke-wetness='0.5'></path><path  style = ' stroke:#000000;  fill:none;  stroke-width:1.0;' d="M513.63 130.57 L513.63 130.15 L513.63 129.20 L513.63 127.66 L513.67 126.16 L513.87 125.39 L514.28 125.07 L515.01 125.03 L515.81 125.31 L516.54 125.96 L516.99 126.97 L517.19 128.02 L517.15 128.91 L516.78 129.44 " stroke-linecap='round' stroke-linejoin='round' brush-type='1' stroke-wetness='0.5'></path><path  style = ' stroke:#000000;  fill:none;  stroke-width:1.0;' d="M520.18 106.31 L520.42 106.73 L520.71 107.28 L521.15 108.45 L521.43 109.79 L521.48 111.04 L521.11 112.09 L520.46 112.94 L519.66 113.71 " stroke-linecap='round' stroke-linejoin='round' brush-type='1' stroke-wetness='0.5'></path></g><g id='id-text-layer'  type='type-normal' preserveAspectRatio="none" ><text  style = 'fill: #000000; font-family:Helvetica-Light; font-size:18.0; ' preserveAspectRatio="none" x= '40' y='40' width = '688' height = '924' transform="rotate(   0,  384,  502)" ><tspan visibility='hidden'><![CDATA[]]></tspan></text></g><recordings ></recordings><defs   ></defs><htext lang='en_US' timestamp='20170224-103543'><![CDATA[]]></htext></svg> 