<?xml version="1.0" standalone="no"?> <!DOCTYPE svg PUBLIC "-//W3C//DTD SVG 1.1//EN" "http://www.w3.org/Graphics/SVG/1.1/DTD/svg11.dtd"> <svg   version="1.1"     xmlns="http://www.w3.org/2000/svg"  xmlns:xlink="http://www.w3.org/1999/xlink" name="" width="768.0" height="1024.0" background="N_PAPERBACKGROUND_WHITE_WITH_GRAY_LINE" line-height="30.0" margin-top="40.0" margin-right="40.0" margin-bottom="40.0" margin-left="40.0"><g id='id-background-layer'  type='type-normal' preserveAspectRatio="none" ><rect  style = ' stroke:#FFFFFF;  fill:#FFFFFF;  stroke-width:0.0;' x="0" y="0" width="768" height="1024" preserveAspectRatio="none" transform="rotate(   0,  384,  512)" ></rect><polyline  style = ' stroke:#D7D6D6;  fill:none;  stroke-width:1.0;' points = ' 0,70 768,70' preserveAspectRatio="none" transform="rotate(   0,  384,   70)" ></polyline><polyline  style = ' stroke:#D7D6D6;  fill:none;  stroke-width:1.0;' points = ' 0,100 768,100' preserveAspectRatio="none" transform="rotate(   0,  384,  100)" ></polyline><polyline  style = ' stroke:#D7D6D6;  fill:none;  stroke-width:1.0;' points = ' 0,130 768,130' preserveAspectRatio="none" transform="rotate(   0,  384,  130)" ></polyline><polyline  style = ' stroke:#D7D6D6;  fill:none;  stroke-width:1.0;' points = ' 0,160 768,160' preserveAspectRatio="none" transform="rotate(   0,  384,  160)" ></polyline><polyline  style = ' stroke:#D7D6D6;  fill:none;  stroke-width:1.0;' points = ' 0,190 768,190' preserveAspectRatio="none" transform="rotate(   0,  384,  190)" ></polyline><polyline  style = ' stroke:#D7D6D6;  fill:none;  stroke-width:1.0;' points = ' 0,220 768,220' preserveAspectRatio="none" transform="rotate(   0,  384,  220)" ></polyline><polyline  style = ' stroke:#D7D6D6;  fill:none;  stroke-width:1.0;' points = ' 0,250 768,250' preserveAspectRatio="none" transform="rotate(   0,  384,  250)" ></polyline><polyline  style = ' stroke:#D7D6D6;  fill:none;  stroke-width:1.0;' points = ' 0,280 768,280' preserveAspectRatio="none" transform="rotate(   0,  384,  280)" ></polyline><polyline  style = ' stroke:#D7D6D6;  fill:none;  stroke-width:1.0;' points = ' 0,310 768,310' preserveAspectRatio="none" transform="rotate(   0,  384,  310)" ></polyline><polyline  style = ' stroke:#D7D6D6;  fill:none;  stroke-width:1.0;' points = ' 0,340 768,340' preserveAspectRatio="none" transform="rotate(   0,  384,  340)" ></polyline><polyline  style = ' stroke:#D7D6D6;  fill:none;  stroke-width:1.0;' points = ' 0,370 768,370' preserveAspectRatio="none" transform="rotate(   0,  384,  370)" ></polyline><polyline  style = ' stroke:#D7D6D6;  fill:none;  stroke-width:1.0;' points = ' 0,400 768,400' preserveAspectRatio="none" transform="rotate(   0,  384,  400)" ></polyline><polyline  style = ' stroke:#D7D6D6;  fill:none;  stroke-width:1.0;' points = ' 0,430 768,430' preserveAspectRatio="none" transform="rotate(   0,  384,  430)" ></polyline><polyline  style = ' stroke:#D7D6D6;  fill:none;  stroke-width:1.0;' points = ' 0,460 768,460' preserveAspectRatio="none" transform="rotate(   0,  384,  460)" ></polyline><polyline  style = ' stroke:#D7D6D6;  fill:none;  stroke-width:1.0;' points = ' 0,490 768,490' preserveAspectRatio="none" transform="rotate(   0,  384,  490)" ></polyline><polyline  style = ' stroke:#D7D6D6;  fill:none;  stroke-width:1.0;' points = ' 0,520 768,520' preserveAspectRatio="none" transform="rotate(   0,  384,  520)" ></polyline><polyline  style = ' stroke:#D7D6D6;  fill:none;  stroke-width:1.0;' points = ' 0,550 768,550' preserveAspectRatio="none" transform="rotate(   0,  384,  550)" ></polyline><polyline  style = ' stroke:#D7D6D6;  fill:none;  stroke-width:1.0;' points = ' 0,580 768,580' preserveAspectRatio="none" transform="rotate(   0,  384,  580)" ></polyline><polyline  style = ' stroke:#D7D6D6;  fill:none;  stroke-width:1.0;' points = ' 0,610 768,610' preserveAspectRatio="none" transform="rotate(   0,  384,  610)" ></polyline><polyline  style = ' stroke:#D7D6D6;  fill:none;  stroke-width:1.0;' points = ' 0,640 768,640' preserveAspectRatio="none" transform="rotate(   0,  384,  640)" ></polyline><polyline  style = ' stroke:#D7D6D6;  fill:none;  stroke-width:1.0;' points = ' 0,670 768,670' preserveAspectRatio="none" transform="rotate(   0,  384,  670)" ></polyline><polyline  style = ' stroke:#D7D6D6;  fill:none;  stroke-width:1.0;' points = ' 0,700 768,700' preserveAspectRatio="none" transform="rotate(   0,  384,  700)" ></polyline><polyline  style = ' stroke:#D7D6D6;  fill:none;  stroke-width:1.0;' points = ' 0,730 768,730' preserveAspectRatio="none" transform="rotate(   0,  384,  730)" ></polyline><polyline  style = ' stroke:#D7D6D6;  fill:none;  stroke-width:1.0;' points = ' 0,760 768,760' preserveAspectRatio="none" transform="rotate(   0,  384,  760)" ></polyline><polyline  style = ' stroke:#D7D6D6;  fill:none;  stroke-width:1.0;' points = ' 0,790 768,790' preserveAspectRatio="none" transform="rotate(   0,  384,  790)" ></polyline><polyline  style = ' stroke:#D7D6D6;  fill:none;  stroke-width:1.0;' points = ' 0,820 768,820' preserveAspectRatio="none" transform="rotate(   0,  384,  820)" ></polyline><polyline  style = ' stroke:#D7D6D6;  fill:none;  stroke-width:1.0;' points = ' 0,850 768,850' preserveAspectRatio="none" transform="rotate(   0,  384,  850)" ></polyline><polyline  style = ' stroke:#D7D6D6;  fill:none;  stroke-width:1.0;' points = ' 0,880 768,880' preserveAspectRatio="none" transform="rotate(   0,  384,  880)" ></polyline><polyline  style = ' stroke:#D7D6D6;  fill:none;  stroke-width:1.0;' points = ' 0,910 768,910' preserveAspectRatio="none" transform="rotate(   0,  384,  910)" ></polyline><polyline  style = ' stroke:#D7D6D6;  fill:none;  stroke-width:1.0;' points = ' 0,940 768,940' preserveAspectRatio="none" transform="rotate(   0,  384,  940)" ></polyline><polyline  style = ' stroke:#D7D6D6;  fill:none;  stroke-width:1.0;' points = ' 0,970 768,970' preserveAspectRatio="none" transform="rotate(   0,  384,  970)" ></polyline><polyline  style = ' stroke:#C74F4F;  fill:none;  stroke-width:0.5;' points = ' 40,0 40,1024' preserveAspectRatio="none" transform="rotate(   0,   40,  512)" ></polyline><polyline  style = ' stroke:#B6B6B6; stroke-opacity:0.8; fill:none;  stroke-width:0.5;' points = ' 728,0 728,1024' preserveAspectRatio="none" transform="rotate(   0,  728,  512)" ></polyline></g><g id='id-main-layer'  type='type-normal' preserveAspectRatio="none" ><path  style = ' stroke:#000000;  fill:none;  stroke-width:1.0;' d="M146.43 77.90 L146.43 78.19 L146.43 78.80 L146.43 80.45 L146.39 83.12 L146.11 86.54 L145.60 90.15 L144.94 93.37 L144.46 95.81 L144.23 97.34 L144.19 98.12 L144.42 98.48 L145.09 98.60 L146.27 98.64 L147.80 98.64 L149.49 98.48 L150.87 98.28 " stroke-linecap='round' stroke-linejoin='round' brush-type='1' stroke-wetness='0.5'></path><path  style = ' stroke:#000000;  fill:none;  stroke-width:1.0;' d="M155.62 95.69 L156.21 95.51 L156.72 95.41 L157.78 95.10 L158.80 94.67 L159.74 93.96 L160.49 93.14 L160.92 92.31 L161.12 91.64 L160.84 91.17 L160.06 90.94 L158.80 90.94 L157.39 91.37 L156.13 92.23 L155.23 93.41 L154.80 94.67 L154.87 95.89 L155.58 97.03 L157.03 97.93 L159.12 98.48 L161.43 98.71 L163.28 98.75 " stroke-linecap='round' stroke-linejoin='round' brush-type='1' stroke-wetness='0.5'></path><path  style = ' stroke:#000000;  fill:none;  stroke-width:1.0;' d="M167.17 88.97 L167.11 89.33 L167.09 90.50 L167.05 92.78 L167.05 95.65 L167.05 98.01 L166.93 99.70 L166.70 100.56 " stroke-linecap='round' stroke-linejoin='round' brush-type='1' stroke-wetness='0.5'></path><path  style = ' stroke:#000000;  fill:none;  stroke-width:1.0;' d="M163.52 93.33 L164.10 93.10 L165.09 92.94 L167.13 92.59 L169.96 92.19 L172.47 91.88 " stroke-linecap='round' stroke-linejoin='round' brush-type='1' stroke-wetness='0.5'></path><path  style = ' stroke:#000000;  fill:none;  stroke-width:1.0;' d="M200.28 81.90 L200.22 82.67 L200.20 84.49 L200.16 87.91 L200.16 92.15 L200.16 95.61 L200.16 98.20 L200.20 100.05 " stroke-linecap='round' stroke-linejoin='round' brush-type='1' stroke-wetness='0.5'></path><path  style = ' stroke:#000000;  fill:none;  stroke-width:1.0;' d="M204.29 81.43 L204.35 81.73 L204.37 83.16 L204.41 86.07 L204.41 90.07 L204.41 93.57 L204.45 96.16 L204.49 97.69 L204.52 98.40 " stroke-linecap='round' stroke-linejoin='round' brush-type='1' stroke-wetness='0.5'></path><path  style = ' stroke:#000000;  fill:none;  stroke-width:1.0;' d="M198.51 88.97 L198.81 89.03 L199.81 89.05 L201.97 89.09 L204.88 89.09 L207.43 89.09 " stroke-linecap='round' stroke-linejoin='round' brush-type='1' stroke-wetness='0.5'></path><path  style = ' stroke:#000000;  fill:none;  stroke-width:1.0;' d="M211.36 88.27 L212.01 88.21 L212.66 88.19 L214.11 88.15 L215.68 88.11 " stroke-linecap='round' stroke-linejoin='round' brush-type='1' stroke-wetness='0.5'></path><path  style = ' stroke:#000000;  fill:none;  stroke-width:1.0;' d="M210.18 91.68 L210.59 91.80 L211.05 91.84 L212.03 91.96 L213.05 92.11 L213.95 92.43 L214.54 92.74 L214.89 92.94 " stroke-linecap='round' stroke-linejoin='round' brush-type='1' stroke-wetness='0.5'></path><path  style = ' stroke:#000000;  fill:none;  stroke-width:1.0;' d="M225.15 78.01 L225.91 77.48 L227.11 77.27 L229.35 76.80 L231.75 76.64 L233.67 76.52 L235.01 76.48 L235.71 76.60 L235.87 77.19 L235.36 78.37 L234.22 80.10 L232.53 81.94 L230.80 83.75 L229.35 85.28 L228.41 86.42 L227.70 87.36 " stroke-linecap='round' stroke-linejoin='round' brush-type='1' stroke-wetness='0.5'></path><path  style = ' stroke:#000000;  fill:none;  stroke-width:1.0;' d="M231.98 77.19 L231.69 77.72 L231.27 78.48 L230.29 80.10 L228.96 82.14 L227.46 84.22 L226.09 86.07 L225.15 87.28 L224.64 87.95 L224.79 88.19 L225.74 88.27 L227.58 88.23 L229.98 87.99 L232.34 87.60 L234.38 87.13 L235.83 86.81 L236.70 86.65 " stroke-linecap='round' stroke-linejoin='round' brush-type='1' stroke-wetness='0.5'></path><path  style = ' stroke:#000000;  fill:none;  stroke-width:1.0;' d="M226.56 95.45 L227.21 95.10 L228.49 94.16 L230.92 92.31 L234.06 89.76 L237.17 87.17 L240.11 84.73 L242.51 82.84 L244.12 81.71 L245.06 81.19 " stroke-linecap='round' stroke-linejoin='round' brush-type='1' stroke-wetness='0.5'></path><path  style = ' stroke:#000000;  fill:none;  stroke-width:1.0;' d="M235.28 99.70 L235.28 99.28 L235.36 98.32 L235.71 96.51 L236.38 94.39 L237.36 92.74 L238.38 91.68 L239.33 91.21 L240.03 91.41 L240.43 92.35 L240.58 93.92 L240.39 95.69 L239.99 97.03 L239.60 97.77 L239.45 97.65 L239.92 96.79 L240.86 95.57 L242.04 94.63 L242.90 94.35 L243.33 94.86 L243.49 96.00 L243.37 97.58 L243.18 98.95 L242.98 99.81 " stroke-linecap='round' stroke-linejoin='round' brush-type='1' stroke-wetness='0.5'></path><path  style = ' stroke:#000000;  fill:none;  stroke-width:1.0;' d="M246.12 89.56 L246.83 89.56 L247.93 89.56 L249.85 89.56 L251.86 89.52 L253.39 89.48 L254.49 89.44 L255.12 89.44 L255.35 89.88 L255.20 91.02 L254.49 92.98 L253.31 95.30 L251.94 97.58 L250.76 99.42 L249.93 100.60 L249.50 101.07 " stroke-linecap='round' stroke-linejoin='round' brush-type='1' stroke-wetness='0.5'></path><path  style = ' stroke:#000000;  fill:none;  stroke-width:1.0;' d="M253.90 88.62 L253.55 88.97 L253.04 89.92 L251.98 91.80 L250.76 94.20 L249.58 96.36 L248.64 98.01 L248.01 98.99 L247.73 99.46 L247.81 99.66 L248.64 99.89 L250.21 100.13 L252.49 100.36 L254.84 100.48 L256.81 100.52 " stroke-linecap='round' stroke-linejoin='round' brush-type='1' stroke-wetness='0.5'></path><path  style = ' stroke:#000000;  fill:none;  stroke-width:1.0;' d="M282.18 91.45 L282.01 91.03 L281.51 90.90 L280.41 90.70 L278.88 91.05 L277.39 91.80 L276.29 92.86 L275.74 94.08 L275.62 95.22 L276.17 96.12 L277.27 96.59 L278.84 96.28 L280.26 95.30 L281.28 93.69 L281.87 92.11 L282.10 90.86 L282.06 91.37 L281.79 93.10 L281.28 95.77 L280.53 97.89 L279.55 99.70 L278.37 101.11 L277.04 102.17 L275.70 102.84 L274.40 103.15 L273.27 102.64 L272.52 101.74 " stroke-linecap='round' stroke-linejoin='round' brush-type='1' stroke-wetness='0.5'></path><path  style = ' stroke:#000000;  fill:none;  stroke-width:1.0;' d="M283.01 95.93 L283.71 96.22 L284.42 96.32 L285.76 96.44 L286.90 96.12 L287.76 95.57 L288.31 94.90 L288.59 94.28 L288.43 93.80 L287.84 93.53 L286.78 93.57 L285.52 94.16 L284.38 95.22 L283.56 96.63 L283.16 97.93 L283.09 98.99 L283.64 99.74 L284.66 100.21 L285.80 100.44 " stroke-linecap='round' stroke-linejoin='round' brush-type='1' stroke-wetness='0.5'></path><path  style = ' stroke:#000000;  fill:none;  stroke-width:1.0;' d="M289.49 99.11 L289.49 98.75 L289.53 98.28 L289.57 97.30 L289.69 96.20 L289.96 95.14 L290.43 94.35 L291.02 93.92 L291.61 93.84 L292.16 94.31 L292.59 95.38 L292.87 97.06 L292.98 98.83 L293.02 100.40 " stroke-linecap='round' stroke-linejoin='round' brush-type='1' stroke-wetness='0.5'></path><path  style = ' stroke:#000000;  fill:none;  stroke-width:1.0;' d="M307.64 97.93 L309.40 94.86 L310.23 93.76 L311.84 91.72 L312.39 92.43 L312.70 94.12 L312.43 96.67 L311.56 98.95 L310.23 100.44 L308.85 100.84 L307.64 100.17 L306.58 98.28 L305.71 95.14 L305.12 91.41 L304.85 87.95 L304.81 85.52 L304.93 84.30 L305.12 84.18 L305.36 85.44 L305.48 88.11 L305.52 91.84 L305.52 95.57 L305.59 98.60 L305.79 100.48 " stroke-linecap='round' stroke-linejoin='round' brush-type='1' stroke-wetness='0.5'></path><path  style = ' stroke:#000000;  fill:none;  stroke-width:1.0;' d="M319.30 92.04 L319.01 92.57 L318.60 94.04 L317.77 96.79 L316.87 100.25 L316.20 103.35 L315.85 105.82 L315.81 107.28 " stroke-linecap='round' stroke-linejoin='round' brush-type='1' stroke-wetness='0.5'></path><path  style = ' stroke:#000000;  fill:none;  stroke-width:1.0;' d="M317.77 103.94 L317.59 101.70 L317.26 99.97 L316.59 96.75 L315.92 94.55 L315.45 93.14 L315.26 92.43 " stroke-linecap='round' stroke-linejoin='round' brush-type='1' stroke-wetness='0.5'></path><path  style = ' stroke:#000000;  fill:none;  stroke-width:1.0;' d="M345.94 85.32 L345.94 86.20 L345.78 87.05 L345.39 88.78 L344.68 90.50 L343.77 92.31 L342.95 93.96 L342.40 95.22 L342.20 96.00 L342.44 96.55 L343.22 97.06 L344.56 97.50 L346.05 97.85 L347.35 98.05 L348.29 98.16 L348.88 98.16 L348.88 97.81 " stroke-linecap='round' stroke-linejoin='round' brush-type='1' stroke-wetness='0.5'></path><path  style = ' stroke:#000000;  fill:none;  stroke-width:1.0;' d="M341.22 91.33 L341.81 91.03 L342.64 90.94 L344.44 90.70 L346.80 90.62 L349.59 90.54 " stroke-linecap='round' stroke-linejoin='round' brush-type='1' stroke-wetness='0.5'></path><path  style = ' stroke:#000000;  fill:none;  stroke-width:1.0;' d="M390.13 92.63 L389.77 92.33 L388.91 92.39 L387.30 92.59 L385.53 93.37 L384.31 94.51 L383.72 95.89 L383.53 97.18 L383.92 97.97 L384.90 98.16 L386.51 97.38 L388.08 96.04 L389.14 94.31 L389.58 93.02 L389.65 92.23 L389.22 92.78 L388.52 94.39 L387.77 96.87 " stroke-linecap='round' stroke-linejoin='round' brush-type='1' stroke-wetness='0.5'></path><path  style = ' stroke:#000000;  fill:none;  stroke-width:1.0;' d="M390.48 97.34 L390.54 96.40 L390.72 95.81 L391.03 94.75 L391.46 94.31 L391.89 94.16 L392.29 94.51 L392.60 95.41 L392.76 96.91 L392.91 98.48 L393.15 99.62 " stroke-linecap='round' stroke-linejoin='round' brush-type='1' stroke-wetness='0.5'></path><path  style = ' stroke:#000000;  fill:none;  stroke-width:1.0;' d="M399.55 95.93 L398.96 95.69 L398.18 95.77 L396.88 96.12 L395.86 97.06 L395.39 98.24 L395.23 99.22 L395.43 99.85 L396.06 100.09 L397.08 99.74 L398.26 98.64 L399.36 96.63 L400.22 93.88 L400.81 90.66 L401.20 87.64 L401.48 85.59 L401.64 84.65 L401.67 84.22 L401.67 83.79 L401.67 83.32 L401.67 83.59 L401.52 85.24 L401.16 88.42 L400.57 92.31 L400.02 95.89 L399.67 98.56 L399.55 100.17 L399.63 100.91 L399.95 101.07 " stroke-linecap='round' stroke-linejoin='round' brush-type='1' stroke-wetness='0.5'></path><path  style = ' stroke:#000000;  fill:none;  stroke-width:1.0;' d="M426.19 83.55 L425.89 83.67 L425.36 84.14 L424.14 85.44 L422.61 87.68 L421.16 90.54 L420.14 93.53 L419.63 96.20 L419.59 98.32 L420.14 99.85 L421.31 100.80 L423.08 101.23 L425.12 101.11 L427.09 100.44 L428.54 99.42 L429.29 98.32 L429.21 97.42 L428.42 96.75 L427.17 96.36 L425.91 96.20 " stroke-linecap='round' stroke-linejoin='round' brush-type='1' stroke-wetness='0.5'></path><path  style = ' stroke:#000000;  fill:none;  stroke-width:1.0;' d="M436.08 89.56 L438.50 89.44 L440.29 89.37 L443.31 89.21 L444.92 89.09 " stroke-linecap='round' stroke-linejoin='round' brush-type='1' stroke-wetness='0.5'></path><path  style = ' stroke:#000000;  fill:none;  stroke-width:1.0;' d="M437.73 93.10 L438.03 93.10 L439.27 93.06 L441.70 92.82 L444.88 92.35 L447.63 91.64 " stroke-linecap='round' stroke-linejoin='round' brush-type='1' stroke-wetness='0.5'></path><path  style = ' stroke:#000000;  fill:none;  stroke-width:1.0;' d="M455.29 78.37 L456.18 77.90 L457.41 77.74 L459.61 77.42 L461.81 77.38 L463.46 77.35 L464.56 77.35 L465.07 77.78 L464.80 78.88 L463.66 80.84 L462.01 83.04 L460.32 85.16 L459.18 86.77 L458.44 87.95 " stroke-linecap='round' stroke-linejoin='round' brush-type='1' stroke-wetness='0.5'></path><path  style = ' stroke:#000000;  fill:none;  stroke-width:1.0;' d="M461.77 79.07 L461.42 79.37 L460.60 80.53 L459.06 82.57 L457.37 85.01 L456.12 86.69 L455.37 87.68 L455.02 88.11 L455.49 88.23 L456.67 88.27 L458.59 88.11 L460.67 87.79 L462.80 87.40 " stroke-linecap='round' stroke-linejoin='round' brush-type='1' stroke-wetness='0.5'></path><path  style = ' stroke:#000000;  fill:none;  stroke-width:1.0;' d="M460.71 95.22 L461.42 94.33 L462.40 93.33 L464.48 91.33 L467.12 89.05 L469.87 86.73 L472.42 84.57 L474.38 83.04 L475.56 82.26 " stroke-linecap='round' stroke-linejoin='round' brush-type='1' stroke-wetness='0.5'></path><path  style = ' stroke:#000000;  fill:none;  stroke-width:1.0;' d="M466.37 100.76 L466.08 99.93 L465.98 99.30 L465.82 97.97 L466.09 96.83 L466.64 95.81 L467.43 95.14 L468.33 94.83 L469.32 94.90 L470.14 95.53 L470.65 96.71 L470.81 98.20 L470.85 99.50 L470.85 100.29 " stroke-linecap='round' stroke-linejoin='round' brush-type='1' stroke-wetness='0.5'></path><path  style = ' stroke:#000000;  fill:none;  stroke-width:1.0;' d="M473.20 92.63 L473.79 92.51 L474.74 92.47 L476.54 92.35 L478.47 92.31 L479.84 92.27 L480.67 92.27 L480.98 92.59 L480.98 93.61 L480.39 95.34 L479.37 97.42 L478.15 99.22 L477.09 100.60 L476.27 101.35 " stroke-linecap='round' stroke-linejoin='round' brush-type='1' stroke-wetness='0.5'></path><path  style = ' stroke:#000000;  fill:none;  stroke-width:1.0;' d="M479.10 91.09 L478.98 91.74 L478.90 92.59 L478.51 94.39 L477.92 96.55 L477.05 98.67 L476.19 100.48 L475.48 101.70 L475.01 102.41 L475.21 102.68 L476.03 102.76 L477.60 102.76 L479.37 102.64 L481.10 102.41 L482.55 102.05 L483.73 101.82 " stroke-linecap='round' stroke-linejoin='round' brush-type='1' stroke-wetness='0.5'></path><path  style = ' stroke:#000000;  fill:none;  stroke-width:1.0;' d="M510.80 90.50 L509.79 90.15 L508.44 90.31 L506.00 90.86 L503.69 92.27 L502.15 94.04 L501.37 95.73 L501.33 97.10 L502.15 97.89 L503.73 98.05 L505.81 97.42 L507.73 96.24 L509.07 94.75 L509.70 93.29 L509.85 92.11 L509.85 91.33 L509.70 91.80 L509.38 93.37 L508.83 95.93 L508.20 98.44 L507.34 100.64 L506.20 102.41 L504.83 103.66 L503.33 104.49 L501.84 104.88 L500.47 104.76 L499.52 103.86 L499.09 102.60 " stroke-linecap='round' stroke-linejoin='round' brush-type='1' stroke-wetness='0.5'></path><path  style = ' stroke:#000000;  fill:none;  stroke-width:1.0;' d="M505.26 96.51 L508.79 96.46 L510.32 96.28 L513.23 95.77 L513.90 95.06 L514.21 94.35 L514.17 93.92 L513.39 93.92 L512.17 94.59 L510.80 95.77 L509.93 97.18 L509.50 98.40 L509.66 99.30 L510.48 99.89 L512.01 100.17 L513.82 100.21 L515.39 99.93 L516.33 99.46 L516.73 98.91 L516.81 98.44 L516.81 98.05 L516.81 97.65 L516.73 97.22 L516.65 96.67 L516.57 95.96 L516.77 95.06 L517.28 94.16 L518.10 93.49 L519.01 93.18 L519.83 93.49 L520.46 94.35 L520.85 95.77 L521.01 97.26 L521.13 98.64 " stroke-linecap='round' stroke-linejoin='round' brush-type='1' stroke-wetness='0.5'></path><path  style = ' stroke:#000000;  fill:none;  stroke-width:1.0;' d="M533.42 97.69 L533.54 97.22 L533.89 96.51 L534.80 95.26 L536.17 94.00 L537.66 93.21 L538.88 92.94 L539.59 93.84 L539.55 95.85 L538.65 98.52 L537.11 100.84 L535.46 102.25 L534.17 102.88 L533.34 102.37 L532.95 100.56 L532.83 97.18 L533.07 92.78 L533.62 88.54 L534.48 85.36 L535.19 83.71 L535.58 83.16 L535.66 83.98 L535.66 86.42 L535.43 90.43 L535.07 94.71 L534.72 98.24 L534.95 100.40 " stroke-linecap='round' stroke-linejoin='round' brush-type='1' stroke-wetness='0.5'></path><path  style = ' stroke:#000000;  fill:none;  stroke-width:1.0;' d="M547.68 93.10 L547.50 93.69 L547.05 94.59 L546.11 96.71 L544.89 99.50 L543.71 102.52 L542.77 105.20 L542.22 107.04 L542.06 107.87 L542.42 107.36 L542.89 105.59 L543.32 102.76 L543.24 99.58 L542.81 96.71 L542.18 94.67 L541.71 93.57 " stroke-linecap='round' stroke-linejoin='round' brush-type='1' stroke-wetness='0.5'></path><path  style = ' stroke:#000000;  fill:none;  stroke-width:1.0;' d="M567.71 86.38 L567.60 86.79 L567.56 87.87 L567.44 89.88 L567.40 92.35 L567.36 94.43 L567.52 96.08 L567.99 97.22 L568.81 97.89 L569.84 98.20 L570.97 98.12 L572.15 97.54 L573.33 96.28 L574.27 94.43 L574.90 92.31 L575.22 90.31 L575.33 88.66 L575.37 87.56 L575.37 86.97 L575.41 87.60 L575.45 89.25 L575.53 91.72 L575.57 93.96 L575.65 95.73 L575.69 96.91 L575.73 97.54 L575.92 97.93 " stroke-linecap='round' stroke-linejoin='round' brush-type='1' stroke-wetness='0.5'></path><path  style = ' stroke:#000000;  fill:none;  stroke-width:1.0;' d="M54.33 107.35 L54.33 108.23 L54.33 109.27 L54.33 111.67 L54.33 114.73 L54.33 118.07 L54.33 121.17 L54.33 123.41 L54.33 124.71 L54.33 125.26 L54.52 125.42 L55.03 125.50 L56.01 125.50 L57.31 125.38 L58.80 125.02 L60.30 124.36 L61.63 123.57 L62.69 122.82 " stroke-linecap='round' stroke-linejoin='round' brush-type='1' stroke-wetness='0.5'></path><path  style = ' stroke:#000000;  fill:none;  stroke-width:1.0;' d="M63.52 121.49 L64.11 121.31 L64.70 121.25 L65.87 120.90 L67.01 120.47 L67.99 119.72 L68.70 118.97 L69.06 118.23 L69.09 117.60 L68.58 117.05 L67.56 116.70 L66.11 116.54 L64.58 116.97 L63.24 117.95 L62.30 119.49 L61.87 121.14 L61.75 122.75 L62.14 124.16 L63.05 125.22 L64.66 125.85 L66.54 126.12 L68.39 126.01 " stroke-linecap='round' stroke-linejoin='round' brush-type='1' stroke-wetness='0.5'></path><path  style = ' stroke:#000000;  fill:none;  stroke-width:1.0;' d="M74.59 115.83 L74.77 116.30 L74.83 117.33 L74.99 119.25 L75.10 121.61 L75.30 123.61 L75.46 125.14 L75.54 125.97 " stroke-linecap='round' stroke-linejoin='round' brush-type='1' stroke-wetness='0.5'></path><path  style = ' stroke:#000000;  fill:none;  stroke-width:1.0;' d="M72.59 119.37 L73.06 119.31 L74.28 119.29 L76.60 119.25 L79.82 119.29 " stroke-linecap='round' stroke-linejoin='round' brush-type='1' stroke-wetness='0.5'></path><path  style = ' stroke:#000000;  fill:none;  stroke-width:1.0;' d="M114.66 114.77 L114.19 113.89 L113.40 113.32 L111.99 112.34 L110.34 111.83 L108.73 111.59 L107.12 111.47 L105.74 111.47 L104.80 111.55 L104.21 111.75 L103.94 112.22 L103.82 113.04 L103.86 114.34 L104.17 116.11 L104.68 118.23 L105.31 120.51 L105.74 122.71 L105.98 124.59 L106.06 126.05 L106.06 126.95 L105.94 127.46 L105.70 127.66 " stroke-linecap='round' stroke-linejoin='round' brush-type='1' stroke-wetness='0.5'></path><path  style = ' stroke:#000000;  fill:none;  stroke-width:1.0;' d="M103.23 119.84 L104.17 119.78 L105.47 119.76 L107.86 119.72 L110.58 119.72 " stroke-linecap='round' stroke-linejoin='round' brush-type='1' stroke-wetness='0.5'></path><path  style = ' stroke:#000000;  fill:none;  stroke-width:1.0;' d="M122.44 115.95 a0.50 0.50 0 1 0 0.01 0 " stroke-linecap='round' stroke-linejoin='round' brush-type='1' stroke-wetness='0.5'></path><path  style = ' stroke:#000000;  fill:none;  stroke-width:1.0;' d="M121.14 124.79 L121.55 124.08 L121.89 123.65 L122.60 122.94 L123.22 122.71 L123.73 122.67 L124.01 122.86 L124.01 123.30 L123.69 123.85 L123.15 124.24 L122.56 124.40 L122.16 124.40 L122.01 124.04 " stroke-linecap='round' stroke-linejoin='round' brush-type='1' stroke-wetness='0.5'></path><path  style = ' stroke:#000000;  fill:none;  stroke-width:1.0;' d="M135.16 111.12 L134.99 114.12 L134.89 116.89 L134.69 121.76 L134.62 125.61 L134.58 128.52 L134.58 130.80 L134.58 132.25 L134.65 132.37 " stroke-linecap='round' stroke-linejoin='round' brush-type='1' stroke-wetness='0.5'></path><path  style = ' stroke:#000000;  fill:none;  stroke-width:1.0;' d="M140.47 110.77 L140.29 111.06 L140.23 112.41 L140.08 115.32 L139.92 119.49 L139.76 123.73 L139.64 127.38 L139.64 130.13 L139.64 131.74 L139.76 132.37 " stroke-linecap='round' stroke-linejoin='round' brush-type='1' stroke-wetness='0.5'></path><path  style = ' stroke:#000000;  fill:none;  stroke-width:1.0;' d="M134.93 122.55 L135.81 122.37 L136.78 122.31 L138.74 122.20 L140.78 122.20 " stroke-linecap='round' stroke-linejoin='round' brush-type='1' stroke-wetness='0.5'></path><path  style = ' stroke:#000000;  fill:none;  stroke-width:1.0;' d="M147.30 122.08 L148.01 121.96 L148.87 121.92 L150.92 121.84 L153.39 121.84 L156.38 121.84 L159.28 121.84 L162.07 121.84 L164.35 121.84 L166.04 121.84 L167.06 121.84 L167.49 121.84 L166.94 121.45 L165.65 120.78 L163.80 119.92 L162.47 119.33 L161.72 118.97 L161.80 118.82 L162.50 119.09 L163.64 119.84 L164.66 120.98 L165.29 122.16 L165.53 123.18 L165.37 124.12 L164.74 124.91 L163.72 125.57 L162.50 125.97 L161.52 126.16 " stroke-linecap='round' stroke-linejoin='round' brush-type='1' stroke-wetness='0.5'></path><path  style = ' stroke:#000000;  fill:none;  stroke-width:1.0;' d="M178.18 112.18 L177.59 112.24 L177.00 112.69 L175.70 113.91 L174.33 115.95 L172.95 118.46 L171.93 121.10 L171.34 123.49 L171.15 125.50 L171.38 127.03 L172.17 128.21 L173.58 129.03 L175.51 129.46 L177.71 129.46 L179.98 128.91 L182.03 127.93 L183.44 126.83 L184.19 125.93 L184.19 125.22 L183.40 124.63 L181.83 124.20 L179.94 124.00 L178.49 123.96 L177.75 123.96 L177.82 123.88 " stroke-linecap='round' stroke-linejoin='round' brush-type='1' stroke-wetness='0.5'></path><path  style = ' stroke:#000000;  fill:none;  stroke-width:1.0;' d="M198.09 128.21 L198.51 126.73 L199.04 125.81 L200.17 123.96 L201.51 122.75 L202.85 121.84 L203.91 121.37 L204.57 121.61 L204.85 122.59 L204.57 124.16 L203.71 125.85 L202.41 127.18 L201.00 127.93 L199.70 128.13 L198.60 127.54 L197.74 126.05 L197.23 123.49 L196.95 120.35 L196.95 117.44 L197.07 115.52 L197.27 114.69 L197.58 114.93 L197.97 116.42 L198.33 119.33 L198.60 123.10 L198.88 126.71 L199.51 129.38 " stroke-linecap='round' stroke-linejoin='round' brush-type='1' stroke-wetness='0.5'></path><path  style = ' stroke:#000000;  fill:none;  stroke-width:1.0;' d="M211.53 123.26 L210.47 127.03 L209.99 129.27 L209.17 132.64 L209.13 132.37 L209.21 130.13 L209.13 127.15 L208.78 124.63 L208.31 122.71 L207.99 121.53 L208.15 121.29 " stroke-linecap='round' stroke-linejoin='round' brush-type='1' stroke-wetness='0.5'></path><path  style = ' stroke:#000000;  fill:none;  stroke-width:1.0;' d="M234.51 115.13 L233.62 114.18 L232.70 113.87 L230.93 113.24 L229.20 113.28 L227.63 113.51 L226.37 114.03 L225.63 114.89 L225.35 116.15 L225.43 117.87 L225.82 120.00 L226.41 122.24 L226.96 124.20 L227.24 125.73 L227.32 126.71 L227.12 127.30 " stroke-linecap='round' stroke-linejoin='round' brush-type='1' stroke-wetness='0.5'></path><path  style = ' stroke:#000000;  fill:none;  stroke-width:1.0;' d="M222.01 121.84 L222.54 121.37 L223.43 121.21 L225.31 120.86 L227.99 120.78 L230.89 120.70 " stroke-linecap='round' stroke-linejoin='round' brush-type='1' stroke-wetness='0.5'></path><path  style = ' stroke:#000000;  fill:none;  stroke-width:1.0;' d="M241.69 117.25 L240.93 117.25 L240.24 117.60 L238.83 118.62 L237.61 120.47 L236.71 122.63 L236.27 124.63 L236.51 126.20 L237.57 127.30 L239.46 127.93 L241.77 128.05 " stroke-linecap='round' stroke-linejoin='round' brush-type='1' stroke-wetness='0.5'></path><path  style = ' stroke:#000000;  fill:none;  stroke-width:1.0;' d="M247.70 118.42 L247.47 119.01 L247.35 119.64 L246.96 121.02 L246.60 122.55 L246.21 124.08 L246.02 125.30 L245.94 126.12 L246.13 126.63 L246.76 126.99 L247.78 127.22 L249.04 127.34 L250.22 127.30 L251.20 126.91 L251.75 126.36 " stroke-linecap='round' stroke-linejoin='round' brush-type='1' stroke-wetness='0.5'></path><path  style = ' stroke:#000000;  fill:none;  stroke-width:1.0;' d="M243.82 121.84 L244.58 121.49 L245.78 121.25 L248.06 120.74 L250.18 120.43 " stroke-linecap='round' stroke-linejoin='round' brush-type='1' stroke-wetness='0.5'></path><path  style = ' stroke:#000000;  fill:none;  stroke-width:1.0;' d="M253.01 118.31 L253.95 118.78 L254.97 119.52 L256.74 120.94 L258.00 122.55 L258.55 124.04 L258.43 125.53 L257.68 126.91 L256.39 128.21 L254.81 129.23 L253.32 129.93 L252.14 130.25 L251.48 130.01 " stroke-linecap='round' stroke-linejoin='round' brush-type='1' stroke-wetness='0.5'></path><path  style = ' stroke:#000000;  fill:none;  stroke-width:1.0;' d="M260.78 121.96 L261.43 121.67 L262.47 121.57 L264.40 121.37 L266.44 121.33 L268.09 121.29 L269.27 121.25 " stroke-linecap='round' stroke-linejoin='round' brush-type='1' stroke-wetness='0.5'></path><path  style = ' stroke:#000000;  fill:none;  stroke-width:1.0;' d="M263.02 126.67 L263.91 126.32 L264.87 126.20 L266.83 125.89 L268.84 125.69 L270.60 125.46 " stroke-linecap='round' stroke-linejoin='round' brush-type='1' stroke-wetness='0.5'></path><path  style = ' stroke:#000000;  fill:none;  stroke-width:1.0;' d="M277.40 120.07 L277.22 120.55 L277.13 121.33 L276.93 122.98 L276.81 125.02 L276.73 126.95 L276.93 128.48 L277.60 129.42 L278.78 129.89 L280.27 129.93 L281.88 129.31 L283.37 128.01 L284.55 126.16 L285.22 124.28 L285.57 122.75 L285.69 121.76 L285.57 122.16 L285.22 123.45 L284.75 125.46 L284.47 127.15 L284.35 128.52 L284.35 129.38 L284.47 129.78 " stroke-linecap='round' stroke-linejoin='round' brush-type='1' stroke-wetness='0.5'></path><path  style = ' stroke:#000000;  fill:none;  stroke-width:1.0;' d="M294.96 111.83 L294.19 111.88 L293.58 111.94 L292.41 112.34 L291.58 112.96 L291.03 113.75 L290.80 114.42 L290.80 115.01 L291.19 115.68 L291.82 116.38 L292.48 117.13 L292.92 117.72 L293.11 118.15 L293.11 118.46 L292.64 118.74 L291.78 119.01 L290.64 119.17 L289.70 119.25 L289.07 119.37 L288.79 119.68 " stroke-linecap='round' stroke-linejoin='round' brush-type='1' stroke-wetness='0.5'></path><path  style = ' stroke:#000000;  fill:none;  stroke-width:1.0;' d="M314.29 121.72 L313.93 121.72 L313.58 121.88 L312.87 122.20 L312.32 122.63 L311.93 122.98 L311.77 123.26 L311.97 123.61 L312.75 124.04 L313.97 124.51 L315.15 124.91 L315.93 125.26 L316.29 125.57 L316.41 125.89 L316.17 126.24 L315.58 126.67 L314.72 127.11 L313.85 127.42 L313.34 127.66 L313.66 127.89 " stroke-linecap='round' stroke-linejoin='round' brush-type='1' stroke-wetness='0.5'></path><path  style = ' stroke:#000000;  fill:none;  stroke-width:1.0;' d="M323.48 122.55 L322.65 122.55 L321.79 122.71 L320.14 123.18 L318.72 124.04 L317.78 125.22 L317.35 126.56 L317.70 127.73 L319.00 128.44 L321.20 128.36 L323.63 127.54 L325.68 126.24 L326.97 124.91 L327.56 123.77 L327.60 122.86 L327.25 122.24 L326.54 121.92 L325.79 121.88 " stroke-linecap='round' stroke-linejoin='round' brush-type='1' stroke-wetness='0.5'></path><path  style = ' stroke:#000000;  fill:none;  stroke-width:1.0;' d="M344.45 119.60 L343.92 120.25 L343.71 121.33 L343.31 123.30 L343.27 125.42 L343.31 126.99 " stroke-linecap='round' stroke-linejoin='round' brush-type='1' stroke-wetness='0.5'></path><path  style = ' stroke:#000000;  fill:none;  stroke-width:1.0;' d="M342.80 118.54 L343.69 118.31 L344.65 118.35 L346.38 118.82 L347.79 120.11 L348.58 122.08 L348.89 124.12 L348.85 125.81 L348.73 126.79 L349.01 126.60 L349.76 125.73 L350.86 124.63 L351.60 124.12 L351.99 124.04 L352.07 124.47 L352.07 125.38 L351.92 126.63 L351.76 127.66 " stroke-linecap='round' stroke-linejoin='round' brush-type='1' stroke-wetness='0.5'></path><path  style = ' stroke:#000000;  fill:none;  stroke-width:1.0;' d="M357.18 123.37 L356.47 123.43 L355.80 123.77 L354.74 124.47 L354.12 125.46 L353.96 126.16 L354.27 126.52 L354.98 126.32 L355.88 125.77 L356.63 124.95 L357.06 124.20 L357.34 123.77 L357.45 124.47 L357.53 125.97 L357.53 127.85 L357.53 128.99 " stroke-linecap='round' stroke-linejoin='round' brush-type='1' stroke-wetness='0.5'></path><path  style = ' stroke:#000000;  fill:none;  stroke-width:1.0;' d="M362.84 120.43 L362.31 121.19 L362.13 122.31 L361.78 124.16 L361.78 125.85 L361.89 126.91 " stroke-linecap='round' stroke-linejoin='round' brush-type='1' stroke-wetness='0.5'></path><path  style = ' stroke:#000000;  fill:none;  stroke-width:1.0;' d="M357.77 120.90 L358.42 120.66 L359.18 120.59 L360.91 120.43 L362.91 120.43 L364.92 120.51 L366.61 120.70 L367.94 120.98 L368.89 121.37 L369.59 121.84 " stroke-linecap='round' stroke-linejoin='round' brush-type='1' stroke-wetness='0.5'></path><path  style = ' stroke:#000000;  fill:none;  stroke-width:1.0;' d="M393.95 110.41 L393.53 110.71 L392.89 111.39 L391.39 113.12 L389.39 115.99 L387.39 119.49 L385.89 123.06 L385.19 126.08 L385.19 128.48 L386.05 130.13 L387.74 131.11 L390.06 131.51 L392.34 131.35 L394.26 130.64 " stroke-linecap='round' stroke-linejoin='round' brush-type='1' stroke-wetness='0.5'></path><path  style = ' stroke:#000000;  fill:none;  stroke-width:1.0;' d="M397.13 119.01 L396.89 119.31 L396.81 120.31 L396.66 122.12 L396.66 124.40 L396.77 126.16 L397.17 127.50 L398.03 128.21 L399.25 128.48 L400.62 128.01 L401.88 126.83 L402.86 124.95 L403.53 123.02 L403.88 121.53 L404.04 120.82 L404.08 121.45 L404.08 122.98 L404.08 125.06 L404.08 126.75 L404.08 128.09 L404.24 128.91 L404.63 129.31 " stroke-linecap='round' stroke-linejoin='round' brush-type='1' stroke-wetness='0.5'></path><path  style = ' stroke:#000000;  fill:none;  stroke-width:1.0;' d="M411.74 115.01 L410.80 115.24 L409.89 115.56 L408.44 116.19 L407.54 116.74 L407.22 117.09 L407.66 117.40 L408.56 117.80 L409.66 118.39 L410.33 118.97 L410.60 119.56 L410.60 120.11 L410.33 120.51 L409.74 120.82 L408.99 120.94 L408.28 121.02 " stroke-linecap='round' stroke-linejoin='round' brush-type='1' stroke-wetness='0.5'></path><path  style = ' stroke:#000000;  fill:none;  stroke-width:1.0;' d="M413.86 112.89 L414.33 113.77 L414.65 114.61 L415.24 116.42 L415.55 118.42 L415.71 120.66 L415.67 122.86 L415.28 124.79 L414.49 126.32 L413.39 127.46 L412.21 128.21 L411.03 128.56 L409.89 128.60 L409.07 128.28 " stroke-linecap='round' stroke-linejoin='round' brush-type='1' stroke-wetness='0.5'></path><path  style = ' stroke:#000000;  fill:none;  stroke-width:1.0;' d="M419.05 112.18 L418.63 111.59 L418.50 111.24 L418.26 110.41 L418.46 109.63 L418.89 108.80 L419.52 108.17 L420.26 107.90 L421.05 107.90 L421.72 108.37 L422.15 109.19 L422.31 110.22 L422.35 111.00 L422.35 111.47 L422.42 111.32 L422.78 110.73 L423.25 110.02 L423.80 109.67 L424.11 109.67 L424.43 110.18 L424.62 111.08 L424.78 112.22 L424.82 113.24 L424.82 114.14 L424.82 114.89 " stroke-linecap='round' stroke-linejoin='round' brush-type='1' stroke-wetness='0.5'></path><path  style = ' stroke:#000000;  fill:none;  stroke-width:1.0;' d="M428.59 119.37 L429.30 119.13 L430.40 119.05 L432.36 118.82 L434.56 118.74 L436.33 118.66 L437.67 118.66 L438.33 118.66 " stroke-linecap='round' stroke-linejoin='round' brush-type='1' stroke-wetness='0.5'></path><path  style = ' stroke:#000000;  fill:none;  stroke-width:1.0;' d="M429.89 123.61 L430.30 123.73 L431.34 123.77 L433.38 123.85 L436.02 123.77 L438.45 123.53 L440.38 123.26 " stroke-linecap='round' stroke-linejoin='round' brush-type='1' stroke-wetness='0.5'></path><path  style = ' stroke:#000000;  fill:none;  stroke-width:1.0;' d="M445.68 112.89 L445.86 113.30 L445.91 114.65 L446.11 117.44 L446.23 121.17 L446.39 124.59 L446.46 127.34 L446.50 129.15 L446.54 130.13 L446.39 129.93 " stroke-linecap='round' stroke-linejoin='round' brush-type='1' stroke-wetness='0.5'></path><path  style = ' stroke:#000000;  fill:none;  stroke-width:1.0;' d="M64.34 137.63 L63.63 137.57 L62.93 137.59 L61.47 137.95 L59.90 138.81 L58.21 140.30 L56.52 142.15 L55.19 144.19 L54.36 146.24 L54.13 148.04 L54.64 149.54 L55.94 150.56 L57.98 151.22 L60.57 151.58 L62.81 151.73 " stroke-linecap='round' stroke-linejoin='round' brush-type='1' stroke-wetness='0.5'></path><path  style = ' stroke:#000000;  fill:none;  stroke-width:1.0;' d="M71.06 146.24 L70.35 146.29 L69.33 146.55 L67.56 147.30 L65.91 148.47 L64.85 149.89 L64.30 151.30 L64.30 152.68 L65.09 153.74 L66.62 154.37 L68.66 154.25 L70.55 153.38 L71.84 151.97 L72.43 150.36 L72.39 148.91 L71.77 147.69 L70.67 146.98 L69.33 146.71 L68.11 146.94 L67.33 147.34 " stroke-linecap='round' stroke-linejoin='round' brush-type='1' stroke-wetness='0.5'></path><path  style = ' stroke:#000000;  fill:none;  stroke-width:1.0;' d="M74.24 155.90 L74.00 155.25 L73.93 154.56 L73.77 153.03 L73.77 151.22 L73.85 149.46 L74.24 148.12 L74.91 147.45 L75.81 147.26 L76.60 147.85 L77.19 149.10 L77.50 150.83 L77.62 152.17 L77.70 152.87 L77.93 152.48 L78.37 151.42 L79.07 150.01 L79.70 149.06 L80.29 148.63 L80.56 149.02 L80.72 150.36 L80.72 152.72 L80.72 155.55 L80.76 157.98 " stroke-linecap='round' stroke-linejoin='round' brush-type='1' stroke-wetness='0.5'></path><path  style = ' stroke:#000000;  fill:none;  stroke-width:1.0;' d="M83.55 164.15 L83.73 163.03 L83.79 161.71 L83.90 158.88 L83.86 155.82 L83.83 152.83 L83.83 150.48 L84.06 148.87 L84.61 148.04 L85.63 147.77 L86.85 148.20 L87.87 149.26 L88.38 150.83 L88.19 152.40 L87.32 153.78 L86.06 154.76 L84.92 155.31 L84.26 155.51 L84.02 155.27 " stroke-linecap='round' stroke-linejoin='round' brush-type='1' stroke-wetness='0.5'></path><path  style = ' stroke:#000000;  fill:none;  stroke-width:1.0;' d="M88.38 152.60 L89.15 152.60 L89.40 153.38 L89.91 154.64 L89.95 156.13 L90.23 156.88 L90.86 157.12 L91.80 156.61 L92.78 155.43 L93.57 153.70 L94.08 152.13 L94.31 151.15 L94.35 151.46 L94.20 152.87 L94.04 154.96 L93.92 156.68 L94.00 157.59 " stroke-linecap='round' stroke-linejoin='round' brush-type='1' stroke-wetness='0.5'></path><path  style = ' stroke:#000000;  fill:none;  stroke-width:1.0;' d="M98.40 146.59 L98.40 147.12 L98.40 147.89 L98.40 149.50 L98.40 151.54 L98.40 153.62 L98.40 155.35 L98.40 156.41 " stroke-linecap='round' stroke-linejoin='round' brush-type='1' stroke-wetness='0.5'></path><path  style = ' stroke:#000000;  fill:none;  stroke-width:1.0;' d="M97.81 150.48 L98.46 150.24 L99.34 150.16 L100.83 150.01 " stroke-linecap='round' stroke-linejoin='round' brush-type='1' stroke-wetness='0.5'></path><path  style = ' stroke:#000000;  fill:none;  stroke-width:1.0;' d="M103.35 153.19 L104.05 153.54 L104.92 153.62 L106.49 153.46 L107.90 152.72 L108.81 151.66 L109.24 150.67 L109.32 149.89 L108.93 149.42 L107.94 149.30 L106.45 149.77 L104.88 150.87 L103.70 152.44 L102.99 153.97 L102.72 155.27 L102.95 156.29 L103.98 157.12 L105.98 157.67 L108.30 157.94 " stroke-linecap='round' stroke-linejoin='round' brush-type='1' stroke-wetness='0.5'></path><path  style = ' stroke:#000000;  fill:none;  stroke-width:1.0;' d="M141.06 143.29 L140.23 142.76 L139.45 142.58 L137.88 142.19 L136.34 142.11 L134.97 142.03 L133.87 141.99 L133.16 141.99 L132.73 141.99 L132.53 142.23 L132.45 143.01 L132.69 144.55 L133.20 146.67 L133.87 149.10 L134.38 151.46 L134.62 153.50 L134.69 154.92 L134.62 155.78 " stroke-linecap='round' stroke-linejoin='round' brush-type='1' stroke-wetness='0.5'></path><path  style = ' stroke:#000000;  fill:none;  stroke-width:1.0;' d="M131.04 150.24 L131.87 150.07 L132.73 150.01 L134.54 149.89 L136.58 149.93 L138.31 150.09 " stroke-linecap='round' stroke-linejoin='round' brush-type='1' stroke-wetness='0.5'></path><path  style = ' stroke:#000000;  fill:none;  stroke-width:1.0;' d="M144.83 150.95 L144.71 151.72 L144.67 152.44 L144.59 154.01 L144.59 155.62 L144.59 157.23 L144.59 158.57 L144.59 159.43 L144.40 159.83 " stroke-linecap='round' stroke-linejoin='round' brush-type='1' stroke-wetness='0.5'></path><path  style = ' stroke:#000000;  fill:none;  stroke-width:1.0;' d="M140.70 154.48 L141.35 154.37 L141.96 154.33 L143.30 154.25 L144.59 154.25 " stroke-linecap='round' stroke-linejoin='round' brush-type='1' stroke-wetness='0.5'></path><path  style = ' stroke:#000000;  fill:none;  stroke-width:1.0;' d="M145.18 152.48 L144.77 153.07 L144.59 154.01 L144.20 155.78 L144.00 157.67 L143.81 159.12 " stroke-linecap='round' stroke-linejoin='round' brush-type='1' stroke-wetness='0.5'></path><path  style = ' stroke:#000000;  fill:none;  stroke-width:1.0;' d="M139.88 153.07 L140.23 153.37 L140.74 153.54 L141.84 154.05 L143.26 154.60 L144.75 155.27 L146.12 155.90 L147.15 156.41 L147.85 156.84 " stroke-linecap='round' stroke-linejoin='round' brush-type='1' stroke-wetness='0.5'></path><path  style = ' stroke:#000000;  fill:none;  stroke-width:1.0;' d="M159.20 146.24 L158.91 145.41 L158.85 144.78 L158.89 143.76 L159.28 143.17 L159.79 142.94 L160.23 142.86 L160.54 143.13 L160.70 143.60 L160.50 144.19 L160.07 144.63 L159.52 144.86 L159.13 144.94 L158.93 144.74 L158.85 144.31 L158.85 143.68 L158.85 143.13 L159.01 142.82 L159.40 142.70 " stroke-linecap='round' stroke-linejoin='round' brush-type='1' stroke-wetness='0.5'></path><path  style = ' stroke:#000000;  fill:none;  stroke-width:1.0;' d="M158.97 155.07 L159.20 154.48 L159.28 153.97 L159.52 153.11 L159.64 152.60 L159.91 152.40 L160.19 152.36 L160.46 152.56 L160.54 152.83 L160.38 153.19 L160.07 153.35 L159.68 153.42 L159.44 152.99 L159.36 152.40 L159.64 151.81 L160.03 151.70 L160.42 151.97 L160.58 152.44 L160.62 153.03 L160.54 153.42 L160.38 153.66 L160.19 153.42 L160.07 153.11 L160.03 153.07 L160.03 153.42 L160.03 153.93 L159.99 154.29 " stroke-linecap='round' stroke-linejoin='round' brush-type='1' stroke-wetness='0.5'></path><path  style = ' stroke:#000000;  fill:none;  stroke-width:1.0;' d="M170.40 138.93 L170.58 141.70 L170.64 144.39 L170.75 149.10 L170.75 152.76 L170.75 155.03 L170.75 156.53 L170.75 157.31 L170.87 157.23 " stroke-linecap='round' stroke-linejoin='round' brush-type='1' stroke-wetness='0.5'></path><path  style = ' stroke:#000000;  fill:none;  stroke-width:1.0;' d="M174.41 140.58 L174.47 141.05 L174.48 141.95 L174.56 144.08 L174.64 146.98 L174.72 150.09 L174.76 152.83 L174.76 155.00 L174.76 156.53 L174.76 157.55 " stroke-linecap='round' stroke-linejoin='round' brush-type='1' stroke-wetness='0.5'></path><path  style = ' stroke:#000000;  fill:none;  stroke-width:1.0;' d="M170.75 150.71 L171.05 150.71 L171.66 150.71 L172.76 150.71 L173.94 150.71 L174.76 150.71 L175.27 150.71 L175.58 150.71 L175.90 150.91 " stroke-linecap='round' stroke-linejoin='round' brush-type='1' stroke-wetness='0.5'></path><path  style = ' stroke:#000000;  fill:none;  stroke-width:1.0;' d="M178.53 151.30 L178.59 152.95 L178.61 153.62 " stroke-linecap='round' stroke-linejoin='round' brush-type='1' stroke-wetness='0.5'></path><path  style = ' stroke:#000000;  fill:none;  stroke-width:1.0;' d="M178.18 159.67 a0.50 0.50 0 1 0 0.01 0 " stroke-linecap='round' stroke-linejoin='round' brush-type='1' stroke-wetness='0.5'></path><path  style = ' stroke:#000000;  fill:none;  stroke-width:1.0;' d="M180.42 154.48 L180.12 154.72 L179.83 155.00 L179.28 155.51 L178.81 156.02 L178.45 156.45 L178.26 156.80 L178.37 157.04 L178.92 157.27 L179.79 157.51 L180.69 157.82 L181.44 158.06 L182.07 158.29 L182.58 158.49 L182.97 158.65 L183.36 158.81 " stroke-linecap='round' stroke-linejoin='round' brush-type='1' stroke-wetness='0.5'></path><path  style = ' stroke:#000000;  fill:none;  stroke-width:1.0;' d="M179.59 151.54 L179.59 151.89 L179.59 152.52 L179.59 153.97 L179.51 155.78 L179.40 157.43 L179.24 158.57 L179.16 159.16 L179.12 159.51 " stroke-linecap='round' stroke-linejoin='round' brush-type='1' stroke-wetness='0.5'></path><path  style = ' stroke:#000000;  fill:none;  stroke-width:1.0;' d="M193.97 138.22 L193.50 138.46 L192.79 139.24 L191.26 141.13 L189.37 144.11 L187.68 147.41 L186.58 150.67 L186.15 153.42 L186.35 155.74 L187.13 157.51 L188.27 158.84 L189.41 159.67 L190.16 160.10 L190.55 160.18 L190.83 159.98 " stroke-linecap='round' stroke-linejoin='round' brush-type='1' stroke-wetness='0.5'></path><path  style = ' stroke:#000000;  fill:none;  stroke-width:1.0;' d="M195.74 142.35 L195.62 142.70 L195.58 143.64 L195.50 145.76 L195.50 148.83 L195.50 151.97 L195.50 154.68 L195.50 156.57 L195.50 157.71 L195.58 158.26 L195.93 157.98 " stroke-linecap='round' stroke-linejoin='round' brush-type='1' stroke-wetness='0.5'></path><path  style = ' stroke:#000000;  fill:none;  stroke-width:1.0;' d="M200.80 142.23 L200.63 142.76 L200.49 144.08 L200.25 146.47 L200.14 149.61 L200.10 152.36 L200.10 154.68 L200.10 156.13 L200.14 156.88 " stroke-linecap='round' stroke-linejoin='round' brush-type='1' stroke-wetness='0.5'></path><path  style = ' stroke:#000000;  fill:none;  stroke-width:1.0;' d="M195.62 149.30 L196.09 149.54 L196.76 149.61 L198.13 149.81 L199.66 149.97 L201.04 150.16 L201.98 150.36 " stroke-linecap='round' stroke-linejoin='round' brush-type='1' stroke-wetness='0.5'></path><path  style = ' stroke:#000000;  fill:none;  stroke-width:1.0;' d="M206.81 155.55 L207.28 156.13 L207.44 156.72 L207.68 157.74 L207.28 158.69 L206.46 159.43 L205.36 160.10 L204.30 160.53 L203.51 160.77 L203.08 160.77 " stroke-linecap='round' stroke-linejoin='round' brush-type='1' stroke-wetness='0.5'></path><path  style = ' stroke:#000000;  fill:none;  stroke-width:1.0;' d="M214.24 143.76 L214.53 143.41 L215.53 143.21 L217.54 142.74 L220.25 142.39 L222.80 142.07 L225.00 141.88 L226.57 141.80 L227.51 141.80 L227.95 142.19 L227.99 143.13 L227.36 144.82 L226.10 146.98 L224.37 149.42 L222.72 151.81 L221.27 153.86 L220.21 155.35 L219.50 156.21 L219.07 156.72 " stroke-linecap='round' stroke-linejoin='round' brush-type='1' stroke-wetness='0.5'></path><path  style = ' stroke:#000000;  fill:none;  stroke-width:1.0;' d="M224.61 143.64 L223.66 144.41 L222.80 145.57 L221.19 147.77 L219.78 150.20 L218.60 152.36 L217.62 154.05 L217.03 155.07 L216.75 155.55 L217.14 155.78 L218.40 155.98 L220.52 156.10 L223.11 156.13 L225.55 156.10 L227.55 155.98 L228.93 155.78 L229.79 155.62 L230.30 155.55 L230.62 155.43 " stroke-linecap='round' stroke-linejoin='round' brush-type='1' stroke-wetness='0.5'></path><path  style = ' stroke:#000000;  fill:none;  stroke-width:1.0;' d="M232.74 140.70 L233.68 141.23 L234.70 142.43 L236.43 144.78 L237.73 147.65 L238.36 150.28 L238.55 152.52 L238.20 154.37 L237.37 155.82 L236.23 156.96 L235.17 157.82 L234.31 158.37 L233.68 158.73 L233.29 158.88 L232.97 159.08 " stroke-linecap='round' stroke-linejoin='round' brush-type='1' stroke-wetness='0.5'></path><path  style = ' stroke:#000000;  fill:none;  stroke-width:1.0;' d="M248.29 152.60 L248.88 152.48 L249.59 152.44 L251.04 152.36 L252.69 152.44 L254.54 152.56 L256.46 152.68 L258.47 152.76 L260.35 152.80 L262.08 152.83 L263.50 152.83 L264.44 152.83 L264.95 152.83 L264.56 152.60 L263.65 152.28 L262.47 151.89 L261.77 151.70 L261.96 151.81 L262.79 152.25 L263.89 152.95 L264.56 153.58 L264.83 154.09 L264.91 154.52 L264.59 154.96 L263.89 155.39 L262.83 155.78 L261.77 156.10 L260.90 156.37 L260.35 156.57 L260.04 156.88 " stroke-linecap='round' stroke-linejoin='round' brush-type='1' stroke-wetness='0.5'></path><path  style = ' stroke:#000000;  fill:none;  stroke-width:1.0;' d="M272.92 139.87 L272.92 140.52 L272.92 142.27 L272.92 145.73 L272.92 149.93 L272.88 153.42 L272.84 156.02 L272.80 157.71 L272.80 158.61 L273.04 158.69 " stroke-linecap='round' stroke-linejoin='round' brush-type='1' stroke-wetness='0.5'></path><path  style = ' stroke:#000000;  fill:none;  stroke-width:1.0;' d="M277.99 139.17 L277.99 139.64 L277.99 140.58 L277.99 142.98 L277.99 146.39 L277.99 150.12 L277.99 153.35 L277.99 155.74 L278.03 157.35 " stroke-linecap='round' stroke-linejoin='round' brush-type='1' stroke-wetness='0.5'></path><path  style = ' stroke:#000000;  fill:none;  stroke-width:1.0;' d="M273.98 151.42 L274.34 151.07 L275.24 150.95 L276.93 150.71 L278.93 150.71 " stroke-linecap='round' stroke-linejoin='round' brush-type='1' stroke-wetness='0.5'></path><path  style = ' stroke:#000000;  fill:none;  stroke-width:1.0;' d="M282.59 152.01 L282.53 152.95 L282.51 153.86 L282.47 155.74 L282.43 157.63 L282.39 159.43 L282.35 160.89 " stroke-linecap='round' stroke-linejoin='round' brush-type='1' stroke-wetness='0.5'></path><path  style = ' stroke:#000000;  fill:none;  stroke-width:1.0;' d="M286.12 155.19 L285.47 155.37 L284.98 155.43 L284.04 155.70 L283.41 155.98 L283.02 156.37 L282.86 156.68 L282.82 157.00 L282.82 157.27 L282.86 157.59 L283.14 157.90 L283.76 158.26 L284.71 158.61 L285.73 158.92 L286.55 159.16 L287.10 159.28 L287.38 159.20 " stroke-linecap='round' stroke-linejoin='round' brush-type='1' stroke-wetness='0.5'></path><path  style = ' stroke:#000000;  fill:none;  stroke-width:1.0;' d="M297.55 138.93 L296.79 139.28 L295.86 140.34 L294.09 142.58 L292.44 145.80 L291.31 149.06 L290.76 152.13 L290.60 154.52 L290.95 156.37 L291.78 157.67 L293.11 158.61 L294.72 159.16 L296.57 159.28 " stroke-linecap='round' stroke-linejoin='round' brush-type='1' stroke-wetness='0.5'></path><path  style = ' stroke:#000000;  fill:none;  stroke-width:1.0;' d="M305.68 144.70 L304.80 144.41 L303.99 144.66 L302.50 145.29 L301.28 146.79 L300.34 148.63 L299.75 150.83 L299.48 152.99 L299.79 154.92 L300.65 156.29 L302.07 157.16 L303.72 157.55 L305.45 157.55 L306.90 157.16 L307.80 156.45 L308.12 155.55 L307.69 154.68 L306.78 154.01 L305.53 153.62 L304.70 153.46 L304.90 153.58 L305.92 153.86 " stroke-linecap='round' stroke-linejoin='round' brush-type='1' stroke-wetness='0.5'></path><path  style = ' stroke:#000000;  fill:none;  stroke-width:1.0;' d="M313.93 157.31 L313.28 157.90 L312.56 158.45 L311.18 159.39 L309.81 160.14 L308.63 160.57 L307.69 160.81 L307.14 160.69 " stroke-linecap='round' stroke-linejoin='round' brush-type='1' stroke-wetness='0.5'></path><path  style = ' stroke:#000000;  fill:none;  stroke-width:1.0;' d="M317.94 143.05 L318.47 142.94 L319.31 142.90 L321.16 142.82 L323.40 142.78 L325.48 142.74 L327.05 142.70 L327.99 142.70 L328.50 142.90 L328.70 143.53 L328.62 144.74 L328.03 146.51 L326.93 148.47 L325.44 150.44 L323.99 152.17 L322.81 153.54 L322.06 154.48 L321.71 154.96 L321.75 154.80 " stroke-linecap='round' stroke-linejoin='round' brush-type='1' stroke-wetness='0.5'></path><path  style = ' stroke:#000000;  fill:none;  stroke-width:1.0;' d="M325.95 142.70 L325.77 143.11 L325.64 143.68 L325.13 145.02 L324.38 146.86 L323.28 148.99 L322.14 151.11 L321.12 152.83 L320.33 154.05 L319.90 154.68 L319.71 155.00 L320.10 155.23 L321.04 155.43 L322.69 155.55 L324.58 155.55 L326.38 155.58 L327.80 155.62 L328.74 155.66 L329.25 155.66 L329.57 155.31 " stroke-linecap='round' stroke-linejoin='round' brush-type='1' stroke-wetness='0.5'></path><path  style = ' stroke:#000000;  fill:none;  stroke-width:1.0;' d="M332.31 137.87 L332.96 138.69 L333.81 139.99 L335.26 142.62 L336.40 145.57 L336.95 148.32 L337.11 150.71 L336.83 152.87 L336.16 154.72 L335.14 156.29 L334.16 157.59 L333.26 158.65 L332.51 159.39 L331.96 159.87 L331.61 160.06 L331.29 160.18 L330.98 160.30 " stroke-linecap='round' stroke-linejoin='round' brush-type='1' stroke-wetness='0.5'></path><path  style = ' stroke:#000000;  fill:none;  stroke-width:1.0;' d="M357.18 152.83 L356.06 153.25 L354.63 154.41 L352.70 156.45 L351.64 158.41 L352.07 159.36 L353.17 159.28 L354.59 158.53 L355.88 157.27 L356.71 155.86 L357.10 154.68 L357.18 153.93 L356.90 153.74 L356.55 154.25 L356.20 155.43 L356.16 157.12 L356.32 158.61 " stroke-linecap='round' stroke-linejoin='round' brush-type='1' stroke-wetness='0.5'></path><path  style = ' stroke:#000000;  fill:none;  stroke-width:1.0;' d="M360.95 158.96 L360.83 158.08 L360.79 157.35 L360.71 155.86 L360.75 154.56 L361.03 153.42 L361.50 152.64 L362.21 152.25 L362.95 152.32 L363.70 153.07 L364.37 154.41 L364.96 156.13 L365.74 157.74 " stroke-linecap='round' stroke-linejoin='round' brush-type='1' stroke-wetness='0.5'></path><path  style = ' stroke:#000000;  fill:none;  stroke-width:1.0;' d="M373.68 153.66 L372.85 153.31 L372.18 153.23 L370.81 153.35 L369.67 154.21 L368.81 155.70 L368.37 157.47 L368.37 159.00 L368.89 159.87 L369.87 159.83 L371.12 158.81 L372.34 157.00 L373.32 154.45 L374.07 151.38 L374.54 147.85 L374.86 144.39 L375.09 141.60 L375.25 140.03 L375.33 140.34 L375.33 142.82 L375.33 147.30 L375.60 152.56 L376.15 156.61 " stroke-linecap='round' stroke-linejoin='round' brush-type='1' stroke-wetness='0.5'></path><path  style = ' stroke:#000000;  fill:none;  stroke-width:1.0;' d="M417.87 144.23 L417.40 143.47 L416.45 142.94 L414.61 141.99 L412.29 141.52 L410.13 141.33 L408.32 141.29 L407.14 141.29 L406.56 141.29 L406.36 141.72 L406.48 142.86 L407.07 144.98 L407.97 147.57 L408.91 150.28 L409.58 152.64 L409.97 154.48 L410.17 155.78 L410.21 156.53 L410.13 156.92 " stroke-linecap='round' stroke-linejoin='round' brush-type='1' stroke-wetness='0.5'></path><path  style = ' stroke:#000000;  fill:none;  stroke-width:1.0;' d="M405.49 150.83 L405.97 150.54 L406.99 150.44 L408.91 150.24 L411.27 150.24 L413.51 150.24 " stroke-linecap='round' stroke-linejoin='round' brush-type='1' stroke-wetness='0.5'></path><path  style = ' stroke:#000000;  fill:none;  stroke-width:1.0;' d="M424.59 137.87 L424.59 138.81 L424.59 140.27 L424.59 142.74 L424.59 145.02 L424.59 146.27 L424.59 146.82 " stroke-linecap='round' stroke-linejoin='round' brush-type='1' stroke-wetness='0.5'></path><path  style = ' stroke:#000000;  fill:none;  stroke-width:1.0;' d="M421.76 142.11 L422.23 141.40 L423.01 141.17 L424.47 140.70 L425.96 140.70 L426.94 140.70 L427.45 140.70 L427.22 140.62 L426.63 140.70 L425.72 141.25 L425.02 142.31 L424.43 143.56 L424.11 144.51 " stroke-linecap='round' stroke-linejoin='round' brush-type='1' stroke-wetness='0.5'></path><path  style = ' stroke:#000000;  fill:none;  stroke-width:1.0;' d="M423.29 145.29 L422.94 143.11 L423.76 142.46 L425.21 141.29 L427.61 141.72 L429.61 142.27 L431.03 142.70 " stroke-linecap='round' stroke-linejoin='round' brush-type='1' stroke-wetness='0.5'></path><path  style = ' stroke:#000000;  fill:none;  stroke-width:1.0;' d="M438.61 146.24 L438.49 145.59 L438.45 145.10 L438.53 144.19 L438.88 143.68 L439.43 143.45 L439.90 143.41 L440.22 143.49 L440.34 143.72 L440.26 144.00 L439.87 144.31 L439.20 144.51 L438.53 144.70 L438.06 144.82 " stroke-linecap='round' stroke-linejoin='round' brush-type='1' stroke-wetness='0.5'></path><path  style = ' stroke:#000000;  fill:none;  stroke-width:1.0;' d="M440.85 154.72 L440.26 154.01 L440.06 153.54 L439.67 152.64 L439.79 152.09 L440.14 151.77 L440.69 151.81 L441.24 152.32 L441.55 153.11 L441.52 153.93 L441.04 154.52 L440.30 154.84 L439.51 154.96 L438.92 154.68 L438.57 154.13 L438.41 153.38 L438.49 152.87 L438.80 152.64 L439.24 152.68 L439.67 153.07 L439.94 153.70 L440.18 154.29 " stroke-linecap='round' stroke-linejoin='round' brush-type='1' stroke-wetness='0.5'></path><path  style = ' stroke:#000000;  fill:none;  stroke-width:1.0;' d="M448.39 140.23 L448.21 140.64 L448.15 141.21 L448.04 142.82 L448.04 145.37 L448.04 148.83 L448.04 153.38 L448.04 157.19 L448.04 159.83 L448.08 160.49 L448.23 160.49 " stroke-linecap='round' stroke-linejoin='round' brush-type='1' stroke-wetness='0.5'></path><path  style = ' stroke:#000000;  fill:none;  stroke-width:1.0;' d="M452.40 140.70 L452.45 141.05 L452.47 142.70 L452.51 145.88 L452.51 149.93 L452.51 153.31 L452.51 155.82 L452.51 157.51 L452.55 158.81 " stroke-linecap='round' stroke-linejoin='round' brush-type='1' stroke-wetness='0.5'></path><path  style = ' stroke:#000000;  fill:none;  stroke-width:1.0;' d="M448.51 150.60 L448.92 150.48 L449.84 150.48 L451.49 150.60 L453.34 150.95 L454.67 151.38 " stroke-linecap='round' stroke-linejoin='round' brush-type='1' stroke-wetness='0.5'></path><path  style = ' stroke:#000000;  fill:none;  stroke-width:1.0;' d="M457.82 137.87 L457.76 138.69 L457.74 139.91 L457.70 142.15 L457.70 144.43 L457.74 146.16 L457.82 147.22 " stroke-linecap='round' stroke-linejoin='round' brush-type='1' stroke-wetness='0.5'></path><path  style = ' stroke:#000000;  fill:none;  stroke-width:1.0;' d="M462.06 140.46 L461.47 140.70 L460.80 141.09 L459.74 141.84 L458.92 142.66 L458.56 143.25 L458.41 143.68 L458.56 143.96 L459.19 144.23 L460.25 144.51 L461.43 144.78 L462.26 145.06 L462.69 145.25 L462.96 145.45 " stroke-linecap='round' stroke-linejoin='round' brush-type='1' stroke-wetness='0.5'></path><path  style = ' stroke:#000000;  fill:none;  stroke-width:1.0;' d="M469.01 137.40 L468.54 138.16 L467.75 139.87 L466.34 143.25 L465.01 147.34 L464.26 151.03 L463.98 154.09 L464.18 156.53 L464.89 158.29 L466.18 159.47 L467.87 160.06 L469.52 160.26 " stroke-linecap='round' stroke-linejoin='round' brush-type='1' stroke-wetness='0.5'></path><path  style = ' stroke:#000000;  fill:none;  stroke-width:1.0;' d="M480.80 138.58 L480.38 138.46 L479.81 138.93 L478.64 140.19 L477.22 142.50 L475.93 145.41 L474.98 148.55 L474.51 151.54 L474.35 154.05 L474.55 155.94 L475.22 157.27 L476.48 158.06 L478.09 158.41 L479.93 158.10 L481.74 157.19 L483.35 155.86 L484.41 154.52 L484.92 153.42 L484.76 152.52 L483.94 151.97 L482.56 151.70 L481.07 151.81 L479.89 152.13 L479.22 152.52 L478.99 152.87 L479.26 153.11 " stroke-linecap='round' stroke-linejoin='round' brush-type='1' stroke-wetness='0.5'></path><path  style = ' stroke:#000000;  fill:none;  stroke-width:1.0;' d="M488.81 156.02 L488.28 156.84 L487.63 157.78 L486.41 159.43 L485.23 160.81 L484.37 161.56 " stroke-linecap='round' stroke-linejoin='round' brush-type='1' stroke-wetness='0.5'></path><path  style = ' stroke:#000000;  fill:none;  stroke-width:1.0;' d="M492.23 142.11 L492.70 142.23 L493.44 142.27 L495.09 142.35 L497.18 142.19 L499.30 141.91 L501.03 141.60 L502.16 141.44 L502.75 141.44 L502.99 141.91 L502.83 143.01 L502.09 144.94 L500.83 147.26 L499.38 149.73 L498.08 151.97 L497.10 153.78 L496.51 154.96 L496.27 155.55 L496.35 155.11 " stroke-linecap='round' stroke-linejoin='round' brush-type='1' stroke-wetness='0.5'></path><path  style = ' stroke:#000000;  fill:none;  stroke-width:1.0;' d="M500.24 141.88 L499.65 142.41 L499.02 143.60 L497.73 145.92 L496.35 148.75 L495.02 151.38 L493.96 153.46 L493.29 154.84 L493.09 155.43 L493.68 155.62 L495.13 155.66 L497.29 155.66 L499.53 155.58 L501.50 155.35 L502.95 155.00 L503.85 154.56 L504.33 154.17 " stroke-linecap='round' stroke-linejoin='round' brush-type='1' stroke-wetness='0.5'></path><path  style = ' stroke:#000000;  fill:none;  stroke-width:1.0;' d="M504.72 139.64 L505.37 139.87 L506.25 140.54 L507.82 142.03 L509.24 144.23 L510.10 146.71 L510.49 149.18 L510.30 151.58 L509.55 153.70 L508.21 155.58 L506.68 157.08 L505.15 158.18 L503.81 158.88 L502.83 159.20 L502.28 159.28 L502.36 158.84 " stroke-linecap='round' stroke-linejoin='round' brush-type='1' stroke-wetness='0.5'></path><path  style = ' stroke:#000000;  fill:none;  stroke-width:1.0;' d="M517.21 151.07 L518.80 150.95 L523.85 150.56 L528.91 149.97 L532.37 149.38 L530.92 149.10 L529.78 148.99 L529.15 148.95 L529.46 149.42 L530.53 150.28 L532.06 151.54 L533.24 152.60 L533.90 153.50 L534.14 154.21 L533.98 154.80 L533.39 155.31 L532.33 155.74 L531.11 156.10 L530.05 156.37 L529.35 156.61 L528.99 156.84 " stroke-linecap='round' stroke-linejoin='round' brush-type='1' stroke-wetness='0.5'></path><path  style = ' stroke:#000000;  fill:none;  stroke-width:1.0;' d="M540.19 135.16 L540.19 135.87 L540.19 137.67 L540.19 141.36 L540.19 146.12 L540.19 150.48 L540.19 153.97 L540.19 156.57 L540.19 158.29 L540.19 159.36 L540.31 159.47 " stroke-linecap='round' stroke-linejoin='round' brush-type='1' stroke-wetness='0.5'></path><path  style = ' stroke:#000000;  fill:none;  stroke-width:1.0;' d="M543.61 138.69 L543.43 139.05 L543.37 140.19 L543.25 143.05 L543.29 147.22 L543.41 151.42 L543.61 154.96 L543.88 157.59 L544.16 159.36 L544.43 160.14 " stroke-linecap='round' stroke-linejoin='round' brush-type='1' stroke-wetness='0.5'></path><path  style = ' stroke:#000000;  fill:none;  stroke-width:1.0;' d="M539.60 149.77 L540.01 149.77 L540.54 149.77 L541.76 149.77 L543.25 149.77 L544.94 149.73 L546.67 149.42 " stroke-linecap='round' stroke-linejoin='round' brush-type='1' stroke-wetness='0.5'></path><path  style = ' stroke:#000000;  fill:none;  stroke-width:1.0;' d="M550.44 134.33 L550.44 134.92 L550.44 135.71 L550.44 137.44 L550.40 139.60 L550.36 141.84 L550.32 143.72 " stroke-linecap='round' stroke-linejoin='round' brush-type='1' stroke-wetness='0.5'></path><path  style = ' stroke:#000000;  fill:none;  stroke-width:1.0;' d="M553.98 136.93 L553.45 137.22 L552.95 137.59 L552.09 138.26 L551.50 138.89 L551.23 139.32 L551.15 139.72 L551.38 140.11 L551.97 140.54 L552.84 140.89 L553.74 141.13 L554.57 141.25 L555.27 141.29 " stroke-linecap='round' stroke-linejoin='round' brush-type='1' stroke-wetness='0.5'></path><path  style = ' stroke:#000000;  fill:none;  stroke-width:1.0;' d="M560.93 135.04 L560.16 135.81 L559.40 137.48 L557.86 140.89 L556.49 145.18 L555.51 149.30 L555.04 152.72 L555.35 155.27 L556.33 156.84 L557.83 157.71 L559.48 158.06 L561.20 157.71 L562.97 156.57 L564.66 154.76 L565.84 152.99 " stroke-linecap='round' stroke-linejoin='round' brush-type='1' stroke-wetness='0.5'></path><path  style = ' stroke:#000000;  fill:none;  stroke-width:1.0;' d="M567.17 142.11 L566.88 140.23 L566.78 141.01 L566.59 142.39 L566.59 146.00 L566.55 149.02 L566.47 151.42 L566.39 153.15 L566.35 154.09 " stroke-linecap='round' stroke-linejoin='round' brush-type='1' stroke-wetness='0.5'></path><path  style = ' stroke:#000000;  fill:none;  stroke-width:1.0;' d="M570.00 138.46 L570.00 139.34 L570.00 140.93 L569.96 144.04 L569.92 147.53 L569.88 150.64 L569.88 153.07 L569.96 154.76 L570.08 155.58 " stroke-linecap='round' stroke-linejoin='round' brush-type='1' stroke-wetness='0.5'></path><path  style = ' stroke:#000000;  fill:none;  stroke-width:1.0;' d="M567.41 147.53 L567.94 147.77 L568.67 148.04 L570.00 148.71 " stroke-linecap='round' stroke-linejoin='round' brush-type='1' stroke-wetness='0.5'></path><path  style = ' stroke:#000000;  fill:none;  stroke-width:1.0;' d="M575.54 154.96 L575.31 155.84 L575.03 156.72 L574.40 158.26 L573.54 159.47 L572.56 160.22 L571.77 160.61 " stroke-linecap='round' stroke-linejoin='round' brush-type='1' stroke-wetness='0.5'></path><path  style = ' stroke:#000000;  fill:none;  stroke-width:1.0;' d="M582.73 138.69 L583.08 138.81 L583.95 138.85 L585.68 138.93 L587.95 138.93 L590.23 138.93 L592.31 138.93 L593.92 138.93 L594.91 139.09 L595.34 139.56 L595.26 140.70 L594.32 142.62 L592.63 145.21 L590.43 147.96 L588.50 150.52 L587.09 152.60 L586.34 154.09 L586.11 154.88 " stroke-linecap='round' stroke-linejoin='round' brush-type='1' stroke-wetness='0.5'></path><path  style = ' stroke:#000000;  fill:none;  stroke-width:1.0;' d="M592.98 139.52 L592.27 140.17 L591.72 140.89 L590.43 142.70 L588.98 145.18 L587.29 148.28 L585.64 151.46 L584.34 154.21 L583.48 156.13 L583.04 157.23 L582.89 157.71 L583.40 157.86 L584.61 157.90 L586.70 157.71 L589.01 157.31 L591.49 156.72 L593.73 156.21 L595.57 155.86 L596.79 155.70 L597.42 155.66 L597.77 155.66 L598.05 155.51 " stroke-linecap='round' stroke-linejoin='round' brush-type='1' stroke-wetness='0.5'></path><path  style = ' stroke:#000000;  fill:none;  stroke-width:1.0;' d="M601.82 136.22 L602.17 136.75 L602.61 137.63 L603.71 139.72 L604.96 142.62 L606.06 145.80 L606.61 148.95 L606.46 151.77 L605.51 154.37 L603.86 156.72 L601.58 158.88 L598.91 160.81 L596.01 162.34 L593.18 163.32 L590.98 163.79 " stroke-linecap='round' stroke-linejoin='round' brush-type='1' stroke-wetness='0.5'></path><path  style = ' stroke:#000000;  fill:none;  stroke-width:1.0;' d="M45.13 98.27 L45.19 97.80 L45.21 96.86 L45.25 95.13 L45.25 92.85 L45.25 90.46 L45.17 87.71 L45.02 84.92 L44.78 82.29 L44.54 80.09 L44.27 78.52 L44.03 77.61 L44.19 77.26 L45.05 77.18 L46.59 77.18 L48.51 77.22 L50.48 77.26 L52.20 77.38 L53.34 77.53 L53.85 77.85 " stroke-linecap='round' stroke-linejoin='round' brush-type='1' stroke-wetness='0.5'></path><path  style = ' stroke:#000000;  fill:none;  stroke-width:1.0;' d="M44.19 85.78 L44.72 85.72 L45.96 85.63 L48.35 85.27 L51.14 84.88 L53.07 84.56 " stroke-linecap='round' stroke-linejoin='round' brush-type='1' stroke-wetness='0.5'></path><path  style = ' stroke:#000000;  fill:none;  stroke-width:1.0;' d="M43.37 94.50 L44.13 94.68 L45.09 94.74 L47.14 94.78 L49.61 94.54 L52.16 94.11 L54.17 93.64 " stroke-linecap='round' stroke-linejoin='round' brush-type='1' stroke-wetness='0.5'></path><path  style = ' stroke:#000000;  fill:none;  stroke-width:1.0;' d="M55.03 85.66 L55.56 86.49 L56.09 87.39 L57.31 89.32 L58.65 91.48 L60.10 93.56 L61.40 95.21 L62.38 96.11 " stroke-linecap='round' stroke-linejoin='round' brush-type='1' stroke-wetness='0.5'></path><path  style = ' stroke:#000000;  fill:none;  stroke-width:1.0;' d="M61.40 86.84 L60.34 87.73 L59.59 88.61 L58.14 90.34 L57.19 91.99 L56.45 93.44 L56.05 94.42 " stroke-linecap='round' stroke-linejoin='round' brush-type='1' stroke-wetness='0.5'></path><path  style = ' stroke:#000000;  fill:none;  stroke-width:1.0;' d="M63.28 91.56 L63.93 91.62 L64.85 91.64 L66.46 91.64 L68.07 91.40 L69.21 90.93 L69.96 90.26 L70.27 89.51 L69.96 88.85 L69.02 88.41 L67.44 88.38 L65.64 89.04 L63.91 90.34 L62.57 92.11 L61.87 93.87 L61.83 95.52 L62.77 96.98 L64.50 98.27 " stroke-linecap='round' stroke-linejoin='round' brush-type='1' stroke-wetness='0.5'></path><path  style = ' stroke:#000000;  fill:none;  stroke-width:1.0;' d="M68.47 100.40 L69.88 99.04 L70.31 97.57 L71.22 94.94 L71.22 92.66 L71.53 91.12 L72.24 90.22 L73.45 89.87 L75.07 89.79 L76.56 90.02 " stroke-linecap='round' stroke-linejoin='round' brush-type='1' stroke-wetness='0.5'></path><path  style = ' stroke:#000000;  fill:none;  stroke-width:1.0;' d="M83.79 89.44 L82.43 89.61 L80.96 90.02 L78.37 91.09 L76.24 92.74 L75.07 94.66 L74.55 96.55 L74.95 98.04 L76.24 99.02 L78.56 99.45 L81.15 99.22 " stroke-linecap='round' stroke-linejoin='round' brush-type='1' stroke-wetness='0.5'></path><path  style = ' stroke:#000000;  fill:none;  stroke-width:1.0;' d="M88.50 91.44 L88.38 91.91 L88.34 92.70 L88.19 94.31 L88.11 96.35 L88.03 98.31 L88.26 99.77 " stroke-linecap='round' stroke-linejoin='round' brush-type='1' stroke-wetness='0.5'></path><path  style = ' stroke:#000000;  fill:none;  stroke-width:1.0;' d="M97.93 88.61 L97.22 88.85 L96.24 89.32 L94.78 90.14 L93.72 90.97 L93.45 91.64 L93.92 92.34 L95.14 93.17 L96.75 94.03 L97.97 94.90 L98.52 95.76 L98.12 96.78 L96.91 97.84 L94.98 98.86 L93.13 99.49 " stroke-linecap='round' stroke-linejoin='round' brush-type='1' stroke-wetness='0.5'></path><path  style = ' stroke:#000000;  fill:none;  stroke-width:1.0;' d="M99.81 94.27 L100.93 94.44 L101.54 94.50 L102.80 94.62 L103.58 94.54 L104.33 94.31 L104.92 93.87 L105.27 93.32 L105.43 92.74 L105.27 92.19 L104.64 91.83 L103.54 91.83 L102.29 92.54 L101.27 93.80 L100.68 95.33 L100.44 96.66 L100.40 97.65 L100.76 98.39 L101.85 98.86 L103.70 99.14 L105.98 99.06 L108.02 98.59 L109.48 98.00 " stroke-linecap='round' stroke-linejoin='round' brush-type='1' stroke-wetness='0.5'></path><path  style = ' stroke:#000000;  fill:none;  stroke-width:1.0;' d="M111.36 86.37 L112.07 85.90 L112.62 85.74 L113.72 85.43 L114.46 85.55 L114.94 85.82 L115.01 86.29 L114.62 86.76 L113.87 87.12 L112.97 87.28 L112.38 87.31 L112.11 87.16 L112.07 86.80 L112.19 86.33 L112.62 86.02 L113.48 85.94 " stroke-linecap='round' stroke-linejoin='round' brush-type='1' stroke-wetness='0.5'></path><path  style = ' stroke:#000000;  fill:none;  stroke-width:1.0;' d="M112.54 94.97 L112.89 94.15 L113.56 93.84 L114.66 93.25 L115.72 93.21 L116.27 93.25 L116.43 93.56 L116.00 94.07 L115.13 94.66 L114.07 95.01 L113.21 95.17 L112.70 95.09 L112.42 94.78 L112.34 94.31 L112.74 93.87 L113.60 93.64 L114.86 93.64 " stroke-linecap='round' stroke-linejoin='round' brush-type='1' stroke-wetness='0.5'></path><path  style = ' stroke:#000000;  fill:none;  stroke-width:1.0;' d="M120.67 99.10 L120.14 98.98 L119.57 98.94 L118.20 98.86 L116.39 98.86 L113.95 98.86 L110.97 98.90 L107.28 98.98 L102.99 99.06 L97.81 99.10 L91.80 99.10 L84.96 99.10 L77.70 99.14 L70.08 99.22 L62.18 99.30 L54.29 99.33 L46.27 99.37 L40.07 99.49 " stroke-linecap='round' stroke-linejoin='round' brush-type='1' stroke-wetness='0.5'></path><path  style = ' stroke:#000000;  fill:none;  stroke-width:1.0;' d="M56.45 180.76 L56.98 180.47 L57.39 180.37 L58.57 180.13 L60.10 179.94 L62.18 179.66 L64.42 179.31 L66.50 179.00 L68.35 178.60 L69.68 178.25 " stroke-linecap='round' stroke-linejoin='round' brush-type='1' stroke-wetness='0.5'></path><path  style = ' stroke:#000000;  fill:none;  stroke-width:1.0;' d="M73.89 172.99 L74.12 173.52 L74.24 174.52 L74.71 176.56 L75.34 179.00 L76.32 181.23 L77.38 182.85 L78.48 183.75 L79.43 183.91 L80.25 183.24 L80.84 181.78 L81.31 179.35 L81.63 176.64 L81.82 174.09 L81.94 172.48 L82.06 171.73 L82.21 171.77 L82.37 172.67 L82.49 174.67 L82.76 177.46 L83.35 180.37 L84.30 182.61 L85.20 183.91 " stroke-linecap='round' stroke-linejoin='round' brush-type='1' stroke-wetness='0.5'></path><path  style = ' stroke:#000000;  fill:none;  stroke-width:1.0;' d="M91.68 172.75 L91.27 173.22 L91.05 173.58 L90.66 174.91 L91.09 176.64 L92.11 178.72 L93.25 180.21 L93.84 181.20 L93.76 181.86 L93.25 182.53 L92.35 183.20 L91.33 183.75 L90.42 184.10 " stroke-linecap='round' stroke-linejoin='round' brush-type='1' stroke-wetness='0.5'></path><path  style = ' stroke:#000000;  fill:none;  stroke-width:1.0;' d="M95.45 179.47 L96.34 179.35 L96.91 179.31 L98.08 179.23 L98.87 179.19 L99.46 179.04 L99.81 178.72 L99.97 178.25 L100.01 177.62 L99.73 176.91 L99.22 176.32 L98.48 176.01 L97.69 176.21 L96.94 177.15 L96.39 178.88 L96.12 181.04 L96.04 183.04 L96.32 184.53 L97.18 185.48 L98.87 185.95 L101.46 186.14 L104.02 186.14 " stroke-linecap='round' stroke-linejoin='round' brush-type='1' stroke-wetness='0.5'></path><path  style = ' stroke:#000000;  fill:none;  stroke-width:1.0;' d="M126.33 194.55 L126.21 194.08 L126.13 193.25 L125.78 191.33 L125.19 188.54 L124.44 185.24 L123.85 181.98 L123.54 179.19 L123.42 177.15 L123.42 175.81 L123.66 175.19 L124.28 174.99 L125.46 175.15 L126.92 175.74 L128.17 176.80 L128.84 178.33 L128.76 180.02 L127.98 181.75 L126.72 183.20 L125.38 184.18 L124.40 184.77 " stroke-linecap='round' stroke-linejoin='round' brush-type='1' stroke-wetness='0.5'></path><path  style = ' stroke:#000000;  fill:none;  stroke-width:1.0;' d="M133.99 182.06 L134.58 181.94 L135.01 181.86 L135.95 181.51 L136.70 181.00 L137.36 180.29 L137.76 179.59 L137.95 178.92 L137.80 178.33 L137.29 177.97 L136.34 177.97 L135.20 178.60 L134.10 179.78 L133.36 181.31 L133.00 182.81 L132.93 184.06 L133.12 185.05 L133.87 185.71 L135.36 186.11 L137.52 186.26 L139.56 186.18 " stroke-linecap='round' stroke-linejoin='round' brush-type='1' stroke-wetness='0.5'></path><path  style = ' stroke:#000000;  fill:none;  stroke-width:1.0;' d="M145.30 181.00 L144.77 180.17 L144.59 179.55 L144.24 178.41 L144.40 177.54 L144.95 176.72 L146.05 175.81 L147.26 175.07 " stroke-linecap='round' stroke-linejoin='round' brush-type='1' stroke-wetness='0.5'></path><path  style = ' stroke:#000000;  fill:none;  stroke-width:1.0;' d="M153.55 178.29 L153.67 178.94 L153.71 179.59 L153.78 180.96 L153.78 182.45 L153.82 184.06 L153.90 185.63 L154.18 187.01 " stroke-linecap='round' stroke-linejoin='round' brush-type='1' stroke-wetness='0.5'></path><path  style = ' stroke:#000000;  fill:none;  stroke-width:1.0;' d="M161.68 181.59 L160.62 181.88 L159.79 182.30 L158.22 183.32 L157.20 184.69 L156.65 186.38 L156.89 187.95 L158.10 189.09 L160.34 189.44 L162.94 188.82 L165.18 187.48 L166.51 185.91 L167.10 184.61 L166.71 183.59 L165.65 182.85 L164.11 182.41 L162.86 182.30 L162.11 182.33 L161.88 182.53 " stroke-linecap='round' stroke-linejoin='round' brush-type='1' stroke-wetness='0.5'></path><path  style = ' stroke:#000000;  fill:none;  stroke-width:1.0;' d="M174.76 181.82 L173.82 182.00 L172.76 182.37 L170.91 183.36 L169.42 184.77 L168.63 186.34 L168.32 187.68 L168.71 188.62 L169.69 189.09 L171.30 188.93 L173.15 187.83 L174.92 185.67 L176.37 182.57 L177.20 178.72 L177.55 174.71 L177.51 171.26 L177.31 169.10 L177.08 168.12 L176.80 168.51 L176.65 170.47 L176.53 174.05 L176.53 178.33 L176.53 182.18 L176.57 185.08 L176.72 186.93 L176.92 187.87 " stroke-linecap='round' stroke-linejoin='round' brush-type='1' stroke-wetness='0.5'></path><path  style = ' stroke:#000000;  fill:none;  stroke-width:1.0;' d="M180.42 181.35 L180.65 182.18 L180.73 183.08 L180.89 184.97 L180.89 187.09 L180.89 189.17 L180.85 190.94 L180.77 192.04 " stroke-linecap='round' stroke-linejoin='round' brush-type='1' stroke-wetness='0.5'></path><path  style = ' stroke:#000000;  fill:none;  stroke-width:1.0;' d="M183.72 176.05 a0.50 0.50 0 1 0 0.01 0 " stroke-linecap='round' stroke-linejoin='round' brush-type='1' stroke-wetness='0.5'></path><path  style = ' stroke:#000000;  fill:none;  stroke-width:1.0;' d="M190.90 177.58 L189.96 178.17 L189.29 178.88 L188.08 180.45 L187.33 182.45 L186.94 184.69 L186.78 186.77 L187.17 188.31 L188.23 189.13 L190.08 189.44 L192.16 189.44 L194.13 189.01 L195.50 188.38 " stroke-linecap='round' stroke-linejoin='round' brush-type='1' stroke-wetness='0.5'></path><path  style = ' stroke:#000000;  fill:none;  stroke-width:1.0;' d="M143.89 174.05 L143.89 174.69 L143.89 175.46 L143.89 177.23 L143.89 179.43 L143.89 181.82 L143.96 184.10 L144.16 186.03 L144.59 187.48 L145.22 188.34 L145.89 188.70 " stroke-linecap='round' stroke-linejoin='round' brush-type='1' stroke-wetness='0.5'></path><path  style = ' stroke:#000000;  fill:none;  stroke-width:1.0;' d="M155.08 173.10 a0.50 0.50 0 1 0 0.01 0 " stroke-linecap='round' stroke-linejoin='round' brush-type='1' stroke-wetness='0.5'></path><path  style = ' stroke:#000000;  fill:none;  stroke-width:1.0;' d="M209.99 192.43 L209.64 191.31 L209.52 190.47 L209.21 188.54 L209.05 186.58 L208.78 184.26 L208.50 181.98 L208.27 179.98 L208.15 178.56 L208.11 177.62 L208.34 177.03 L209.05 176.60 L210.47 176.32 L212.23 176.21 L214.00 176.21 L215.26 176.36 L216.32 176.99 " stroke-linecap='round' stroke-linejoin='round' brush-type='1' stroke-wetness='0.5'></path><path  style = ' stroke:#000000;  fill:none;  stroke-width:1.0;' d="M215.89 183.83 L216.18 184.24 L216.71 184.38 L217.81 184.57 L219.19 184.26 L220.48 183.59 L221.58 182.65 L222.29 181.63 L222.64 180.68 L222.37 179.90 L221.50 179.43 L220.01 179.35 L218.28 180.13 L216.63 181.67 L215.42 183.79 L214.79 185.87 L214.83 187.64 L215.89 188.89 L217.93 189.52 L220.44 189.56 " stroke-linecap='round' stroke-linejoin='round' brush-type='1' stroke-wetness='0.5'></path><path  style = ' stroke:#000000;  fill:none;  stroke-width:1.0;' d="M232.50 178.64 L231.62 178.76 L230.77 178.88 L229.28 179.27 L228.14 179.82 L227.55 180.41 L227.32 180.92 L227.91 181.43 L229.32 182.02 L231.44 182.65 L233.41 183.24 L234.70 183.79 L235.33 184.38 L235.33 185.16 L234.62 186.14 L233.21 187.24 L231.44 188.19 L229.83 188.86 L228.85 189.21 L229.20 189.09 " stroke-linecap='round' stroke-linejoin='round' brush-type='1' stroke-wetness='0.5'></path><path  style = ' stroke:#000000;  fill:none;  stroke-width:1.0;' d="M243.11 181.35 L242.40 181.77 L241.73 182.22 L240.44 183.24 L239.30 184.53 L238.59 186.03 L238.32 187.36 L238.98 188.19 L240.40 188.34 L242.44 187.64 L244.29 186.38 L245.54 184.89 L246.13 183.63 L245.90 182.45 L244.92 181.43 L243.30 180.72 L241.65 180.45 L240.52 180.41 " stroke-linecap='round' stroke-linejoin='round' brush-type='1' stroke-wetness='0.5'></path><path  style = ' stroke:#000000;  fill:none;  stroke-width:1.0;' d="M251.83 171.81 L251.53 172.63 L251.44 173.77 L251.24 176.21 L251.24 179.15 L251.28 182.14 L251.48 184.65 L251.95 186.30 L252.81 187.05 " stroke-linecap='round' stroke-linejoin='round' brush-type='1' stroke-wetness='0.5'></path><path  style = ' stroke:#000000;  fill:none;  stroke-width:1.0;' d="M260.08 179.00 L259.72 179.41 L259.57 180.10 L259.21 181.39 L259.06 182.92 L258.94 184.34 L259.13 185.48 L259.72 186.14 L260.67 186.11 L261.69 185.24 L262.55 183.71 L263.18 181.90 L263.57 180.49 L263.81 179.66 L264.01 180.21 L264.12 181.86 L264.20 184.30 L264.24 186.46 L264.40 187.83 L264.67 188.46 " stroke-linecap='round' stroke-linejoin='round' brush-type='1' stroke-wetness='0.5'></path><path  style = ' stroke:#000000;  fill:none;  stroke-width:1.0;' d="M270.09 176.76 L270.09 177.46 L270.09 178.96 L270.09 181.39 L270.09 184.06 L270.17 185.95 " stroke-linecap='round' stroke-linejoin='round' brush-type='1' stroke-wetness='0.5'></path><path  style = ' stroke:#000000;  fill:none;  stroke-width:1.0;' d="M270.09 177.46 L271.10 177.40 L272.02 177.42 L273.63 177.62 L274.81 178.25 L275.51 179.43 L275.87 181.08 L275.99 182.96 L275.99 184.85 L276.03 186.46 " stroke-linecap='round' stroke-linejoin='round' brush-type='1' stroke-wetness='0.5'></path><path  style = ' stroke:#000000;  fill:none;  stroke-width:1.0;' d="M282.82 182.18 L281.82 183.00 L281.05 184.22 L279.95 186.38 L279.52 188.54 L279.95 189.92 L281.09 190.58 L282.90 190.15 L284.82 188.86 L286.36 186.97 L287.22 185.05 L287.34 183.36 L286.67 182.06 L285.53 181.31 L284.20 181.23 L283.10 181.86 L282.47 183.20 L282.43 184.89 L282.90 186.38 " stroke-linecap='round' stroke-linejoin='round' brush-type='1' stroke-wetness='0.5'></path><path  style = ' stroke:#000000;  fill:none;  stroke-width:1.0;' d="M292.37 189.13 L292.19 188.48 L292.13 187.83 L291.97 186.42 L291.93 184.89 L291.90 183.36 L292.05 182.02 L292.52 181.00 L293.43 180.33 L294.64 180.02 L295.90 180.45 L296.96 181.55 L297.67 183.36 L298.14 185.12 L298.69 186.54 " stroke-linecap='round' stroke-linejoin='round' brush-type='1' stroke-wetness='0.5'></path><path  style = ' stroke:#000000;  fill:none;  stroke-width:1.0;' d="M306.04 178.41 L305.09 178.82 L304.31 179.19 L302.85 180.06 L301.87 180.92 L301.36 181.82 L301.48 182.53 L302.38 183.16 L303.91 183.75 L305.56 184.38 L306.86 185.08 L307.61 185.79 L307.96 186.54 L307.65 187.28 L306.51 188.07 L304.50 188.74 L301.99 189.17 " stroke-linecap='round' stroke-linejoin='round' brush-type='1' stroke-wetness='0.5'></path><path  style = ' stroke:#000000;  fill:none;  stroke-width:1.0;' d="M276.58 173.81 a0.50 0.50 0 1 0 0.01 0 " stroke-linecap='round' stroke-linejoin='round' brush-type='1' stroke-wetness='0.5'></path></g><g id='id-text-layer'  type='type-normal' preserveAspectRatio="none" ><text  style = 'fill: #000000; font-family:Helvetica-Light; font-size:18.0; ' preserveAspectRatio="none" x= '40' y='40' width = '688' height = '944' transform="rotate(   0,  384,  512)" ><tspan visibility='hidden'><![CDATA[]]></tspan></text></g><recordings ></recordings><defs   ></defs><htext lang='en_US' timestamp='20171017-101351'><![CDATA[Feet Let H=Enz gen by t and 6-Hnz gen by U
Let F: HG by FC#us so nat (UIEI
Compute F*: A#(H, 2)  HKCGZ) and F*: A'46,74  HKCH,Z)
-use peeiodic resolutions]]></htext></svg> 