<?xml version="1.0" standalone="no"?> <!DOCTYPE svg PUBLIC "-//W3C//DTD SVG 1.1//EN" "http://www.w3.org/Graphics/SVG/1.1/DTD/svg11.dtd"> <svg   version="1.1"     xmlns="http://www.w3.org/2000/svg"  xmlns:xlink="http://www.w3.org/1999/xlink" name="" width="768.0" height="1024.0" background="N_PAPERBACKGROUND_WHITE_WITH_GRAY_LINE" line-height="30.0" margin-top="40.0" margin-right="40.0" margin-bottom="40.0" margin-left="40.0"><g id='id-background-layer'  type='type-normal' preserveAspectRatio="none" ><rect  style = ' stroke:#FFFFFF;  fill:#FFFFFF;  stroke-width:0.0;' x="0" y="0" width="768" height="1024" preserveAspectRatio="none" transform="rotate(   0,  384,  512)" ></rect><polyline  style = ' stroke:#D7D6D6;  fill:none;  stroke-width:1.0;' points = ' 0,70 768,70' preserveAspectRatio="none" transform="rotate(   0,  384,   70)" ></polyline><polyline  style = ' stroke:#D7D6D6;  fill:none;  stroke-width:1.0;' points = ' 0,100 768,100' preserveAspectRatio="none" transform="rotate(   0,  384,  100)" ></polyline><polyline  style = ' stroke:#D7D6D6;  fill:none;  stroke-width:1.0;' points = ' 0,130 768,130' preserveAspectRatio="none" transform="rotate(   0,  384,  130)" ></polyline><polyline  style = ' stroke:#D7D6D6;  fill:none;  stroke-width:1.0;' points = ' 0,160 768,160' preserveAspectRatio="none" transform="rotate(   0,  384,  160)" ></polyline><polyline  style = ' stroke:#D7D6D6;  fill:none;  stroke-width:1.0;' points = ' 0,190 768,190' preserveAspectRatio="none" transform="rotate(   0,  384,  190)" ></polyline><polyline  style = ' stroke:#D7D6D6;  fill:none;  stroke-width:1.0;' points = ' 0,220 768,220' preserveAspectRatio="none" transform="rotate(   0,  384,  220)" ></polyline><polyline  style = ' stroke:#D7D6D6;  fill:none;  stroke-width:1.0;' points = ' 0,250 768,250' preserveAspectRatio="none" transform="rotate(   0,  384,  250)" ></polyline><polyline  style = ' stroke:#D7D6D6;  fill:none;  stroke-width:1.0;' points = ' 0,280 768,280' preserveAspectRatio="none" transform="rotate(   0,  384,  280)" ></polyline><polyline  style = ' stroke:#D7D6D6;  fill:none;  stroke-width:1.0;' points = ' 0,310 768,310' preserveAspectRatio="none" transform="rotate(   0,  384,  310)" ></polyline><polyline  style = ' stroke:#D7D6D6;  fill:none;  stroke-width:1.0;' points = ' 0,340 768,340' preserveAspectRatio="none" transform="rotate(   0,  384,  340)" ></polyline><polyline  style = ' stroke:#D7D6D6;  fill:none;  stroke-width:1.0;' points = ' 0,370 768,370' preserveAspectRatio="none" transform="rotate(   0,  384,  370)" ></polyline><polyline  style = ' stroke:#D7D6D6;  fill:none;  stroke-width:1.0;' points = ' 0,400 768,400' preserveAspectRatio="none" transform="rotate(   0,  384,  400)" ></polyline><polyline  style = ' stroke:#D7D6D6;  fill:none;  stroke-width:1.0;' points = ' 0,430 768,430' preserveAspectRatio="none" transform="rotate(   0,  384,  430)" ></polyline><polyline  style = ' stroke:#D7D6D6;  fill:none;  stroke-width:1.0;' points = ' 0,460 768,460' preserveAspectRatio="none" transform="rotate(   0,  384,  460)" ></polyline><polyline  style = ' stroke:#D7D6D6;  fill:none;  stroke-width:1.0;' points = ' 0,490 768,490' preserveAspectRatio="none" transform="rotate(   0,  384,  490)" ></polyline><polyline  style = ' stroke:#D7D6D6;  fill:none;  stroke-width:1.0;' points = ' 0,520 768,520' preserveAspectRatio="none" transform="rotate(   0,  384,  520)" ></polyline><polyline  style = ' stroke:#D7D6D6;  fill:none;  stroke-width:1.0;' points = ' 0,550 768,550' preserveAspectRatio="none" transform="rotate(   0,  384,  550)" ></polyline><polyline  style = ' stroke:#D7D6D6;  fill:none;  stroke-width:1.0;' points = ' 0,580 768,580' preserveAspectRatio="none" transform="rotate(   0,  384,  580)" ></polyline><polyline  style = ' stroke:#D7D6D6;  fill:none;  stroke-width:1.0;' points = ' 0,610 768,610' preserveAspectRatio="none" transform="rotate(   0,  384,  610)" ></polyline><polyline  style = ' stroke:#D7D6D6;  fill:none;  stroke-width:1.0;' points = ' 0,640 768,640' preserveAspectRatio="none" transform="rotate(   0,  384,  640)" ></polyline><polyline  style = ' stroke:#D7D6D6;  fill:none;  stroke-width:1.0;' points = ' 0,670 768,670' preserveAspectRatio="none" transform="rotate(   0,  384,  670)" ></polyline><polyline  style = ' stroke:#D7D6D6;  fill:none;  stroke-width:1.0;' points = ' 0,700 768,700' preserveAspectRatio="none" transform="rotate(   0,  384,  700)" ></polyline><polyline  style = ' stroke:#D7D6D6;  fill:none;  stroke-width:1.0;' points = ' 0,730 768,730' preserveAspectRatio="none" transform="rotate(   0,  384,  730)" ></polyline><polyline  style = ' stroke:#D7D6D6;  fill:none;  stroke-width:1.0;' points = ' 0,760 768,760' preserveAspectRatio="none" transform="rotate(   0,  384,  760)" ></polyline><polyline  style = ' stroke:#D7D6D6;  fill:none;  stroke-width:1.0;' points = ' 0,790 768,790' preserveAspectRatio="none" transform="rotate(   0,  384,  790)" ></polyline><polyline  style = ' stroke:#D7D6D6;  fill:none;  stroke-width:1.0;' points = ' 0,820 768,820' preserveAspectRatio="none" transform="rotate(   0,  384,  820)" ></polyline><polyline  style = ' stroke:#D7D6D6;  fill:none;  stroke-width:1.0;' points = ' 0,850 768,850' preserveAspectRatio="none" transform="rotate(   0,  384,  850)" ></polyline><polyline  style = ' stroke:#D7D6D6;  fill:none;  stroke-width:1.0;' points = ' 0,880 768,880' preserveAspectRatio="none" transform="rotate(   0,  384,  880)" ></polyline><polyline  style = ' stroke:#D7D6D6;  fill:none;  stroke-width:1.0;' points = ' 0,910 768,910' preserveAspectRatio="none" transform="rotate(   0,  384,  910)" ></polyline><polyline  style = ' stroke:#D7D6D6;  fill:none;  stroke-width:1.0;' points = ' 0,940 768,940' preserveAspectRatio="none" transform="rotate(   0,  384,  940)" ></polyline><polyline  style = ' stroke:#D7D6D6;  fill:none;  stroke-width:1.0;' points = ' 0,970 768,970' preserveAspectRatio="none" transform="rotate(   0,  384,  970)" ></polyline><polyline  style = ' stroke:#C74F4F;  fill:none;  stroke-width:0.5;' points = ' 40,0 40,1024' preserveAspectRatio="none" transform="rotate(   0,   40,  512)" ></polyline><polyline  style = ' stroke:#B6B6B6; stroke-opacity:0.8; fill:none;  stroke-width:0.5;' points = ' 728,0 728,1024' preserveAspectRatio="none" transform="rotate(   0,  728,  512)" ></polyline></g><g id='id-main-layer'  type='type-normal' preserveAspectRatio="none" ><path  style = ' stroke:#000000;  fill:none;  stroke-width:1.0;' d="M60.40 79.69 L59.14 79.83 L57.09 81.16 L53.55 84.25 L50.58 88.37 L49.21 92.13 L48.90 95.14 L49.30 97.66 L50.49 99.65 L52.62 100.76 L55.49 101.25 L58.77 100.71 L62.13 99.21 L64.87 96.78 L66.73 93.77 L67.57 90.63 L67.57 87.44 L66.73 84.61 L65.27 82.31 L63.46 80.76 L61.69 80.05 L60.27 79.92 L59.48 80.27 " stroke-linecap='round' stroke-linejoin='round' brush-type='1' stroke-wetness='0.5'></path><path  style = ' stroke:#000000;  fill:none;  stroke-width:1.0;' d="M84.83 78.77 L83.77 77.70 L82.53 77.35 L80.27 76.86 L78.06 77.48 L76.25 78.54 L74.83 79.83 L73.95 81.29 L73.55 82.97 L73.41 85.01 L73.59 87.39 L73.90 90.09 L74.30 92.75 L74.57 95.01 L74.70 96.60 L74.74 97.57 L74.39 97.97 " stroke-linecap='round' stroke-linejoin='round' brush-type='1' stroke-wetness='0.5'></path><path  style = ' stroke:#000000;  fill:none;  stroke-width:1.0;' d="M70.76 90.98 L71.42 90.85 L72.22 90.80 L73.86 90.71 L75.89 90.71 " stroke-linecap='round' stroke-linejoin='round' brush-type='1' stroke-wetness='0.5'></path><path  style = ' stroke:#000000;  fill:none;  stroke-width:1.0;' d="M82.97 87.13 L83.24 87.59 L83.33 88.32 L83.55 89.83 L83.64 91.86 L83.73 94.03 L83.77 96.07 " stroke-linecap='round' stroke-linejoin='round' brush-type='1' stroke-wetness='0.5'></path><path  style = ' stroke:#000000;  fill:none;  stroke-width:1.0;' d="M82.31 90.71 L83.04 90.51 L83.95 90.45 L85.76 90.32 L87.35 90.32 " stroke-linecap='round' stroke-linejoin='round' brush-type='1' stroke-wetness='0.5'></path><path  style = ' stroke:#000000;  fill:none;  stroke-width:1.0;' d="M91.20 93.10 L92.07 93.17 L93.11 92.97 L94.92 92.44 L96.51 91.47 L97.44 90.45 L97.89 89.52 L97.71 88.77 L97.05 88.24 L95.94 88.15 L94.66 88.94 L93.46 90.45 L92.62 92.35 L92.22 94.03 L92.40 95.49 L93.24 96.73 " stroke-linecap='round' stroke-linejoin='round' brush-type='1' stroke-wetness='0.5'></path><path  style = ' stroke:#000000;  fill:none;  stroke-width:1.0;' d="M100.63 96.29 L100.43 95.03 L100.36 94.34 L100.28 92.79 L100.59 91.73 L101.25 90.63 L102.18 89.87 L103.20 89.47 L104.17 89.92 L105.06 91.20 L105.76 93.24 L106.47 95.49 L107.49 97.53 " stroke-linecap='round' stroke-linejoin='round' brush-type='1' stroke-wetness='0.5'></path><path  style = ' stroke:#000000;  fill:none;  stroke-width:1.0;' d="M129.97 90.32 L129.17 89.98 L128.38 89.87 L126.74 89.92 L125.15 90.63 L123.73 91.91 L122.80 93.37 L123.51 94.34 L125.41 95.85 " stroke-linecap='round' stroke-linejoin='round' brush-type='1' stroke-wetness='0.5'></path><path  style = ' stroke:#000000;  fill:none;  stroke-width:1.0;' d="M129.84 87.93 L129.51 88.52 L129.31 89.30 L128.73 90.98 L128.16 93.06 L127.54 95.18 L127.18 97.04 L127.05 98.50 L127.18 99.52 " stroke-linecap='round' stroke-linejoin='round' brush-type='1' stroke-wetness='0.5'></path><path  style = ' stroke:#000000;  fill:none;  stroke-width:1.0;' d="M155.19 87.79 L154.20 87.73 L153.33 87.75 L151.43 88.19 L149.35 89.52 L147.27 91.64 L145.64 94.03 L144.84 96.07 L144.79 97.53 L145.81 98.33 L147.76 98.46 L150.28 97.66 L152.45 96.55 " stroke-linecap='round' stroke-linejoin='round' brush-type='1' stroke-wetness='0.5'></path><path  style = ' stroke:#000000;  fill:none;  stroke-width:1.0;' d="M160.50 77.44 L160.44 77.97 L160.28 78.99 L159.88 81.69 L159.26 85.76 L158.60 90.32 L157.98 94.17 L157.58 96.60 L157.36 97.75 L157.32 97.53 L157.63 96.25 L158.47 94.17 L159.75 92.35 L160.99 91.29 L161.88 91.07 L162.41 91.73 L162.67 93.15 L162.76 95.23 L162.81 97.26 " stroke-linecap='round' stroke-linejoin='round' brush-type='1' stroke-wetness='0.5'></path><path  style = ' stroke:#000000;  fill:none;  stroke-width:1.0;' d="M171.66 92.17 L171.06 91.64 L170.37 91.47 L168.96 91.33 L167.50 92.00 L166.26 93.19 L165.50 94.52 L165.19 95.54 L165.33 96.07 L165.95 96.16 L166.96 95.71 L168.07 94.96 L168.82 94.21 L169.18 94.52 L169.13 95.63 L168.82 97.26 " stroke-linecap='round' stroke-linejoin='round' brush-type='1' stroke-wetness='0.5'></path><path  style = ' stroke:#000000;  fill:none;  stroke-width:1.0;' d="M172.85 89.65 L172.92 90.32 L172.94 91.11 L172.98 92.84 L172.94 95.01 L172.76 97.44 L172.58 99.79 L172.45 101.47 " stroke-linecap='round' stroke-linejoin='round' brush-type='1' stroke-wetness='0.5'></path><path  style = ' stroke:#000000;  fill:none;  stroke-width:1.0;' d="M174.05 84.47 a0.50 0.50 0 1 0 0.01 0 " stroke-linecap='round' stroke-linejoin='round' brush-type='1' stroke-wetness='0.5'></path><path  style = ' stroke:#000000;  fill:none;  stroke-width:1.0;' d="M178.56 98.28 L178.23 97.55 L178.12 96.64 L177.90 95.01 L177.98 93.32 L178.20 92.04 L178.60 91.07 L179.05 90.63 L179.62 90.63 L180.20 91.33 L180.77 92.66 L181.08 94.52 L181.21 96.42 L181.21 98.10 " stroke-linecap='round' stroke-linejoin='round' brush-type='1' stroke-wetness='0.5'></path><path  style = ' stroke:#000000;  fill:none;  stroke-width:1.0;' d="M202.06 89.78 L200.99 90.32 L200.33 91.02 L199.18 92.48 L198.69 94.17 L198.56 95.89 L199.09 97.53 L200.38 98.86 L202.32 99.65 " stroke-linecap='round' stroke-linejoin='round' brush-type='1' stroke-wetness='0.5'></path><path  style = ' stroke:#000000;  fill:none;  stroke-width:1.0;' d="M211.88 91.51 L210.95 91.58 L210.11 91.91 L208.61 92.75 L207.54 94.17 L207.01 95.94 L207.06 97.57 L207.94 98.63 L209.85 98.86 L212.37 98.10 L214.71 96.64 L216.13 94.78 L216.70 93.10 L216.35 91.86 L215.38 91.20 L213.78 91.02 L212.32 91.55 L211.35 92.40 " stroke-linecap='round' stroke-linejoin='round' brush-type='1' stroke-wetness='0.5'></path><path  style = ' stroke:#000000;  fill:none;  stroke-width:1.0;' d="M217.99 99.74 L217.86 99.28 L217.81 98.46 L217.90 96.64 L218.56 94.39 L219.67 92.35 L220.91 91.07 L221.79 90.71 L222.28 91.38 L222.46 92.84 L222.50 94.78 L222.50 96.42 L222.50 97.40 L222.55 97.35 L222.81 96.55 L223.39 95.36 L224.09 94.34 L224.85 93.81 L225.42 94.08 L225.86 95.36 L226.04 97.53 L226.09 99.70 " stroke-linecap='round' stroke-linejoin='round' brush-type='1' stroke-wetness='0.5'></path><path  style = ' stroke:#000000;  fill:none;  stroke-width:1.0;' d="M229.14 108.24 L229.07 107.37 L229.05 106.25 L229.01 103.81 L228.92 100.36 L228.79 96.47 L228.65 92.70 L228.65 90.01 L228.96 88.37 L229.63 87.62 L230.51 87.57 L231.31 88.59 L231.75 90.49 L231.88 93.01 L231.48 95.36 L230.69 97.17 L229.80 98.24 " stroke-linecap='round' stroke-linejoin='round' brush-type='1' stroke-wetness='0.5'></path><path  style = ' stroke:#000000;  fill:none;  stroke-width:1.0;' d="M236.18 82.08 L235.91 82.68 L235.69 84.56 L235.20 87.79 L234.80 91.64 L234.54 94.65 L234.49 97.00 L234.72 98.37 " stroke-linecap='round' stroke-linejoin='round' brush-type='1' stroke-wetness='0.5'></path><path  style = ' stroke:#000000;  fill:none;  stroke-width:1.0;' d="M239.63 92.31 L240.36 92.51 L241.22 92.57 L242.73 92.70 L244.10 92.40 L245.03 91.73 L245.60 90.76 L245.78 89.87 L245.47 89.34 L244.72 89.25 L243.57 89.87 L242.42 91.20 L241.49 93.06 L241.00 94.96 L240.87 96.51 L241.40 97.62 L242.55 98.28 L244.36 98.59 " stroke-linecap='round' stroke-linejoin='round' brush-type='1' stroke-wetness='0.5'></path><path  style = ' stroke:#000000;  fill:none;  stroke-width:1.0;' d="M250.91 90.71 L251.31 91.44 L251.84 92.13 L253.04 93.50 L254.54 94.92 L256.18 96.38 L257.46 97.57 " stroke-linecap='round' stroke-linejoin='round' brush-type='1' stroke-wetness='0.5'></path><path  style = ' stroke:#000000;  fill:none;  stroke-width:1.0;' d="M258.35 88.99 L257.02 89.85 L255.65 91.11 L253.39 93.37 L251.75 95.71 L251.00 97.62 " stroke-linecap='round' stroke-linejoin='round' brush-type='1' stroke-wetness='0.5'></path><path  style = ' stroke:#000000;  fill:none;  stroke-width:1.0;' d="M277.86 79.69 L277.80 80.03 L277.77 81.16 L277.73 84.08 L277.64 88.10 L277.46 92.13 L277.24 94.96 L277.11 96.60 L277.42 96.25 L278.22 94.48 L279.54 91.91 L280.92 90.23 L282.11 89.56 L282.99 90.14 L283.61 91.51 L284.06 93.55 L284.46 95.71 " stroke-linecap='round' stroke-linejoin='round' brush-type='1' stroke-wetness='0.5'></path><path  style = ' stroke:#000000;  fill:none;  stroke-width:1.0;' d="M293.79 91.38 L292.86 90.32 L292.29 89.96 L290.83 89.47 L289.37 90.40 L287.77 92.22 L286.67 94.52 L286.23 96.38 L286.76 97.40 L288.08 97.13 L289.99 95.94 L291.67 94.17 L292.77 92.84 L293.26 92.26 L293.39 92.79 L293.35 94.12 L293.31 95.67 " stroke-linecap='round' stroke-linejoin='round' brush-type='1' stroke-wetness='0.5'></path><path  style = ' stroke:#000000;  fill:none;  stroke-width:1.0;' d="M306.14 90.18 L305.08 90.38 L304.46 90.49 L303.40 90.80 L303.04 91.20 L303.13 91.91 L303.62 92.93 L304.24 94.08 L304.72 95.14 L304.90 96.02 L304.68 96.78 L303.84 97.44 L301.63 98.06 " stroke-linecap='round' stroke-linejoin='round' brush-type='1' stroke-wetness='0.5'></path><path  style = ' stroke:#000000;  fill:none;  stroke-width:1.0;' d="M331.89 89.39 L331.16 89.19 L330.52 89.16 L329.28 89.52 L328.13 90.63 L327.20 92.35 L326.58 94.21 L326.36 95.71 L326.63 96.60 L327.42 96.73 L328.75 96.07 L330.08 94.92 L331.10 93.55 L331.58 92.40 L331.76 91.60 L331.76 92.17 L331.81 93.90 L332.34 96.47 L333.18 98.37 " stroke-linecap='round' stroke-linejoin='round' brush-type='1' stroke-wetness='0.5'></path><path  style = ' stroke:#000000;  fill:none;  stroke-width:1.0;' d="M343.18 100.40 L343.24 99.48 L343.27 98.59 L343.31 96.64 L343.40 94.52 L343.93 92.35 L344.86 90.67 L346.10 89.78 L347.21 89.83 L348.09 90.98 L348.71 93.06 L349.11 95.67 L349.55 98.02 L350.04 99.56 " stroke-linecap='round' stroke-linejoin='round' brush-type='1' stroke-wetness='0.5'></path><path  style = ' stroke:#000000;  fill:none;  stroke-width:1.0;' d="M360.17 91.24 L359.24 90.85 L358.45 90.80 L356.94 91.11 L355.70 92.35 L354.82 94.25 L354.33 96.07 L354.42 97.31 L355.13 97.62 L356.45 96.86 L357.96 95.45 L359.20 93.77 L359.82 92.40 L360.04 91.55 L359.95 91.78 L359.68 93.19 L359.37 95.49 L359.15 97.62 " stroke-linecap='round' stroke-linejoin='round' brush-type='1' stroke-wetness='0.5'></path><path  style = ' stroke:#000000;  fill:none;  stroke-width:1.0;' d="M367.61 87.13 L367.34 88.06 L367.21 89.30 L366.81 91.78 L366.41 94.52 L366.01 97.04 L365.79 98.77 " stroke-linecap='round' stroke-linejoin='round' brush-type='1' stroke-wetness='0.5'></path><path  style = ' stroke:#000000;  fill:none;  stroke-width:1.0;' d="M364.29 90.58 L365.02 90.45 L365.75 90.40 L367.25 90.49 L368.53 90.85 " stroke-linecap='round' stroke-linejoin='round' brush-type='1' stroke-wetness='0.5'></path><path  style = ' stroke:#000000;  fill:none;  stroke-width:1.0;' d="M373.71 92.70 L373.78 93.30 L373.80 93.99 L373.85 95.36 L373.89 96.69 L374.20 97.62 L374.91 97.97 L376.10 97.26 L377.47 95.71 L378.76 93.41 L379.69 91.42 L380.22 90.14 L380.44 90.14 L380.48 91.33 L380.48 93.50 L380.57 96.07 " stroke-linecap='round' stroke-linejoin='round' brush-type='1' stroke-wetness='0.5'></path><path  style = ' stroke:#000000;  fill:none;  stroke-width:1.0;' d="M384.73 97.35 L384.73 96.09 L384.73 95.23 L384.69 93.46 L384.64 92.17 L384.60 91.11 L384.82 90.36 L385.48 89.83 L386.81 89.39 L388.58 89.12 L390.53 88.99 " stroke-linecap='round' stroke-linejoin='round' brush-type='1' stroke-wetness='0.5'></path><path  style = ' stroke:#000000;  fill:none;  stroke-width:1.0;' d="M397.48 91.24 L396.61 91.11 L395.62 91.20 L393.85 91.60 L392.30 92.48 L391.37 93.59 L390.93 94.56 L391.02 95.18 L391.77 95.23 L393.10 94.56 L394.56 93.32 L395.57 92.04 L396.06 91.24 L396.10 91.78 L395.84 93.19 L395.48 95.14 L395.26 96.47 " stroke-linecap='round' stroke-linejoin='round' brush-type='1' stroke-wetness='0.5'></path><path  style = ' stroke:#000000;  fill:none;  stroke-width:1.0;' d="M403.98 81.29 L403.91 81.89 L403.80 83.54 L403.49 86.60 L403.10 90.40 L402.79 93.81 L402.87 96.78 " stroke-linecap='round' stroke-linejoin='round' brush-type='1' stroke-wetness='0.5'></path><path  style = ' stroke:#000000;  fill:none;  stroke-width:1.0;' d="M433.19 81.82 L432.66 80.62 L431.68 79.78 L429.87 78.41 L427.79 77.79 L426.06 77.61 L424.65 77.75 L423.72 78.54 L423.23 80.45 L423.10 83.46 L423.19 86.95 L423.41 90.36 L423.63 93.19 L423.76 95.36 L423.76 96.78 " stroke-linecap='round' stroke-linejoin='round' brush-type='1' stroke-wetness='0.5'></path><path  style = ' stroke:#000000;  fill:none;  stroke-width:1.0;' d="M420.58 88.86 L421.64 88.79 L422.70 88.77 L424.82 88.72 L426.95 88.72 L428.67 88.72 " stroke-linecap='round' stroke-linejoin='round' brush-type='1' stroke-wetness='0.5'></path><path  style = ' stroke:#000000;  fill:none;  stroke-width:1.0;' d="M431.06 88.99 L431.66 89.85 L431.86 90.89 L432.26 92.84 L432.26 94.74 L432.21 96.29 L432.17 97.44 " stroke-linecap='round' stroke-linejoin='round' brush-type='1' stroke-wetness='0.5'></path><path  style = ' stroke:#000000;  fill:none;  stroke-width:1.0;' d="M439.69 80.62 L439.89 81.09 L439.96 82.08 L440.09 84.34 L439.96 87.48 L439.74 90.85 L439.47 93.99 L439.34 96.29 " stroke-linecap='round' stroke-linejoin='round' brush-type='1' stroke-wetness='0.5'></path><path  style = ' stroke:#000000;  fill:none;  stroke-width:1.0;' d="M446.73 84.21 L446.86 84.81 L446.91 85.80 L446.95 87.97 L446.77 90.85 L446.42 93.86 L445.98 96.29 " stroke-linecap='round' stroke-linejoin='round' brush-type='1' stroke-wetness='0.5'></path><path  style = ' stroke:#000000;  fill:none;  stroke-width:1.0;' d="M443.28 90.32 L443.94 89.78 L445.22 89.56 L447.70 89.16 L450.49 89.30 " stroke-linecap='round' stroke-linejoin='round' brush-type='1' stroke-wetness='0.5'></path><path  style = ' stroke:#000000;  fill:none;  stroke-width:1.0;' d="M452.84 96.55 L452.57 95.56 L452.53 94.08 L452.79 91.55 L453.90 89.08 L455.67 87.39 L457.75 86.33 L459.83 85.89 " stroke-linecap='round' stroke-linejoin='round' brush-type='1' stroke-wetness='0.5'></path><path  style = ' stroke:#000000;  fill:none;  stroke-width:1.0;' d="M468.50 90.32 L465.98 91.44 L464.70 92.17 L462.35 93.86 L461.69 95.14 L461.55 96.29 L462.26 96.91 L463.63 96.91 L465.45 96.20 L466.91 94.96 L467.84 93.63 L468.24 92.57 L468.37 91.95 L468.28 92.53 L468.06 94.21 L467.79 96.78 L467.62 98.94 " stroke-linecap='round' stroke-linejoin='round' brush-type='1' stroke-wetness='0.5'></path><path  style = ' stroke:#000000;  fill:none;  stroke-width:1.0;' d="M476.73 87.79 L477.13 88.39 L477.26 89.39 L477.48 91.33 L477.31 93.81 L477.04 96.25 L476.78 98.15 " stroke-linecap='round' stroke-linejoin='round' brush-type='1' stroke-wetness='0.5'></path><path  style = ' stroke:#000000;  fill:none;  stroke-width:1.0;' d="M475.27 88.86 L476.00 88.92 L476.69 88.99 L478.10 89.43 L479.52 90.32 L480.98 91.64 L482.35 93.10 L483.55 94.61 L484.39 96.16 L484.92 97.75 L485.18 99.12 L485.67 100.05 " stroke-linecap='round' stroke-linejoin='round' brush-type='1' stroke-wetness='0.5'></path><path  style = ' stroke:#000000;  fill:none;  stroke-width:1.0;' d="M493.99 91.51 L493.39 91.91 L492.88 92.57 L491.87 94.25 L491.11 96.51 L490.67 98.77 L490.80 100.23 L491.78 100.76 L493.37 100.10 L495.14 98.59 L496.34 96.51 L496.91 94.52 L496.96 92.93 L496.60 91.86 L495.89 91.38 L494.92 91.73 L494.08 92.97 L493.59 94.70 " stroke-linecap='round' stroke-linejoin='round' brush-type='1' stroke-wetness='0.5'></path><path  style = ' stroke:#000000;  fill:none;  stroke-width:1.0;' d="M501.43 98.28 L500.96 97.22 L500.72 96.38 L500.27 94.61 L500.14 92.93 L500.41 91.42 L501.12 90.40 L502.31 90.14 L503.55 90.85 L504.57 92.48 L505.14 94.96 L505.36 97.48 L505.32 99.39 " stroke-linecap='round' stroke-linejoin='round' brush-type='1' stroke-wetness='0.5'></path><path  style = ' stroke:#000000;  fill:none;  stroke-width:1.0;' d="M485.23 85.67 a0.50 0.50 0 1 0 0.01 0 " stroke-linecap='round' stroke-linejoin='round' brush-type='1' stroke-wetness='0.5'></path><path  style = ' stroke:#000000;  fill:none;  stroke-width:1.0;' d="M47.00 123.50 L47.59 123.50 L48.28 123.50 L49.87 123.37 L51.82 122.80 L53.81 121.73 L55.27 120.41 L56.02 119.30 L56.16 118.42 L55.67 117.75 L54.56 117.31 L52.88 117.13 L50.98 117.40 L49.12 118.42 L47.62 120.23 L46.73 122.53 L46.42 124.57 L47.08 126.07 L48.68 126.96 L51.29 127.35 L54.03 127.27 " stroke-linecap='round' stroke-linejoin='round' brush-type='1' stroke-wetness='0.5'></path><path  style = ' stroke:#000000;  fill:none;  stroke-width:1.0;' d="M58.28 118.06 L58.68 118.73 L59.08 119.57 L60.14 121.34 L61.51 123.24 L63.10 125.05 L64.52 126.43 " stroke-linecap='round' stroke-linejoin='round' brush-type='1' stroke-wetness='0.5'></path><path  style = ' stroke:#000000;  fill:none;  stroke-width:1.0;' d="M63.72 118.59 L62.86 119.46 L61.78 120.63 L59.83 122.89 L58.06 125.05 " stroke-linecap='round' stroke-linejoin='round' brush-type='1' stroke-wetness='0.5'></path><path  style = ' stroke:#000000;  fill:none;  stroke-width:1.0;' d="M46.60 128.68 L47.33 128.75 L48.37 128.77 L50.67 128.95 L53.72 129.12 L57.13 129.39 L60.71 129.52 L63.90 129.61 L66.47 129.61 L68.10 129.52 L69.03 129.35 L69.48 128.99 L69.70 128.28 L69.79 126.96 L69.65 124.88 L69.21 122.00 L68.72 118.77 L68.41 115.54 L68.37 113.02 L68.37 111.25 L68.19 110.41 " stroke-linecap='round' stroke-linejoin='round' brush-type='1' stroke-wetness='0.5'></path><path  style = ' stroke:#000000;  fill:none;  stroke-width:1.0;' d="M84.43 113.42 L84.77 114.01 L85.72 115.32 L87.44 117.66 L89.70 120.36 L91.69 122.53 L93.42 124.21 L94.61 125.41 L95.36 126.16 L95.76 126.60 " stroke-linecap='round' stroke-linejoin='round' brush-type='1' stroke-wetness='0.5'></path><path  style = ' stroke:#000000;  fill:none;  stroke-width:1.0;' d="M96.12 111.16 L94.86 112.15 L93.37 113.81 L90.67 117.04 L88.11 120.67 L86.16 123.86 L84.96 126.47 " stroke-linecap='round' stroke-linejoin='round' brush-type='1' stroke-wetness='0.5'></path><path  style = ' stroke:#000000;  fill:none;  stroke-width:1.0;' d="M113.37 120.19 L113.57 121.25 L113.64 122.66 L113.77 124.88 L113.77 126.78 L114.08 127.80 " stroke-linecap='round' stroke-linejoin='round' brush-type='1' stroke-wetness='0.5'></path><path  style = ' stroke:#000000;  fill:none;  stroke-width:1.0;' d="M124.26 119.39 L123.53 119.65 L122.80 119.96 L121.47 120.67 L120.32 121.47 L119.61 122.18 L119.26 122.71 L119.57 123.11 L120.41 123.59 L121.61 124.17 L122.58 124.83 L123.11 125.54 L123.15 126.25 L122.49 126.96 L121.25 127.58 L119.70 128.06 L118.42 128.33 " stroke-linecap='round' stroke-linejoin='round' brush-type='1' stroke-wetness='0.5'></path><path  style = ' stroke:#000000;  fill:none;  stroke-width:1.0;' d="M152.01 111.03 L150.81 111.42 L149.40 112.09 L146.48 113.90 L143.38 116.69 L140.63 120.05 L138.78 123.28 L137.89 125.76 L138.29 127.49 L140.10 128.46 L143.38 128.99 L147.45 129.04 L151.34 128.55 L154.22 127.71 " stroke-linecap='round' stroke-linejoin='round' brush-type='1' stroke-wetness='0.5'></path><path  style = ' stroke:#000000;  fill:none;  stroke-width:1.0;' d="M157.45 115.27 L157.65 115.67 L157.76 117.00 L157.98 119.52 L158.25 122.53 L158.65 124.74 L159.26 125.98 L160.11 126.34 L161.26 125.63 L162.58 124.17 L163.73 122.49 L164.44 121.69 L164.71 122.22 L164.75 123.68 L164.75 125.23 L164.84 126.20 L165.42 126.51 L166.70 125.94 L168.56 124.48 L170.64 122.00 L172.54 119.21 L174.13 116.65 L175.24 115.10 L175.99 114.61 " stroke-linecap='round' stroke-linejoin='round' brush-type='1' stroke-wetness='0.5'></path><path  style = ' stroke:#000000;  fill:none;  stroke-width:1.0;' d="M191.97 118.86 L190.64 119.46 L189.36 120.63 L187.28 122.62 L185.95 124.88 L185.51 126.65 L186.13 128.06 L187.72 128.86 L190.37 128.86 L192.90 127.97 L194.89 126.51 L195.77 124.97 L196.08 123.86 L195.86 123.24 L195.20 123.02 L194.09 123.37 L192.90 124.35 L192.10 125.85 L191.88 127.31 L192.68 128.24 L194.27 128.51 L196.35 127.97 L197.99 126.91 L198.92 125.50 L199.00 124.12 L198.43 123.06 L197.41 122.49 L196.30 122.71 L195.51 123.68 L195.11 124.97 " stroke-linecap='round' stroke-linejoin='round' brush-type='1' stroke-wetness='0.5'></path><path  style = ' stroke:#000000;  fill:none;  stroke-width:1.0;' d="M202.59 129.74 L202.32 129.08 L202.23 127.97 L202.06 125.85 L202.37 123.68 L202.99 122.27 L204.00 121.65 L204.93 121.78 L205.69 122.58 L206.04 124.04 L206.04 125.76 L205.77 127.13 L205.46 127.89 L205.46 127.22 L206.04 125.76 L206.97 124.04 L207.99 123.15 L208.61 123.11 L208.96 124.12 L209.05 126.16 L209.05 128.99 L208.96 132.00 " stroke-linecap='round' stroke-linejoin='round' brush-type='1' stroke-wetness='0.5'></path><path  style = ' stroke:#000000;  fill:none;  stroke-width:1.0;' d="M212.68 140.23 L212.74 139.30 L212.72 137.84 L212.63 134.83 L212.46 130.81 L212.41 126.91 L212.90 123.46 L213.92 121.25 L215.24 120.01 L216.48 119.61 L217.37 120.05 L217.86 121.03 L217.55 122.44 L216.26 123.77 L213.96 124.83 " stroke-linecap='round' stroke-linejoin='round' brush-type='1' stroke-wetness='0.5'></path><path  style = ' stroke:#000000;  fill:none;  stroke-width:1.0;' d="M224.49 114.88 L224.29 117.60 " stroke-linecap='round' stroke-linejoin='round' brush-type='1' stroke-wetness='0.5'></path><path  style = ' stroke:#000000;  fill:none;  stroke-width:1.0;' d="M226.88 125.36 L228.67 125.10 L229.71 125.01 L231.71 124.52 L232.72 123.81 L233.34 122.66 L233.61 121.38 L233.48 120.27 L232.86 119.57 L231.71 119.34 L230.07 119.79 L228.34 120.85 L226.88 122.49 L226.04 124.30 L225.78 126.07 L226.31 127.58 L227.63 128.68 L229.80 129.30 L232.15 129.57 L234.14 129.61 " stroke-linecap='round' stroke-linejoin='round' brush-type='1' stroke-wetness='0.5'></path><path  style = ' stroke:#000000;  fill:none;  stroke-width:1.0;' d="M225.56 115.01 L225.36 115.74 L225.20 117.62 L224.76 121.03 L224.27 125.01 L223.79 128.20 L223.52 130.59 L223.65 132.00 " stroke-linecap='round' stroke-linejoin='round' brush-type='1' stroke-wetness='0.5'></path><path  style = ' stroke:#000000;  fill:none;  stroke-width:1.0;' d="M240.82 118.33 L241.15 119.19 L241.49 120.27 L242.24 122.31 L243.12 124.39 L244.19 126.16 L245.29 127.62 L246.27 128.59 L246.93 129.12 L247.46 129.04 " stroke-linecap='round' stroke-linejoin='round' brush-type='1' stroke-wetness='0.5'></path><path  style = ' stroke:#000000;  fill:none;  stroke-width:1.0;' d="M246.66 117.80 L245.93 118.53 L245.29 119.43 L243.88 121.25 L242.42 123.28 L240.95 125.36 L239.89 127.44 " stroke-linecap='round' stroke-linejoin='round' brush-type='1' stroke-wetness='0.5'></path><path  style = ' stroke:#000000;  fill:none;  stroke-width:1.0;' d="M252.37 129.21 a0.50 0.50 0 1 0 0.01 0 " stroke-linecap='round' stroke-linejoin='round' brush-type='1' stroke-wetness='0.5'></path><path  style = ' stroke:#000000;  fill:none;  stroke-width:1.0;' d="M296.45 108.90 L295.65 109.03 L294.59 109.79 L292.55 111.34 L290.25 113.68 L288.08 116.29 L286.27 119.04 L285.12 121.69 L284.63 123.99 L284.99 125.89 L286.36 127.31 L288.75 128.28 L291.76 128.82 L294.81 129.04 L297.64 128.86 L299.77 128.33 " stroke-linecap='round' stroke-linejoin='round' brush-type='1' stroke-wetness='0.5'></path><path  style = ' stroke:#000000;  fill:none;  stroke-width:1.0;' d="M308.79 107.18 L307.80 107.31 L306.94 107.49 L305.30 107.88 L303.93 108.41 L302.91 108.99 L302.29 109.48 L302.07 109.87 L302.02 110.23 L302.29 110.80 L302.95 111.51 L303.84 112.35 L304.55 113.11 L304.86 113.77 L304.81 114.34 L304.28 114.83 L303.35 115.23 L302.47 115.45 L301.76 115.54 " stroke-linecap='round' stroke-linejoin='round' brush-type='1' stroke-wetness='0.5'></path><path  style = ' stroke:#000000;  fill:none;  stroke-width:1.0;' d="M308.40 109.70 L308.73 110.36 L308.84 111.07 L309.06 112.44 L309.02 113.81 L308.97 115.05 " stroke-linecap='round' stroke-linejoin='round' brush-type='1' stroke-wetness='0.5'></path><path  style = ' stroke:#000000;  fill:none;  stroke-width:1.0;' d="M310.12 115.27 L310.45 114.48 L310.61 113.81 L311.14 112.53 L311.80 111.56 L312.64 110.85 L313.31 110.49 L313.71 110.49 L313.93 111.16 L314.06 112.40 L314.19 113.95 " stroke-linecap='round' stroke-linejoin='round' brush-type='1' stroke-wetness='0.5'></path><path  style = ' stroke:#000000;  fill:none;  stroke-width:1.0;' d="M321.54 109.70 L320.54 109.63 L319.77 109.65 L318.31 110.01 L317.25 110.94 L316.58 112.35 L316.27 113.72 L316.54 114.61 L317.42 114.92 L318.93 114.48 L320.48 113.50 L321.63 112.09 L322.25 110.72 L322.56 109.65 L322.69 109.03 L322.73 109.39 L322.69 110.80 L322.38 113.19 L321.76 115.80 L320.83 118.11 L319.81 119.88 L318.66 120.98 L317.33 121.56 L315.87 121.73 L314.37 121.29 L313.00 120.19 L311.98 118.77 " stroke-linecap='round' stroke-linejoin='round' brush-type='1' stroke-wetness='0.5'></path><path  style = ' stroke:#000000;  fill:none;  stroke-width:1.0;' d="M312.64 123.77 L312.58 124.43 L312.56 125.45 L312.51 127.53 L312.51 129.92 L312.51 132.18 L312.51 133.95 " stroke-linecap='round' stroke-linejoin='round' brush-type='1' stroke-wetness='0.5'></path><path  style = ' stroke:#000000;  fill:none;  stroke-width:1.0;' d="M309.19 129.08 L309.59 129.15 L310.12 129.17 L311.36 129.21 L312.82 129.21 L314.06 129.26 " stroke-linecap='round' stroke-linejoin='round' brush-type='1' stroke-wetness='0.5'></path><path  style = ' stroke:#000000;  fill:none;  stroke-width:1.0;' d="M315.70 125.89 L315.10 126.62 L314.72 127.40 L313.88 128.90 L313.04 130.54 L312.11 132.09 L311.40 133.24 " stroke-linecap='round' stroke-linejoin='round' brush-type='1' stroke-wetness='0.5'></path><path  style = ' stroke:#000000;  fill:none;  stroke-width:1.0;' d="M310.25 127.75 L310.92 128.02 L311.54 128.15 L312.78 128.59 L314.02 129.08 L315.21 129.74 L316.23 130.19 " stroke-linecap='round' stroke-linejoin='round' brush-type='1' stroke-wetness='0.5'></path><path  style = ' stroke:#000000;  fill:none;  stroke-width:1.0;' d="M334.55 112.49 L333.49 112.35 L332.65 112.62 L330.65 113.68 L328.75 115.98 L326.94 119.12 L325.88 122.44 L325.61 125.41 L326.32 127.80 L327.78 129.66 L329.81 130.98 L332.12 131.78 L334.06 132.09 " stroke-linecap='round' stroke-linejoin='round' brush-type='1' stroke-wetness='0.5'></path><path  style = ' stroke:#000000;  fill:none;  stroke-width:1.0;' d="M348.09 117.93 L346.83 118.66 L345.70 119.61 L343.40 121.73 L341.23 124.35 L339.33 127.04 L338.00 129.30 " stroke-linecap='round' stroke-linejoin='round' brush-type='1' stroke-wetness='0.5'></path><path  style = ' stroke:#000000;  fill:none;  stroke-width:1.0;' d="M373.45 118.73 L373.38 119.39 L373.36 120.50 L373.31 122.53 L373.31 124.92 L373.31 127.04 L373.31 128.90 L373.40 130.05 " stroke-linecap='round' stroke-linejoin='round' brush-type='1' stroke-wetness='0.5'></path><path  style = ' stroke:#000000;  fill:none;  stroke-width:1.0;' d="M381.28 120.05 L380.42 120.38 L379.64 120.76 L378.40 121.56 L377.70 122.40 L377.47 123.28 L377.74 124.26 L378.49 125.41 L379.51 126.60 L380.35 127.66 L380.79 128.46 L380.97 129.08 L380.62 129.52 L379.78 129.88 L378.49 130.05 L377.25 130.14 L376.41 130.10 " stroke-linecap='round' stroke-linejoin='round' brush-type='1' stroke-wetness='0.5'></path><path  style = ' stroke:#000000;  fill:none;  stroke-width:1.0;' d="M340.66 117.80 L340.99 118.59 L341.41 119.52 L342.29 121.65 L343.40 124.26 L344.64 126.91 L345.88 128.95 L346.98 130.01 " stroke-linecap='round' stroke-linejoin='round' brush-type='1' stroke-wetness='0.5'></path><path  style = ' stroke:#000000;  fill:none;  stroke-width:1.0;' d="M351.41 110.36 L351.87 111.03 L352.34 112.09 L353.44 114.39 L354.73 117.35 L355.97 120.45 L356.81 123.46 L357.16 126.16 L356.94 128.59 L356.06 130.67 L354.51 132.44 L352.60 133.77 L350.88 134.61 L349.77 134.97 " stroke-linecap='round' stroke-linejoin='round' brush-type='1' stroke-wetness='0.5'></path><path  style = ' stroke:#000000;  fill:none;  stroke-width:1.0;' d="M409.16 117.27 L408.43 117.07 L407.70 117.04 L406.46 117.13 L405.49 117.57 L404.95 118.33 L404.69 119.21 L404.87 120.32 L405.57 121.47 L406.64 122.71 L407.61 123.77 L408.10 124.70 L408.14 125.58 L407.57 126.43 L406.46 127.22 L404.82 127.80 L403.41 128.15 " stroke-linecap='round' stroke-linejoin='round' brush-type='1' stroke-wetness='0.5'></path><path  style = ' stroke:#000000;  fill:none;  stroke-width:1.0;' d="M411.55 123.90 L411.95 126.96 L412.21 128.55 " stroke-linecap='round' stroke-linejoin='round' brush-type='1' stroke-wetness='0.5'></path><path  style = ' stroke:#000000;  fill:none;  stroke-width:1.0;' d="M415.00 128.15 L414.87 126.89 L414.82 125.89 L414.91 124.17 L415.31 123.19 L415.93 122.80 L416.50 122.97 L416.95 123.81 L417.17 125.32 L417.30 127.18 L417.52 128.73 " stroke-linecap='round' stroke-linejoin='round' brush-type='1' stroke-wetness='0.5'></path><path  style = ' stroke:#000000;  fill:none;  stroke-width:1.0;' d="M426.55 122.71 L426.09 122.44 L425.27 122.58 L423.81 123.19 L422.30 124.74 L421.42 126.60 L421.02 128.15 L421.24 128.99 L421.99 128.95 L423.19 127.97 L424.34 126.34 L425.09 124.52 L425.44 123.11 L425.67 122.31 L425.93 122.71 L426.15 124.21 L426.28 126.60 L425.97 129.08 L425.09 131.29 L423.54 133.06 L421.46 134.44 L419.12 135.32 L416.73 135.67 L414.96 135.23 " stroke-linecap='round' stroke-linejoin='round' brush-type='1' stroke-wetness='0.5'></path><path  style = ' stroke:#000000;  fill:none;  stroke-width:1.0;' d="M432.66 125.10 L432.26 126.16 L432.13 126.78 L431.86 127.97 L431.99 128.51 L432.52 128.64 L433.54 127.97 L434.83 126.60 L436.02 124.70 L436.82 123.11 L437.30 122.13 L437.48 122.13 L437.57 123.19 L437.57 125.19 L437.70 127.49 L438.14 129.17 L438.90 130.01 " stroke-linecap='round' stroke-linejoin='round' brush-type='1' stroke-wetness='0.5'></path><path  style = ' stroke:#000000;  fill:none;  stroke-width:1.0;' d="M445.53 114.88 L445.60 116.14 L445.62 117.93 L445.58 121.16 L445.49 124.48 L445.45 127.09 " stroke-linecap='round' stroke-linejoin='round' brush-type='1' stroke-wetness='0.5'></path><path  style = ' stroke:#000000;  fill:none;  stroke-width:1.0;' d="M455.09 122.04 L454.43 121.85 L453.68 122.13 L452.22 123.02 L450.76 124.83 L449.65 126.74 L449.25 128.11 L450.27 127.75 L451.91 126.29 L453.41 124.26 L453.94 123.06 L454.03 122.97 L453.68 124.92 L453.32 127.31 " stroke-linecap='round' stroke-linejoin='round' brush-type='1' stroke-wetness='0.5'></path><path  style = ' stroke:#000000;  fill:none;  stroke-width:1.0;' d="M457.48 126.96 L457.55 125.50 L457.66 124.08 L458.01 121.87 L458.77 120.54 L460.05 120.14 L462.13 120.23 L464.21 120.58 " stroke-linecap='round' stroke-linejoin='round' brush-type='1' stroke-wetness='0.5'></path><path  style = ' stroke:#000000;  fill:none;  stroke-width:1.0;' d="M480.58 118.73 L479.25 119.26 L477.66 120.23 L475.14 122.13 L473.32 124.39 L472.71 126.29 L473.19 127.62 L474.92 128.24 L477.48 127.80 L480.14 126.47 " stroke-linecap='round' stroke-linejoin='round' brush-type='1' stroke-wetness='0.5'></path><path  style = ' stroke:#000000;  fill:none;  stroke-width:1.0;' d="M487.88 109.96 L487.62 110.56 L487.13 112.31 L486.11 115.67 L484.92 119.83 L483.99 123.24 L483.50 125.54 L483.41 126.65 L483.86 126.60 L484.74 125.58 L486.11 123.90 L487.40 122.27 L488.55 121.25 L489.39 121.07 L490.05 121.87 L490.45 123.55 L490.63 125.89 L490.67 127.84 " stroke-linecap='round' stroke-linejoin='round' brush-type='1' stroke-wetness='0.5'></path><path  style = ' stroke:#000000;  fill:none;  stroke-width:1.0;' d="M499.04 122.84 L498.11 122.51 L497.31 122.44 L495.63 122.58 L494.08 123.55 L492.75 125.01 L492.00 126.60 L491.73 127.84 L491.87 128.59 L492.49 128.86 L493.55 128.33 L494.88 127.22 L495.89 125.67 L496.56 124.43 L496.82 123.86 L496.91 124.66 L497.00 126.47 L497.27 128.37 " stroke-linecap='round' stroke-linejoin='round' brush-type='1' stroke-wetness='0.5'></path><path  style = ' stroke:#000000;  fill:none;  stroke-width:1.0;' d="M505.28 122.18 L504.94 123.11 L504.79 124.17 L504.35 126.25 L503.99 128.51 L503.68 130.36 " stroke-linecap='round' stroke-linejoin='round' brush-type='1' stroke-wetness='0.5'></path><path  style = ' stroke:#000000;  fill:none;  stroke-width:1.0;' d="M503.28 116.47 L503.35 117.00 L503.64 118.02 L504.08 119.61 " stroke-linecap='round' stroke-linejoin='round' brush-type='1' stroke-wetness='0.5'></path><path  style = ' stroke:#000000;  fill:none;  stroke-width:1.0;' d="M508.46 129.88 L508.20 129.01 L508.11 128.42 L507.93 126.91 L507.93 125.50 L507.93 124.04 L508.02 123.06 L508.20 122.49 L508.51 122.27 L508.95 122.22 L509.61 122.62 L510.32 123.59 L510.90 125.10 L511.25 126.74 L511.51 128.20 L511.87 129.26 " stroke-linecap='round' stroke-linejoin='round' brush-type='1' stroke-wetness='0.5'></path><path  style = ' stroke:#000000;  fill:none;  stroke-width:1.0;' d="M534.88 117.80 L533.95 118.19 L533.20 118.81 L531.78 120.27 L530.85 122.31 L530.37 124.61 L530.59 126.69 L531.78 128.15 L534.22 128.90 " stroke-linecap='round' stroke-linejoin='round' brush-type='1' stroke-wetness='0.5'></path><path  style = ' stroke:#000000;  fill:none;  stroke-width:1.0;' d="M545.10 122.31 L544.11 122.18 L542.93 122.31 L540.90 122.84 L539.13 124.17 L538.02 126.03 L537.45 127.97 L537.67 129.35 L538.82 130.01 L540.85 129.61 L543.11 128.42 L544.84 126.65 L545.68 124.92 L545.68 123.55 L545.01 122.62 L543.95 122.18 L542.76 122.13 L541.87 122.75 L541.39 123.64 " stroke-linecap='round' stroke-linejoin='round' brush-type='1' stroke-wetness='0.5'></path><path  style = ' stroke:#000000;  fill:none;  stroke-width:1.0;' d="M548.69 126.96 L548.89 126.43 L548.95 125.81 L549.17 124.57 L549.44 123.24 L549.88 122.00 L550.46 121.12 L551.08 120.67 L551.74 121.07 L552.40 122.40 L552.85 124.74 L553.07 127.13 L553.07 128.86 L553.07 129.52 L553.25 128.86 L553.73 127.13 L554.75 124.66 L555.99 122.62 L557.18 121.47 L557.89 121.56 L558.25 122.84 L558.33 125.23 L558.29 128.15 L558.20 131.25 L558.11 133.64 " stroke-linecap='round' stroke-linejoin='round' brush-type='1' stroke-wetness='0.5'></path><path  style = ' stroke:#000000;  fill:none;  stroke-width:1.0;' d="M565.81 141.29 L565.35 140.30 L565.06 138.95 L564.35 136.12 L563.82 132.66 L563.42 129.17 L563.29 126.12 L563.64 123.86 L564.35 122.40 L565.41 121.65 L566.39 121.56 L567.10 122.40 L567.45 123.90 L567.18 125.85 L566.30 127.58 L564.88 128.73 L563.42 129.26 " stroke-linecap='round' stroke-linejoin='round' brush-type='1' stroke-wetness='0.5'></path><path  style = ' stroke:#000000;  fill:none;  stroke-width:1.0;' d="M574.57 111.29 L574.44 112.42 L574.35 114.52 L574.00 118.24 L573.69 122.22 L573.42 125.41 L573.47 127.84 " stroke-linecap='round' stroke-linejoin='round' brush-type='1' stroke-wetness='0.5'></path><path  style = ' stroke:#000000;  fill:none;  stroke-width:1.0;' d="M580.28 122.71 L580.95 122.91 L581.52 122.97 L582.81 123.06 L584.27 122.62 L585.81 121.65 L587.01 120.32 L587.58 119.08 L587.23 118.19 L586.17 117.71 L584.49 117.93 L582.89 119.04 L581.74 121.07 L581.21 123.46 L581.39 125.81 L582.41 127.71 L584.31 128.99 L586.70 129.61 " stroke-linecap='round' stroke-linejoin='round' brush-type='1' stroke-wetness='0.5'></path><path  style = ' stroke:#000000;  fill:none;  stroke-width:1.0;' d="M594.36 120.05 L594.55 120.52 L595.02 121.38 L595.99 122.93 L597.23 124.66 L598.47 126.07 L599.58 127.27 L600.46 128.02 " stroke-linecap='round' stroke-linejoin='round' brush-type='1' stroke-wetness='0.5'></path><path  style = ' stroke:#000000;  fill:none;  stroke-width:1.0;' d="M601.26 117.53 L600.06 118.46 L598.56 120.10 L595.82 123.11 L593.29 126.38 L591.39 129.17 " stroke-linecap='round' stroke-linejoin='round' brush-type='1' stroke-wetness='0.5'></path><path  style = ' stroke:#000000;  fill:none;  stroke-width:1.0;' d="M76.73 136.78 L77.07 137.78 L77.22 138.95 L77.57 141.69 L77.71 145.14 L77.80 148.95 L77.80 152.58 L77.75 155.63 L77.71 157.98 L77.66 159.48 L77.66 160.06 " stroke-linecap='round' stroke-linejoin='round' brush-type='1' stroke-wetness='0.5'></path><path  style = ' stroke:#000000;  fill:none;  stroke-width:1.0;' d="M84.04 138.51 L83.90 139.10 L83.81 140.41 L83.46 143.37 L83.02 147.40 L82.49 151.47 L82.18 154.92 L82.04 157.53 L82.04 159.13 " stroke-linecap='round' stroke-linejoin='round' brush-type='1' stroke-wetness='0.5'></path><path  style = ' stroke:#000000;  fill:none;  stroke-width:1.0;' d="M76.60 151.38 L77.07 150.79 L78.11 150.59 L80.23 150.19 L83.37 150.19 L86.56 150.45 " stroke-linecap='round' stroke-linejoin='round' brush-type='1' stroke-wetness='0.5'></path><path  style = ' stroke:#000000;  fill:none;  stroke-width:1.0;' d="M97.71 150.32 L96.45 150.19 L95.14 150.76 L92.89 151.91 L91.20 153.86 L90.36 155.68 L90.05 157.18 L90.45 158.02 L91.56 157.93 L93.20 156.87 L94.70 155.15 L95.63 153.24 L96.03 151.78 L96.12 151.65 L96.12 153.07 L96.07 155.63 L96.03 157.84 " stroke-linecap='round' stroke-linejoin='round' brush-type='1' stroke-wetness='0.5'></path><path  style = ' stroke:#000000;  fill:none;  stroke-width:1.0;' d="M100.76 154.44 L100.70 155.30 L100.67 155.85 L100.76 156.78 L101.21 157.14 L102.05 156.87 L103.15 155.90 L104.30 154.22 L105.41 152.22 L106.34 150.72 " stroke-linecap='round' stroke-linejoin='round' brush-type='1' stroke-wetness='0.5'></path><path  style = ' stroke:#000000;  fill:none;  stroke-width:1.0;' d="M110.06 156.30 L110.72 156.23 L111.34 156.12 L112.58 155.63 L113.68 154.84 L114.44 153.77 L114.79 152.71 L114.39 151.91 L113.33 151.52 L111.60 152.05 L109.75 153.51 L108.29 155.63 L107.49 157.76 L107.62 159.48 L108.86 160.68 L111.52 161.30 " stroke-linecap='round' stroke-linejoin='round' brush-type='1' stroke-wetness='0.5'></path><path  style = ' stroke:#000000;  fill:none;  stroke-width:1.0;' d="M133.82 148.20 L133.02 148.33 L131.96 148.64 L130.32 149.22 L129.04 149.97 L128.55 150.81 L128.77 151.74 L129.70 152.80 L131.08 153.95 L132.32 155.19 L133.07 156.38 L133.38 157.45 L133.02 158.33 L132.18 159.04 L130.94 159.48 L129.93 159.70 " stroke-linecap='round' stroke-linejoin='round' brush-type='1' stroke-wetness='0.5'></path><path  style = ' stroke:#000000;  fill:none;  stroke-width:1.0;' d="M139.66 153.64 L139.59 154.57 L139.57 155.54 L139.53 157.00 L139.62 157.89 L140.19 157.80 L141.25 156.83 L142.58 155.10 L143.60 153.15 L144.17 151.78 L144.40 151.65 L144.44 152.80 L144.53 154.88 L144.75 156.83 " stroke-linecap='round' stroke-linejoin='round' brush-type='1' stroke-wetness='0.5'></path><path  style = ' stroke:#000000;  fill:none;  stroke-width:1.0;' d="M152.14 156.43 L152.41 155.30 L152.58 154.53 L153.29 152.98 L154.44 151.87 L156.12 151.16 L157.58 151.07 L158.47 152.05 L158.56 153.91 L157.80 156.21 L156.39 158.11 L154.62 159.17 L153.11 159.26 L151.92 158.07 L151.08 155.63 L150.55 151.96 L150.33 147.71 L150.37 143.86 L150.59 141.29 L150.81 140.36 L150.95 141.29 L150.95 144.26 L150.95 148.73 L151.03 153.46 L151.70 157.09 " stroke-linecap='round' stroke-linejoin='round' brush-type='1' stroke-wetness='0.5'></path><path  style = ' stroke:#000000;  fill:none;  stroke-width:1.0;' d="M168.20 148.60 L167.47 149.53 L166.52 150.59 L164.66 152.80 L162.89 155.23 L161.79 157.49 L161.57 159.22 L162.14 160.10 " stroke-linecap='round' stroke-linejoin='round' brush-type='1' stroke-wetness='0.5'></path><path  style = ' stroke:#000000;  fill:none;  stroke-width:1.0;' d="M175.90 153.24 L175.04 153.31 L174.18 153.68 L172.54 154.61 L171.04 156.21 L169.97 158.02 L169.40 159.66 L169.84 160.63 L171.12 160.99 L173.12 160.46 L174.93 159.31 L176.08 157.58 L176.52 155.85 L176.26 154.53 L175.51 153.82 L174.35 153.77 L173.25 154.39 L172.58 155.72 " stroke-linecap='round' stroke-linejoin='round' brush-type='1' stroke-wetness='0.5'></path><path  style = ' stroke:#000000;  fill:none;  stroke-width:1.0;' d="M179.75 160.41 L179.55 159.28 L179.49 158.20 L179.36 156.03 L179.44 153.99 L179.89 152.40 L180.64 151.52 L181.39 151.69 L181.83 152.80 L181.88 154.66 L181.61 156.47 L181.21 157.76 L181.48 157.31 L182.41 155.99 L183.82 154.35 L184.84 153.68 L185.51 153.86 L185.82 154.88 L185.95 156.87 L185.99 159.48 L185.99 161.92 " stroke-linecap='round' stroke-linejoin='round' brush-type='1' stroke-wetness='0.5'></path><path  style = ' stroke:#000000;  fill:none;  stroke-width:1.0;' d="M189.84 169.44 L190.11 168.38 L190.20 167.40 L190.33 165.01 L190.20 161.87 L190.06 158.24 L189.98 154.88 L190.29 152.58 L190.91 151.30 L191.92 150.81 L192.94 151.12 L193.69 152.14 L193.96 153.82 L193.38 155.72 L192.14 157.36 L190.33 158.46 " stroke-linecap='round' stroke-linejoin='round' brush-type='1' stroke-wetness='0.5'></path><path  style = ' stroke:#000000;  fill:none;  stroke-width:1.0;' d="M198.21 146.21 L198.34 147.20 L198.38 148.51 L198.43 151.03 L198.30 153.64 L198.16 155.94 L198.12 157.58 " stroke-linecap='round' stroke-linejoin='round' brush-type='1' stroke-wetness='0.5'></path><path  style = ' stroke:#000000;  fill:none;  stroke-width:1.0;' d="M204.31 154.84 L204.98 154.64 L205.64 154.35 L206.79 153.51 L207.54 152.27 L207.81 151.03 L207.37 150.28 L206.31 150.37 L204.76 151.38 L203.25 153.15 L202.28 155.23 L201.88 157.05 L202.54 158.42 L204.27 159.26 L206.44 159.66 " stroke-linecap='round' stroke-linejoin='round' brush-type='1' stroke-wetness='0.5'></path><path  style = ' stroke:#000000;  fill:none;  stroke-width:1.0;' d="M214.01 151.25 L214.60 152.98 L215.24 154.26 L216.62 156.83 L218.12 158.82 L219.71 160.41 L221.09 161.34 " stroke-linecap='round' stroke-linejoin='round' brush-type='1' stroke-wetness='0.5'></path><path  style = ' stroke:#000000;  fill:none;  stroke-width:1.0;' d="M222.63 149.79 L222.24 150.59 L221.62 152.05 L220.42 154.66 L218.96 157.58 L217.72 159.84 L216.88 161.52 L216.57 162.36 " stroke-linecap='round' stroke-linejoin='round' brush-type='1' stroke-wetness='0.5'></path><path  style = ' stroke:#000000;  fill:none;  stroke-width:1.0;' d="M224.76 154.57 L225.49 155.10 L226.17 155.28 L227.63 155.63 L229.14 155.63 L230.64 155.41 L231.84 154.84 L232.55 153.95 L232.81 152.93 L232.59 152.05 L231.88 151.43 L230.69 151.38 L229.23 152.31 L227.94 154.08 L227.10 156.30 L226.84 158.29 L227.59 159.79 L229.54 160.68 " stroke-linecap='round' stroke-linejoin='round' brush-type='1' stroke-wetness='0.5'></path><path  style = ' stroke:#000000;  fill:none;  stroke-width:1.0;' d="M242.95 150.19 L241.69 150.65 L240.73 150.99 L239.05 151.74 L238.03 152.49 L237.55 153.38 L237.46 154.44 L238.03 155.63 L239.01 156.92 L240.07 157.98 L240.73 158.82 L241.00 159.39 L241.09 159.88 L240.65 160.32 L239.58 160.68 L237.90 160.90 L236.18 160.90 L234.76 160.72 L233.96 160.46 " stroke-linecap='round' stroke-linejoin='round' brush-type='1' stroke-wetness='0.5'></path><path  style = ' stroke:#000000;  fill:none;  stroke-width:1.0;' d="M277.07 158.82 L277.00 158.35 L276.98 157.40 L276.93 155.50 L277.02 152.80 L277.33 149.88 L277.68 146.83 L277.99 144.13 L278.08 142.00 L278.13 140.54 L277.99 139.66 L277.77 139.13 L277.51 138.86 L277.68 138.73 L278.44 138.68 L279.72 138.64 L281.31 138.64 L282.99 138.64 L284.72 138.64 L286.31 138.68 L287.69 138.82 L288.75 138.99 L289.46 139.21 L289.85 139.35 " stroke-linecap='round' stroke-linejoin='round' brush-type='1' stroke-wetness='0.5'></path><path  style = ' stroke:#000000;  fill:none;  stroke-width:1.0;' d="M279.32 145.54 L279.99 145.68 L281.05 145.72 L283.04 145.90 L284.90 146.07 " stroke-linecap='round' stroke-linejoin='round' brush-type='1' stroke-wetness='0.5'></path><path  style = ' stroke:#000000;  fill:none;  stroke-width:1.0;' d="M290.47 165.32 L290.47 164.86 L290.47 163.91 L290.47 162.18 L290.43 159.92 L290.30 157.62 L290.16 155.32 L290.08 153.42 L290.08 152.09 L290.25 151.34 L290.69 151.03 L291.40 151.07 L292.16 151.56 L292.73 152.36 L293.04 153.38 L293.00 154.26 L292.46 155.01 L291.45 155.63 L290.21 156.03 L289.10 156.25 L288.48 156.21 " stroke-linecap='round' stroke-linejoin='round' brush-type='1' stroke-wetness='0.5'></path><path  style = ' stroke:#000000;  fill:none;  stroke-width:1.0;' d="M313.71 141.29 L313.31 141.23 L312.60 141.29 L310.83 141.91 L308.44 143.33 L305.92 145.50 L303.75 147.98 L302.33 150.41 L301.63 152.58 L301.80 154.35 L302.91 155.76 L304.99 156.78 L308.00 157.36 L311.05 157.58 L313.62 157.62 " stroke-linecap='round' stroke-linejoin='round' brush-type='1' stroke-wetness='0.5'></path><path  style = ' stroke:#000000;  fill:none;  stroke-width:1.0;' d="M321.14 151.78 L321.07 152.31 L321.05 153.42 L320.96 155.54 L320.92 158.07 L320.88 160.23 L320.88 161.96 L320.88 163.02 " stroke-linecap='round' stroke-linejoin='round' brush-type='1' stroke-wetness='0.5'></path><path  style = ' stroke:#000000;  fill:none;  stroke-width:1.0;' d="M316.89 158.02 L317.56 157.49 L318.31 157.31 L319.99 156.96 L321.94 156.96 L323.75 156.83 " stroke-linecap='round' stroke-linejoin='round' brush-type='1' stroke-wetness='0.5'></path><path  style = ' stroke:#000000;  fill:none;  stroke-width:1.0;' d="M325.79 156.03 L324.66 155.96 L323.88 156.92 L322.47 158.33 L321.54 160.28 L320.88 161.56 " stroke-linecap='round' stroke-linejoin='round' brush-type='1' stroke-wetness='0.5'></path><path  style = ' stroke:#000000;  fill:none;  stroke-width:1.0;' d="M318.49 156.83 L319.28 157.36 L320.08 157.80 L321.63 158.64 L323.31 159.35 L324.95 159.97 L326.36 160.46 " stroke-linecap='round' stroke-linejoin='round' brush-type='1' stroke-wetness='0.5'></path><path  style = ' stroke:#000000;  fill:none;  stroke-width:1.0;' d="M322.47 136.38 L321.94 136.32 L321.45 136.47 L320.34 137.00 L319.24 137.84 L318.26 138.73 L317.69 139.26 L317.47 139.66 L317.73 140.10 L318.53 140.81 L319.77 141.78 L320.96 142.80 L321.80 143.73 L322.20 144.39 L322.03 144.88 L321.18 145.23 L319.90 145.50 L318.62 145.63 L317.82 145.68 L318.35 144.26 " stroke-linecap='round' stroke-linejoin='round' brush-type='1' stroke-wetness='0.5'></path><path  style = ' stroke:#000000;  fill:none;  stroke-width:1.0;' d="M324.46 141.96 L324.46 143.02 L324.46 143.77 L324.46 145.23 L324.46 146.29 " stroke-linecap='round' stroke-linejoin='round' brush-type='1' stroke-wetness='0.5'></path><path  style = ' stroke:#000000;  fill:none;  stroke-width:1.0;' d="M328.71 145.81 L328.11 144.88 L327.91 144.13 L327.51 142.84 L327.51 142.05 L327.56 141.65 L327.78 141.47 L328.13 141.87 L328.53 142.84 L328.80 144.30 L328.97 145.63 L329.42 146.74 " stroke-linecap='round' stroke-linejoin='round' brush-type='1' stroke-wetness='0.5'></path><path  style = ' stroke:#000000;  fill:none;  stroke-width:1.0;' d="M335.35 140.76 L334.02 141.10 L333.35 141.65 L332.07 142.75 L331.67 144.04 L331.67 145.10 L332.29 145.72 L333.27 145.81 L334.28 145.23 L334.95 144.13 L335.30 142.71 L335.43 141.52 L335.48 140.81 L335.48 140.94 L335.48 142.05 L335.35 143.91 L334.99 146.07 L334.28 148.02 L333.35 149.57 L332.25 150.59 L331.05 151.16 L329.77 151.43 L328.62 151.25 L327.87 150.68 " stroke-linecap='round' stroke-linejoin='round' brush-type='1' stroke-wetness='0.5'></path><path  style = ' stroke:#000000;  fill:none;  stroke-width:1.0;' d="M347.69 140.23 L346.56 140.56 L345.44 141.29 L343.22 143.11 L341.28 145.81 L339.90 148.91 L339.28 151.83 L339.68 154.26 L341.01 156.07 L343.05 157.40 L345.35 158.24 L347.69 158.69 L349.68 158.82 " stroke-linecap='round' stroke-linejoin='round' brush-type='1' stroke-wetness='0.5'></path><path  style = ' stroke:#000000;  fill:none;  stroke-width:1.0;' d="M353.00 145.28 L353.33 145.68 L354.20 146.69 L355.79 148.55 L357.78 150.81 L359.51 152.71 L360.88 154.30 L361.76 155.46 " stroke-linecap='round' stroke-linejoin='round' brush-type='1' stroke-wetness='0.5'></path><path  style = ' stroke:#000000;  fill:none;  stroke-width:1.0;' d="M360.30 145.68 L359.11 146.41 L358.14 147.49 L356.10 149.83 L354.37 152.53 L352.91 155.15 L352.07 157.23 " stroke-linecap='round' stroke-linejoin='round' brush-type='1' stroke-wetness='0.5'></path><path  style = ' stroke:#000000;  fill:none;  stroke-width:1.0;' d="M363.89 138.64 L364.75 139.83 L365.48 141.47 L366.76 144.39 L367.61 147.53 L368.00 150.41 L367.78 153.29 L366.81 155.85 L365.13 158.11 L363.14 160.01 L361.19 161.52 L359.55 162.49 " stroke-linecap='round' stroke-linejoin='round' brush-type='1' stroke-wetness='0.5'></path><path  style = ' stroke:#000000;  fill:none;  stroke-width:1.0;' d="M378.76 151.12 L379.42 151.18 L380.48 151.21 L382.39 151.25 L384.42 151.21 L386.10 151.12 L387.52 150.94 L388.58 150.76 " stroke-linecap='round' stroke-linejoin='round' brush-type='1' stroke-wetness='0.5'></path><path  style = ' stroke:#000000;  fill:none;  stroke-width:1.0;' d="M377.83 155.63 L378.36 155.63 L379.11 155.63 L380.79 155.63 L383.14 155.63 L385.93 155.63 L388.89 155.59 L391.33 155.54 " stroke-linecap='round' stroke-linejoin='round' brush-type='1' stroke-wetness='0.5'></path><path  style = ' stroke:#000000;  fill:none;  stroke-width:1.0;' d="M408.36 142.22 L407.83 142.29 L406.95 142.84 L405.31 143.95 L403.49 145.72 L401.90 147.80 L400.53 150.14 L399.64 152.58 L399.25 154.79 L399.51 156.69 L400.44 158.29 L402.12 159.57 L404.34 160.50 L406.68 160.99 L408.98 161.16 L410.88 161.08 L412.30 160.77 L413.14 160.41 L413.63 160.15 L413.85 159.97 L413.94 159.70 " stroke-linecap='round' stroke-linejoin='round' brush-type='1' stroke-wetness='0.5'></path><path  style = ' stroke:#000000;  fill:none;  stroke-width:1.0;' d="M420.58 139.30 L419.25 139.37 L418.10 139.52 L416.06 139.97 L414.56 140.72 L413.63 141.65 L413.10 142.53 L413.01 143.29 L413.45 143.95 L414.34 144.66 L415.49 145.41 L416.42 146.16 L416.99 146.83 L417.21 147.40 L417.21 147.89 L416.86 148.29 L416.19 148.55 L415.44 148.68 " stroke-linecap='round' stroke-linejoin='round' brush-type='1' stroke-wetness='0.5'></path><path  style = ' stroke:#000000;  fill:none;  stroke-width:1.0;' d="M424.43 142.75 L424.36 143.68 L424.34 144.48 L424.25 146.03 L424.20 147.62 L424.16 149.08 " stroke-linecap='round' stroke-linejoin='round' brush-type='1' stroke-wetness='0.5'></path><path  style = ' stroke:#000000;  fill:none;  stroke-width:1.0;' d="M427.74 146.74 L427.74 145.87 L427.79 145.23 L428.05 143.95 L428.59 142.98 L429.25 142.31 L429.78 142.00 L430.13 142.00 L430.31 142.49 L430.53 143.60 L430.71 144.88 " stroke-linecap='round' stroke-linejoin='round' brush-type='1' stroke-wetness='0.5'></path><path  style = ' stroke:#000000;  fill:none;  stroke-width:1.0;' d="M438.76 141.96 L438.10 141.63 L437.52 141.56 L436.42 141.83 L435.58 142.71 L435.09 143.99 L434.91 145.10 L435.31 145.85 L436.15 146.16 L437.26 145.81 L438.10 145.01 L438.54 143.73 L438.72 142.53 L438.76 141.56 L438.76 141.12 L438.76 141.87 L438.76 143.55 L438.72 145.85 L438.32 147.67 L437.48 149.13 L436.11 150.14 L434.52 150.85 L432.83 151.21 L431.55 151.34 " stroke-linecap='round' stroke-linejoin='round' brush-type='1' stroke-wetness='0.5'></path><path  style = ' stroke:#000000;  fill:none;  stroke-width:1.0;' d="M426.55 155.23 L426.68 156.23 L426.73 157.23 L426.82 159.17 L426.82 161.08 L426.82 162.89 L426.82 164.31 " stroke-linecap='round' stroke-linejoin='round' brush-type='1' stroke-wetness='0.5'></path><path  style = ' stroke:#000000;  fill:none;  stroke-width:1.0;' d="M422.97 159.48 L423.43 159.42 L423.98 159.39 L425.22 159.35 L426.73 159.35 " stroke-linecap='round' stroke-linejoin='round' brush-type='1' stroke-wetness='0.5'></path><path  style = ' stroke:#000000;  fill:none;  stroke-width:1.0;' d="M429.47 154.97 L429.14 155.70 L428.90 156.74 L428.36 158.69 L427.79 160.77 L426.99 162.49 " stroke-linecap='round' stroke-linejoin='round' brush-type='1' stroke-wetness='0.5'></path><path  style = ' stroke:#000000;  fill:none;  stroke-width:1.0;' d="M423.36 158.15 L423.70 158.15 L424.25 158.29 L425.49 158.73 L426.99 159.48 L428.63 160.46 L430.13 161.43 L431.59 162.36 L433.01 162.98 " stroke-linecap='round' stroke-linejoin='round' brush-type='1' stroke-wetness='0.5'></path><path  style = ' stroke:#000000;  fill:none;  stroke-width:1.0;' d="M457.48 135.72 L456.89 136.12 L455.89 137.22 L453.99 139.57 L451.77 142.98 L449.92 146.65 L448.54 150.28 L447.88 153.42 L447.70 155.99 L448.15 158.07 L449.16 159.75 L450.76 161.03 L452.66 161.78 L454.65 162.09 " stroke-linecap='round' stroke-linejoin='round' brush-type='1' stroke-wetness='0.5'></path><path  style = ' stroke:#000000;  fill:none;  stroke-width:1.0;' d="M462.93 145.14 L463.26 145.74 L463.90 146.74 L465.27 148.95 L467.00 151.69 L468.72 154.39 L470.32 156.69 L471.78 158.51 L472.97 159.84 L473.86 160.68 L474.34 161.08 " stroke-linecap='round' stroke-linejoin='round' brush-type='1' stroke-wetness='0.5'></path><path  style = ' stroke:#000000;  fill:none;  stroke-width:1.0;' d="M469.70 146.87 L468.77 147.47 L467.70 148.82 L465.80 151.25 L464.08 154.17 L462.66 156.69 L461.55 158.86 L460.85 160.28 " stroke-linecap='round' stroke-linejoin='round' brush-type='1' stroke-wetness='0.5'></path><path  style = ' stroke:#000000;  fill:none;  stroke-width:1.0;' d="M482.44 136.25 L481.51 136.65 L480.80 137.31 L479.43 138.73 L478.55 140.50 L478.06 142.27 L477.97 143.77 L478.50 144.88 L479.65 145.54 L481.51 145.85 L483.19 145.94 " stroke-linecap='round' stroke-linejoin='round' brush-type='1' stroke-wetness='0.5'></path><path  style = ' stroke:#000000;  fill:none;  stroke-width:1.0;' d="M485.89 149.79 L485.83 148.86 L485.80 148.11 L485.76 146.38 L485.76 144.44 L485.76 142.09 L485.80 139.79 L485.94 137.98 L486.16 136.87 L486.38 136.38 L486.69 136.25 L487.22 136.60 L487.93 137.53 L488.59 139.04 L488.95 140.59 L489.08 141.83 L489.03 142.62 L488.72 143.06 L488.15 143.24 L487.49 143.20 L487.00 142.89 " stroke-linecap='round' stroke-linejoin='round' brush-type='1' stroke-wetness='0.5'></path><path  style = ' stroke:#000000;  fill:none;  stroke-width:1.0;' d="M492.80 136.78 L492.93 137.25 L493.06 138.29 L493.33 140.14 L493.50 142.31 L493.42 144.17 L492.84 145.76 L491.78 147.05 L490.41 147.93 L489.03 148.55 " stroke-linecap='round' stroke-linejoin='round' brush-type='1' stroke-wetness='0.5'></path><path  style = ' stroke:#000000;  fill:none;  stroke-width:1.0;' d="M499.70 137.98 L500.56 138.17 L501.25 138.73 L502.49 140.14 L503.33 142.44 L503.77 145.50 L503.86 148.91 L503.20 152.40 L501.82 155.68 L499.83 158.64 L497.62 161.16 L495.32 163.11 L492.97 164.57 L490.76 165.50 " stroke-linecap='round' stroke-linejoin='round' brush-type='1' stroke-wetness='0.5'></path><path  style = ' stroke:#000000;  fill:none;  stroke-width:1.0;' d="M41.15 181.79 L41.49 181.79 L42.39 181.79 L44.12 181.79 L46.29 181.79 L48.28 181.79 L50.05 181.79 L51.55 181.79 L52.79 181.79 L53.77 181.74 L54.47 181.65 L54.92 181.56 " stroke-linecap='round' stroke-linejoin='round' brush-type='1' stroke-wetness='0.5'></path><path  style = ' stroke:#000000;  fill:none;  stroke-width:1.0;' d="M61.73 177.94 L61.73 178.47 L61.73 179.17 L61.73 180.59 L61.73 182.23 L61.91 183.73 L62.31 184.93 L62.93 185.59 L63.81 185.72 L65.05 185.06 L66.51 183.64 L67.79 181.74 L68.59 180.10 L69.03 179.17 L69.26 179.75 L69.39 181.39 L69.48 183.51 L69.61 184.93 L69.96 185.64 L70.63 185.81 L71.69 185.33 L73.02 184.17 L74.43 182.23 L75.76 180.06 L76.87 178.16 L77.71 177.09 " stroke-linecap='round' stroke-linejoin='round' brush-type='1' stroke-wetness='0.5'></path><path  style = ' stroke:#000000;  fill:none;  stroke-width:1.0;' d="M79.65 183.11 L80.32 183.38 L80.85 183.47 L82.00 183.47 L83.11 182.98 L84.04 182.18 L84.57 181.21 L84.57 180.24 L84.04 179.53 L82.97 179.17 L81.47 179.48 L79.88 180.55 L78.55 182.23 L77.80 184.13 L77.57 185.81 L78.19 187.27 L79.79 188.33 L82.80 188.91 " stroke-linecap='round' stroke-linejoin='round' brush-type='1' stroke-wetness='0.5'></path><path  style = ' stroke:#000000;  fill:none;  stroke-width:1.0;' d="M100.76 179.26 L99.90 179.33 L99.08 179.48 L97.67 179.88 L96.56 180.50 L95.94 181.21 L95.63 182.01 L95.85 182.89 L96.56 183.95 L97.53 185.10 L98.37 186.17 L98.82 187.05 L98.99 187.72 L98.86 188.20 L98.28 188.60 L97.31 188.82 L96.34 188.95 L95.72 188.73 " stroke-linecap='round' stroke-linejoin='round' brush-type='1' stroke-wetness='0.5'></path><path  style = ' stroke:#000000;  fill:none;  stroke-width:1.0;' d="M107.00 182.58 L106.14 182.71 L105.45 182.85 L104.08 183.47 L103.06 184.44 L102.40 185.72 L102.13 186.74 L102.18 187.36 L102.80 187.41 L103.99 186.70 L105.54 185.41 L106.78 183.87 L107.53 182.76 L107.84 182.14 L107.75 182.67 L107.27 184.13 L106.60 186.48 L106.07 188.78 L106.03 190.68 " stroke-linecap='round' stroke-linejoin='round' brush-type='1' stroke-wetness='0.5'></path><path  style = ' stroke:#000000;  fill:none;  stroke-width:1.0;' d="M117.22 183.91 L116.83 184.71 L116.30 186.12 L115.32 188.56 L114.39 191.21 L113.86 193.16 " stroke-linecap='round' stroke-linejoin='round' brush-type='1' stroke-wetness='0.5'></path><path  style = ' stroke:#000000;  fill:none;  stroke-width:1.0;' d="M113.64 195.46 L114.24 192.21 L113.95 190.28 L113.37 186.61 L112.14 184.79 L111.12 183.42 " stroke-linecap='round' stroke-linejoin='round' brush-type='1' stroke-wetness='0.5'></path><path  style = ' stroke:#000000;  fill:none;  stroke-width:1.0;' d="M140.59 173.82 L139.79 173.16 L138.91 172.93 L137.14 172.58 L135.37 173.11 L133.78 174.40 L132.58 176.56 L131.87 179.35 L131.61 182.23 L131.61 184.66 L131.70 186.43 L131.78 187.58 " stroke-linecap='round' stroke-linejoin='round' brush-type='1' stroke-wetness='0.5'></path><path  style = ' stroke:#000000;  fill:none;  stroke-width:1.0;' d="M129.44 181.92 L130.24 181.59 L131.61 181.48 L134.04 181.25 L136.30 181.25 " stroke-linecap='round' stroke-linejoin='round' brush-type='1' stroke-wetness='0.5'></path><path  style = ' stroke:#000000;  fill:none;  stroke-width:1.0;' d="M141.79 181.25 L141.65 181.85 L141.61 182.45 L141.43 183.78 L141.25 185.24 L140.94 186.70 L140.63 188.33 " stroke-linecap='round' stroke-linejoin='round' brush-type='1' stroke-wetness='0.5'></path><path  style = ' stroke:#000000;  fill:none;  stroke-width:1.0;' d="M146.30 172.63 L146.70 173.22 L146.83 174.31 L147.10 176.78 L147.01 179.93 L146.83 183.20 L146.65 186.03 L146.56 188.38 L146.65 189.97 " stroke-linecap='round' stroke-linejoin='round' brush-type='1' stroke-wetness='0.5'></path><path  style = ' stroke:#000000;  fill:none;  stroke-width:1.0;' d="M154.80 177.94 L154.80 178.33 L154.80 179.13 L154.75 180.94 L154.57 183.47 L154.22 186.17 L153.73 188.51 " stroke-linecap='round' stroke-linejoin='round' brush-type='1' stroke-wetness='0.5'></path><path  style = ' stroke:#000000;  fill:none;  stroke-width:1.0;' d="M153.33 179.79 L153.87 179.86 L154.53 179.88 L155.99 180.19 L157.58 180.77 " stroke-linecap='round' stroke-linejoin='round' brush-type='1' stroke-wetness='0.5'></path><path  style = ' stroke:#000000;  fill:none;  stroke-width:1.0;' d="M161.57 184.17 L162.16 184.31 L162.81 184.35 L164.09 184.26 L165.28 183.69 L166.17 182.98 L166.30 182.10 L165.19 182.01 L163.56 182.63 L161.96 184.71 L161.43 187.05 L162.10 189.22 " stroke-linecap='round' stroke-linejoin='round' brush-type='1' stroke-wetness='0.5'></path><path  style = ' stroke:#000000;  fill:none;  stroke-width:1.0;' d="M169.66 187.63 L169.33 186.43 L169.22 185.19 L169.00 183.11 L169.09 181.61 L169.49 180.86 L170.37 180.50 L171.61 180.37 L172.81 180.59 " stroke-linecap='round' stroke-linejoin='round' brush-type='1' stroke-wetness='0.5'></path><path  style = ' stroke:#000000;  fill:none;  stroke-width:1.0;' d="M174.31 182.32 L174.71 184.04 L175.55 184.44 L176.97 185.06 L178.29 184.17 L178.96 183.20 L179.18 182.36 L178.96 181.74 L178.20 181.39 L176.97 181.48 L175.55 182.32 L174.49 183.73 L173.91 185.41 L174.09 186.92 L175.28 188.07 " stroke-linecap='round' stroke-linejoin='round' brush-type='1' stroke-wetness='0.5'></path><path  style = ' stroke:#000000;  fill:none;  stroke-width:1.0;' d="M187.32 183.78 L186.52 183.25 L185.60 183.33 L184.09 183.64 L182.98 184.71 L182.54 185.81 L182.41 186.65 L182.81 187.10 L183.74 186.92 L185.11 185.95 L186.44 184.09 L187.45 181.30 L188.16 177.94 L188.60 174.35 L188.83 171.39 L188.91 169.62 L188.91 169.84 L188.74 172.05 L188.47 175.81 L188.16 179.88 L188.03 183.47 " stroke-linecap='round' stroke-linejoin='round' brush-type='1' stroke-wetness='0.5'></path><path  style = ' stroke:#000000;  fill:none;  stroke-width:1.0;' d="M207.37 179.93 L206.11 180.52 L205.38 181.52 L204.18 183.47 L203.87 185.64 L204.40 187.36 L205.86 188.42 L208.08 188.69 L210.46 187.94 L212.50 186.21 " stroke-linecap='round' stroke-linejoin='round' brush-type='1' stroke-wetness='0.5'></path><path  style = ' stroke:#000000;  fill:none;  stroke-width:1.0;' d="M215.07 175.41 L214.54 174.42 L214.36 175.37 L214.01 177.09 L214.01 180.59 L214.05 183.51 L214.14 185.64 L214.23 186.74 L214.31 187.14 L214.49 186.87 L214.93 185.81 L215.69 184.22 L216.62 182.80 L217.55 182.10 L218.30 182.27 L218.92 183.16 L219.45 184.75 L220.16 186.52 L221.00 187.94 " stroke-linecap='round' stroke-linejoin='round' brush-type='1' stroke-wetness='0.5'></path><path  style = ' stroke:#000000;  fill:none;  stroke-width:1.0;' d="M228.48 181.79 L227.41 181.52 L226.71 181.65 L225.25 182.14 L224.27 183.51 L223.56 185.33 L223.30 187.05 L223.61 188.11 L224.54 188.20 L225.86 187.36 L227.10 185.77 L227.90 183.95 L228.30 182.58 L228.43 182.71 L228.48 184.13 L228.48 186.21 " stroke-linecap='round' stroke-linejoin='round' brush-type='1' stroke-wetness='0.5'></path><path  style = ' stroke:#000000;  fill:none;  stroke-width:1.0;' d="M233.92 179.93 L233.92 180.79 L233.92 181.87 L233.83 184.17 L233.61 186.79 L233.34 189.44 " stroke-linecap='round' stroke-linejoin='round' brush-type='1' stroke-wetness='0.5'></path><path  style = ' stroke:#000000;  fill:none;  stroke-width:1.0;' d="M238.17 189.49 L237.84 188.56 L237.72 187.54 L237.55 185.64 L237.86 183.91 L238.43 182.63 L239.32 181.92 L240.25 181.87 L241.09 182.76 L241.66 184.48 L241.97 186.74 L242.19 188.95 L242.42 190.50 " stroke-linecap='round' stroke-linejoin='round' brush-type='1' stroke-wetness='0.5'></path><path  style = ' stroke:#000000;  fill:none;  stroke-width:1.0;' d="M257.02 180.46 L256.22 180.72 L255.51 181.17 L254.19 182.32 L253.21 184.13 L252.68 186.30 L252.68 188.47 L253.79 190.10 L255.43 191.12 " stroke-linecap='round' stroke-linejoin='round' brush-type='1' stroke-wetness='0.5'></path><path  style = ' stroke:#000000;  fill:none;  stroke-width:1.0;' d="M266.44 183.64 L265.25 183.64 L264.10 183.91 L262.15 184.66 L260.78 186.08 L260.16 187.80 L260.12 189.35 L261.09 190.28 L262.86 190.37 L264.98 189.62 L266.58 188.38 L267.37 186.87 L267.55 185.50 L267.20 184.40 L266.53 183.78 L265.78 183.56 L265.21 183.95 L264.94 184.71 " stroke-linecap='round' stroke-linejoin='round' brush-type='1' stroke-wetness='0.5'></path><path  style = ' stroke:#000000;  fill:none;  stroke-width:1.0;' d="M274.14 189.62 L273.95 188.42 L273.88 187.45 L273.75 185.55 L273.79 184.13 L274.01 183.11 L274.45 182.63 L275.12 182.45 L275.78 182.76 L276.27 183.42 L276.49 184.31 L276.53 185.02 L276.53 185.41 L276.93 185.46 L277.77 185.10 L278.97 184.53 L280.12 184.09 L281.14 184.09 L282.02 184.84 L282.73 186.34 L283.22 188.69 L283.53 190.86 " stroke-linecap='round' stroke-linejoin='round' brush-type='1' stroke-wetness='0.5'></path><path  style = ' stroke:#000000;  fill:none;  stroke-width:1.0;' d="M286.89 198.65 L286.96 197.58 L286.98 196.61 L287.02 194.31 L287.02 191.39 L287.02 187.76 L287.15 184.13 L287.38 181.34 L287.69 179.84 L288.13 179.31 L288.70 179.62 L289.37 180.68 L289.77 182.54 L289.90 184.62 L289.41 186.39 L288.39 187.58 L286.93 188.25 " stroke-linecap='round' stroke-linejoin='round' brush-type='1' stroke-wetness='0.5'></path><path  style = ' stroke:#000000;  fill:none;  stroke-width:1.0;' d="M294.19 177.27 L294.32 178.13 L294.32 179.53 L294.24 181.92 L294.01 184.48 L293.84 186.65 L293.79 188.33 " stroke-linecap='round' stroke-linejoin='round' brush-type='1' stroke-wetness='0.5'></path><path  style = ' stroke:#000000;  fill:none;  stroke-width:1.0;' d="M298.17 186.43 L298.70 186.23 L299.24 186.17 L300.39 185.90 L301.63 185.46 L302.69 184.71 L303.35 183.87 L303.53 183.11 L303.09 182.49 L302.11 182.10 L300.70 182.10 L299.41 182.85 L298.53 184.22 L298.13 185.99 L298.31 187.67 L299.15 189.09 L300.74 190.10 L302.82 190.64 L304.63 190.81 " stroke-linecap='round' stroke-linejoin='round' brush-type='1' stroke-wetness='0.5'></path><path  style = ' stroke:#000000;  fill:none;  stroke-width:1.0;' d="M309.59 182.98 L310.12 183.71 L310.56 184.53 L311.58 185.99 L312.64 187.36 L313.71 188.47 L314.50 189.22 " stroke-linecap='round' stroke-linejoin='round' brush-type='1' stroke-wetness='0.5'></path><path  style = ' stroke:#000000;  fill:none;  stroke-width:1.0;' d="M313.84 182.58 L312.58 183.71 L311.36 184.79 L309.33 186.74 L307.78 188.38 L306.76 189.88 " stroke-linecap='round' stroke-linejoin='round' brush-type='1' stroke-wetness='0.5'></path><path  style = ' stroke:#000000;  fill:none;  stroke-width:1.0;' d="M331.89 180.46 L332.09 180.86 L332.16 181.52 L332.29 182.85 L332.42 184.40 L332.82 185.64 L333.49 186.39 L334.37 186.61 L335.26 186.17 L336.10 185.15 L336.76 183.91 L337.20 183.02 L337.51 182.71 L337.74 183.16 L338.05 184.22 L338.53 185.72 L339.33 187.05 L340.52 187.89 L341.89 188.02 L343.31 187.18 " stroke-linecap='round' stroke-linejoin='round' brush-type='1' stroke-wetness='0.5'></path><path  style = ' stroke:#000000;  fill:none;  stroke-width:1.0;' d="M347.29 174.09 L347.43 174.62 L347.47 176.08 L347.56 178.86 L347.56 182.23 L347.56 185.02 L347.56 186.92 L347.56 187.94 L347.69 187.98 L348.18 187.18 L349.06 185.99 L350.04 185.02 L350.92 184.62 L351.50 184.97 L351.94 185.90 L352.16 187.32 L352.43 188.78 " stroke-linecap='round' stroke-linejoin='round' brush-type='1' stroke-wetness='0.5'></path><path  style = ' stroke:#000000;  fill:none;  stroke-width:1.0;' d="M357.52 186.17 L358.45 186.17 L359.15 186.17 L360.44 185.99 L361.23 185.46 L361.68 184.53 L361.76 183.33 L361.41 182.27 L360.75 181.61 L359.82 181.43 L358.89 181.96 L358.00 183.20 L357.38 185.24 L357.07 187.45 L357.25 189.53 L358.27 191.21 " stroke-linecap='round' stroke-linejoin='round' brush-type='1' stroke-wetness='0.5'></path><path  style = ' stroke:#000000;  fill:none;  stroke-width:1.0;' d="M364.29 188.69 L363.76 187.63 L363.58 186.61 L363.22 184.97 L363.22 183.82 L363.31 183.29 L363.84 182.98 L364.95 182.89 L366.50 182.94 " stroke-linecap='round' stroke-linejoin='round' brush-type='1' stroke-wetness='0.5'></path><path  style = ' stroke:#000000;  fill:none;  stroke-width:1.0;' d="M369.07 184.04 L369.73 185.17 L370.61 185.50 L372.30 185.99 L374.02 185.37 L375.26 184.40 L375.97 183.38 L376.10 182.54 L375.66 182.05 L374.69 181.83 L373.36 182.23 L372.12 183.38 L371.23 185.19 L370.79 187.14 L371.01 188.73 L372.21 189.88 L374.60 190.50 L377.34 190.72 " stroke-linecap='round' stroke-linejoin='round' brush-type='1' stroke-wetness='0.5'></path><path  style = ' stroke:#000000;  fill:none;  stroke-width:1.0;' d="M391.77 184.71 L393.23 184.77 L394.64 184.66 L397.03 184.22 L398.67 183.42 L399.42 182.45 L399.60 181.56 L399.11 180.77 L398.01 180.24 L396.46 180.02 L394.87 180.59 L393.58 181.83 L392.74 183.64 L392.39 185.41 L392.79 186.96 L394.29 188.16 L396.15 188.82 " stroke-linecap='round' stroke-linejoin='round' brush-type='1' stroke-wetness='0.5'></path><path  style = ' stroke:#000000;  fill:none;  stroke-width:1.0;' d="M407.17 183.64 L406.44 183.38 L405.66 183.33 L404.16 183.60 L402.83 184.44 L401.90 185.55 L401.46 186.43 L401.77 186.92 L402.87 186.87 L404.60 186.12 L406.28 184.88 L407.43 183.64 L408.05 182.89 L408.19 183.25 L407.96 184.48 L407.48 186.34 L407.08 188.16 " stroke-linecap='round' stroke-linejoin='round' brush-type='1' stroke-wetness='0.5'></path><path  style = ' stroke:#000000;  fill:none;  stroke-width:1.0;' d="M415.53 183.64 L414.47 184.51 L413.72 185.55 L412.52 187.32 L412.04 188.82 L412.30 189.71 L413.36 190.15 L414.78 190.10 " stroke-linecap='round' stroke-linejoin='round' brush-type='1' stroke-wetness='0.5'></path><path  style = ' stroke:#000000;  fill:none;  stroke-width:1.0;' d="M419.78 175.81 L419.71 176.54 L419.69 177.58 L419.51 179.71 L419.16 182.32 L418.67 184.93 L418.32 187.05 L418.19 188.29 L418.27 188.38 L418.67 187.36 L419.43 185.81 L420.27 184.53 L420.97 184.00 L421.42 184.31 L421.77 185.19 L421.99 186.61 L422.17 188.11 L422.39 189.53 " stroke-linecap='round' stroke-linejoin='round' brush-type='1' stroke-wetness='0.5'></path><path  style = ' stroke:#000000;  fill:none;  stroke-width:1.0;' d="M441.29 179.79 L439.29 180.59 L437.66 182.54 L435.36 185.68 L435.09 188.51 L436.73 189.66 L439.21 189.57 L441.55 188.78 L443.14 187.49 L443.90 185.99 L443.72 184.31 L442.83 182.58 L441.68 181.17 L440.76 180.37 L440.31 180.32 " stroke-linecap='round' stroke-linejoin='round' brush-type='1' stroke-wetness='0.5'></path><path  style = ' stroke:#000000;  fill:none;  stroke-width:1.0;' d="M446.60 184.97 L447.13 183.71 L447.53 182.85 L448.59 181.30 L449.74 180.50 L451.07 180.15 L452.13 180.50 L452.79 181.74 L453.01 183.91 L452.57 186.30 L451.77 188.16 L450.76 189.13 L449.92 189.18 L449.12 188.25 L448.32 186.21 L447.66 183.20 L447.26 179.48 L447.13 175.99 L447.13 173.42 L447.13 172.23 L447.17 173.02 L447.35 175.41 L447.79 179.04 L448.41 181.96 " stroke-linecap='round' stroke-linejoin='round' brush-type='1' stroke-wetness='0.5'></path><path  style = ' stroke:#000000;  fill:none;  stroke-width:1.0;' d="M457.48 179.66 L457.68 180.26 L457.75 181.21 L457.93 183.20 L458.01 185.50 L458.10 187.67 L458.15 189.44 L458.06 190.77 L457.70 191.70 L456.95 192.32 L455.76 192.72 L454.25 192.89 L452.66 192.45 " stroke-linecap='round' stroke-linejoin='round' brush-type='1' stroke-wetness='0.5'></path><path  style = ' stroke:#000000;  fill:none;  stroke-width:1.0;' d="M464.39 184.04 L464.98 183.71 L465.32 183.20 L465.89 182.32 L466.07 181.52 L466.02 181.08 L465.54 180.90 L464.52 181.21 L463.15 182.10 L461.95 183.42 L461.24 184.79 L460.98 185.95 L461.29 186.87 L462.31 187.45 L464.12 187.72 " stroke-linecap='round' stroke-linejoin='round' brush-type='1' stroke-wetness='0.5'></path><path  style = ' stroke:#000000;  fill:none;  stroke-width:1.0;' d="M473.28 181.92 L472.55 181.92 L471.82 182.10 L470.32 182.76 L468.90 184.04 L467.84 185.72 L467.31 187.32 L467.53 188.60 L468.81 189.31 L471.11 189.62 L473.55 189.44 " stroke-linecap='round' stroke-linejoin='round' brush-type='1' stroke-wetness='0.5'></path><path  style = ' stroke:#000000;  fill:none;  stroke-width:1.0;' d="M477.13 178.86 L477.40 179.20 L477.48 180.24 L477.71 182.27 L477.75 184.79 L477.79 186.87 L477.79 188.25 L477.79 189.04 " stroke-linecap='round' stroke-linejoin='round' brush-type='1' stroke-wetness='0.5'></path><path  style = ' stroke:#000000;  fill:none;  stroke-width:1.0;' d="M475.27 182.71 L475.87 182.71 L477.04 182.71 L479.21 182.71 " stroke-linecap='round' stroke-linejoin='round' brush-type='1' stroke-wetness='0.5'></path><path  style = ' stroke:#000000;  fill:none;  stroke-width:1.0;' d="M488.15 181.79 L488.15 182.71 L488.15 183.51 L488.15 185.15 L488.19 186.70 L488.28 188.02 " stroke-linecap='round' stroke-linejoin='round' brush-type='1' stroke-wetness='0.5'></path><path  style = ' stroke:#000000;  fill:none;  stroke-width:1.0;' d="M492.00 186.17 L491.67 185.24 L491.56 184.62 L491.42 183.33 L491.87 182.32 L492.62 181.52 L493.64 181.08 L494.57 181.21 L495.36 182.01 L495.98 183.38 L496.65 185.10 L497.62 186.61 " stroke-linecap='round' stroke-linejoin='round' brush-type='1' stroke-wetness='0.5'></path><path  style = ' stroke:#000000;  fill:none;  stroke-width:1.0;' d="M508.20 178.60 L507.13 179.40 L506.34 180.41 L504.88 182.40 L504.12 184.62 L503.90 186.48 L504.70 187.67 L505.85 188.11 " stroke-linecap='round' stroke-linejoin='round' brush-type='1' stroke-wetness='0.5'></path><path  style = ' stroke:#000000;  fill:none;  stroke-width:1.0;' d="M512.58 172.49 L512.58 173.09 L512.53 174.48 L512.40 177.09 L512.13 180.24 L511.91 182.80 L511.78 184.48 L511.78 185.19 L512.13 184.57 L512.80 183.51 L513.64 182.40 L514.21 182.01 L514.57 182.32 L514.83 183.25 L515.06 184.79 L515.36 186.43 " stroke-linecap='round' stroke-linejoin='round' brush-type='1' stroke-wetness='0.5'></path><path  style = ' stroke:#000000;  fill:none;  stroke-width:1.0;' d="M522.67 180.72 L521.27 180.86 L519.92 182.45 L518.06 184.79 L517.31 187.23 L517.89 188.11 L518.95 187.85 L520.19 186.87 L521.12 185.37 L521.65 183.91 L521.83 182.94 L521.87 182.89 L521.78 183.82 L521.56 185.37 L521.34 186.96 " stroke-linecap='round' stroke-linejoin='round' brush-type='1' stroke-wetness='0.5'></path><path  style = ' stroke:#000000;  fill:none;  stroke-width:1.0;' d="M527.18 180.86 L526.98 181.79 L526.91 182.89 L526.65 185.02 L526.38 187.27 L525.94 189.44 " stroke-linecap='round' stroke-linejoin='round' brush-type='1' stroke-wetness='0.5'></path><path  style = ' stroke:#000000;  fill:none;  stroke-width:1.0;' d="M527.05 174.62 L526.98 175.01 L527.14 175.99 " stroke-linecap='round' stroke-linejoin='round' brush-type='1' stroke-wetness='0.5'></path><path  style = ' stroke:#000000;  fill:none;  stroke-width:1.0;' d="M531.43 187.89 L531.23 187.03 L531.16 186.17 L531.03 184.48 L531.12 182.94 L531.34 181.79 L531.69 181.17 L532.18 181.08 L532.71 181.79 L533.24 183.16 L533.64 185.02 L534.00 186.74 L534.39 188.07 L534.92 188.95 " stroke-linecap='round' stroke-linejoin='round' brush-type='1' stroke-wetness='0.5'></path><path  style = ' stroke:#000000;  fill:none;  stroke-width:1.0;' d="M543.38 172.89 L543.51 173.82 L543.77 176.30 L544.08 179.93 L544.31 183.60 L544.31 185.33 L544.35 186.25 L544.53 186.25 L544.88 185.41 L545.50 184.04 L546.25 182.80 L547.05 182.18 L547.71 182.45 L548.29 183.47 L548.86 185.10 L549.53 186.87 L550.15 188.20 " stroke-linecap='round' stroke-linejoin='round' brush-type='1' stroke-wetness='0.5'></path><path  style = ' stroke:#000000;  fill:none;  stroke-width:1.0;' d="M557.05 181.12 L555.92 181.79 L555.15 182.76 L553.95 184.44 L553.51 185.90 L553.60 186.65 L554.09 186.79 L554.88 186.21 L555.68 185.15 L556.21 183.78 L556.43 182.71 L556.52 182.05 L556.52 182.49 L556.52 183.87 L556.52 186.03 L556.52 187.85 " stroke-linecap='round' stroke-linejoin='round' brush-type='1' stroke-wetness='0.5'></path><path  style = ' stroke:#000000;  fill:none;  stroke-width:1.0;' d="M561.03 184.04 L560.83 185.10 L560.77 185.59 L560.77 186.48 L561.25 186.65 L562.10 186.39 L563.16 185.64 L564.13 184.40 L564.88 183.29 " stroke-linecap='round' stroke-linejoin='round' brush-type='1' stroke-wetness='0.5'></path><path  style = ' stroke:#000000;  fill:none;  stroke-width:1.0;' d="M566.21 185.90 L566.74 185.97 L567.58 185.81 L569.00 185.28 L570.24 184.40 L570.86 183.47 L571.08 182.76 L570.81 182.36 L570.06 182.18 L568.82 182.71 L567.49 183.82 L566.43 185.46 L565.86 186.96 L565.86 188.25 L566.79 189.18 L568.64 189.71 " stroke-linecap='round' stroke-linejoin='round' brush-type='1' stroke-wetness='0.5'></path><path  style = ' stroke:#000000;  fill:none;  stroke-width:1.0;' d="M592.10 174.88 L591.30 173.55 L590.42 172.93 L588.78 171.87 L587.28 171.78 L586.08 172.36 L585.20 173.82 L584.66 176.30 L584.44 179.31 L584.40 182.27 L584.40 184.71 L584.40 186.48 L584.40 187.49 " stroke-linecap='round' stroke-linejoin='round' brush-type='1' stroke-wetness='0.5'></path><path  style = ' stroke:#000000;  fill:none;  stroke-width:1.0;' d="M582.27 181.65 L583.27 181.65 L584.18 181.65 L586.08 181.65 L588.03 181.70 " stroke-linecap='round' stroke-linejoin='round' brush-type='1' stroke-wetness='0.5'></path><path  style = ' stroke:#000000;  fill:none;  stroke-width:1.0;' d="M592.23 182.98 L592.03 183.58 L591.92 184.40 L591.70 185.81 L591.57 187.18 L591.48 188.16 L591.57 188.73 " stroke-linecap='round' stroke-linejoin='round' brush-type='1' stroke-wetness='0.5'></path><path  style = ' stroke:#000000;  fill:none;  stroke-width:1.0;' d="M599.40 176.34 L599.47 177.27 L599.49 178.42 L599.44 180.68 L599.27 183.11 L599.09 185.37 L599.00 187.10 " stroke-linecap='round' stroke-linejoin='round' brush-type='1' stroke-wetness='0.5'></path><path  style = ' stroke:#000000;  fill:none;  stroke-width:1.0;' d="M604.45 177.27 L604.45 177.94 L604.45 179.17 L604.45 181.34 L604.45 183.87 L604.45 185.90 L604.45 187.41 " stroke-linecap='round' stroke-linejoin='round' brush-type='1' stroke-wetness='0.5'></path><path  style = ' stroke:#000000;  fill:none;  stroke-width:1.0;' d="M602.85 180.99 L603.58 180.13 L604.49 179.84 L606.22 179.26 L607.94 179.66 L609.27 180.72 " stroke-linecap='round' stroke-linejoin='round' brush-type='1' stroke-wetness='0.5'></path><path  style = ' stroke:#000000;  fill:none;  stroke-width:1.0;' d="M609.49 187.23 L609.49 186.96 L609.45 186.21 L609.40 184.48 L609.58 182.32 L610.20 180.46 L611.08 179.40 L612.06 178.95 L612.99 179.13 L613.87 179.88 L614.62 180.86 " stroke-linecap='round' stroke-linejoin='round' brush-type='1' stroke-wetness='0.5'></path><path  style = ' stroke:#000000;  fill:none;  stroke-width:1.0;' d="M616.13 182.85 L615.46 183.44 L614.98 184.04 L614.27 185.15 L614.00 185.99 L614.22 186.48 L614.98 186.48 L616.17 185.81 L617.46 184.57 L618.30 183.20 L618.78 182.32 L618.96 182.36 L619.00 183.38 L618.78 185.06 L618.47 186.56 " stroke-linecap='round' stroke-linejoin='round' brush-type='1' stroke-wetness='0.5'></path><path  style = ' stroke:#000000;  fill:none;  stroke-width:1.0;' d="M626.62 177.94 L626.55 178.80 L626.53 179.79 L626.48 181.92 L626.48 184.22 L626.48 186.39 L626.48 187.94 " stroke-linecap='round' stroke-linejoin='round' brush-type='1' stroke-wetness='0.5'></path><path  style = ' stroke:#000000;  fill:none;  stroke-width:1.0;' d="M622.77 181.12 L623.63 180.99 L624.45 180.94 L626.13 180.86 L627.68 180.99 L629.09 181.30 L630.24 181.83 L631.17 182.49 L631.75 183.29 L632.06 184.17 L632.15 185.24 L632.19 186.39 L632.19 187.54 L632.19 188.29 " stroke-linecap='round' stroke-linejoin='round' brush-type='1' stroke-wetness='0.5'></path><path  style = ' stroke:#000000;  fill:none;  stroke-width:1.0;' d="M636.17 182.98 L635.98 183.38 L635.91 184.00 L635.73 185.19 L635.69 186.56 L635.69 187.67 L636.13 188.33 L637.06 188.25 L638.17 187.41 L638.96 186.08 L639.27 184.62 L639.01 183.42 L638.30 182.63 L637.37 182.27 L636.71 182.45 L636.35 183.38 L636.22 184.66 " stroke-linecap='round' stroke-linejoin='round' brush-type='1' stroke-wetness='0.5'></path><path  style = ' stroke:#000000;  fill:none;  stroke-width:1.0;' d="M643.21 188.16 L643.01 186.76 L642.94 185.77 L642.81 183.82 L642.94 182.45 L643.43 181.52 L644.32 181.08 L645.42 181.48 L646.44 182.71 L647.24 184.71 L647.95 186.87 L648.52 188.51 " stroke-linecap='round' stroke-linejoin='round' brush-type='1' stroke-wetness='0.5'></path><path  style = ' stroke:#000000;  fill:none;  stroke-width:1.0;' d="M657.42 189.49 a0.50 0.50 0 1 0 0.01 0 " stroke-linecap='round' stroke-linejoin='round' brush-type='1' stroke-wetness='0.5'></path><path  style = ' stroke:#000000;  fill:none;  stroke-width:1.0;' d="M659.67 188.95 L659.67 188.62 L659.67 187.89 L659.67 186.56 L659.63 184.75 L659.50 182.94 L659.36 181.03 L659.27 179.40 L659.41 178.16 L659.85 177.36 L660.69 177.01 L661.93 176.87 L663.39 177.09 L664.94 177.80 " stroke-linecap='round' stroke-linejoin='round' brush-type='1' stroke-wetness='0.5'></path><path  style = ' stroke:#000000;  fill:none;  stroke-width:1.0;' d="M667.37 184.31 L668.04 184.57 L668.66 184.62 L669.94 184.35 L671.22 183.42 L672.33 182.18 L672.99 181.03 L673.04 180.19 L672.42 179.66 L671.18 179.48 L669.63 180.06 L668.12 181.30 L667.20 183.16 L666.75 184.88 L667.15 186.17 L668.39 186.83 " stroke-linecap='round' stroke-linejoin='round' brush-type='1' stroke-wetness='0.5'></path><path  style = ' stroke:#000000;  fill:none;  stroke-width:1.0;' d="M678.13 181.92 L677.33 182.05 L676.58 182.18 L675.34 182.58 L674.59 183.29 L674.32 184.40 L674.50 185.86 L674.98 187.32 L675.56 188.60 L675.96 189.53 L676.09 190.15 L675.91 190.59 L675.12 190.81 L673.70 190.95 L672.33 190.86 " stroke-linecap='round' stroke-linejoin='round' brush-type='1' stroke-wetness='0.5'></path><path  style = ' stroke:#000000;  fill:none;  stroke-width:1.0;' d="M680.65 196.92 L680.52 195.86 L680.47 194.75 L680.34 192.27 L680.29 189.49 L680.29 186.52 L680.60 184.04 L681.18 182.45 L681.98 181.79 L682.68 181.70 L683.21 182.05 L683.48 182.80 L683.44 183.91 L682.99 185.06 L682.29 185.99 L681.58 186.61 " stroke-linecap='round' stroke-linejoin='round' brush-type='1' stroke-wetness='0.5'></path><path  style = ' stroke:#000000;  fill:none;  stroke-width:1.0;' d="M683.44 186.17 L686.02 185.64 L687.20 185.46 L689.45 184.93 L690.12 184.48 L690.56 183.82 L690.78 183.11 L690.74 182.58 L690.16 182.27 L689.06 182.18 L687.60 182.58 L686.27 183.47 L685.38 184.84 L684.98 186.17 L685.21 187.32 L686.27 188.07 " stroke-linecap='round' stroke-linejoin='round' brush-type='1' stroke-wetness='0.5'></path><path  style = ' stroke:#000000;  fill:none;  stroke-width:1.0;' d="M698.17 182.32 L697.44 182.52 L696.40 183.07 L694.68 184.22 L693.13 185.81 L692.33 187.41 L691.98 188.78 L692.60 189.66 L694.06 189.97 " stroke-linecap='round' stroke-linejoin='round' brush-type='1' stroke-wetness='0.5'></path><path  style = ' stroke:#000000;  fill:none;  stroke-width:1.0;' d="M700.96 180.72 L700.89 181.59 L700.87 182.45 L700.74 184.22 L700.47 186.03 L700.12 187.54 " stroke-linecap='round' stroke-linejoin='round' brush-type='1' stroke-wetness='0.5'></path></g><g id='id-text-layer'  type='type-normal' preserveAspectRatio="none" ><text  style = 'fill: #000000; font-family:Helvetica-Light; font-size:18.0; ' preserveAspectRatio="none" x= '40' y='40' width = '688' height = '944' transform="rotate(   0,  384,  512)" ><tspan visibility='hidden'><![CDATA[]]></tspan></text></g><recordings ></recordings><defs   ></defs></svg> 