<?xml version="1.0" standalone="no"?> <!DOCTYPE svg PUBLIC "-//W3C//DTD SVG 1.1//EN" "http://www.w3.org/Graphics/SVG/1.1/DTD/svg11.dtd"> <svg   version="1.1"     xmlns="http://www.w3.org/2000/svg"  xmlns:xlink="http://www.w3.org/1999/xlink" name="" width="768.0" height="1004.0" background="N_PAPERBACKGROUND_WHITE_WITH_GRAY_LINE" line-height="30.0" margin-top="40.0" margin-right="40.0" margin-bottom="40.0" margin-left="40.0"><g id='id-background-layer'  type='type-normal' preserveAspectRatio="none" ><rect  style = ' stroke:#FFFFFF;  fill:#FFFFFF;  stroke-width:0.0;' x="0" y="0" width="768" height="1004" preserveAspectRatio="none" transform="rotate(   0,  384,  502)" ></rect><polyline  style = ' stroke:#D7D6D6;  fill:none;  stroke-width:1.0;' points = ' 0,70 768,70' preserveAspectRatio="none" transform="rotate(   0,  384,   70)" ></polyline><polyline  style = ' stroke:#D7D6D6;  fill:none;  stroke-width:1.0;' points = ' 0,100 768,100' preserveAspectRatio="none" transform="rotate(   0,  384,  100)" ></polyline><polyline  style = ' stroke:#D7D6D6;  fill:none;  stroke-width:1.0;' points = ' 0,130 768,130' preserveAspectRatio="none" transform="rotate(   0,  384,  130)" ></polyline><polyline  style = ' stroke:#D7D6D6;  fill:none;  stroke-width:1.0;' points = ' 0,160 768,160' preserveAspectRatio="none" transform="rotate(   0,  384,  160)" ></polyline><polyline  style = ' stroke:#D7D6D6;  fill:none;  stroke-width:1.0;' points = ' 0,190 768,190' preserveAspectRatio="none" transform="rotate(   0,  384,  190)" ></polyline><polyline  style = ' stroke:#D7D6D6;  fill:none;  stroke-width:1.0;' points = ' 0,220 768,220' preserveAspectRatio="none" transform="rotate(   0,  384,  220)" ></polyline><polyline  style = ' stroke:#D7D6D6;  fill:none;  stroke-width:1.0;' points = ' 0,250 768,250' preserveAspectRatio="none" transform="rotate(   0,  384,  250)" ></polyline><polyline  style = ' stroke:#D7D6D6;  fill:none;  stroke-width:1.0;' points = ' 0,280 768,280' preserveAspectRatio="none" transform="rotate(   0,  384,  280)" ></polyline><polyline  style = ' stroke:#D7D6D6;  fill:none;  stroke-width:1.0;' points = ' 0,310 768,310' preserveAspectRatio="none" transform="rotate(   0,  384,  310)" ></polyline><polyline  style = ' stroke:#D7D6D6;  fill:none;  stroke-width:1.0;' points = ' 0,340 768,340' preserveAspectRatio="none" transform="rotate(   0,  384,  340)" ></polyline><polyline  style = ' stroke:#D7D6D6;  fill:none;  stroke-width:1.0;' points = ' 0,370 768,370' preserveAspectRatio="none" transform="rotate(   0,  384,  370)" ></polyline><polyline  style = ' stroke:#D7D6D6;  fill:none;  stroke-width:1.0;' points = ' 0,400 768,400' preserveAspectRatio="none" transform="rotate(   0,  384,  400)" ></polyline><polyline  style = ' stroke:#D7D6D6;  fill:none;  stroke-width:1.0;' points = ' 0,430 768,430' preserveAspectRatio="none" transform="rotate(   0,  384,  430)" ></polyline><polyline  style = ' stroke:#D7D6D6;  fill:none;  stroke-width:1.0;' points = ' 0,460 768,460' preserveAspectRatio="none" transform="rotate(   0,  384,  460)" ></polyline><polyline  style = ' stroke:#D7D6D6;  fill:none;  stroke-width:1.0;' points = ' 0,490 768,490' preserveAspectRatio="none" transform="rotate(   0,  384,  490)" ></polyline><polyline  style = ' stroke:#D7D6D6;  fill:none;  stroke-width:1.0;' points = ' 0,520 768,520' preserveAspectRatio="none" transform="rotate(   0,  384,  520)" ></polyline><polyline  style = ' stroke:#D7D6D6;  fill:none;  stroke-width:1.0;' points = ' 0,550 768,550' preserveAspectRatio="none" transform="rotate(   0,  384,  550)" ></polyline><polyline  style = ' stroke:#D7D6D6;  fill:none;  stroke-width:1.0;' points = ' 0,580 768,580' preserveAspectRatio="none" transform="rotate(   0,  384,  580)" ></polyline><polyline  style = ' stroke:#D7D6D6;  fill:none;  stroke-width:1.0;' points = ' 0,610 768,610' preserveAspectRatio="none" transform="rotate(   0,  384,  610)" ></polyline><polyline  style = ' stroke:#D7D6D6;  fill:none;  stroke-width:1.0;' points = ' 0,640 768,640' preserveAspectRatio="none" transform="rotate(   0,  384,  640)" ></polyline><polyline  style = ' stroke:#D7D6D6;  fill:none;  stroke-width:1.0;' points = ' 0,670 768,670' preserveAspectRatio="none" transform="rotate(   0,  384,  670)" ></polyline><polyline  style = ' stroke:#D7D6D6;  fill:none;  stroke-width:1.0;' points = ' 0,700 768,700' preserveAspectRatio="none" transform="rotate(   0,  384,  700)" ></polyline><polyline  style = ' stroke:#D7D6D6;  fill:none;  stroke-width:1.0;' points = ' 0,730 768,730' preserveAspectRatio="none" transform="rotate(   0,  384,  730)" ></polyline><polyline  style = ' stroke:#D7D6D6;  fill:none;  stroke-width:1.0;' points = ' 0,760 768,760' preserveAspectRatio="none" transform="rotate(   0,  384,  760)" ></polyline><polyline  style = ' stroke:#D7D6D6;  fill:none;  stroke-width:1.0;' points = ' 0,790 768,790' preserveAspectRatio="none" transform="rotate(   0,  384,  790)" ></polyline><polyline  style = ' stroke:#D7D6D6;  fill:none;  stroke-width:1.0;' points = ' 0,820 768,820' preserveAspectRatio="none" transform="rotate(   0,  384,  820)" ></polyline><polyline  style = ' stroke:#D7D6D6;  fill:none;  stroke-width:1.0;' points = ' 0,850 768,850' preserveAspectRatio="none" transform="rotate(   0,  384,  850)" ></polyline><polyline  style = ' stroke:#D7D6D6;  fill:none;  stroke-width:1.0;' points = ' 0,880 768,880' preserveAspectRatio="none" transform="rotate(   0,  384,  880)" ></polyline><polyline  style = ' stroke:#D7D6D6;  fill:none;  stroke-width:1.0;' points = ' 0,910 768,910' preserveAspectRatio="none" transform="rotate(   0,  384,  910)" ></polyline><polyline  style = ' stroke:#D7D6D6;  fill:none;  stroke-width:1.0;' points = ' 0,940 768,940' preserveAspectRatio="none" transform="rotate(   0,  384,  940)" ></polyline><polyline  style = ' stroke:#C74F4F;  fill:none;  stroke-width:0.5;' points = ' 40,0 40,1004' preserveAspectRatio="none" transform="rotate(   0,   40,  502)" ></polyline><polyline  style = ' stroke:#B6B6B6; stroke-opacity:0.8; fill:none;  stroke-width:0.5;' points = ' 728,0 728,1004' preserveAspectRatio="none" transform="rotate(   0,  728,  502)" ></polyline></g><g id='id-main-layer'  type='type-normal' preserveAspectRatio="none" ><path  style = ' stroke:#000000;  fill:none;  stroke-width:1.0;' d="M254.40 67.25 L255.40 67.62 L256.39 67.83 L258.38 68.24 L260.70 68.49 L263.27 68.82 L266.26 69.15 L269.41 69.48 L272.81 69.73 L276.45 69.98 L280.27 70.23 L284.58 70.48 L289.05 70.73 L293.86 70.89 L298.67 70.98 L303.56 70.98 L308.29 71.06 L312.93 71.23 L317.49 71.47 L321.96 71.72 L326.44 71.89 L330.83 72.05 L335.14 72.14 L339.45 72.22 L343.76 72.22 L347.99 72.22 L352.05 72.22 L356.03 72.22 L360.01 72.22 L363.83 72.22 L367.56 72.22 L371.53 72.22 L375.43 72.22 L379.33 72.30 L382.81 72.39 L386.12 72.47 L389.36 72.47 L392.67 72.55 L396.07 72.72 L399.47 72.88 L402.62 72.97 L405.85 72.97 L408.59 72.97 L410.99 72.88 L412.48 72.30 L413.40 71.64 " stroke-linecap='round' stroke-linejoin='round' brush-type='0' stroke-wetness='0.0'></path><path  style = ' stroke:#000000;  fill:none;  stroke-width:1.0;' d="M408.09 72.22 L408.59 72.22 L409.17 72.22 L410.49 72.22 L412.32 72.22 L414.64 72.22 L417.54 72.22 L420.77 72.22 L424.26 72.22 L427.82 72.14 L431.72 71.89 L435.69 71.64 L439.76 71.31 L443.57 71.14 L447.30 70.89 L450.86 70.73 L454.26 70.48 L457.41 70.23 L460.48 70.06 L463.30 69.98 L465.87 69.98 L468.11 69.98 L470.10 69.98 L471.75 69.98 L472.91 69.98 L473.66 69.98 L474.16 69.98 L474.49 69.98 L474.32 69.98 " stroke-linecap='round' stroke-linejoin='round' brush-type='0' stroke-wetness='0.0'></path><path  style = ' stroke:#000000;  fill:none;  stroke-width:1.0;' d="M42.28 89.63 L42.28 89.01 L42.53 88.38 L42.94 87.22 L43.77 86.39 L44.60 85.90 L45.51 85.65 L46.17 85.48 L46.67 85.90 L46.92 86.73 L46.75 88.22 L46.17 89.46 L45.26 90.46 L44.35 90.79 L43.44 90.87 L42.69 90.87 L42.19 90.37 L42.11 89.38 L42.53 88.14 L43.27 87.31 L44.27 86.98 L45.01 86.89 L45.43 87.06 L45.43 87.56 L45.01 88.30 L44.35 89.05 L43.44 89.63 L42.69 89.96 L41.94 89.96 " stroke-linecap='round' stroke-linejoin='round' brush-type='0' stroke-wetness='0.0'></path><path  style = ' stroke:#000000;  fill:none;  stroke-width:1.0;' d="M58.19 75.70 L58.44 76.70 L58.52 77.86 L58.69 80.68 L58.69 83.99 L58.52 87.64 L58.19 90.71 L57.86 92.94 L57.69 94.10 L57.69 93.94 L57.69 92.69 L57.86 90.71 L58.36 89.05 L59.27 88.05 L60.60 87.72 L61.84 88.14 L62.83 89.30 L63.33 91.29 L63.58 93.52 L63.66 95.51 L63.66 96.92 L63.75 97.75 " stroke-linecap='round' stroke-linejoin='round' brush-type='0' stroke-wetness='0.0'></path><path  style = ' stroke:#000000;  fill:none;  stroke-width:1.0;' d="M72.62 86.64 L71.75 86.64 L71.04 86.81 L69.63 87.31 L68.47 88.47 L67.48 90.21 L66.90 92.36 L66.65 94.27 L66.73 95.51 L66.98 96.09 L67.64 96.26 L68.55 95.84 L69.55 94.77 L70.21 92.94 L70.63 91.20 L70.79 89.79 L70.88 89.05 L70.88 89.54 L70.88 91.04 L71.21 93.19 L72.04 94.77 " stroke-linecap='round' stroke-linejoin='round' brush-type='0' stroke-wetness='0.0'></path><path  style = ' stroke:#000000;  fill:none;  stroke-width:1.0;' d="M76.84 90.62 L76.59 91.00 L76.51 91.45 L76.35 92.36 L76.51 93.28 L76.84 93.94 L77.59 94.27 L78.58 94.19 L79.83 93.36 L81.24 91.78 L82.56 89.88 L83.72 88.38 L84.55 87.22 " stroke-linecap='round' stroke-linejoin='round' brush-type='0' stroke-wetness='0.0'></path><path  style = ' stroke:#000000;  fill:none;  stroke-width:1.0;' d="M85.80 90.37 L86.29 90.50 L86.79 90.54 L87.95 90.62 L89.44 90.46 L91.10 90.04 L92.59 89.38 L93.59 88.55 L94.17 87.56 L94.42 86.48 L94.17 85.57 L93.17 85.07 L91.35 84.90 L89.28 85.15 L87.37 85.90 L85.88 87.31 L84.97 89.13 L84.55 91.20 L84.88 93.44 L85.71 95.43 L87.45 97.01 L89.86 97.83 L93.09 97.83 " stroke-linecap='round' stroke-linejoin='round' brush-type='0' stroke-wetness='0.0'></path><path  style = ' stroke:#000000;  fill:none;  stroke-width:1.0;' d="M109.42 80.43 L109.30 81.42 L109.26 82.58 L109.17 85.23 L109.17 88.47 L109.17 92.03 L109.17 95.18 L109.26 97.59 L109.42 99.16 L109.92 100.40 " stroke-linecap='round' stroke-linejoin='round' brush-type='0' stroke-wetness='0.0'></path><path  style = ' stroke:#000000;  fill:none;  stroke-width:1.0;' d="M114.39 93.61 L115.64 93.48 L116.55 93.36 L118.46 92.94 L119.87 92.45 L121.03 91.87 L121.77 91.29 L122.27 90.54 L122.35 89.71 L121.69 88.88 L120.36 88.38 L118.21 88.30 L115.97 89.05 L113.98 90.37 L112.74 92.36 L112.16 94.60 L111.99 96.84 L112.82 98.83 L114.56 100.16 L117.46 100.98 " stroke-linecap='round' stroke-linejoin='round' brush-type='0' stroke-wetness='0.0'></path><path  style = ' stroke:#000000;  fill:none;  stroke-width:1.0;' d="M134.79 89.63 L134.29 89.50 L133.54 89.46 L131.89 89.63 L129.81 90.21 L127.74 91.45 L126.17 93.11 L125.17 95.10 L124.76 97.09 L124.92 98.83 L126.25 99.99 L128.65 100.49 L131.64 100.16 L133.79 99.66 " stroke-linecap='round' stroke-linejoin='round' brush-type='0' stroke-wetness='0.0'></path><path  style = ' stroke:#000000;  fill:none;  stroke-width:1.0;' d="M141.00 84.90 L141.00 85.52 L141.00 86.56 L141.00 88.80 L141.00 91.78 L140.92 94.77 L140.84 97.34 L140.59 98.99 L140.26 99.99 L139.76 100.49 " stroke-linecap='round' stroke-linejoin='round' brush-type='0' stroke-wetness='0.0'></path><path  style = ' stroke:#000000;  fill:none;  stroke-width:1.0;' d="M140.01 87.64 L140.51 87.51 L141.09 87.47 L142.41 87.22 L144.07 86.98 L145.56 86.73 L146.72 86.48 L147.39 86.39 L147.97 86.64 L148.22 87.47 L148.13 89.05 L147.72 91.20 L147.39 93.61 L147.22 95.84 L147.39 97.34 L148.13 98.25 L149.63 98.08 L151.70 96.84 L153.44 94.77 L154.60 92.36 L155.10 90.54 L155.43 89.38 L155.59 88.88 L155.68 89.13 L155.68 90.21 L155.68 92.20 L155.68 94.60 L155.68 96.84 L155.84 98.91 L156.34 100.65 " stroke-linecap='round' stroke-linejoin='round' brush-type='0' stroke-wetness='0.0'></path><path  style = ' stroke:#000000;  fill:none;  stroke-width:1.0;' d="M160.40 98.83 L160.65 97.34 L160.98 95.84 L161.64 93.36 L162.31 91.20 L163.05 89.71 L163.80 88.38 L164.88 87.47 L166.12 86.81 L167.78 86.48 L169.60 86.48 L171.26 86.89 " stroke-linecap='round' stroke-linejoin='round' brush-type='0' stroke-wetness='0.0'></path><path  style = ' stroke:#000000;  fill:none;  stroke-width:1.0;' d="M171.34 93.11 L171.72 93.48 L172.34 93.61 L173.66 93.69 L175.16 93.28 L176.57 92.53 L177.64 91.62 L178.39 90.62 L178.80 89.79 L178.97 89.13 L178.89 88.80 L178.31 88.63 L177.23 88.63 L175.41 89.63 L173.66 91.20 L172.17 93.36 L171.59 94.93 L171.34 96.26 L171.68 97.34 L172.59 98.25 L174.24 98.91 L176.32 99.24 L178.64 99.33 L180.79 98.99 L182.37 98.58 " stroke-linecap='round' stroke-linejoin='round' brush-type='0' stroke-wetness='0.0'></path><path  style = ' stroke:#000000;  fill:none;  stroke-width:1.0;' d="M194.72 98.83 L194.84 98.08 L194.89 97.42 L195.05 96.01 L195.22 94.44 L195.47 92.69 L195.80 90.79 L196.21 89.05 L196.63 87.56 L197.12 86.48 L197.70 85.65 L198.70 85.15 L200.03 84.90 L201.68 85.32 L203.09 86.15 L204.17 87.72 L204.75 89.38 L205.08 91.04 L205.16 92.45 L205.16 93.77 L205.16 95.02 " stroke-linecap='round' stroke-linejoin='round' brush-type='0' stroke-wetness='0.0'></path><path  style = ' stroke:#000000;  fill:none;  stroke-width:1.0;' d="M218.10 86.89 L217.35 87.14 L216.60 87.64 L215.11 88.80 L213.79 90.37 L212.96 92.11 L212.54 93.69 L212.54 95.10 L213.04 96.18 L214.53 96.84 L216.60 96.67 L218.59 95.84 L220.00 94.52 L220.75 92.86 L221.08 91.20 L220.67 89.54 L219.67 88.30 L218.26 87.31 L217.02 86.81 L216.02 86.64 L215.19 86.73 " stroke-linecap='round' stroke-linejoin='round' brush-type='0' stroke-wetness='0.0'></path><path  style = ' stroke:#000000;  fill:none;  stroke-width:1.0;' d="M224.81 80.68 L224.69 82.17 L224.64 83.74 L224.56 86.98 L224.31 90.21 L223.98 93.11 L223.65 95.26 L223.57 96.51 L223.48 97.17 " stroke-linecap='round' stroke-linejoin='round' brush-type='0' stroke-wetness='0.0'></path><path  style = ' stroke:#000000;  fill:none;  stroke-width:1.0;' d="M222.82 86.89 L224.31 86.64 L225.47 86.56 L228.13 86.39 L230.53 86.56 " stroke-linecap='round' stroke-linejoin='round' brush-type='0' stroke-wetness='0.0'></path><path  style = ' stroke:#000000;  fill:none;  stroke-width:1.0;' d="M231.53 91.87 L232.52 91.74 L233.51 91.70 L235.67 91.37 L237.66 90.71 L239.65 89.71 L240.98 88.63 L241.97 87.80 L242.30 86.98 L242.38 86.15 L241.80 85.40 L240.81 84.99 L239.40 84.90 L237.99 85.23 L236.50 86.31 L235.26 87.89 L234.43 89.71 L234.09 91.45 L234.09 93.36 L234.76 95.10 L236.33 96.43 L238.74 97.09 " stroke-linecap='round' stroke-linejoin='round' brush-type='0' stroke-wetness='0.0'></path><path  style = ' stroke:#000000;  fill:none;  stroke-width:1.0;' d="M247.94 86.64 L247.07 86.77 L246.28 86.98 L244.71 87.56 L243.46 88.30 L242.55 89.13 L242.22 89.96 L242.88 90.95 L244.62 92.11 L247.19 93.36 L249.43 94.60 L251.09 95.84 L251.92 96.92 L252.41 97.92 L252.50 98.91 L252.00 99.91 L250.67 100.90 L248.68 101.56 L246.69 102.06 L244.95 102.31 L243.54 102.48 L242.30 102.56 L241.47 102.56 L241.06 102.64 " stroke-linecap='round' stroke-linejoin='round' brush-type='0' stroke-wetness='0.0'></path><path  style = ' stroke:#000000;  fill:none;  stroke-width:1.0;' d="M259.38 94.85 L259.88 95.97 L260.04 96.76 L260.29 98.50 L260.04 99.82 L259.46 101.07 L258.80 101.98 L257.89 102.81 L257.06 103.39 L256.06 103.64 " stroke-linecap='round' stroke-linejoin='round' brush-type='0' stroke-wetness='0.0'></path><path  style = ' stroke:#000000;  fill:none;  stroke-width:1.0;' d="M281.51 82.91 L280.27 82.91 L279.36 83.00 L277.37 83.41 L275.79 84.16 L274.38 85.15 L273.55 86.06 L273.14 86.98 L273.55 87.89 L274.71 88.96 L276.37 90.04 L277.86 91.12 L278.77 92.20 L279.27 93.28 L279.44 94.35 L279.02 95.35 L277.86 96.43 L276.12 97.42 L274.46 98.08 L273.22 98.41 L272.39 98.50 " stroke-linecap='round' stroke-linejoin='round' brush-type='0' stroke-wetness='0.0'></path><path  style = ' stroke:#000000;  fill:none;  stroke-width:1.0;' d="M288.47 84.90 L288.72 85.40 L288.81 86.06 L288.14 89.88 L287.15 94.02 L285.99 98.08 L285.49 99.49 L284.99 100.32 " stroke-linecap='round' stroke-linejoin='round' brush-type='0' stroke-wetness='0.0'></path><path  style = ' stroke:#000000;  fill:none;  stroke-width:1.0;' d="M284.99 91.37 L286.24 90.87 L287.15 90.62 L289.05 90.21 L290.79 90.13 L292.70 90.29 " stroke-linecap='round' stroke-linejoin='round' brush-type='0' stroke-wetness='0.0'></path><path  style = ' stroke:#000000;  fill:none;  stroke-width:1.0;' d="M295.93 99.82 L295.81 99.33 L295.77 98.58 L295.60 96.76 L295.52 94.19 L295.44 91.45 L295.60 89.13 L296.18 87.22 L297.09 85.90 L298.50 84.90 L300.08 84.49 L302.07 84.32 L303.89 84.90 " stroke-linecap='round' stroke-linejoin='round' brush-type='0' stroke-wetness='0.0'></path><path  style = ' stroke:#000000;  fill:none;  stroke-width:1.0;' d="M308.12 90.13 L307.62 90.62 L307.29 91.29 L306.54 92.78 L306.05 94.35 L305.72 95.76 L305.63 96.76 L305.72 97.42 L306.30 97.75 L307.37 97.59 L308.78 96.84 L310.03 95.18 L310.86 93.19 L311.35 91.45 L311.52 90.54 L311.60 90.04 L311.60 90.62 L311.60 92.03 L311.68 94.27 L311.93 96.18 " stroke-linecap='round' stroke-linejoin='round' brush-type='0' stroke-wetness='0.0'></path><path  style = ' stroke:#000000;  fill:none;  stroke-width:1.0;' d="M321.30 87.89 L320.18 88.26 L319.39 88.96 L317.65 90.54 L316.41 92.53 L315.58 94.44 L315.33 96.09 L315.58 97.50 L316.33 98.66 L317.74 99.41 L319.73 99.82 L321.80 99.99 " stroke-linecap='round' stroke-linejoin='round' brush-type='0' stroke-wetness='0.0'></path><path  style = ' stroke:#000000;  fill:none;  stroke-width:1.0;' d="M330.00 85.15 L329.51 85.90 L329.34 87.06 L328.84 89.38 L328.68 92.11 L328.51 94.68 L328.43 97.01 L328.35 98.75 L328.26 99.91 L328.18 100.40 L327.68 100.40 " stroke-linecap='round' stroke-linejoin='round' brush-type='0' stroke-wetness='0.0'></path><path  style = ' stroke:#000000;  fill:none;  stroke-width:1.0;' d="M323.54 92.61 L323.54 91.99 L323.79 91.53 L325.03 90.54 " stroke-linecap='round' stroke-linejoin='round' brush-type='0' stroke-wetness='0.0'></path><path  style = ' stroke:#000000;  fill:none;  stroke-width:1.0;' d="M334.23 89.13 L334.11 90.00 L334.07 91.12 L333.98 93.03 L333.98 94.93 L333.98 96.26 L334.23 97.17 L335.14 97.34 L336.64 96.67 L338.13 95.35 L339.12 93.77 L339.62 92.61 L339.95 91.87 L340.12 91.45 L340.20 91.70 L340.20 92.78 L340.20 94.60 L340.28 96.59 L340.70 98.41 L341.53 99.82 " stroke-linecap='round' stroke-linejoin='round' brush-type='0' stroke-wetness='0.0'></path><path  style = ' stroke:#000000;  fill:none;  stroke-width:1.0;' d="M347.91 100.07 L347.66 98.46 L347.58 97.09 L347.41 94.44 L347.49 92.45 L347.83 90.79 L348.57 89.54 L349.57 88.47 L350.98 87.80 L352.63 87.47 L354.46 87.47 " stroke-linecap='round' stroke-linejoin='round' brush-type='0' stroke-wetness='0.0'></path><path  style = ' stroke:#000000;  fill:none;  stroke-width:1.0;' d="M353.38 94.10 L353.88 94.10 L354.46 94.10 L355.87 94.02 L357.69 93.69 L359.76 93.11 L361.50 92.28 L362.75 91.45 L363.41 90.46 L363.74 89.54 L363.83 88.63 L363.16 88.14 L362.08 87.97 L360.51 88.47 L358.93 89.54 L357.36 91.29 L355.87 93.44 L354.87 95.51 L354.21 97.42 L353.96 98.83 L353.88 99.91 L354.29 100.57 L355.37 100.90 L357.28 100.90 L359.35 100.57 L361.09 100.07 L362.42 99.41 " stroke-linecap='round' stroke-linejoin='round' brush-type='0' stroke-wetness='0.0'></path><path  style = ' stroke:#000000;  fill:none;  stroke-width:1.0;' d="M323.04 92.11 L323.17 91.74 L323.54 91.45 L324.45 90.62 L326.36 89.38 L328.76 87.89 L331.50 86.48 L334.07 85.48 L336.39 84.65 L338.54 83.99 L339.95 83.41 " stroke-linecap='round' stroke-linejoin='round' brush-type='0' stroke-wetness='0.0'></path><path  style = ' stroke:#000000;  fill:none;  stroke-width:1.0;' d="M382.97 85.90 L381.98 86.52 " stroke-linecap='round' stroke-linejoin='round' brush-type='0' stroke-wetness='0.0'></path><path  style = ' stroke:#000000;  fill:none;  stroke-width:1.0;' d="M380.49 89.38 L380.61 90.13 L380.65 90.87 L380.74 92.53 L380.74 94.27 L380.74 96.26 L380.74 98.33 " stroke-linecap='round' stroke-linejoin='round' brush-type='0' stroke-wetness='0.0'></path><path  style = ' stroke:#000000;  fill:none;  stroke-width:1.0;' d="M384.22 100.57 L384.22 99.95 L384.22 99.41 L384.22 98.17 L384.22 96.59 L384.38 94.68 L384.80 92.86 L385.46 91.37 L386.37 90.29 L387.45 89.54 L388.86 89.21 L390.19 89.30 L391.35 90.04 L392.09 91.45 L392.59 93.19 L392.84 95.10 L392.92 96.76 L392.92 98.50 L393.09 100.07 " stroke-linecap='round' stroke-linejoin='round' brush-type='0' stroke-wetness='0.0'></path><path  style = ' stroke:#000000;  fill:none;  stroke-width:1.0;' d="M407.84 101.56 L408.22 100.82 L408.34 100.16 L408.59 98.17 L408.59 95.68 L408.75 92.61 L409.17 90.21 L409.83 88.47 L410.66 87.47 L411.74 86.89 L413.15 86.81 L414.47 87.56 L415.47 89.13 L415.88 91.37 L416.05 93.52 L416.05 95.02 L416.05 95.93 L416.05 96.43 L416.05 96.34 L416.05 95.02 L416.46 92.78 L417.13 90.71 L418.04 89.63 L418.87 89.38 L419.70 89.71 L420.36 90.71 L420.69 92.61 L420.77 94.77 L420.77 96.67 L420.69 97.83 L420.52 98.58 " stroke-linecap='round' stroke-linejoin='round' brush-type='0' stroke-wetness='0.0'></path><path  style = ' stroke:#000000;  fill:none;  stroke-width:1.0;' d="M425.50 93.86 L425.62 94.85 L425.66 95.60 L425.75 97.17 L425.75 98.83 " stroke-linecap='round' stroke-linejoin='round' brush-type='0' stroke-wetness='0.0'></path><path  style = ' stroke:#000000;  fill:none;  stroke-width:1.0;' d="M430.47 97.34 L430.35 96.47 L430.39 95.02 L430.72 92.78 L431.47 90.95 L433.04 90.37 L434.62 90.87 L436.19 93.36 L437.10 96.34 L437.93 98.91 " stroke-linecap='round' stroke-linejoin='round' brush-type='0' stroke-wetness='0.0'></path><path  style = ' stroke:#000000;  fill:none;  stroke-width:1.0;' d="M446.39 91.12 L445.02 91.12 L444.07 91.29 L441.99 91.78 L440.17 92.86 L438.60 94.27 L437.44 96.01 L436.94 97.75 L436.69 99.33 L437.02 100.57 L437.85 101.32 L439.26 101.65 L441.00 101.07 L442.66 99.66 L444.23 97.25 L445.31 94.02 L446.06 90.37 L446.31 86.48 L446.39 83.33 L446.39 80.84 L446.39 79.51 L446.39 78.77 L446.31 79.85 L446.14 82.75 L445.73 87.14 L445.39 91.20 L445.14 94.19 L445.06 96.26 L444.90 97.67 L444.56 98.66 " stroke-linecap='round' stroke-linejoin='round' brush-type='0' stroke-wetness='0.0'></path><path  style = ' stroke:#000000;  fill:none;  stroke-width:1.0;' d="M426.49 88.63 a0.50 0.50 0 1 0 0.01 0 " stroke-linecap='round' stroke-linejoin='round' brush-type='0' stroke-wetness='0.0'></path><path  style = ' stroke:#000000;  fill:none;  stroke-width:1.0;' d="M58.19 119.47 L59.44 119.47 " stroke-linecap='round' stroke-linejoin='round' brush-type='0' stroke-wetness='0.0'></path><path  style = ' stroke:#000000;  fill:none;  stroke-width:1.0;' d="M59.44 119.47 L60.31 119.59 L61.26 119.64 L63.17 119.72 L65.40 119.72 L67.72 119.72 L69.96 119.72 L71.70 119.64 L73.03 119.47 L74.03 119.30 L74.77 119.14 L75.27 119.06 L75.68 118.89 L76.26 118.89 " stroke-linecap='round' stroke-linejoin='round' brush-type='0' stroke-wetness='0.0'></path><path  style = ' stroke:#000000;  fill:none;  stroke-width:1.0;' d="M90.52 116.98 L89.90 116.86 L89.44 116.82 L88.37 116.90 L87.29 117.23 L86.04 118.06 L84.97 119.14 L84.06 120.55 L83.56 122.12 L83.39 123.61 L83.81 124.94 L84.88 125.77 L86.79 126.27 L89.11 126.18 L91.43 125.27 L93.17 123.86 L94.50 122.04 L95.16 120.30 L95.16 118.56 L94.33 116.98 L93.09 115.82 L91.93 115.08 L90.94 114.83 L90.11 114.74 L89.28 115.24 " stroke-linecap='round' stroke-linejoin='round' brush-type='0' stroke-wetness='0.0'></path><path  style = ' stroke:#000000;  fill:none;  stroke-width:1.0;' d="M97.73 118.72 L97.48 119.59 L97.40 120.38 L97.24 121.96 L97.24 123.37 L97.24 124.61 L97.48 125.44 L97.98 125.94 L98.98 126.02 L100.22 125.52 L101.71 124.28 L102.96 122.62 L103.70 121.04 L104.03 119.88 L104.12 119.06 L104.20 118.56 L104.20 118.81 L104.12 119.97 L104.03 121.87 L103.95 123.78 L104.03 125.27 L104.28 126.35 L105.28 126.76 " stroke-linecap='round' stroke-linejoin='round' brush-type='0' stroke-wetness='0.0'></path><path  style = ' stroke:#000000;  fill:none;  stroke-width:1.0;' d="M113.65 114.50 L113.65 115.12 L113.65 115.91 L113.65 117.73 L113.65 119.97 L113.57 122.29 L113.48 124.19 L113.40 125.60 L113.32 126.52 L112.90 127.01 " stroke-linecap='round' stroke-linejoin='round' brush-type='0' stroke-wetness='0.0'></path><path  style = ' stroke:#000000;  fill:none;  stroke-width:1.0;' d="M108.18 119.22 L109.79 118.60 L111.33 118.31 L114.23 117.73 L116.96 117.48 L119.53 117.07 " stroke-linecap='round' stroke-linejoin='round' brush-type='0' stroke-wetness='0.0'></path><path  style = ' stroke:#000000;  fill:none;  stroke-width:1.0;' d="M123.35 110.02 L123.84 110.77 L124.01 111.76 L124.34 114.00 L124.34 116.73 L124.26 119.55 L124.18 121.96 L123.93 124.03 L123.76 125.69 L123.60 126.93 L123.51 127.59 " stroke-linecap='round' stroke-linejoin='round' brush-type='0' stroke-wetness='0.0'></path><path  style = ' stroke:#000000;  fill:none;  stroke-width:1.0;' d="M129.32 116.24 L129.19 116.61 L129.15 117.07 L129.07 118.06 L128.98 119.22 L128.90 120.38 L128.74 121.46 L128.74 122.45 L128.74 123.53 L128.82 124.61 L128.82 125.69 L128.82 126.68 L129.07 127.76 " stroke-linecap='round' stroke-linejoin='round' brush-type='0' stroke-wetness='0.0'></path><path  style = ' stroke:#000000;  fill:none;  stroke-width:1.0;' d="M135.04 127.93 L135.16 126.93 L135.20 126.18 L135.28 124.53 L135.28 122.87 L135.37 121.04 L135.86 119.30 L136.78 117.89 L137.94 116.98 L139.10 116.57 L140.26 116.57 L141.42 117.23 L142.16 118.56 L142.58 120.55 L142.66 122.54 L142.74 124.36 L142.74 125.77 L142.66 126.85 " stroke-linecap='round' stroke-linejoin='round' brush-type='0' stroke-wetness='0.0'></path><path  style = ' stroke:#000000;  fill:none;  stroke-width:1.0;' d="M148.22 122.70 L148.96 122.45 L149.54 122.37 L150.87 122.12 L152.11 121.71 L153.27 120.96 L154.02 120.05 L154.43 119.14 L154.60 118.31 L154.35 117.65 L153.52 117.31 L152.19 117.31 L150.70 117.81 L149.29 118.89 L148.22 120.38 L147.39 121.96 L146.97 123.45 L146.81 125.02 L147.14 126.35 L148.22 127.43 L150.21 128.01 L152.94 128.26 L155.59 128.01 L157.83 127.34 " stroke-linecap='round' stroke-linejoin='round' brush-type='0' stroke-wetness='0.0'></path><path  style = ' stroke:#000000;  fill:none;  stroke-width:1.0;' d="M176.07 119.72 L175.70 119.72 L175.32 119.72 L174.33 120.05 L173.17 120.71 L171.68 122.29 L170.60 124.03 L170.02 125.94 L170.27 127.18 L171.18 128.01 L172.92 128.34 L175.16 128.01 L177.48 127.01 L179.14 125.52 L180.05 124.03 L180.30 122.70 L179.80 121.38 L178.97 120.30 L177.89 119.55 L176.98 119.22 L176.23 118.97 L176.32 118.89 " stroke-linecap='round' stroke-linejoin='round' brush-type='0' stroke-wetness='0.0'></path><path  style = ' stroke:#000000;  fill:none;  stroke-width:1.0;' d="M194.72 110.77 L194.10 110.27 L193.31 110.10 L191.65 109.77 L189.99 109.77 L188.67 109.77 L187.67 109.94 L186.93 110.35 L186.43 111.43 L186.26 113.09 L186.51 115.66 L186.93 118.64 L187.51 121.54 L187.92 123.70 L188.17 125.19 L187.59 126.35 " stroke-linecap='round' stroke-linejoin='round' brush-type='0' stroke-wetness='0.0'></path><path  style = ' stroke:#000000;  fill:none;  stroke-width:1.0;' d="M182.29 123.45 L183.53 122.95 L184.69 122.54 L187.43 121.87 L190.57 121.21 " stroke-linecap='round' stroke-linejoin='round' brush-type='0' stroke-wetness='0.0'></path><path  style = ' stroke:#000000;  fill:none;  stroke-width:1.0;' d="M211.13 114.74 L210.51 114.74 L209.89 114.83 L208.15 115.33 L206.16 116.49 L204.00 118.23 L202.59 120.13 L201.85 122.04 L201.77 123.70 L202.68 125.11 L204.25 125.94 L206.49 126.35 L208.98 125.94 " stroke-linecap='round' stroke-linejoin='round' brush-type='0' stroke-wetness='0.0'></path><path  style = ' stroke:#000000;  fill:none;  stroke-width:1.0;' d="M217.10 110.02 L216.98 110.39 L216.94 111.10 L216.85 112.92 L216.77 115.57 L216.69 118.48 L216.60 121.04 L216.60 123.37 L216.85 125.11 " stroke-linecap='round' stroke-linejoin='round' brush-type='0' stroke-wetness='0.0'></path><path  style = ' stroke:#000000;  fill:none;  stroke-width:1.0;' d="M225.31 120.46 L223.94 120.09 L223.07 120.13 L221.33 120.46 L220.25 121.54 L219.42 122.95 L219.01 124.36 L218.84 125.60 L219.09 126.43 L219.75 126.85 L221.00 126.85 L222.32 126.18 L223.40 125.02 L223.90 123.03 L224.06 121.21 L224.06 119.72 L224.06 119.06 L223.90 118.81 L223.65 118.97 L223.40 119.80 L223.32 121.29 L223.40 123.37 L224.15 125.27 " stroke-linecap='round' stroke-linejoin='round' brush-type='0' stroke-wetness='0.0'></path><path  style = ' stroke:#000000;  fill:none;  stroke-width:1.0;' d="M236.25 115.99 L235.01 116.11 L233.93 116.24 L231.77 116.82 L230.03 117.56 L228.79 118.56 L228.21 119.39 L228.04 120.38 L228.71 121.21 L229.95 122.12 L231.61 122.95 L232.69 123.78 L233.35 124.61 L233.60 125.44 L233.35 126.43 L232.44 127.34 L230.94 128.17 L229.54 128.75 L228.54 129.09 L228.38 128.75 " stroke-linecap='round' stroke-linejoin='round' brush-type='0' stroke-wetness='0.0'></path><path  style = ' stroke:#000000;  fill:none;  stroke-width:1.0;' d="M246.20 116.98 L245.70 116.98 L245.04 117.07 L243.71 117.31 L242.30 117.81 L240.81 118.56 L239.57 119.47 L238.57 120.30 L238.16 121.04 L238.07 121.79 L238.74 122.79 L239.73 123.78 L240.98 124.78 L241.80 125.60 L242.38 126.35 L242.63 127.01 L242.30 127.59 L241.22 128.17 L239.65 128.59 L237.66 128.84 L235.67 128.67 L234.01 128.34 " stroke-linecap='round' stroke-linejoin='round' brush-type='0' stroke-wetness='0.0'></path><path  style = ' stroke:#000000;  fill:none;  stroke-width:1.0;' d="M62.17 150.31 L63.17 150.18 L64.08 150.06 L66.15 149.81 L68.39 149.64 L71.04 149.48 L73.61 149.23 L76.01 148.81 " stroke-linecap='round' stroke-linejoin='round' brush-type='0' stroke-wetness='0.0'></path><path  style = ' stroke:#000000;  fill:none;  stroke-width:1.0;' d="M83.81 153.54 L84.06 152.79 L84.47 152.13 L85.30 150.80 L86.46 149.56 L87.70 148.57 L89.11 147.90 L90.44 147.74 L91.60 148.32 L92.34 149.81 L92.59 152.05 L92.34 154.12 L91.68 155.69 L90.69 156.52 L89.36 156.94 L87.79 156.44 L86.21 155.11 L84.80 152.54 L83.89 149.48 L83.39 146.41 L83.31 144.09 L83.31 142.68 L83.31 141.93 L83.31 142.35 L83.31 144.17 L83.31 147.32 L83.48 150.97 L84.30 154.29 L86.13 156.69 " stroke-linecap='round' stroke-linejoin='round' brush-type='0' stroke-wetness='0.0'></path><path  style = ' stroke:#000000;  fill:none;  stroke-width:1.0;' d="M96.24 160.25 L96.24 159.76 L96.24 159.26 L96.16 158.10 L95.99 156.44 L95.74 154.37 L95.49 152.21 L95.33 150.31 L95.25 148.73 L95.33 147.41 L95.74 146.49 L96.82 145.91 L98.56 145.66 L100.80 145.58 " stroke-linecap='round' stroke-linejoin='round' brush-type='0' stroke-wetness='0.0'></path><path  style = ' stroke:#000000;  fill:none;  stroke-width:1.0;' d="M105.69 150.31 L105.69 151.05 L105.69 151.80 L105.69 153.21 L105.69 154.53 L105.69 155.69 L105.53 156.94 L105.19 157.93 " stroke-linecap='round' stroke-linejoin='round' brush-type='0' stroke-wetness='0.0'></path><path  style = ' stroke:#000000;  fill:none;  stroke-width:1.0;' d="M111.91 152.30 L112.65 152.17 L113.40 152.13 L115.06 151.96 L116.96 151.63 L118.79 151.05 L120.20 150.31 L121.03 149.48 L121.44 148.65 L121.36 147.82 L120.53 147.24 L118.87 146.91 L116.88 146.99 L114.89 147.57 L113.40 148.81 L112.41 150.56 L111.99 152.71 L112.07 154.70 L112.82 156.36 L114.31 157.44 L117.13 157.85 " stroke-linecap='round' stroke-linejoin='round' brush-type='0' stroke-wetness='0.0'></path><path  style = ' stroke:#000000;  fill:none;  stroke-width:1.0;' d="M134.79 141.11 L133.67 140.36 L132.88 140.03 L131.31 139.45 L129.98 139.36 L128.82 139.45 L127.82 139.94 L127.33 141.11 L127.08 143.26 L127.08 146.08 L127.08 149.31 L127.08 152.21 L127.08 154.45 L127.08 155.94 L126.75 156.94 " stroke-linecap='round' stroke-linejoin='round' brush-type='0' stroke-wetness='0.0'></path><path  style = ' stroke:#000000;  fill:none;  stroke-width:1.0;' d="M121.86 151.05 L122.73 150.56 L123.93 150.31 L126.66 149.64 L130.31 149.23 L134.29 148.81 " stroke-linecap='round' stroke-linejoin='round' brush-type='0' stroke-wetness='0.0'></path><path  style = ' stroke:#000000;  fill:none;  stroke-width:1.0;' d="M150.95 160.25 L150.70 159.26 L150.62 158.43 L150.45 156.52 L150.45 154.53 L150.54 152.38 L150.87 150.47 L151.45 148.98 L152.19 147.99 L153.19 147.32 L154.35 146.99 L155.84 147.07 " stroke-linecap='round' stroke-linejoin='round' brush-type='0' stroke-wetness='0.0'></path><path  style = ' stroke:#000000;  fill:none;  stroke-width:1.0;' d="M157.91 153.29 L158.54 153.29 L159.24 153.29 L160.82 153.21 L162.56 152.79 L164.55 151.88 L166.12 150.72 L167.28 149.56 L167.78 148.65 L168.03 147.90 L167.61 147.32 L166.29 147.07 L164.21 147.49 L162.06 148.65 L160.24 150.47 L158.99 152.38 L158.33 154.29 L158.16 155.86 L158.66 157.19 L159.99 158.18 L162.31 158.93 " stroke-linecap='round' stroke-linejoin='round' brush-type='0' stroke-wetness='0.0'></path><path  style = ' stroke:#000000;  fill:none;  stroke-width:1.0;' d="M181.04 142.35 L179.92 141.73 L179.22 141.52 L177.89 141.11 L177.06 141.11 L176.23 141.11 L175.49 141.52 L174.82 142.68 L174.41 144.84 L174.16 147.65 L174.08 150.47 L174.08 152.79 L174.08 154.45 L174.08 155.78 L174.08 156.77 L173.91 157.52 L173.66 157.93 " stroke-linecap='round' stroke-linejoin='round' brush-type='0' stroke-wetness='0.0'></path><path  style = ' stroke:#000000;  fill:none;  stroke-width:1.0;' d="M167.86 154.04 L168.86 153.54 L169.69 153.37 L171.59 153.04 L173.66 153.04 L175.99 153.04 L178.47 153.54 " stroke-linecap='round' stroke-linejoin='round' brush-type='0' stroke-wetness='0.0'></path><path  style = ' stroke:#000000;  fill:none;  stroke-width:1.0;' d="M183.28 158.51 L183.40 157.77 L183.45 156.94 L183.53 154.62 L183.61 152.30 L183.86 150.06 L184.44 148.81 L185.44 147.82 L186.68 147.24 L188.01 146.91 L189.41 146.83 " stroke-linecap='round' stroke-linejoin='round' brush-type='0' stroke-wetness='0.0'></path><path  style = ' stroke:#000000;  fill:none;  stroke-width:1.0;' d="M191.49 150.80 L192.85 151.30 L194.06 151.38 L196.21 151.30 L197.79 150.64 L198.70 149.81 L199.20 148.81 L199.20 147.82 L198.53 147.07 L197.12 146.99 L195.47 147.65 L193.89 148.98 L192.90 150.80 L192.32 152.63 L192.32 154.20 L192.90 155.53 L194.39 156.44 L196.96 156.69 " stroke-linecap='round' stroke-linejoin='round' brush-type='0' stroke-wetness='0.0'></path><path  style = ' stroke:#000000;  fill:none;  stroke-width:1.0;' d="M207.15 148.32 L206.03 148.44 L205.08 148.48 L203.26 148.81 L202.01 149.15 L201.35 149.73 L201.19 150.47 L201.52 151.38 L202.43 152.46 L203.51 153.37 L204.42 154.20 L204.75 154.95 L204.92 155.69 L204.50 156.44 L203.42 157.10 L201.52 157.60 L198.37 158.18 " stroke-linecap='round' stroke-linejoin='round' brush-type='0' stroke-wetness='0.0'></path><path  style = ' stroke:#000000;  fill:none;  stroke-width:1.0;' d="M214.37 139.86 L214.37 140.73 L214.37 141.77 L214.37 144.59 L214.37 147.82 L214.03 152.13 L213.70 155.20 L213.29 157.35 L213.21 157.77 L213.21 156.94 L214.28 154.62 L215.69 151.88 L217.27 150.14 L218.26 149.81 L219.17 150.31 L220.00 151.55 L220.42 153.46 L220.58 155.28 L220.58 156.77 L220.67 157.77 L221.08 158.43 " stroke-linecap='round' stroke-linejoin='round' brush-type='0' stroke-wetness='0.0'></path><path  style = ' stroke:#000000;  fill:none;  stroke-width:1.0;' d="M225.31 153.54 L226.05 153.04 L226.63 152.88 L227.88 152.54 L229.29 152.46 L230.78 152.30 L232.11 151.88 L233.02 151.38 L233.51 150.72 L233.76 150.06 L233.10 149.31 L231.86 148.81 L229.70 148.73 L227.79 149.31 L226.05 150.47 L225.23 152.30 L224.81 154.29 L225.06 156.28 L226.05 157.85 L228.04 159.26 " stroke-linecap='round' stroke-linejoin='round' brush-type='0' stroke-wetness='0.0'></path><path  style = ' stroke:#000000;  fill:none;  stroke-width:1.0;' d="M235.75 158.51 L235.75 157.77 L235.59 156.94 L235.42 155.28 L235.34 153.54 L235.59 151.96 L236.50 150.22 L237.91 148.81 L239.90 147.74 L241.80 147.41 L243.96 147.32 L246.20 147.65 " stroke-linecap='round' stroke-linejoin='round' brush-type='0' stroke-wetness='0.0'></path><path  style = ' stroke:#000000;  fill:none;  stroke-width:1.0;' d="M264.10 148.57 L263.48 148.32 L262.78 148.23 L261.28 148.23 L259.71 148.73 L258.13 149.64 L256.89 151.14 L256.14 153.04 L256.14 155.11 L256.89 156.69 L258.63 157.52 L261.04 157.44 L263.61 156.36 L265.51 154.87 L266.59 153.29 L267.00 151.63 L266.51 150.06 L265.59 148.73 L264.19 148.07 L262.94 147.74 L261.62 147.65 L260.79 148.32 L260.95 149.64 " stroke-linecap='round' stroke-linejoin='round' brush-type='0' stroke-wetness='0.0'></path><path  style = ' stroke:#000000;  fill:none;  stroke-width:1.0;' d="M284.00 138.62 L283.50 138.12 L282.67 137.87 L281.01 137.46 L279.11 137.46 L277.20 137.79 L275.54 138.54 L274.30 139.86 L273.72 142.02 L273.55 144.84 L273.55 147.90 L273.64 150.56 L273.72 153.04 L273.72 155.03 " stroke-linecap='round' stroke-linejoin='round' brush-type='0' stroke-wetness='0.0'></path><path  style = ' stroke:#000000;  fill:none;  stroke-width:1.0;' d="M269.33 150.56 L270.94 150.06 L272.64 149.89 L276.54 149.31 L280.93 149.06 " stroke-linecap='round' stroke-linejoin='round' brush-type='0' stroke-wetness='0.0'></path><path  style = ' stroke:#000000;  fill:none;  stroke-width:1.0;' d="M300.41 146.08 L299.66 146.20 L298.67 146.41 L296.51 146.99 L294.03 147.99 L291.87 149.31 L290.46 150.89 L289.88 152.63 L289.80 154.37 L290.63 155.86 L292.45 156.77 L295.35 156.94 L298.59 155.94 " stroke-linecap='round' stroke-linejoin='round' brush-type='0' stroke-wetness='0.0'></path><path  style = ' stroke:#000000;  fill:none;  stroke-width:1.0;' d="M308.62 140.11 L308.62 140.61 L308.62 141.44 L308.37 143.59 L307.79 146.83 L307.04 150.31 L306.46 153.46 L306.21 155.78 L306.13 157.52 L306.63 158.76 " stroke-linecap='round' stroke-linejoin='round' brush-type='0' stroke-wetness='0.0'></path><path  style = ' stroke:#000000;  fill:none;  stroke-width:1.0;' d="M313.09 153.54 L312.72 153.17 L312.18 153.04 L311.10 152.79 L310.19 152.79 L309.45 152.96 L309.11 153.54 L308.87 154.62 L308.95 155.86 L309.45 156.69 L310.61 157.02 L312.26 156.44 L313.67 155.28 L314.50 153.62 L314.75 152.21 L314.92 151.22 L315.00 150.64 L315.00 151.38 L314.92 152.96 L314.83 155.11 L314.92 156.52 L315.66 157.35 L317.40 157.10 " stroke-linecap='round' stroke-linejoin='round' brush-type='0' stroke-wetness='0.0'></path><path  style = ' stroke:#000000;  fill:none;  stroke-width:1.0;' d="M326.77 146.83 L325.15 147.07 L323.95 147.57 L321.55 148.65 L319.89 149.89 L318.81 150.97 L318.40 151.72 L318.56 152.46 L319.39 153.21 L320.89 154.04 L322.46 154.78 L323.70 155.36 L324.45 156.03 L324.95 156.61 L325.20 157.44 L324.62 158.26 L323.54 159.18 L321.63 159.92 L319.89 160.42 L317.98 160.67 L316.74 160.25 " stroke-linecap='round' stroke-linejoin='round' brush-type='0' stroke-wetness='0.0'></path><path  style = ' stroke:#000000;  fill:none;  stroke-width:1.0;' d="M338.71 145.08 L338.21 145.08 L337.63 145.17 L336.47 145.50 L334.89 146.24 L333.49 147.32 L332.33 148.40 L331.91 149.31 L331.91 150.22 L332.57 151.30 L333.49 152.54 L334.40 153.62 L334.89 154.62 L335.14 155.45 L335.23 156.28 L334.56 156.94 L333.15 157.44 L330.83 157.77 L328.10 158.02 L325.94 158.26 " stroke-linecap='round' stroke-linejoin='round' brush-type='0' stroke-wetness='0.0'></path><path  style = ' stroke:#000000;  fill:none;  stroke-width:1.0;' d="M355.12 157.02 L355.12 156.40 L355.12 155.78 L355.20 154.29 L355.54 152.63 L356.36 150.47 L357.69 148.32 L359.18 146.33 L360.59 144.92 L362.00 144.09 L363.49 143.76 L364.82 144.42 L365.65 147.24 L365.48 150.80 L364.65 154.20 L363.49 155.86 L362.50 156.77 L361.34 157.19 L360.09 156.94 L358.77 155.78 L357.77 153.62 L356.94 150.31 L356.53 146.66 L356.36 142.76 L356.36 139.61 L356.36 137.13 L356.36 135.72 L356.36 134.89 L356.45 134.56 L356.61 134.81 L356.78 136.30 L356.86 139.20 L356.86 143.09 L356.86 146.99 L357.19 150.47 L357.69 153.21 L358.69 155.28 " stroke-linecap='round' stroke-linejoin='round' brush-type='0' stroke-wetness='0.0'></path><path  style = ' stroke:#000000;  fill:none;  stroke-width:1.0;' d="M371.04 150.80 L371.78 150.80 L372.61 150.72 L374.35 150.56 L376.18 150.14 L377.83 149.56 L378.99 148.90 L379.66 148.15 L379.91 147.49 L379.41 146.74 L378.17 146.33 L375.93 146.08 L373.52 146.58 L371.37 147.57 L369.96 149.39 L369.30 151.47 L369.13 153.71 L369.96 155.69 L371.70 157.19 L374.44 158.02 L377.67 158.26 " stroke-linecap='round' stroke-linejoin='round' brush-type='0' stroke-wetness='0.0'></path><path  style = ' stroke:#000000;  fill:none;  stroke-width:1.0;' d="M402.62 135.14 L401.50 134.52 L400.46 134.31 L398.48 133.89 L396.49 134.14 L394.33 134.89 L392.42 136.13 L391.10 137.96 L390.52 140.28 L390.27 143.43 L390.19 146.99 L390.27 150.64 L390.43 153.62 L390.60 155.78 L390.68 157.02 L390.43 157.77 L389.36 157.77 " stroke-linecap='round' stroke-linejoin='round' brush-type='0' stroke-wetness='0.0'></path><path  style = ' stroke:#000000;  fill:none;  stroke-width:1.0;' d="M384.71 152.54 L385.09 152.05 L385.79 151.72 L387.62 151.14 L390.35 150.80 L393.42 150.56 L396.65 150.31 L399.72 149.89 L402.12 149.31 L403.45 148.81 L403.70 148.48 L403.53 148.40 L402.70 148.40 L401.21 148.90 L399.47 150.06 L398.06 151.72 L397.31 153.71 L397.07 155.69 L397.48 157.27 L398.97 158.10 L401.21 158.02 L403.61 157.10 L405.27 155.69 L406.18 154.04 L406.52 152.46 L406.35 150.89 L405.85 149.64 L405.02 148.98 L404.11 148.81 L403.28 148.90 L402.62 149.73 L402.37 151.55 L403.12 154.37 " stroke-linecap='round' stroke-linejoin='round' brush-type='0' stroke-wetness='0.0'></path><path  style = ' stroke:#000000;  fill:none;  stroke-width:1.0;' d="M412.57 158.26 L412.32 157.77 L412.24 157.10 L412.07 155.86 L412.07 154.45 L412.07 153.04 L412.24 151.38 L412.73 149.89 L413.81 148.40 L415.39 147.24 L417.29 146.24 L419.12 145.75 L420.61 145.58 " stroke-linecap='round' stroke-linejoin='round' brush-type='0' stroke-wetness='0.0'></path><path  style = ' stroke:#000000;  fill:none;  stroke-width:1.0;' d="M421.02 153.04 L422.02 153.42 L422.85 153.54 L424.67 153.62 L426.66 153.04 L428.73 152.21 L430.56 151.14 L431.80 150.14 L432.54 149.15 L432.88 148.23 L432.54 147.49 L431.38 146.91 L429.31 146.91 L426.91 147.49 L424.59 148.81 L422.76 150.64 L421.52 152.71 L420.94 154.70 L420.77 156.52 L421.27 158.18 L422.51 159.43 L425.00 160.17 L428.23 160.17 L432.30 159.18 " stroke-linecap='round' stroke-linejoin='round' brush-type='0' stroke-wetness='0.0'></path><path  style = ' stroke:#000000;  fill:none;  stroke-width:1.0;' d="M62.17 179.90 L63.17 179.78 L64.16 179.73 L66.32 179.40 L68.64 179.07 L71.04 178.57 L73.11 178.16 L74.94 177.74 L76.59 177.41 L78.34 177.00 " stroke-linecap='round' stroke-linejoin='round' brush-type='0' stroke-wetness='0.0'></path><path  style = ' stroke:#000000;  fill:none;  stroke-width:1.0;' d="M89.03 172.44 L88.03 172.56 L87.21 172.85 L85.55 173.52 L84.39 174.35 L83.64 175.18 L83.39 176.09 L83.64 177.08 L84.72 178.33 L86.29 179.49 L87.95 180.56 L89.11 181.39 L89.94 182.22 L90.44 183.05 L90.69 183.88 L90.27 184.79 L89.19 185.70 L87.45 186.53 L85.80 187.11 L84.39 187.53 L83.48 187.78 L83.56 187.36 " stroke-linecap='round' stroke-linejoin='round' brush-type='0' stroke-wetness='0.0'></path><path  style = ' stroke:#000000;  fill:none;  stroke-width:1.0;' d="M101.21 177.16 L100.22 177.16 L99.14 177.25 L96.99 177.83 L95.00 179.07 L93.51 180.73 L92.76 182.64 L92.51 184.21 L92.76 185.54 L93.75 186.20 L95.58 186.28 L97.90 185.29 L100.14 183.22 L101.79 180.73 L102.79 178.74 L103.12 177.66 L103.20 177.16 L102.79 177.58 L102.21 178.49 L101.46 180.23 L101.13 181.97 L101.05 184.21 L101.88 186.45 " stroke-linecap='round' stroke-linejoin='round' brush-type='0' stroke-wetness='0.0'></path><path  style = ' stroke:#000000;  fill:none;  stroke-width:1.0;' d="M110.66 190.59 L110.42 190.22 L110.33 189.60 L110.17 188.11 L110.17 186.20 L110.33 184.04 L110.75 181.97 L111.58 180.15 L112.65 178.66 L113.90 177.83 L115.14 177.41 L116.30 177.83 L117.13 178.99 L117.54 180.98 L117.63 183.30 L117.46 185.12 L117.30 186.28 L117.13 186.78 L117.13 186.20 L117.13 184.54 L117.38 182.30 L117.79 180.65 L118.46 179.90 L119.04 179.65 L119.70 179.73 L120.20 180.23 L120.61 181.48 L120.86 183.38 L121.03 185.62 L121.19 187.86 L121.44 190.01 " stroke-linecap='round' stroke-linejoin='round' brush-type='0' stroke-wetness='0.0'></path><path  style = ' stroke:#000000;  fill:none;  stroke-width:1.0;' d="M126.33 199.79 L126.33 199.30 L126.33 198.55 L126.33 196.89 L126.33 194.41 L126.33 191.26 L126.33 187.86 L126.33 184.96 L126.33 182.72 L126.41 180.89 L126.83 179.49 L127.49 178.49 L128.49 178.08 L129.56 178.16 L130.64 178.91 L131.39 180.31 L131.72 182.22 L131.72 184.04 L131.22 185.70 L130.56 186.95 L129.48 187.86 L128.24 188.27 L126.58 188.11 " stroke-linecap='round' stroke-linejoin='round' brush-type='0' stroke-wetness='0.0'></path><path  style = ' stroke:#000000;  fill:none;  stroke-width:1.0;' d="M136.03 169.46 L136.53 169.83 L136.78 170.53 L137.27 172.19 L137.44 174.76 L137.52 177.74 L137.52 180.65 L137.52 182.88 L137.52 184.54 L137.69 185.87 " stroke-linecap='round' stroke-linejoin='round' brush-type='0' stroke-wetness='0.0'></path><path  style = ' stroke:#000000;  fill:none;  stroke-width:1.0;' d="M142.50 183.63 L143.49 183.26 L144.32 183.05 L145.89 182.55 L147.22 182.14 L148.46 181.56 L149.54 180.65 L150.21 179.49 L150.45 178.24 L150.21 177.25 L149.54 176.58 L148.05 176.42 L146.23 177.16 L144.24 178.74 L142.99 180.89 L142.33 183.30 L142.50 185.37 L143.74 187.03 L145.73 187.86 L148.80 188.27 L152.11 187.94 " stroke-linecap='round' stroke-linejoin='round' brush-type='0' stroke-wetness='0.0'></path><path  style = ' stroke:#000000;  fill:none;  stroke-width:1.0;' d="M171.84 204.02 L172.09 203.28 L172.17 202.45 L172.34 200.46 L172.17 197.39 L171.84 193.16 L171.51 188.11 L171.34 183.55 L171.59 179.98 L172.17 177.66 L173.00 176.09 L173.91 175.26 L175.24 174.93 L176.73 175.67 L178.22 177.16 L179.05 179.32 L179.47 181.48 L179.30 183.46 L178.64 185.29 L177.31 186.61 L175.24 187.44 L172.84 187.78 L170.60 187.69 " stroke-linecap='round' stroke-linejoin='round' brush-type='0' stroke-wetness='0.0'></path><path  style = ' stroke:#000000;  fill:none;  stroke-width:1.0;' d="M182.04 187.11 L182.04 185.99 L182.04 184.87 L182.04 182.64 L181.95 180.56 L181.87 178.82 L181.95 177.58 L182.45 176.58 L183.53 175.92 L185.19 175.51 L187.26 175.67 L189.58 176.75 " stroke-linecap='round' stroke-linejoin='round' brush-type='0' stroke-wetness='0.0'></path><path  style = ' stroke:#000000;  fill:none;  stroke-width:1.0;' d="M195.71 180.65 L195.47 180.77 L195.05 180.81 L194.06 180.98 L192.81 181.39 L191.65 182.22 L190.66 183.55 L190.08 184.87 L189.83 186.28 L190.57 187.36 L192.32 188.11 L194.80 188.02 L197.21 187.11 L198.78 185.70 L199.53 184.04 L199.28 182.39 L198.37 180.98 L197.04 180.07 L195.80 179.73 L194.47 179.65 L193.23 180.07 L192.15 180.65 " stroke-linecap='round' stroke-linejoin='round' brush-type='0' stroke-wetness='0.0'></path><path  style = ' stroke:#000000;  fill:none;  stroke-width:1.0;' d="M203.42 186.12 L203.18 185.25 L203.09 184.29 L203.18 182.55 L203.84 180.98 L205.33 179.65 L207.07 178.66 L209.06 178.08 L210.72 178.16 L212.21 179.07 L213.12 180.65 L213.54 182.72 L213.62 184.46 L213.29 185.87 L212.38 186.61 L210.88 187.03 L208.81 186.95 L206.57 185.87 L204.50 183.63 L203.18 180.48 L202.59 177.08 L202.51 173.85 L202.68 171.03 L203.09 168.71 L203.51 167.05 L203.92 165.89 L204.09 166.72 L204.17 169.54 L204.17 174.01 L204.17 178.33 L204.17 181.81 L204.09 184.38 L203.84 186.53 " stroke-linecap='round' stroke-linejoin='round' brush-type='0' stroke-wetness='0.0'></path><path  style = ' stroke:#000000;  fill:none;  stroke-width:1.0;' d="M221.08 168.21 L221.20 168.71 L221.25 169.70 L221.25 172.03 L220.91 175.67 L220.50 179.57 L220.09 183.13 L219.92 185.79 L219.92 187.61 L220.17 188.94 " stroke-linecap='round' stroke-linejoin='round' brush-type='0' stroke-wetness='0.0'></path><path  style = ' stroke:#000000;  fill:none;  stroke-width:1.0;' d="M225.56 182.14 L226.80 181.89 L227.63 181.81 L229.54 181.39 L231.28 180.98 L232.93 180.31 L234.18 179.57 L234.92 178.66 L235.34 177.74 L235.09 176.92 L233.93 176.42 L231.94 176.17 L229.37 176.83 L226.88 178.24 L224.73 180.40 L223.48 182.55 L222.90 184.63 L223.40 186.37 L224.81 187.53 L227.46 188.02 L230.70 188.02 " stroke-linecap='round' stroke-linejoin='round' brush-type='0' stroke-wetness='0.0'></path><path  style = ' stroke:#000000;  fill:none;  stroke-width:1.0;' d="M240.48 190.84 L240.35 190.10 L240.31 189.18 L240.23 187.11 L240.23 184.63 L240.23 181.81 L240.31 179.40 L240.64 177.50 L241.39 176.34 L242.55 175.67 L243.88 175.59 L245.20 176.67 L246.20 178.49 L246.78 180.98 L246.94 182.97 L246.94 184.46 L246.94 185.29 L246.94 185.29 L246.94 184.04 L247.44 181.64 L248.60 179.15 L250.43 177.41 L252.33 176.67 L254.24 176.50 L255.56 177.16 L256.39 178.66 L256.64 180.89 L256.81 183.13 L256.89 184.96 L257.14 186.28 " stroke-linecap='round' stroke-linejoin='round' brush-type='0' stroke-wetness='0.0'></path><path  style = ' stroke:#000000;  fill:none;  stroke-width:1.0;' d="M273.06 172.69 L272.18 172.69 L271.23 172.77 L269.24 173.35 L267.17 174.35 L265.43 175.67 L264.43 176.92 L264.10 177.99 L264.35 179.15 L265.43 180.40 L267.00 181.64 L268.58 182.72 L269.49 183.55 L270.07 184.38 L270.40 185.12 L270.24 185.87 L269.24 186.61 L267.50 187.28 L265.35 187.78 L263.02 188.11 L261.28 188.27 " stroke-linecap='round' stroke-linejoin='round' brush-type='0' stroke-wetness='0.0'></path><path  style = ' stroke:#000000;  fill:none;  stroke-width:1.0;' d="M45.01 211.23 L44.76 210.74 L44.68 210.16 L44.51 209.00 L44.51 207.92 L44.68 207.01 L45.01 206.34 L45.59 205.85 L46.34 205.60 L47.17 205.85 L47.83 206.59 L48.16 207.67 L48.24 208.75 L48.16 209.49 L47.83 209.99 L47.17 210.16 L46.42 210.07 L45.76 209.58 L45.43 208.66 L45.34 207.84 L45.76 207.26 L46.42 207.09 L47.17 207.01 L47.66 207.17 L48.00 207.75 L48.00 208.75 L47.50 209.74 L46.67 210.41 L45.76 210.74 L45.01 210.90 L44.35 210.90 L44.10 210.16 L45.18 208.58 " stroke-linecap='round' stroke-linejoin='round' brush-type='0' stroke-wetness='0.0'></path><path  style = ' stroke:#000000;  fill:none;  stroke-width:1.0;' d="M57.20 195.07 L57.07 195.94 L57.03 197.14 L56.95 199.79 L56.95 203.28 L56.95 207.09 L56.95 210.65 L56.95 213.47 L56.95 215.38 L56.95 216.54 L57.03 217.20 " stroke-linecap='round' stroke-linejoin='round' brush-type='0' stroke-wetness='0.0'></path><path  style = ' stroke:#000000;  fill:none;  stroke-width:1.0;' d="M60.93 211.73 L61.43 211.86 L61.84 211.90 L62.83 211.98 L63.99 211.90 L65.32 211.73 L66.48 211.32 L67.39 210.74 L67.97 209.91 L68.22 208.83 L67.89 207.75 L66.98 206.92 L65.32 206.68 L63.50 207.17 L61.67 208.50 L60.43 210.41 L59.68 212.56 L59.52 214.47 L60.26 216.21 L62.01 217.45 L64.91 218.20 L68.64 218.11 L72.28 217.04 L75.10 215.54 L76.68 214.14 L77.34 213.31 L77.26 212.73 L76.43 212.31 L74.94 212.06 L73.11 212.06 L71.12 212.48 L69.47 213.31 L68.39 214.38 L67.97 215.71 L68.31 216.87 L69.30 217.78 L71.04 218.03 L73.03 217.53 L74.69 216.46 L75.68 215.05 L76.01 213.89 L76.10 213.06 L76.01 212.64 L75.68 212.89 L75.35 213.72 L75.10 215.30 L75.10 216.87 L75.35 218.28 L76.35 218.69 " stroke-linecap='round' stroke-linejoin='round' brush-type='0' stroke-wetness='0.0'></path><path  style = ' stroke:#000000;  fill:none;  stroke-width:1.0;' d="M81.82 209.00 L82.07 210.12 L82.15 211.32 L82.31 213.64 L82.40 215.71 L82.56 217.29 L82.81 218.20 L83.14 218.61 L83.81 217.95 L85.05 215.96 L86.54 213.06 L87.95 210.49 L88.95 208.91 L89.78 208.08 L90.36 208.00 " stroke-linecap='round' stroke-linejoin='round' brush-type='0' stroke-wetness='0.0'></path><path  style = ' stroke:#000000;  fill:none;  stroke-width:1.0;' d="M92.51 212.48 L93.13 212.48 L93.67 212.48 L94.91 212.48 L96.16 212.15 L97.40 211.40 L98.40 210.41 L98.98 209.24 L99.22 208.33 L99.14 207.50 L98.48 207.17 L97.15 207.26 L95.33 208.00 L93.75 209.33 L92.76 210.82 L92.34 212.23 L92.34 213.64 L93.26 215.05 L95.16 216.37 L98.23 217.45 L101.79 218.28 L104.53 218.94 " stroke-linecap='round' stroke-linejoin='round' brush-type='0' stroke-wetness='0.0'></path><path  style = ' stroke:#000000;  fill:none;  stroke-width:1.0;' d="M125.83 206.01 L125.96 207.01 L126.08 208.25 L126.33 210.99 L126.58 214.14 L126.75 217.12 L126.91 219.52 L126.99 221.18 L127.08 222.26 L126.66 222.59 " stroke-linecap='round' stroke-linejoin='round' brush-type='0' stroke-wetness='0.0'></path><path  style = ' stroke:#000000;  fill:none;  stroke-width:1.0;' d="M121.11 212.48 L121.86 211.86 L122.68 211.57 L124.34 210.90 L126.33 210.65 L128.90 210.41 " stroke-linecap='round' stroke-linejoin='round' brush-type='0' stroke-wetness='0.0'></path><path  style = ' stroke:#000000;  fill:none;  stroke-width:1.0;' d="M135.28 208.75 L135.41 209.49 L135.45 210.32 L135.53 212.23 L135.53 214.55 L135.53 217.12 L135.53 219.69 L135.53 221.76 " stroke-linecap='round' stroke-linejoin='round' brush-type='0' stroke-wetness='0.0'></path><path  style = ' stroke:#000000;  fill:none;  stroke-width:1.0;' d="M140.26 218.94 L140.26 218.07 L140.26 217.37 L140.26 215.71 L140.26 214.05 L140.34 212.48 L140.76 211.15 L141.34 210.24 L142.08 209.66 L142.91 209.58 L143.82 210.24 L144.65 211.65 L145.15 213.56 L145.40 215.30 L145.48 216.54 L145.48 217.37 L145.81 216.71 L146.64 215.13 L147.72 213.22 L148.63 212.31 L149.13 212.06 L149.46 212.15 L149.71 212.81 L149.87 214.14 L149.96 215.71 L149.96 216.95 L150.04 217.70 L150.54 217.78 " stroke-linecap='round' stroke-linejoin='round' brush-type='0' stroke-wetness='0.0'></path><path  style = ' stroke:#000000;  fill:none;  stroke-width:1.0;' d="M154.68 214.22 L155.30 213.97 L155.84 213.89 L157.17 213.47 L158.49 213.06 L159.82 212.23 L160.73 211.23 L161.31 209.99 L161.56 208.91 L161.40 208.08 L160.73 207.67 L159.49 207.50 L157.91 208.08 L156.34 209.33 L155.26 211.23 L154.76 213.31 L154.76 215.30 L155.26 217.12 L156.59 218.53 L159.08 219.69 " stroke-linecap='round' stroke-linejoin='round' brush-type='0' stroke-wetness='0.0'></path><path  style = ' stroke:#000000;  fill:none;  stroke-width:1.0;' d="M194.97 200.29 L193.35 199.79 L192.23 199.55 L189.99 199.13 L188.34 199.05 L186.84 199.05 L185.60 199.46 L184.69 200.79 L184.19 203.28 L183.94 206.92 L183.78 210.82 L183.45 214.30 L183.20 216.71 L182.95 218.36 L182.70 219.44 L182.12 220.02 " stroke-linecap='round' stroke-linejoin='round' brush-type='0' stroke-wetness='0.0'></path><path  style = ' stroke:#000000;  fill:none;  stroke-width:1.0;' d="M179.55 213.72 L180.05 213.47 L180.96 213.31 L182.95 212.98 L185.68 212.73 L188.17 212.56 L190.33 212.23 " stroke-linecap='round' stroke-linejoin='round' brush-type='0' stroke-wetness='0.0'></path><path  style = ' stroke:#000000;  fill:none;  stroke-width:1.0;' d="M192.98 210.74 L192.11 210.61 L191.24 210.65 L189.58 211.15 L188.01 212.31 L186.76 214.05 L185.93 215.79 L185.60 217.53 L185.77 218.78 L186.84 219.52 L188.75 219.28 L191.24 218.03 L193.31 216.13 L194.72 214.22 L195.38 212.98 L195.63 212.23 L195.47 211.81 L194.64 211.57 L193.23 211.57 L191.57 211.90 L190.08 212.98 L188.92 214.80 L188.50 217.20 " stroke-linecap='round' stroke-linejoin='round' brush-type='0' stroke-wetness='0.0'></path><path  style = ' stroke:#000000;  fill:none;  stroke-width:1.0;' d="M198.70 219.44 L198.57 218.94 L198.53 218.28 L198.37 216.95 L198.28 215.46 L198.20 214.05 L198.20 212.73 L198.53 211.48 L199.36 210.32 L200.85 209.41 L202.51 208.75 L204.09 208.42 L205.50 208.25 L206.74 208.25 L208.31 208.83 " stroke-linecap='round' stroke-linejoin='round' brush-type='0' stroke-wetness='0.0'></path><path  style = ' stroke:#000000;  fill:none;  stroke-width:1.0;' d="M226.55 208.50 L225.93 208.25 L224.98 208.42 L223.15 208.91 L221.08 209.99 L219.42 211.32 L218.18 212.81 L217.52 214.38 L217.27 216.13 L217.76 217.78 L218.93 219.03 L221.00 219.61 L223.24 219.36 L225.39 218.53 L226.80 217.04 L227.63 215.21 L227.88 213.06 L227.79 211.23 L227.46 209.91 L227.05 209.33 L226.63 209.08 L226.05 209.49 L225.31 211.32 L224.31 214.47 L223.40 218.53 L222.74 222.18 L222.49 225.41 L222.82 228.06 L223.65 230.13 L224.98 231.63 L226.80 232.37 L228.87 232.79 L230.94 232.46 L232.93 231.46 " stroke-linecap='round' stroke-linejoin='round' brush-type='0' stroke-wetness='0.0'></path><path  style = ' stroke:#000000;  fill:none;  stroke-width:1.0;' d="M236.50 211.23 L236.25 211.86 L236.08 212.98 L235.84 215.30 L235.84 217.78 L236.17 219.69 L236.75 220.77 L237.66 221.26 L238.82 220.85 L240.39 219.19 L241.89 216.21 L242.96 212.98 L243.46 210.32 L243.63 208.66 L243.79 207.84 L243.88 208.08 L244.04 209.49 L244.21 211.90 L244.46 214.38 L244.87 216.46 L245.37 217.70 L246.03 218.36 L246.61 218.61 L247.28 218.61 L247.94 218.11 L248.52 217.62 L249.02 217.12 L249.68 216.71 L250.67 216.13 L252.17 215.21 L253.82 214.30 L255.48 213.14 L256.64 212.06 L257.22 210.74 L257.22 209.58 L256.64 208.66 L255.40 208.33 L253.57 208.66 L251.67 209.74 L250.26 211.57 L249.60 213.80 L249.43 216.21 L249.93 218.45 L251.17 220.27 L253.33 221.35 L255.15 221.93 " stroke-linecap='round' stroke-linejoin='round' brush-type='0' stroke-wetness='0.0'></path><path  style = ' stroke:#000000;  fill:none;  stroke-width:1.0;' d="M270.07 207.50 L269.70 207.38 L268.74 207.42 L267.09 207.67 L264.93 208.50 L263.11 209.66 L261.62 210.82 L260.87 211.73 L261.20 212.56 L262.61 213.39 L264.77 214.14 L266.92 214.88 L268.50 215.63 L269.41 216.46 L269.74 217.37 L269.49 218.45 L268.50 219.69 L267.00 220.60 L265.01 221.10 L263.27 220.68 " stroke-linecap='round' stroke-linejoin='round' brush-type='0' stroke-wetness='0.0'></path><path  style = ' stroke:#000000;  fill:none;  stroke-width:1.0;' d="M278.28 204.77 L278.53 205.39 L278.61 206.26 L278.77 208.42 L278.77 211.32 L278.77 214.38 L278.77 217.04 L278.77 218.94 L278.69 220.19 L278.19 220.93 " stroke-linecap='round' stroke-linejoin='round' brush-type='0' stroke-wetness='0.0'></path><path  style = ' stroke:#000000;  fill:none;  stroke-width:1.0;' d="M275.29 208.50 L276.04 208.00 L276.79 207.84 L278.28 207.50 L280.10 207.50 L281.93 208.08 " stroke-linecap='round' stroke-linejoin='round' brush-type='0' stroke-wetness='0.0'></path><path  style = ' stroke:#000000;  fill:none;  stroke-width:1.0;' d="M285.99 211.73 L285.99 212.73 L285.99 213.47 L285.90 215.13 L285.82 216.71 L285.74 218.28 L285.82 219.52 " stroke-linecap='round' stroke-linejoin='round' brush-type='0' stroke-wetness='0.0'></path><path  style = ' stroke:#000000;  fill:none;  stroke-width:1.0;' d="M292.45 211.48 L291.46 212.23 L290.88 213.06 L289.88 214.72 L289.55 216.62 L289.80 218.28 L291.04 219.36 L293.20 219.52 L295.60 218.94 L297.34 217.87 L298.34 216.37 L298.75 214.55 L298.59 212.89 L297.84 211.65 L296.51 210.99 L295.19 210.65 L293.94 210.49 L292.87 210.99 L291.87 212.31 " stroke-linecap='round' stroke-linejoin='round' brush-type='0' stroke-wetness='0.0'></path><path  style = ' stroke:#000000;  fill:none;  stroke-width:1.0;' d="M301.65 218.45 L301.53 218.07 L301.49 217.53 L301.32 216.29 L301.24 214.80 L301.24 213.06 L301.41 211.32 L301.82 209.91 L302.48 209.08 L303.48 208.83 L304.80 209.00 L306.05 209.74 L307.04 211.15 L307.62 212.98 L308.04 214.80 L308.37 216.37 L308.62 217.53 L309.20 218.20 " stroke-linecap='round' stroke-linejoin='round' brush-type='0' stroke-wetness='0.0'></path><path  style = ' stroke:#000000;  fill:none;  stroke-width:1.0;' d="M321.30 206.01 L319.68 206.01 L318.65 206.18 L316.49 206.68 L315.08 207.50 L314.01 208.33 L313.51 209.16 L313.67 209.99 L315.00 210.99 L317.07 211.98 L319.31 212.89 L320.89 213.80 L321.88 214.55 L322.54 215.21 L322.88 215.71 L322.71 216.29 L321.55 216.79 L319.64 217.29 L317.40 217.62 L315.41 217.87 L313.67 217.95 L312.43 217.95 " stroke-linecap='round' stroke-linejoin='round' brush-type='0' stroke-wetness='0.0'></path><path  style = ' stroke:#000000;  fill:none;  stroke-width:1.0;' d="M649.00 306.00 L650.00 307.00 " stroke-linecap='round' stroke-linejoin='round' brush-type='0' stroke-wetness='0.0'></path></g><g id='id-text-layer'  type='type-normal' preserveAspectRatio="none" ><text  style = 'fill: #000000; font-family:Helvetica-Light; font-size:18.0; ' preserveAspectRatio="none" x= '40' y='40' width = '688' height = '924' transform="rotate(   0,  384,  502)" ><tspan visibility='hidden'><![CDATA[]]></tspan></text></g><recordings ></recordings><defs   ></defs></svg> 