<?xml version="1.0" standalone="no"?> <!DOCTYPE svg PUBLIC "-//W3C//DTD SVG 1.1//EN" "http://www.w3.org/Graphics/SVG/1.1/DTD/svg11.dtd"> <svg   version="1.1"     xmlns="http://www.w3.org/2000/svg"  xmlns:xlink="http://www.w3.org/1999/xlink" name="" width="768.0" height="1024.0" background="N_PAPERBACKGROUND_WHITE_WITH_GRAY_LINE" line-height="30.0" margin-top="40.0" margin-right="40.0" margin-bottom="40.0" margin-left="40.0"><g id='id-background-layer'  type='type-normal' preserveAspectRatio="none" ><rect  style = ' stroke:#FFFFFF;  fill:#FFFFFF;  stroke-width:0.0;' x="0" y="0" width="768" height="1024" preserveAspectRatio="none" transform="rotate(   0,  384,  512)" ></rect><polyline  style = ' stroke:#D7D6D6;  fill:none;  stroke-width:1.0;' points = ' 0,70 768,70' preserveAspectRatio="none" transform="rotate(   0,  384,   70)" ></polyline><polyline  style = ' stroke:#D7D6D6;  fill:none;  stroke-width:1.0;' points = ' 0,100 768,100' preserveAspectRatio="none" transform="rotate(   0,  384,  100)" ></polyline><polyline  style = ' stroke:#D7D6D6;  fill:none;  stroke-width:1.0;' points = ' 0,130 768,130' preserveAspectRatio="none" transform="rotate(   0,  384,  130)" ></polyline><polyline  style = ' stroke:#D7D6D6;  fill:none;  stroke-width:1.0;' points = ' 0,160 768,160' preserveAspectRatio="none" transform="rotate(   0,  384,  160)" ></polyline><polyline  style = ' stroke:#D7D6D6;  fill:none;  stroke-width:1.0;' points = ' 0,190 768,190' preserveAspectRatio="none" transform="rotate(   0,  384,  190)" ></polyline><polyline  style = ' stroke:#D7D6D6;  fill:none;  stroke-width:1.0;' points = ' 0,220 768,220' preserveAspectRatio="none" transform="rotate(   0,  384,  220)" ></polyline><polyline  style = ' stroke:#D7D6D6;  fill:none;  stroke-width:1.0;' points = ' 0,250 768,250' preserveAspectRatio="none" transform="rotate(   0,  384,  250)" ></polyline><polyline  style = ' stroke:#D7D6D6;  fill:none;  stroke-width:1.0;' points = ' 0,280 768,280' preserveAspectRatio="none" transform="rotate(   0,  384,  280)" ></polyline><polyline  style = ' stroke:#D7D6D6;  fill:none;  stroke-width:1.0;' points = ' 0,310 768,310' preserveAspectRatio="none" transform="rotate(   0,  384,  310)" ></polyline><polyline  style = ' stroke:#D7D6D6;  fill:none;  stroke-width:1.0;' points = ' 0,340 768,340' preserveAspectRatio="none" transform="rotate(   0,  384,  340)" ></polyline><polyline  style = ' stroke:#D7D6D6;  fill:none;  stroke-width:1.0;' points = ' 0,370 768,370' preserveAspectRatio="none" transform="rotate(   0,  384,  370)" ></polyline><polyline  style = ' stroke:#D7D6D6;  fill:none;  stroke-width:1.0;' points = ' 0,400 768,400' preserveAspectRatio="none" transform="rotate(   0,  384,  400)" ></polyline><polyline  style = ' stroke:#D7D6D6;  fill:none;  stroke-width:1.0;' points = ' 0,430 768,430' preserveAspectRatio="none" transform="rotate(   0,  384,  430)" ></polyline><polyline  style = ' stroke:#D7D6D6;  fill:none;  stroke-width:1.0;' points = ' 0,460 768,460' preserveAspectRatio="none" transform="rotate(   0,  384,  460)" ></polyline><polyline  style = ' stroke:#D7D6D6;  fill:none;  stroke-width:1.0;' points = ' 0,490 768,490' preserveAspectRatio="none" transform="rotate(   0,  384,  490)" ></polyline><polyline  style = ' stroke:#D7D6D6;  fill:none;  stroke-width:1.0;' points = ' 0,520 768,520' preserveAspectRatio="none" transform="rotate(   0,  384,  520)" ></polyline><polyline  style = ' stroke:#D7D6D6;  fill:none;  stroke-width:1.0;' points = ' 0,550 768,550' preserveAspectRatio="none" transform="rotate(   0,  384,  550)" ></polyline><polyline  style = ' stroke:#D7D6D6;  fill:none;  stroke-width:1.0;' points = ' 0,580 768,580' preserveAspectRatio="none" transform="rotate(   0,  384,  580)" ></polyline><polyline  style = ' stroke:#D7D6D6;  fill:none;  stroke-width:1.0;' points = ' 0,610 768,610' preserveAspectRatio="none" transform="rotate(   0,  384,  610)" ></polyline><polyline  style = ' stroke:#D7D6D6;  fill:none;  stroke-width:1.0;' points = ' 0,640 768,640' preserveAspectRatio="none" transform="rotate(   0,  384,  640)" ></polyline><polyline  style = ' stroke:#D7D6D6;  fill:none;  stroke-width:1.0;' points = ' 0,670 768,670' preserveAspectRatio="none" transform="rotate(   0,  384,  670)" ></polyline><polyline  style = ' stroke:#D7D6D6;  fill:none;  stroke-width:1.0;' points = ' 0,700 768,700' preserveAspectRatio="none" transform="rotate(   0,  384,  700)" ></polyline><polyline  style = ' stroke:#D7D6D6;  fill:none;  stroke-width:1.0;' points = ' 0,730 768,730' preserveAspectRatio="none" transform="rotate(   0,  384,  730)" ></polyline><polyline  style = ' stroke:#D7D6D6;  fill:none;  stroke-width:1.0;' points = ' 0,760 768,760' preserveAspectRatio="none" transform="rotate(   0,  384,  760)" ></polyline><polyline  style = ' stroke:#D7D6D6;  fill:none;  stroke-width:1.0;' points = ' 0,790 768,790' preserveAspectRatio="none" transform="rotate(   0,  384,  790)" ></polyline><polyline  style = ' stroke:#D7D6D6;  fill:none;  stroke-width:1.0;' points = ' 0,820 768,820' preserveAspectRatio="none" transform="rotate(   0,  384,  820)" ></polyline><polyline  style = ' stroke:#D7D6D6;  fill:none;  stroke-width:1.0;' points = ' 0,850 768,850' preserveAspectRatio="none" transform="rotate(   0,  384,  850)" ></polyline><polyline  style = ' stroke:#D7D6D6;  fill:none;  stroke-width:1.0;' points = ' 0,880 768,880' preserveAspectRatio="none" transform="rotate(   0,  384,  880)" ></polyline><polyline  style = ' stroke:#D7D6D6;  fill:none;  stroke-width:1.0;' points = ' 0,910 768,910' preserveAspectRatio="none" transform="rotate(   0,  384,  910)" ></polyline><polyline  style = ' stroke:#D7D6D6;  fill:none;  stroke-width:1.0;' points = ' 0,940 768,940' preserveAspectRatio="none" transform="rotate(   0,  384,  940)" ></polyline><polyline  style = ' stroke:#D7D6D6;  fill:none;  stroke-width:1.0;' points = ' 0,970 768,970' preserveAspectRatio="none" transform="rotate(   0,  384,  970)" ></polyline><polyline  style = ' stroke:#C74F4F;  fill:none;  stroke-width:0.5;' points = ' 40,0 40,1024' preserveAspectRatio="none" transform="rotate(   0,   40,  512)" ></polyline><polyline  style = ' stroke:#B6B6B6; stroke-opacity:0.8; fill:none;  stroke-width:0.5;' points = ' 728,0 728,1024' preserveAspectRatio="none" transform="rotate(   0,  728,  512)" ></polyline></g><g id='id-main-layer'  type='type-normal' preserveAspectRatio="none" ><path  style = ' stroke:#000000;  fill:none;  stroke-width:1.0;' d="M39.05 89.31 L39.24 88.79 L39.56 88.36 L40.34 87.71 L41.33 87.41 L42.23 87.41 L42.84 87.67 L43.10 88.19 L43.18 88.88 L43.05 89.52 L42.67 90.00 L42.02 90.30 L41.24 90.43 L40.47 90.30 L39.86 89.69 L39.52 88.62 L39.61 87.41 L40.30 86.59 L41.46 86.25 L42.79 86.42 L43.66 87.07 L44.04 88.14 L43.87 89.35 L43.27 90.38 L42.28 91.07 L41.20 91.46 L40.21 91.59 L39.52 91.33 L39.13 90.86 " stroke-linecap='round' stroke-linejoin='round' brush-type='1' stroke-wetness='0.5'></path><path  style = ' stroke:#000000;  fill:none;  stroke-width:1.0;' d="M51.59 75.34 L51.52 76.51 L51.50 78.49 L51.50 82.28 L51.54 86.72 L51.59 90.56 L51.59 93.79 L51.63 96.12 L51.67 97.67 L51.72 98.44 " stroke-linecap='round' stroke-linejoin='round' brush-type='1' stroke-wetness='0.5'></path><path  style = ' stroke:#000000;  fill:none;  stroke-width:1.0;' d="M58.83 75.86 L58.89 77.15 L58.91 78.45 L58.96 81.51 L58.96 85.17 L58.83 89.09 L58.61 92.63 L58.31 95.38 L58.09 97.50 L57.96 98.92 " stroke-linecap='round' stroke-linejoin='round' brush-type='1' stroke-wetness='0.5'></path><path  style = ' stroke:#000000;  fill:none;  stroke-width:1.0;' d="M51.72 89.31 L52.43 89.05 L53.27 88.96 L55.12 88.75 L57.32 88.70 " stroke-linecap='round' stroke-linejoin='round' brush-type='1' stroke-wetness='0.5'></path><path  style = ' stroke:#000000;  fill:none;  stroke-width:1.0;' d="M68.52 88.40 L68.52 89.76 L68.31 91.85 L67.79 95.60 L66.97 99.65 L66.20 102.88 L65.72 105.38 " stroke-linecap='round' stroke-linejoin='round' brush-type='1' stroke-wetness='0.5'></path><path  style = ' stroke:#000000;  fill:none;  stroke-width:1.0;' d="M65.81 94.87 a0.50 0.50 0 1 0 0.01 0 " stroke-linecap='round' stroke-linejoin='round' brush-type='1' stroke-wetness='0.5'></path><path  style = ' stroke:#000000;  fill:none;  stroke-width:1.0;' d="M76.54 106.76 L76.28 106.31 L76.15 105.68 L75.72 104.09 L75.33 101.72 L74.86 98.62 L74.60 95.43 L74.47 92.58 L74.51 90.51 L74.64 89.22 L74.90 88.62 L75.42 88.44 L76.24 88.62 L77.23 89.44 L78.05 90.90 L78.48 92.67 L78.39 94.31 L77.75 95.77 L76.50 97.02 L75.03 97.88 L73.78 98.27 " stroke-linecap='round' stroke-linejoin='round' brush-type='1' stroke-wetness='0.5'></path><path  style = ' stroke:#000000;  fill:none;  stroke-width:1.0;' d="M82.36 92.54 L83.13 92.73 L83.78 92.80 L85.24 92.93 L86.75 92.88 L88.39 92.58 L89.81 92.11 L90.72 91.38 L91.11 90.69 L90.80 90.00 L89.99 89.61 L88.52 89.48 L86.71 90.00 L84.90 91.16 L83.52 92.80 L82.83 94.44 L82.74 95.86 L83.69 97.11 L85.93 98.06 " stroke-linecap='round' stroke-linejoin='round' brush-type='1' stroke-wetness='0.5'></path><path  style = ' stroke:#000000;  fill:none;  stroke-width:1.0;' d="M98.13 99.39 L97.87 98.62 L97.79 97.84 L97.66 96.07 L98.00 94.09 L98.86 92.06 L100.24 90.43 L101.92 89.44 L103.69 89.05 L105.28 89.52 L106.40 90.94 L106.92 93.23 L106.79 95.81 L106.06 98.10 L104.72 99.82 L103.04 100.81 L101.36 101.24 L99.85 101.12 L98.56 100.25 L97.35 98.01 L96.49 94.65 L95.98 90.90 L95.85 87.67 L95.80 85.21 L95.80 83.53 L95.80 82.63 L95.80 82.67 L95.85 83.70 L95.98 85.77 L96.10 88.36 L96.23 90.94 L96.28 93.27 L96.36 95.25 L96.49 97.02 L96.67 98.40 " stroke-linecap='round' stroke-linejoin='round' brush-type='1' stroke-wetness='0.5'></path><path  style = ' stroke:#000000;  fill:none;  stroke-width:1.0;' d="M92.18 99.65 L92.05 98.87 L92.01 98.18 L91.92 96.55 L91.92 94.78 L91.97 93.06 L92.10 91.85 L92.27 91.25 L92.53 90.99 L93.00 90.77 " stroke-linecap='round' stroke-linejoin='round' brush-type='1' stroke-wetness='0.5'></path><path  style = ' stroke:#000000;  fill:none;  stroke-width:1.0;' d="M117.01 90.86 L116.30 90.66 L115.50 90.64 L113.90 90.82 L112.22 91.68 L110.71 93.14 L109.68 95.08 L109.21 97.06 L109.59 98.74 L110.93 99.69 L113.21 99.95 L115.76 99.35 L117.70 98.18 L118.73 96.50 L118.95 94.78 L118.47 93.23 L117.57 92.06 L116.36 91.38 L115.28 91.07 L114.46 90.94 " stroke-linecap='round' stroke-linejoin='round' brush-type='1' stroke-wetness='0.5'></path><path  style = ' stroke:#000000;  fill:none;  stroke-width:1.0;' d="M122.95 83.49 L123.02 83.81 L123.04 84.61 L123.08 86.59 L123.08 89.61 L123.08 93.06 L123.08 96.37 L123.08 99.13 L123.08 100.99 " stroke-linecap='round' stroke-linejoin='round' brush-type='1' stroke-wetness='0.5'></path><path  style = ' stroke:#000000;  fill:none;  stroke-width:1.0;' d="M131.75 93.19 L131.68 93.90 L131.66 94.61 L131.62 96.07 L131.57 97.71 L131.49 99.52 L131.36 101.20 " stroke-linecap='round' stroke-linejoin='round' brush-type='1' stroke-wetness='0.5'></path><path  style = ' stroke:#000000;  fill:none;  stroke-width:1.0;' d="M132.13 88.01 a0.50 0.50 0 1 0 0.01 0 " stroke-linecap='round' stroke-linejoin='round' brush-type='1' stroke-wetness='0.5'></path><path  style = ' stroke:#000000;  fill:none;  stroke-width:1.0;' d="M141.83 89.69 L140.86 90.15 L139.76 90.99 L137.87 92.71 L136.27 94.87 L135.37 96.98 L134.93 98.79 L135.15 100.21 L136.06 101.16 L137.69 101.76 L139.68 102.06 L141.31 102.19 " stroke-linecap='round' stroke-linejoin='round' brush-type='1' stroke-wetness='0.5'></path><path  style = ' stroke:#000000;  fill:none;  stroke-width:1.0;' d="M169.11 79.61 L168.14 79.61 L167.04 79.91 L164.71 80.95 L162.00 82.97 L159.20 86.07 L156.66 89.65 L154.89 93.49 L153.98 96.89 L154.24 99.82 L155.62 101.98 L158.21 103.31 L161.35 103.92 L164.67 103.53 L167.43 102.28 L169.41 100.21 L170.36 98.01 L170.53 96.20 L169.89 95.08 L168.68 94.61 L167.04 94.48 L165.58 94.78 L164.67 95.25 " stroke-linecap='round' stroke-linejoin='round' brush-type='1' stroke-wetness='0.5'></path><path  style = ' stroke:#000000;  fill:none;  stroke-width:1.0;' d="M176.48 94.35 L177.13 94.22 L178.33 94.18 L180.49 94.00 L182.90 93.70 L184.75 93.14 L186.05 92.45 L186.65 91.72 L186.69 90.94 L186.09 90.25 L184.88 89.82 L182.90 89.87 L180.66 90.77 L178.50 92.41 L177.08 94.56 L176.39 96.55 L176.78 98.18 L178.42 99.35 L181.26 99.95 " stroke-linecap='round' stroke-linejoin='round' brush-type='1' stroke-wetness='0.5'></path><path  style = ' stroke:#000000;  fill:none;  stroke-width:1.0;' d="M192.64 92.28 L194.58 95.45 L195.53 95.94 L197.12 96.85 L197.12 95.04 L196.39 93.44 L195.27 92.37 L194.24 91.89 L193.55 91.76 L193.24 91.94 " stroke-linecap='round' stroke-linejoin='round' brush-type='1' stroke-wetness='0.5'></path><path  style = ' stroke:#000000;  fill:none;  stroke-width:1.0;' d="M200.01 99.13 L199.69 98.36 L199.58 97.58 L199.54 95.81 L199.97 93.87 L200.70 91.98 L201.48 90.69 L202.25 90.04 L203.07 89.91 L204.02 90.43 L204.88 91.81 L205.44 94.00 L205.66 96.25 L205.61 97.93 L205.48 98.74 L205.35 98.62 L205.31 97.28 L205.74 95.21 L206.65 93.10 L207.90 91.94 L208.97 91.50 L209.75 92.02 L210.18 93.06 L210.35 94.69 L210.35 96.29 L210.35 97.50 " stroke-linecap='round' stroke-linejoin='round' brush-type='1' stroke-wetness='0.5'></path><path  style = ' stroke:#000000;  fill:none;  stroke-width:1.0;' d="M214.88 95.25 L215.59 95.19 L216.17 95.17 L217.55 95.00 L218.97 94.48 L220.39 93.49 L221.30 92.24 L221.69 91.07 L221.34 90.30 L220.44 89.91 L218.93 90.17 L217.21 91.25 L215.57 93.06 L214.49 95.17 L214.06 97.02 L214.62 98.40 L216.17 99.18 L218.54 99.22 " stroke-linecap='round' stroke-linejoin='round' brush-type='1' stroke-wetness='0.5'></path><path  style = ' stroke:#000000;  fill:none;  stroke-width:1.0;' d="M227.55 87.63 L227.42 88.47 L227.38 89.39 L227.29 91.33 L227.29 93.66 L227.29 96.33 " stroke-linecap='round' stroke-linejoin='round' brush-type='1' stroke-wetness='0.5'></path><path  style = ' stroke:#000000;  fill:none;  stroke-width:1.0;' d="M223.02 91.89 L223.54 91.63 L224.57 91.55 L226.73 91.33 L229.53 91.29 " stroke-linecap='round' stroke-linejoin='round' brush-type='1' stroke-wetness='0.5'></path><path  style = ' stroke:#000000;  fill:none;  stroke-width:1.0;' d="M236.34 99.65 L235.95 98.49 L235.82 97.41 L235.61 95.30 L236.00 93.31 L236.81 91.55 L238.19 90.17 L239.87 89.39 L241.73 89.22 " stroke-linecap='round' stroke-linejoin='round' brush-type='1' stroke-wetness='0.5'></path><path  style = ' stroke:#000000;  fill:none;  stroke-width:1.0;' d="M251.21 91.50 L251.27 92.54 L251.08 94.18 L250.43 97.15 L249.27 100.68 L247.98 104.13 L247.11 107.02 " stroke-linecap='round' stroke-linejoin='round' brush-type='1' stroke-wetness='0.5'></path><path  style = ' stroke:#000000;  fill:none;  stroke-width:1.0;' d="M249.40 99.52 L248.82 98.16 L248.19 96.93 L246.98 94.65 L245.86 92.84 L244.87 91.63 L244.18 90.94 " stroke-linecap='round' stroke-linejoin='round' brush-type='1' stroke-wetness='0.5'></path><path  style = ' stroke:#000000;  fill:none;  stroke-width:1.0;' d="M257.80 85.56 a0.50 0.50 0 1 0 0.01 0 " stroke-linecap='round' stroke-linejoin='round' brush-type='1' stroke-wetness='0.5'></path><path  style = ' stroke:#000000;  fill:none;  stroke-width:1.0;' d="M258.58 96.55 a0.50 0.50 0 1 0 0.01 0 " stroke-linecap='round' stroke-linejoin='round' brush-type='1' stroke-wetness='0.5'></path><path  style = ' stroke:#000000;  fill:none;  stroke-width:1.0;' d="M268.79 75.60 L268.79 75.99 L268.79 76.85 L268.79 79.01 L268.79 82.37 L268.83 86.55 L268.88 90.86 L268.92 94.69 L268.92 97.67 L268.92 99.82 L268.92 101.29 L268.92 102.19 " stroke-linecap='round' stroke-linejoin='round' brush-type='1' stroke-wetness='0.5'></path><path  style = ' stroke:#000000;  fill:none;  stroke-width:1.0;' d="M272.02 74.96 L271.96 75.80 L271.94 77.58 L271.89 81.03 L271.89 85.26 L271.89 89.13 L271.89 92.50 L271.89 95.12 L271.85 96.98 L271.72 98.18 " stroke-linecap='round' stroke-linejoin='round' brush-type='1' stroke-wetness='0.5'></path><path  style = ' stroke:#000000;  fill:none;  stroke-width:1.0;' d="M277.58 77.02 L277.78 77.86 L277.84 79.83 L278.01 83.66 L278.06 88.36 L278.10 92.41 L278.10 95.69 L278.01 98.06 L277.80 99.74 L277.50 100.64 " stroke-linecap='round' stroke-linejoin='round' brush-type='1' stroke-wetness='0.5'></path><path  style = ' stroke:#000000;  fill:none;  stroke-width:1.0;' d="M272.15 88.14 L272.99 88.14 L273.88 88.14 L275.47 88.14 L276.89 88.14 L278.19 88.14 L279.31 88.14 " stroke-linecap='round' stroke-linejoin='round' brush-type='1' stroke-wetness='0.5'></path><path  style = ' stroke:#000000;  fill:none;  stroke-width:1.0;' d="M283.40 80.13 L283.34 79.55 L283.32 78.71 L283.32 77.15 L283.40 75.69 L283.49 74.83 L283.62 74.44 L283.96 74.22 L284.65 73.84 L285.60 73.40 L286.68 73.10 L287.84 73.06 L289.00 73.45 L289.95 74.35 L290.56 75.73 L290.81 77.20 L290.90 78.49 L290.90 79.57 L290.86 80.39 L290.73 80.99 L290.56 81.42 L290.43 81.72 " stroke-linecap='round' stroke-linejoin='round' brush-type='1' stroke-wetness='0.5'></path><path  style = ' stroke:#000000;  fill:none;  stroke-width:1.0;' d="M299.30 88.40 L300.01 88.21 L300.68 88.14 L302.15 88.01 L303.66 88.01 L305.29 87.97 L306.89 87.93 L308.44 87.84 L309.86 87.76 " stroke-linecap='round' stroke-linejoin='round' brush-type='1' stroke-wetness='0.5'></path><path  style = ' stroke:#000000;  fill:none;  stroke-width:1.0;' d="M301.76 92.28 L302.34 92.54 L303.01 92.63 L304.43 92.80 L306.16 92.80 L308.14 92.80 L309.86 92.80 " stroke-linecap='round' stroke-linejoin='round' brush-type='1' stroke-wetness='0.5'></path><path  style = ' stroke:#000000;  fill:none;  stroke-width:1.0;' d="M328.91 73.53 L327.49 74.24 L326.50 74.83 L324.43 76.12 L322.92 77.24 L321.80 78.23 L321.28 78.83 L321.15 79.27 L321.41 79.65 L322.19 80.08 L323.44 80.47 L324.73 80.77 L325.64 81.12 L326.11 81.55 L326.20 82.15 L325.68 82.97 L324.69 84.01 L323.48 85.00 L322.66 85.77 L322.27 86.20 L322.32 86.51 L322.83 86.68 L323.74 86.89 L324.77 87.15 L325.51 87.67 L325.89 88.66 L325.85 90.21 L325.20 92.24 L324.08 94.56 L322.92 96.81 L322.23 98.66 L321.97 99.91 L322.19 100.64 L323.09 101.16 L324.86 101.55 L327.36 101.85 L329.56 101.85 " stroke-linecap='round' stroke-linejoin='round' brush-type='1' stroke-wetness='0.5'></path><path  style = ' stroke:#000000;  fill:none;  stroke-width:1.0;' d="M335.89 85.69 L336.41 85.43 L337.23 85.34 L338.95 85.04 L340.93 84.91 L342.62 84.78 L343.65 84.78 L344.08 85.00 L343.95 85.86 L343.00 87.67 L341.11 90.21 L338.69 92.84 L336.54 94.95 L335.20 96.33 L334.60 97.11 L334.47 97.54 L334.94 97.88 L336.15 98.14 L338.13 98.31 L340.33 98.36 L342.36 98.14 L344.04 97.62 L345.12 96.98 " stroke-linecap='round' stroke-linejoin='round' brush-type='1' stroke-wetness='0.5'></path><path  style = ' stroke:#000000;  fill:none;  stroke-width:1.0;' d="M335.63 91.89 L336.02 91.89 L336.80 91.89 L338.56 91.81 L341.06 91.68 L343.82 91.50 " stroke-linecap='round' stroke-linejoin='round' brush-type='1' stroke-wetness='0.5'></path><path  style = ' stroke:#000000;  fill:none;  stroke-width:1.0;' d="M359.94 85.04 L359.23 85.30 L358.13 85.82 L356.10 86.98 L353.91 88.62 L352.14 90.34 L350.89 91.89 L350.29 93.06 L350.24 93.92 L350.98 94.56 L352.44 95.04 L354.64 95.30 L356.84 95.30 " stroke-linecap='round' stroke-linejoin='round' brush-type='1' stroke-wetness='0.5'></path><path  style = ' stroke:#000000;  fill:none;  stroke-width:1.0;' d="M351.92 91.25 L352.38 91.31 L353.22 91.33 L355.42 91.29 L357.96 91.12 " stroke-linecap='round' stroke-linejoin='round' brush-type='1' stroke-wetness='0.5'></path><path  style = ' stroke:#000000;  fill:none;  stroke-width:1.0;' d="M382.70 75.86 L381.60 75.54 L380.24 75.52 L377.61 75.90 L374.64 77.37 L371.66 79.91 L368.90 83.19 L366.66 86.89 L365.24 90.43 L364.51 93.62 L364.77 96.16 L365.97 98.18 L368.30 99.61 L371.27 100.47 L374.68 100.86 L377.78 100.77 L380.41 100.25 L382.05 99.26 L382.87 98.18 " stroke-linecap='round' stroke-linejoin='round' brush-type='1' stroke-wetness='0.5'></path><path  style = ' stroke:#000000;  fill:none;  stroke-width:1.0;' d="M371.32 81.94 L371.45 82.71 L371.49 84.57 L371.62 88.01 L371.66 92.19 L371.71 95.64 L371.71 98.27 L371.71 99.91 L371.71 100.86 L371.71 101.33 " stroke-linecap='round' stroke-linejoin='round' brush-type='1' stroke-wetness='0.5'></path><path  style = ' stroke:#000000;  fill:none;  stroke-width:1.0;' d="M398.47 72.63 L398.53 73.86 L398.55 75.47 L398.60 79.18 L398.51 83.70 L398.30 88.44 L398.08 92.71 L397.95 96.16 L397.95 98.74 L397.95 100.51 L397.95 101.68 L397.95 102.36 L397.95 102.75 L397.82 102.67 " stroke-linecap='round' stroke-linejoin='round' brush-type='1' stroke-wetness='0.5'></path><path  style = ' stroke:#000000;  fill:none;  stroke-width:1.0;' d="M408.81 81.55 L409.65 81.81 L410.97 82.07 L413.16 82.63 L415.32 83.23 L416.78 83.75 " stroke-linecap='round' stroke-linejoin='round' brush-type='1' stroke-wetness='0.5'></path><path  style = ' stroke:#000000;  fill:none;  stroke-width:1.0;' d="M414.37 81.42 L414.37 82.13 L414.37 83.19 L414.37 85.51 L414.37 88.53 L414.37 91.89 L414.24 95.21 L413.90 97.88 " stroke-linecap='round' stroke-linejoin='round' brush-type='1' stroke-wetness='0.5'></path><path  style = ' stroke:#000000;  fill:none;  stroke-width:1.0;' d="M408.29 94.61 L409.01 94.67 L409.89 94.69 L411.87 94.91 L414.28 95.43 " stroke-linecap='round' stroke-linejoin='round' brush-type='1' stroke-wetness='0.5'></path><path  style = ' stroke:#000000;  fill:none;  stroke-width:1.0;' d="M418.90 98.49 L418.64 97.90 L418.55 97.19 L418.51 95.69 L418.94 94.09 L419.76 92.84 L420.71 92.19 L421.61 92.19 L422.21 93.01 L422.56 94.48 L422.56 96.20 L422.39 97.41 L422.21 97.88 L422.65 96.68 L423.46 95.12 L424.46 93.66 L425.06 93.44 L425.45 93.87 L425.66 95.04 L425.75 96.85 L425.66 98.79 L425.58 100.47 " stroke-linecap='round' stroke-linejoin='round' brush-type='1' stroke-wetness='0.5'></path><path  style = ' stroke:#000000;  fill:none;  stroke-width:1.0;' d="M437.90 82.97 L436.74 84.20 L434.97 86.59 L432.17 90.64 L429.76 95.12 L428.68 98.66 L428.25 101.80 L428.64 104.22 L429.80 105.77 " stroke-linecap='round' stroke-linejoin='round' brush-type='1' stroke-wetness='0.5'></path><path  style = ' stroke:#000000;  fill:none;  stroke-width:1.0;' d="M438.16 90.08 L438.94 89.57 L439.71 89.39 L441.26 88.96 L442.64 88.88 L443.63 88.79 L444.11 89.13 L443.76 90.30 L442.38 92.41 L440.19 94.87 L437.94 97.02 L436.44 98.53 L435.75 99.48 L436.09 99.99 L437.34 100.30 L439.28 100.47 L441.26 100.55 L442.86 100.55 L443.89 100.51 " stroke-linecap='round' stroke-linejoin='round' brush-type='1' stroke-wetness='0.5'></path><path  style = ' stroke:#000000;  fill:none;  stroke-width:1.0;' d="M433.25 96.55 L434.35 97.06 L436.01 97.41 L438.81 97.97 L441.82 98.18 L443.81 98.23 " stroke-linecap='round' stroke-linejoin='round' brush-type='1' stroke-wetness='0.5'></path><path  style = ' stroke:#000000;  fill:none;  stroke-width:1.0;' d="M447.86 84.52 L448.44 85.69 L449.02 87.37 L449.93 90.38 L450.49 93.62 L450.61 96.33 L450.23 98.79 L449.24 100.86 L447.43 102.71 L445.27 104.22 L442.99 105.21 " stroke-linecap='round' stroke-linejoin='round' brush-type='1' stroke-wetness='0.5'></path><path  style = ' stroke:#000000;  fill:none;  stroke-width:1.0;' d="M455.87 92.67 L456.84 92.99 L458.03 93.14 L459.97 93.57 L461.56 93.92 L462.38 94.31 L462.81 94.56 L462.94 94.82 L462.94 95.17 L462.34 95.77 L461.00 96.59 L459.06 97.50 L457.12 98.31 L455.53 99.00 L454.54 99.52 " stroke-linecap='round' stroke-linejoin='round' brush-type='1' stroke-wetness='0.5'></path><path  style = ' stroke:#000000;  fill:none;  stroke-width:1.0;' d="M477.72 86.33 L476.49 86.59 L475.61 86.98 L473.84 88.01 L472.51 89.65 L471.47 91.81 L470.91 94.09 L471.09 96.07 L472.16 97.41 L474.19 98.06 L476.77 97.88 L479.23 96.85 L480.91 95.04 L481.56 92.75 L480.91 90.30 L479.40 88.06 L477.51 86.38 L475.91 85.51 " stroke-linecap='round' stroke-linejoin='round' brush-type='1' stroke-wetness='0.5'></path><path  style = ' stroke:#000000;  fill:none;  stroke-width:1.0;' d="M487.29 76.12 L487.87 76.18 L488.76 76.21 L490.61 76.42 L492.72 76.90 L494.53 77.67 L495.65 78.58 L496.12 79.52 L496.08 80.56 L495.56 81.76 L494.57 82.97 L493.32 84.09 L492.29 84.91 L491.69 85.47 L491.47 85.77 L491.60 86.03 L492.16 86.33 L493.19 86.89 L494.10 87.45 L494.62 88.06 L494.49 88.62 L493.93 89.35 L493.02 90.13 L492.16 90.90 L491.64 91.63 L491.51 92.58 L491.86 93.75 L492.50 95.08 L493.19 96.33 L493.54 97.41 L493.45 98.31 L492.55 99.13 L490.61 99.99 L487.63 100.90 L484.92 101.68 " stroke-linecap='round' stroke-linejoin='round' brush-type='1' stroke-wetness='0.5'></path><path  style = ' stroke:#000000;  fill:none;  stroke-width:1.0;' d="M81.97 120.85 L81.32 120.59 L80.46 120.51 L78.91 120.42 L77.27 120.77 L75.98 121.37 L75.03 122.10 L74.60 122.92 L74.56 123.83 L75.07 124.86 L76.11 125.77 L77.66 126.33 L79.21 126.37 L80.59 125.72 L81.50 124.39 L82.01 122.53 L82.18 120.68 L82.23 119.39 L82.23 119.39 L82.23 120.94 L82.23 123.96 L82.10 127.36 L81.62 130.59 L80.81 133.09 L79.77 134.95 L78.65 136.02 L77.27 136.58 L75.55 136.80 L73.48 136.80 L71.41 136.32 L69.82 135.55 L69.00 134.69 L68.78 134.08 " stroke-linecap='round' stroke-linejoin='round' brush-type='1' stroke-wetness='0.5'></path><path  style = ' stroke:#000000;  fill:none;  stroke-width:1.0;' d="M90.24 119.04 L90.83 118.91 L91.45 118.87 L92.83 118.78 L94.34 118.70 L95.93 118.61 L97.44 118.48 L98.60 118.40 L99.55 118.14 " stroke-linecap='round' stroke-linejoin='round' brush-type='1' stroke-wetness='0.5'></path><path  style = ' stroke:#000000;  fill:none;  stroke-width:1.0;' d="M92.70 121.76 L93.09 121.95 L94.12 122.02 L96.15 122.10 L98.60 121.97 " stroke-linecap='round' stroke-linejoin='round' brush-type='1' stroke-wetness='0.5'></path><path  style = ' stroke:#000000;  fill:none;  stroke-width:1.0;' d="M121.27 107.02 L120.76 106.50 L120.20 106.29 L119.03 105.77 L117.74 105.55 L116.32 105.34 L114.89 105.25 L113.60 105.21 L112.61 105.47 L111.92 106.29 L111.49 107.84 L111.23 110.21 L111.06 113.01 L110.89 116.33 L110.59 119.56 L110.15 122.53 L109.59 124.99 L108.99 126.97 L108.47 128.52 L108.13 129.52 L108.00 130.03 L107.96 130.33 L108.17 130.55 L108.82 130.81 L109.98 131.15 L111.40 131.50 L113.00 131.89 L114.64 132.23 L116.32 132.53 L118.00 132.75 " stroke-linecap='round' stroke-linejoin='round' brush-type='1' stroke-wetness='0.5'></path><path  style = ' stroke:#000000;  fill:none;  stroke-width:1.0;' d="M124.89 109.99 L124.38 110.06 L123.86 110.12 L122.87 110.47 L122.01 111.11 L121.45 112.10 L121.19 113.23 L121.45 114.17 L122.22 114.78 L123.60 114.95 L125.24 114.60 L126.70 113.57 L127.61 112.06 L128.00 110.68 L128.08 110.04 L128.08 110.38 L128.04 111.29 L128.00 112.45 L128.30 113.31 L128.77 113.87 " stroke-linecap='round' stroke-linejoin='round' brush-type='1' stroke-wetness='0.5'></path><path  style = ' stroke:#000000;  fill:none;  stroke-width:1.0;' d="M141.31 115.16 L141.70 114.91 L142.05 114.60 L142.69 114.09 L143.25 113.66 L143.77 113.44 L144.24 113.35 L144.63 113.35 L144.89 113.74 L145.02 114.73 L144.93 116.20 L144.59 117.62 L144.07 118.57 L143.51 119.09 L142.99 119.26 L142.48 118.83 L142.05 117.45 L141.79 114.91 L141.70 111.76 L141.70 108.66 L141.74 106.29 L141.87 104.91 L142.09 105.04 L142.26 106.72 L142.35 109.86 L142.26 113.48 L142.09 116.80 L141.92 118.96 " stroke-linecap='round' stroke-linejoin='round' brush-type='1' stroke-wetness='0.5'></path><path  style = ' stroke:#000000;  fill:none;  stroke-width:1.0;' d="M126.96 124.09 L126.12 124.02 L125.02 124.26 L123.08 124.86 L121.36 125.98 L120.32 127.27 L119.85 128.52 L119.89 129.64 L120.71 130.68 L122.44 131.58 L124.51 132.23 " stroke-linecap='round' stroke-linejoin='round' brush-type='1' stroke-wetness='0.5'></path><path  style = ' stroke:#000000;  fill:none;  stroke-width:1.0;' d="M143.38 129.77 L142.41 129.58 L141.61 129.52 L140.02 129.43 L138.64 129.73 L137.52 130.29 L136.87 131.15 L136.66 131.97 L136.87 132.75 L137.52 133.18 L138.64 133.31 L139.98 132.70 L141.23 131.41 L142.22 129.43 L142.78 127.02 L142.99 124.60 L142.99 122.66 L142.99 121.63 L142.99 122.32 L142.99 124.34 L142.95 127.32 L142.86 129.82 L142.78 131.54 " stroke-linecap='round' stroke-linejoin='round' brush-type='1' stroke-wetness='0.5'></path><path  style = ' stroke:#000000;  fill:none;  stroke-width:1.0;' d="M151.27 105.60 L151.59 105.53 L152.26 105.51 L153.68 105.55 L155.41 105.86 L157.00 106.37 L158.16 107.02 L158.90 107.80 L159.24 108.79 L159.37 110.12 L159.41 111.80 L159.28 113.87 L159.07 116.24 L158.81 118.83 L158.68 121.54 L158.64 124.34 L158.64 126.97 L158.68 129.17 L158.72 130.68 L158.77 131.58 L158.77 132.02 L158.59 132.23 L157.82 132.32 L156.31 132.36 L154.41 132.23 L152.69 131.97 L151.44 131.63 L150.75 131.28 " stroke-linecap='round' stroke-linejoin='round' brush-type='1' stroke-wetness='0.5'></path><path  style = ' stroke:#000000;  fill:none;  stroke-width:1.0;' d="M173.12 115.16 L172.47 114.91 L171.82 114.82 L170.45 114.91 L168.98 115.60 L167.52 116.80 L166.35 118.22 L165.66 119.69 L165.40 121.03 L165.49 122.23 L166.14 123.18 L167.43 123.91 L169.24 124.34 L170.88 124.56 " stroke-linecap='round' stroke-linejoin='round' brush-type='1' stroke-wetness='0.5'></path><path  style = ' stroke:#000000;  fill:none;  stroke-width:1.0;' d="M165.75 119.69 L166.14 119.95 L167.26 120.03 L169.50 120.29 " stroke-linecap='round' stroke-linejoin='round' brush-type='1' stroke-wetness='0.5'></path><path  style = ' stroke:#000000;  fill:none;  stroke-width:1.0;' d="M190.96 109.86 L189.86 110.70 L188.76 111.59 L186.52 113.53 L184.28 115.81 L182.21 118.35 L180.70 120.85 L179.88 123.14 L179.71 125.16 L180.36 126.97 L181.87 128.35 L184.32 129.26 L187.04 129.64 L189.71 129.64 L191.91 129.08 L193.46 128.09 L194.28 126.84 L194.36 125.68 L193.63 124.78 L192.21 124.13 L190.40 123.83 L188.85 123.70 L187.86 123.70 L187.43 123.74 L187.68 124.00 L188.37 124.39 " stroke-linecap='round' stroke-linejoin='round' brush-type='1' stroke-wetness='0.5'></path><path  style = ' stroke:#000000;  fill:none;  stroke-width:1.0;' d="M200.14 108.96 L199.95 109.48 L199.88 110.60 L199.71 112.84 L199.54 115.90 L199.23 119.00 L198.80 122.02 L198.42 124.56 L198.07 126.54 L197.90 128.01 L197.77 128.96 L197.73 129.60 L197.90 129.39 " stroke-linecap='round' stroke-linejoin='round' brush-type='1' stroke-wetness='0.5'></path><path  style = ' stroke:#000000;  fill:none;  stroke-width:1.0;' d="M214.23 109.99 L213.65 109.93 L212.72 110.34 L210.87 111.67 L208.72 114.30 L206.82 117.75 L205.57 121.15 L205.01 124.04 L205.14 126.24 L206.13 127.92 L208.07 129.04 L211.00 129.64 L214.23 129.56 " stroke-linecap='round' stroke-linejoin='round' brush-type='1' stroke-wetness='0.5'></path><path  style = ' stroke:#000000;  fill:none;  stroke-width:1.0;' d="M216.95 116.46 L217.59 116.26 L218.80 116.20 L220.83 116.33 L222.64 117.15 L223.50 118.70 L223.37 120.81 L222.55 122.96 L221.34 124.82 L220.48 126.07 L220.09 126.84 L220.05 127.32 L220.48 127.66 L221.64 127.92 L223.28 128.05 " stroke-linecap='round' stroke-linejoin='round' brush-type='1' stroke-wetness='0.5'></path><path  style = ' stroke:#000000;  fill:none;  stroke-width:1.0;' d="M233.24 127.71 L232.59 128.87 L232.12 129.69 L231.00 131.45 L229.88 132.92 L228.88 134.30 " stroke-linecap='round' stroke-linejoin='round' brush-type='1' stroke-wetness='0.5'></path><path  style = ' stroke:#000000;  fill:none;  stroke-width:1.0;' d="M239.57 126.28 L239.57 124.34 L239.53 122.66 L239.49 119.30 L239.44 116.50 L239.44 114.30 L239.66 112.97 L240.30 112.32 L241.47 112.19 L242.93 112.88 L244.18 114.56 L245.00 117.15 L245.30 119.95 L245.35 122.49 L245.09 124.56 L244.66 125.98 L244.23 126.80 L243.97 127.10 L243.88 126.76 L243.84 125.42 L243.84 122.88 L244.01 119.47 L244.27 116.24 L244.61 113.87 L244.83 112.71 L245.00 112.28 L245.35 112.32 L245.91 113.01 L246.64 114.22 L247.20 115.68 L247.55 116.89 L247.67 117.75 L247.46 118.40 L246.94 118.87 L246.25 119.34 L245.65 119.73 L245.30 120.12 L245.13 120.51 L245.17 121.07 L245.61 121.76 L246.60 122.49 L247.98 123.14 L249.23 123.65 L250.09 124.04 L250.60 124.34 L250.95 124.52 " stroke-linecap='round' stroke-linejoin='round' brush-type='1' stroke-wetness='0.5'></path><path  style = ' stroke:#000000;  fill:none;  stroke-width:1.0;' d="M252.50 109.73 L253.02 110.32 L253.79 111.24 L255.30 113.27 L256.90 115.98 L258.02 118.91 L258.62 121.80 L258.79 124.30 L258.49 126.37 L257.67 128.01 L256.29 129.17 L254.74 130.03 L253.15 130.72 L251.90 131.33 " stroke-linecap='round' stroke-linejoin='round' brush-type='1' stroke-wetness='0.5'></path><path  style = ' stroke:#000000;  fill:none;  stroke-width:1.0;' d="M278.75 133.26 L278.68 132.36 L278.66 128.87 L278.57 124.95 " stroke-linecap='round' stroke-linejoin='round' brush-type='1' stroke-wetness='0.5'></path><path  style = ' stroke:#000000;  fill:none;  stroke-width:1.0;' d="M280.94 114.13 L281.59 114.71 L281.98 115.51 L282.63 117.15 L282.84 118.96 L282.50 120.59 L281.68 121.84 L280.47 122.66 L279.26 123.05 L278.19 123.18 L277.41 122.92 " stroke-linecap='round' stroke-linejoin='round' brush-type='1' stroke-wetness='0.5'></path><path  style = ' stroke:#000000;  fill:none;  stroke-width:1.0;' d="M285.47 125.77 L285.47 124.93 L285.47 124.00 L285.47 122.28 L285.56 120.64 L285.94 119.34 L286.72 118.44 L287.84 117.97 L289.22 117.84 L290.73 118.27 " stroke-linecap='round' stroke-linejoin='round' brush-type='1' stroke-wetness='0.5'></path><path  style = ' stroke:#000000;  fill:none;  stroke-width:1.0;' d="M292.45 123.83 L292.97 123.76 L293.92 123.65 L295.55 123.31 L297.24 122.79 L298.36 122.15 L299.00 121.50 L299.26 120.77 L299.09 120.03 L298.31 119.47 L296.80 119.22 L294.91 119.30 L293.14 119.91 L291.89 121.11 L291.20 122.88 L290.99 124.86 L291.59 126.76 L293.18 128.09 " stroke-linecap='round' stroke-linejoin='round' brush-type='1' stroke-wetness='0.5'></path><path  style = ' stroke:#000000;  fill:none;  stroke-width:1.0;' d="M306.54 119.43 L303.96 119.56 L302.79 119.69 L300.73 120.12 L300.42 120.85 L301.07 121.89 L302.41 123.05 L304.04 124.21 L305.08 125.29 L305.47 126.37 L305.04 127.36 L303.87 128.31 L302.19 129.00 L300.55 129.43 L299.39 129.60 L298.96 129.43 " stroke-linecap='round' stroke-linejoin='round' brush-type='1' stroke-wetness='0.5'></path><path  style = ' stroke:#000000;  fill:none;  stroke-width:1.0;' d="M279.26 114.39 L279.20 114.97 L279.13 116.24 L278.83 118.61 L278.40 121.41 L277.97 123.87 L277.76 126.02 L277.71 127.62 " stroke-linecap='round' stroke-linejoin='round' brush-type='1' stroke-wetness='0.5'></path><path  style = ' stroke:#000000;  fill:none;  stroke-width:1.0;' d="M309.26 123.05 L309.84 122.79 L310.38 122.71 L311.46 122.32 L312.49 121.84 L313.31 121.15 L313.83 120.51 L314.00 120.03 L313.78 119.73 L312.97 119.60 L311.37 119.99 L309.39 121.07 L307.58 122.71 L306.50 124.39 L306.07 125.81 L306.37 126.97 L307.49 127.79 L309.47 128.31 L312.10 128.52 " stroke-linecap='round' stroke-linejoin='round' brush-type='1' stroke-wetness='0.5'></path><path  style = ' stroke:#000000;  fill:none;  stroke-width:1.0;' d="M316.24 129.64 L316.37 129.39 L316.41 128.52 L316.50 126.84 L316.50 124.73 L316.54 123.01 L316.80 121.76 L317.32 120.90 L318.31 120.34 L319.69 120.03 L321.02 119.99 " stroke-linecap='round' stroke-linejoin='round' brush-type='1' stroke-wetness='0.5'></path><path  style = ' stroke:#000000;  fill:none;  stroke-width:1.0;' d="M326.07 120.47 L325.81 121.18 L325.72 122.45 L325.46 124.86 L325.33 127.62 L325.20 129.90 L325.16 131.33 L325.38 132.10 " stroke-linecap='round' stroke-linejoin='round' brush-type='1' stroke-wetness='0.5'></path><path  style = ' stroke:#000000;  fill:none;  stroke-width:1.0;' d="M329.43 121.37 L329.43 121.95 L329.43 122.53 L329.43 123.87 L329.43 125.34 L329.43 126.71 L329.43 127.62 L329.56 128.01 L329.99 127.71 L330.94 126.33 L332.06 124.04 L333.09 121.59 L333.69 119.95 L334.04 119.22 L334.25 119.34 " stroke-linecap='round' stroke-linejoin='round' brush-type='1' stroke-wetness='0.5'></path><path  style = ' stroke:#000000;  fill:none;  stroke-width:1.0;' d="M334.47 123.70 L335.05 123.83 L335.68 123.87 L337.01 123.78 L338.56 123.22 L340.03 122.32 L341.02 121.33 L341.41 120.55 L341.19 120.08 L340.50 119.86 L339.38 120.12 L338.18 121.03 L337.19 122.45 L336.58 124.00 L336.32 125.25 L336.37 126.24 L336.84 126.93 L337.62 127.32 " stroke-linecap='round' stroke-linejoin='round' brush-type='1' stroke-wetness='0.5'></path><path  style = ' stroke:#000000;  fill:none;  stroke-width:1.0;' d="M347.53 119.82 L346.88 119.88 L345.93 120.16 L344.34 120.85 L342.96 121.72 L342.27 122.53 L342.06 123.18 L342.57 123.96 L343.61 124.78 L344.90 125.68 L345.80 126.54 L346.24 127.36 L346.32 128.14 L345.80 128.87 L344.64 129.56 L342.96 130.08 L341.58 130.38 " stroke-linecap='round' stroke-linejoin='round' brush-type='1' stroke-wetness='0.5'></path><path  style = ' stroke:#000000;  fill:none;  stroke-width:1.0;' d="M366.66 128.22 L366.21 127.71 L366.06 126.63 L365.76 124.52 L365.76 122.10 L365.80 120.29 L366.02 119.26 L366.49 118.83 L367.35 118.70 L368.39 118.96 " stroke-linecap='round' stroke-linejoin='round' brush-type='1' stroke-wetness='0.5'></path><path  style = ' stroke:#000000;  fill:none;  stroke-width:1.0;' d="M370.02 125.12 L370.74 125.06 L371.40 124.99 L372.96 124.69 L374.42 124.17 L375.71 123.40 L376.45 122.58 L376.79 121.80 L376.66 121.15 L375.93 120.68 L374.68 120.42 L373.08 120.59 L371.66 121.33 L370.63 122.58 L370.15 124.04 L370.33 125.46 L371.62 126.63 " stroke-linecap='round' stroke-linejoin='round' brush-type='1' stroke-wetness='0.5'></path><path  style = ' stroke:#000000;  fill:none;  stroke-width:1.0;' d="M381.14 122.02 L380.11 121.89 L379.29 121.89 L377.70 122.06 L376.53 122.62 L375.76 123.57 L375.41 124.65 L375.71 125.64 L376.70 126.24 L378.21 126.37 L379.72 125.77 L380.84 124.52 L381.45 122.66 L381.66 120.77 L381.66 119.26 L381.62 118.48 L381.57 118.83 L381.53 120.21 L381.53 122.49 L381.53 124.78 L381.66 126.33 " stroke-linecap='round' stroke-linejoin='round' brush-type='1' stroke-wetness='0.5'></path><path  style = ' stroke:#000000;  fill:none;  stroke-width:1.0;' d="M383.99 112.58 L384.70 112.45 L384.94 113.91 L385.41 116.76 L385.41 121.03 L385.84 124.95 " stroke-linecap='round' stroke-linejoin='round' brush-type='1' stroke-wetness='0.5'></path><path  style = ' stroke:#000000;  fill:none;  stroke-width:1.0;' d="M410.23 120.72 L408.75 120.40 L407.56 120.29 L405.15 120.42 L403.08 121.28 L401.36 122.84 L400.28 124.73 L399.89 126.59 L400.45 127.92 L401.92 128.57 L404.16 128.14 L406.27 126.76 L407.69 124.56 L408.29 122.53 L408.42 121.20 L408.25 121.28 L408.08 122.49 L407.95 124.60 L408.17 126.33 " stroke-linecap='round' stroke-linejoin='round' brush-type='1' stroke-wetness='0.5'></path><path  style = ' stroke:#000000;  fill:none;  stroke-width:1.0;' d="M414.89 119.95 L415.21 120.27 L415.92 121.11 L417.17 122.71 L418.51 124.86 L419.54 126.97 L420.23 128.70 " stroke-linecap='round' stroke-linejoin='round' brush-type='1' stroke-wetness='0.5'></path><path  style = ' stroke:#000000;  fill:none;  stroke-width:1.0;' d="M417.09 121.24 L415.99 122.28 L415.10 123.65 L413.47 126.24 L412.30 129.04 L411.57 131.28 " stroke-linecap='round' stroke-linejoin='round' brush-type='1' stroke-wetness='0.5'></path><path  style = ' stroke:#000000;  fill:none;  stroke-width:1.0;' d="M424.84 121.24 L424.91 121.95 L424.93 123.05 L424.93 125.03 L424.80 127.27 L424.67 129.30 " stroke-linecap='round' stroke-linejoin='round' brush-type='1' stroke-wetness='0.5'></path><path  style = ' stroke:#000000;  fill:none;  stroke-width:1.0;' d="M433.12 119.95 L432.21 120.21 L431.65 120.34 L430.75 120.85 L430.45 121.67 L430.62 123.01 L431.05 124.47 L431.57 125.77 L431.87 126.71 L431.91 127.40 L431.26 128.01 L430.19 128.44 " stroke-linecap='round' stroke-linejoin='round' brush-type='1' stroke-wetness='0.5'></path><path  style = ' stroke:#000000;  fill:none;  stroke-width:1.0;' d="M427.43 115.94 a0.50 0.50 0 1 0 0.01 0 " stroke-linecap='round' stroke-linejoin='round' brush-type='1' stroke-wetness='0.5'></path><path  style = ' stroke:#000000;  fill:none;  stroke-width:1.0;' d="M449.67 119.82 L447.79 121.76 L447.04 122.92 L445.66 125.08 L445.87 126.11 L446.87 126.63 L448.68 126.33 L450.79 125.12 L452.51 123.22 L453.46 121.37 L453.76 120.12 L453.55 119.65 L453.11 120.16 L452.51 121.50 L452.17 123.48 L452.08 125.51 L452.38 127.06 " stroke-linecap='round' stroke-linejoin='round' brush-type='1' stroke-wetness='0.5'></path><path  style = ' stroke:#000000;  fill:none;  stroke-width:1.0;' d="M453.80 128.87 L454.32 126.35 L454.49 125.03 L455.10 122.49 L455.74 121.54 L456.78 121.07 L457.90 121.11 L458.93 121.84 L459.75 123.27 L460.40 125.34 L460.83 127.10 " stroke-linecap='round' stroke-linejoin='round' brush-type='1' stroke-wetness='0.5'></path><path  style = ' stroke:#000000;  fill:none;  stroke-width:1.0;' d="M465.18 121.89 L464.41 122.34 L463.93 123.01 L463.03 124.34 L462.64 125.94 L462.47 127.36 L462.90 128.31 L463.93 128.57 L465.57 127.79 L467.21 125.81 L468.46 122.79 L469.15 118.87 L469.40 114.82 L469.40 111.46 L469.36 109.65 L469.15 109.91 L468.80 111.76 L468.37 114.95 L468.11 118.48 L468.07 121.89 L468.54 124.69 L469.79 126.67 L471.90 127.66 " stroke-linecap='round' stroke-linejoin='round' brush-type='1' stroke-wetness='0.5'></path><path  style = ' stroke:#000000;  fill:none;  stroke-width:1.0;' d="M495.05 119.69 L493.63 119.95 L492.38 120.55 L490.26 121.89 L488.84 123.70 L488.19 125.64 L488.24 127.40 L488.93 128.61 L490.35 129.30 " stroke-linecap='round' stroke-linejoin='round' brush-type='1' stroke-wetness='0.5'></path><path  style = ' stroke:#000000;  fill:none;  stroke-width:1.0;' d="M496.99 122.53 L495.82 122.86 L494.96 123.40 L493.50 124.56 L492.81 126.02 L492.68 127.53 L493.50 128.70 L495.48 129.30 L498.19 128.96 L500.56 127.92 L501.81 126.46 L502.16 124.95 L501.60 123.57 L500.56 122.53 L499.31 122.02 L498.32 122.02 L497.76 122.75 L497.50 123.78 " stroke-linecap='round' stroke-linejoin='round' brush-type='1' stroke-wetness='0.5'></path><path  style = ' stroke:#000000;  fill:none;  stroke-width:1.0;' d="M505.13 127.96 L504.68 127.19 L504.53 126.33 L504.23 124.60 L504.36 122.96 L504.87 121.80 L505.74 121.24 L506.77 121.46 L507.50 122.36 L507.93 123.78 L508.06 125.12 L508.15 125.94 L508.45 125.46 L509.18 124.17 L510.13 122.58 L510.99 121.76 L511.55 121.80 L511.90 122.66 L512.20 124.26 L512.63 126.37 L513.32 128.78 " stroke-linecap='round' stroke-linejoin='round' brush-type='1' stroke-wetness='0.5'></path><path  style = ' stroke:#000000;  fill:none;  stroke-width:1.0;' d="M519.09 133.78 L518.90 133.14 L518.79 131.93 L518.58 129.43 L518.45 126.07 L518.36 122.88 L518.49 120.38 L518.79 119.04 L519.31 118.53 L519.87 118.70 L520.43 119.65 L520.78 121.28 L520.56 123.27 L519.74 125.03 L518.45 126.37 L517.16 127.10 " stroke-linecap='round' stroke-linejoin='round' brush-type='1' stroke-wetness='0.5'></path><path  style = ' stroke:#000000;  fill:none;  stroke-width:1.0;' d="M524.91 117.36 L525.04 118.14 L525.04 119.39 L524.96 121.63 L524.65 124.13 L524.22 126.28 " stroke-linecap='round' stroke-linejoin='round' brush-type='1' stroke-wetness='0.5'></path><path  style = ' stroke:#000000;  fill:none;  stroke-width:1.0;' d="M529.70 120.34 L529.57 121.31 L529.52 122.10 L529.44 124.00 L529.44 126.02 " stroke-linecap='round' stroke-linejoin='round' brush-type='1' stroke-wetness='0.5'></path><path  style = ' stroke:#000000;  fill:none;  stroke-width:1.0;' d="M532.15 126.02 L532.02 125.18 L531.98 124.39 L532.02 122.71 L532.54 121.03 L533.45 119.60 L534.57 118.74 L535.64 118.61 L536.51 119.43 L537.07 121.11 L537.28 123.22 L537.24 124.99 L537.11 125.98 L536.98 125.98 L537.07 125.16 L538.19 123.35 L539.57 122.02 L540.82 121.59 L541.07 122.49 L541.07 124.30 L541.03 126.07 " stroke-linecap='round' stroke-linejoin='round' brush-type='1' stroke-wetness='0.5'></path><path  style = ' stroke:#000000;  fill:none;  stroke-width:1.0;' d="M544.69 123.70 L545.28 123.63 L546.03 123.61 L547.50 123.35 L548.87 122.88 L549.82 122.19 L550.25 121.46 L550.25 120.90 L549.61 120.51 L548.36 120.42 L546.68 120.90 L545.13 122.02 L544.00 123.78 L543.44 125.72 L543.57 127.49 L544.61 128.70 L546.29 129.21 L548.01 128.96 L549.13 128.31 L549.69 127.40 L549.91 126.54 L549.99 125.51 L549.99 124.34 L550.17 123.01 L550.68 121.76 L551.59 120.77 L552.80 120.25 L554.05 120.16 L555.17 120.68 L555.86 121.72 L556.20 123.22 L556.29 124.78 L556.33 125.90 " stroke-linecap='round' stroke-linejoin='round' brush-type='1' stroke-wetness='0.5'></path><path  style = ' stroke:#000000;  fill:none;  stroke-width:1.0;' d="M561.63 116.46 L561.70 117.36 L561.72 118.31 L561.76 120.34 L561.54 122.66 " stroke-linecap='round' stroke-linejoin='round' brush-type='1' stroke-wetness='0.5'></path><path  style = ' stroke:#000000;  fill:none;  stroke-width:1.0;' d="M558.92 118.91 L559.76 118.91 L560.68 118.91 L562.67 119.00 L564.91 119.26 " stroke-linecap='round' stroke-linejoin='round' brush-type='1' stroke-wetness='0.5'></path><path  style = ' stroke:#000000;  fill:none;  stroke-width:1.0;' d="M568.35 118.91 L567.58 119.63 L567.58 120.77 L567.62 122.66 L568.27 124.47 L568.70 125.68 L568.70 126.54 L568.18 127.15 L566.97 127.45 L565.08 127.58 L563.27 127.58 " stroke-linecap='round' stroke-linejoin='round' brush-type='1' stroke-wetness='0.5'></path><path  style = ' stroke:#000000;  fill:none;  stroke-width:1.0;' d="M67.49 145.29 L68.14 145.55 L69.43 145.63 L71.76 145.85 L74.47 145.98 L76.75 146.11 L78.69 146.24 L80.03 146.28 " stroke-linecap='round' stroke-linejoin='round' brush-type='1' stroke-wetness='0.5'></path><path  style = ' stroke:#000000;  fill:none;  stroke-width:1.0;' d="M77.19 144.51 L77.31 145.42 L77.36 146.71 L77.44 149.17 L77.44 151.71 L77.40 153.74 L77.27 155.20 L76.97 156.19 L76.58 156.80 " stroke-linecap='round' stroke-linejoin='round' brush-type='1' stroke-wetness='0.5'></path><path  style = ' stroke:#000000;  fill:none;  stroke-width:1.0;' d="M70.20 156.92 L70.66 156.99 L71.76 157.01 L73.87 157.05 L76.67 157.05 L79.43 157.05 " stroke-linecap='round' stroke-linejoin='round' brush-type='1' stroke-wetness='0.5'></path><path  style = ' stroke:#000000;  fill:none;  stroke-width:1.0;' d="M99.55 142.96 L98.45 142.25 L97.18 141.97 L94.85 141.37 L92.66 141.24 L90.93 141.15 L89.60 141.19 L88.82 141.50 L88.48 142.32 L88.43 143.74 L88.52 145.76 L88.78 148.13 L89.21 150.55 L89.60 152.57 L89.86 154.04 L89.94 154.99 L89.99 155.68 L89.99 156.24 " stroke-linecap='round' stroke-linejoin='round' brush-type='1' stroke-wetness='0.5'></path><path  style = ' stroke:#000000;  fill:none;  stroke-width:1.0;' d="M84.04 152.53 L84.75 152.85 L85.93 152.96 L88.22 153.18 L90.80 153.18 L93.17 153.18 L95.33 153.18 L97.05 153.18 L98.52 152.96 " stroke-linecap='round' stroke-linejoin='round' brush-type='1' stroke-wetness='0.5'></path><path  style = ' stroke:#000000;  fill:none;  stroke-width:1.0;' d="M131.49 152.53 L130.39 152.85 L129.46 153.26 L127.65 154.12 L126.14 155.16 L124.98 156.32 L124.29 157.57 L124.03 158.82 L124.33 160.07 L125.24 161.02 L126.75 161.58 L128.56 161.36 L130.32 160.37 L131.79 158.61 L132.69 156.71 L133.12 153.39 L133.21 150.68 " stroke-linecap='round' stroke-linejoin='round' brush-type='1' stroke-wetness='0.5'></path><path  style = ' stroke:#000000;  fill:none;  stroke-width:1.0;' d="M133.04 147.62 L132.97 148.91 L132.95 150.16 L132.91 152.70 L132.87 155.07 L132.82 157.10 L132.78 158.52 L132.78 159.38 " stroke-linecap='round' stroke-linejoin='round' brush-type='1' stroke-wetness='0.5'></path><path  style = ' stroke:#000000;  fill:none;  stroke-width:1.0;' d="M140.02 154.86 L139.11 154.86 L138.21 155.03 L136.57 155.50 L135.24 156.36 L134.37 157.57 L133.94 159.04 L134.03 160.59 L134.85 161.79 L136.31 162.48 L138.38 162.23 L140.49 160.89 L142.43 158.48 L143.86 155.16 L144.67 151.02 L145.02 146.54 L145.06 142.57 L145.06 140.03 L145.06 138.82 L144.98 139.47 L144.80 141.75 L144.50 145.72 L144.16 149.90 L143.90 153.65 L143.77 156.28 L143.77 157.92 L143.77 158.73 " stroke-linecap='round' stroke-linejoin='round' brush-type='1' stroke-wetness='0.5'></path><path  style = ' stroke:#000000;  fill:none;  stroke-width:1.0;' d="M149.07 153.18 L149.59 153.11 L150.66 153.09 L152.47 153.00 L154.50 152.92 L156.01 152.74 L157.26 152.57 L158.16 152.40 " stroke-linecap='round' stroke-linejoin='round' brush-type='1' stroke-wetness='0.5'></path><path  style = ' stroke:#000000;  fill:none;  stroke-width:1.0;' d="M165.36 154.73 L166.14 153.89 L167.21 153.22 L169.07 152.27 L170.79 152.05 L171.78 152.74 L172.30 154.12 L172.21 155.89 L171.61 157.53 L170.45 158.65 L169.07 159.21 L167.69 159.08 L166.39 158.00 L165.19 155.63 L164.33 151.97 L163.90 147.75 L163.81 143.91 L163.98 141.37 L164.20 140.16 L164.41 140.94 L164.41 143.22 L164.11 146.97 L163.68 150.89 L163.29 154.43 L163.21 156.97 L163.64 158.43 L164.28 159.08 " stroke-linecap='round' stroke-linejoin='round' brush-type='1' stroke-wetness='0.5'></path><path  style = ' stroke:#000000;  fill:none;  stroke-width:1.0;' d="M182.30 148.78 L181.46 149.30 L180.36 150.20 L178.42 151.88 L176.74 153.78 L175.83 155.63 L175.70 157.14 L176.48 158.22 L177.94 158.69 L179.75 158.95 L181.56 159.08 L183.12 159.12 L184.24 159.12 " stroke-linecap='round' stroke-linejoin='round' brush-type='1' stroke-wetness='0.5'></path><path  style = ' stroke:#000000;  fill:none;  stroke-width:1.0;' d="M202.08 147.23 L201.63 147.62 L200.66 148.18 L198.98 149.12 L197.21 150.03 L196.05 150.68 L195.36 151.19 L195.01 151.58 L194.88 152.01 L195.10 152.53 L195.87 153.18 L197.25 153.82 L198.85 154.43 L200.31 154.94 L201.30 155.33 L201.91 155.55 L202.51 155.76 " stroke-linecap='round' stroke-linejoin='round' brush-type='1' stroke-wetness='0.5'></path><path  style = ' stroke:#000000;  fill:none;  stroke-width:1.0;' d="M215.91 147.75 L215.40 147.55 L214.40 147.53 L212.59 147.75 L210.65 148.65 L209.32 150.16 L208.54 151.93 L208.24 153.69 L208.28 155.33 L209.19 156.80 L210.91 157.83 L213.24 158.35 L215.44 158.22 L217.16 157.44 L218.33 155.98 L218.84 154.04 L218.54 151.88 L217.55 149.99 L216.04 148.61 L214.49 147.87 L212.94 147.57 L211.69 147.49 " stroke-linecap='round' stroke-linejoin='round' brush-type='1' stroke-wetness='0.5'></path><path  style = ' stroke:#000000;  fill:none;  stroke-width:1.0;' d="M239.83 145.29 L239.77 146.65 L239.66 150.29 L239.53 154.94 L239.44 158.86 " stroke-linecap='round' stroke-linejoin='round' brush-type='1' stroke-wetness='0.5'></path><path  style = ' stroke:#000000;  fill:none;  stroke-width:1.0;' d="M235.31 148.65 L235.89 148.59 L236.94 148.56 L238.88 148.48 L241.08 148.26 L242.80 147.75 L244.05 147.01 L244.66 146.37 L244.87 146.58 L244.87 147.96 L244.96 150.42 L245.09 153.35 L245.26 156.06 L245.39 158.05 L245.48 159.04 L245.74 158.91 L246.25 157.79 L247.11 156.19 L247.89 154.90 L248.45 154.34 L248.75 154.43 L248.92 155.03 L249.01 156.11 L249.01 157.10 L249.92 157.49 " stroke-linecap='round' stroke-linejoin='round' brush-type='1' stroke-wetness='0.5'></path><path  style = ' stroke:#000000;  fill:none;  stroke-width:1.0;' d="M251.73 157.18 L253.21 156.08 L254.01 155.72 L255.73 154.77 L256.85 154.17 L257.97 153.18 L258.71 152.18 L259.05 151.41 L258.97 151.02 L258.49 150.85 L257.59 151.11 L256.47 151.97 L255.52 153.43 L255.00 155.11 L254.87 156.49 L255.60 157.53 " stroke-linecap='round' stroke-linejoin='round' brush-type='1' stroke-wetness='0.5'></path><path  style = ' stroke:#000000;  fill:none;  stroke-width:1.0;' d="M258.58 158.86 L259.74 156.86 L260.22 155.68 L261.47 153.26 L262.41 151.88 L263.66 150.93 L264.87 150.55 L265.82 150.98 L266.46 152.14 L266.77 154.04 L266.85 156.02 L266.94 157.66 " stroke-linecap='round' stroke-linejoin='round' brush-type='1' stroke-wetness='0.5'></path><path  style = ' stroke:#000000;  fill:none;  stroke-width:1.0;' d="M305.90 147.87 L305.38 147.55 L304.86 147.40 L303.66 147.14 L302.32 147.10 L300.86 147.40 L299.65 148.31 L298.83 149.94 L298.48 151.88 L298.66 153.56 L299.39 154.68 L300.64 155.20 L302.11 155.16 L303.44 154.43 L304.39 153.05 L304.91 151.32 L305.08 149.77 L305.12 148.82 L305.12 148.91 L305.04 150.20 L304.86 152.53 L304.48 155.29 L303.87 157.87 L302.88 159.98 L301.63 161.58 L300.08 162.70 L298.36 163.43 L296.33 163.78 L294.26 163.48 L292.80 162.10 " stroke-linecap='round' stroke-linejoin='round' brush-type='1' stroke-wetness='0.5'></path><path  style = ' stroke:#000000;  fill:none;  stroke-width:1.0;' d="M310.03 153.95 L310.23 153.11 L310.98 152.70 L312.15 152.01 L313.35 151.93 L313.91 152.23 L314.13 152.79 L313.78 153.61 L313.05 154.25 L312.10 154.68 L311.41 154.81 L310.98 154.64 L310.77 154.21 L310.72 153.74 L310.94 153.48 L311.20 153.43 L311.24 153.82 L310.90 154.38 " stroke-linecap='round' stroke-linejoin='round' brush-type='1' stroke-wetness='0.5'></path><path  style = ' stroke:#000000;  fill:none;  stroke-width:1.0;' d="M318.83 148.26 L319.28 148.07 L320.46 148.00 L322.58 147.66 L324.95 147.44 L326.63 147.23 L327.62 147.23 L328.09 147.44 L328.14 148.22 L327.62 149.64 L326.45 151.54 L324.64 153.48 L322.75 155.20 L321.24 156.45 L320.46 157.18 L320.29 157.57 L320.72 157.79 L321.80 158.00 L323.39 158.22 L325.08 158.43 L326.54 158.61 L327.66 158.69 L328.39 158.73 " stroke-linecap='round' stroke-linejoin='round' brush-type='1' stroke-wetness='0.5'></path><path  style = ' stroke:#000000;  fill:none;  stroke-width:1.0;' d="M319.86 152.79 L320.70 152.66 L321.58 152.62 L323.52 152.49 L325.98 152.36 L328.78 152.18 " stroke-linecap='round' stroke-linejoin='round' brush-type='1' stroke-wetness='0.5'></path><path  style = ' stroke:#000000;  fill:none;  stroke-width:1.0;' d="M336.67 150.72 L337.44 150.91 L338.48 150.98 L340.59 151.11 L343.00 151.06 L345.20 151.02 " stroke-linecap='round' stroke-linejoin='round' brush-type='1' stroke-wetness='0.5'></path><path  style = ' stroke:#000000;  fill:none;  stroke-width:1.0;' d="M335.76 153.56 L336.47 153.76 L337.36 153.82 L339.12 153.95 L340.85 153.95 L342.27 153.95 L343.22 153.99 L343.87 154.21 " stroke-linecap='round' stroke-linejoin='round' brush-type='1' stroke-wetness='0.5'></path><path  style = ' stroke:#000000;  fill:none;  stroke-width:1.0;' d="M366.02 146.58 L365.11 146.58 L364.08 146.84 L362.27 147.49 L360.63 148.56 L359.42 149.90 L358.56 151.32 L358.13 152.79 L358.04 154.21 L358.52 155.50 L359.64 156.36 L361.62 156.49 L364.08 155.24 L366.53 152.96 L368.34 149.73 L369.25 146.84 L369.51 144.69 L369.42 143.69 L369.21 143.44 L368.99 144.21 L368.82 145.85 L368.78 148.26 L368.73 150.55 L368.73 152.49 L368.73 153.91 L368.73 154.86 L368.73 155.46 L368.78 155.80 " stroke-linecap='round' stroke-linejoin='round' brush-type='1' stroke-wetness='0.5'></path><path  style = ' stroke:#000000;  fill:none;  stroke-width:1.0;' d="M376.49 146.19 L377.20 145.87 L378.47 145.68 L380.80 145.29 L383.30 145.12 L385.11 145.03 L386.23 145.16 L386.75 145.63 L386.83 146.54 L386.44 147.83 L385.58 149.34 L384.42 150.89 L383.21 152.31 L382.09 153.48 L381.23 154.34 L380.71 154.94 L380.54 155.29 L380.58 155.55 L381.10 155.76 L382.05 155.93 L383.51 156.02 L385.15 156.02 L386.75 156.02 L387.95 156.02 L388.60 155.98 " stroke-linecap='round' stroke-linejoin='round' brush-type='1' stroke-wetness='0.5'></path><path  style = ' stroke:#000000;  fill:none;  stroke-width:1.0;' d="M379.72 151.75 L380.43 151.75 L381.49 151.75 L383.51 151.75 L385.80 151.71 L387.82 151.58 L389.50 151.32 L390.62 151.06 " stroke-linecap='round' stroke-linejoin='round' brush-type='1' stroke-wetness='0.5'></path><path  style = ' stroke:#000000;  fill:none;  stroke-width:1.0;' d="M377.01 140.63 L377.91 140.76 L378.90 140.81 L381.01 140.94 L383.34 141.07 L385.80 141.28 L388.04 141.50 L389.81 141.71 L390.97 141.88 L391.83 142.19 " stroke-linecap='round' stroke-linejoin='round' brush-type='1' stroke-wetness='0.5'></path><path  style = ' stroke:#000000;  fill:none;  stroke-width:1.0;' d="M404.03 144.64 L403.90 145.22 L403.86 146.41 L403.77 148.61 L403.77 151.19 L403.77 153.43 L403.77 155.29 L403.77 156.54 L403.77 157.18 " stroke-linecap='round' stroke-linejoin='round' brush-type='1' stroke-wetness='0.5'></path><path  style = ' stroke:#000000;  fill:none;  stroke-width:1.0;' d="M400.15 149.94 L400.60 149.81 L401.31 149.77 L403.08 149.68 L405.45 149.68 L407.73 149.77 " stroke-linecap='round' stroke-linejoin='round' brush-type='1' stroke-wetness='0.5'></path><path  style = ' stroke:#000000;  fill:none;  stroke-width:1.0;' d="M415.02 152.14 L415.47 151.43 L416.27 150.93 L417.73 150.12 L419.37 149.77 L420.58 149.94 L421.31 150.81 L421.44 152.27 L420.88 154.08 L419.80 155.59 L418.38 156.67 L417.04 157.14 L415.88 156.92 L414.97 155.59 L414.37 152.70 L414.07 148.56 L413.98 144.13 L414.03 140.46 L414.07 138.05 L414.11 137.06 L414.11 138.22 L414.11 141.15 L414.11 145.38 L414.11 149.30 L414.11 152.79 L414.11 154.99 " stroke-linecap='round' stroke-linejoin='round' brush-type='1' stroke-wetness='0.5'></path><path  style = ' stroke:#000000;  fill:none;  stroke-width:1.0;' d="M357.48 159.38 L359.68 159.38 L362.53 159.51 L368.04 159.77 L374.21 160.11 L380.50 160.37 L387.13 160.54 L393.94 160.67 L400.80 160.85 L407.30 161.02 L413.29 161.32 L418.42 161.67 L422.69 162.05 L426.05 162.31 L428.51 162.44 L430.32 162.48 L431.52 162.48 L432.26 162.40 " stroke-linecap='round' stroke-linejoin='round' brush-type='1' stroke-wetness='0.5'></path><path  style = ' stroke:#000000;  fill:none;  stroke-width:1.0;' d="M365.89 175.80 L365.44 175.87 L364.94 175.89 L363.73 176.10 L362.10 176.71 L360.07 177.87 L358.00 179.51 L356.28 181.40 L355.11 183.34 L354.51 185.15 L354.34 186.83 L354.81 188.39 L356.02 189.81 L358.09 190.88 L360.54 191.57 L363.22 191.88 L365.33 191.88 " stroke-linecap='round' stroke-linejoin='round' brush-type='1' stroke-wetness='0.5'></path><path  style = ' stroke:#000000;  fill:none;  stroke-width:1.0;' d="M377.27 177.35 L377.91 177.22 L379.20 177.05 L381.70 176.71 L384.55 176.40 L386.79 176.23 L388.17 176.36 L388.81 176.96 L388.64 178.21 L387.44 180.20 L385.45 182.39 L383.17 184.46 L381.45 185.89 L380.37 186.75 L379.94 187.14 L379.98 187.35 L380.67 187.57 L382.05 187.78 L384.03 187.95 L386.10 188.04 L387.91 188.13 L389.29 188.17 L390.11 188.21 " stroke-linecap='round' stroke-linejoin='round' brush-type='1' stroke-wetness='0.5'></path><path  style = ' stroke:#000000;  fill:none;  stroke-width:1.0;' d="M378.69 184.46 L379.46 184.40 L380.67 184.38 L383.08 184.33 L385.75 184.33 L388.08 184.33 L389.89 184.33 L391.10 184.33 " stroke-linecap='round' stroke-linejoin='round' brush-type='1' stroke-wetness='0.5'></path><path  style = ' stroke:#000000;  fill:none;  stroke-width:1.0;' d="M376.23 172.44 L377.20 172.37 L378.34 172.35 L380.76 172.31 L383.56 172.40 L386.40 172.57 L388.90 172.78 L390.75 173.00 L391.96 173.13 L392.65 173.22 L392.95 173.39 " stroke-linecap='round' stroke-linejoin='round' brush-type='1' stroke-wetness='0.5'></path><path  style = ' stroke:#000000;  fill:none;  stroke-width:1.0;' d="M409.72 176.06 L409.78 176.64 L409.80 177.44 L409.85 179.29 L409.85 181.62 L409.85 184.12 L409.85 186.36 L409.85 188.13 L409.80 189.25 L409.67 189.76 " stroke-linecap='round' stroke-linejoin='round' brush-type='1' stroke-wetness='0.5'></path><path  style = ' stroke:#000000;  fill:none;  stroke-width:1.0;' d="M401.31 183.56 L401.77 183.69 L402.82 183.73 L404.98 183.82 L407.82 183.82 L410.19 183.82 " stroke-linecap='round' stroke-linejoin='round' brush-type='1' stroke-wetness='0.5'></path><path  style = ' stroke:#000000;  fill:none;  stroke-width:1.0;' d="M424.58 184.20 L423.62 183.88 L422.21 183.82 L419.67 183.95 L416.96 184.68 L414.72 185.80 L413.03 186.96 L412.17 188.08 L412.00 189.03 L412.69 189.76 L414.07 190.20 L416.09 190.20 L418.16 189.42 L420.10 187.95 L421.74 185.63 L422.99 182.44 L423.90 178.69 L424.46 175.20 L424.84 172.96 L425.02 172.09 L425.10 172.87 L424.89 175.15 L424.46 178.60 L423.85 182.27 L423.42 185.63 L423.12 188.43 L422.95 190.41 " stroke-linecap='round' stroke-linejoin='round' brush-type='1' stroke-wetness='0.5'></path><path  style = ' stroke:#000000;  fill:none;  stroke-width:1.0;' d="M59.60 197.91 L60.05 197.65 L60.81 197.52 L62.53 197.05 L65.12 196.49 L67.96 195.84 L70.76 195.37 L73.01 195.15 L74.69 195.07 " stroke-linecap='round' stroke-linejoin='round' brush-type='1' stroke-wetness='0.5'></path><path  style = ' stroke:#000000;  fill:none;  stroke-width:1.0;' d="M69.82 198.04 L69.49 198.81 L69.34 199.93 L68.95 202.26 L68.74 205.37 L68.57 208.60 L68.57 211.74 L68.91 213.98 L69.86 215.19 " stroke-linecap='round' stroke-linejoin='round' brush-type='1' stroke-wetness='0.5'></path><path  style = ' stroke:#000000;  fill:none;  stroke-width:1.0;' d="M79.00 198.17 L79.32 199.01 L79.43 200.88 L79.51 204.33 L79.25 208.30 L78.82 211.31 L78.52 213.21 L78.35 214.07 L78.82 213.68 L79.86 212.52 L81.32 210.97 L82.57 209.98 L83.39 209.63 L83.87 209.98 L84.12 210.84 L84.25 212.26 L84.34 213.60 " stroke-linecap='round' stroke-linejoin='round' brush-type='1' stroke-wetness='0.5'></path><path  style = ' stroke:#000000;  fill:none;  stroke-width:1.0;' d="M88.43 212.91 L89.34 212.58 L89.90 212.48 L91.06 212.26 L91.88 212.13 L92.66 211.66 L93.26 210.84 L93.61 209.67 L93.69 208.51 L93.35 207.52 L92.57 207.00 L91.32 207.18 L89.86 208.30 L88.43 210.19 L87.40 212.43 L86.88 214.46 L87.05 216.14 L87.92 217.35 " stroke-linecap='round' stroke-linejoin='round' brush-type='1' stroke-wetness='0.5'></path><path  style = ' stroke:#000000;  fill:none;  stroke-width:1.0;' d="M93.99 217.30 L94.32 215.69 L94.42 214.59 L94.64 212.48 L94.98 211.14 L95.76 210.23 L97.01 209.80 L98.30 210.02 L99.47 210.97 L100.37 212.65 L101.10 214.59 L101.79 216.40 " stroke-linecap='round' stroke-linejoin='round' brush-type='1' stroke-wetness='0.5'></path><path  style = ' stroke:#000000;  fill:none;  stroke-width:1.0;' d="M120.37 202.05 L120.24 203.02 L120.11 204.50 L119.76 207.35 L119.25 210.36 L118.73 212.86 L118.34 214.54 L118.21 215.54 L118.26 215.92 L118.77 216.14 L119.94 216.23 L121.75 216.18 L123.90 215.84 L125.80 215.45 " stroke-linecap='round' stroke-linejoin='round' brush-type='1' stroke-wetness='0.5'></path><path  style = ' stroke:#000000;  fill:none;  stroke-width:1.0;' d="M133.30 211.23 L133.17 212.00 L133.12 212.73 L133.00 214.20 L132.95 215.75 L132.91 217.04 " stroke-linecap='round' stroke-linejoin='round' brush-type='1' stroke-wetness='0.5'></path><path  style = ' stroke:#000000;  fill:none;  stroke-width:1.0;' d="M138.08 214.07 L138.86 213.94 L139.55 213.90 L141.05 213.55 L142.56 212.86 L143.90 211.74 L144.67 210.62 L144.76 209.85 L143.90 209.50 L142.22 209.93 L140.02 211.10 L138.04 212.95 L136.79 214.80 L136.23 216.35 L136.70 217.52 L138.60 218.34 L142.13 218.81 " stroke-linecap='round' stroke-linejoin='round' brush-type='1' stroke-wetness='0.5'></path><path  style = ' stroke:#000000;  fill:none;  stroke-width:1.0;' d="M166.78 204.89 L165.75 204.83 L164.80 204.89 L162.86 205.28 L160.92 206.40 L159.03 208.34 L157.43 210.88 L156.48 213.51 L156.22 215.79 L156.96 217.52 L158.51 218.60 L160.79 219.11 L163.21 219.11 L165.23 218.51 L166.44 217.39 L166.78 216.05 L166.31 215.02 L165.32 214.46 L164.11 214.24 L163.16 214.42 L162.69 215.10 " stroke-linecap='round' stroke-linejoin='round' brush-type='1' stroke-wetness='0.5'></path><path  style = ' stroke:#000000;  fill:none;  stroke-width:1.0;' d="M171.57 219.76 L171.57 219.11 L171.48 217.99 L171.35 216.23 L171.22 214.59 L171.22 213.68 L171.78 213.17 L172.64 212.95 " stroke-linecap='round' stroke-linejoin='round' brush-type='1' stroke-wetness='0.5'></path><path  style = ' stroke:#000000;  fill:none;  stroke-width:1.0;' d="M179.97 212.78 L178.94 212.91 L178.12 213.08 L176.57 213.77 L175.53 214.98 L174.97 216.57 L175.10 217.99 L176.05 218.85 L177.60 219.16 L179.19 218.77 L180.23 217.86 L180.66 216.53 L180.31 215.28 L179.37 214.42 L177.99 214.03 L176.82 214.11 " stroke-linecap='round' stroke-linejoin='round' brush-type='1' stroke-wetness='0.5'></path><path  style = ' stroke:#000000;  fill:none;  stroke-width:1.0;' d="M183.85 212.91 L183.40 214.33 L183.03 215.54 L182.51 217.56 L182.30 218.81 L182.73 219.33 L183.76 219.24 L185.36 218.29 L186.91 216.61 L187.99 214.80 L188.55 213.64 L188.72 213.64 L188.76 215.02 L188.76 217.69 L188.93 221.18 " stroke-linecap='round' stroke-linejoin='round' brush-type='1' stroke-wetness='0.5'></path><path  style = ' stroke:#000000;  fill:none;  stroke-width:1.0;' d="M190.18 227.00 L191.80 227.58 L192.34 226.74 L193.37 224.80 L193.33 220.88 L193.29 216.79 L193.67 213.25 L194.45 210.92 L195.70 209.72 L196.99 209.24 L198.16 209.55 L198.93 210.45 L199.28 211.92 L199.02 213.42 L197.98 214.80 L196.05 215.84 " stroke-linecap='round' stroke-linejoin='round' brush-type='1' stroke-wetness='0.5'></path><path  style = ' stroke:#000000;  fill:none;  stroke-width:1.0;' d="M219.02 209.67 L218.89 210.58 L218.84 211.87 L218.76 214.24 L218.80 216.70 L219.10 218.64 " stroke-linecap='round' stroke-linejoin='round' brush-type='1' stroke-wetness='0.5'></path><path  style = ' stroke:#000000;  fill:none;  stroke-width:1.0;' d="M228.45 208.12 L227.55 208.51 L226.95 209.16 L225.91 210.19 L225.48 211.23 L225.70 212.09 L226.56 212.99 L227.76 213.94 L228.76 214.85 L229.27 215.71 L229.36 216.57 L228.80 217.39 L227.42 218.21 L225.14 218.90 " stroke-linecap='round' stroke-linejoin='round' brush-type='1' stroke-wetness='0.5'></path><path  style = ' stroke:#000000;  fill:none;  stroke-width:1.0;' d="M218.24 204.12 a0.50 0.50 0 1 0 0.01 0 " stroke-linecap='round' stroke-linejoin='round' brush-type='1' stroke-wetness='0.5'></path><path  style = ' stroke:#000000;  fill:none;  stroke-width:1.0;' d="M269.05 220.02 L269.05 219.18 L269.05 218.12 L268.92 215.67 L268.62 212.43 L268.32 208.68 L268.15 204.89 L268.19 201.40 L268.58 198.51 L269.22 196.40 L270.04 195.15 L270.82 194.55 L271.81 194.38 L273.06 194.98 L274.44 196.31 L275.56 198.34 L276.25 200.41 L276.51 202.31 L276.07 203.86 L275.00 205.06 L273.27 205.93 L271.38 206.49 L269.57 206.74 L268.10 206.74 L267.28 206.53 L266.94 206.14 " stroke-linecap='round' stroke-linejoin='round' brush-type='1' stroke-wetness='0.5'></path><path  style = ' stroke:#000000;  fill:none;  stroke-width:1.0;' d="M288.57 197.52 L287.80 197.78 L287.11 198.17 L285.64 199.20 L283.96 200.88 L281.98 203.21 L279.95 206.10 L278.27 209.11 L277.11 212.00 L276.51 214.46 L276.42 216.48 L277.11 218.08 L278.70 219.20 L281.07 219.80 L283.75 220.02 L286.12 219.67 L287.88 219.03 L288.83 217.99 L289.09 216.96 L288.53 215.97 L287.37 215.23 L285.81 214.76 L284.39 214.54 L283.32 214.46 L282.67 214.46 L282.84 214.59 " stroke-linecap='round' stroke-linejoin='round' brush-type='1' stroke-wetness='0.5'></path><path  style = ' stroke:#000000;  fill:none;  stroke-width:1.0;' d="M296.46 199.33 L296.59 199.85 L296.63 200.71 L296.72 202.69 L296.55 205.58 L296.03 208.77 L295.12 212.00 L294.18 214.67 L293.49 216.74 L293.18 217.95 L293.10 218.51 L293.44 218.68 L294.39 218.72 L295.99 218.72 L297.80 218.72 L299.43 218.72 L300.68 218.72 L301.54 218.72 L302.06 218.72 L302.41 218.72 L302.75 218.47 " stroke-linecap='round' stroke-linejoin='round' brush-type='1' stroke-wetness='0.5'></path><path  style = ' stroke:#000000;  fill:none;  stroke-width:1.0;' d="M313.53 195.45 L312.49 195.52 L311.28 196.36 L308.91 198.34 L306.41 201.70 L304.04 205.80 L301.98 209.98 L300.60 213.73 L299.95 216.66 L300.17 218.90 L301.11 220.53 L302.75 221.70 L304.95 222.43 L307.32 222.78 " stroke-linecap='round' stroke-linejoin='round' brush-type='1' stroke-wetness='0.5'></path><path  style = ' stroke:#000000;  fill:none;  stroke-width:1.0;' d="M314.30 209.16 L314.75 208.51 L315.38 207.91 L316.67 206.92 L317.96 206.36 L318.96 206.18 L319.47 206.61 L319.65 207.82 L319.13 209.93 L318.05 212.35 L316.63 214.46 L315.64 215.88 L315.16 216.70 L315.12 217.17 L315.59 217.65 L316.63 218.12 L318.22 218.72 L319.86 219.37 " stroke-linecap='round' stroke-linejoin='round' brush-type='1' stroke-wetness='0.5'></path><path  style = ' stroke:#000000;  fill:none;  stroke-width:1.0;' d="M324.90 219.37 L324.58 220.15 L324.13 221.31 L323.14 223.34 L322.02 225.36 L321.02 226.96 L320.46 228.16 " stroke-linecap='round' stroke-linejoin='round' brush-type='1' stroke-wetness='0.5'></path><path  style = ' stroke:#000000;  fill:none;  stroke-width:1.0;' d="M331.37 219.76 L331.37 219.11 L331.37 218.25 L331.37 216.05 L331.37 212.73 L331.45 208.55 L331.71 204.59 L332.19 201.57 L332.70 199.93 L333.18 199.20 L333.65 199.07 L334.38 199.81 L335.33 202.00 L336.15 205.97 L336.63 210.67 L336.75 214.80 L336.75 217.56 L336.54 218.94 L336.24 219.37 L335.94 218.68 L335.76 216.74 L335.68 213.51 L335.72 209.76 L336.06 206.18 L336.71 203.21 L337.57 201.10 L338.44 199.89 L339.25 199.42 L340.07 199.33 L340.76 199.63 L341.24 200.54 L341.41 202.00 L341.02 203.64 L340.07 205.02 L338.65 206.05 L337.27 206.83 L336.28 207.39 L335.76 207.95 L335.68 208.73 L336.19 209.85 L337.31 211.14 L338.95 212.30 L340.63 213.29 L342.06 214.20 L343.09 214.93 L343.69 215.45 " stroke-linecap='round' stroke-linejoin='round' brush-type='1' stroke-wetness='0.5'></path><path  style = ' stroke:#000000;  fill:none;  stroke-width:1.0;' d="M345.85 198.04 L346.49 198.94 L347.40 200.67 L348.91 203.94 L350.11 207.91 L350.63 211.48 L350.50 214.72 L349.68 217.35 L348.30 219.54 L346.67 221.35 L345.03 222.86 L343.39 224.07 L341.80 224.97 L340.37 225.62 " stroke-linecap='round' stroke-linejoin='round' brush-type='1' stroke-wetness='0.5'></path><path  style = ' stroke:#000000;  fill:none;  stroke-width:1.0;' d="M368.21 221.05 L368.28 220.53 L368.30 219.80 L368.34 218.08 L368.34 215.54 L368.47 212.30 L368.78 208.90 L369.29 205.93 L369.90 203.73 L370.50 202.26 L371.19 201.44 L372.09 201.10 L373.30 201.01 L374.77 201.01 L376.10 201.10 L377.31 201.44 " stroke-linecap='round' stroke-linejoin='round' brush-type='1' stroke-wetness='0.5'></path><path  style = ' stroke:#000000;  fill:none;  stroke-width:1.0;' d="M365.76 210.45 L366.47 210.58 L367.61 210.62 L369.94 210.71 L372.83 210.71 L375.50 210.71 L377.48 210.71 L378.47 210.71 L378.47 210.88 L377.74 211.40 L376.49 212.48 L375.24 214.11 L374.29 216.01 L373.82 217.78 L373.95 218.98 L374.98 219.50 L376.70 218.98 L378.51 217.60 L379.68 215.67 L380.15 213.81 L379.85 212.39 L379.08 211.57 L377.91 211.27 L376.83 211.44 L376.06 212.35 L375.67 214.03 " stroke-linecap='round' stroke-linejoin='round' brush-type='1' stroke-wetness='0.5'></path><path  style = ' stroke:#000000;  fill:none;  stroke-width:1.0;' d="M376.75 217.69 L378.82 217.95 L379.51 217.04 L381.23 215.41 L382.18 213.08 L384.03 211.44 L386.66 210.62 L389.81 210.62 " stroke-linecap='round' stroke-linejoin='round' brush-type='1' stroke-wetness='0.5'></path><path  style = ' stroke:#000000;  fill:none;  stroke-width:1.0;' d="M418.12 202.82 L418.51 202.89 L419.11 203.08 L420.49 203.90 L422.34 205.62 L424.37 208.30 L426.27 211.36 L427.86 214.33 L429.20 216.83 L430.36 218.85 L431.35 220.23 " stroke-linecap='round' stroke-linejoin='round' brush-type='1' stroke-wetness='0.5'></path><path  style = ' stroke:#000000;  fill:none;  stroke-width:1.0;' d="M430.14 205.41 L429.11 205.73 L427.77 206.44 L425.40 208.12 L422.99 210.49 L420.88 213.25 L419.03 215.84 L417.69 218.08 L417.04 219.50 " stroke-linecap='round' stroke-linejoin='round' brush-type='1' stroke-wetness='0.5'></path><path  style = ' stroke:#000000;  fill:none;  stroke-width:1.0;' d="M435.83 209.55 L436.67 209.55 L437.77 209.55 L439.84 209.55 L441.61 209.55 " stroke-linecap='round' stroke-linejoin='round' brush-type='1' stroke-wetness='0.5'></path><path  style = ' stroke:#000000;  fill:none;  stroke-width:1.0;' d="M434.54 215.88 L435.19 216.20 L436.05 216.31 L438.07 216.53 L440.66 216.53 L443.03 216.44 " stroke-linecap='round' stroke-linejoin='round' brush-type='1' stroke-wetness='0.5'></path><path  style = ' stroke:#000000;  fill:none;  stroke-width:1.0;' d="M447.86 198.43 L447.66 199.40 L447.51 201.27 L447.12 205.11 L446.65 209.85 L446.13 214.20 L445.66 217.86 L445.40 220.53 L445.27 222.22 L445.31 222.86 " stroke-linecap='round' stroke-linejoin='round' brush-type='1' stroke-wetness='0.5'></path><path  style = ' stroke:#000000;  fill:none;  stroke-width:1.0;' d="M450.05 198.56 L449.93 198.94 L449.88 200.54 L449.80 203.60 L449.80 207.78 L449.71 211.66 L449.49 215.15 L449.24 217.86 L448.98 219.63 L448.76 220.49 " stroke-linecap='round' stroke-linejoin='round' brush-type='1' stroke-wetness='0.5'></path><path  style = ' stroke:#000000;  fill:none;  stroke-width:1.0;' d="M458.98 198.94 L458.78 199.40 L458.72 200.32 L458.59 202.61 L458.54 205.97 L458.37 209.85 L458.11 213.55 L457.90 216.61 L457.77 218.72 L457.73 219.97 L457.42 220.28 " stroke-linecap='round' stroke-linejoin='round' brush-type='1' stroke-wetness='0.5'></path><path  style = ' stroke:#000000;  fill:none;  stroke-width:1.0;' d="M449.02 211.10 L449.47 211.03 L450.18 211.01 L451.86 210.97 L454.24 210.92 L456.82 210.80 " stroke-linecap='round' stroke-linejoin='round' brush-type='1' stroke-wetness='0.5'></path><path  style = ' stroke:#000000;  fill:none;  stroke-width:1.0;' d="M465.05 195.97 L465.44 195.26 L465.96 194.94 L466.91 194.29 L467.81 194.12 L468.46 194.12 L468.80 194.59 L468.80 195.58 L468.20 196.96 L467.21 198.25 L466.17 199.25 L465.53 199.85 L465.27 200.24 L465.87 200.58 L467.12 200.88 L469.02 201.10 L470.53 201.14 " stroke-linecap='round' stroke-linejoin='round' brush-type='1' stroke-wetness='0.5'></path><path  style = ' stroke:#000000;  fill:none;  stroke-width:1.0;' d="M689.45 36.11 a0.50 0.50 0 1 0 0.01 0 " stroke-linecap='round' stroke-linejoin='round' brush-type='1' stroke-wetness='0.5'></path><path  style = ' stroke:#000000;  fill:none;  stroke-width:1.0;' d="M691.51 36.11 a0.50 0.50 0 1 0 0.01 0 " stroke-linecap='round' stroke-linejoin='round' brush-type='1' stroke-wetness='0.5'></path><path  style = ' stroke:#000000;  fill:none;  stroke-width:1.0;' d="M281.20 1090.52 L281.33 1090.13 L281.38 1089.74 L281.51 1088.41 L281.63 1086.04 L281.89 1082.25 L282.19 1077.63 L282.45 1073.15 L282.58 1069.58 L282.63 1067.33 L282.58 1066.13 L282.50 1065.65 L282.71 1065.48 L283.44 1065.44 L284.95 1065.44 L286.94 1065.44 L289.26 1065.44 L291.68 1065.44 L294.05 1065.44 L295.90 1065.44 L297.28 1065.52 " stroke-linecap='round' stroke-linejoin='round' brush-type='1' stroke-wetness='0.5'></path><path  style = ' stroke:#000000;  fill:none;  stroke-width:1.0;' d="M280.94 1077.59 L281.46 1077.46 L282.32 1077.42 L284.35 1077.25 L287.24 1076.90 L290.38 1076.34 L293.14 1075.74 L294.82 1075.39 " stroke-linecap='round' stroke-linejoin='round' brush-type='1' stroke-wetness='0.5'></path><path  style = ' stroke:#000000;  fill:none;  stroke-width:1.0;' d="M282.24 1088.58 L282.50 1088.71 L283.75 1088.75 L286.42 1088.32 L290.21 1086.99 L294.22 1084.66 " stroke-linecap='round' stroke-linejoin='round' brush-type='1' stroke-wetness='0.5'></path><path  style = ' stroke:#000000;  fill:none;  stroke-width:1.0;' d="M303.83 1064.66 L303.70 1065.44 L303.44 1067.72 L302.92 1072.25 L302.28 1078.24 L301.63 1083.58 L301.11 1087.50 L300.77 1089.57 L300.90 1089.10 L301.67 1086.94 L303.05 1083.97 L304.69 1081.99 L306.11 1081.17 L307.28 1081.60 L308.05 1083.24 L308.53 1085.99 L308.70 1089.44 L308.74 1092.24 " stroke-linecap='round' stroke-linejoin='round' brush-type='1' stroke-wetness='0.5'></path><path  style = ' stroke:#000000;  fill:none;  stroke-width:1.0;' d="M315.46 1094.14 L315.14 1093.24 L314.99 1091.81 L314.73 1089.31 L314.69 1086.94 L314.90 1085.39 L315.38 1084.49 L316.37 1083.93 L317.79 1083.50 L319.43 1083.19 " stroke-linecap='round' stroke-linejoin='round' brush-type='1' stroke-wetness='0.5'></path><path  style = ' stroke:#000000;  fill:none;  stroke-width:1.0;' d="M319.34 1089.49 L319.99 1089.62 L321.11 1089.40 L323.14 1088.71 L325.25 1087.37 L326.63 1085.99 L327.32 1084.96 L327.45 1084.44 L327.01 1084.23 L325.98 1084.31 L324.43 1084.96 L322.79 1086.21 L321.58 1087.80 L320.94 1089.27 L321.11 1090.65 L322.45 1091.90 L324.34 1092.76 " stroke-linecap='round' stroke-linejoin='round' brush-type='1' stroke-wetness='0.5'></path><path  style = ' stroke:#000000;  fill:none;  stroke-width:1.0;' d="M337.44 1082.89 L336.73 1082.83 L336.06 1082.81 L334.73 1082.94 L333.52 1083.45 L332.49 1084.31 L331.88 1085.48 L331.84 1086.81 L332.40 1088.19 L333.22 1089.40 L333.91 1090.22 L334.25 1090.78 L334.08 1091.17 L333.26 1091.68 L331.63 1092.20 L329.64 1092.63 L328.05 1092.80 " stroke-linecap='round' stroke-linejoin='round' brush-type='1' stroke-wetness='0.5'></path><path  style = ' stroke:#000000;  fill:none;  stroke-width:1.0;' d="M340.42 1093.36 L340.03 1092.91 L339.86 1091.68 L339.56 1089.44 L339.73 1086.86 L340.37 1085.05 L341.58 1084.06 L343.05 1083.75 L344.47 1084.23 L345.42 1085.26 L345.93 1086.68 L346.06 1087.89 L346.11 1088.67 L346.11 1088.28 L346.49 1086.90 L347.40 1085.09 L348.74 1084.01 L349.99 1083.75 L350.85 1084.44 L351.41 1085.87 L351.71 1087.98 L351.97 1090.18 " stroke-linecap='round' stroke-linejoin='round' brush-type='1' stroke-wetness='0.5'></path><path  style = ' stroke:#000000;  fill:none;  stroke-width:1.0;' d="M360.72 1087.03 L360.39 1086.90 L359.64 1086.86 L358.22 1087.16 L356.58 1088.02 L355.37 1089.36 L354.73 1090.48 L354.51 1091.17 L354.98 1091.30 L356.02 1090.69 L357.31 1089.53 L358.26 1088.11 L358.69 1087.20 L358.78 1087.42 L358.60 1088.75 L358.39 1090.86 " stroke-linecap='round' stroke-linejoin='round' brush-type='1' stroke-wetness='0.5'></path><path  style = ' stroke:#000000;  fill:none;  stroke-width:1.0;' d="M361.75 1092.85 L361.62 1092.01 L361.58 1091.25 L361.49 1089.83 L361.66 1088.62 L362.10 1087.68 L362.91 1087.07 L363.95 1086.81 L365.03 1087.20 L365.89 1088.06 L366.45 1089.53 L366.71 1091.21 L366.79 1092.67 " stroke-linecap='round' stroke-linejoin='round' brush-type='1' stroke-wetness='0.5'></path><path  style = ' stroke:#000000;  fill:none;  stroke-width:1.0;' d="M388.51 1071.39 L387.93 1071.06 L387.22 1071.26 L385.75 1071.95 L384.07 1073.58 L382.48 1075.57 L381.23 1077.59 L380.58 1079.36 L380.58 1080.95 L381.53 1082.33 L383.21 1083.75 L385.32 1085.31 L387.09 1086.86 L388.21 1088.24 L388.69 1089.27 L388.60 1090.09 L387.82 1090.95 L386.19 1091.99 L383.86 1093.11 L381.79 1093.88 " stroke-linecap='round' stroke-linejoin='round' brush-type='1' stroke-wetness='0.5'></path><path  style = ' stroke:#000000;  fill:none;  stroke-width:1.0;' d="M397.30 1074.75 L397.30 1075.72 L397.30 1076.82 L397.18 1079.27 L396.92 1082.25 L396.49 1085.52 L396.14 1088.67 L395.84 1091.17 " stroke-linecap='round' stroke-linejoin='round' brush-type='1' stroke-wetness='0.5'></path><path  style = ' stroke:#000000;  fill:none;  stroke-width:1.0;' d="M392.26 1079.01 L392.84 1078.75 L394.46 1078.63 L397.56 1078.24 L401.61 1078.02 " stroke-linecap='round' stroke-linejoin='round' brush-type='1' stroke-wetness='0.5'></path><path  style = ' stroke:#000000;  fill:none;  stroke-width:1.0;' d="M405.45 1091.43 L405.13 1091.10 L405.02 1090.05 L404.80 1088.06 L404.98 1085.65 L405.41 1083.75 L406.18 1082.42 L407.30 1081.51 L408.90 1081.00 L410.88 1080.74 " stroke-linecap='round' stroke-linejoin='round' brush-type='1' stroke-wetness='0.5'></path><path  style = ' stroke:#000000;  fill:none;  stroke-width:1.0;' d="M414.24 1081.21 L414.56 1083.28 L414.67 1084.87 L414.89 1087.68 L414.89 1089.49 L415.28 1090.65 L416.05 1091.38 L417.30 1091.60 L418.81 1090.74 L420.40 1088.75 L421.87 1086.08 L422.77 1083.97 L423.29 1082.85 L423.46 1082.94 L423.55 1083.84 L423.55 1085.56 L423.51 1087.68 L423.46 1089.74 " stroke-linecap='round' stroke-linejoin='round' brush-type='1' stroke-wetness='0.5'></path><path  style = ' stroke:#000000;  fill:none;  stroke-width:1.0;' d="M433.25 1082.50 L432.86 1082.57 L432.39 1082.81 L431.39 1083.54 L430.14 1085.00 L428.89 1087.07 L427.95 1089.31 L427.52 1091.25 L427.95 1092.63 L429.50 1093.36 L432.04 1092.85 " stroke-linecap='round' stroke-linejoin='round' brush-type='1' stroke-wetness='0.5'></path><path  style = ' stroke:#000000;  fill:none;  stroke-width:1.0;' d="M441.13 1079.92 L440.94 1080.37 L440.83 1081.94 L440.57 1084.92 L440.31 1088.62 L439.97 1091.60 L439.63 1093.49 L439.24 1094.36 " stroke-linecap='round' stroke-linejoin='round' brush-type='1' stroke-wetness='0.5'></path><path  style = ' stroke:#000000;  fill:none;  stroke-width:1.0;' d="M438.03 1082.63 L439.00 1082.63 L439.80 1082.63 L441.26 1082.63 L442.25 1082.72 " stroke-linecap='round' stroke-linejoin='round' brush-type='1' stroke-wetness='0.5'></path><path  style = ' stroke:#000000;  fill:none;  stroke-width:1.0;' d="M445.66 1084.70 L445.59 1085.28 L445.57 1086.30 L445.53 1088.06 L445.57 1089.70 L446.00 1090.56 L446.91 1090.69 L448.29 1089.87 L449.62 1088.28 L450.74 1086.21 L451.48 1084.66 L451.91 1083.84 L452.12 1084.01 L452.21 1085.13 L452.25 1087.12 L452.25 1089.66 L452.25 1091.81 L453.11 1093.41 L454.49 1092.89 L455.87 1091.04 L456.17 1088.41 L455.92 1086.77 L455.66 1085.87 L455.87 1085.22 L456.73 1084.57 L458.33 1083.93 L460.27 1083.41 L461.91 1083.02 " stroke-linecap='round' stroke-linejoin='round' brush-type='1' stroke-wetness='0.5'></path><path  style = ' stroke:#000000;  fill:none;  stroke-width:1.0;' d="M462.08 1087.80 L462.40 1088.26 L462.94 1088.41 L464.19 1088.62 L466.00 1088.11 L468.07 1087.12 L469.92 1085.82 L471.09 1084.66 L471.56 1083.84 L471.47 1083.37 L470.74 1083.19 L469.23 1083.28 L467.25 1083.97 L465.31 1085.39 L463.85 1087.68 L463.16 1089.83 L463.63 1091.60 L465.31 1092.46 " stroke-linecap='round' stroke-linejoin='round' brush-type='1' stroke-wetness='0.5'></path><path  style = ' stroke:#000000;  fill:none;  stroke-width:1.0;' d="M475.27 1086.90 L475.33 1085.35 L474.79 1084.87 L473.97 1084.10 L472.90 1084.66 L472.38 1085.48 L472.25 1086.47 L472.64 1087.46 L473.20 1088.41 L473.71 1089.18 L473.93 1089.92 L473.76 1090.65 L472.94 1091.43 L470.74 1092.29 L467.81 1092.93 " stroke-linecap='round' stroke-linejoin='round' brush-type='1' stroke-wetness='0.5'></path></g><g id='id-text-layer'  type='type-normal' preserveAspectRatio="none" ><text  style = 'fill: #000000; font-family:Helvetica-Light; font-size:18.0; ' preserveAspectRatio="none" x= '40' y='40' width = '688' height = '944' transform="rotate(   0,  384,  512)" ><tspan visibility='hidden'><![CDATA[]]></tspan></text></g><recordings ></recordings><defs   ></defs><htext lang='en_US' timestamp='20190131-110724'><![CDATA[..
 Hyperbolic Geometry:tHn={ZCI7m(> 0}
g=[YI]e6K2, R) Preserves real axis and compliments
If dd-bc <0 then g. z= dzttbcztd
Then Lie Group is PGLGR) for XHH']]></htext></svg> 