<?xml version="1.0" standalone="no"?> <!DOCTYPE svg PUBLIC "-//W3C//DTD SVG 1.1//EN" "http://www.w3.org/Graphics/SVG/1.1/DTD/svg11.dtd"> <svg   version="1.1"     xmlns="http://www.w3.org/2000/svg"  xmlns:xlink="http://www.w3.org/1999/xlink" name="" width="768.0" height="1024.0" background="N_PAPERBACKGROUND_WHITE_WITH_GRAY_LINE" line-height="30.0" margin-top="40.0" margin-right="40.0" margin-bottom="40.0" margin-left="40.0"><g id='id-background-layer'  type='type-normal' preserveAspectRatio="none" ><rect  style = ' stroke:#FFFFFF;  fill:#FFFFFF;  stroke-width:0.0;' x="0" y="0" width="768" height="1024" preserveAspectRatio="none" transform="rotate(   0,  384,  512)" ></rect><polyline  style = ' stroke:#D7D6D6;  fill:none;  stroke-width:1.0;' points = ' 0,70 768,70' preserveAspectRatio="none" transform="rotate(   0,  384,   70)" ></polyline><polyline  style = ' stroke:#D7D6D6;  fill:none;  stroke-width:1.0;' points = ' 0,100 768,100' preserveAspectRatio="none" transform="rotate(   0,  384,  100)" ></polyline><polyline  style = ' stroke:#D7D6D6;  fill:none;  stroke-width:1.0;' points = ' 0,130 768,130' preserveAspectRatio="none" transform="rotate(   0,  384,  130)" ></polyline><polyline  style = ' stroke:#D7D6D6;  fill:none;  stroke-width:1.0;' points = ' 0,160 768,160' preserveAspectRatio="none" transform="rotate(   0,  384,  160)" ></polyline><polyline  style = ' stroke:#D7D6D6;  fill:none;  stroke-width:1.0;' points = ' 0,190 768,190' preserveAspectRatio="none" transform="rotate(   0,  384,  190)" ></polyline><polyline  style = ' stroke:#D7D6D6;  fill:none;  stroke-width:1.0;' points = ' 0,220 768,220' preserveAspectRatio="none" transform="rotate(   0,  384,  220)" ></polyline><polyline  style = ' stroke:#D7D6D6;  fill:none;  stroke-width:1.0;' points = ' 0,250 768,250' preserveAspectRatio="none" transform="rotate(   0,  384,  250)" ></polyline><polyline  style = ' stroke:#D7D6D6;  fill:none;  stroke-width:1.0;' points = ' 0,280 768,280' preserveAspectRatio="none" transform="rotate(   0,  384,  280)" ></polyline><polyline  style = ' stroke:#D7D6D6;  fill:none;  stroke-width:1.0;' points = ' 0,310 768,310' preserveAspectRatio="none" transform="rotate(   0,  384,  310)" ></polyline><polyline  style = ' stroke:#D7D6D6;  fill:none;  stroke-width:1.0;' points = ' 0,340 768,340' preserveAspectRatio="none" transform="rotate(   0,  384,  340)" ></polyline><polyline  style = ' stroke:#D7D6D6;  fill:none;  stroke-width:1.0;' points = ' 0,370 768,370' preserveAspectRatio="none" transform="rotate(   0,  384,  370)" ></polyline><polyline  style = ' stroke:#D7D6D6;  fill:none;  stroke-width:1.0;' points = ' 0,400 768,400' preserveAspectRatio="none" transform="rotate(   0,  384,  400)" ></polyline><polyline  style = ' stroke:#D7D6D6;  fill:none;  stroke-width:1.0;' points = ' 0,430 768,430' preserveAspectRatio="none" transform="rotate(   0,  384,  430)" ></polyline><polyline  style = ' stroke:#D7D6D6;  fill:none;  stroke-width:1.0;' points = ' 0,460 768,460' preserveAspectRatio="none" transform="rotate(   0,  384,  460)" ></polyline><polyline  style = ' stroke:#D7D6D6;  fill:none;  stroke-width:1.0;' points = ' 0,490 768,490' preserveAspectRatio="none" transform="rotate(   0,  384,  490)" ></polyline><polyline  style = ' stroke:#D7D6D6;  fill:none;  stroke-width:1.0;' points = ' 0,520 768,520' preserveAspectRatio="none" transform="rotate(   0,  384,  520)" ></polyline><polyline  style = ' stroke:#D7D6D6;  fill:none;  stroke-width:1.0;' points = ' 0,550 768,550' preserveAspectRatio="none" transform="rotate(   0,  384,  550)" ></polyline><polyline  style = ' stroke:#D7D6D6;  fill:none;  stroke-width:1.0;' points = ' 0,580 768,580' preserveAspectRatio="none" transform="rotate(   0,  384,  580)" ></polyline><polyline  style = ' stroke:#D7D6D6;  fill:none;  stroke-width:1.0;' points = ' 0,610 768,610' preserveAspectRatio="none" transform="rotate(   0,  384,  610)" ></polyline><polyline  style = ' stroke:#D7D6D6;  fill:none;  stroke-width:1.0;' points = ' 0,640 768,640' preserveAspectRatio="none" transform="rotate(   0,  384,  640)" ></polyline><polyline  style = ' stroke:#D7D6D6;  fill:none;  stroke-width:1.0;' points = ' 0,670 768,670' preserveAspectRatio="none" transform="rotate(   0,  384,  670)" ></polyline><polyline  style = ' stroke:#D7D6D6;  fill:none;  stroke-width:1.0;' points = ' 0,700 768,700' preserveAspectRatio="none" transform="rotate(   0,  384,  700)" ></polyline><polyline  style = ' stroke:#D7D6D6;  fill:none;  stroke-width:1.0;' points = ' 0,730 768,730' preserveAspectRatio="none" transform="rotate(   0,  384,  730)" ></polyline><polyline  style = ' stroke:#D7D6D6;  fill:none;  stroke-width:1.0;' points = ' 0,760 768,760' preserveAspectRatio="none" transform="rotate(   0,  384,  760)" ></polyline><polyline  style = ' stroke:#D7D6D6;  fill:none;  stroke-width:1.0;' points = ' 0,790 768,790' preserveAspectRatio="none" transform="rotate(   0,  384,  790)" ></polyline><polyline  style = ' stroke:#D7D6D6;  fill:none;  stroke-width:1.0;' points = ' 0,820 768,820' preserveAspectRatio="none" transform="rotate(   0,  384,  820)" ></polyline><polyline  style = ' stroke:#D7D6D6;  fill:none;  stroke-width:1.0;' points = ' 0,850 768,850' preserveAspectRatio="none" transform="rotate(   0,  384,  850)" ></polyline><polyline  style = ' stroke:#D7D6D6;  fill:none;  stroke-width:1.0;' points = ' 0,880 768,880' preserveAspectRatio="none" transform="rotate(   0,  384,  880)" ></polyline><polyline  style = ' stroke:#D7D6D6;  fill:none;  stroke-width:1.0;' points = ' 0,910 768,910' preserveAspectRatio="none" transform="rotate(   0,  384,  910)" ></polyline><polyline  style = ' stroke:#D7D6D6;  fill:none;  stroke-width:1.0;' points = ' 0,940 768,940' preserveAspectRatio="none" transform="rotate(   0,  384,  940)" ></polyline><polyline  style = ' stroke:#D7D6D6;  fill:none;  stroke-width:1.0;' points = ' 0,970 768,970' preserveAspectRatio="none" transform="rotate(   0,  384,  970)" ></polyline><polyline  style = ' stroke:#C74F4F;  fill:none;  stroke-width:0.5;' points = ' 40,0 40,1024' preserveAspectRatio="none" transform="rotate(   0,   40,  512)" ></polyline><polyline  style = ' stroke:#B6B6B6; stroke-opacity:0.8; fill:none;  stroke-width:0.5;' points = ' 728,0 728,1024' preserveAspectRatio="none" transform="rotate(   0,  728,  512)" ></polyline></g><g id='id-main-layer'  type='type-normal' preserveAspectRatio="none" ><path  style = ' stroke:#000000;  fill:none;  stroke-width:1.0;' d="M42.23 75.36 L42.41 75.09 L43.00 75.01 L44.49 74.83 L46.79 74.83 L49.41 74.83 L51.95 74.83 L54.25 74.83 L56.18 74.83 " stroke-linecap='round' stroke-linejoin='round' brush-type='1' stroke-wetness='0.5'></path><path  style = ' stroke:#000000;  fill:none;  stroke-width:1.0;' d="M52.07 75.27 L51.93 75.72 L51.89 76.88 L51.86 79.36 L51.95 82.85 L52.13 86.28 L52.31 89.17 L52.55 91.23 L52.73 92.42 " stroke-linecap='round' stroke-linejoin='round' brush-type='1' stroke-wetness='0.5'></path><path  style = ' stroke:#000000;  fill:none;  stroke-width:1.0;' d="M60.57 75.54 L60.66 76.03 L60.69 77.15 L60.63 80.73 L60.36 85.26 L60.00 89.68 L59.73 92.21 L59.61 93.49 L59.61 93.23 L59.88 91.47 L60.54 89.02 L61.52 86.87 L62.57 85.77 L63.46 85.62 L64.12 86.70 L64.50 88.60 L64.74 90.93 L64.92 92.72 " stroke-linecap='round' stroke-linejoin='round' brush-type='1' stroke-wetness='0.5'></path><path  style = ' stroke:#000000;  fill:none;  stroke-width:1.0;' d="M65.85 92.18 L65.67 91.38 L65.61 90.75 L65.67 89.50 L66.12 88.54 L66.89 87.86 L67.81 87.56 L68.71 87.89 L69.34 88.75 L69.69 89.95 L69.81 90.90 L69.87 91.44 L69.90 91.17 L70.14 90.21 L70.68 88.93 L71.48 88.01 L72.29 87.80 L72.91 88.46 L73.24 90.04 L73.18 92.30 L72.50 94.81 " stroke-linecap='round' stroke-linejoin='round' brush-type='1' stroke-wetness='0.5'></path><path  style = ' stroke:#000000;  fill:none;  stroke-width:1.0;' d="M52.52 97.01 L52.87 97.19 L53.74 97.25 L55.77 97.37 L58.87 97.37 L62.54 97.40 L66.44 97.43 L70.05 97.46 L73.27 97.46 L75.84 97.46 L77.81 97.46 L78.91 97.40 " stroke-linecap='round' stroke-linejoin='round' brush-type='1' stroke-wetness='0.5'></path><path  style = ' stroke:#000000;  fill:none;  stroke-width:1.0;' d="M78.64 88.16 a0.50 0.50 0 1 0 0.01 0 " stroke-linecap='round' stroke-linejoin='round' brush-type='1' stroke-wetness='0.5'></path><path  style = ' stroke:#000000;  fill:none;  stroke-width:1.0;' d="M78.73 92.36 a0.50 0.50 0 1 0 0.01 0 " stroke-linecap='round' stroke-linejoin='round' brush-type='1' stroke-wetness='0.5'></path><path  style = ' stroke:#000000;  fill:none;  stroke-width:1.0;' d="M87.23 80.82 L87.27 81.18 L87.29 82.52 L87.35 85.11 L87.38 88.54 L87.41 91.74 L87.32 94.36 L87.20 96.24 L87.08 97.22 L87.14 97.67 L88.09 97.43 L89.76 96.78 L92.03 95.73 L93.97 94.66 L95.43 93.70 " stroke-linecap='round' stroke-linejoin='round' brush-type='1' stroke-wetness='0.5'></path><path  style = ' stroke:#000000;  fill:none;  stroke-width:1.0;' d="M98.77 91.38 L99.35 91.56 L99.84 91.62 L100.92 91.65 L102.08 91.29 L103.27 90.51 L104.23 89.41 L104.70 88.19 L104.59 87.20 L103.90 86.64 L102.71 86.61 L101.28 87.47 L99.87 89.11 L98.89 91.23 L98.41 93.17 L98.56 94.60 L99.28 95.49 L100.62 95.85 L102.29 95.40 " stroke-linecap='round' stroke-linejoin='round' brush-type='1' stroke-wetness='0.5'></path><path  style = ' stroke:#000000;  fill:none;  stroke-width:1.0;' d="M108.61 85.74 L108.92 86.64 L109.03 88.07 L109.24 90.66 L109.06 93.35 L108.67 95.43 L108.13 96.78 " stroke-linecap='round' stroke-linejoin='round' brush-type='1' stroke-wetness='0.5'></path><path  style = ' stroke:#000000;  fill:none;  stroke-width:1.0;' d="M103.42 92.27 L104.14 92.36 L105.18 92.39 L107.54 92.42 L110.88 92.15 L113.98 91.68 " stroke-linecap='round' stroke-linejoin='round' brush-type='1' stroke-wetness='0.5'></path><path  style = ' stroke:#000000;  fill:none;  stroke-width:1.0;' d="M126.33 77.78 L126.82 78.27 L127.58 79.18 L129.49 81.36 L131.99 84.25 L134.82 87.44 L137.30 90.27 L139.33 92.63 L140.73 94.30 L141.56 95.37 " stroke-linecap='round' stroke-linejoin='round' brush-type='1' stroke-wetness='0.5'></path><path  style = ' stroke:#000000;  fill:none;  stroke-width:1.0;' d="M140.73 77.24 L139.97 77.51 L138.73 78.94 L136.41 82.13 L133.75 86.67 L131.45 90.99 L129.52 94.45 L128.09 96.92 L127.19 98.42 " stroke-linecap='round' stroke-linejoin='round' brush-type='1' stroke-wetness='0.5'></path><path  style = ' stroke:#000000;  fill:none;  stroke-width:1.0;' d="M152.18 98.36 L152.09 97.24 L152.36 95.85 L153.08 93.32 L154.48 90.87 L156.15 89.17 L157.85 88.25 L159.25 88.34 L160.23 89.35 L160.71 91.20 L160.86 93.29 L160.86 95.22 L160.86 96.51 " stroke-linecap='round' stroke-linejoin='round' brush-type='1' stroke-wetness='0.5'></path><path  style = ' stroke:#000000;  fill:none;  stroke-width:1.0;' d="M166.41 91.02 L165.20 93.17 L164.68 94.78 L163.78 97.37 L164.29 98.53 L165.69 98.21 L167.60 96.83 L169.09 94.87 L169.78 93.05 L169.39 91.77 L168.34 91.08 L166.97 90.87 L165.99 91.29 L165.48 91.94 " stroke-linecap='round' stroke-linejoin='round' brush-type='1' stroke-wetness='0.5'></path><path  style = ' stroke:#000000;  fill:none;  stroke-width:1.0;' d="M173.03 94.96 L173.52 95.00 L174.37 94.69 L174.55 94.21 " stroke-linecap='round' stroke-linejoin='round' brush-type='1' stroke-wetness='0.5'></path><path  style = ' stroke:#000000;  fill:none;  stroke-width:1.0;' d="M182.60 89.32 L182.47 89.95 L182.42 90.81 L182.30 92.63 L182.27 94.72 L182.24 96.66 " stroke-linecap='round' stroke-linejoin='round' brush-type='1' stroke-wetness='0.5'></path><path  style = ' stroke:#000000;  fill:none;  stroke-width:1.0;' d="M172.94 94.51 L173.34 94.55 L174.04 94.51 L175.38 94.18 L176.93 93.47 L178.16 92.45 L178.87 91.50 L179.05 90.75 L178.51 90.33 L177.47 90.18 L175.95 90.66 L174.55 91.77 L173.50 93.49 L172.97 95.25 L172.94 96.81 L173.56 97.94 L174.91 98.59 L176.81 98.86 " stroke-linecap='round' stroke-linejoin='round' brush-type='1' stroke-wetness='0.5'></path><path  style = ' stroke:#000000;  fill:none;  stroke-width:1.0;' d="M179.11 92.27 L179.47 92.27 L180.33 92.21 L182.00 91.91 L184.06 91.23 L185.64 90.42 " stroke-linecap='round' stroke-linejoin='round' brush-type='1' stroke-wetness='0.5'></path><path  style = ' stroke:#000000;  fill:none;  stroke-width:1.0;' d="M185.91 85.29 L186.13 86.01 L186.27 87.44 L186.63 90.24 L186.89 93.49 L187.13 96.15 L187.25 97.94 L187.31 98.83 L187.58 98.27 L188.06 96.78 L188.92 94.81 L189.91 93.64 L190.95 93.20 L191.78 93.67 L192.32 94.75 L192.56 96.30 L192.62 97.58 " stroke-linecap='round' stroke-linejoin='round' brush-type='1' stroke-wetness='0.5'></path><path  style = ' stroke:#000000;  fill:none;  stroke-width:1.0;' d="M194.86 94.78 L195.39 94.82 L195.81 94.84 L196.71 94.72 L197.60 94.27 L198.43 93.49 L199.03 92.57 L199.27 91.71 L199.12 91.08 L198.55 90.78 L197.63 91.20 L196.62 92.39 L195.87 94.27 L195.48 96.21 L195.54 97.85 L196.17 98.86 " stroke-linecap='round' stroke-linejoin='round' brush-type='1' stroke-wetness='0.5'></path><path  style = ' stroke:#000000;  fill:none;  stroke-width:1.0;' d="M200.94 95.76 L200.67 95.05 L200.73 94.21 L201.03 92.75 L202.01 91.59 L203.33 91.02 L204.73 90.93 L205.83 91.44 L206.55 92.33 L206.84 93.58 L206.93 94.84 L206.93 96.09 L206.93 97.22 L206.93 98.06 " stroke-linecap='round' stroke-linejoin='round' brush-type='1' stroke-wetness='0.5'></path><path  style = ' stroke:#000000;  fill:none;  stroke-width:1.0;' d="M214.36 93.26 L213.82 93.52 L213.26 93.97 L212.24 94.96 L211.47 96.21 L211.08 97.34 L211.35 98.03 L212.24 97.67 L213.52 96.54 L214.60 94.99 L215.19 93.82 L215.40 93.17 L215.37 93.38 L215.22 94.42 L214.99 96.15 " stroke-linecap='round' stroke-linejoin='round' brush-type='1' stroke-wetness='0.5'></path><path  style = ' stroke:#000000;  fill:none;  stroke-width:1.0;' d="M218.92 97.55 L218.92 97.06 L218.92 96.39 L219.10 95.25 L219.49 94.27 L220.23 93.76 L221.16 93.58 L222.14 93.94 L222.95 94.81 L223.46 96.15 L223.69 97.58 " stroke-linecap='round' stroke-linejoin='round' brush-type='1' stroke-wetness='0.5'></path><path  style = ' stroke:#000000;  fill:none;  stroke-width:1.0;' d="M240.39 89.68 L239.45 89.77 L238.69 90.30 L237.20 91.41 L235.98 92.93 L235.12 94.24 L234.67 95.14 L234.94 95.61 L235.89 95.85 L237.32 96.03 L238.69 96.33 L239.53 96.81 L239.89 97.52 L239.68 98.48 L238.96 99.52 L237.77 100.56 L236.61 101.25 " stroke-linecap='round' stroke-linejoin='round' brush-type='1' stroke-wetness='0.5'></path><path  style = ' stroke:#000000;  fill:none;  stroke-width:1.0;' d="M245.58 93.08 L244.87 94.69 L244.48 96.03 L243.85 98.36 L244.15 99.85 L245.43 100.50 L247.73 99.97 " stroke-linecap='round' stroke-linejoin='round' brush-type='1' stroke-wetness='0.5'></path><path  style = ' stroke:#000000;  fill:none;  stroke-width:1.0;' d="M252.74 83.50 L252.87 84.04 L252.92 85.09 L253.01 87.53 L253.01 90.96 L253.01 94.63 L253.04 97.64 L253.13 99.49 L253.28 100.26 L253.55 100.09 L254.02 98.95 L254.74 97.19 L255.63 95.46 L256.53 94.48 L257.33 94.27 L257.93 94.90 L258.32 96.09 L258.53 97.52 L258.62 98.59 " stroke-linecap='round' stroke-linejoin='round' brush-type='1' stroke-wetness='0.5'></path><path  style = ' stroke:#000000;  fill:none;  stroke-width:1.0;' d="M262.04 94.87 L262.63 94.73 L263.09 94.66 L264.07 94.36 L264.97 93.82 L265.74 93.05 L266.19 92.21 L266.22 91.62 L265.71 91.29 L264.79 91.53 L263.63 92.45 L262.61 94.03 L261.99 95.79 L261.78 97.31 L262.25 98.30 L263.12 98.77 " stroke-linecap='round' stroke-linejoin='round' brush-type='1' stroke-wetness='0.5'></path><path  style = ' stroke:#000000;  fill:none;  stroke-width:1.0;' d="M269.20 96.57 L269.02 95.99 L268.96 95.19 L269.05 93.73 L269.62 92.27 L270.60 91.29 L271.80 90.78 L272.90 91.05 L273.71 92.06 L274.09 93.64 L274.18 95.16 L274.12 96.12 L274.06 96.09 L274.27 94.99 L274.96 93.35 L276.18 91.88 L277.58 91.17 L278.86 91.02 L279.88 91.47 L280.59 92.39 L281.04 93.67 L281.22 94.96 L281.28 96.06 " stroke-linecap='round' stroke-linejoin='round' brush-type='1' stroke-wetness='0.5'></path><path  style = ' stroke:#000000;  fill:none;  stroke-width:1.0;' d="M285.31 93.52 L285.89 93.66 L286.35 93.70 L287.30 93.76 L288.23 93.49 L289.21 92.96 L290.08 92.18 L290.61 91.35 L290.73 90.54 L290.41 89.98 L289.66 89.74 L288.56 90.27 L287.42 91.50 L286.56 93.32 L286.14 95.05 L286.35 96.51 L287.21 97.58 L288.74 98.33 L290.58 98.68 L292.49 98.59 L293.92 98.30 " stroke-linecap='round' stroke-linejoin='round' brush-type='1' stroke-wetness='0.5'></path><path  style = ' stroke:#000000;  fill:none;  stroke-width:1.0;' d="M297.74 98.18 a0.50 0.50 0 1 0 0.01 0 " stroke-linecap='round' stroke-linejoin='round' brush-type='1' stroke-wetness='0.5'></path><path  style = ' stroke:#000000;  fill:none;  stroke-width:1.0;' d="M306.42 83.95 L306.11 84.71 L305.76 86.49 L305.05 89.83 L304.39 93.67 L303.97 96.66 L303.86 98.68 L304.21 99.82 L305.05 100.32 L306.45 100.35 L308.09 99.94 L309.67 99.13 L310.92 98.12 L311.70 97.28 " stroke-linecap='round' stroke-linejoin='round' brush-type='1' stroke-wetness='0.5'></path><path  style = ' stroke:#000000;  fill:none;  stroke-width:1.0;' d="M312.32 95.94 L312.77 96.07 L313.58 96.12 L314.95 96.15 L316.38 95.82 L317.30 95.22 L317.84 94.48 L317.78 93.85 L317.13 93.47 L315.96 93.41 L314.65 94.00 L313.64 95.25 L313.10 96.98 L313.10 98.62 L313.76 99.85 L314.86 100.47 " stroke-linecap='round' stroke-linejoin='round' brush-type='1' stroke-wetness='0.5'></path><path  style = ' stroke:#000000;  fill:none;  stroke-width:1.0;' d="M325.66 89.68 L325.48 90.30 L325.39 91.20 L325.09 92.93 L324.76 94.81 L324.28 96.51 " stroke-linecap='round' stroke-linejoin='round' brush-type='1' stroke-wetness='0.5'></path><path  style = ' stroke:#000000;  fill:none;  stroke-width:1.0;' d="M322.52 92.63 L322.84 92.59 L323.63 92.57 L325.30 92.51 L327.65 92.24 " stroke-linecap='round' stroke-linejoin='round' brush-type='1' stroke-wetness='0.5'></path><path  style = ' stroke:#000000;  fill:none;  stroke-width:1.0;' d="M338.54 85.38 L339.03 85.29 L340.15 85.26 L342.12 85.03 L344.50 84.46 L346.47 83.33 L348.02 81.92 L348.86 80.52 L349.07 79.36 L348.68 78.41 L347.93 77.75 L346.98 77.45 L346.08 77.84 L345.37 79.27 L344.95 81.95 L344.80 85.56 L344.80 89.29 L344.77 92.57 L344.50 95.08 L343.94 96.89 L343.01 97.97 L341.79 98.45 L340.45 98.03 L339.37 96.95 L338.84 95.46 L339.22 94.30 L340.54 93.70 L342.92 93.61 L345.70 94.00 L348.44 94.81 L350.68 95.94 L352.41 97.10 " stroke-linecap='round' stroke-linejoin='round' brush-type='1' stroke-wetness='0.5'></path><path  style = ' stroke:#000000;  fill:none;  stroke-width:1.0;' d="M366.63 82.16 L366.72 82.65 L366.75 83.62 L366.81 85.83 L366.78 88.75 L366.72 91.71 L366.63 94.30 " stroke-linecap='round' stroke-linejoin='round' brush-type='1' stroke-wetness='0.5'></path><path  style = ' stroke:#000000;  fill:none;  stroke-width:1.0;' d="M371.10 89.77 L371.19 90.13 L371.22 91.35 L371.28 93.38 L371.28 95.88 L371.28 97.55 " stroke-linecap='round' stroke-linejoin='round' brush-type='1' stroke-wetness='0.5'></path><path  style = ' stroke:#000000;  fill:none;  stroke-width:1.0;' d="M373.79 95.67 L373.61 95.05 L373.55 94.30 L373.70 93.05 L374.29 92.06 L375.34 91.62 L376.44 91.80 L377.37 92.78 L377.90 94.48 L378.11 96.42 L378.17 97.85 " stroke-linecap='round' stroke-linejoin='round' brush-type='1' stroke-wetness='0.5'></path><path  style = ' stroke:#000000;  fill:none;  stroke-width:1.0;' d="M381.03 94.24 L381.62 94.33 L382.08 94.36 L383.12 94.27 L384.14 93.82 L385.06 93.11 L385.63 92.21 L385.81 91.41 L385.48 90.81 L384.70 90.66 L383.66 91.26 L382.73 92.57 L382.23 94.39 L382.23 96.18 L383.15 97.55 " stroke-linecap='round' stroke-linejoin='round' brush-type='1' stroke-wetness='0.5'></path><path  style = ' stroke:#000000;  fill:none;  stroke-width:1.0;' d="M397.32 95.05 L397.67 94.15 L398.54 92.99 L400.21 91.20 L402.21 89.98 L403.73 89.92 L404.56 90.99 L404.47 92.90 L403.58 95.11 L402.06 96.78 L400.33 97.64 L398.75 97.61 L397.50 96.39 L396.66 93.79 L396.21 89.92 L396.24 86.13 L396.57 83.39 L396.99 82.31 L397.26 83.03 L397.38 85.56 L397.41 89.38 L397.41 93.26 L397.59 95.94 " stroke-linecap='round' stroke-linejoin='round' brush-type='1' stroke-wetness='0.5'></path><path  style = ' stroke:#000000;  fill:none;  stroke-width:1.0;' d="M407.96 90.39 L407.74 91.11 L407.64 92.27 L407.43 94.09 L407.40 95.64 L407.70 96.24 L408.47 95.85 L409.57 94.66 L410.53 92.99 L411.06 91.74 L411.24 91.14 L411.27 91.88 L411.27 93.52 L411.27 95.43 " stroke-linecap='round' stroke-linejoin='round' brush-type='1' stroke-wetness='0.5'></path><path  style = ' stroke:#000000;  fill:none;  stroke-width:1.0;' d="M413.78 95.76 L414.00 95.00 L414.41 94.51 L415.21 93.76 L416.08 93.67 L416.67 94.30 L416.94 95.52 L417.00 97.13 " stroke-linecap='round' stroke-linejoin='round' brush-type='1' stroke-wetness='0.5'></path><path  style = ' stroke:#000000;  fill:none;  stroke-width:1.0;' d="M422.01 93.61 L421.43 93.17 L420.85 93.20 L419.77 93.67 L418.94 95.14 L418.46 96.98 L418.31 98.39 L418.70 99.07 L419.56 98.51 L420.70 97.13 L421.65 94.81 L422.25 92.00 L422.55 88.72 L422.67 85.83 L422.73 83.86 L422.81 83.03 L422.93 83.15 L423.02 84.55 L423.08 87.32 L423.08 90.84 L423.05 94.03 " stroke-linecap='round' stroke-linejoin='round' brush-type='1' stroke-wetness='0.5'></path><path  style = ' stroke:#000000;  fill:none;  stroke-width:1.0;' d="M428.72 86.19 L428.54 86.99 L428.45 87.98 L428.12 89.95 L427.77 92.09 L427.38 94.03 " stroke-linecap='round' stroke-linejoin='round' brush-type='1' stroke-wetness='0.5'></path><path  style = ' stroke:#000000;  fill:none;  stroke-width:1.0;' d="M430.15 93.88 L430.64 93.70 L431.02 93.61 L431.82 93.20 L432.51 92.51 L433.07 91.53 L433.37 90.60 L433.31 90.04 L432.78 89.89 L431.76 90.60 L430.66 92.00 L429.88 93.88 L429.61 95.46 L430.00 96.60 L431.05 97.19 L432.81 97.28 " stroke-linecap='round' stroke-linejoin='round' brush-type='1' stroke-wetness='0.5'></path><path  style = ' stroke:#000000;  fill:none;  stroke-width:1.0;' d="M446.08 92.09 L445.32 92.09 L444.70 92.36 L443.42 93.08 L442.23 94.54 L441.21 96.42 L440.56 98.39 L440.44 99.85 L441.10 100.62 L442.47 100.35 L444.29 99.22 L445.81 97.55 L446.73 96.03 L446.97 94.87 L446.46 94.15 L445.48 93.79 L444.38 93.85 L443.66 94.54 " stroke-linecap='round' stroke-linejoin='round' brush-type='1' stroke-wetness='0.5'></path><path  style = ' stroke:#000000;  fill:none;  stroke-width:1.0;' d="M449.30 99.61 L449.21 98.94 L449.18 98.21 L449.12 96.66 L449.24 94.93 L449.83 93.29 L451.06 92.18 L452.82 91.80 L454.69 92.33 L456.27 93.47 L457.44 95.02 " stroke-linecap='round' stroke-linejoin='round' brush-type='1' stroke-wetness='0.5'></path><path  style = ' stroke:#000000;  fill:none;  stroke-width:1.0;' d="M465.22 78.94 L465.62 79.70 L466.18 80.76 L467.46 83.21 L469.13 86.28 L470.98 89.41 L472.74 92.12 L474.29 94.21 L475.63 95.85 L476.67 96.98 L477.33 97.64 " stroke-linecap='round' stroke-linejoin='round' brush-type='1' stroke-wetness='0.5'></path><path  style = ' stroke:#000000;  fill:none;  stroke-width:1.0;' d="M476.23 79.39 L475.55 79.75 L474.91 80.58 L473.57 82.67 L472.20 85.80 L470.74 89.41 L469.40 92.84 L468.29 95.70 L467.67 97.85 " stroke-linecap='round' stroke-linejoin='round' brush-type='1' stroke-wetness='0.5'></path><path  style = ' stroke:#000000;  fill:none;  stroke-width:1.0;' d="M479.27 97.46 L479.45 97.91 L479.54 98.39 L479.92 99.10 " stroke-linecap='round' stroke-linejoin='round' brush-type='1' stroke-wetness='0.5'></path><path  style = ' stroke:#000000;  fill:none;  stroke-width:1.0;' d="M490.45 80.19 L491.61 80.19 L493.08 80.19 L496.03 80.19 L499.16 80.19 L501.96 80.19 L504.05 80.19 " stroke-linecap='round' stroke-linejoin='round' brush-type='1' stroke-wetness='0.5'></path><path  style = ' stroke:#000000;  fill:none;  stroke-width:1.0;' d="M500.20 82.79 L500.16 83.68 L500.14 84.82 L500.11 87.29 L500.11 90.27 L500.11 93.35 L500.26 96.27 " stroke-linecap='round' stroke-linejoin='round' brush-type='1' stroke-wetness='0.5'></path><path  style = ' stroke:#000000;  fill:none;  stroke-width:1.0;' d="M509.42 98.27 L509.51 97.86 L509.54 97.04 L509.60 95.19 L509.60 92.45 L509.60 89.41 L509.60 86.46 L509.60 84.16 L509.60 82.67 L509.60 81.92 L509.81 81.69 L510.91 81.66 L513.09 81.92 L515.77 82.34 L518.16 82.85 L519.83 83.24 L520.81 83.47 " stroke-linecap='round' stroke-linejoin='round' brush-type='1' stroke-wetness='0.5'></path><path  style = ' stroke:#000000;  fill:none;  stroke-width:1.0;' d="M508.97 88.07 L509.28 88.25 L510.40 88.31 L512.55 88.43 L515.56 88.43 L518.01 88.43 " stroke-linecap='round' stroke-linejoin='round' brush-type='1' stroke-wetness='0.5'></path><path  style = ' stroke:#000000;  fill:none;  stroke-width:1.0;' d="M519.17 98.36 L519.30 98.00 L519.74 96.92 L520.72 94.63 L522.06 91.26 L523.46 87.74 L524.75 84.55 L525.82 82.34 L526.54 81.24 L527.01 80.97 L527.49 81.72 L528.18 83.56 L528.92 86.55 L529.55 89.71 L529.94 92.42 L530.17 94.45 L530.29 95.94 " stroke-linecap='round' stroke-linejoin='round' brush-type='1' stroke-wetness='0.5'></path><path  style = ' stroke:#000000;  fill:none;  stroke-width:1.0;' d="M522.84 91.91 L523.37 91.82 L524.15 91.80 L525.91 91.71 L528.41 91.44 " stroke-linecap='round' stroke-linejoin='round' brush-type='1' stroke-wetness='0.5'></path><path  style = ' stroke:#000000;  fill:none;  stroke-width:1.0;' d="M537.96 99.61 L537.82 99.21 L537.84 98.33 L537.93 96.60 L538.17 94.24 L538.37 91.74 L538.46 89.02 L538.46 86.58 L538.34 84.52 L538.14 83.21 L537.96 82.49 L538.52 82.28 L539.93 82.25 L542.13 82.25 L544.37 82.28 L546.55 82.31 L548.31 82.37 L549.47 82.40 " stroke-linecap='round' stroke-linejoin='round' brush-type='1' stroke-wetness='0.5'></path><path  style = ' stroke:#000000;  fill:none;  stroke-width:1.0;' d="M537.87 91.65 L538.54 91.56 L539.75 91.50 L541.95 91.26 L544.31 90.87 " stroke-linecap='round' stroke-linejoin='round' brush-type='1' stroke-wetness='0.5'></path><path  style = ' stroke:#000000;  fill:none;  stroke-width:1.0;' d="M537.51 100.06 L538.40 100.28 L539.66 100.23 L542.31 99.85 L544.94 99.07 " stroke-linecap='round' stroke-linejoin='round' brush-type='1' stroke-wetness='0.5'></path><path  style = ' stroke:#000000;  fill:none;  stroke-width:1.0;' d="M554.33 89.23 a0.50 0.50 0 1 0 0.01 0 " stroke-linecap='round' stroke-linejoin='round' brush-type='1' stroke-wetness='0.5'></path><path  style = ' stroke:#000000;  fill:none;  stroke-width:1.0;' d="M554.69 93.35 a0.50 0.50 0 1 0 0.01 0 " stroke-linecap='round' stroke-linejoin='round' brush-type='1' stroke-wetness='0.5'></path><path  style = ' stroke:#000000;  fill:none;  stroke-width:1.0;' d="M57.79 110.52 L57.79 110.88 L57.79 111.90 L57.79 114.10 L57.85 117.02 L57.94 119.98 L58.09 122.51 L58.24 124.48 L58.42 125.67 " stroke-linecap='round' stroke-linejoin='round' brush-type='1' stroke-wetness='0.5'></path><path  style = ' stroke:#000000;  fill:none;  stroke-width:1.0;' d="M59.14 107.66 L58.42 107.75 L57.91 107.96 L56.81 108.61 L55.77 109.78 L54.54 111.51 L53.23 113.68 L52.07 116.34 L51.26 119.23 L50.91 122.24 L51.17 124.96 L52.16 127.22 L53.98 128.77 L56.48 129.61 L59.44 129.43 L62.57 128.12 L65.37 125.79 L67.52 123.08 L68.77 120.25 L69.28 117.56 L68.98 115.24 L68.08 113.51 L66.68 112.43 L65.16 111.78 L63.70 111.48 L62.48 111.36 L61.64 111.33 " stroke-linecap='round' stroke-linejoin='round' brush-type='1' stroke-wetness='0.5'></path><path  style = ' stroke:#000000;  fill:none;  stroke-width:1.0;' d="M81.15 115.44 L81.55 115.62 L82.34 115.80 L83.86 116.10 L85.65 116.28 L87.17 116.22 L88.27 115.80 L88.90 115.12 L89.14 114.22 L88.96 113.27 L88.42 112.28 L87.59 111.48 L86.69 111.03 L85.83 111.09 L85.08 111.98 L84.52 113.92 L84.13 116.91 L83.83 120.36 L83.44 123.73 L82.96 126.54 L82.34 128.60 L81.65 129.82 L80.76 130.35 L79.77 130.18 L78.82 129.49 L78.25 128.60 L78.07 127.88 L78.64 127.52 L79.98 127.37 L82.07 127.34 L84.28 127.55 L86.24 128.03 L87.80 128.77 L89.14 129.46 " stroke-linecap='round' stroke-linejoin='round' brush-type='1' stroke-wetness='0.5'></path><path  style = ' stroke:#000000;  fill:none;  stroke-width:1.0;' d="M116.75 117.68 L116.04 117.64 L114.78 118.16 L112.70 119.35 L110.70 121.29 L109.57 123.29 L109.03 124.87 L109.42 125.73 L110.67 125.52 L112.49 124.54 L114.10 123.08 L115.14 121.74 L115.65 120.78 L115.83 120.33 L115.86 121.05 L115.83 122.57 L115.80 124.39 " stroke-linecap='round' stroke-linejoin='round' brush-type='1' stroke-wetness='0.5'></path><path  style = ' stroke:#000000;  fill:none;  stroke-width:1.0;' d="M118.45 124.12 L118.50 123.45 L118.66 122.78 L119.17 121.62 L120.00 120.84 L121.14 120.51 L122.18 120.81 L122.96 121.65 L123.28 122.96 L123.37 124.12 L123.34 124.87 L123.55 124.66 L124.15 123.76 L125.19 122.57 L126.36 121.80 L127.31 121.71 L127.94 122.39 L128.23 123.85 L128.32 125.79 " stroke-linecap='round' stroke-linejoin='round' brush-type='1' stroke-wetness='0.5'></path><path  style = ' stroke:#000000;  fill:none;  stroke-width:1.0;' d="M129.73 133.78 L129.90 133.25 L129.96 132.62 L130.17 131.22 L130.41 129.22 L130.89 126.63 L131.57 123.85 L132.38 121.62 L133.10 120.36 L133.69 120.01 L134.11 120.60 L134.38 121.95 L134.32 123.79 L133.75 125.67 L132.62 127.22 L131.10 128.27 " stroke-linecap='round' stroke-linejoin='round' brush-type='1' stroke-wetness='0.5'></path><path  style = ' stroke:#000000;  fill:none;  stroke-width:1.0;' d="M136.26 114.64 L136.44 115.40 L136.49 116.43 L136.61 118.49 L136.61 120.78 L136.61 122.96 L136.61 124.93 L136.61 126.36 " stroke-linecap='round' stroke-linejoin='round' brush-type='1' stroke-wetness='0.5'></path><path  style = ' stroke:#000000;  fill:none;  stroke-width:1.0;' d="M140.73 124.03 L141.36 123.76 L141.83 123.64 L142.82 123.20 L143.68 122.63 L144.49 121.77 L145.05 120.81 L145.32 119.95 L145.11 119.35 L144.37 119.20 L143.12 119.89 L141.80 121.32 L140.76 123.26 L140.19 125.02 L139.98 126.42 L140.34 127.46 L141.15 128.21 L142.49 128.63 L143.98 128.77 L145.53 128.63 L146.72 128.36 " stroke-linecap='round' stroke-linejoin='round' brush-type='1' stroke-wetness='0.5'></path><path  style = ' stroke:#000000;  fill:none;  stroke-width:1.0;' d="M56.72 144.88 L57.08 144.03 L57.71 143.51 L59.14 142.58 L60.93 142.22 L62.57 142.49 L63.58 143.45 L63.88 145.15 L63.43 147.11 L62.48 149.08 L61.31 150.66 L60.45 151.80 L60.00 152.45 L59.88 152.84 L60.18 153.08 L61.02 153.23 L62.42 153.29 L64.00 153.05 L65.46 152.45 L66.59 151.50 " stroke-linecap='round' stroke-linejoin='round' brush-type='1' stroke-wetness='0.5'></path><path  style = ' stroke:#000000;  fill:none;  stroke-width:1.0;' d="M68.98 141.57 L67.37 141.12 L64.83 141.27 L60.36 142.28 L56.21 144.43 L53.47 147.23 L51.83 150.01 L50.88 152.90 L50.73 155.58 L51.59 157.76 L53.53 159.28 L56.57 160.09 L60.30 160.24 L64.27 159.49 L67.87 158.00 L70.59 156.06 L72.20 153.85 L72.77 151.35 L72.23 148.43 L70.77 145.47 L68.68 142.88 L66.44 140.82 L64.62 139.42 " stroke-linecap='round' stroke-linejoin='round' brush-type='1' stroke-wetness='0.5'></path><path  style = ' stroke:#000000;  fill:none;  stroke-width:1.0;' d="M56.27 172.52 L56.94 171.90 L57.94 171.69 L59.76 171.36 L61.61 171.72 L62.86 172.40 L63.52 173.45 L63.61 174.64 L63.16 175.80 L62.36 176.73 L61.49 177.32 L60.96 177.62 L61.16 177.77 L62.00 178.04 L63.25 178.64 L64.30 179.44 L64.86 180.40 L64.86 181.41 L64.21 182.51 L62.98 183.62 L61.31 184.51 L59.64 185.08 " stroke-linecap='round' stroke-linejoin='round' brush-type='1' stroke-wetness='0.5'></path><path  style = ' stroke:#000000;  fill:none;  stroke-width:1.0;' d="M65.58 166.89 L64.91 166.48 L64.12 166.35 L62.33 166.35 L60.15 167.10 L57.71 168.68 L55.44 171.18 L53.59 174.76 L52.49 178.90 L52.07 182.96 L52.78 186.12 L54.75 188.00 L57.97 188.45 L61.70 187.46 L65.07 185.50 L67.49 183.02 L68.77 180.40 L69.13 177.74 L68.68 175.30 L67.43 173.48 L65.55 172.55 L63.58 172.49 " stroke-linecap='round' stroke-linejoin='round' brush-type='1' stroke-wetness='0.5'></path><path  style = ' stroke:#000000;  fill:none;  stroke-width:1.0;' d="M59.05 199.27 L59.23 199.54 L59.29 199.87 L59.44 200.62 L59.55 201.51 L59.73 202.34 L59.94 202.94 L60.15 203.24 L60.48 203.36 L61.11 203.39 L62.12 203.39 L63.40 203.39 L64.68 203.39 L65.76 203.30 " stroke-linecap='round' stroke-linejoin='round' brush-type='1' stroke-wetness='0.5'></path><path  style = ' stroke:#000000;  fill:none;  stroke-width:1.0;' d="M67.90 198.29 L67.81 198.83 L67.79 199.54 L67.67 200.97 L67.55 202.85 L67.43 204.82 L67.37 206.88 L67.37 208.67 L67.37 210.25 L67.37 211.44 " stroke-linecap='round' stroke-linejoin='round' brush-type='1' stroke-wetness='0.5'></path><path  style = ' stroke:#000000;  fill:none;  stroke-width:1.0;' d="M69.43 193.82 L68.44 193.59 L67.55 193.52 L65.70 193.37 L63.88 193.55 L61.88 194.23 L59.73 195.78 L57.59 198.32 L55.62 201.81 L54.19 205.66 L53.35 209.32 L53.29 212.28 L54.01 214.54 L55.50 216.12 L57.62 217.05 L60.09 217.43 L62.54 217.29 L64.77 216.57 L66.56 215.32 L67.87 213.71 L68.68 211.89 L69.10 209.92 L69.28 207.89 L69.34 206.01 L69.28 204.49 L69.07 203.36 L68.65 202.58 L68.11 201.99 L67.64 201.54 L67.31 201.18 L67.10 200.91 L66.95 200.67 L66.77 200.44 L66.62 200.20 L66.44 199.90 " stroke-linecap='round' stroke-linejoin='round' brush-type='1' stroke-wetness='0.5'></path><path  style = ' stroke:#000000;  fill:none;  stroke-width:1.0;' d="M84.28 217.70 L84.28 217.30 L84.28 217.02 L84.28 216.12 L84.28 214.81 L84.31 212.72 L84.34 209.95 L84.16 206.91 L83.65 203.99 L82.88 201.57 L82.16 199.81 L81.74 198.74 L81.62 198.32 L82.10 198.20 L83.41 198.20 L85.68 198.32 L88.51 198.56 L91.43 198.89 L93.97 199.21 L95.70 199.54 " stroke-linecap='round' stroke-linejoin='round' brush-type='1' stroke-wetness='0.5'></path><path  style = ' stroke:#000000;  fill:none;  stroke-width:1.0;' d="M83.65 207.95 L84.19 208.04 L85.47 208.07 L87.86 208.13 L90.93 208.13 L93.22 208.16 " stroke-linecap='round' stroke-linejoin='round' brush-type='1' stroke-wetness='0.5'></path><path  style = ' stroke:#000000;  fill:none;  stroke-width:1.0;' d="M97.43 208.85 L96.62 209.61 L95.70 210.58 L94.21 212.31 L93.13 213.89 L92.72 214.87 L93.13 215.32 L94.30 214.87 L95.91 213.80 L97.16 212.36 L97.79 211.14 L97.88 210.19 L97.55 209.50 L97.07 209.14 L96.53 209.23 L96.24 209.98 " stroke-linecap='round' stroke-linejoin='round' brush-type='1' stroke-wetness='0.5'></path><path  style = ' stroke:#000000;  fill:none;  stroke-width:1.0;' d="M99.58 215.29 L99.58 214.75 L99.58 214.06 L99.58 212.66 L99.84 211.14 L100.59 209.80 L102.08 208.91 L104.11 208.49 L106.11 208.52 " stroke-linecap='round' stroke-linejoin='round' brush-type='1' stroke-wetness='0.5'></path><path  style = ' stroke:#000000;  fill:none;  stroke-width:1.0;' d="M117.20 209.11 L116.44 209.25 L115.50 209.65 L113.95 210.61 L112.70 212.07 L112.07 213.53 L111.98 214.60 L112.61 215.05 L113.83 214.69 L115.29 213.65 L116.48 212.13 L117.23 210.58 L117.56 209.62 L117.53 210.16 L117.23 211.86 L116.72 214.18 L116.31 215.76 " stroke-linecap='round' stroke-linejoin='round' brush-type='1' stroke-wetness='0.5'></path><path  style = ' stroke:#000000;  fill:none;  stroke-width:1.0;' d="M122.21 203.57 L122.21 204.33 L122.21 205.51 L122.15 207.89 L121.97 210.52 L121.73 212.78 L121.55 214.39 " stroke-linecap='round' stroke-linejoin='round' brush-type='1' stroke-wetness='0.5'></path><path  style = ' stroke:#000000;  fill:none;  stroke-width:1.0;' d="M124.80 203.39 L124.98 203.70 L125.04 204.61 L125.16 206.61 L125.16 209.29 L125.13 211.95 L125.01 214.33 L124.83 216.09 " stroke-linecap='round' stroke-linejoin='round' brush-type='1' stroke-wetness='0.5'></path><path  style = ' stroke:#000000;  fill:none;  stroke-width:1.0;' d="M139.12 208.13 L137.64 208.76 L136.91 209.56 L135.54 211.41 L135.12 213.50 L134.94 215.53 L135.24 217.05 L136.14 218.03 L137.42 218.48 " stroke-linecap='round' stroke-linejoin='round' brush-type='1' stroke-wetness='0.5'></path><path  style = ' stroke:#000000;  fill:none;  stroke-width:1.0;' d="M145.83 212.87 L145.07 212.83 L144.13 213.08 L142.58 213.68 L141.36 214.75 L140.82 215.91 L140.88 216.93 L141.68 217.52 L143.06 217.55 L144.70 216.90 L146.01 215.85 L146.75 214.78 L146.90 214.01 L146.51 213.44 L145.86 213.05 L145.23 212.84 " stroke-linecap='round' stroke-linejoin='round' brush-type='1' stroke-wetness='0.5'></path><path  style = ' stroke:#000000;  fill:none;  stroke-width:1.0;' d="M150.03 202.40 L150.08 202.99 L150.09 204.22 L150.12 207.03 L150.06 210.75 L149.97 214.18 L149.88 216.63 L149.86 217.82 L149.97 217.91 L150.39 216.96 L151.14 215.50 L151.97 214.27 L152.75 213.71 L153.34 213.92 L153.82 214.60 L154.15 215.65 L154.33 216.48 " stroke-linecap='round' stroke-linejoin='round' brush-type='1' stroke-wetness='0.5'></path><path  style = ' stroke:#000000;  fill:none;  stroke-width:1.0;' d="M157.55 215.02 L157.91 215.06 L158.44 215.05 L159.43 214.84 L160.41 214.30 L161.07 213.50 L161.40 212.60 L161.22 211.86 L160.56 211.41 L159.49 211.53 L158.32 212.39 L157.34 213.98 L156.71 215.88 L156.51 217.61 L156.95 218.75 " stroke-linecap='round' stroke-linejoin='round' brush-type='1' stroke-wetness='0.5'></path><path  style = ' stroke:#000000;  fill:none;  stroke-width:1.0;' d="M160.32 218.60 L160.55 216.94 L160.62 216.12 L160.77 214.57 L160.92 214.01 L161.40 213.65 L162.23 213.47 L163.27 213.41 L164.11 213.44 " stroke-linecap='round' stroke-linejoin='round' brush-type='1' stroke-wetness='0.5'></path><path  style = ' stroke:#000000;  fill:none;  stroke-width:1.0;' d="M164.97 216.90 L165.47 216.94 L165.90 216.84 L166.76 216.42 L167.48 215.65 L167.96 214.72 L168.17 213.98 L168.14 213.53 L167.90 213.35 L167.48 213.56 L167.00 214.27 L166.67 215.56 L166.56 217.11 L166.70 218.33 " stroke-linecap='round' stroke-linejoin='round' brush-type='1' stroke-wetness='0.5'></path><path  style = ' stroke:#000000;  fill:none;  stroke-width:1.0;' d="M170.52 218.60 L170.43 217.79 L170.40 217.20 L170.40 215.97 L170.73 215.02 L171.39 214.30 L172.31 213.95 L173.18 214.06 L173.86 214.63 L174.22 215.65 L174.37 216.78 " stroke-linecap='round' stroke-linejoin='round' brush-type='1' stroke-wetness='0.5'></path><path  style = ' stroke:#000000;  fill:none;  stroke-width:1.0;' d="M179.47 210.01 L179.74 210.72 L179.83 211.53 L180.00 213.17 L180.00 214.90 L179.92 216.33 " stroke-linecap='round' stroke-linejoin='round' brush-type='1' stroke-wetness='0.5'></path><path  style = ' stroke:#000000;  fill:none;  stroke-width:1.0;' d="M176.61 212.78 L177.10 212.83 L177.77 212.84 L179.11 212.87 L180.75 212.87 L182.18 212.87 " stroke-linecap='round' stroke-linejoin='round' brush-type='1' stroke-wetness='0.5'></path><path  style = ' stroke:#000000;  fill:none;  stroke-width:1.0;' d="M193.87 218.60 L194.14 218.28 L194.80 217.46 L196.11 215.79 L197.84 213.38 L199.51 210.61 L201.18 207.47 L202.70 204.31 L204.07 201.60 L205.03 199.72 L205.59 198.77 L205.80 199.09 L205.65 200.85 L205.14 203.96 L204.52 207.12 L204.10 209.56 L204.07 210.90 L204.49 211.53 L205.47 211.26 L207.11 209.95 L209.02 207.59 L210.96 204.67 L212.51 202.14 L213.58 200.53 L214.06 200.05 L213.73 201.27 L212.90 203.87 L211.71 207.41 L210.81 210.55 L210.30 213.08 L210.36 214.96 L210.99 216.30 L212.12 217.05 L213.55 217.40 L215.02 217.46 L216.30 217.29 L217.34 216.81 L218.18 216.06 L218.86 215.29 " stroke-linecap='round' stroke-linejoin='round' brush-type='1' stroke-wetness='0.5'></path><path  style = ' stroke:#000000;  fill:none;  stroke-width:1.0;' d="M224.74 219.05 a0.50 0.50 0 1 0 0.01 0 " stroke-linecap='round' stroke-linejoin='round' brush-type='1' stroke-wetness='0.5'></path><path  style = ' stroke:#000000;  fill:none;  stroke-width:1.0;' d="M233.68 200.17 L234.18 200.26 L234.82 200.29 L236.22 200.35 L238.10 200.35 L240.13 200.32 L242.03 200.29 L243.38 200.26 L244.24 200.32 L244.66 200.79 L244.84 201.96 L244.87 203.96 L244.84 206.58 L244.78 209.50 L244.72 212.25 L244.72 214.51 L244.84 216.12 L245.02 217.14 L245.20 217.58 L244.90 217.70 L243.59 217.52 L241.35 217.17 L238.52 216.69 L235.92 216.36 L233.57 216.18 L231.98 216.12 " stroke-linecap='round' stroke-linejoin='round' brush-type='1' stroke-wetness='0.5'></path><path  style = ' stroke:#000000;  fill:none;  stroke-width:1.0;' d="M241.65 210.72 L241.07 210.59 L240.28 210.55 L238.63 210.46 L237.02 210.46 L235.86 210.46 " stroke-linecap='round' stroke-linejoin='round' brush-type='1' stroke-wetness='0.5'></path><path  style = ' stroke:#000000;  fill:none;  stroke-width:1.0;' d="M247.55 216.45 L247.37 216.09 L247.31 215.62 L247.28 214.33 L247.64 212.48 L248.36 210.46 L249.28 208.91 L250.24 208.13 L251.19 208.28 L251.94 209.56 L252.38 211.53 L252.38 213.44 L252.20 214.54 L252.26 214.27 L252.83 213.17 L253.90 211.65 L255.13 210.81 L256.20 210.61 L256.98 211.11 L257.39 212.25 L257.54 213.80 L257.51 215.29 " stroke-linecap='round' stroke-linejoin='round' brush-type='1' stroke-wetness='0.5'></path><path  style = ' stroke:#000000;  fill:none;  stroke-width:1.0;' d="M264.01 210.28 L264.55 210.46 L265.27 210.58 L266.49 210.84 L267.62 211.02 L268.31 211.20 L268.70 211.35 L268.67 211.56 L268.10 211.92 L266.91 212.45 L265.33 213.17 L263.72 213.95 L262.28 214.78 " stroke-linecap='round' stroke-linejoin='round' brush-type='1' stroke-wetness='0.5'></path><path  style = ' stroke:#000000;  fill:none;  stroke-width:1.0;' d="M262.58 217.61 L263.03 217.61 L263.63 217.61 L264.94 217.52 L266.55 217.32 L268.16 216.93 " stroke-linecap='round' stroke-linejoin='round' brush-type='1' stroke-wetness='0.5'></path><path  style = ' stroke:#000000;  fill:none;  stroke-width:1.0;' d="M271.44 205.54 L271.62 205.76 L271.83 206.67 L272.27 208.55 L272.69 211.11 L273.02 213.59 L273.20 215.82 L273.29 217.76 L273.32 219.37 L273.32 220.63 L273.35 221.43 " stroke-linecap='round' stroke-linejoin='round' brush-type='1' stroke-wetness='0.5'></path><path  style = ' stroke:#000000;  fill:none;  stroke-width:1.0;' d="M283.79 219.49 L284.05 219.05 L284.59 218.30 L285.66 216.75 L287.04 214.78 L288.44 212.57 L289.87 210.10 L291.24 207.50 L292.46 205.00 L293.51 202.79 L294.40 200.97 L295.12 199.60 L295.59 198.86 L295.86 199.15 L295.98 200.62 L295.86 203.06 L295.56 205.57 L295.27 207.59 L295.18 208.73 L295.48 209.20 L296.22 208.79 L297.44 207.68 L298.85 205.80 L300.16 203.90 L301.17 202.32 L301.80 201.48 L302.07 201.69 L301.86 203.00 L301.29 205.36 L300.49 208.19 L299.86 210.96 L299.53 213.32 L299.56 215.11 L300.10 216.39 L301.20 217.20 L302.75 217.58 L304.45 217.70 L306.09 217.38 L307.46 216.69 " stroke-linecap='round' stroke-linejoin='round' brush-type='1' stroke-wetness='0.5'></path><path  style = ' stroke:#000000;  fill:none;  stroke-width:1.0;' d="M316.08 205.09 L315.68 205.04 L315.25 205.09 L314.32 205.42 L313.31 206.37 L312.32 208.10 L311.58 210.40 L311.19 212.75 L311.31 214.63 L312.00 215.79 L313.34 216.24 L315.13 215.85 L317.10 214.63 L318.86 212.66 L320.05 210.31 L320.62 207.95 L320.67 205.92 L320.38 204.49 L319.72 203.66 L318.89 203.30 " stroke-linecap='round' stroke-linejoin='round' brush-type='1' stroke-wetness='0.5'></path><path  style = ' stroke:#000000;  fill:none;  stroke-width:1.0;' d="M313.94 205.98 L314.02 206.65 L314.11 207.71 L314.38 209.59 L314.77 211.53 L315.25 213.05 L315.61 214.15 " stroke-linecap='round' stroke-linejoin='round' brush-type='1' stroke-wetness='0.5'></path><path  style = ' stroke:#000000;  fill:none;  stroke-width:1.0;' d="M312.24 213.14 L312.50 212.69 L312.98 212.22 L313.99 211.29 L315.43 210.31 L317.01 209.32 L318.59 208.46 L319.93 207.80 L320.82 207.44 " stroke-linecap='round' stroke-linejoin='round' brush-type='1' stroke-wetness='0.5'></path><path  style = ' stroke:#000000;  fill:none;  stroke-width:1.0;' d="M328.34 206.07 L328.74 206.25 L329.47 206.31 L330.90 206.22 L332.78 205.60 L334.69 204.49 L336.54 203.12 L337.88 201.69 L338.66 200.26 L338.93 198.95 L338.84 197.90 L338.54 197.25 L338.03 196.95 L337.43 197.07 L336.78 197.96 L336.18 199.99 L335.65 203.12 L335.08 206.88 L334.45 210.69 L333.80 214.06 L333.17 216.78 L332.51 218.69 L331.80 219.82 L330.96 220.27 L329.92 219.58 L329.02 218.15 L328.49 216.12 L328.79 214.51 L329.77 213.44 L331.35 212.99 L333.29 213.20 L335.20 213.89 L336.93 215.02 L338.24 216.21 L339.22 217.38 L339.82 218.30 L340.15 218.84 " stroke-linecap='round' stroke-linejoin='round' brush-type='1' stroke-wetness='0.5'></path><path  style = ' stroke:#000000;  fill:none;  stroke-width:1.0;' d="M348.29 194.17 L347.40 193.95 L346.62 193.99 L345.16 194.32 L343.94 195.37 L342.98 197.07 L342.41 199.06 L342.33 200.94 L342.92 202.26 L344.20 202.94 L346.05 202.97 L348.08 202.37 L349.87 201.33 L351.18 199.99 L351.87 198.56 L351.96 196.98 L351.63 195.66 " stroke-linecap='round' stroke-linejoin='round' brush-type='1' stroke-wetness='0.5'></path><path  style = ' stroke:#000000;  fill:none;  stroke-width:1.0;' d="M346.14 193.82 L346.28 194.58 L346.32 195.37 L346.47 196.95 L346.62 198.56 L346.89 200.17 L347.19 201.63 " stroke-linecap='round' stroke-linejoin='round' brush-type='1' stroke-wetness='0.5'></path><path  style = ' stroke:#000000;  fill:none;  stroke-width:1.0;' d="M343.91 200.35 L344.17 200.12 L344.71 199.84 L345.87 199.24 L347.48 198.62 L348.95 198.11 " stroke-linecap='round' stroke-linejoin='round' brush-type='1' stroke-wetness='0.5'></path><path  style = ' stroke:#000000;  fill:none;  stroke-width:1.0;' d="M354.64 200.79 L354.60 200.26 L354.58 199.75 L354.67 198.65 L355.06 197.42 L355.75 196.23 L356.58 195.37 L357.39 194.98 L358.04 195.22 L358.49 196.32 L358.70 198.02 L358.76 199.54 L358.76 200.32 L359.00 200.02 L359.53 199.09 L360.43 197.72 L361.38 196.74 L362.28 196.23 L363.02 196.38 L363.59 197.07 L363.98 198.32 L364.16 199.90 L364.21 201.51 L364.16 202.97 L364.07 204.13 L363.89 204.97 " stroke-linecap='round' stroke-linejoin='round' brush-type='1' stroke-wetness='0.5'></path><path  style = ' stroke:#000000;  fill:none;  stroke-width:1.0;' d="M374.77 208.94 L374.77 209.25 L374.77 209.80 L374.77 210.90 L374.77 212.34 L374.77 213.86 L374.77 215.41 L374.77 216.57 " stroke-linecap='round' stroke-linejoin='round' brush-type='1' stroke-wetness='0.5'></path><path  style = ' stroke:#000000;  fill:none;  stroke-width:1.0;' d="M381.66 210.10 L381.21 210.01 L380.71 210.04 L379.81 210.25 L379.01 210.75 L378.53 211.47 L378.32 212.36 L378.68 213.44 L379.42 214.69 L380.38 215.85 L381.06 216.84 L381.42 217.55 L381.54 218.12 L381.33 218.51 L380.74 218.78 L379.75 218.93 L378.56 218.96 L377.55 218.78 " stroke-linecap='round' stroke-linejoin='round' brush-type='1' stroke-wetness='0.5'></path><path  style = ' stroke:#000000;  fill:none;  stroke-width:1.0;' d="M400.63 208.31 L400.27 208.35 L399.88 208.40 L399.08 208.64 L398.18 209.14 L397.23 210.01 L396.36 211.11 L395.77 212.34 L395.50 213.50 L395.62 214.42 L396.24 214.93 L397.32 214.93 L398.66 214.24 L399.85 213.08 L400.72 211.71 L401.16 210.49 L401.31 209.53 L401.34 208.91 L401.34 209.00 L401.34 210.07 L401.34 212.10 L401.34 214.60 L401.16 216.99 L400.72 218.99 L399.91 220.51 L398.75 221.64 L397.17 222.41 L395.35 222.83 L393.35 222.50 " stroke-linecap='round' stroke-linejoin='round' brush-type='1' stroke-wetness='0.5'></path><path  style = ' stroke:#000000;  fill:none;  stroke-width:1.0;' d="M407.78 204.10 L407.78 204.78 L407.61 206.19 L407.16 208.73 L406.50 211.59 L405.97 213.92 L405.70 215.71 " stroke-linecap='round' stroke-linejoin='round' brush-type='1' stroke-wetness='0.5'></path><path  style = ' stroke:#000000;  fill:none;  stroke-width:1.0;' d="M412.97 210.01 L412.48 210.37 L411.63 211.38 L410.35 213.20 L409.25 215.35 L408.83 216.87 L409.10 217.70 L410.14 217.46 L411.57 216.51 L412.74 215.08 L413.30 213.77 L413.42 212.60 L413.24 211.86 L412.85 211.50 L412.44 211.62 L412.17 212.28 " stroke-linecap='round' stroke-linejoin='round' brush-type='1' stroke-wetness='0.5'></path><path  style = ' stroke:#000000;  fill:none;  stroke-width:1.0;' d="M417.89 214.75 L418.12 214.08 L418.22 213.35 L418.64 212.01 L419.24 210.81 L420.16 210.07 L421.17 209.80 L422.01 210.34 L422.49 211.65 L422.40 213.44 L421.80 215.11 L420.82 216.18 L419.77 216.69 L418.82 216.39 L418.04 215.14 L417.45 212.69 L417.12 209.20 L417.03 205.24 L417.30 201.63 L417.75 199.18 L418.28 198.05 L418.67 198.47 L418.91 200.64 L418.94 204.49 L418.70 209.02 L418.43 213.08 L418.31 215.79 " stroke-linecap='round' stroke-linejoin='round' brush-type='1' stroke-wetness='0.5'></path><path  style = ' stroke:#000000;  fill:none;  stroke-width:1.0;' d="M429.61 211.26 L428.90 211.26 L427.80 211.53 L426.04 212.28 L424.40 213.59 L423.47 215.08 L422.96 216.24 L423.14 216.84 L424.10 216.51 L425.56 215.53 L426.99 214.01 L427.88 212.45 L428.33 211.26 L428.48 211.44 L428.45 212.84 L428.33 214.99 L428.21 216.60 " stroke-linecap='round' stroke-linejoin='round' brush-type='1' stroke-wetness='0.5'></path><path  style = ' stroke:#000000;  fill:none;  stroke-width:1.0;' d="M432.48 201.96 L432.61 202.40 L432.66 203.81 L432.75 206.61 L432.63 210.34 L432.33 213.77 L431.94 216.51 L431.64 218.33 " stroke-linecap='round' stroke-linejoin='round' brush-type='1' stroke-wetness='0.5'></path><path  style = ' stroke:#000000;  fill:none;  stroke-width:1.0;' d="M435.61 203.12 L435.74 203.48 L435.79 204.43 L435.88 206.70 L435.79 210.04 L435.55 213.56 L435.28 216.60 " stroke-linecap='round' stroke-linejoin='round' brush-type='1' stroke-wetness='0.5'></path><path  style = ' stroke:#000000;  fill:none;  stroke-width:1.0;' d="M444.91 209.29 L444.82 210.05 L444.44 211.74 L443.57 214.87 L442.41 218.36 L441.36 221.01 L440.71 222.80 " stroke-linecap='round' stroke-linejoin='round' brush-type='1' stroke-wetness='0.5'></path><path  style = ' stroke:#000000;  fill:none;  stroke-width:1.0;' d="M442.41 219.49 L442.50 217.75 L442.53 216.33 L442.29 213.62 L441.72 211.56 L440.95 210.04 " stroke-linecap='round' stroke-linejoin='round' brush-type='1' stroke-wetness='0.5'></path><path  style = ' stroke:#000000;  fill:none;  stroke-width:1.0;' d="M462.72 210.90 L461.69 210.64 L460.84 210.55 L459.26 210.37 L457.95 210.55 L456.93 211.05 L456.25 212.04 L456.01 213.32 L456.42 214.57 L457.53 215.38 L459.17 215.50 L460.81 214.78 L462.00 213.62 L462.66 212.31 L462.87 211.32 L462.90 210.69 L462.90 211.23 L462.90 212.99 L462.90 215.76 L462.75 218.54 L462.30 220.89 L461.40 222.71 L460.12 224.03 L458.51 224.86 L456.78 225.25 L455.29 224.98 " stroke-linecap='round' stroke-linejoin='round' brush-type='1' stroke-wetness='0.5'></path><path  style = ' stroke:#000000;  fill:none;  stroke-width:1.0;' d="M465.76 214.48 L466.25 214.57 L466.68 214.60 L467.61 214.63 L468.62 214.30 L469.72 213.59 L470.74 212.60 L471.34 211.65 L471.57 210.93 L471.25 210.52 L470.35 210.52 L468.98 211.29 L467.55 212.78 L466.53 214.78 L466.00 216.63 L466.00 218.12 L466.62 219.13 L467.79 219.70 L468.98 219.91 " stroke-linecap='round' stroke-linejoin='round' brush-type='1' stroke-wetness='0.5'></path><path  style = ' stroke:#000000;  fill:none;  stroke-width:1.0;' d="M471.75 217.70 L471.62 216.27 L471.57 215.47 L471.48 213.89 L471.57 212.96 L471.99 212.16 L472.80 211.59 L473.90 211.32 L474.91 211.68 L475.60 212.66 L475.93 214.33 L476.02 216.18 L476.02 217.85 L475.96 218.93 " stroke-linecap='round' stroke-linejoin='round' brush-type='1' stroke-wetness='0.5'></path><path  style = ' stroke:#000000;  fill:none;  stroke-width:1.0;' d="M479.27 215.20 L479.89 214.97 L480.43 214.87 L481.56 214.51 L482.73 213.98 L483.86 213.11 L484.73 212.16 L485.14 211.32 L484.96 210.69 L484.16 210.34 L482.85 210.40 L481.33 211.26 L479.98 212.87 L479.03 214.93 L478.61 216.90 L478.97 218.57 L480.13 219.73 " stroke-linecap='round' stroke-linejoin='round' brush-type='1' stroke-wetness='0.5'></path><path  style = ' stroke:#000000;  fill:none;  stroke-width:1.0;' d="M483.03 220.74 L484.95 218.20 L485.56 216.66 L486.81 213.89 L486.81 212.51 L487.17 211.65 L487.95 211.17 L489.11 210.99 L490.42 211.20 L491.67 211.62 L492.84 212.19 L493.88 212.54 L494.75 212.69 L495.28 212.63 L495.04 212.48 L494.15 212.36 L492.75 212.66 L491.43 213.47 L490.54 214.63 L490.15 215.65 L490.42 216.30 L491.35 216.51 L492.84 216.09 L494.36 215.20 L495.43 214.01 L496.00 213.05 L496.21 212.48 L496.12 213.02 L495.85 214.30 L495.49 216.12 L495.28 217.40 " stroke-linecap='round' stroke-linejoin='round' brush-type='1' stroke-wetness='0.5'></path><path  style = ' stroke:#000000;  fill:none;  stroke-width:1.0;' d="M500.38 207.33 L500.56 207.82 L500.62 208.55 L500.74 210.10 L500.74 212.07 L500.71 214.15 L500.59 216.18 L500.32 217.79 " stroke-linecap='round' stroke-linejoin='round' brush-type='1' stroke-wetness='0.5'></path><path  style = ' stroke:#000000;  fill:none;  stroke-width:1.0;' d="M500.20 209.92 L502.17 209.92 L503.42 209.92 " stroke-linecap='round' stroke-linejoin='round' brush-type='1' stroke-wetness='0.5'></path><path  style = ' stroke:#000000;  fill:none;  stroke-width:1.0;' d="M506.29 210.55 L505.79 212.07 L505.96 212.57 L506.47 213.56 L507.84 213.23 L509.30 212.57 L510.49 211.65 L511.21 210.78 L511.51 210.10 L511.24 209.68 L510.37 209.50 L508.88 209.83 L507.24 210.69 L505.81 212.16 L504.97 213.74 L504.62 215.23 L505.00 216.42 L506.14 217.29 L508.02 217.73 " stroke-linecap='round' stroke-linejoin='round' brush-type='1' stroke-wetness='0.5'></path><path  style = ' stroke:#000000;  fill:none;  stroke-width:1.0;' d="M518.10 212.60 L517.60 212.56 L516.78 212.69 L515.32 213.11 L513.86 213.98 L512.85 215.14 L512.28 216.42 L512.04 217.55 L512.37 218.30 L513.26 218.60 L514.79 218.18 L516.40 217.20 L517.80 215.47 L518.72 213.20 L519.29 209.23 L519.56 205.21 L519.71 201.69 L519.77 200.23 L519.80 200.64 L519.80 202.79 L519.80 206.37 L519.80 209.89 L519.80 212.99 L519.80 215.47 L519.86 217.43 L520.06 218.96 " stroke-linecap='round' stroke-linejoin='round' brush-type='1' stroke-wetness='0.5'></path><path  style = ' stroke:#000000;  fill:none;  stroke-width:1.0;' d="M60.93 231.03 L60.52 230.94 L60.33 230.91 L59.85 230.85 L59.49 230.94 L59.08 231.33 L58.75 232.05 L58.54 233.00 L58.45 233.96 L58.51 234.79 L58.78 235.42 L59.26 235.83 L59.85 236.07 L60.54 236.31 L61.25 236.61 L61.94 237.15 L62.42 237.89 L62.69 238.88 L62.78 239.98 L62.72 241.11 L62.36 242.22 L61.67 243.29 L60.75 244.21 L59.64 244.84 L58.54 245.11 " stroke-linecap='round' stroke-linejoin='round' brush-type='1' stroke-wetness='0.5'></path><path  style = ' stroke:#000000;  fill:none;  stroke-width:1.0;' d="M60.30 230.14 L60.61 230.14 L61.02 230.14 L62.00 230.14 L63.28 230.14 L64.80 230.14 L66.32 230.14 L67.61 230.05 " stroke-linecap='round' stroke-linejoin='round' brush-type='1' stroke-wetness='0.5'></path><path  style = ' stroke:#000000;  fill:none;  stroke-width:1.0;' d="M69.96 224.41 L69.29 223.79 L68.41 223.52 L66.77 223.04 L64.89 223.04 L62.89 223.46 L60.51 224.38 L58.03 225.96 L55.56 228.14 L53.38 230.82 L51.56 233.90 L50.37 237.09 L49.80 240.22 L50.16 243.20 L51.62 245.77 L54.34 247.79 L58.09 248.87 L62.45 248.84 L67.04 247.67 L71.21 245.65 L74.76 243.17 L77.18 240.46 L78.55 237.53 L78.70 234.55 L77.81 231.72 L75.99 229.42 L73.36 227.60 L70.26 226.14 L67.13 224.83 L64.27 223.76 " stroke-linecap='round' stroke-linejoin='round' brush-type='1' stroke-wetness='0.5'></path></g><g id='id-text-layer'  type='type-normal' preserveAspectRatio="none" ><text  style = 'fill: #000000; font-family:Helvetica-Light; font-size:18.0; ' preserveAspectRatio="none" x= '40' y='40' width = '688' height = '944' transform="rotate(   0,  384,  512)" ><tspan visibility='hidden'><![CDATA[]]></tspan></text></g><recordings ></recordings><defs   ></defs><htext lang='en_US' timestamp='20171115-124336'><![CDATA[]]></htext></svg> 