<?xml version="1.0" standalone="no"?> <!DOCTYPE svg PUBLIC "-//W3C//DTD SVG 1.1//EN" "http://www.w3.org/Graphics/SVG/1.1/DTD/svg11.dtd"> <svg   version="1.1"     xmlns="http://www.w3.org/2000/svg"  xmlns:xlink="http://www.w3.org/1999/xlink" name="" width="768.0" height="1024.0" background="N_PAPERBACKGROUND_WHITE_WITH_GRAY_LINE" line-height="30.0" margin-top="40.0" margin-right="40.0" margin-bottom="40.0" margin-left="40.0"><g id='id-background-layer'  type='type-normal' preserveAspectRatio="none" ><rect  style = ' stroke:#FFFFFF;  fill:#FFFFFF;  stroke-width:0.0;' x="0" y="0" width="768" height="1024" preserveAspectRatio="none" transform="rotate(   0,  384,  512)" ></rect><polyline  style = ' stroke:#D7D6D6;  fill:none;  stroke-width:1.0;' points = ' 0,70 768,70' preserveAspectRatio="none" transform="rotate(   0,  384,   70)" ></polyline><polyline  style = ' stroke:#D7D6D6;  fill:none;  stroke-width:1.0;' points = ' 0,100 768,100' preserveAspectRatio="none" transform="rotate(   0,  384,  100)" ></polyline><polyline  style = ' stroke:#D7D6D6;  fill:none;  stroke-width:1.0;' points = ' 0,130 768,130' preserveAspectRatio="none" transform="rotate(   0,  384,  130)" ></polyline><polyline  style = ' stroke:#D7D6D6;  fill:none;  stroke-width:1.0;' points = ' 0,160 768,160' preserveAspectRatio="none" transform="rotate(   0,  384,  160)" ></polyline><polyline  style = ' stroke:#D7D6D6;  fill:none;  stroke-width:1.0;' points = ' 0,190 768,190' preserveAspectRatio="none" transform="rotate(   0,  384,  190)" ></polyline><polyline  style = ' stroke:#D7D6D6;  fill:none;  stroke-width:1.0;' points = ' 0,220 768,220' preserveAspectRatio="none" transform="rotate(   0,  384,  220)" ></polyline><polyline  style = ' stroke:#D7D6D6;  fill:none;  stroke-width:1.0;' points = ' 0,250 768,250' preserveAspectRatio="none" transform="rotate(   0,  384,  250)" ></polyline><polyline  style = ' stroke:#D7D6D6;  fill:none;  stroke-width:1.0;' points = ' 0,280 768,280' preserveAspectRatio="none" transform="rotate(   0,  384,  280)" ></polyline><polyline  style = ' stroke:#D7D6D6;  fill:none;  stroke-width:1.0;' points = ' 0,310 768,310' preserveAspectRatio="none" transform="rotate(   0,  384,  310)" ></polyline><polyline  style = ' stroke:#D7D6D6;  fill:none;  stroke-width:1.0;' points = ' 0,340 768,340' preserveAspectRatio="none" transform="rotate(   0,  384,  340)" ></polyline><polyline  style = ' stroke:#D7D6D6;  fill:none;  stroke-width:1.0;' points = ' 0,370 768,370' preserveAspectRatio="none" transform="rotate(   0,  384,  370)" ></polyline><polyline  style = ' stroke:#D7D6D6;  fill:none;  stroke-width:1.0;' points = ' 0,400 768,400' preserveAspectRatio="none" transform="rotate(   0,  384,  400)" ></polyline><polyline  style = ' stroke:#D7D6D6;  fill:none;  stroke-width:1.0;' points = ' 0,430 768,430' preserveAspectRatio="none" transform="rotate(   0,  384,  430)" ></polyline><polyline  style = ' stroke:#D7D6D6;  fill:none;  stroke-width:1.0;' points = ' 0,460 768,460' preserveAspectRatio="none" transform="rotate(   0,  384,  460)" ></polyline><polyline  style = ' stroke:#D7D6D6;  fill:none;  stroke-width:1.0;' points = ' 0,490 768,490' preserveAspectRatio="none" transform="rotate(   0,  384,  490)" ></polyline><polyline  style = ' stroke:#D7D6D6;  fill:none;  stroke-width:1.0;' points = ' 0,520 768,520' preserveAspectRatio="none" transform="rotate(   0,  384,  520)" ></polyline><polyline  style = ' stroke:#D7D6D6;  fill:none;  stroke-width:1.0;' points = ' 0,550 768,550' preserveAspectRatio="none" transform="rotate(   0,  384,  550)" ></polyline><polyline  style = ' stroke:#D7D6D6;  fill:none;  stroke-width:1.0;' points = ' 0,580 768,580' preserveAspectRatio="none" transform="rotate(   0,  384,  580)" ></polyline><polyline  style = ' stroke:#D7D6D6;  fill:none;  stroke-width:1.0;' points = ' 0,610 768,610' preserveAspectRatio="none" transform="rotate(   0,  384,  610)" ></polyline><polyline  style = ' stroke:#D7D6D6;  fill:none;  stroke-width:1.0;' points = ' 0,640 768,640' preserveAspectRatio="none" transform="rotate(   0,  384,  640)" ></polyline><polyline  style = ' stroke:#D7D6D6;  fill:none;  stroke-width:1.0;' points = ' 0,670 768,670' preserveAspectRatio="none" transform="rotate(   0,  384,  670)" ></polyline><polyline  style = ' stroke:#D7D6D6;  fill:none;  stroke-width:1.0;' points = ' 0,700 768,700' preserveAspectRatio="none" transform="rotate(   0,  384,  700)" ></polyline><polyline  style = ' stroke:#D7D6D6;  fill:none;  stroke-width:1.0;' points = ' 0,730 768,730' preserveAspectRatio="none" transform="rotate(   0,  384,  730)" ></polyline><polyline  style = ' stroke:#D7D6D6;  fill:none;  stroke-width:1.0;' points = ' 0,760 768,760' preserveAspectRatio="none" transform="rotate(   0,  384,  760)" ></polyline><polyline  style = ' stroke:#D7D6D6;  fill:none;  stroke-width:1.0;' points = ' 0,790 768,790' preserveAspectRatio="none" transform="rotate(   0,  384,  790)" ></polyline><polyline  style = ' stroke:#D7D6D6;  fill:none;  stroke-width:1.0;' points = ' 0,820 768,820' preserveAspectRatio="none" transform="rotate(   0,  384,  820)" ></polyline><polyline  style = ' stroke:#D7D6D6;  fill:none;  stroke-width:1.0;' points = ' 0,850 768,850' preserveAspectRatio="none" transform="rotate(   0,  384,  850)" ></polyline><polyline  style = ' stroke:#D7D6D6;  fill:none;  stroke-width:1.0;' points = ' 0,880 768,880' preserveAspectRatio="none" transform="rotate(   0,  384,  880)" ></polyline><polyline  style = ' stroke:#D7D6D6;  fill:none;  stroke-width:1.0;' points = ' 0,910 768,910' preserveAspectRatio="none" transform="rotate(   0,  384,  910)" ></polyline><polyline  style = ' stroke:#D7D6D6;  fill:none;  stroke-width:1.0;' points = ' 0,940 768,940' preserveAspectRatio="none" transform="rotate(   0,  384,  940)" ></polyline><polyline  style = ' stroke:#D7D6D6;  fill:none;  stroke-width:1.0;' points = ' 0,970 768,970' preserveAspectRatio="none" transform="rotate(   0,  384,  970)" ></polyline><polyline  style = ' stroke:#C74F4F;  fill:none;  stroke-width:0.5;' points = ' 40,0 40,1024' preserveAspectRatio="none" transform="rotate(   0,   40,  512)" ></polyline><polyline  style = ' stroke:#B6B6B6; stroke-opacity:0.8; fill:none;  stroke-width:0.5;' points = ' 728,0 728,1024' preserveAspectRatio="none" transform="rotate(   0,  728,  512)" ></polyline></g><g id='id-main-layer'  type='type-normal' preserveAspectRatio="none" ><path  style = ' stroke:#000000;  fill:none;  stroke-width:1.0;' d="M46.07 100.57 L46.36 99.76 L46.65 98.45 L47.27 96.09 L48.00 93.31 L48.93 90.69 L49.89 87.87 L50.86 85.13 L51.63 82.51 L52.25 80.39 L52.63 78.81 L52.90 77.76 L53.13 77.07 L53.29 76.68 L53.64 77.18 L54.10 78.50 L54.87 80.85 L55.76 83.94 L56.68 87.80 L57.42 91.58 L57.88 94.82 L58.19 97.13 L58.42 98.83 L58.58 99.80 L58.65 100.34 L58.69 100.65 L58.50 101.07 " stroke-linecap='round' stroke-linejoin='round' brush-type='1' stroke-wetness='0.5'></path><path  style = ' stroke:#000000;  fill:none;  stroke-width:1.0;' d="M48.85 90.73 L52.44 89.80 L55.22 89.30 L60.00 88.45 L62.90 88.22 L64.52 88.18 L65.56 88.18 L66.49 88.49 " stroke-linecap='round' stroke-linejoin='round' brush-type='1' stroke-wetness='0.5'></path><path  style = ' stroke:#000000;  fill:none;  stroke-width:1.0;' d="M96.78 73.94 L93.42 77.36 L91.18 80.54 L87.32 86.21 L85.32 90.88 L84.35 94.70 L83.89 98.02 L84.12 100.72 L85.39 102.61 L87.71 103.85 L90.76 104.47 L93.53 104.70 L95.97 104.39 L98.05 103.66 " stroke-linecap='round' stroke-linejoin='round' brush-type='1' stroke-wetness='0.5'></path><path  style = ' stroke:#000000;  fill:none;  stroke-width:1.0;' d="M107.19 76.84 L106.21 77.30 L105.30 78.15 L103.68 80.00 L102.37 82.70 L101.25 85.98 L100.33 89.65 L99.75 93.08 L99.55 96.09 L99.79 98.45 L100.48 100.22 L101.75 101.30 L103.49 101.84 L105.42 101.84 L107.19 101.26 L108.62 100.14 L109.59 98.52 L110.24 96.75 L110.55 95.17 L110.67 93.78 L110.47 92.77 L110.09 91.96 L109.39 91.65 L108.85 91.65 L108.51 91.96 L108.47 92.46 L108.47 92.97 L108.78 93.55 L109.36 94.05 L110.09 94.55 " stroke-linecap='round' stroke-linejoin='round' brush-type='1' stroke-wetness='0.5'></path><path  style = ' stroke:#000000;  fill:none;  stroke-width:1.0;' d="M119.93 98.25 L118.19 100.05 L117.15 101.11 L115.41 102.84 L114.80 103.38 L114.49 103.50 " stroke-linecap='round' stroke-linejoin='round' brush-type='1' stroke-wetness='0.5'></path><path  style = ' stroke:#000000;  fill:none;  stroke-width:1.0;' d="M125.48 82.39 L126.87 84.54 L128.53 86.99 L131.31 91.08 L133.74 94.36 L135.36 96.32 L136.56 97.52 L137.33 98.14 L137.76 98.33 L138.41 97.91 " stroke-linecap='round' stroke-linejoin='round' brush-type='1' stroke-wetness='0.5'></path><path  style = ' stroke:#000000;  fill:none;  stroke-width:1.0;' d="M140.30 83.67 L138.33 85.52 L136.29 87.64 L132.82 91.35 L129.96 94.55 L128.07 96.83 L126.76 98.37 L126.10 99.22 " stroke-linecap='round' stroke-linejoin='round' brush-type='1' stroke-wetness='0.5'></path><path  style = ' stroke:#000000;  fill:none;  stroke-width:1.0;' d="M144.70 76.49 L146.32 78.34 L147.63 80.62 L149.60 84.63 L150.53 88.53 L150.41 91.81 L149.45 94.97 L147.71 97.79 L145.55 100.11 L143.58 101.65 L142.00 102.42 L140.88 102.65 L140.19 102.50 " stroke-linecap='round' stroke-linejoin='round' brush-type='1' stroke-wetness='0.5'></path><path  style = ' stroke:#000000;  fill:none;  stroke-width:1.0;' d="M166.70 86.91 L163.63 88.88 L161.80 90.77 L158.82 93.85 L157.94 96.01 L158.25 97.21 L159.33 97.91 L161.25 98.21 L163.84 97.75 L166.27 96.90 L169.09 93.35 L170.52 89.69 L171.09 86.25 L169.90 85.52 L168.66 86.10 L167.58 87.76 L166.93 90.15 " stroke-linecap='round' stroke-linejoin='round' brush-type='1' stroke-wetness='0.5'></path><path  style = ' stroke:#000000;  fill:none;  stroke-width:1.0;' d="M171.44 98.72 L171.96 97.79 L173.02 95.32 L174.76 92.00 L176.88 88.99 L178.50 88.10 L179.82 87.83 L180.59 87.91 L181.28 88.18 L181.90 88.49 " stroke-linecap='round' stroke-linejoin='round' brush-type='1' stroke-wetness='0.5'></path><path  style = ' stroke:#000000;  fill:none;  stroke-width:1.0;' d="M182.44 95.71 L183.31 94.84 L184.10 94.12 L185.83 92.73 L187.61 91.69 L189.31 91.08 L190.50 90.84 L191.20 91.15 L191.47 91.69 L191.20 93.47 L190.35 95.40 L188.88 97.29 L187.53 97.94 L186.61 97.71 L186.18 96.79 L185.80 94.66 L185.22 91.23 L184.75 86.91 L184.52 82.86 L184.52 79.96 L184.52 78.26 L184.56 78.23 L184.60 81.97 L184.64 87.10 L184.64 92.58 L184.64 95.09 L184.68 96.44 L184.83 96.79 L185.10 97.06 " stroke-linecap='round' stroke-linejoin='round' brush-type='1' stroke-wetness='0.5'></path><path  style = ' stroke:#000000;  fill:none;  stroke-width:1.0;' d="M197.49 88.41 a0.50 0.50 0 1 0 0.01 0 " stroke-linecap='round' stroke-linejoin='round' brush-type='1' stroke-wetness='0.5'></path><path  style = ' stroke:#000000;  fill:none;  stroke-width:1.0;' d="M196.56 95.01 L196.56 96.28 L196.56 97.29 L196.56 98.95 L196.48 100.14 L196.18 101.19 " stroke-linecap='round' stroke-linejoin='round' brush-type='1' stroke-wetness='0.5'></path><path  style = ' stroke:#000000;  fill:none;  stroke-width:1.0;' d="M208.37 78.81 a0.50 0.50 0 1 0 0.01 0 " stroke-linecap='round' stroke-linejoin='round' brush-type='1' stroke-wetness='0.5'></path><path  style = ' stroke:#000000;  fill:none;  stroke-width:1.0;' d="M204.09 90.50 L204.78 90.38 L205.44 90.34 L207.33 90.27 L209.33 90.15 L211.26 89.96 L212.50 89.76 L213.35 89.69 L214.20 89.73 " stroke-linecap='round' stroke-linejoin='round' brush-type='1' stroke-wetness='0.5'></path><path  style = ' stroke:#000000;  fill:none;  stroke-width:1.0;' d="M210.34 77.65 L209.24 78.34 L208.68 79.08 L207.60 80.46 L207.13 81.97 L206.75 83.74 L206.44 85.94 L206.13 88.41 L205.94 90.96 L205.82 93.39 L205.82 95.63 L205.82 97.52 L205.82 98.95 L205.82 99.87 L205.82 100.49 " stroke-linecap='round' stroke-linejoin='round' brush-type='1' stroke-wetness='0.5'></path><path  style = ' stroke:#000000;  fill:none;  stroke-width:1.0;' d="M222.03 89.46 L221.22 89.46 L220.56 89.57 L219.33 90.00 L218.44 90.88 L217.90 92.16 L217.67 93.66 L217.86 95.05 L218.63 96.13 L220.14 96.71 L221.99 96.94 L223.73 96.67 L224.85 96.01 L225.43 95.05 L225.54 93.93 L225.35 92.73 L224.85 91.38 L224.11 90.19 L223.42 89.30 L222.92 88.84 " stroke-linecap='round' stroke-linejoin='round' brush-type='1' stroke-wetness='0.5'></path><path  style = ' stroke:#000000;  fill:none;  stroke-width:1.0;' d="M229.21 81.12 L229.44 81.81 L229.52 82.55 L229.67 84.55 L229.67 87.26 L229.63 90.46 L229.59 93.35 L229.55 95.51 L229.71 96.90 L230.36 97.83 " stroke-linecap='round' stroke-linejoin='round' brush-type='1' stroke-wetness='0.5'></path><path  style = ' stroke:#000000;  fill:none;  stroke-width:1.0;' d="M243.56 89.69 L242.11 89.69 L241.01 89.92 L239.05 90.50 L237.77 91.42 L236.92 92.50 L236.46 93.62 L236.27 94.66 L236.42 95.51 L236.89 96.05 L237.66 96.36 L238.62 96.48 L239.59 96.17 L240.55 95.32 L241.55 93.55 L242.91 90.38 L244.53 86.18 L245.91 82.12 L246.69 79.27 L246.88 77.72 L246.88 76.84 L246.69 76.45 L246.38 76.30 L246.03 76.41 L245.76 76.95 L245.45 78.26 L245.07 80.62 L244.56 84.13 L244.18 88.18 L243.91 92.04 L243.83 95.24 L243.79 97.67 L243.79 99.33 L243.79 100.26 " stroke-linecap='round' stroke-linejoin='round' brush-type='1' stroke-wetness='0.5'></path><path  style = ' stroke:#000000;  fill:none;  stroke-width:1.0;' d="M269.26 99.53 L269.09 98.83 L269.03 98.21 L268.91 96.52 L268.87 94.63 L268.84 92.46 L268.80 90.50 L268.80 88.64 L268.80 87.06 L268.99 85.83 L269.41 85.02 L270.22 84.55 L271.23 84.40 L272.35 84.44 L273.39 84.71 L274.47 85.09 L275.94 85.63 " stroke-linecap='round' stroke-linejoin='round' brush-type='1' stroke-wetness='0.5'></path><path  style = ' stroke:#000000;  fill:none;  stroke-width:1.0;' d="M276.78 90.03 L276.90 91.71 L277.56 92.27 L278.95 93.39 L280.99 93.39 L283.04 93.28 L284.66 92.93 L285.66 92.27 L286.05 91.42 L286.12 90.54 L285.81 89.76 L285.23 89.11 L284.35 88.64 L283.34 88.37 L282.23 88.37 L281.11 88.76 L280.03 89.61 L279.18 90.92 L278.68 92.50 L278.60 94.05 L279.02 95.36 L280.10 96.40 L281.68 97.06 " stroke-linecap='round' stroke-linejoin='round' brush-type='1' stroke-wetness='0.5'></path><path  style = ' stroke:#000000;  fill:none;  stroke-width:1.0;' d="M292.99 95.01 L293.34 92.64 L293.03 91.85 L292.30 90.27 L290.75 90.46 L289.29 91.04 L288.17 92.16 L287.55 93.74 L287.28 95.55 L287.32 97.21 L287.90 98.37 L288.94 98.91 L290.52 98.75 L292.30 97.67 L294.03 95.71 L295.27 93.28 L295.88 91.23 L296.08 90.03 L296.04 89.96 L295.77 91.08 L295.19 93.55 L294.50 96.90 L293.96 100.34 L293.72 103.08 L293.96 104.77 L294.57 105.58 L295.58 105.66 L297.00 104.81 " stroke-linecap='round' stroke-linejoin='round' brush-type='1' stroke-wetness='0.5'></path><path  style = ' stroke:#000000;  fill:none;  stroke-width:1.0;' d="M302.95 90.84 L302.95 91.60 L302.95 92.46 L303.02 94.39 L303.26 96.44 L303.68 98.14 L304.22 99.10 L304.76 99.41 L305.22 99.06 L305.76 97.91 L306.57 95.86 L307.62 93.55 L308.50 91.69 L309.04 90.77 L309.31 91.04 L309.54 92.12 L309.81 93.89 L310.12 95.63 L310.51 97.10 L310.97 98.06 " stroke-linecap='round' stroke-linejoin='round' brush-type='1' stroke-wetness='0.5'></path><path  style = ' stroke:#000000;  fill:none;  stroke-width:1.0;' d="M314.29 94.43 a0.50 0.50 0 1 0 0.01 0 " stroke-linecap='round' stroke-linejoin='round' brush-type='1' stroke-wetness='0.5'></path><path  style = ' stroke:#000000;  fill:none;  stroke-width:1.0;' d="M315.68 86.33 L315.85 87.31 L315.91 88.10 L316.03 89.57 L316.03 90.77 L316.03 91.96 " stroke-linecap='round' stroke-linejoin='round' brush-type='1' stroke-wetness='0.5'></path><path  style = ' stroke:#000000;  fill:none;  stroke-width:1.0;' d="M314.87 96.17 L315.04 97.21 L315.10 97.87 L315.22 99.06 L315.22 99.76 L315.22 100.41 " stroke-linecap='round' stroke-linejoin='round' brush-type='1' stroke-wetness='0.5'></path><path  style = ' stroke:#000000;  fill:none;  stroke-width:1.0;' d="M321.01 95.82 L320.89 94.78 L320.85 93.78 L320.77 91.96 L320.77 90.61 L320.89 89.80 L321.08 89.42 L321.51 89.26 L322.09 89.22 L322.90 89.22 L323.67 89.22 " stroke-linecap='round' stroke-linejoin='round' brush-type='1' stroke-wetness='0.5'></path><path  style = ' stroke:#000000;  fill:none;  stroke-width:1.0;' d="M324.01 93.62 L324.83 94.26 L325.52 94.47 L326.91 94.90 L328.07 94.66 L328.99 94.16 L329.57 93.39 L329.84 92.58 L329.80 91.81 L329.53 91.19 L329.07 90.81 L328.53 90.65 L327.95 90.92 L327.37 91.65 L326.83 92.97 L326.45 94.43 L326.25 95.82 L326.45 96.94 L326.99 97.75 " stroke-linecap='round' stroke-linejoin='round' brush-type='1' stroke-wetness='0.5'></path><path  style = ' stroke:#000000;  fill:none;  stroke-width:1.0;' d="M331.31 97.79 L331.60 95.65 L331.46 94.93 L331.38 93.58 L331.19 93.85 L331.62 94.43 L332.39 95.24 L333.20 96.13 L333.66 96.98 L333.70 97.75 L333.01 98.48 L331.66 99.14 L329.88 99.68 L328.30 99.99 L327.06 99.99 " stroke-linecap='round' stroke-linejoin='round' brush-type='1' stroke-wetness='0.5'></path><path  style = ' stroke:#000000;  fill:none;  stroke-width:1.0;' d="M353.42 90.38 L352.09 90.32 L351.03 90.65 L349.06 91.35 L347.48 92.58 L346.28 93.97 L345.55 95.44 L345.35 96.67 L345.89 97.52 L346.90 97.91 L348.29 97.79 L349.44 97.06 L350.25 95.82 L350.64 94.28 L350.76 92.62 L350.72 91.08 L350.64 89.88 L350.52 89.88 L350.45 91.00 L350.52 93.20 L350.72 95.44 L351.03 97.33 L351.37 98.45 L351.80 98.95 " stroke-linecap='round' stroke-linejoin='round' brush-type='1' stroke-wetness='0.5'></path><path  style = ' stroke:#000000;  fill:none;  stroke-width:1.0;' d="M357.59 80.08 L357.70 81.12 L357.74 82.43 L357.82 85.67 L357.82 89.69 L357.82 93.70 L357.78 96.79 L357.74 98.60 " stroke-linecap='round' stroke-linejoin='round' brush-type='1' stroke-wetness='0.5'></path><path  style = ' stroke:#000000;  fill:none;  stroke-width:1.0;' d="M363.49 81.93 L363.66 83.03 L363.76 84.86 L364.03 88.57 L364.34 92.66 L364.92 96.40 L365.65 99.26 " stroke-linecap='round' stroke-linejoin='round' brush-type='1' stroke-wetness='0.5'></path><path  style = ' stroke:#000000;  fill:none;  stroke-width:1.0;' d="M379.58 100.80 L379.52 100.34 L379.50 99.76 L379.46 97.94 L379.35 94.86 L379.19 90.92 L379.00 86.99 L378.89 83.82 L378.77 81.39 L378.69 79.69 L378.65 78.69 L378.69 78.23 L379.23 78.03 L380.39 77.92 L382.13 77.76 L383.90 77.69 L385.45 77.65 L386.64 77.65 L387.41 77.65 L387.84 77.69 L387.95 78.07 L387.88 78.88 L387.72 80.31 L387.61 82.01 L387.57 83.71 L387.57 85.13 L387.91 86.33 " stroke-linecap='round' stroke-linejoin='round' brush-type='1' stroke-wetness='0.5'></path><path  style = ' stroke:#000000;  fill:none;  stroke-width:1.0;' d="M411.30 88.07 L410.49 88.41 L409.41 88.76 L407.52 89.49 L405.78 90.34 L404.66 91.19 L404.08 91.96 L404.04 92.66 L404.62 93.47 L405.59 94.39 L406.67 95.36 L407.36 96.25 L407.67 97.13 L407.32 98.02 L406.51 98.91 L405.32 99.64 L404.20 100.11 L403.20 100.34 " stroke-linecap='round' stroke-linejoin='round' brush-type='1' stroke-wetness='0.5'></path><path  style = ' stroke:#000000;  fill:none;  stroke-width:1.0;' d="M414.54 93.51 L414.37 94.43 L414.31 95.24 L414.15 96.98 L414.12 98.56 L414.23 99.76 L414.66 100.34 L415.35 100.38 L416.12 100.03 L416.78 99.41 L417.20 98.68 L417.47 98.18 L417.63 98.18 L417.74 98.56 L417.82 99.18 L418.09 99.76 L418.71 100.22 L419.75 100.49 L420.95 100.26 L422.06 99.64 L422.87 98.79 L423.45 97.91 L424.03 96.98 L424.77 95.98 L425.69 95.13 L426.66 94.55 L427.54 94.28 L428.20 94.36 L428.59 94.90 L428.74 95.86 L428.74 97.10 L428.35 98.21 L427.62 98.95 L426.58 99.26 L425.61 99.06 L424.73 98.41 L423.96 97.33 " stroke-linecap='round' stroke-linejoin='round' brush-type='1' stroke-wetness='0.5'></path><path  style = ' stroke:#000000;  fill:none;  stroke-width:1.0;' d="M420.21 82.97 L420.96 84.54 L421.60 89.07 " stroke-linecap='round' stroke-linejoin='round' brush-type='1' stroke-wetness='0.5'></path><path  style = ' stroke:#000000;  fill:none;  stroke-width:1.0;' d="M446.03 91.65 L444.93 91.31 L444.14 91.19 L442.44 90.96 L440.93 91.08 L439.27 91.46 L437.65 92.19 L436.26 93.28 L435.42 94.47 L435.07 95.63 L435.18 96.59 L435.84 97.29 L437.00 97.67 L438.46 97.64 L439.85 97.02 L441.05 95.98 L441.82 94.70 L442.17 93.55 L442.21 92.54 L442.21 91.89 L442.17 91.92 L442.13 93.04 L441.98 95.55 L441.55 98.83 L440.62 102.30 L439.20 105.01 L437.54 106.93 L435.96 107.94 L434.68 108.36 L433.64 107.94 L432.75 107.13 " stroke-linecap='round' stroke-linejoin='round' brush-type='1' stroke-wetness='0.5'></path><path  style = ' stroke:#000000;  fill:none;  stroke-width:1.0;' d="M450.89 96.52 L451.06 96.00 L451.12 95.09 L451.24 93.28 L451.31 91.11 L451.70 89.18 L452.39 87.64 L453.44 86.72 L454.59 86.29 L455.71 86.21 L456.60 86.25 " stroke-linecap='round' stroke-linejoin='round' brush-type='1' stroke-wetness='0.5'></path><path  style = ' stroke:#000000;  fill:none;  stroke-width:1.0;' d="M461.42 89.69 L459.51 90.73 L458.22 91.42 L455.71 92.93 L454.13 94.24 L453.17 95.63 L452.78 96.86 L452.93 97.67 L453.71 98.10 L455.13 98.02 L457.02 97.40 L458.80 96.25 L460.03 94.82 L460.57 93.51 L460.30 92.46 L459.53 91.73 L458.22 91.23 L456.41 90.88 " stroke-linecap='round' stroke-linejoin='round' brush-type='1' stroke-wetness='0.5'></path><path  style = ' stroke:#000000;  fill:none;  stroke-width:1.0;' d="M464.32 89.46 L464.20 90.32 L464.16 91.19 L464.28 93.31 L464.70 95.63 L465.47 97.98 L466.44 99.60 L467.64 100.45 L468.75 100.57 L469.72 99.91 L470.38 98.60 L470.84 96.67 L471.11 94.86 L471.22 93.31 L471.42 92.12 L471.65 92.04 L472.19 93.35 L472.88 96.44 " stroke-linecap='round' stroke-linejoin='round' brush-type='1' stroke-wetness='0.5'></path><path  style = ' stroke:#000000;  fill:none;  stroke-width:1.0;' d="M476.12 108.21 L476.12 106.41 L476.09 104.74 L476.05 101.07 L476.09 97.56 L476.39 94.28 L476.94 91.89 L477.71 90.27 L478.52 89.46 L479.29 89.15 L479.98 89.46 L480.68 90.27 L481.30 91.46 L481.72 92.62 L481.87 93.62 L481.68 94.47 L481.14 95.09 L480.25 95.44 L479.25 95.55 L478.09 95.71 " stroke-linecap='round' stroke-linejoin='round' brush-type='1' stroke-wetness='0.5'></path><path  style = ' stroke:#000000;  fill:none;  stroke-width:1.0;' d="M496.15 93.62 L495.34 93.85 L494.34 94.16 L492.68 94.86 L491.44 95.78 L490.94 96.90 L490.86 98.10 L491.33 99.10 L492.41 99.76 L494.18 100.03 L496.23 99.76 L498.08 98.91 L499.39 97.67 L500.01 96.44 L499.86 95.51 L499.01 94.70 L497.50 94.05 L495.88 93.47 L494.53 93.16 L493.95 93.12 " stroke-linecap='round' stroke-linejoin='round' brush-type='1' stroke-wetness='0.5'></path><path  style = ' stroke:#000000;  fill:none;  stroke-width:1.0;' d="M512.59 80.66 L511.84 80.60 L511.16 80.58 L509.77 80.54 L508.42 80.62 L507.07 80.97 L505.84 81.62 L504.83 82.63 L504.18 83.94 L503.87 85.67 L503.79 87.83 L504.06 90.34 L504.52 92.89 L505.14 95.24 L505.53 97.06 L505.68 98.14 L505.30 98.45 " stroke-linecap='round' stroke-linejoin='round' brush-type='1' stroke-wetness='0.5'></path><path  style = ' stroke:#000000;  fill:none;  stroke-width:1.0;' d="M502.06 90.73 L502.52 90.73 L503.21 90.73 L504.64 90.73 L506.49 90.73 L509.04 90.73 L512.05 90.69 " stroke-linecap='round' stroke-linejoin='round' brush-type='1' stroke-wetness='0.5'></path><path  style = ' stroke:#000000;  fill:none;  stroke-width:1.0;' d="M544.08 77.07 L543.21 76.95 L542.19 77.11 L540.26 77.61 L538.10 78.81 L535.82 80.66 L533.31 83.13 L530.84 86.02 L528.72 89.07 L527.21 91.92 L526.44 94.43 L526.25 96.56 L526.87 98.37 L528.49 99.83 L531.19 100.80 L534.58 101.26 L537.94 101.15 L540.99 100.45 L543.30 99.18 L544.93 97.60 L545.74 96.05 L545.89 94.74 L545.50 93.78 L544.73 93.20 L543.57 92.93 L542.19 92.85 L540.72 92.81 L539.56 92.73 L538.94 92.58 L538.87 92.27 " stroke-linecap='round' stroke-linejoin='round' brush-type='1' stroke-wetness='0.5'></path><path  style = ' stroke:#000000;  fill:none;  stroke-width:1.0;' d="M43.64 120.02 L45.15 120.13 L46.69 120.17 L49.47 120.25 L51.90 120.13 L53.71 119.94 L55.26 119.63 L56.41 119.44 L57.26 119.21 " stroke-linecap='round' stroke-linejoin='round' brush-type='1' stroke-wetness='0.5'></path><path  style = ' stroke:#000000;  fill:none;  stroke-width:1.0;' d="M62.28 128.70 L62.51 127.89 L62.59 127.08 L62.74 125.26 L62.74 122.91 L62.74 120.05 L62.70 116.97 L62.51 114.27 L62.24 112.18 L61.97 110.87 L61.85 110.14 L61.97 109.83 L62.55 109.71 L63.67 109.71 L65.17 109.71 L66.83 109.75 L68.38 109.83 L69.61 109.94 L70.54 110.18 " stroke-linecap='round' stroke-linejoin='round' brush-type='1' stroke-wetness='0.5'></path><path  style = ' stroke:#000000;  fill:none;  stroke-width:1.0;' d="M61.01 121.41 L61.93 121.12 L63.32 120.83 L66.06 120.21 L68.99 119.59 L71.39 119.01 L73.12 118.63 L74.20 118.43 " stroke-linecap='round' stroke-linejoin='round' brush-type='1' stroke-wetness='0.5'></path><path  style = ' stroke:#000000;  fill:none;  stroke-width:1.0;' d="M61.82 127.31 L62.40 127.42 L63.05 127.46 L64.67 127.54 L66.79 127.39 L69.19 127.04 L71.27 126.50 L72.97 125.92 " stroke-linecap='round' stroke-linejoin='round' brush-type='1' stroke-wetness='0.5'></path><path  style = ' stroke:#000000;  fill:none;  stroke-width:1.0;' d="M75.01 123.03 L75.53 123.89 L75.75 124.88 L76.29 126.65 L76.67 128.20 L77.17 129.16 L77.71 129.62 L78.25 129.62 L78.83 129.08 L79.41 127.96 L80.03 126.23 L80.92 124.14 L81.96 122.10 L83.04 120.48 L83.77 119.51 L84.35 119.05 " stroke-linecap='round' stroke-linejoin='round' brush-type='1' stroke-wetness='0.5'></path><path  style = ' stroke:#000000;  fill:none;  stroke-width:1.0;' d="M86.13 125.92 L86.94 126.61 L87.55 126.85 L88.94 127.23 L90.29 126.85 L91.64 126.11 L92.65 125.07 L93.19 123.99 L93.26 122.91 L92.88 121.95 L91.99 121.13 L90.76 120.67 L89.33 120.56 L87.94 121.02 L86.74 121.98 L86.01 123.41 L85.70 125.03 L85.89 126.73 L86.59 128.20 L87.75 129.24 L89.14 129.74 L90.37 129.93 L91.41 129.97 L92.15 129.74 L92.69 129.24 L93.11 128.35 L93.57 127.15 L94.23 125.77 L95.16 124.26 L96.43 122.76 L98.01 121.25 L99.71 119.94 L101.33 119.01 L102.91 118.43 " stroke-linecap='round' stroke-linejoin='round' brush-type='1' stroke-wetness='0.5'></path><path  style = ' stroke:#000000;  fill:none;  stroke-width:1.0;' d="M111.13 118.97 L110.73 120.19 L110.20 121.91 L109.16 125.34 L108.08 129.05 L107.16 132.25 L106.46 134.60 L105.88 136.22 " stroke-linecap='round' stroke-linejoin='round' brush-type='1' stroke-wetness='0.5'></path><path  style = ' stroke:#000000;  fill:none;  stroke-width:1.0;' d="M104.65 121.41 L105.57 122.04 L106.42 122.49 L108.24 123.53 L110.13 124.45 L112.02 125.50 L113.83 126.58 " stroke-linecap='round' stroke-linejoin='round' brush-type='1' stroke-wetness='0.5'></path><path  style = ' stroke:#000000;  fill:none;  stroke-width:1.0;' d="M140.30 108.56 L139.14 109.31 L138.14 110.21 L136.10 112.26 L134.28 114.88 L132.74 117.86 L131.70 120.83 L131.20 123.41 L131.12 125.50 L131.58 127.08 L132.58 128.23 L134.13 128.97 L135.94 129.35 L138.03 129.47 " stroke-linecap='round' stroke-linejoin='round' brush-type='1' stroke-wetness='0.5'></path><path  style = ' stroke:#000000;  fill:none;  stroke-width:1.0;' d="M149.22 113.42 L148.12 113.53 L147.29 113.84 L145.70 114.61 L144.39 116.04 L143.08 118.05 L141.92 120.48 L141.19 122.87 L140.96 124.92 L141.34 126.46 L142.23 127.46 L143.58 127.96 L145.09 127.93 L146.75 127.31 L148.41 126.19 L149.68 124.84 L150.33 123.64 L150.30 122.91 L149.76 122.60 L148.87 122.56 L147.90 122.56 L147.21 122.64 L146.86 122.83 " stroke-linecap='round' stroke-linejoin='round' brush-type='1' stroke-wetness='0.5'></path><path  style = ' stroke:#000000;  fill:none;  stroke-width:1.0;' d="M156.28 127.77 L155.87 128.93 L155.27 129.78 L154.15 131.21 L152.96 132.06 L151.99 132.48 " stroke-linecap='round' stroke-linejoin='round' brush-type='1' stroke-wetness='0.5'></path><path  style = ' stroke:#000000;  fill:none;  stroke-width:1.0;' d="M161.60 114.92 L162.47 115.91 L163.34 117.08 L165.04 119.32 L166.58 121.52 L167.81 123.30 L168.63 124.53 L169.13 125.19 L169.44 125.46 " stroke-linecap='round' stroke-linejoin='round' brush-type='1' stroke-wetness='0.5'></path><path  style = ' stroke:#000000;  fill:none;  stroke-width:1.0;' d="M169.59 117.24 L168.49 118.28 L167.27 119.67 L165.19 121.98 L163.45 124.14 L162.26 125.61 L161.25 126.77 " stroke-linecap='round' stroke-linejoin='round' brush-type='1' stroke-wetness='0.5'></path><path  style = ' stroke:#000000;  fill:none;  stroke-width:1.0;' d="M172.60 111.33 L173.64 112.43 L174.30 113.53 L175.53 116.12 L176.07 119.28 L176.07 122.87 L175.26 126.42 L173.68 129.32 L171.63 131.48 L169.32 132.83 L167.16 133.75 " stroke-linecap='round' stroke-linejoin='round' brush-type='1' stroke-wetness='0.5'></path><path  style = ' stroke:#000000;  fill:none;  stroke-width:1.0;' d="M194.83 119.78 L193.61 120.13 L192.97 120.56 L191.58 121.52 L190.74 122.79 L189.96 124.38 L189.54 126.19 L189.62 127.93 L190.39 129.28 L191.85 130.01 L193.75 130.20 L195.67 129.74 L197.26 128.74 L198.22 127.27 L198.57 125.84 L198.14 124.53 L197.30 123.57 L196.14 122.95 L195.13 122.68 L194.29 122.60 L193.67 122.68 L193.32 123.33 L193.44 124.30 " stroke-linecap='round' stroke-linejoin='round' brush-type='1' stroke-wetness='0.5'></path><path  style = ' stroke:#000000;  fill:none;  stroke-width:1.0;' d="M200.85 128.47 L200.90 128.12 L200.92 127.62 L200.96 126.50 L200.96 125.11 L201.19 123.60 L201.73 122.22 L202.62 121.06 L203.62 120.29 L204.82 119.82 L206.05 119.63 " stroke-linecap='round' stroke-linejoin='round' brush-type='1' stroke-wetness='0.5'></path><path  style = ' stroke:#000000;  fill:none;  stroke-width:1.0;' d="M212.77 129.16 L212.83 128.41 L213.04 127.46 L213.66 125.77 L214.70 124.18 L215.97 123.10 L217.28 122.52 L218.48 122.37 L219.52 122.83 L220.37 123.87 L220.91 125.50 L221.18 127.15 L220.83 128.47 L219.98 129.24 L218.75 129.55 L217.63 129.51 L216.70 129.01 L215.66 127.62 L214.23 124.80 L212.85 120.98 L211.92 117.04 L211.65 114.00 L211.73 112.11 L211.96 111.22 L212.34 111.14 L212.69 111.60 L212.96 112.45 L213.12 114.81 " stroke-linecap='round' stroke-linejoin='round' brush-type='1' stroke-wetness='0.5'></path><path  style = ' stroke:#000000;  fill:none;  stroke-width:1.0;' d="M225.15 119.90 L225.39 121.23 L225.46 122.64 L225.62 125.23 L225.62 127.62 L225.62 129.55 " stroke-linecap='round' stroke-linejoin='round' brush-type='1' stroke-wetness='0.5'></path><path  style = ' stroke:#000000;  fill:none;  stroke-width:1.0;' d="M237.89 111.45 L236.62 110.87 L235.77 110.72 L233.95 110.64 L232.53 111.33 L231.21 112.53 L230.33 114.11 L229.90 116.00 L229.82 118.24 L230.13 120.71 L230.67 123.18 L231.29 125.23 L231.64 126.88 " stroke-linecap='round' stroke-linejoin='round' brush-type='1' stroke-wetness='0.5'></path><path  style = ' stroke:#000000;  fill:none;  stroke-width:1.0;' d="M227.01 122.79 L228.22 122.45 L229.17 122.33 L231.21 122.10 L233.34 122.10 L235.50 122.10 " stroke-linecap='round' stroke-linejoin='round' brush-type='1' stroke-wetness='0.5'></path><path  style = ' stroke:#000000;  fill:none;  stroke-width:1.0;' d="M245.30 120.59 L244.31 120.88 L243.48 121.02 L241.75 121.52 L240.13 122.25 L238.62 123.37 L237.62 124.65 L237.27 125.77 L237.81 126.50 L238.97 126.81 L240.44 126.69 L241.59 126.19 L242.29 125.34 L242.56 124.30 L242.33 122.95 " stroke-linecap='round' stroke-linejoin='round' brush-type='1' stroke-wetness='0.5'></path><path  style = ' stroke:#000000;  fill:none;  stroke-width:1.0;' d="M243.21 112.38 L243.79 113.82 L244.06 115.12 L244.68 118.05 L244.95 121.17 L245.22 124.53 L245.45 127.46 L245.72 129.59 L246.15 130.94 L246.69 131.63 " stroke-linecap='round' stroke-linejoin='round' brush-type='1' stroke-wetness='0.5'></path><path  style = ' stroke:#000000;  fill:none;  stroke-width:1.0;' d="M255.95 125.46 L255.54 124.99 L254.87 124.84 L253.59 124.53 L252.17 124.53 L250.93 124.53 L250.01 124.76 L249.43 125.42 L249.19 126.42 L249.23 127.39 L249.70 127.96 L250.55 128.20 L251.63 127.85 L252.71 126.81 L253.75 124.84 L254.71 122.02 L255.60 118.51 L256.22 115.27 L256.60 112.95 L256.68 111.99 L256.49 112.34 L256.22 113.69 L255.99 116.23 L255.95 119.28 L255.95 122.49 L256.10 125.07 L256.45 126.69 L257.18 127.58 L257.92 128.04 " stroke-linecap='round' stroke-linejoin='round' brush-type='1' stroke-wetness='0.5'></path><path  style = ' stroke:#000000;  fill:none;  stroke-width:1.0;' d="M271.69 120.25 L271.69 121.35 L271.69 122.41 L271.65 124.57 L271.58 126.77 L271.50 129.12 " stroke-linecap='round' stroke-linejoin='round' brush-type='1' stroke-wetness='0.5'></path><path  style = ' stroke:#000000;  fill:none;  stroke-width:1.0;' d="M283.96 120.94 L283.15 120.94 L282.26 121.02 L280.68 121.25 L279.45 121.64 L278.79 121.98 L278.56 122.37 L278.87 122.79 L279.64 123.45 L280.68 124.18 L281.45 124.92 L281.80 125.57 L281.65 126.23 L280.95 126.92 L279.83 127.58 L278.64 128.04 L277.79 128.31 " stroke-linecap='round' stroke-linejoin='round' brush-type='1' stroke-wetness='0.5'></path><path  style = ' stroke:#000000;  fill:none;  stroke-width:1.0;' d="M301.56 120.59 L300.34 120.65 L298.86 120.83 L296.27 121.37 L293.96 122.29 L292.45 123.53 L291.64 124.80 L291.52 125.88 L292.06 126.61 L293.03 126.96 L294.23 126.96 L295.38 126.46 L296.35 125.61 L297.04 124.41 L297.39 122.95 L297.51 121.44 L297.51 120.25 L297.51 119.75 L297.51 120.17 L297.39 121.52 L296.81 123.80 L295.65 126.50 L293.80 129.12 L291.72 131.32 L289.52 132.87 L287.51 133.87 L285.78 134.33 L284.39 134.29 L283.07 133.87 " stroke-linecap='round' stroke-linejoin='round' brush-type='1' stroke-wetness='0.5'></path><path  style = ' stroke:#000000;  fill:none;  stroke-width:1.0;' d="M310.24 119.21 L308.97 119.32 L307.96 120.09 L306.11 121.48 L304.76 123.53 L303.87 125.61 L303.41 127.58 L303.76 129.01 L304.84 129.70 L306.53 129.78 L308.27 129.20 L309.66 128.08 L310.47 126.65 L310.78 125.26 L310.51 123.95 L309.81 122.72 L308.77 121.68 L307.92 121.02 L307.19 120.79 " stroke-linecap='round' stroke-linejoin='round' brush-type='1' stroke-wetness='0.5'></path><path  style = ' stroke:#000000;  fill:none;  stroke-width:1.0;' d="M318.69 120.59 L317.65 121.41 L316.88 122.02 L315.33 123.45 L314.25 124.99 L313.56 126.73 L313.40 128.23 L313.98 129.12 L315.29 129.47 L317.11 129.08 L318.96 128.04 L320.35 126.46 L321.12 124.92 L321.24 123.72 L320.77 122.79 L319.96 122.10 L319.08 121.60 L318.38 121.37 L318.38 121.60 " stroke-linecap='round' stroke-linejoin='round' brush-type='1' stroke-wetness='0.5'></path><path  style = ' stroke:#000000;  fill:none;  stroke-width:1.0;' d="M330.73 121.64 L329.57 122.27 L328.65 122.64 L326.87 123.60 L325.52 124.49 L324.59 125.69 L324.09 126.88 L323.94 127.93 L324.09 128.62 L324.63 128.93 L325.52 128.89 L326.60 128.20 L327.68 126.85 L328.65 124.88 L329.30 122.52 L329.61 119.75 L329.69 116.77 L329.69 114.03 L329.69 112.07 L329.65 110.99 L329.53 111.22 L329.49 112.72 L329.57 115.54 L329.84 118.97 L330.19 122.29 L330.65 124.99 L331.35 126.81 L332.12 127.93 " stroke-linecap='round' stroke-linejoin='round' brush-type='1' stroke-wetness='0.5'></path><path  style = ' stroke:#000000;  fill:none;  stroke-width:1.0;' d="M361.29 107.63 L360.31 107.92 L359.32 108.56 L357.28 110.18 L355.12 112.88 L353.03 116.16 L351.45 119.55 L350.64 122.49 L350.68 124.92 L351.41 126.73 L352.68 127.89 L354.46 128.51 " stroke-linecap='round' stroke-linejoin='round' brush-type='1' stroke-wetness='0.5'></path><path  style = ' stroke:#000000;  fill:none;  stroke-width:1.0;' d="M367.89 117.47 L366.90 117.99 L366.15 118.59 L364.53 119.98 L363.18 121.79 L362.18 123.80 L361.71 125.61 L361.98 126.88 L363.10 127.58 " stroke-linecap='round' stroke-linejoin='round' brush-type='1' stroke-wetness='0.5'></path><path  style = ' stroke:#000000;  fill:none;  stroke-width:1.0;' d="M374.02 124.76 L373.04 123.55 L372.33 123.18 L370.82 122.76 L369.66 123.57 L368.78 124.76 L368.35 125.96 L368.31 126.88 L368.74 127.42 L369.55 127.50 L370.51 127.23 L371.28 126.73 L371.82 125.88 " stroke-linecap='round' stroke-linejoin='round' brush-type='1' stroke-wetness='0.5'></path><path  style = ' stroke:#000000;  fill:none;  stroke-width:1.0;' d="M374.95 122.45 L375.82 123.49 L376.22 124.30 L377.03 126.11 L377.38 127.85 L377.69 129.62 L378.08 130.97 L378.54 131.75 L379.04 131.90 L379.50 131.40 L379.97 130.32 L380.54 128.47 L381.28 126.31 L382.09 124.14 L382.78 122.60 L383.25 121.68 L383.48 121.29 " stroke-linecap='round' stroke-linejoin='round' brush-type='1' stroke-wetness='0.5'></path><path  style = ' stroke:#000000;  fill:none;  stroke-width:1.0;' d="M386.41 125.57 L386.99 125.80 L387.57 125.84 L388.73 125.73 L389.92 125.11 L391.04 124.14 L391.93 123.10 L392.39 122.18 L392.43 121.56 L392.12 121.21 L391.58 121.25 L390.81 121.79 L390.00 122.83 L389.27 124.18 L388.88 125.50 L388.80 126.69 L389.30 127.66 L390.27 128.27 L391.58 128.54 L392.74 128.39 L393.59 127.89 L394.05 127.04 L394.32 125.96 L394.55 124.72 L394.98 123.37 L395.56 122.14 L396.25 121.10 L397.02 120.40 L398.02 119.90 L399.30 119.67 L400.61 119.63 L401.57 120.02 L402.04 120.75 L402.15 121.75 L402.15 122.72 L402.19 123.57 L402.54 124.22 L403.23 124.68 L404.24 124.92 L405.20 124.96 L405.97 124.72 L406.44 124.22 L406.63 123.57 L406.63 122.95 L406.32 122.52 L405.74 122.29 L404.85 122.22 L403.93 122.41 L403.04 122.95 L402.42 123.80 L402.11 124.76 L402.04 125.77 L402.58 126.85 " stroke-linecap='round' stroke-linejoin='round' brush-type='1' stroke-wetness='0.5'></path><path  style = ' stroke:#000000;  fill:none;  stroke-width:1.0;' d="M412.34 126.73 L412.40 125.51 L411.68 125.19 L410.57 124.68 L409.14 125.30 L408.33 126.19 L407.94 127.12 L407.83 127.89 L408.06 128.31 L408.60 128.47 L409.52 128.08 L410.64 127.15 L411.72 125.65 L412.61 123.60 L413.11 120.71 L413.42 117.31 L413.61 114.19 L413.77 112.26 L413.77 111.45 L413.65 111.76 L413.42 113.19 L413.00 115.81 L412.34 119.32 L411.65 122.87 L411.18 125.84 L410.99 127.85 L410.95 129.16 " stroke-linecap='round' stroke-linejoin='round' brush-type='1' stroke-wetness='0.5'></path><path  style = ' stroke:#000000;  fill:none;  stroke-width:1.0;' d="M427.27 125.46 L427.74 124.70 L428.35 124.11 L429.63 122.95 L431.09 122.18 L432.52 121.75 L433.68 121.83 L434.49 122.41 L434.88 123.53 L434.95 124.96 L434.45 126.34 L433.49 127.35 L432.25 127.89 L431.09 128.08 L430.09 127.77 L428.86 126.77 L427.35 124.30 L426.04 120.94 L425.27 117.35 L425.11 114.61 L425.11 112.84 L425.23 111.95 L425.38 111.95 L425.58 113.07 L425.73 115.62 L425.85 119.28 L425.92 123.14 L426.12 126.31 L426.58 128.51 L427.58 129.86 " stroke-linecap='round' stroke-linejoin='round' brush-type='1' stroke-wetness='0.5'></path><path  style = ' stroke:#000000;  fill:none;  stroke-width:1.0;' d="M448.57 118.28 L448.11 119.15 L447.76 119.98 L446.80 121.98 L445.68 124.38 L444.44 127.00 L443.36 129.39 L442.59 131.13 " stroke-linecap='round' stroke-linejoin='round' brush-type='1' stroke-wetness='0.5'></path><path  style = ' stroke:#000000;  fill:none;  stroke-width:1.0;' d="M439.78 121.17 L440.47 121.46 L441.20 121.71 L442.86 122.45 L444.75 123.33 L446.88 124.57 L448.81 125.69 " stroke-linecap='round' stroke-linejoin='round' brush-type='1' stroke-wetness='0.5'></path><path  style = ' stroke:#000000;  fill:none;  stroke-width:1.0;' d="M461.89 112.14 L462.46 112.84 L463.04 113.49 L464.55 115.19 L466.44 117.31 L468.72 119.94 L470.80 122.49 L472.61 124.84 L474.08 126.81 L475.24 128.31 L476.16 129.55 " stroke-linecap='round' stroke-linejoin='round' brush-type='1' stroke-wetness='0.5'></path><path  style = ' stroke:#000000;  fill:none;  stroke-width:1.0;' d="M473.93 112.49 L473.06 113.36 L472.03 114.65 L470.07 117.16 L468.06 120.09 L466.32 122.83 L464.90 125.30 L463.89 127.12 L463.24 128.31 L462.85 129.01 L462.66 129.51 " stroke-linecap='round' stroke-linejoin='round' brush-type='1' stroke-wetness='0.5'></path><path  style = ' stroke:#000000;  fill:none;  stroke-width:1.0;' d="M482.14 108.79 L482.78 110.18 L483.49 111.64 L484.65 114.46 L485.46 117.28 L485.77 119.94 L485.66 122.45 L485.04 124.68 L483.88 126.69 L482.34 128.43 L480.79 129.74 L479.52 130.55 L478.71 130.90 L478.21 131.01 " stroke-linecap='round' stroke-linejoin='round' brush-type='1' stroke-wetness='0.5'></path><path  style = ' stroke:#000000;  fill:none;  stroke-width:1.0;' d="M72.70 139.35 L72.99 140.16 L73.08 140.66 L73.28 142.09 L73.28 143.94 L73.28 146.49 L73.16 149.34 L72.93 152.04 L72.70 154.47 L72.58 156.36 L72.58 157.75 " stroke-linecap='round' stroke-linejoin='round' brush-type='1' stroke-wetness='0.5'></path><path  style = ' stroke:#000000;  fill:none;  stroke-width:1.0;' d="M80.45 139.70 L80.57 140.74 L80.61 141.70 L80.69 144.06 L80.65 146.83 L80.57 149.88 L80.30 152.70 L79.88 155.09 L79.30 157.02 " stroke-linecap='round' stroke-linejoin='round' brush-type='1' stroke-wetness='0.5'></path><path  style = ' stroke:#000000;  fill:none;  stroke-width:1.0;' d="M72.58 153.01 L73.51 152.31 L74.47 152.08 L76.56 151.46 L78.91 151.19 L81.80 150.85 " stroke-linecap='round' stroke-linejoin='round' brush-type='1' stroke-wetness='0.5'></path><path  style = ' stroke:#000000;  fill:none;  stroke-width:1.0;' d="M94.35 148.15 L93.19 148.44 L92.30 148.65 L90.45 149.34 L88.83 150.38 L87.17 151.93 L85.86 153.55 L85.05 154.94 L84.85 155.75 L85.20 156.09 L85.86 156.13 L86.78 155.79 L87.79 154.94 L88.90 153.39 L89.98 151.50 L90.80 149.77 L91.30 148.69 L91.53 148.30 L91.72 148.88 L91.95 150.19 L92.22 152.16 L92.53 154.05 L92.80 155.59 L93.07 156.63 " stroke-linecap='round' stroke-linejoin='round' brush-type='1' stroke-wetness='0.5'></path><path  style = ' stroke:#000000;  fill:none;  stroke-width:1.0;' d="M96.89 151.39 L96.83 152.37 L96.89 153.24 L97.12 154.71 L97.63 155.59 L98.24 155.94 L98.94 155.71 L99.71 155.01 L100.60 153.78 L101.56 152.31 L102.53 150.85 L103.34 149.81 L103.95 149.23 L104.38 148.92 " stroke-linecap='round' stroke-linejoin='round' brush-type='1' stroke-wetness='0.5'></path><path  style = ' stroke:#000000;  fill:none;  stroke-width:1.0;' d="M108.12 153.36 L109.05 153.76 L109.63 153.90 L110.78 154.05 L111.59 153.59 L112.37 152.74 L112.87 151.54 L113.10 150.38 L112.98 149.42 L112.64 148.88 L112.06 148.65 L111.21 148.72 L110.17 149.34 L109.01 150.54 L108.04 152.27 L107.46 154.13 L107.27 155.82 L107.77 157.25 L109.51 158.41 " stroke-linecap='round' stroke-linejoin='round' brush-type='1' stroke-wetness='0.5'></path><path  style = ' stroke:#000000;  fill:none;  stroke-width:1.0;' d="M138.80 152.08 L138.04 151.85 L137.41 151.77 L136.10 151.66 L134.75 151.85 L133.24 152.31 L131.77 153.05 L130.58 154.01 L129.81 155.09 L129.42 156.25 L129.30 157.21 L129.58 157.83 L130.23 158.06 L131.39 157.95 L132.78 157.29 L134.21 155.94 L135.44 153.70 L136.44 150.50 L137.56 146.10 L138.68 141.97 L139.65 139.00 L140.07 137.96 L140.19 138.38 L139.95 140.24 L139.30 143.71 L138.26 147.91 L137.29 151.85 L136.71 154.59 L136.52 156.02 L136.52 156.60 " stroke-linecap='round' stroke-linejoin='round' brush-type='1' stroke-wetness='0.5'></path><path  style = ' stroke:#000000;  fill:none;  stroke-width:1.0;' d="M139.49 154.63 L141.17 154.34 L142.69 154.24 L145.47 153.90 L147.56 153.47 L148.87 152.74 L149.49 151.85 L149.64 150.96 L149.33 150.19 L148.71 149.61 L147.75 149.26 L146.55 149.15 L145.16 149.61 L143.74 150.85 L142.46 152.89 L141.61 155.32 L141.19 157.52 L141.42 159.10 L142.19 159.88 L143.43 160.11 L145.05 159.68 L146.98 158.45 L149.14 156.29 L150.99 153.82 L152.23 151.81 L152.80 150.69 L153.04 150.73 L153.15 151.58 L153.27 153.16 L153.42 154.94 L153.69 156.56 L154.08 157.56 L154.58 157.95 L155.08 157.64 L155.62 156.79 L156.20 155.44 L156.93 153.74 L157.78 152.00 L158.52 150.50 L158.98 149.57 L159.25 149.19 " stroke-linecap='round' stroke-linejoin='round' brush-type='1' stroke-wetness='0.5'></path><path  style = ' stroke:#000000;  fill:none;  stroke-width:1.0;' d="M162.64 153.36 L163.22 153.30 L163.96 153.20 L165.31 152.85 L166.66 152.27 L167.78 151.43 L168.55 150.50 L168.93 149.61 L168.93 148.88 L168.63 148.42 L168.05 148.18 L167.27 148.18 L166.35 148.57 L165.15 149.42 L163.76 150.92 L162.53 152.66 L161.83 154.47 L161.80 155.94 L162.64 157.14 L164.07 157.91 L165.69 158.33 L167.39 157.87 " stroke-linecap='round' stroke-linejoin='round' brush-type='1' stroke-wetness='0.5'></path><path  style = ' stroke:#000000;  fill:none;  stroke-width:1.0;' d="M173.87 146.99 L174.10 146.18 L174.18 146.53 L174.34 147.80 L174.22 150.89 L174.07 154.40 L173.91 157.37 L173.99 159.30 L174.18 160.26 " stroke-linecap='round' stroke-linejoin='round' brush-type='1' stroke-wetness='0.5'></path><path  style = ' stroke:#000000;  fill:none;  stroke-width:1.0;' d="M185.33 150.00 L184.47 150.75 L183.79 151.70 L182.59 153.55 L181.90 155.63 L181.63 157.56 L181.98 159.07 L182.94 159.88 L184.41 160.07 L185.91 159.45 L187.07 158.10 L187.73 156.21 L187.92 154.24 L187.57 152.24 L186.92 150.38 L185.99 149.03 L185.26 148.42 L184.72 148.30 L184.48 148.72 L184.56 150.35 " stroke-linecap='round' stroke-linejoin='round' brush-type='1' stroke-wetness='0.5'></path><path  style = ' stroke:#000000;  fill:none;  stroke-width:1.0;' d="M193.32 164.35 L193.15 163.77 L193.09 163.04 L192.97 161.03 L192.97 158.06 L193.09 154.36 L193.44 150.96 L194.13 148.38 L194.94 146.87 L195.79 146.14 L196.48 146.26 L197.14 147.07 L197.57 148.38 L197.80 149.96 L197.84 151.58 L197.49 153.08 L196.83 154.13 L195.87 154.63 L194.90 154.67 L194.05 154.47 " stroke-linecap='round' stroke-linejoin='round' brush-type='1' stroke-wetness='0.5'></path><path  style = ' stroke:#000000;  fill:none;  stroke-width:1.0;' d="M197.14 149.42 L198.59 151.45 L199.15 154.47 " stroke-linecap='round' stroke-linejoin='round' brush-type='1' stroke-wetness='0.5'></path><path  style = ' stroke:#000000;  fill:none;  stroke-width:1.0;' d="M204.55 159.03 L204.55 158.16 L204.70 157.10 L205.21 155.13 L206.17 153.28 L207.37 152.04 L208.49 151.43 L209.37 151.54 L210.07 152.24 L210.61 153.47 L211.03 154.98 L211.34 156.52 L211.84 157.95 " stroke-linecap='round' stroke-linejoin='round' brush-type='1' stroke-wetness='0.5'></path><path  style = ' stroke:#000000;  fill:none;  stroke-width:1.0;' d="M220.64 153.70 L219.83 153.47 L219.02 153.97 L217.63 155.01 L216.67 156.75 L216.24 158.14 L216.24 158.95 L216.63 159.22 L217.28 158.99 L218.09 158.29 L218.75 157.18 L219.17 155.82 L219.33 154.24 L219.37 152.81 L219.37 151.85 L219.48 152.12 L219.64 153.55 L219.79 156.48 L219.25 160.34 L218.13 164.35 L216.40 167.71 L214.58 169.95 L212.88 171.18 L211.50 171.49 L210.53 170.83 " stroke-linecap='round' stroke-linejoin='round' brush-type='1' stroke-wetness='0.5'></path><path  style = ' stroke:#000000;  fill:none;  stroke-width:1.0;' d="M240.09 159.26 L240.03 158.80 L240.01 157.68 L240.13 155.36 L240.71 152.54 L241.79 150.15 L243.21 148.57 L244.72 147.80 L246.18 147.91 L247.54 148.96 L248.62 150.73 L249.27 152.66 L249.54 154.13 L249.54 154.90 L249.46 154.71 L249.39 153.90 L249.62 152.27 L250.47 150.58 L251.86 149.03 L253.44 148.26 L254.75 148.45 L255.75 149.61 L256.41 151.58 L256.76 154.09 L256.87 156.87 " stroke-linecap='round' stroke-linejoin='round' brush-type='1' stroke-wetness='0.5'></path><path  style = ' stroke:#000000;  fill:none;  stroke-width:1.0;' d="M268.10 151.04 L267.29 151.16 L266.33 151.62 L264.51 152.74 L262.66 154.51 L261.12 156.48 L260.11 158.14 L259.81 159.07 L260.35 159.07 L261.16 158.33 L262.01 157.14 L262.39 155.75 L262.55 154.51 L262.55 153.70 L262.55 153.78 L262.55 154.71 L262.55 156.40 L262.55 158.56 L262.55 161.15 L262.55 163.54 L262.55 165.43 L262.74 166.86 L263.20 167.59 L263.78 166.67 L264.40 163.70 L265.17 159.45 L266.29 155.55 L267.60 152.51 L268.84 150.54 L269.92 149.46 L270.80 149.03 L271.54 149.38 L272.04 150.23 L272.31 151.46 L272.39 152.58 L272.19 153.51 L271.69 154.13 L270.84 154.44 L269.72 154.51 L268.45 154.55 " stroke-linecap='round' stroke-linejoin='round' brush-type='1' stroke-wetness='0.5'></path><path  style = ' stroke:#000000;  fill:none;  stroke-width:1.0;' d="M301.44 141.08 L300.98 141.26 L300.59 141.39 L299.71 141.89 L298.66 142.67 L297.31 143.90 L295.73 145.52 L294.07 147.53 L292.53 149.81 L291.25 152.20 L290.48 154.47 L290.21 156.40 L290.79 157.83 L292.10 158.76 L294.34 159.26 L296.85 159.45 L299.40 159.03 L301.75 157.83 L303.91 155.94 L305.76 153.63 L307.08 151.12 L308.00 148.18 L308.50 145.68 L308.77 143.75 L308.77 142.20 L308.12 140.78 L306.65 139.70 L304.53 139.54 L302.60 140.04 L301.21 140.74 L300.32 141.39 L299.82 141.93 L299.47 142.40 L299.28 142.82 L299.16 143.21 L299.13 143.59 L299.13 144.02 L299.13 144.48 L299.13 145.14 L299.47 145.87 L300.44 146.60 L302.14 147.14 L304.14 147.45 L306.03 147.49 L307.73 147.10 L309.31 146.29 L310.82 145.14 L312.13 143.94 L313.06 142.94 L313.63 142.24 L313.87 141.78 L313.94 141.43 L313.91 141.12 " stroke-linecap='round' stroke-linejoin='round' brush-type='1' stroke-wetness='0.5'></path><path  style = ' stroke:#000000;  fill:none;  stroke-width:1.0;' d="M294.50 138.77 L295.19 138.31 L296.12 137.88 L297.85 137.07 L299.59 136.49 L300.98 136.18 L302.10 136.18 L302.98 136.57 L303.83 137.23 L304.80 138.00 L305.92 138.54 L307.11 138.81 L308.16 138.65 L308.93 138.15 L309.35 137.38 L309.51 136.49 " stroke-linecap='round' stroke-linejoin='round' brush-type='1' stroke-wetness='0.5'></path><path  style = ' stroke:#000000;  fill:none;  stroke-width:1.0;' d="M315.56 150.46 L316.43 150.58 L317.46 150.62 L319.89 150.58 L323.05 150.31 L326.83 150.00 L330.65 149.73 L334.05 149.53 L336.63 149.38 L338.29 149.26 L339.06 149.15 L339.06 148.88 L338.56 148.42 L337.40 147.64 L335.71 146.60 L333.74 145.52 L332.23 144.71 L332.35 144.71 L333.51 145.33 L335.32 146.56 L336.52 147.95 L337.33 149.61 L337.67 151.35 L337.60 152.97 L337.06 154.32 L336.13 155.28 L335.05 155.86 L334.05 156.09 L333.35 156.13 L332.93 156.09 " stroke-linecap='round' stroke-linejoin='round' brush-type='1' stroke-wetness='0.5'></path><path  style = ' stroke:#000000;  fill:none;  stroke-width:1.0;' d="M345.31 140.51 L345.78 141.32 L346.74 142.71 L348.63 145.41 L350.99 148.57 L353.03 151.46 L354.65 153.97 L355.73 156.02 L356.51 157.56 L356.93 158.49 L356.89 158.49 " stroke-linecap='round' stroke-linejoin='round' brush-type='1' stroke-wetness='0.5'></path><path  style = ' stroke:#000000;  fill:none;  stroke-width:1.0;' d="M355.73 140.62 L355.04 141.43 L354.46 142.16 L352.99 143.94 L351.30 146.06 L349.06 148.69 L346.82 151.31 L344.77 153.59 L343.39 155.17 L342.58 156.06 L342.23 156.40 L342.00 156.60 " stroke-linecap='round' stroke-linejoin='round' brush-type='1' stroke-wetness='0.5'></path><path  style = ' stroke:#000000;  fill:none;  stroke-width:1.0;' d="M406.32 150.11 L405.68 150.00 L405.09 149.96 L403.81 149.88 L402.35 150.19 L400.65 151.12 L398.91 152.78 L397.56 154.90 L396.75 156.87 L396.44 158.26 L396.64 158.91 L397.21 159.10 L398.18 158.83 L399.26 158.10 L400.22 156.98 L400.84 155.86 L401.07 154.86 L401.11 154.09 L401.07 153.59 L401.00 153.86 L400.92 154.71 L400.92 156.21 L401.03 157.95 " stroke-linecap='round' stroke-linejoin='round' brush-type='1' stroke-wetness='0.5'></path><path  style = ' stroke:#000000;  fill:none;  stroke-width:1.0;' d="M402.04 161.23 L403.25 160.01 L403.74 159.18 L404.89 157.48 L405.55 156.29 L406.40 155.40 L407.17 154.98 L407.83 154.90 L408.37 155.28 L408.75 156.06 L408.98 157.18 L409.14 158.33 L409.41 159.34 " stroke-linecap='round' stroke-linejoin='round' brush-type='1' stroke-wetness='0.5'></path><path  style = ' stroke:#000000;  fill:none;  stroke-width:1.0;' d="M416.86 153.82 L416.22 154.17 L415.70 154.71 L414.58 155.94 L413.61 157.41 L412.92 158.72 L412.61 159.53 L412.84 159.88 L413.42 159.84 L414.27 159.41 L415.12 158.49 L415.85 157.10 L416.58 154.36 L417.43 150.23 L418.36 145.37 L419.13 141.59 L419.52 139.62 L419.63 139.54 L419.63 140.70 L419.63 143.09 L419.59 145.98 L419.40 149.34 L419.09 152.43 L418.82 155.25 L418.71 157.52 L418.90 159.34 " stroke-linecap='round' stroke-linejoin='round' brush-type='1' stroke-wetness='0.5'></path><path  style = ' stroke:#000000;  fill:none;  stroke-width:1.0;' d="M431.21 142.47 L431.38 144.50 L431.44 146.49 L431.56 150.11 L431.44 153.32 L431.25 155.86 L431.06 157.72 L430.98 158.06 L431.02 157.48 L431.17 156.36 L432.56 154.86 L434.18 153.63 L436.19 152.93 L437.00 153.70 L437.54 154.86 L437.58 155.98 " stroke-linecap='round' stroke-linejoin='round' brush-type='1' stroke-wetness='0.5'></path><path  style = ' stroke:#000000;  fill:none;  stroke-width:1.0;' d="M442.21 152.43 L441.05 153.01 L440.47 153.66 L439.35 155.05 L439.00 156.40 L438.93 157.37 L439.47 157.79 L440.66 157.72 L442.32 157.21 L443.75 156.33 L444.56 155.32 L444.83 154.44 L444.56 153.78 L443.87 153.36 L442.79 153.08 L441.82 152.97 " stroke-linecap='round' stroke-linejoin='round' brush-type='1' stroke-wetness='0.5'></path><path  style = ' stroke:#000000;  fill:none;  stroke-width:1.0;' d="M453.44 140.62 L453.49 141.89 L453.44 144.02 L453.17 148.11 L452.66 152.62 L452.08 156.56 L451.66 159.72 L451.43 161.96 L451.54 162.89 " stroke-linecap='round' stroke-linejoin='round' brush-type='1' stroke-wetness='0.5'></path><path  style = ' stroke:#000000;  fill:none;  stroke-width:1.0;' d="M462.23 147.10 L462.52 147.91 L462.62 148.38 L462.81 149.26 L462.93 149.73 " stroke-linecap='round' stroke-linejoin='round' brush-type='1' stroke-wetness='0.5'></path><path  style = ' stroke:#000000;  fill:none;  stroke-width:1.0;' d="M464.43 156.71 L464.09 155.96 L464.01 155.40 L464.05 154.36 L464.51 153.78 L465.09 153.51 L465.51 153.59 L465.74 153.90 L465.82 154.32 L465.78 154.74 L465.63 155.01 L465.32 155.17 L464.97 155.21 L464.70 155.05 L464.47 154.74 " stroke-linecap='round' stroke-linejoin='round' brush-type='1' stroke-wetness='0.5'></path><path  style = ' stroke:#000000;  fill:none;  stroke-width:1.0;' d="M476.36 144.79 L476.88 144.09 L477.40 143.75 L478.44 143.01 L479.48 142.63 L480.56 142.36 L481.76 142.24 L483.03 142.28 L484.34 142.51 L485.58 142.86 L486.89 143.21 L488.32 143.36 L489.86 143.40 L491.33 143.25 L492.52 142.94 L493.41 142.47 L494.07 142.05 L494.57 141.70 " stroke-linecap='round' stroke-linejoin='round' brush-type='1' stroke-wetness='0.5'></path><path  style = ' stroke:#000000;  fill:none;  stroke-width:1.0;' d="M484.23 146.06 L484.00 147.05 L483.84 148.26 L483.49 150.73 L483.26 153.43 L483.11 155.94 L483.07 157.79 L483.15 158.83 L483.34 159.18 " stroke-linecap='round' stroke-linejoin='round' brush-type='1' stroke-wetness='0.5'></path><path  style = ' stroke:#000000;  fill:none;  stroke-width:1.0;' d="M491.87 144.33 L491.93 145.71 L491.95 147.41 L491.95 150.46 L491.83 153.28 L491.71 155.52 L491.64 157.52 " stroke-linecap='round' stroke-linejoin='round' brush-type='1' stroke-wetness='0.5'></path><path  style = ' stroke:#000000;  fill:none;  stroke-width:1.0;' d="M496.27 154.98 L496.61 156.08 L496.73 156.94 L496.96 158.72 L496.96 160.22 L496.96 161.57 L497.00 162.54 " stroke-linecap='round' stroke-linejoin='round' brush-type='1' stroke-wetness='0.5'></path><path  style = ' stroke:#000000;  fill:none;  stroke-width:1.0;' d="M510.51 139.46 L510.04 140.39 L509.58 141.39 L508.27 144.17 L506.69 147.95 L505.06 152.47 L504.02 156.52 L503.56 159.61 L503.52 161.57 L503.98 162.69 L505.03 163.19 L506.49 163.39 " stroke-linecap='round' stroke-linejoin='round' brush-type='1' stroke-wetness='0.5'></path><path  style = ' stroke:#000000;  fill:none;  stroke-width:1.0;' d="M523.12 142.82 L521.73 142.88 L520.62 143.44 L518.57 144.67 L516.99 146.83 L515.64 149.53 L514.60 152.43 L514.02 155.01 L513.98 156.91 L514.52 158.18 L515.64 158.91 L517.37 159.26 L519.38 159.18 L521.43 158.33 L523.32 156.79 L524.94 154.63 L526.13 152.27 L526.79 149.61 L527.02 146.76 L527.02 144.40 L526.91 142.78 L526.33 141.78 L524.78 141.24 L522.39 141.43 L520.00 142.59 L518.49 144.13 L517.91 145.56 L518.15 146.60 L519.15 147.22 L521.04 147.49 L523.47 147.53 L525.94 147.18 L527.99 146.41 L529.61 145.25 L531.00 144.09 " stroke-linecap='round' stroke-linejoin='round' brush-type='1' stroke-wetness='0.5'></path><path  style = ' stroke:#000000;  fill:none;  stroke-width:1.0;' d="M536.09 138.42 L536.67 139.64 L537.32 141.12 L538.37 144.02 L539.06 146.99 L539.14 149.92 L538.33 152.78 L536.67 155.75 L534.20 158.33 L531.73 160.34 L529.49 161.46 L527.83 161.92 L526.60 161.88 " stroke-linecap='round' stroke-linejoin='round' brush-type='1' stroke-wetness='0.5'></path><path  style = ' stroke:#000000;  fill:none;  stroke-width:1.0;' d="M542.22 151.50 L542.63 151.50 L543.42 151.50 L545.27 151.50 L547.97 151.43 L551.14 151.12 L554.26 150.65 L556.85 150.11 L558.59 149.61 L559.47 149.15 L559.74 148.72 L559.51 148.42 L559.01 148.11 L558.24 147.84 L557.43 147.64 L556.69 147.49 L556.27 147.37 L556.69 147.57 L557.70 148.22 L559.01 149.34 L559.86 150.58 L560.28 151.77 L560.21 152.89 L559.63 153.90 L558.70 154.71 L557.70 155.21 L556.85 155.40 L556.23 155.44 " stroke-linecap='round' stroke-linejoin='round' brush-type='1' stroke-wetness='0.5'></path><path  style = ' stroke:#000000;  fill:none;  stroke-width:1.0;' d="M575.10 137.84 L574.58 138.36 L573.87 139.19 L572.44 140.93 L570.82 143.28 L569.27 145.87 L567.92 148.65 L567.04 151.27 L566.61 153.55 L566.73 155.36 L567.34 156.67 L568.54 157.56 L570.12 157.99 L571.97 157.83 L573.83 157.06 L575.52 155.82 L576.88 154.40 L577.88 152.93 L578.53 151.43 L578.84 150.04 L578.84 149.11 L578.50 148.69 L577.80 148.61 L576.84 148.72 L575.79 148.99 L574.87 149.38 L574.14 149.69 L573.71 149.88 " stroke-linecap='round' stroke-linejoin='round' brush-type='1' stroke-wetness='0.5'></path><path  style = ' stroke:#000000;  fill:none;  stroke-width:1.0;' d="M41.67 182.64 L42.89 182.76 L44.30 182.76 L46.96 182.64 L49.55 182.14 L51.78 181.25 L53.67 180.13 L55.18 178.94 L56.18 177.82 L56.68 176.89 L56.68 176.16 L56.11 175.58 L54.79 175.12 L53.02 174.85 L51.01 174.89 L49.08 175.35 L47.19 176.16 L45.53 177.32 L44.30 178.67 L43.64 180.29 L43.41 182.10 L43.60 183.92 L44.34 185.61 L45.84 186.96 L47.93 187.97 L50.05 188.51 L52.17 188.55 L54.06 187.97 " stroke-linecap='round' stroke-linejoin='round' brush-type='1' stroke-wetness='0.5'></path><path  style = ' stroke:#000000;  fill:none;  stroke-width:1.0;' d="M56.26 174.89 L56.72 175.52 L57.11 176.20 L58.42 178.09 L60.08 180.52 L61.97 183.38 L63.48 185.92 L64.52 187.97 L65.17 189.28 L65.48 189.90 " stroke-linecap='round' stroke-linejoin='round' brush-type='1' stroke-wetness='0.5'></path><path  style = ' stroke:#000000;  fill:none;  stroke-width:1.0;' d="M62.63 176.16 L61.99 177.03 L60.89 178.36 L58.85 181.02 L56.26 184.03 L53.75 186.89 L51.17 189.20 L48.74 190.98 L46.57 192.02 " stroke-linecap='round' stroke-linejoin='round' brush-type='1' stroke-wetness='0.5'></path><path  style = ' stroke:#000000;  fill:none;  stroke-width:1.0;' d="M39.24 191.21 L41.21 191.56 L43.18 191.67 L47.77 192.06 L52.94 192.29 L58.61 192.56 L63.86 192.68 L68.34 192.64 L71.81 192.33 L74.16 191.71 L75.51 190.82 L76.05 189.67 L76.05 187.85 L75.63 184.80 L74.90 180.56 L74.13 176.08 L73.59 172.34 L73.35 169.83 L73.28 168.40 L73.28 167.86 L73.82 168.71 " stroke-linecap='round' stroke-linejoin='round' brush-type='1' stroke-wetness='0.5'></path><path  style = ' stroke:#000000;  fill:none;  stroke-width:1.0;' d="M85.89 191.90 L86.13 191.32 L86.20 190.75 L86.36 189.05 L86.32 186.50 L86.24 182.95 L86.16 179.17 L86.16 175.62 L86.40 172.69 L86.94 170.41 L87.86 168.83 L89.02 167.98 L90.37 167.67 L91.72 168.10 L92.99 169.02 L93.96 170.33 L94.62 171.61 L94.92 172.73 L94.77 173.65 L93.96 174.58 L92.38 175.50 L90.33 176.51 L88.29 177.32 L86.74 177.90 L85.89 178.17 L86.01 178.28 L87.28 178.71 L89.68 179.63 L92.53 181.14 L95.04 182.84 L96.66 184.57 L97.43 186.23 L97.32 187.85 L96.39 189.36 L94.69 190.63 L92.61 191.44 L90.56 191.83 L88.83 191.75 L87.63 191.40 " stroke-linecap='round' stroke-linejoin='round' brush-type='1' stroke-wetness='0.5'></path><path  style = ' stroke:#000000;  fill:none;  stroke-width:1.0;' d="M102.56 181.48 L102.85 182.58 L102.95 183.49 L103.10 185.61 L102.91 187.66 L102.56 189.51 L102.14 190.59 L101.87 191.05 " stroke-linecap='round' stroke-linejoin='round' brush-type='1' stroke-wetness='0.5'></path><path  style = ' stroke:#000000;  fill:none;  stroke-width:1.0;' d="M108.93 172.69 L109.10 173.79 L109.16 174.73 L109.28 177.01 L109.28 179.71 L109.24 182.60 L109.12 185.15 L108.97 186.81 L108.85 187.81 " stroke-linecap='round' stroke-linejoin='round' brush-type='1' stroke-wetness='0.5'></path><path  style = ' stroke:#000000;  fill:none;  stroke-width:1.0;' d="M114.95 170.72 L115.24 171.99 L115.34 174.11 L115.53 178.21 L115.53 182.53 L115.53 186.04 L115.53 188.43 L115.53 189.90 L115.53 190.51 " stroke-linecap='round' stroke-linejoin='round' brush-type='1' stroke-wetness='0.5'></path><path  style = ' stroke:#000000;  fill:none;  stroke-width:1.0;' d="M121.90 177.43 L122.24 178.76 L122.36 179.94 L122.59 182.41 L122.59 184.84 L122.59 187.12 L122.63 188.89 L122.86 190.17 " stroke-linecap='round' stroke-linejoin='round' brush-type='1' stroke-wetness='0.5'></path><path  style = ' stroke:#000000;  fill:none;  stroke-width:1.0;' d="M133.01 182.06 L131.85 182.35 L131.12 182.60 L129.61 183.34 L128.53 184.53 L127.68 186.19 L127.22 187.81 L127.22 188.86 L127.65 189.28 L128.49 189.16 L129.58 188.51 L130.69 187.27 L131.54 185.69 L132.08 184.26 L132.28 183.38 L132.08 183.53 L131.81 184.38 L131.54 185.77 L131.50 187.20 L131.54 188.78 L131.81 190.01 L132.24 190.71 L132.70 190.82 L133.01 190.55 L133.20 189.94 L133.36 188.70 L133.63 186.96 L134.09 185.03 L134.82 183.41 L135.71 182.37 L136.75 181.83 L137.87 181.64 L139.18 181.60 L140.96 181.76 " stroke-linecap='round' stroke-linejoin='round' brush-type='1' stroke-wetness='0.5'></path><path  style = ' stroke:#000000;  fill:none;  stroke-width:1.0;' d="M148.06 183.57 L147.54 183.51 L146.98 183.53 L145.86 183.68 L144.74 184.19 L143.81 185.07 L143.20 186.27 L142.93 187.47 L142.96 188.35 L143.39 188.82 L144.16 188.97 L145.16 188.78 L146.09 188.16 L146.78 187.04 L147.40 184.53 L148.33 180.48 L149.37 175.81 L150.33 171.84 L150.84 169.48 L151.15 168.25 L151.26 168.44 L151.30 169.60 L151.18 171.76 L150.76 174.66 L150.10 178.09 L149.45 181.33 L148.98 183.88 L148.75 185.73 L148.56 187.20 L148.44 188.31 " stroke-linecap='round' stroke-linejoin='round' brush-type='1' stroke-wetness='0.5'></path><path  style = ' stroke:#000000;  fill:none;  stroke-width:1.0;' d="M163.45 171.65 L164.32 171.70 L165.73 171.72 L168.63 171.72 L172.29 171.61 L176.07 171.41 L179.35 171.22 L181.67 171.11 L182.94 171.07 L183.56 171.07 " stroke-linecap='round' stroke-linejoin='round' brush-type='1' stroke-wetness='0.5'></path><path  style = ' stroke:#000000;  fill:none;  stroke-width:1.0;' d="M175.84 173.03 L175.73 174.48 L175.69 175.81 L175.57 178.78 L175.53 181.76 L175.49 184.65 L175.49 186.93 L175.73 188.70 " stroke-linecap='round' stroke-linejoin='round' brush-type='1' stroke-wetness='0.5'></path><path  style = ' stroke:#000000;  fill:none;  stroke-width:1.0;' d="M190.54 179.05 L189.44 179.46 L188.73 179.71 L187.26 180.44 L186.18 181.33 L185.22 182.60 L184.52 183.92 L184.18 185.00 L184.10 185.65 L184.29 185.92 L184.83 185.69 L186.03 184.65 L187.53 183.03 L188.92 181.29 L189.69 180.17 L190.04 179.71 L190.16 179.98 L190.20 180.71 L190.27 181.95 L190.47 183.61 L191.01 185.54 L191.82 187.23 L192.70 188.24 L193.28 188.62 L193.55 188.39 L193.71 187.77 L194.02 186.77 L194.52 185.73 L195.21 184.80 L195.98 184.22 L196.72 183.95 L197.30 183.92 L197.64 184.11 L197.84 184.61 L197.91 185.42 L197.95 186.35 L197.76 187.08 L197.30 187.54 L196.52 187.70 L195.71 187.54 L194.94 186.96 L193.94 185.23 " stroke-linecap='round' stroke-linejoin='round' brush-type='1' stroke-wetness='0.5'></path><path  style = ' stroke:#000000;  fill:none;  stroke-width:1.0;' d="M190.89 175.81 L191.53 175.35 L191.82 176.35 L192.36 178.21 L192.47 181.33 L192.51 183.99 L192.51 186.19 L192.51 187.70 L192.59 188.66 " stroke-linecap='round' stroke-linejoin='round' brush-type='1' stroke-wetness='0.5'></path><path  style = ' stroke:#000000;  fill:none;  stroke-width:1.0;' d="M202.70 175.70 L202.70 177.32 L202.70 178.98 L202.70 182.06 L202.70 184.65 L202.70 186.54 L202.70 187.74 " stroke-linecap='round' stroke-linejoin='round' brush-type='1' stroke-wetness='0.5'></path><path  style = ' stroke:#000000;  fill:none;  stroke-width:1.0;' d="M207.21 184.26 L208.20 184.38 L209.06 184.42 L210.68 184.34 L212.07 183.92 L213.19 183.18 L214.04 182.33 L214.47 181.48 L214.62 180.75 L214.35 180.13 L213.69 179.79 L212.65 179.63 L211.46 179.98 L210.14 180.79 L208.64 182.26 L207.17 184.03 L206.05 186.00 L205.51 187.85 L205.51 189.51 L206.25 190.90 L207.75 192.13 L209.99 193.18 L212.42 193.91 L215.01 194.26 " stroke-linecap='round' stroke-linejoin='round' brush-type='1' stroke-wetness='0.5'></path><path  style = ' stroke:#000000;  fill:none;  stroke-width:1.0;' d="M125.37 213.67 L126.18 213.96 L127.22 214.09 L129.38 214.36 L132.08 214.48 L135.21 214.55 L138.80 214.59 L142.66 214.59 L146.82 214.63 L151.11 214.71 L156.35 214.86 L162.41 215.09 L168.43 215.40 L173.41 215.79 L177.54 216.14 L181.44 216.44 L185.10 216.64 L188.19 216.79 L190.77 216.87 L192.82 216.91 L194.29 216.91 L195.29 216.91 L195.87 216.91 L196.14 217.10 L196.21 217.45 L196.18 218.10 L196.06 219.03 L195.91 220.34 L195.67 221.92 L195.44 223.81 L195.10 225.98 L194.79 228.45 L194.44 231.30 L194.13 234.58 L193.82 238.17 L193.59 241.84 L193.44 245.35 L193.32 248.74 L193.20 251.94 L193.13 255.03 L193.09 257.96 L193.09 260.74 L193.09 263.17 L193.09 265.18 L193.09 266.61 L193.09 267.69 L193.09 268.31 L193.09 268.69 L192.86 268.73 L192.32 268.73 L191.31 268.65 L189.77 268.65 L187.46 268.61 L184.29 268.50 L180.28 268.34 L175.80 268.23 L171.29 268.19 L166.93 268.19 L162.76 268.19 L158.82 268.19 L155.08 268.19 L151.53 268.11 L147.79 267.92 L144.01 267.61 L140.30 267.30 L136.91 267.07 L134.05 266.92 L131.39 266.80 L129.03 266.65 L126.95 266.53 L125.41 266.45 L124.29 266.45 L123.59 266.41 L123.25 266.22 L123.17 265.84 L123.17 265.33 L123.17 264.83 L123.17 264.41 L123.17 263.98 L123.17 263.44 L123.17 262.44 L123.17 260.74 L123.17 258.35 L123.17 255.57 L123.17 252.72 L123.17 249.98 L123.17 247.28 L123.21 244.38 L123.32 241.22 L123.48 237.86 L123.63 234.70 L123.75 231.73 L123.86 228.99 L124.02 226.32 L124.13 223.93 L124.21 221.77 L124.21 219.92 L124.21 218.30 L124.21 217.14 L124.21 216.41 L124.17 216.06 L123.98 215.75 " stroke-linecap='round' stroke-linejoin='round' brush-type='1' stroke-wetness='0.5'></path><path  style = ' stroke:#000000;  fill:none;  stroke-width:1.0;' d="M155.81 196.19 L156.74 196.30 L157.55 196.34 L159.21 196.42 L160.64 196.42 L161.76 196.42 L162.41 196.50 L162.72 196.61 L162.84 196.88 L162.88 197.31 L162.80 198.00 L162.45 198.93 L161.60 200.05 L160.17 201.55 L158.44 203.36 L156.70 205.33 L155.27 207.03 L154.23 208.11 L153.61 208.69 " stroke-linecap='round' stroke-linejoin='round' brush-type='1' stroke-wetness='0.5'></path><path  style = ' stroke:#000000;  fill:none;  stroke-width:1.0;' d="M160.44 197.92 L160.10 198.79 L159.60 199.39 L158.59 200.78 L157.32 202.17 L156.01 203.67 L154.85 204.91 L154.08 205.72 L153.73 206.14 L153.65 206.45 L153.96 206.64 L154.66 206.88 L155.81 207.07 L157.28 207.26 L158.86 207.38 L160.37 207.42 " stroke-linecap='round' stroke-linejoin='round' brush-type='1' stroke-wetness='0.5'></path><path  style = ' stroke:#000000;  fill:none;  stroke-width:1.0;' d="M164.15 206.84 L164.67 206.66 L165.11 206.61 L165.96 206.49 L166.58 206.61 L166.97 206.88 L167.12 207.38 L166.93 208.11 L166.35 209.11 L165.42 210.27 L164.53 211.35 L163.99 212.12 L163.80 212.62 L164.07 212.93 L164.80 213.24 L166.04 213.51 L167.51 213.82 " stroke-linecap='round' stroke-linejoin='round' brush-type='1' stroke-wetness='0.5'></path><path  style = ' stroke:#000000;  fill:none;  stroke-width:1.0;' d="M149.45 274.56 L150.03 274.85 L150.88 274.94 L152.61 275.14 L154.62 275.06 L156.47 274.94 L157.94 274.75 L158.82 274.60 L159.21 274.44 L158.98 274.48 L158.55 274.87 L157.90 275.68 L157.32 276.87 L156.59 278.18 L155.85 279.50 L155.08 280.50 L154.31 281.31 " stroke-linecap='round' stroke-linejoin='round' brush-type='1' stroke-wetness='0.5'></path><path  style = ' stroke:#000000;  fill:none;  stroke-width:1.0;' d="M155.81 276.18 L155.41 276.99 L154.81 277.95 L153.65 279.77 L152.42 281.50 L151.49 282.85 L150.99 283.78 L150.95 284.28 L151.65 284.47 L152.73 284.51 L154.08 284.47 L155.47 284.09 " stroke-linecap='round' stroke-linejoin='round' brush-type='1' stroke-wetness='0.5'></path><path  style = ' stroke:#000000;  fill:none;  stroke-width:1.0;' d="M159.52 281.62 L160.27 281.62 L160.64 281.62 L161.25 281.85 L161.37 282.43 L161.37 283.35 L161.22 284.36 L161.02 285.17 L160.83 285.71 L160.91 285.98 L161.45 286.13 L162.53 286.21 L164.11 286.21 L166.23 285.98 " stroke-linecap='round' stroke-linejoin='round' brush-type='1' stroke-wetness='0.5'></path><path  style = ' stroke:#000000;  fill:none;  stroke-width:1.0;' d="M198.65 239.94 L199.75 239.83 L200.65 239.79 L202.50 239.71 L204.20 239.67 L205.75 239.64 L206.90 239.56 L207.60 239.52 L207.91 239.60 L207.95 239.94 L207.60 240.64 L206.83 241.72 L205.55 243.26 L204.05 245.08 L202.62 246.74 L201.58 247.85 L200.88 248.36 " stroke-linecap='round' stroke-linejoin='round' brush-type='1' stroke-wetness='0.5'></path><path  style = ' stroke:#000000;  fill:none;  stroke-width:1.0;' d="M202.81 242.84 L202.18 243.71 L201.42 244.61 L200.03 246.27 L198.80 247.70 L197.99 248.74 L197.60 249.40 L197.57 249.78 L198.11 249.98 L199.49 250.09 L201.66 250.13 L204.16 250.13 L206.52 249.86 " stroke-linecap='round' stroke-linejoin='round' brush-type='1' stroke-wetness='0.5'></path><path  style = ' stroke:#000000;  fill:none;  stroke-width:1.0;' d="M209.76 248.97 L210.22 248.80 L210.65 248.74 L211.42 248.74 L212.00 249.05 L212.31 249.71 L212.42 250.56 L212.19 251.56 L211.69 252.56 L210.99 253.60 L210.49 254.49 L210.26 255.15 L210.34 255.53 L210.92 255.80 L212.11 256.00 L213.62 256.11 L214.97 256.15 L215.89 256.07 " stroke-linecap='round' stroke-linejoin='round' brush-type='1' stroke-wetness='0.5'></path><path  style = ' stroke:#000000;  fill:none;  stroke-width:1.0;' d="M103.26 234.39 L106.62 234.39 L108.70 234.39 L112.25 234.39 L113.75 234.39 L114.37 234.39 L114.68 234.54 L114.80 234.89 L114.60 235.51 L113.99 236.43 L112.87 237.86 L111.32 239.64 L109.59 241.49 L107.97 242.92 L106.89 243.84 " stroke-linecap='round' stroke-linejoin='round' brush-type='1' stroke-wetness='0.5'></path><path  style = ' stroke:#000000;  fill:none;  stroke-width:1.0;' d="M110.55 234.85 L110.15 235.14 L109.59 235.51 L108.47 236.39 L107.19 237.59 L106.00 239.02 L105.07 240.41 L104.57 241.64 L104.42 242.57 L104.76 243.30 L105.73 243.76 L107.54 244.11 L109.63 244.27 L111.55 244.30 L112.87 244.11 " stroke-linecap='round' stroke-linejoin='round' brush-type='1' stroke-wetness='0.5'></path><path  style = ' stroke:#000000;  fill:none;  stroke-width:1.0;' d="M115.07 243.76 L115.41 243.71 L115.72 243.73 L116.26 243.88 L116.57 244.34 L116.69 245.11 L116.38 246.16 L115.65 247.39 L114.68 248.63 L113.95 249.59 L113.72 250.09 L114.26 250.25 L115.30 250.25 L116.46 250.05 L117.27 249.59 " stroke-linecap='round' stroke-linejoin='round' brush-type='1' stroke-wetness='0.5'></path><path  style = ' stroke:#000000;  fill:none;  stroke-width:1.0;' d="M105.92 197.69 L106.21 198.44 L106.31 199.12 L106.54 200.74 L106.65 202.67 L106.77 204.95 L106.89 207.15 L106.96 208.96 L107.04 210.12 L106.92 210.58 " stroke-linecap='round' stroke-linejoin='round' brush-type='1' stroke-wetness='0.5'></path><path  style = ' stroke:#000000;  fill:none;  stroke-width:1.0;' d="M110.09 198.15 L110.73 198.44 L111.09 198.85 L111.83 199.81 L112.13 201.20 L112.29 203.13 L112.21 205.45 L111.83 208.07 L111.05 210.54 L110.09 212.59 L109.28 213.90 L108.74 214.52 L108.35 214.52 " stroke-linecap='round' stroke-linejoin='round' brush-type='1' stroke-wetness='0.5'></path><path  style = ' stroke:#000000;  fill:none;  stroke-width:1.0;' d="M116.80 208.34 L116.74 209.21 L116.57 209.81 L116.15 211.08 L115.53 212.12 L114.95 213.13 L114.60 213.94 L114.49 214.48 L114.68 214.82 L115.14 214.98 L115.84 215.06 L116.57 214.94 L117.30 214.75 " stroke-linecap='round' stroke-linejoin='round' brush-type='1' stroke-wetness='0.5'></path><path  style = ' stroke:#000000;  fill:none;  stroke-width:1.0;' d="M122.48 210.77 a0.50 0.50 0 1 0 0.01 0 " stroke-linecap='round' stroke-linejoin='round' brush-type='1' stroke-wetness='0.5'></path><path  style = ' stroke:#000000;  fill:none;  stroke-width:1.0;' d="M126.30 206.95 L126.87 206.89 L127.26 207.07 L127.92 207.45 L128.19 208.15 L128.19 209.00 L127.80 209.96 L127.07 210.97 L126.22 211.81 L125.68 212.39 L125.75 212.70 L126.30 212.82 L127.11 212.86 L127.80 212.82 L128.34 212.74 L128.69 212.66 " stroke-linecap='round' stroke-linejoin='round' brush-type='1' stroke-wetness='0.5'></path><path  style = ' stroke:#000000;  fill:none;  stroke-width:1.0;' d="M109.05 197.69 L108.47 197.69 L107.93 197.69 L106.96 197.73 L106.15 197.85 L105.57 198.04 L105.15 198.27 L104.92 198.58 L104.76 198.96 " stroke-linecap='round' stroke-linejoin='round' brush-type='1' stroke-wetness='0.5'></path><path  style = ' stroke:#000000;  fill:none;  stroke-width:1.0;' d="M108.12 212.05 L108.64 212.80 L109.01 213.32 L109.74 214.28 L110.24 214.82 " stroke-linecap='round' stroke-linejoin='round' brush-type='1' stroke-wetness='0.5'></path><path  style = ' stroke:#000000;  fill:none;  stroke-width:1.0;' d="M200.38 206.14 L200.38 206.78 L200.38 207.34 L200.34 208.65 L200.23 210.12 L199.92 211.78 L199.61 213.43 L199.26 214.79 L199.07 215.75 L198.88 216.17 L198.65 216.33 " stroke-linecap='round' stroke-linejoin='round' brush-type='1' stroke-wetness='0.5'></path><path  style = ' stroke:#000000;  fill:none;  stroke-width:1.0;' d="M198.65 206.49 L199.28 206.43 L199.73 206.41 L200.61 206.41 L201.35 206.72 L202.08 207.34 L202.85 208.34 L203.51 209.54 L204.01 210.89 L204.24 212.35 L204.13 213.82 L203.55 215.29 L202.50 216.56 L201.08 217.56 L199.65 218.18 L198.38 218.45 L197.64 218.53 L197.30 218.37 " stroke-linecap='round' stroke-linejoin='round' brush-type='1' stroke-wetness='0.5'></path><path  style = ' stroke:#000000;  fill:none;  stroke-width:1.0;' d="M206.52 214.13 L206.81 214.36 L207.02 214.71 L207.37 215.40 L207.52 216.33 L207.48 217.33 L207.02 218.53 L206.21 219.76 L205.24 220.88 L204.63 221.62 L204.74 221.92 L205.51 222.00 L206.71 222.00 L207.75 221.96 L208.60 221.81 " stroke-linecap='round' stroke-linejoin='round' brush-type='1' stroke-wetness='0.5'></path><path  style = ' stroke:#000000;  fill:none;  stroke-width:1.0;' d="M212.77 216.33 L213.29 216.33 L213.46 216.60 L213.81 217.02 L213.69 217.56 L213.39 217.83 L212.92 217.95 L212.46 217.95 L212.11 217.83 L211.92 217.64 " stroke-linecap='round' stroke-linejoin='round' brush-type='1' stroke-wetness='0.5'></path><path  style = ' stroke:#000000;  fill:none;  stroke-width:1.0;' d="M216.24 215.17 L216.76 215.17 L217.21 215.17 L217.98 215.36 L218.44 215.79 L218.63 216.52 L218.63 217.33 L218.29 218.22 L217.67 219.03 L216.94 219.72 L216.51 220.15 L216.67 220.34 L217.36 220.38 L218.48 220.38 L219.64 220.30 L220.83 220.11 " stroke-linecap='round' stroke-linejoin='round' brush-type='1' stroke-wetness='0.5'></path><path  style = ' stroke:#000000;  fill:none;  stroke-width:1.0;' d="M194.83 270.74 L194.88 272.59 L194.75 274.06 L194.63 276.64 L194.48 278.38 L194.48 279.38 L194.44 279.92 L194.17 280.00 " stroke-linecap='round' stroke-linejoin='round' brush-type='1' stroke-wetness='0.5'></path><path  style = ' stroke:#000000;  fill:none;  stroke-width:1.0;' d="M196.56 268.19 L198.01 269.41 L198.84 270.16 L200.46 272.16 L201.15 273.86 L201.46 275.75 L201.00 277.22 L199.92 278.53 L198.30 279.57 L196.68 280.27 L195.37 280.65 L194.48 280.77 L194.05 280.77 L194.29 280.50 " stroke-linecap='round' stroke-linejoin='round' brush-type='1' stroke-wetness='0.5'></path><path  style = ' stroke:#000000;  fill:none;  stroke-width:1.0;' d="M204.20 277.57 L204.14 279.19 L203.66 280.34 L202.81 282.43 L201.69 283.70 L200.92 284.55 L200.50 285.13 L200.42 285.48 L200.88 285.63 L201.81 285.59 L203.35 285.36 L204.59 285.01 " stroke-linecap='round' stroke-linejoin='round' brush-type='1' stroke-wetness='0.5'></path><path  style = ' stroke:#000000;  fill:none;  stroke-width:1.0;' d="M208.49 280.34 L209.01 280.75 L209.14 281.12 L209.30 281.70 L208.95 282.04 L208.60 281.89 L208.95 281.16 " stroke-linecap='round' stroke-linejoin='round' brush-type='1' stroke-wetness='0.5'></path><path  style = ' stroke:#000000;  fill:none;  stroke-width:1.0;' d="M216.82 277.34 L217.40 277.86 L217.63 278.30 L217.86 279.15 L217.40 279.92 L216.59 280.73 L215.74 281.54 L215.16 282.16 L214.89 282.51 L215.16 282.62 L216.05 282.66 L217.51 282.66 L219.17 282.58 L220.56 282.51 L221.57 282.35 L222.15 282.24 L222.65 281.97 " stroke-linecap='round' stroke-linejoin='round' brush-type='1' stroke-wetness='0.5'></path><path  style = ' stroke:#000000;  fill:none;  stroke-width:1.0;' d="M112.06 268.65 L112.00 269.93 L111.98 271.08 L111.94 273.13 L111.90 274.71 L111.86 275.91 L111.83 277.03 L111.83 278.03 L111.83 278.84 L111.83 279.38 " stroke-linecap='round' stroke-linejoin='round' brush-type='1' stroke-wetness='0.5'></path><path  style = ' stroke:#000000;  fill:none;  stroke-width:1.0;' d="M113.21 266.22 L114.02 266.80 L114.64 267.57 L115.68 268.96 L116.26 270.54 L116.53 272.20 L116.65 273.90 L116.49 275.41 L115.92 276.56 L114.91 277.53 L113.64 278.30 L112.48 278.88 L111.44 279.11 " stroke-linecap='round' stroke-linejoin='round' brush-type='1' stroke-wetness='0.5'></path><path  style = ' stroke:#000000;  fill:none;  stroke-width:1.0;' d="M118.89 276.52 L119.41 277.62 L119.35 278.57 L119.12 280.31 L118.23 281.73 L117.38 282.89 L116.76 283.93 L116.46 284.67 L116.34 285.17 L116.53 285.36 L116.96 285.44 L117.57 285.44 L118.35 285.32 L119.12 285.13 " stroke-linecap='round' stroke-linejoin='round' brush-type='1' stroke-wetness='0.5'></path><path  style = ' stroke:#000000;  fill:none;  stroke-width:1.0;' d="M122.59 281.04 L122.82 280.58 L123.09 280.42 L123.52 280.19 L123.79 280.42 L123.86 280.81 L123.86 281.16 L123.63 281.46 L123.25 281.66 L122.75 281.81 L122.44 281.77 L122.28 281.50 L122.24 281.16 " stroke-linecap='round' stroke-linejoin='round' brush-type='1' stroke-wetness='0.5'></path><path  style = ' stroke:#000000;  fill:none;  stroke-width:1.0;' d="M126.99 276.99 L127.39 276.76 L127.72 276.68 L128.30 276.52 L128.69 276.64 L128.96 277.03 L129.15 277.76 L129.27 278.72 L129.30 279.80 L129.19 280.96 L128.92 282.12 L128.46 283.20 L127.99 284.05 L127.61 284.59 L127.88 284.86 L128.73 284.90 L130.15 284.82 L131.43 284.63 L132.43 284.47 L132.97 284.40 L133.47 284.59 " stroke-linecap='round' stroke-linejoin='round' brush-type='1' stroke-wetness='0.5'></path><path  style = ' stroke:#000000;  fill:none;  stroke-width:1.0;' d="M261.50 178.13 L261.62 177.49 L262.58 176.85 L264.67 175.58 L267.79 174.35 L271.11 173.23 L274.20 172.38 L277.02 171.92 L279.33 171.76 L281.34 171.95 L283.00 172.49 L284.58 173.42 L286.20 174.50 L287.94 175.50 L289.83 176.28 L291.72 176.78 L293.38 177.01 L294.50 177.09 L295.07 176.89 L295.27 176.51 L295.31 176.04 " stroke-linecap='round' stroke-linejoin='round' brush-type='1' stroke-wetness='0.5'></path><path  style = ' stroke:#000000;  fill:none;  stroke-width:1.0;' d="M275.97 176.62 L275.92 177.61 L275.90 178.51 L275.86 180.52 L275.86 182.64 L275.86 184.76 L275.94 186.66 L276.13 188.16 L276.55 189.47 L277.05 190.40 " stroke-linecap='round' stroke-linejoin='round' brush-type='1' stroke-wetness='0.5'></path><path  style = ' stroke:#000000;  fill:none;  stroke-width:1.0;' d="M284.77 176.39 L284.95 177.55 L285.04 179.32 L285.23 182.33 L285.39 185.31 L285.58 187.50 L285.78 189.24 L285.97 190.63 L286.20 191.67 " stroke-linecap='round' stroke-linejoin='round' brush-type='1' stroke-wetness='0.5'></path><path  style = ' stroke:#000000;  fill:none;  stroke-width:1.0;' d="M292.06 186.58 L292.30 187.62 L292.37 188.55 L292.53 190.44 L292.53 192.17 L292.53 193.91 L292.53 195.41 L292.57 196.65 " stroke-linecap='round' stroke-linejoin='round' brush-type='1' stroke-wetness='0.5'></path><path  style = ' stroke:#000000;  fill:none;  stroke-width:1.0;' d="M310.36 168.06 L309.66 168.64 L308.89 169.52 L307.38 171.38 L305.84 173.96 L304.41 177.01 L303.22 180.40 L302.52 183.57 L302.25 186.39 L302.71 188.74 L303.68 190.59 L305.45 191.98 L307.81 192.91 L310.47 193.49 " stroke-linecap='round' stroke-linejoin='round' brush-type='1' stroke-wetness='0.5'></path><path  style = ' stroke:#000000;  fill:none;  stroke-width:1.0;' d="M323.09 172.46 L321.99 172.51 L321.01 172.57 L319.23 172.80 L317.80 173.30 L316.57 174.27 L315.45 175.81 L314.48 177.82 L313.87 180.17 L313.56 182.68 L313.48 185.11 L313.67 187.35 L314.33 189.09 L315.53 190.32 L317.15 190.90 L319.04 191.09 L321.12 190.59 L323.24 189.40 L325.13 187.58 L326.68 185.65 L327.64 183.76 L328.11 181.99 L328.03 180.29 L327.26 178.24 " stroke-linecap='round' stroke-linejoin='round' brush-type='1' stroke-wetness='0.5'></path><path  style = ' stroke:#000000;  fill:none;  stroke-width:1.0;' d="M322.51 170.26 L319.27 170.89 L318.15 171.65 L315.99 172.96 L316.41 174.15 L317.57 175.08 L319.73 175.77 L322.51 176.20 L325.60 176.31 L328.38 176.04 L330.54 175.43 L331.85 174.58 L332.50 173.77 L332.85 173.11 " stroke-linecap='round' stroke-linejoin='round' brush-type='1' stroke-wetness='0.5'></path><path  style = ' stroke:#000000;  fill:none;  stroke-width:1.0;' d="M336.52 168.52 L337.33 169.62 L337.79 170.60 L338.76 172.73 L339.30 175.16 L339.64 177.78 L339.76 180.52 L339.45 183.03 L338.76 185.38 L337.67 187.50 L336.52 189.20 L335.40 190.48 L334.36 191.21 L333.47 191.56 L332.85 191.67 " stroke-linecap='round' stroke-linejoin='round' brush-type='1' stroke-wetness='0.5'></path><path  style = ' stroke:#000000;  fill:none;  stroke-width:1.0;' d="M349.13 178.59 L349.77 178.82 L350.45 178.90 L351.91 179.05 L353.61 179.05 L355.39 179.05 L357.01 179.05 L358.20 178.94 L359.05 178.78 " stroke-linecap='round' stroke-linejoin='round' brush-type='1' stroke-wetness='0.5'></path><path  style = ' stroke:#000000;  fill:none;  stroke-width:1.0;' d="M351.33 185.07 L352.09 185.48 L352.76 185.61 L354.27 185.88 L355.89 185.88 L357.66 185.88 L359.28 185.85 " stroke-linecap='round' stroke-linejoin='round' brush-type='1' stroke-wetness='0.5'></path><path  style = ' stroke:#000000;  fill:none;  stroke-width:1.0;' d="M372.06 168.06 L371.07 168.92 L370.28 170.37 L368.74 173.50 L367.54 177.43 L366.73 181.52 L366.34 185.38 L366.65 188.58 L367.66 190.90 L369.51 192.33 L371.79 193.06 L374.26 193.37 L376.65 193.41 L378.62 193.37 " stroke-linecap='round' stroke-linejoin='round' brush-type='1' stroke-wetness='0.5'></path><path  style = ' stroke:#000000;  fill:none;  stroke-width:1.0;' d="M378.65 173.15 L379.52 173.21 L380.51 173.23 L382.32 173.27 L384.06 173.27 L385.41 173.27 L386.29 173.38 L386.72 173.77 L386.80 174.58 L386.41 175.89 L385.45 177.70 L384.06 179.83 L382.71 181.87 L381.63 183.49 L380.85 184.49 L380.31 185.00 L379.89 185.07 " stroke-linecap='round' stroke-linejoin='round' brush-type='1' stroke-wetness='0.5'></path><path  style = ' stroke:#000000;  fill:none;  stroke-width:1.0;' d="M382.01 174.31 L381.78 175.06 L381.55 176.16 L380.93 178.28 L380.00 180.75 L378.85 183.11 L377.73 185.07 L376.99 186.42 L376.65 187.12 L376.69 187.47 L377.30 187.58 L378.62 187.62 L380.47 187.62 L382.32 187.50 L384.09 187.27 " stroke-linecap='round' stroke-linejoin='round' brush-type='1' stroke-wetness='0.5'></path><path  style = ' stroke:#000000;  fill:none;  stroke-width:1.0;' d="M388.38 185.88 L389.13 185.71 L389.50 185.77 L390.11 186.00 L390.15 186.73 L389.73 187.85 L388.92 189.20 L387.91 190.51 L387.18 191.48 L386.83 192.06 L387.10 192.29 L387.84 192.37 L388.92 192.37 L389.84 192.37 L390.54 192.33 L391.04 192.29 " stroke-linecap='round' stroke-linejoin='round' brush-type='1' stroke-wetness='0.5'></path><path  style = ' stroke:#000000;  fill:none;  stroke-width:1.0;' d="M396.83 177.78 L396.94 178.65 L396.98 179.44 L397.06 181.06 L397.06 182.68 L397.06 184.19 L397.06 185.34 L397.06 186.08 L397.06 186.58 " stroke-linecap='round' stroke-linejoin='round' brush-type='1' stroke-wetness='0.5'></path><path  style = ' stroke:#000000;  fill:none;  stroke-width:1.0;' d="M393.82 181.60 L394.46 181.14 L394.98 180.94 L396.13 180.52 L397.29 180.29 L398.53 179.98 L399.61 179.59 L400.30 179.21 L400.61 178.90 L400.30 178.75 L399.72 178.71 L398.95 178.94 L398.33 179.59 L397.72 180.75 L397.10 182.22 L396.52 183.65 L396.06 184.88 L395.63 185.77 " stroke-linecap='round' stroke-linejoin='round' brush-type='1' stroke-wetness='0.5'></path><path  style = ' stroke:#000000;  fill:none;  stroke-width:1.0;' d="M394.28 180.44 L395.15 180.56 L396.21 180.91 L398.10 181.64 L399.92 182.64 L401.46 183.53 L402.96 184.11 " stroke-linecap='round' stroke-linejoin='round' brush-type='1' stroke-wetness='0.5'></path><path  style = ' stroke:#000000;  fill:none;  stroke-width:1.0;' d="M406.78 173.27 L407.48 173.21 L408.44 173.19 L410.30 173.15 L412.22 173.15 L413.81 173.15 L414.89 173.15 L415.47 173.19 L415.39 173.77 L414.77 175.00 L413.73 176.97 L412.49 179.09 L411.22 181.21 L409.99 183.03 L409.02 184.38 L408.25 185.38 " stroke-linecap='round' stroke-linejoin='round' brush-type='1' stroke-wetness='0.5'></path><path  style = ' stroke:#000000;  fill:none;  stroke-width:1.0;' d="M411.18 174.77 L410.72 175.64 L410.33 176.43 L409.37 178.13 L408.33 179.86 L407.17 181.79 L406.21 183.57 L405.59 185.00 L405.32 185.88 L405.36 186.35 L405.90 186.58 L406.98 186.66 L408.56 186.66 L410.22 186.42 L411.80 186.12 L413.27 185.77 " stroke-linecap='round' stroke-linejoin='round' brush-type='1' stroke-wetness='0.5'></path><path  style = ' stroke:#000000;  fill:none;  stroke-width:1.0;' d="M415.58 185.54 L415.93 185.54 L416.24 185.54 L416.74 185.69 L417.01 186.15 L417.09 186.96 L416.86 188.04 L416.24 189.20 L415.27 190.24 L414.39 191.05 L414.31 191.48 L415.08 191.67 L416.62 191.67 L418.28 191.63 L419.83 191.48 L420.91 191.25 L421.49 190.98 " stroke-linecap='round' stroke-linejoin='round' brush-type='1' stroke-wetness='0.5'></path><path  style = ' stroke:#000000;  fill:none;  stroke-width:1.0;' d="M421.95 169.56 L422.76 170.37 L423.68 171.57 L425.42 173.88 L426.93 176.51 L427.93 179.21 L428.43 181.99 L428.51 184.80 L427.89 187.62 L426.73 190.28 L425.04 192.87 L423.26 195.14 L421.49 197.00 L420.06 198.12 L419.17 198.58 L418.71 198.69 L418.44 198.73 " stroke-linecap='round' stroke-linejoin='round' brush-type='1' stroke-wetness='0.5'></path><path  style = ' stroke:#000000;  fill:none;  stroke-width:1.0;' d="M437.92 177.20 L438.56 177.90 L439.31 178.59 L440.62 180.02 L441.90 181.56 L443.02 183.14 L444.21 184.65 L445.33 185.85 L446.30 186.73 L446.95 187.27 " stroke-linecap='round' stroke-linejoin='round' brush-type='1' stroke-wetness='0.5'></path><path  style = ' stroke:#000000;  fill:none;  stroke-width:1.0;' d="M447.30 176.51 L446.84 177.14 L446.37 177.70 L445.29 179.02 L443.98 180.48 L442.44 182.26 L440.86 184.03 L439.47 185.61 L438.39 186.77 L437.73 187.50 L437.38 187.97 L437.27 188.31 " stroke-linecap='round' stroke-linejoin='round' brush-type='1' stroke-wetness='0.5'></path><path  style = ' stroke:#000000;  fill:none;  stroke-width:1.0;' d="M459.80 168.75 L459.05 169.50 L457.99 170.76 L456.14 173.23 L454.36 176.31 L453.17 179.44 L452.47 182.49 L452.24 185.11 L452.66 187.39 L453.67 189.24 L455.33 190.71 L457.22 191.63 L459.26 192.13 L461.46 192.25 " stroke-linecap='round' stroke-linejoin='round' brush-type='1' stroke-wetness='0.5'></path><path  style = ' stroke:#000000;  fill:none;  stroke-width:1.0;' d="M464.09 173.73 L464.78 173.67 L465.59 173.65 L467.48 173.50 L469.72 173.30 L472.07 173.03 L474.00 172.88 L475.31 172.80 L475.97 172.84 L476.20 173.11 L475.89 173.77 L475.12 175.00 L473.77 176.89 L472.07 179.17 L470.18 181.56 L468.45 183.61 L467.21 185.11 L466.52 186.00 " stroke-linecap='round' stroke-linejoin='round' brush-type='1' stroke-wetness='0.5'></path><path  style = ' stroke:#000000;  fill:none;  stroke-width:1.0;' d="M473.58 174.54 L472.94 175.23 L472.07 176.20 L470.30 177.97 L468.33 179.86 L466.52 181.64 L465.01 183.34 L464.05 184.80 L463.58 185.88 L463.89 186.62 L464.86 187.16 L466.63 187.54 L468.79 187.77 L471.19 187.85 L473.19 187.85 " stroke-linecap='round' stroke-linejoin='round' brush-type='1' stroke-wetness='0.5'></path><path  style = ' stroke:#000000;  fill:none;  stroke-width:1.0;' d="M475.31 186.46 L476.41 186.12 L477.24 186.00 L478.59 185.77 L479.25 186.04 L479.33 186.69 L478.83 187.93 L477.71 189.43 L476.24 190.98 L475.04 192.21 L474.43 192.98 L474.47 193.41 L475.16 193.56 L476.36 193.64 L477.82 193.64 L479.17 193.52 L480.21 193.33 " stroke-linecap='round' stroke-linejoin='round' brush-type='1' stroke-wetness='0.5'></path><path  style = ' stroke:#000000;  fill:none;  stroke-width:1.0;' d="M489.90 175.58 L489.96 176.22 L489.98 176.89 L490.02 178.40 L489.90 180.25 L489.71 182.37 L489.48 184.34 L489.28 185.81 L489.17 186.73 L488.97 187.31 " stroke-linecap='round' stroke-linejoin='round' brush-type='1' stroke-wetness='0.5'></path><path  style = ' stroke:#000000;  fill:none;  stroke-width:1.0;' d="M486.20 181.83 L486.89 181.31 L487.55 181.10 L488.94 180.64 L490.25 180.40 L491.44 180.13 L492.33 179.86 L492.87 179.67 " stroke-linecap='round' stroke-linejoin='round' brush-type='1' stroke-wetness='0.5'></path><path  style = ' stroke:#000000;  fill:none;  stroke-width:1.0;' d="M493.72 179.05 L492.10 179.52 L491.37 180.13 L489.78 181.33 L488.94 182.60 L487.89 183.72 " stroke-linecap='round' stroke-linejoin='round' brush-type='1' stroke-wetness='0.5'></path><path  style = ' stroke:#000000;  fill:none;  stroke-width:1.0;' d="M484.34 180.33 L484.98 180.50 L485.69 180.64 L487.28 181.14 L489.01 181.95 L490.75 182.95 L492.33 183.88 L493.80 184.46 " stroke-linecap='round' stroke-linejoin='round' brush-type='1' stroke-wetness='0.5'></path><path  style = ' stroke:#000000;  fill:none;  stroke-width:1.0;' d="M498.47 174.89 L499.22 174.89 L500.16 174.89 L502.48 174.89 L505.30 174.85 L508.34 174.77 L510.89 174.66 L512.67 174.58 L513.55 174.58 L513.36 175.12 L512.44 176.35 L510.81 178.32 L508.96 180.71 L506.99 183.14 L505.26 185.31 L503.98 186.85 L502.98 188.08 " stroke-linecap='round' stroke-linejoin='round' brush-type='1' stroke-wetness='0.5'></path><path  style = ' stroke:#000000;  fill:none;  stroke-width:1.0;' d="M508.77 174.77 L508.42 175.64 L508.00 176.51 L506.88 178.48 L505.37 180.71 L503.68 183.03 L502.06 185.07 L500.82 186.58 L500.09 187.47 L499.89 187.89 L500.32 188.01 L501.36 188.08 L503.17 188.08 L505.34 188.08 L507.53 188.01 L509.35 187.89 " stroke-linecap='round' stroke-linejoin='round' brush-type='1' stroke-wetness='0.5'></path><path  style = ' stroke:#000000;  fill:none;  stroke-width:1.0;' d="M513.28 187.16 L513.57 186.75 L514.09 186.46 L514.98 185.96 L515.83 185.73 L516.29 185.77 L516.49 186.19 L516.26 187.04 L515.56 188.35 L514.48 189.78 L513.40 191.09 L512.71 191.90 L512.44 192.33 L512.71 192.44 L513.48 192.48 L514.79 192.41 L516.41 192.33 L517.88 192.25 L518.88 192.21 L519.30 192.10 L519.42 191.67 " stroke-linecap='round' stroke-linejoin='round' brush-type='1' stroke-wetness='0.5'></path><path  style = ' stroke:#000000;  fill:none;  stroke-width:1.0;' d="M519.77 171.65 L520.29 172.40 L520.89 173.19 L522.24 175.00 L523.66 177.20 L525.01 179.86 L525.86 182.68 L526.33 185.58 L526.33 188.35 L525.71 191.02 L524.44 193.52 L522.58 195.76 L520.69 197.58 L518.96 198.77 L517.68 199.39 L516.95 199.62 L516.60 199.51 " stroke-linecap='round' stroke-linejoin='round' brush-type='1' stroke-wetness='0.5'></path></g><g id='id-text-layer'  type='type-normal' preserveAspectRatio="none" ><text  style = 'fill: #000000; font-family:Helvetica-Light; font-size:18.0; ' preserveAspectRatio="none" x= '40' y='40' width = '688' height = '944' transform="rotate(   0,  384,  512)" ><tspan visibility='hidden'><![CDATA[]]></tspan></text></g><recordings ></recordings><defs   ></defs><htext lang='en_US' timestamp='20190514-110855'><![CDATA[A (6. X) orb; fold require all P sis group of G
-Every (G. D or bad is good (covered by X)
Have developing mp 9X and hot: I, (8)  G
ed Billard Tale
&"j#q to#*m,]]></htext></svg> 