<?xml version="1.0" standalone="no"?> <!DOCTYPE svg PUBLIC "-//W3C//DTD SVG 1.1//EN" "http://www.w3.org/Graphics/SVG/1.1/DTD/svg11.dtd"> <svg   version="1.1"     xmlns="http://www.w3.org/2000/svg"  xmlns:xlink="http://www.w3.org/1999/xlink" name="" width="768.0" height="1004.0" background="N_PAPERBACKGROUND_WHITE_WITH_GRAY_LINE" line-height="30.0" margin-top="40.0" margin-right="40.0" margin-bottom="40.0" margin-left="40.0"><g id='id-background-layer'  type='type-normal' preserveAspectRatio="none" ><rect  style = ' stroke:#FFFFFF;  fill:#FFFFFF;  stroke-width:0.0;' x="0" y="0" width="768" height="1004" preserveAspectRatio="none" transform="rotate(   0,  384,  502)" ></rect><polyline  style = ' stroke:#D7D6D6;  fill:none;  stroke-width:1.0;' points = ' 0,70 768,70' preserveAspectRatio="none" transform="rotate(   0,  384,   70)" ></polyline><polyline  style = ' stroke:#D7D6D6;  fill:none;  stroke-width:1.0;' points = ' 0,100 768,100' preserveAspectRatio="none" transform="rotate(   0,  384,  100)" ></polyline><polyline  style = ' stroke:#D7D6D6;  fill:none;  stroke-width:1.0;' points = ' 0,130 768,130' preserveAspectRatio="none" transform="rotate(   0,  384,  130)" ></polyline><polyline  style = ' stroke:#D7D6D6;  fill:none;  stroke-width:1.0;' points = ' 0,160 768,160' preserveAspectRatio="none" transform="rotate(   0,  384,  160)" ></polyline><polyline  style = ' stroke:#D7D6D6;  fill:none;  stroke-width:1.0;' points = ' 0,190 768,190' preserveAspectRatio="none" transform="rotate(   0,  384,  190)" ></polyline><polyline  style = ' stroke:#D7D6D6;  fill:none;  stroke-width:1.0;' points = ' 0,220 768,220' preserveAspectRatio="none" transform="rotate(   0,  384,  220)" ></polyline><polyline  style = ' stroke:#D7D6D6;  fill:none;  stroke-width:1.0;' points = ' 0,250 768,250' preserveAspectRatio="none" transform="rotate(   0,  384,  250)" ></polyline><polyline  style = ' stroke:#D7D6D6;  fill:none;  stroke-width:1.0;' points = ' 0,280 768,280' preserveAspectRatio="none" transform="rotate(   0,  384,  280)" ></polyline><polyline  style = ' stroke:#D7D6D6;  fill:none;  stroke-width:1.0;' points = ' 0,310 768,310' preserveAspectRatio="none" transform="rotate(   0,  384,  310)" ></polyline><polyline  style = ' stroke:#D7D6D6;  fill:none;  stroke-width:1.0;' points = ' 0,340 768,340' preserveAspectRatio="none" transform="rotate(   0,  384,  340)" ></polyline><polyline  style = ' stroke:#D7D6D6;  fill:none;  stroke-width:1.0;' points = ' 0,370 768,370' preserveAspectRatio="none" transform="rotate(   0,  384,  370)" ></polyline><polyline  style = ' stroke:#D7D6D6;  fill:none;  stroke-width:1.0;' points = ' 0,400 768,400' preserveAspectRatio="none" transform="rotate(   0,  384,  400)" ></polyline><polyline  style = ' stroke:#D7D6D6;  fill:none;  stroke-width:1.0;' points = ' 0,430 768,430' preserveAspectRatio="none" transform="rotate(   0,  384,  430)" ></polyline><polyline  style = ' stroke:#D7D6D6;  fill:none;  stroke-width:1.0;' points = ' 0,460 768,460' preserveAspectRatio="none" transform="rotate(   0,  384,  460)" ></polyline><polyline  style = ' stroke:#D7D6D6;  fill:none;  stroke-width:1.0;' points = ' 0,490 768,490' preserveAspectRatio="none" transform="rotate(   0,  384,  490)" ></polyline><polyline  style = ' stroke:#D7D6D6;  fill:none;  stroke-width:1.0;' points = ' 0,520 768,520' preserveAspectRatio="none" transform="rotate(   0,  384,  520)" ></polyline><polyline  style = ' stroke:#D7D6D6;  fill:none;  stroke-width:1.0;' points = ' 0,550 768,550' preserveAspectRatio="none" transform="rotate(   0,  384,  550)" ></polyline><polyline  style = ' stroke:#D7D6D6;  fill:none;  stroke-width:1.0;' points = ' 0,580 768,580' preserveAspectRatio="none" transform="rotate(   0,  384,  580)" ></polyline><polyline  style = ' stroke:#D7D6D6;  fill:none;  stroke-width:1.0;' points = ' 0,610 768,610' preserveAspectRatio="none" transform="rotate(   0,  384,  610)" ></polyline><polyline  style = ' stroke:#D7D6D6;  fill:none;  stroke-width:1.0;' points = ' 0,640 768,640' preserveAspectRatio="none" transform="rotate(   0,  384,  640)" ></polyline><polyline  style = ' stroke:#D7D6D6;  fill:none;  stroke-width:1.0;' points = ' 0,670 768,670' preserveAspectRatio="none" transform="rotate(   0,  384,  670)" ></polyline><polyline  style = ' stroke:#D7D6D6;  fill:none;  stroke-width:1.0;' points = ' 0,700 768,700' preserveAspectRatio="none" transform="rotate(   0,  384,  700)" ></polyline><polyline  style = ' stroke:#D7D6D6;  fill:none;  stroke-width:1.0;' points = ' 0,730 768,730' preserveAspectRatio="none" transform="rotate(   0,  384,  730)" ></polyline><polyline  style = ' stroke:#D7D6D6;  fill:none;  stroke-width:1.0;' points = ' 0,760 768,760' preserveAspectRatio="none" transform="rotate(   0,  384,  760)" ></polyline><polyline  style = ' stroke:#D7D6D6;  fill:none;  stroke-width:1.0;' points = ' 0,790 768,790' preserveAspectRatio="none" transform="rotate(   0,  384,  790)" ></polyline><polyline  style = ' stroke:#D7D6D6;  fill:none;  stroke-width:1.0;' points = ' 0,820 768,820' preserveAspectRatio="none" transform="rotate(   0,  384,  820)" ></polyline><polyline  style = ' stroke:#D7D6D6;  fill:none;  stroke-width:1.0;' points = ' 0,850 768,850' preserveAspectRatio="none" transform="rotate(   0,  384,  850)" ></polyline><polyline  style = ' stroke:#D7D6D6;  fill:none;  stroke-width:1.0;' points = ' 0,880 768,880' preserveAspectRatio="none" transform="rotate(   0,  384,  880)" ></polyline><polyline  style = ' stroke:#D7D6D6;  fill:none;  stroke-width:1.0;' points = ' 0,910 768,910' preserveAspectRatio="none" transform="rotate(   0,  384,  910)" ></polyline><polyline  style = ' stroke:#D7D6D6;  fill:none;  stroke-width:1.0;' points = ' 0,940 768,940' preserveAspectRatio="none" transform="rotate(   0,  384,  940)" ></polyline><polyline  style = ' stroke:#C74F4F;  fill:none;  stroke-width:0.5;' points = ' 40,0 40,1004' preserveAspectRatio="none" transform="rotate(   0,   40,  502)" ></polyline><polyline  style = ' stroke:#B6B6B6; stroke-opacity:0.8; fill:none;  stroke-width:0.5;' points = ' 728,0 728,1004' preserveAspectRatio="none" transform="rotate(   0,  728,  502)" ></polyline></g><g id='id-main-layer'  type='type-normal' preserveAspectRatio="none" ><path  style = ' stroke:#000000;  fill:none;  stroke-width:1.0;' d="M73.32 73.34 L72.82 73.18 L72.11 73.12 L70.68 73.34 L68.91 74.33 L66.60 76.43 L63.74 79.51 L60.77 83.47 L58.46 87.54 L57.25 91.29 L56.81 94.37 L57.36 96.79 L58.68 98.44 L61.21 99.32 L64.40 99.76 L67.92 99.98 L71.23 100.09 L73.87 99.98 L75.63 99.65 " stroke-linecap='round' stroke-linejoin='round' brush-type='0' stroke-wetness='0.0'></path><path  style = ' stroke:#000000;  fill:none;  stroke-width:1.0;' d="M86.86 89.20 L85.70 89.36 L84.77 89.97 L82.79 91.51 L81.24 93.71 L80.25 96.02 L80.03 97.89 L80.80 99.10 L82.24 99.54 L84.44 98.55 L86.53 96.35 L88.51 93.27 L89.72 90.41 L90.49 88.20 L90.71 86.77 L90.60 86.33 L90.27 87.43 L89.94 89.75 L89.83 92.83 L89.83 95.25 L89.94 96.90 L90.16 97.67 L90.93 97.67 L91.81 96.35 " stroke-linecap='round' stroke-linejoin='round' brush-type='0' stroke-wetness='0.0'></path><path  style = ' stroke:#000000;  fill:none;  stroke-width:1.0;' d="M97.10 74.66 L97.26 76.15 L97.32 77.75 L97.21 81.49 L96.99 85.67 L96.55 89.75 L96.33 92.94 L96.11 95.03 L96.11 96.35 L96.44 96.90 " stroke-linecap='round' stroke-linejoin='round' brush-type='0' stroke-wetness='0.0'></path><path  style = ' stroke:#000000;  fill:none;  stroke-width:1.0;' d="M110.64 86.55 L109.98 85.89 L109.21 85.67 L107.67 85.23 L106.12 85.34 L104.80 85.89 L103.48 87.21 L102.60 89.20 L101.94 91.51 L101.83 93.71 L101.83 95.47 L102.16 96.57 L103.37 96.79 L105.02 95.91 L107.12 93.82 L108.88 90.74 L110.42 86.88 L111.41 82.59 L111.96 78.41 L112.18 75.21 L112.29 73.23 L112.29 72.24 L112.29 73.34 L112.18 76.65 L111.96 81.93 L111.74 87.10 L111.63 91.07 L111.63 93.71 L111.74 94.92 L112.29 95.47 " stroke-linecap='round' stroke-linejoin='round' brush-type='0' stroke-wetness='0.0'></path><path  style = ' stroke:#000000;  fill:none;  stroke-width:1.0;' d="M118.89 90.52 L119.22 90.85 L119.78 90.96 L120.99 91.18 L122.75 91.07 L124.62 90.41 L126.27 89.20 L127.26 87.54 L127.59 85.78 L126.82 84.13 L125.28 82.81 L123.08 82.15 L120.77 82.37 L118.78 83.58 L117.46 85.78 L117.02 88.42 L117.35 91.40 L118.34 93.93 L120.44 96.13 " stroke-linecap='round' stroke-linejoin='round' brush-type='0' stroke-wetness='0.0'></path><path  style = ' stroke:#000000;  fill:none;  stroke-width:1.0;' d="M127.81 97.45 L127.65 95.80 L127.59 94.59 L127.70 91.73 L128.47 89.09 L130.01 86.55 L132.11 84.68 L134.20 83.58 L136.51 83.14 " stroke-linecap='round' stroke-linejoin='round' brush-type='0' stroke-wetness='0.0'></path><path  style = ' stroke:#000000;  fill:none;  stroke-width:1.0;' d="M143.99 95.80 L143.83 94.81 L143.77 93.93 L143.77 92.06 L144.10 90.19 L144.77 88.31 L145.65 86.66 L146.64 85.45 L147.74 84.79 L148.84 84.79 L149.72 86.00 L150.27 88.09 L150.49 90.85 L150.60 93.16 L150.71 94.92 L151.04 95.91 " stroke-linecap='round' stroke-linejoin='round' brush-type='0' stroke-wetness='0.0'></path><path  style = ' stroke:#000000;  fill:none;  stroke-width:1.0;' d="M156.54 89.20 L155.72 90.19 L155.22 91.40 L154.45 93.71 L154.23 96.13 L154.45 98.11 L155.33 99.43 L157.21 99.76 L159.41 98.99 L161.17 97.45 L162.05 95.47 L162.38 93.49 L162.16 91.73 L161.50 90.52 L160.51 89.97 L159.41 89.97 L158.64 90.52 L158.31 92.17 L158.42 93.93 " stroke-linecap='round' stroke-linejoin='round' brush-type='0' stroke-wetness='0.0'></path><path  style = ' stroke:#000000;  fill:none;  stroke-width:1.0;' d="M167.11 100.42 L166.78 99.10 L166.67 97.89 L166.45 95.58 L166.45 93.49 L166.89 91.40 L167.66 89.75 L168.76 88.76 L169.87 88.54 L170.86 89.31 L171.63 91.18 L171.96 94.04 L172.07 96.79 L172.07 98.88 L172.18 100.31 " stroke-linecap='round' stroke-linejoin='round' brush-type='0' stroke-wetness='0.0'></path><path  style = ' stroke:#000000;  fill:none;  stroke-width:1.0;' d="M180.98 92.17 L181.31 92.33 L181.97 92.39 L183.52 92.50 L185.72 92.50 L188.36 92.39 L191.11 92.17 L193.64 91.95 L195.41 91.62 " stroke-linecap='round' stroke-linejoin='round' brush-type='0' stroke-wetness='0.0'></path><path  style = ' stroke:#000000;  fill:none;  stroke-width:1.0;' d="M207.24 81.35 L208.57 81.23 L209.91 81.19 L212.89 81.11 L216.04 81.11 L219.11 81.11 L221.77 81.11 L223.71 81.11 L225.08 81.11 L225.72 81.11 L226.05 81.27 L225.64 82.07 L224.27 83.69 L221.93 85.95 L218.94 88.53 L216.04 91.11 L213.54 93.45 L211.92 95.15 L210.95 96.28 L210.55 97.00 L210.55 97.41 L211.36 97.65 L213.05 97.81 L215.39 97.97 L217.65 98.05 L219.67 98.05 L221.20 98.05 L222.33 97.89 L222.90 97.65 L222.98 97.00 " stroke-linecap='round' stroke-linejoin='round' brush-type='0' stroke-wetness='0.0'></path><path  style = ' stroke:#000000;  fill:none;  stroke-width:1.0;' d="M210.87 88.85 L211.48 88.61 L212.49 88.53 L215.15 88.37 L218.38 88.37 L221.69 88.37 L224.35 88.37 L226.45 88.45 L228.22 88.85 " stroke-linecap='round' stroke-linejoin='round' brush-type='0' stroke-wetness='0.0'></path><path  style = ' stroke:#000000;  fill:none;  stroke-width:1.0;' d="M237.51 87.16 L237.14 87.89 L236.70 88.69 L235.73 90.55 L234.60 92.81 L233.47 95.39 L232.50 98.05 L231.69 100.39 L231.05 102.25 L230.48 103.38 " stroke-linecap='round' stroke-linejoin='round' brush-type='0' stroke-wetness='0.0'></path><path  style = ' stroke:#000000;  fill:none;  stroke-width:1.0;' d="M236.78 94.66 L236.05 93.09 L235.57 92.24 L234.76 90.63 L234.20 89.90 L233.79 89.50 L233.39 89.26 " stroke-linecap='round' stroke-linejoin='round' brush-type='0' stroke-wetness='0.0'></path><path  style = ' stroke:#000000;  fill:none;  stroke-width:1.0;' d="M246.22 87.89 L245.98 87.40 L245.58 87.16 L244.69 86.76 L243.32 86.76 L242.11 87.16 L241.06 88.29 L240.65 89.90 L240.57 91.76 L241.22 93.13 L242.27 93.94 L243.48 94.18 L244.53 93.78 L245.41 92.57 L245.98 90.71 L246.30 88.93 L246.46 87.80 L246.62 87.97 L246.71 89.42 L246.54 92.00 L245.98 94.83 L244.77 97.25 L243.07 99.26 L241.06 100.80 L238.80 101.85 L236.29 102.33 L233.63 102.09 " stroke-linecap='round' stroke-linejoin='round' brush-type='0' stroke-wetness='0.0'></path><path  style = ' stroke:#000000;  fill:none;  stroke-width:1.0;' d="M253.73 97.57 L253.73 97.09 L253.73 96.44 L253.73 94.91 L253.81 93.05 L254.21 91.11 L255.02 89.18 L256.07 87.48 L257.12 86.03 L258.41 85.30 L260.02 85.22 L261.72 86.27 L262.85 88.37 L263.33 91.60 L263.33 94.26 L263.25 95.96 L263.17 95.63 L263.57 94.34 L264.46 92.32 L265.67 90.71 L266.80 89.82 L267.61 89.74 L268.09 90.95 L268.25 93.29 L268.25 96.28 L268.25 98.86 " stroke-linecap='round' stroke-linejoin='round' brush-type='0' stroke-wetness='0.0'></path><path  style = ' stroke:#000000;  fill:none;  stroke-width:1.0;' d="M272.61 91.76 L272.61 92.36 L272.61 93.29 L272.61 95.23 L272.61 97.57 L273.01 99.51 L273.82 100.64 L275.44 100.31 L277.37 98.78 L279.31 96.52 L280.68 94.42 L281.41 92.97 L281.81 92.24 L281.97 92.81 L282.05 94.34 L282.13 96.92 L282.38 98.78 " stroke-linecap='round' stroke-linejoin='round' brush-type='0' stroke-wetness='0.0'></path><path  style = ' stroke:#000000;  fill:none;  stroke-width:1.0;' d="M286.17 98.78 L285.93 98.17 L285.85 97.49 L285.76 96.12 L286.25 94.50 L287.06 92.97 L288.11 91.76 L289.07 91.19 L289.88 91.44 L290.45 92.65 L290.77 94.99 L291.01 97.57 L291.25 99.75 L292.22 100.80 " stroke-linecap='round' stroke-linejoin='round' brush-type='0' stroke-wetness='0.0'></path><path  style = ' stroke:#000000;  fill:none;  stroke-width:1.0;' d="M299.73 94.18 L299.00 93.57 L298.44 93.62 L297.31 94.02 L296.50 95.55 L296.01 97.57 L295.93 99.35 L296.26 100.56 L297.22 100.96 L298.76 100.31 L300.53 98.38 L302.07 95.31 L303.04 91.84 L303.52 87.97 L303.60 84.25 L303.60 81.11 L303.52 79.25 L303.36 78.52 L303.20 79.57 L303.12 82.56 L303.12 87.16 L303.20 91.60 L303.60 95.07 L304.49 97.00 L306.34 97.57 " stroke-linecap='round' stroke-linejoin='round' brush-type='0' stroke-wetness='0.0'></path><path  style = ' stroke:#000000;  fill:none;  stroke-width:1.0;' d="M317.64 83.04 L318.13 82.80 L319.01 82.72 L321.11 82.48 L324.42 82.40 L328.54 82.32 L332.89 82.24 L336.61 82.07 L339.27 81.67 " stroke-linecap='round' stroke-linejoin='round' brush-type='0' stroke-wetness='0.0'></path><path  style = ' stroke:#000000;  fill:none;  stroke-width:1.0;' d="M334.11 80.62 L333.86 81.47 L333.78 82.72 L333.54 85.38 L333.30 88.85 L333.06 92.57 L332.89 95.79 L332.98 97.89 " stroke-linecap='round' stroke-linejoin='round' brush-type='0' stroke-wetness='0.0'></path><path  style = ' stroke:#000000;  fill:none;  stroke-width:1.0;' d="M342.09 83.53 L342.34 84.50 L342.42 85.55 L342.50 88.05 L342.34 90.95 L342.18 93.86 L342.09 95.96 L342.34 96.28 L342.98 95.15 L344.03 93.45 L345.08 92.40 L345.97 92.08 L346.61 92.32 L347.10 93.13 L347.34 94.58 L347.42 96.12 L347.50 97.49 L347.66 98.30 " stroke-linecap='round' stroke-linejoin='round' brush-type='0' stroke-wetness='0.0'></path><path  style = ' stroke:#000000;  fill:none;  stroke-width:1.0;' d="M351.78 92.24 L352.38 92.24 L352.91 92.24 L354.04 92.32 L356.38 92.16 L358.72 91.52 L360.66 90.47 L360.49 89.50 L359.12 89.02 L357.02 89.02 L354.76 89.82 L352.99 91.27 L351.70 93.13 L351.05 94.91 L351.13 96.44 L352.42 97.73 L354.85 98.46 L357.91 98.70 " stroke-linecap='round' stroke-linejoin='round' brush-type='0' stroke-wetness='0.0'></path><path  style = ' stroke:#000000;  fill:none;  stroke-width:1.0;' d="M363.40 97.81 L363.88 97.81 L364.05 97.73 L364.29 97.33 L364.05 96.44 L363.72 94.91 L363.48 93.29 L363.40 91.76 L363.40 90.55 L363.48 89.50 L363.64 88.69 L364.05 88.05 L365.09 87.56 L367.03 87.24 L368.97 87.16 L370.50 87.16 L371.31 87.40 " stroke-linecap='round' stroke-linejoin='round' brush-type='0' stroke-wetness='0.0'></path><path  style = ' stroke:#000000;  fill:none;  stroke-width:1.0;' d="M370.42 87.89 L369.45 88.13 L368.56 88.21 L366.95 88.69 L365.34 89.42 L363.96 90.71 L362.75 92.24 L362.19 93.86 L361.95 95.47 L362.35 96.92 L363.48 97.97 L365.66 98.46 L368.24 98.13 L370.58 97.33 L372.12 95.96 L373.00 94.42 L373.41 92.57 L373.25 90.71 L372.44 89.02 L371.31 87.89 L370.18 87.24 L369.29 87.00 L368.65 87.00 L368.32 87.48 L368.56 88.93 " stroke-linecap='round' stroke-linejoin='round' brush-type='0' stroke-wetness='0.0'></path><path  style = ' stroke:#000000;  fill:none;  stroke-width:1.0;' d="M377.44 98.05 L377.44 97.33 L377.44 96.68 L377.44 94.58 L377.44 92.57 L377.44 90.55 L377.52 89.42 L377.93 88.45 L378.81 87.89 L380.27 87.64 L382.04 87.64 L383.98 87.72 L385.84 87.89 L387.21 88.13 " stroke-linecap='round' stroke-linejoin='round' brush-type='0' stroke-wetness='0.0'></path><path  style = ' stroke:#000000;  fill:none;  stroke-width:1.0;' d="M394.15 91.76 L394.51 91.88 L395.12 92.00 L396.25 92.24 L397.62 92.40 L398.99 92.32 L400.28 91.92 L401.17 91.19 L401.65 90.31 L401.81 89.50 L401.09 88.69 L399.31 88.29 L396.16 89.26 L393.42 91.36 L391.65 94.02 L391.40 96.12 L392.29 97.89 L394.15 99.18 L396.97 99.83 L400.12 99.91 L403.19 99.26 " stroke-linecap='round' stroke-linejoin='round' brush-type='0' stroke-wetness='0.0'></path><path  style = ' stroke:#000000;  fill:none;  stroke-width:1.0;' d="M414.97 89.34 L414.61 90.55 L414.08 92.00 L412.87 95.15 L411.50 99.02 L409.96 102.98 L408.84 106.29 L407.95 108.22 " stroke-linecap='round' stroke-linejoin='round' brush-type='0' stroke-wetness='0.0'></path><path  style = ' stroke:#000000;  fill:none;  stroke-width:1.0;' d="M411.34 99.75 L411.09 99.14 L410.93 98.38 L410.45 96.92 L409.64 95.15 L408.59 93.37 L407.62 91.76 L406.98 90.71 " stroke-linecap='round' stroke-linejoin='round' brush-type='0' stroke-wetness='0.0'></path><path  style = ' stroke:#000000;  fill:none;  stroke-width:1.0;' d="M61.49 108.95 L61.49 110.04 L61.49 111.21 L61.33 113.79 L61.01 116.78 L60.45 120.09 L59.96 122.99 L59.64 125.09 L59.56 126.30 L59.72 126.95 L60.28 127.27 L61.66 127.03 L63.75 126.30 L66.01 125.17 L67.95 124.04 " stroke-linecap='round' stroke-linejoin='round' brush-type='0' stroke-wetness='0.0'></path><path  style = ' stroke:#000000;  fill:none;  stroke-width:1.0;' d="M70.94 122.99 L71.66 122.99 L72.31 122.91 L73.84 122.51 L75.46 121.70 L77.07 120.57 L78.28 119.44 L79.01 118.39 L79.33 117.50 L78.93 116.86 L77.80 116.53 L76.18 116.70 L74.49 117.58 L73.20 119.12 L72.31 121.13 L71.99 123.15 L72.23 125.01 L72.95 126.38 L74.65 127.19 L76.83 127.19 " stroke-linecap='round' stroke-linejoin='round' brush-type='0' stroke-wetness='0.0'></path><path  style = ' stroke:#000000;  fill:none;  stroke-width:1.0;' d="M83.53 117.18 L83.65 117.79 L83.69 118.55 L83.77 120.41 L83.77 122.67 L83.69 125.09 L83.45 126.70 " stroke-linecap='round' stroke-linejoin='round' brush-type='0' stroke-wetness='0.0'></path><path  style = ' stroke:#000000;  fill:none;  stroke-width:1.0;' d="M78.20 123.96 L79.17 123.35 L80.46 122.91 L83.04 122.10 L86.59 121.54 L90.39 121.22 " stroke-linecap='round' stroke-linejoin='round' brush-type='0' stroke-wetness='0.0'></path><path  style = ' stroke:#000000;  fill:none;  stroke-width:1.0;' d="M126.38 110.40 L126.14 109.80 L125.98 109.27 L125.41 108.30 L124.68 107.66 L123.47 107.25 L122.02 107.09 L120.33 107.25 L118.71 108.22 L117.34 110.00 L116.37 112.42 L115.89 115.24 L115.73 118.23 L115.73 121.13 L115.81 123.47 L115.97 125.25 L116.21 126.62 L116.45 127.67 L116.61 128.40 L116.53 128.80 " stroke-linecap='round' stroke-linejoin='round' brush-type='0' stroke-wetness='0.0'></path><path  style = ' stroke:#000000;  fill:none;  stroke-width:1.0;' d="M111.85 122.02 L112.09 121.78 L112.50 121.70 L113.71 121.54 L115.40 121.46 L117.34 121.38 L119.20 121.30 L120.73 121.30 L122.34 121.30 " stroke-linecap='round' stroke-linejoin='round' brush-type='0' stroke-wetness='0.0'></path><path  style = ' stroke:#000000;  fill:none;  stroke-width:1.0;' d="M134.61 115.49 L134.01 115.36 L133.72 115.32 L133.16 115.24 L132.84 115.24 L132.51 115.24 L132.19 115.24 L131.95 115.32 L131.54 115.57 L131.06 116.05 L130.33 116.78 L129.45 117.83 L128.56 119.04 L127.75 120.57 L127.35 122.26 L127.19 124.04 L127.59 125.49 L128.40 126.38 L129.53 126.78 L131.06 126.78 L132.67 126.46 L134.29 125.98 L135.26 125.17 " stroke-linecap='round' stroke-linejoin='round' brush-type='0' stroke-wetness='0.0'></path><path  style = ' stroke:#000000;  fill:none;  stroke-width:1.0;' d="M129.04 121.30 L130.01 121.17 L131.14 121.13 L133.56 120.97 L136.06 120.89 L137.92 120.81 " stroke-linecap='round' stroke-linejoin='round' brush-type='0' stroke-wetness='0.0'></path><path  style = ' stroke:#000000;  fill:none;  stroke-width:1.0;' d="M149.38 112.58 L149.26 112.94 L149.22 113.55 L149.14 115.16 L148.89 117.42 L148.33 120.17 L147.36 122.75 L146.47 124.93 L145.83 126.38 L145.51 127.27 L145.34 127.83 L145.42 128.32 L146.07 128.64 L147.20 128.88 L148.73 128.96 L150.59 129.04 L152.53 128.88 L154.30 128.56 L155.59 128.07 L156.40 127.59 " stroke-linecap='round' stroke-linejoin='round' brush-type='0' stroke-wetness='0.0'></path><path  style = ' stroke:#000000;  fill:none;  stroke-width:1.0;' d="M160.27 119.36 L160.52 118.87 L160.60 118.47 L160.76 117.34 L160.76 115.97 L160.84 114.11 L161.00 112.10 L161.32 110.32 L161.65 109.03 L162.05 108.30 L162.45 107.90 L162.94 107.82 L163.42 108.22 L163.82 108.95 L164.15 109.84 L164.31 110.64 L164.23 111.29 L163.82 111.77 L163.18 112.10 L162.53 112.26 L161.97 112.26 " stroke-linecap='round' stroke-linejoin='round' brush-type='0' stroke-wetness='0.0'></path><path  style = ' stroke:#000000;  fill:none;  stroke-width:1.0;' d="M174.32 109.43 L173.71 109.67 L172.94 110.32 L171.33 111.85 L169.72 114.03 L168.26 116.70 L167.38 119.36 L166.89 121.94 L167.05 123.96 L167.86 125.49 L169.31 126.46 L171.17 127.11 " stroke-linecap='round' stroke-linejoin='round' brush-type='0' stroke-wetness='0.0'></path><path  style = ' stroke:#000000;  fill:none;  stroke-width:1.0;' d="M176.74 128.80 L176.74 128.44 L176.74 127.91 L176.74 126.54 L176.90 124.44 L177.38 121.62 L180.53 123.56 " stroke-linecap='round' stroke-linejoin='round' brush-type='0' stroke-wetness='0.0'></path><path  style = ' stroke:#000000;  fill:none;  stroke-width:1.0;' d="M176.49 127.59 L176.74 126.99 L176.98 126.38 L177.46 125.01 L177.87 123.31 L178.27 121.05 L178.67 118.39 L179.32 115.40 L180.05 112.66 L180.85 110.48 L181.58 109.03 L182.31 108.14 L183.19 107.66 L184.24 107.66 L185.45 108.63 L186.58 110.64 L187.39 113.71 L187.79 117.18 L187.87 120.73 L187.79 123.96 L187.63 126.54 L187.39 128.40 L187.23 129.45 L187.15 130.01 L187.15 129.69 L187.15 128.56 L187.15 126.30 L187.15 123.23 L187.15 119.44 L187.31 115.73 L187.71 112.82 L188.44 111.05 L189.33 110.24 L190.54 109.92 L191.83 110.56 L193.04 111.85 L193.76 113.87 L194.09 115.89 L194.01 117.75 L193.28 119.20 L191.99 120.09 L190.46 120.65 L189.25 121.05 L188.44 121.46 L187.95 122.02 L187.71 122.99 L187.79 124.44 L188.28 126.06 L189.00 127.51 L189.81 128.64 L190.54 129.45 L191.26 129.93 L191.91 130.09 L192.64 129.61 " stroke-linecap='round' stroke-linejoin='round' brush-type='0' stroke-wetness='0.0'></path><path  style = ' stroke:#000000;  fill:none;  stroke-width:1.0;' d="M196.83 117.18 L197.32 116.57 L197.48 115.97 L197.80 114.76 L197.80 113.47 L197.80 112.26 L197.80 111.29 L197.80 110.64 L197.88 110.32 L198.28 110.16 L198.93 110.16 L199.98 110.16 L201.19 110.40 L202.32 110.89 L203.21 111.61 L203.69 112.50 L204.26 113.63 " stroke-linecap='round' stroke-linejoin='round' brush-type='0' stroke-wetness='0.0'></path><path  style = ' stroke:#000000;  fill:none;  stroke-width:1.0;' d="M206.03 107.74 L206.52 107.98 L206.92 108.46 L207.89 109.67 L208.94 111.45 L209.91 113.63 L210.55 115.97 L210.79 118.47 L210.39 121.05 L209.34 123.56 L207.73 125.82 L206.19 127.67 L204.74 129.20 L203.53 130.33 L202.40 131.14 L201.35 131.63 L200.54 132.03 " stroke-linecap='round' stroke-linejoin='round' brush-type='0' stroke-wetness='0.0'></path><path  style = ' stroke:#000000;  fill:none;  stroke-width:1.0;' d="M216.93 128.07 L216.56 128.68 L216.20 129.12 L215.23 130.09 L213.70 131.06 L212.00 131.95 L210.63 132.43 " stroke-linecap='round' stroke-linejoin='round' brush-type='0' stroke-wetness='0.0'></path><path  style = ' stroke:#000000;  fill:none;  stroke-width:1.0;' d="M258.81 107.25 L258.21 106.89 L257.76 106.85 L256.71 107.09 L255.58 108.22 L253.97 110.24 L252.11 112.90 L250.26 116.05 L248.88 119.28 L248.16 122.43 L247.92 125.17 L248.16 127.67 L248.88 129.61 L250.26 131.06 L252.03 131.87 L253.89 132.43 L255.50 132.84 L256.87 133.16 L258.00 133.32 L258.81 133.40 L259.29 133.40 L259.54 133.32 L259.70 133.08 L259.78 132.76 L259.62 132.51 L259.46 132.27 L259.29 132.03 L259.29 131.63 L259.38 131.22 L259.78 130.66 " stroke-linecap='round' stroke-linejoin='round' brush-type='0' stroke-wetness='0.0'></path><path  style = ' stroke:#000000;  fill:none;  stroke-width:1.0;' d="M274.06 107.98 L273.58 108.10 L273.01 108.71 L271.64 109.92 L270.19 111.61 L268.82 113.39 L268.01 115.08 L267.61 116.78 L267.61 118.47 L268.17 120.41 L269.22 122.43 L270.43 124.36 L271.24 126.06 L271.64 127.59 L271.72 129.12 L271.24 130.58 L270.11 131.95 L268.74 132.92 L267.45 133.56 L266.56 133.80 L266.07 133.64 " stroke-linecap='round' stroke-linejoin='round' brush-type='0' stroke-wetness='0.0'></path><path  style = ' stroke:#000000;  fill:none;  stroke-width:1.0;' d="M277.94 134.13 L277.94 133.64 L277.94 133.08 L278.02 131.95 L278.18 130.58 L278.42 128.88 L278.74 127.11 L279.15 125.49 L279.55 124.44 L280.04 123.80 L280.68 123.56 L281.41 123.88 L281.97 124.93 L282.29 126.78 L282.46 128.96 L282.54 130.98 L282.54 132.51 L282.46 133.48 L282.38 134.05 L282.21 133.72 L282.13 132.51 L282.21 130.25 L282.62 127.99 L283.26 126.06 L283.91 124.85 L284.47 124.04 L284.96 123.64 L285.44 123.56 L285.85 124.12 L286.09 125.17 L286.09 126.54 L285.68 127.75 L285.12 128.80 L284.39 129.53 L283.75 130.09 L283.26 130.50 L283.02 130.98 L283.26 131.71 L283.91 132.59 L284.96 133.64 L286.17 134.37 L287.38 134.85 L288.67 135.02 " stroke-linecap='round' stroke-linejoin='round' brush-type='0' stroke-wetness='0.0'></path><path  style = ' stroke:#000000;  fill:none;  stroke-width:1.0;' d="M291.25 129.04 L290.77 128.32 L290.61 127.75 L290.20 126.54 L290.04 125.57 L289.80 124.77 L289.48 124.20 L289.15 123.80 L288.83 123.56 L288.67 123.31 L288.59 123.07 L288.75 122.67 L289.24 122.35 L290.04 122.10 L290.93 122.02 L291.66 122.10 L292.30 122.43 L292.79 123.07 L293.11 123.96 L293.19 124.85 L293.19 125.73 L293.35 126.62 " stroke-linecap='round' stroke-linejoin='round' brush-type='0' stroke-wetness='0.0'></path><path  style = ' stroke:#000000;  fill:none;  stroke-width:1.0;' d="M302.63 109.19 L302.75 110.04 L302.79 111.21 L302.87 114.11 L302.79 117.75 L302.71 121.38 L302.63 124.28 L302.63 126.38 L302.63 127.99 L302.71 129.20 " stroke-linecap='round' stroke-linejoin='round' brush-type='0' stroke-wetness='0.0'></path><path  style = ' stroke:#000000;  fill:none;  stroke-width:1.0;' d="M314.49 114.52 L313.53 113.67 L313.04 113.39 L312.07 112.82 L311.59 112.90 L311.19 113.55 L310.94 115.32 L310.86 118.07 L310.86 120.97 L310.86 123.39 L310.78 125.17 L310.62 126.54 L310.22 127.43 " stroke-linecap='round' stroke-linejoin='round' brush-type='0' stroke-wetness='0.0'></path><path  style = ' stroke:#000000;  fill:none;  stroke-width:1.0;' d="M309.89 122.99 L310.86 122.75 L311.67 122.67 L313.53 122.51 L315.14 122.43 " stroke-linecap='round' stroke-linejoin='round' brush-type='0' stroke-wetness='0.0'></path><path  style = ' stroke:#000000;  fill:none;  stroke-width:1.0;' d="M322.97 114.76 L322.24 114.76 L321.60 115.08 L320.31 115.89 L319.34 117.26 L318.61 119.04 L318.29 121.05 L318.13 122.99 L318.45 124.60 L319.26 125.82 L320.47 126.62 L321.52 127.11 " stroke-linecap='round' stroke-linejoin='round' brush-type='0' stroke-wetness='0.0'></path><path  style = ' stroke:#000000;  fill:none;  stroke-width:1.0;' d="M326.12 119.60 L326.84 120.69 L327.41 121.38 L328.54 122.75 L329.42 123.56 L330.15 124.20 L331.12 124.60 " stroke-linecap='round' stroke-linejoin='round' brush-type='0' stroke-wetness='0.0'></path><path  style = ' stroke:#000000;  fill:none;  stroke-width:1.0;' d="M329.99 119.60 L329.63 120.45 L329.26 121.13 L328.46 122.51 L327.73 123.64 L327.08 124.60 L326.52 125.41 L325.87 126.14 " stroke-linecap='round' stroke-linejoin='round' brush-type='0' stroke-wetness='0.0'></path><path  style = ' stroke:#000000;  fill:none;  stroke-width:1.0;' d="M334.35 116.45 L334.95 117.79 L335.15 118.71 L335.48 120.73 L335.15 122.43 L334.59 124.04 L333.78 125.41 L332.98 126.46 L332.17 127.19 L331.52 127.59 L330.88 127.75 L330.31 127.83 " stroke-linecap='round' stroke-linejoin='round' brush-type='0' stroke-wetness='0.0'></path><path  style = ' stroke:#000000;  fill:none;  stroke-width:1.0;' d="M339.92 110.64 L339.92 111.73 L339.92 112.98 L339.92 115.49 L339.67 118.55 L339.27 121.62 L338.71 124.44 L338.30 126.62 L338.06 128.32 L337.90 129.61 L337.74 130.50 " stroke-linecap='round' stroke-linejoin='round' brush-type='0' stroke-wetness='0.0'></path><path  style = ' stroke:#000000;  fill:none;  stroke-width:1.0;' d="M343.55 116.70 L343.43 116.33 L343.39 115.81 L343.31 114.76 L343.31 113.23 L343.39 111.45 L343.63 109.67 L343.95 108.46 L344.35 107.66 L344.76 107.25 L345.32 107.01 L345.89 107.25 L346.37 107.74 L346.69 108.55 L346.94 109.27 L347.10 110.00 L347.10 110.56 L346.78 110.97 L346.21 111.21 L345.48 111.37 L344.76 111.69 " stroke-linecap='round' stroke-linejoin='round' brush-type='0' stroke-wetness='0.0'></path><path  style = ' stroke:#000000;  fill:none;  stroke-width:1.0;' d="M360.25 124.20 L359.53 123.60 L358.96 123.39 L357.59 122.99 L356.30 123.07 L355.01 123.39 L354.20 124.04 L353.80 125.09 L353.72 126.22 L353.88 127.19 L354.60 127.75 L355.81 127.99 L357.35 127.67 L358.56 126.70 L359.69 124.85 L360.58 122.51 L361.38 119.68 L361.87 116.86 L362.11 113.95 L362.19 111.61 L362.19 109.92 L362.19 109.11 L362.11 109.59 L361.95 111.53 L361.79 115.00 L361.79 118.71 L362.03 121.94 L362.67 124.36 L363.56 125.90 L364.61 126.86 " stroke-linecap='round' stroke-linejoin='round' brush-type='0' stroke-wetness='0.0'></path><path  style = ' stroke:#000000;  fill:none;  stroke-width:1.0;' d="M368.00 119.36 L368.36 119.60 L368.81 120.09 L369.69 121.13 L370.82 122.67 L372.12 124.52 L373.57 126.22 L375.26 127.91 " stroke-linecap='round' stroke-linejoin='round' brush-type='0' stroke-wetness='0.0'></path><path  style = ' stroke:#000000;  fill:none;  stroke-width:1.0;' d="M375.26 119.36 L374.78 119.60 L374.21 119.84 L373.08 120.65 L371.87 121.86 L370.58 123.64 L369.45 125.57 L368.48 127.35 L368.00 128.80 L368.08 129.85 " stroke-linecap='round' stroke-linejoin='round' brush-type='0' stroke-wetness='0.0'></path><path  style = ' stroke:#000000;  fill:none;  stroke-width:1.0;' d="M392.94 115.97 L391.97 116.70 L391.16 117.26 L389.47 118.47 L388.01 119.52 L386.80 120.49 L386.00 121.22 L385.59 121.70 L385.51 122.10 L386.08 122.43 L387.21 122.75 L389.14 122.91 L391.40 122.99 L393.74 122.99 L395.84 122.83 " stroke-linecap='round' stroke-linejoin='round' brush-type='0' stroke-wetness='0.0'></path><path  style = ' stroke:#000000;  fill:none;  stroke-width:1.0;' d="M412.06 119.84 L412.55 119.12 L413.11 118.63 L414.24 117.83 L415.45 117.50 L416.91 117.50 L418.28 117.99 L419.33 119.20 L419.73 120.97 L419.65 122.75 L419.33 123.96 L418.52 124.77 L417.39 125.17 L415.94 125.17 L414.48 124.36 L413.19 122.75 L411.98 120.65 L410.93 118.71 L409.96 117.50 L409.08 117.02 L408.03 117.34 L406.74 118.47 L405.45 120.33 L404.48 122.35 L403.99 123.88 L403.83 124.85 L404.07 125.25 L404.72 125.41 L405.85 125.01 L407.14 124.20 L408.43 122.99 L409.64 121.78 " stroke-linecap='round' stroke-linejoin='round' brush-type='0' stroke-wetness='0.0'></path><path  style = ' stroke:#000000;  fill:none;  stroke-width:1.0;' d="M424.17 104.11 L425.14 105.07 L425.86 105.96 L427.40 108.22 L428.69 111.05 L429.74 114.76 L430.30 118.79 L430.22 122.83 L429.49 126.30 L428.20 129.04 L426.59 130.98 L424.89 132.43 L423.36 133.32 L421.91 133.89 L420.86 134.05 " stroke-linecap='round' stroke-linejoin='round' brush-type='0' stroke-wetness='0.0'></path><path  style = ' stroke:#000000;  fill:none;  stroke-width:1.0;' d="M436.52 129.29 L436.76 129.65 " stroke-linecap='round' stroke-linejoin='round' brush-type='0' stroke-wetness='0.0'></path><path  style = ' stroke:#000000;  fill:none;  stroke-width:1.0;' d="M452.25 109.92 L452.13 111.13 L451.93 112.42 L451.36 115.49 L450.56 119.04 L449.59 122.67 L448.86 125.49 L448.46 127.43 L448.38 128.56 L448.62 129.20 L449.51 129.45 L451.12 129.53 L453.46 129.37 L455.88 128.80 L458.22 127.91 " stroke-linecap='round' stroke-linejoin='round' brush-type='0' stroke-wetness='0.0'></path><path  style = ' stroke:#000000;  fill:none;  stroke-width:1.0;' d="M461.45 123.47 L462.06 123.47 L462.74 123.39 L464.12 122.99 L465.57 122.18 L466.70 121.22 L467.42 120.25 L467.67 119.36 L467.51 118.63 L466.70 118.23 L465.08 118.23 L463.23 118.87 L461.78 120.09 L461.05 122.02 L460.81 124.12 L460.97 126.06 L461.86 127.59 L464.28 127.91 " stroke-linecap='round' stroke-linejoin='round' brush-type='0' stroke-wetness='0.0'></path><path  style = ' stroke:#000000;  fill:none;  stroke-width:1.0;' d="M474.04 116.70 L473.80 118.03 L473.72 119.12 L473.40 121.46 L473.24 123.47 L472.67 125.49 " stroke-linecap='round' stroke-linejoin='round' brush-type='0' stroke-wetness='0.0'></path><path  style = ' stroke:#000000;  fill:none;  stroke-width:1.0;' d="M471.14 119.12 L471.74 118.75 L472.59 118.63 L474.53 118.39 L477.19 118.39 L479.29 118.23 " stroke-linecap='round' stroke-linejoin='round' brush-type='0' stroke-wetness='0.0'></path><path  style = ' stroke:#000000;  fill:none;  stroke-width:1.0;' d="M494.86 120.81 L495.11 120.57 L495.67 120.49 L496.88 120.25 L499.06 120.00 L501.40 119.60 L503.98 119.20 L505.92 118.79 " stroke-linecap='round' stroke-linejoin='round' brush-type='0' stroke-wetness='0.0'></path><path  style = ' stroke:#000000;  fill:none;  stroke-width:1.0;' d="M510.36 127.59 L511.33 126.86 L512.38 125.82 L514.47 123.64 L516.57 121.05 L518.59 118.39 L520.28 115.89 L521.58 113.87 L522.38 112.50 L522.87 111.93 L523.11 112.74 L523.19 115.16 L523.11 118.71 L523.03 122.59 L523.03 126.06 L523.35 128.88 L523.75 130.66 L524.16 131.55 L524.32 131.95 L523.51 131.79 L521.41 131.22 L518.51 130.42 L515.52 129.61 L513.26 128.96 L511.73 128.24 L511.16 127.67 L511.16 127.11 " stroke-linecap='round' stroke-linejoin='round' brush-type='0' stroke-wetness='0.0'></path><path  style = ' stroke:#000000;  fill:none;  stroke-width:1.0;' d="M533.12 118.63 L532.75 119.36 L532.63 120.09 L532.47 121.62 L532.87 123.23 L533.60 124.60 L534.49 125.57 L535.62 125.98 L536.83 125.90 L538.20 125.01 L539.41 123.56 L540.22 121.86 L540.70 120.25 L540.86 118.96 L541.02 117.99 L541.11 117.99 L541.11 119.04 L541.11 121.46 L541.11 124.20 L541.19 126.70 L541.43 128.32 L541.83 129.37 " stroke-linecap='round' stroke-linejoin='round' brush-type='0' stroke-wetness='0.0'></path><path  style = ' stroke:#000000;  fill:none;  stroke-width:1.0;' d="M547.88 119.36 L548.37 119.24 L548.93 119.20 L550.22 119.12 L551.68 119.12 L553.13 118.96 " stroke-linecap='round' stroke-linejoin='round' brush-type='0' stroke-wetness='0.0'></path><path  style = ' stroke:#000000;  fill:none;  stroke-width:1.0;' d="M550.31 123.72 L550.67 123.84 L551.27 123.88 L552.73 123.96 L554.74 123.72 L556.44 123.39 " stroke-linecap='round' stroke-linejoin='round' brush-type='0' stroke-wetness='0.0'></path><path  style = ' stroke:#000000;  fill:none;  stroke-width:1.0;' d="M577.18 110.64 L575.36 109.31 L574.03 108.71 L571.45 107.58 L569.59 107.33 L568.14 107.25 L566.93 107.33 L566.04 107.74 L565.48 108.87 L565.32 110.89 L565.32 113.79 L565.32 116.78 L565.32 119.76 L565.32 122.10 L565.32 124.04 L565.24 125.41 L565.15 126.38 L564.75 127.19 " stroke-linecap='round' stroke-linejoin='round' brush-type='0' stroke-wetness='0.0'></path><path  style = ' stroke:#000000;  fill:none;  stroke-width:1.0;' d="M559.75 121.30 L560.59 121.05 L561.60 120.97 L563.78 120.73 L567.09 120.33 L569.84 119.84 " stroke-linecap='round' stroke-linejoin='round' brush-type='0' stroke-wetness='0.0'></path><path  style = ' stroke:#000000;  fill:none;  stroke-width:1.0;' d="M61.74 138.73 L62.95 138.73 L64.08 138.73 L66.50 138.73 L69.00 138.73 L71.66 138.73 L73.84 138.73 L75.54 138.65 L76.67 138.40 " stroke-linecap='round' stroke-linejoin='round' brush-type='0' stroke-wetness='0.0'></path><path  style = ' stroke:#000000;  fill:none;  stroke-width:1.0;' d="M68.27 141.87 L68.27 144.17 L68.27 146.31 L68.27 150.59 L68.35 154.38 L68.84 157.53 L69.81 159.31 " stroke-linecap='round' stroke-linejoin='round' brush-type='0' stroke-wetness='0.0'></path><path  style = ' stroke:#000000;  fill:none;  stroke-width:1.0;' d="M78.68 143.33 L78.93 144.05 L79.01 145.18 L79.09 147.77 L78.85 151.07 L78.52 154.63 L78.28 157.53 L78.20 159.47 L78.20 160.36 L78.36 159.95 L79.01 158.50 L80.14 156.32 L81.43 154.55 L82.48 153.50 L83.28 153.09 L83.93 153.17 L84.49 153.82 L84.90 155.03 L85.14 156.40 L85.54 157.69 " stroke-linecap='round' stroke-linejoin='round' brush-type='0' stroke-wetness='0.0'></path><path  style = ' stroke:#000000;  fill:none;  stroke-width:1.0;' d="M87.64 155.43 L88.01 155.43 L88.45 155.43 L89.58 155.43 L90.95 155.35 L92.40 155.03 L93.61 154.46 L94.50 153.66 L95.07 152.77 L95.31 151.64 L95.15 150.59 L94.34 149.70 L92.89 149.30 L90.95 149.38 L89.18 150.11 L87.80 151.40 L87.16 153.09 L87.00 154.87 L87.56 156.64 L88.61 158.18 L89.98 159.47 L91.35 160.36 L92.48 160.92 L93.45 161.16 L94.10 161.24 L94.66 160.84 L95.07 160.03 L95.39 158.58 L95.55 156.89 L95.63 155.11 L95.47 153.82 L94.99 153.09 L94.18 152.85 L93.29 152.85 L92.65 152.93 L92.24 153.01 L92.65 152.61 L93.53 151.80 L95.07 150.67 L96.52 149.86 L98.29 149.46 L99.83 149.62 L101.20 150.43 L102.01 151.96 L102.57 153.98 L102.81 155.92 L102.89 157.53 L102.89 158.82 L102.89 159.87 L103.06 160.68 " stroke-linecap='round' stroke-linejoin='round' brush-type='0' stroke-wetness='0.0'></path><path  style = ' stroke:#000000;  fill:none;  stroke-width:1.0;' d="M129.04 143.09 L129.41 143.69 L129.61 144.86 L129.93 147.28 L130.01 150.59 L130.01 153.74 L130.01 156.56 L130.01 158.50 L130.01 159.95 L130.01 160.76 L130.01 160.76 " stroke-linecap='round' stroke-linejoin='round' brush-type='0' stroke-wetness='0.0'></path><path  style = ' stroke:#000000;  fill:none;  stroke-width:1.0;' d="M128.56 144.78 L128.92 144.17 L129.36 143.97 L130.49 143.57 L131.87 143.97 L133.56 145.10 L135.01 147.04 L136.14 149.38 L136.63 151.80 L136.55 154.38 L135.90 156.80 L134.77 158.98 L133.48 160.52 L132.19 161.57 L130.98 162.13 L129.85 162.37 L128.88 162.21 L128.15 161.08 " stroke-linecap='round' stroke-linejoin='round' brush-type='0' stroke-wetness='0.0'></path><path  style = ' stroke:#000000;  fill:none;  stroke-width:1.0;' d="M140.18 139.94 L139.82 139.70 L139.69 139.45 L139.45 138.97 L139.53 138.40 L139.86 137.84 L140.50 137.36 L141.47 137.11 L142.44 137.11 L143.25 137.60 L143.65 138.73 L143.49 140.50 L142.84 142.28 L142.04 143.65 L141.55 144.38 L141.23 144.78 L141.07 145.02 L141.55 145.18 L142.60 145.18 L144.05 145.02 L145.26 144.86 L146.72 144.70 " stroke-linecap='round' stroke-linejoin='round' brush-type='0' stroke-wetness='0.0'></path><path  style = ' stroke:#000000;  fill:none;  stroke-width:1.0;' d="M154.95 145.99 L154.71 146.60 L154.54 147.20 L154.14 148.49 L153.90 149.95 L153.74 151.56 L153.74 153.25 L153.82 154.71 L154.14 155.76 L154.87 156.32 L156.00 156.56 L157.37 156.56 L158.74 156.08 L160.11 154.87 L161.32 153.09 L162.29 150.99 L162.86 148.90 L163.10 146.96 L163.18 145.59 L163.18 144.78 L163.18 145.18 L163.10 146.47 L162.94 148.98 L162.53 151.32 L162.13 153.42 L161.73 154.79 L161.48 155.84 L161.24 156.64 L161.00 157.21 L160.76 157.45 " stroke-linecap='round' stroke-linejoin='round' brush-type='0' stroke-wetness='0.0'></path><path  style = ' stroke:#000000;  fill:none;  stroke-width:1.0;' d="M178.92 142.60 L178.55 142.24 L178.03 142.12 L176.90 142.12 L175.28 142.92 L173.75 144.22 L172.30 145.91 L171.49 147.52 L171.01 149.14 L170.93 150.35 L171.17 151.40 L171.89 152.12 L173.43 152.69 L175.12 152.93 L176.82 152.85 L177.95 152.45 L179.00 151.72 " stroke-linecap='round' stroke-linejoin='round' brush-type='0' stroke-wetness='0.0'></path><path  style = ' stroke:#000000;  fill:none;  stroke-width:1.0;' d="M172.38 147.93 L173.35 148.05 L174.32 148.09 L176.25 148.09 L178.19 147.85 L180.13 147.44 " stroke-linecap='round' stroke-linejoin='round' brush-type='0' stroke-wetness='0.0'></path><path  style = ' stroke:#000000;  fill:none;  stroke-width:1.0;' d="M188.84 142.12 L188.84 142.60 L188.84 143.41 L188.68 145.43 L188.12 148.33 L187.23 151.32 L186.26 153.82 L185.61 155.43 L185.29 156.64 L185.21 157.37 L185.86 157.93 L187.07 158.18 L189.00 158.34 L190.78 158.26 L192.47 158.02 L193.76 157.61 L194.89 157.13 L195.62 156.72 " stroke-linecap='round' stroke-linejoin='round' brush-type='0' stroke-wetness='0.0'></path><path  style = ' stroke:#000000;  fill:none;  stroke-width:1.0;' d="M196.59 148.41 L196.71 147.20 L196.75 146.39 L196.83 144.70 L196.83 143.09 L196.83 141.31 L196.83 139.70 L196.91 138.57 L197.07 137.84 L197.40 137.44 L197.80 137.36 L198.20 137.84 L198.45 138.65 L198.53 139.70 L198.53 140.50 L198.36 141.15 L197.96 141.63 L197.40 142.04 L196.67 142.28 L196.02 142.36 " stroke-linecap='round' stroke-linejoin='round' brush-type='0' stroke-wetness='0.0'></path><path  style = ' stroke:#000000;  fill:none;  stroke-width:1.0;' d="M207.73 138.00 L206.52 138.97 L205.79 140.10 L204.18 142.36 L202.96 144.78 L201.92 147.04 L201.27 148.98 L201.03 150.59 L200.95 151.88 L201.11 153.01 L201.59 153.82 L202.56 154.46 L203.93 154.79 L205.14 155.03 " stroke-linecap='round' stroke-linejoin='round' brush-type='0' stroke-wetness='0.0'></path><path  style = ' stroke:#000000;  fill:none;  stroke-width:1.0;' d="M207.73 154.46 L208.21 154.95 L208.78 155.27 L209.99 156.00 L211.20 156.56 L212.41 156.97 L213.54 157.13 L214.67 156.89 L215.64 156.08 L216.28 154.71 L216.68 152.85 L216.85 150.83 L216.85 148.57 L216.60 146.56 L216.28 144.78 L216.04 143.25 L215.96 141.71 L216.12 140.26 L216.60 139.21 L217.57 138.40 L219.11 138.00 L220.80 137.76 L222.33 138.16 L223.30 139.37 L223.79 141.71 L223.38 144.78 L222.33 147.85 L220.88 150.59 L219.67 152.69 L218.86 154.30 L218.46 155.19 L218.38 155.76 L218.78 156.00 L219.91 156.16 L221.69 156.08 L223.54 155.84 L225.16 155.51 L226.53 155.19 L227.82 154.95 L228.79 154.63 L229.68 153.98 " stroke-linecap='round' stroke-linejoin='round' brush-type='0' stroke-wetness='0.0'></path><path  style = ' stroke:#000000;  fill:none;  stroke-width:1.0;' d="M230.48 134.37 L231.45 134.85 L232.58 135.74 L234.76 137.76 L236.78 140.75 L238.23 144.05 L239.04 147.20 L239.04 150.11 L237.99 152.77 L235.97 155.35 L233.39 157.61 L230.65 159.63 L227.90 161.49 L225.88 162.78 " stroke-linecap='round' stroke-linejoin='round' brush-type='0' stroke-wetness='0.0'></path><path  style = ' stroke:#000000;  fill:none;  stroke-width:1.0;' d="M427.32 96.84 L428.16 97.09 " stroke-linecap='round' stroke-linejoin='round' brush-type='0' stroke-wetness='0.0'></path><path  style = ' stroke:#000000;  fill:none;  stroke-width:1.0;' d="M452.74 77.96 L452.86 78.93 L452.82 80.22 L452.49 83.37 L451.69 87.48 L450.56 92.00 L449.59 95.71 L448.94 98.22 L448.70 99.59 L448.86 100.31 L449.91 100.64 L451.85 100.39 L454.84 99.59 L457.98 98.22 L461.37 96.68 L464.12 95.07 " stroke-linecap='round' stroke-linejoin='round' brush-type='0' stroke-wetness='0.0'></path><path  style = ' stroke:#000000;  fill:none;  stroke-width:1.0;' d="M468.96 92.00 L469.68 92.12 L470.41 92.16 L471.78 92.24 L473.40 92.08 L475.25 91.52 L477.19 90.55 L478.64 89.34 L479.45 88.21 L479.77 87.00 L479.53 85.95 L478.40 85.22 L476.46 85.22 L473.96 86.27 L471.78 88.05 L470.17 90.23 L469.44 92.16 L469.52 93.94 L470.41 95.31 L472.11 96.20 L474.61 96.36 L477.51 95.47 " stroke-linecap='round' stroke-linejoin='round' brush-type='0' stroke-wetness='0.0'></path><path  style = ' stroke:#000000;  fill:none;  stroke-width:1.0;' d="M485.91 83.77 L486.03 84.74 L486.07 85.87 L486.15 88.29 L486.15 90.87 L486.15 93.29 L486.15 95.07 L486.23 96.20 " stroke-linecap='round' stroke-linejoin='round' brush-type='0' stroke-wetness='0.0'></path><path  style = ' stroke:#000000;  fill:none;  stroke-width:1.0;' d="M484.45 88.61 L485.18 88.37 L486.23 88.29 L488.57 88.05 L491.55 87.72 L494.62 87.08 " stroke-linecap='round' stroke-linejoin='round' brush-type='0' stroke-wetness='0.0'></path><path  style = ' stroke:#000000;  fill:none;  stroke-width:1.0;' d="M512.54 79.17 L512.66 80.26 L512.70 81.43 L512.70 84.01 L512.62 86.59 L512.54 89.26 L512.54 91.60 L512.46 93.70 L512.38 95.47 L512.29 96.76 L512.38 97.73 " stroke-linecap='round' stroke-linejoin='round' brush-type='0' stroke-wetness='0.0'></path><path  style = ' stroke:#000000;  fill:none;  stroke-width:1.0;' d="M527.79 84.98 L527.18 85.34 L526.42 85.87 L525.13 86.92 L523.75 88.21 L522.79 89.34 L522.06 90.23 L521.82 90.87 L521.82 91.44 L522.38 92.00 L523.67 92.40 L525.53 92.65 L527.47 92.81 L529.08 92.89 L530.45 92.97 " stroke-linecap='round' stroke-linejoin='round' brush-type='0' stroke-wetness='0.0'></path><path  style = ' stroke:#000000;  fill:none;  stroke-width:1.0;' d="M536.51 101.93 L536.51 101.20 L536.51 100.31 L536.51 98.30 L536.59 95.87 L536.83 93.13 L537.15 90.47 L537.39 88.05 L537.55 85.95 L537.96 84.42 L538.52 83.37 L539.25 82.96 L540.14 82.88 L541.27 83.45 L542.48 84.50 L543.20 86.11 L543.53 87.80 L543.12 89.66 L542.07 91.27 L540.22 92.57 L538.36 93.37 L536.91 93.78 L536.10 93.94 L535.70 93.86 L536.42 93.21 " stroke-linecap='round' stroke-linejoin='round' brush-type='0' stroke-wetness='0.0'></path><path  style = ' stroke:#000000;  fill:none;  stroke-width:1.0;' d="M558.29 84.25 L557.08 84.37 L556.20 84.58 L554.34 85.22 L552.65 86.43 L551.03 87.89 L549.74 89.26 L549.01 90.15 L548.69 90.79 L548.85 91.19 L549.90 91.44 L551.68 91.52 L554.02 91.52 L556.52 91.36 L558.94 90.95 L560.64 90.47 " stroke-linecap='round' stroke-linejoin='round' brush-type='0' stroke-wetness='0.0'></path><path  style = ' stroke:#000000;  fill:none;  stroke-width:1.0;' d="M575.00 88.85 L575.00 88.25 L575.08 87.72 L575.24 86.59 L575.97 85.14 L577.02 83.61 L578.47 82.24 L580.08 81.51 L581.86 81.27 L583.55 81.67 L584.93 82.80 L585.81 84.66 L586.30 86.51 L586.38 88.13 L585.98 89.34 L585.01 90.23 L583.39 90.71 L581.29 90.63 L578.95 90.06 L576.53 88.93 L574.52 87.64 L572.90 86.51 L571.77 85.95 L570.80 85.87 L570.08 86.67 L569.59 87.80 L569.51 89.18 L569.84 90.06 L570.56 90.71 L571.61 90.79 L572.98 90.23 L574.44 89.02 L575.81 87.48 L576.94 85.79 L577.74 84.50 " stroke-linecap='round' stroke-linejoin='round' brush-type='0' stroke-wetness='0.0'></path><path  style = ' stroke:#000000;  fill:none;  stroke-width:1.0;' d="M717.00 880.00 L717.00 873.50 " stroke-linecap='round' stroke-linejoin='round' brush-type='0' stroke-wetness='0.0'></path></g><g id='id-text-layer'  type='type-normal' preserveAspectRatio="none" ><text  style = 'fill: #000000; font-family:Helvetica-Light; font-size:18.0; ' preserveAspectRatio="none" x= '40' y='40' width = '688' height = '924' transform="rotate(   0,  384,  502)" ><tspan visibility='hidden'><![CDATA[]]></tspan></text></g><recordings ></recordings><defs   ></defs></svg> 