<?xml version="1.0" standalone="no"?> <!DOCTYPE svg PUBLIC "-//W3C//DTD SVG 1.1//EN" "http://www.w3.org/Graphics/SVG/1.1/DTD/svg11.dtd"> <svg   version="1.1"     xmlns="http://www.w3.org/2000/svg"  xmlns:xlink="http://www.w3.org/1999/xlink" name="" width="768.0" height="1024.0" background="N_PAPERBACKGROUND_WHITE_WITH_GRAY_LINE" line-height="30.0" margin-top="40.0" margin-right="40.0" margin-bottom="40.0" margin-left="40.0"><g id='id-background-layer'  type='type-normal' preserveAspectRatio="none" ><rect  style = ' stroke:#FFFFFF;  fill:#FFFFFF;  stroke-width:0.0;' x="0" y="0" width="768" height="1024" preserveAspectRatio="none" transform="rotate(   0,  384,  512)" ></rect><polyline  style = ' stroke:#D7D6D6;  fill:none;  stroke-width:1.0;' points = ' 0,70 768,70' preserveAspectRatio="none" transform="rotate(   0,  384,   70)" ></polyline><polyline  style = ' stroke:#D7D6D6;  fill:none;  stroke-width:1.0;' points = ' 0,100 768,100' preserveAspectRatio="none" transform="rotate(   0,  384,  100)" ></polyline><polyline  style = ' stroke:#D7D6D6;  fill:none;  stroke-width:1.0;' points = ' 0,130 768,130' preserveAspectRatio="none" transform="rotate(   0,  384,  130)" ></polyline><polyline  style = ' stroke:#D7D6D6;  fill:none;  stroke-width:1.0;' points = ' 0,160 768,160' preserveAspectRatio="none" transform="rotate(   0,  384,  160)" ></polyline><polyline  style = ' stroke:#D7D6D6;  fill:none;  stroke-width:1.0;' points = ' 0,190 768,190' preserveAspectRatio="none" transform="rotate(   0,  384,  190)" ></polyline><polyline  style = ' stroke:#D7D6D6;  fill:none;  stroke-width:1.0;' points = ' 0,220 768,220' preserveAspectRatio="none" transform="rotate(   0,  384,  220)" ></polyline><polyline  style = ' stroke:#D7D6D6;  fill:none;  stroke-width:1.0;' points = ' 0,250 768,250' preserveAspectRatio="none" transform="rotate(   0,  384,  250)" ></polyline><polyline  style = ' stroke:#D7D6D6;  fill:none;  stroke-width:1.0;' points = ' 0,280 768,280' preserveAspectRatio="none" transform="rotate(   0,  384,  280)" ></polyline><polyline  style = ' stroke:#D7D6D6;  fill:none;  stroke-width:1.0;' points = ' 0,310 768,310' preserveAspectRatio="none" transform="rotate(   0,  384,  310)" ></polyline><polyline  style = ' stroke:#D7D6D6;  fill:none;  stroke-width:1.0;' points = ' 0,340 768,340' preserveAspectRatio="none" transform="rotate(   0,  384,  340)" ></polyline><polyline  style = ' stroke:#D7D6D6;  fill:none;  stroke-width:1.0;' points = ' 0,370 768,370' preserveAspectRatio="none" transform="rotate(   0,  384,  370)" ></polyline><polyline  style = ' stroke:#D7D6D6;  fill:none;  stroke-width:1.0;' points = ' 0,400 768,400' preserveAspectRatio="none" transform="rotate(   0,  384,  400)" ></polyline><polyline  style = ' stroke:#D7D6D6;  fill:none;  stroke-width:1.0;' points = ' 0,430 768,430' preserveAspectRatio="none" transform="rotate(   0,  384,  430)" ></polyline><polyline  style = ' stroke:#D7D6D6;  fill:none;  stroke-width:1.0;' points = ' 0,460 768,460' preserveAspectRatio="none" transform="rotate(   0,  384,  460)" ></polyline><polyline  style = ' stroke:#D7D6D6;  fill:none;  stroke-width:1.0;' points = ' 0,490 768,490' preserveAspectRatio="none" transform="rotate(   0,  384,  490)" ></polyline><polyline  style = ' stroke:#D7D6D6;  fill:none;  stroke-width:1.0;' points = ' 0,520 768,520' preserveAspectRatio="none" transform="rotate(   0,  384,  520)" ></polyline><polyline  style = ' stroke:#D7D6D6;  fill:none;  stroke-width:1.0;' points = ' 0,550 768,550' preserveAspectRatio="none" transform="rotate(   0,  384,  550)" ></polyline><polyline  style = ' stroke:#D7D6D6;  fill:none;  stroke-width:1.0;' points = ' 0,580 768,580' preserveAspectRatio="none" transform="rotate(   0,  384,  580)" ></polyline><polyline  style = ' stroke:#D7D6D6;  fill:none;  stroke-width:1.0;' points = ' 0,610 768,610' preserveAspectRatio="none" transform="rotate(   0,  384,  610)" ></polyline><polyline  style = ' stroke:#D7D6D6;  fill:none;  stroke-width:1.0;' points = ' 0,640 768,640' preserveAspectRatio="none" transform="rotate(   0,  384,  640)" ></polyline><polyline  style = ' stroke:#D7D6D6;  fill:none;  stroke-width:1.0;' points = ' 0,670 768,670' preserveAspectRatio="none" transform="rotate(   0,  384,  670)" ></polyline><polyline  style = ' stroke:#D7D6D6;  fill:none;  stroke-width:1.0;' points = ' 0,700 768,700' preserveAspectRatio="none" transform="rotate(   0,  384,  700)" ></polyline><polyline  style = ' stroke:#D7D6D6;  fill:none;  stroke-width:1.0;' points = ' 0,730 768,730' preserveAspectRatio="none" transform="rotate(   0,  384,  730)" ></polyline><polyline  style = ' stroke:#D7D6D6;  fill:none;  stroke-width:1.0;' points = ' 0,760 768,760' preserveAspectRatio="none" transform="rotate(   0,  384,  760)" ></polyline><polyline  style = ' stroke:#D7D6D6;  fill:none;  stroke-width:1.0;' points = ' 0,790 768,790' preserveAspectRatio="none" transform="rotate(   0,  384,  790)" ></polyline><polyline  style = ' stroke:#D7D6D6;  fill:none;  stroke-width:1.0;' points = ' 0,820 768,820' preserveAspectRatio="none" transform="rotate(   0,  384,  820)" ></polyline><polyline  style = ' stroke:#D7D6D6;  fill:none;  stroke-width:1.0;' points = ' 0,850 768,850' preserveAspectRatio="none" transform="rotate(   0,  384,  850)" ></polyline><polyline  style = ' stroke:#D7D6D6;  fill:none;  stroke-width:1.0;' points = ' 0,880 768,880' preserveAspectRatio="none" transform="rotate(   0,  384,  880)" ></polyline><polyline  style = ' stroke:#D7D6D6;  fill:none;  stroke-width:1.0;' points = ' 0,910 768,910' preserveAspectRatio="none" transform="rotate(   0,  384,  910)" ></polyline><polyline  style = ' stroke:#D7D6D6;  fill:none;  stroke-width:1.0;' points = ' 0,940 768,940' preserveAspectRatio="none" transform="rotate(   0,  384,  940)" ></polyline><polyline  style = ' stroke:#D7D6D6;  fill:none;  stroke-width:1.0;' points = ' 0,970 768,970' preserveAspectRatio="none" transform="rotate(   0,  384,  970)" ></polyline><polyline  style = ' stroke:#C74F4F;  fill:none;  stroke-width:0.5;' points = ' 40,0 40,1024' preserveAspectRatio="none" transform="rotate(   0,   40,  512)" ></polyline><polyline  style = ' stroke:#B6B6B6; stroke-opacity:0.8; fill:none;  stroke-width:0.5;' points = ' 728,0 728,1024' preserveAspectRatio="none" transform="rotate(   0,  728,  512)" ></polyline></g><g id='id-main-layer'  type='type-normal' preserveAspectRatio="none" ><path  style = ' stroke:#000000;  fill:none;  stroke-width:1.0;' d="M50.45 99.02 L50.38 98.75 L50.36 98.13 L50.32 97.07 L50.32 95.30 L50.23 92.73 L50.09 89.41 L49.83 85.92 L49.56 82.86 L49.21 80.21 L48.94 78.17 L48.77 76.67 L48.77 75.61 L49.12 74.85 L50.01 74.46 L51.51 74.63 L53.28 75.65 L54.70 77.42 L55.45 79.72 L55.32 82.11 L54.43 84.55 L52.97 86.80 L51.29 88.79 L49.96 90.34 L49.12 91.45 L48.81 92.20 L48.81 92.82 L49.39 93.40 L50.49 93.93 L52.09 94.32 L53.90 94.68 L55.45 94.90 " stroke-linecap='round' stroke-linejoin='round' brush-type='1' stroke-wetness='0.5'></path><path  style = ' stroke:#000000;  fill:none;  stroke-width:1.0;' d="M59.48 94.63 L60.07 94.44 L60.67 94.19 L61.87 93.53 L62.88 92.55 L63.55 91.40 L63.81 90.30 L63.33 89.46 L62.13 88.93 L60.36 88.70 L58.63 89.06 L57.31 90.08 L56.42 91.76 L56.02 93.71 L56.29 95.56 L57.48 97.07 " stroke-linecap='round' stroke-linejoin='round' brush-type='1' stroke-wetness='0.5'></path><path  style = ' stroke:#000000;  fill:none;  stroke-width:1.0;' d="M65.98 95.70 L65.32 94.97 L65.10 94.06 L64.65 92.33 L64.92 90.74 L65.80 89.68 L67.35 89.19 L69.08 89.41 L70.41 90.52 L71.07 92.29 L71.29 94.06 L71.29 95.17 L71.29 94.63 L71.64 93.00 L72.49 90.78 L73.72 89.46 L74.88 88.88 L75.67 89.37 L76.16 90.74 L76.38 93.00 L76.51 95.43 L76.69 97.29 " stroke-linecap='round' stroke-linejoin='round' brush-type='1' stroke-wetness='0.5'></path><path  style = ' stroke:#000000;  fill:none;  stroke-width:1.0;' d="M84.17 90.52 L83.17 90.59 L82.27 90.92 L80.63 91.76 L79.43 93.17 L78.73 94.90 L78.42 96.45 L78.59 97.42 L79.34 97.69 L80.50 97.02 L81.65 95.83 L82.40 94.37 L82.75 93.48 L82.84 93.79 L82.84 95.25 L82.93 97.60 " stroke-linecap='round' stroke-linejoin='round' brush-type='1' stroke-wetness='0.5'></path><path  style = ' stroke:#000000;  fill:none;  stroke-width:1.0;' d="M83.77 101.14 L84.50 98.82 L84.74 97.47 L85.23 94.77 L85.32 93.22 L85.72 92.02 L86.60 91.27 L88.02 90.83 L89.74 90.61 L91.25 90.47 " stroke-linecap='round' stroke-linejoin='round' brush-type='1' stroke-wetness='0.5'></path><path  style = ' stroke:#000000;  fill:none;  stroke-width:1.0;' d="M97.31 81.89 L97.11 82.75 L97.05 84.46 L96.74 87.69 L96.51 91.49 L96.20 94.72 L96.07 97.02 " stroke-linecap='round' stroke-linejoin='round' brush-type='1' stroke-wetness='0.5'></path><path  style = ' stroke:#000000;  fill:none;  stroke-width:1.0;' d="M100.63 91.18 L99.97 91.51 L98.99 91.80 L97.36 92.42 L95.94 93.04 L95.19 93.62 L94.88 94.15 L95.05 94.72 L96.03 95.34 L97.89 95.92 L100.23 96.32 L102.49 96.54 L104.17 96.63 L105.10 96.67 " stroke-linecap='round' stroke-linejoin='round' brush-type='1' stroke-wetness='0.5'></path><path  style = ' stroke:#000000;  fill:none;  stroke-width:1.0;' d="M46.07 96.76 L46.86 96.76 L48.55 96.80 L52.04 97.07 L56.82 97.56 L62.17 98.22 L68.15 98.79 L74.43 99.24 L80.76 99.46 L86.87 99.55 L92.58 99.50 L97.67 99.28 L102.05 98.93 L105.54 98.53 L108.20 98.26 L109.92 98.09 L110.90 97.95 L111.34 97.78 " stroke-linecap='round' stroke-linejoin='round' brush-type='1' stroke-wetness='0.5'></path><path  style = ' stroke:#000000;  fill:none;  stroke-width:1.0;' d="M106.60 86.67 a0.50 0.50 0 1 0 0.01 0 " stroke-linecap='round' stroke-linejoin='round' brush-type='1' stroke-wetness='0.5'></path><path  style = ' stroke:#000000;  fill:none;  stroke-width:1.0;' d="M107.67 94.37 a0.50 0.50 0 1 0 0.01 0 " stroke-linecap='round' stroke-linejoin='round' brush-type='1' stroke-wetness='0.5'></path><path  style = ' stroke:#000000;  fill:none;  stroke-width:1.0;' d="M123.73 85.47 L123.93 88.33 L124.17 90.43 L124.66 94.28 L125.10 96.40 L125.41 97.38 L125.72 97.56 L126.21 96.94 L127.05 95.43 L128.11 93.04 L129.13 90.83 L129.84 89.41 L130.19 89.01 L130.32 90.12 L130.41 91.85 L130.50 93.62 L130.72 94.37 L131.21 94.59 L132.05 94.19 L133.29 93.00 L134.75 90.92 L136.12 88.48 L137.09 86.32 L137.67 84.72 L138.02 83.84 L138.38 83.44 " stroke-linecap='round' stroke-linejoin='round' brush-type='1' stroke-wetness='0.5'></path><path  style = ' stroke:#000000;  fill:none;  stroke-width:1.0;' d="M141.79 95.56 L142.65 95.43 L143.38 95.34 L144.79 94.86 L145.99 93.97 L146.96 92.64 L147.54 91.23 L147.63 90.12 L146.74 89.50 L144.88 89.86 L142.40 91.01 L140.15 92.91 L138.64 94.90 L137.89 96.85 L138.16 98.44 L139.66 99.64 L142.49 100.30 " stroke-linecap='round' stroke-linejoin='round' brush-type='1' stroke-wetness='0.5'></path><path  style = ' stroke:#000000;  fill:none;  stroke-width:1.0;' d="M165.15 91.05 L164.02 90.85 L162.63 90.96 L160.28 91.27 L158.34 92.02 L157.27 92.91 L156.88 93.88 L157.49 94.86 L159.00 95.87 L161.03 96.80 L162.76 97.60 L163.78 98.22 L164.18 98.75 L163.82 99.41 L162.72 100.12 L160.95 100.87 L159.09 101.45 L157.80 101.85 L157.23 102.02 " stroke-linecap='round' stroke-linejoin='round' brush-type='1' stroke-wetness='0.5'></path><path  style = ' stroke:#000000;  fill:none;  stroke-width:1.0;' d="M172.85 94.50 L172.39 93.97 L171.70 93.79 L170.33 93.48 L168.73 93.88 L167.41 94.77 L166.61 96.09 L166.61 97.33 L167.63 98.13 L169.53 98.13 L171.83 97.29 L173.65 95.96 L174.62 94.68 L174.93 93.93 L174.49 93.66 L173.65 94.28 L172.58 95.61 L171.92 97.56 L171.74 99.33 " stroke-linecap='round' stroke-linejoin='round' brush-type='1' stroke-wetness='0.5'></path><path  style = ' stroke:#000000;  fill:none;  stroke-width:1.0;' d="M184.00 90.12 L183.67 90.72 L183.16 92.20 L182.14 95.08 L180.99 98.62 L179.98 101.80 L179.22 104.59 L178.82 106.76 " stroke-linecap='round' stroke-linejoin='round' brush-type='1' stroke-wetness='0.5'></path><path  style = ' stroke:#000000;  fill:none;  stroke-width:1.0;' d="M181.21 97.56 L180.42 96.36 L179.84 95.61 L178.74 94.15 L177.98 93.22 " stroke-linecap='round' stroke-linejoin='round' brush-type='1' stroke-wetness='0.5'></path><path  style = ' stroke:#000000;  fill:none;  stroke-width:1.0;' d="M199.53 79.50 L200.73 81.43 " stroke-linecap='round' stroke-linejoin='round' brush-type='1' stroke-wetness='0.5'></path><path  style = ' stroke:#000000;  fill:none;  stroke-width:1.0;' d="M199.00 78.97 L199.34 79.70 L199.89 80.52 L201.17 82.55 L202.90 85.25 L204.84 88.53 L206.75 91.71 L208.47 94.46 L210.02 96.67 L211.44 98.44 L212.68 99.81 L213.56 100.70 L214.09 101.27 " stroke-linecap='round' stroke-linejoin='round' brush-type='1' stroke-wetness='0.5'></path><path  style = ' stroke:#000000;  fill:none;  stroke-width:1.0;' d="M210.82 77.64 L210.22 78.17 L209.36 79.72 L207.54 82.82 L205.29 87.02 L202.90 91.09 L200.73 94.63 L199.00 97.33 L197.90 99.19 L197.32 100.65 L197.14 101.67 " stroke-linecap='round' stroke-linejoin='round' brush-type='1' stroke-wetness='0.5'></path><path  style = ' stroke:#000000;  fill:none;  stroke-width:1.0;' d="M231.79 89.99 L231.86 90.72 L231.88 91.98 L231.93 94.10 L231.93 96.27 L232.06 97.73 L232.46 98.62 " stroke-linecap='round' stroke-linejoin='round' brush-type='1' stroke-wetness='0.5'></path><path  style = ' stroke:#000000;  fill:none;  stroke-width:1.0;' d="M239.10 91.05 L238.50 91.25 L237.68 91.63 L236.40 92.38 L235.38 93.26 L234.98 94.10 L235.11 94.94 L235.91 95.83 L237.19 96.67 L238.52 97.38 L239.41 97.87 L239.85 98.22 L239.98 98.53 L239.63 98.97 L238.70 99.50 L237.19 99.99 L235.78 100.30 L234.80 100.43 " stroke-linecap='round' stroke-linejoin='round' brush-type='1' stroke-wetness='0.5'></path><path  style = ' stroke:#000000;  fill:none;  stroke-width:1.0;' d="M259.14 90.12 L258.01 90.25 L257.15 90.34 L255.56 90.61 L254.45 90.92 L253.79 91.32 L253.48 91.80 L253.61 92.42 L254.27 93.31 L255.34 94.37 L256.44 95.52 L257.15 96.58 L257.46 97.56 L257.11 98.53 L256.18 99.50 L254.72 100.34 L253.52 100.87 " stroke-linecap='round' stroke-linejoin='round' brush-type='1' stroke-wetness='0.5'></path><path  style = ' stroke:#000000;  fill:none;  stroke-width:1.0;' d="M264.72 92.11 L263.92 92.71 L263.21 93.75 L262.11 95.70 L261.53 97.82 L261.67 99.50 L262.64 100.48 L264.28 100.65 " stroke-linecap='round' stroke-linejoin='round' brush-type='1' stroke-wetness='0.5'></path><path  style = ' stroke:#000000;  fill:none;  stroke-width:1.0;' d="M270.16 82.16 L270.36 82.82 L270.43 83.97 L270.56 86.54 L270.47 89.94 L270.25 93.44 L269.94 96.40 L269.72 98.22 L269.63 99.06 L269.98 98.26 L270.83 96.63 L272.11 94.59 L273.26 93.48 L274.10 93.17 L274.63 93.62 L275.03 94.59 L275.25 96.01 L275.34 97.33 " stroke-linecap='round' stroke-linejoin='round' brush-type='1' stroke-wetness='0.5'></path><path  style = ' stroke:#000000;  fill:none;  stroke-width:1.0;' d="M279.59 94.50 L280.45 94.70 L281.14 94.77 L282.55 94.68 L283.79 94.10 L284.72 93.22 L285.21 92.24 L285.03 91.45 L284.37 90.92 L283.26 90.83 L281.98 91.54 L280.83 92.95 L280.07 94.90 L279.76 96.71 L280.12 98.26 L281.22 99.33 " stroke-linecap='round' stroke-linejoin='round' brush-type='1' stroke-wetness='0.5'></path><path  style = ' stroke:#000000;  fill:none;  stroke-width:1.0;' d="M284.76 100.48 L286.49 97.95 L286.98 96.01 L288.04 92.86 L288.04 91.23 L288.53 90.70 L289.37 90.56 L290.39 91.05 L291.09 92.11 L291.45 93.75 L291.54 95.21 L291.54 96.23 L291.58 96.09 L292.11 94.86 L292.91 93.35 L293.84 92.38 L294.37 92.38 L294.68 92.86 L294.81 93.79 L294.85 95.03 L294.85 96.14 L294.90 96.85 " stroke-linecap='round' stroke-linejoin='round' brush-type='1' stroke-wetness='0.5'></path><path  style = ' stroke:#000000;  fill:none;  stroke-width:1.0;' d="M295.52 97.56 L297.38 96.23 L298.39 95.70 L300.43 94.32 L301.45 93.48 L302.11 92.38 L302.38 91.40 L302.29 90.70 L301.71 90.34 L300.65 90.65 L299.28 91.80 L298.04 93.71 L297.24 95.83 L296.89 97.64 L298.35 99.02 L300.34 99.72 " stroke-linecap='round' stroke-linejoin='round' brush-type='1' stroke-wetness='0.5'></path><path  style = ' stroke:#000000;  fill:none;  stroke-width:1.0;' d="M317.95 91.32 L316.16 91.38 L314.86 92.02 L312.73 93.26 L311.80 95.08 L311.76 96.80 L312.69 98.26 L314.55 99.15 L316.98 99.28 L319.10 98.71 L320.43 97.20 L320.57 95.34 L319.72 93.57 L318.40 92.51 L317.29 92.02 " stroke-linecap='round' stroke-linejoin='round' brush-type='1' stroke-wetness='0.5'></path><path  style = ' stroke:#000000;  fill:none;  stroke-width:1.0;' d="M323.26 94.24 L323.20 95.56 L323.40 96.05 L323.93 96.94 L324.99 96.36 L326.36 95.03 L327.82 93.09 L329.11 91.32 L329.95 90.25 L330.48 89.86 L330.70 89.99 " stroke-linecap='round' stroke-linejoin='round' brush-type='1' stroke-wetness='0.5'></path><path  style = ' stroke:#000000;  fill:none;  stroke-width:1.0;' d="M330.96 95.83 L331.56 95.56 L332.20 95.39 L333.58 94.81 L335.04 94.02 L336.32 92.95 L337.12 91.85 L337.43 90.96 L337.20 90.39 L336.50 90.25 L335.35 90.92 L334.11 92.38 L333.22 94.46 L332.78 96.45 L333.62 98.35 " stroke-linecap='round' stroke-linejoin='round' brush-type='1' stroke-wetness='0.5'></path><path  style = ' stroke:#000000;  fill:none;  stroke-width:1.0;' d="M337.87 100.61 L338.66 98.88 L338.93 97.33 L339.59 94.59 L340.17 92.60 L341.32 91.32 L342.96 90.56 L344.82 90.21 L346.32 90.12 " stroke-linecap='round' stroke-linejoin='round' brush-type='1' stroke-wetness='0.5'></path><path  style = ' stroke:#000000;  fill:none;  stroke-width:1.0;' d="M360.30 79.50 L359.97 80.23 L359.82 81.36 L359.42 84.32 L359.24 88.44 L359.11 93.09 L359.11 97.02 L359.11 99.81 L359.24 101.32 L359.46 101.98 " stroke-linecap='round' stroke-linejoin='round' brush-type='1' stroke-wetness='0.5'></path><path  style = ' stroke:#000000;  fill:none;  stroke-width:1.0;' d="M365.75 89.06 L364.88 89.13 L364.20 89.24 L362.87 89.72 L361.81 90.56 L360.92 91.71 L360.39 92.82 L360.17 93.84 L360.44 94.77 L361.28 95.61 L362.78 96.32 L364.69 96.85 L366.63 97.20 " stroke-linecap='round' stroke-linejoin='round' brush-type='1' stroke-wetness='0.5'></path><path  style = ' stroke:#000000;  fill:none;  stroke-width:1.0;' d="M386.19 90.52 a0.50 0.50 0 1 0 0.01 0 " stroke-linecap='round' stroke-linejoin='round' brush-type='1' stroke-wetness='0.5'></path><path  style = ' stroke:#000000;  fill:none;  stroke-width:1.0;' d="M239.63 103.00 L240.62 103.13 L241.26 103.18 L242.95 103.26 L245.07 103.26 L248.43 103.26 L252.90 103.09 L258.26 102.69 L264.45 102.11 L271.22 101.54 L278.48 101.05 L285.96 100.70 L293.70 100.39 L301.67 100.17 L309.81 99.99 L318.18 99.86 L326.80 99.77 L335.39 99.68 L343.62 99.68 L351.01 99.68 L357.52 99.72 L362.78 99.77 L366.99 99.81 L370.00 99.81 L372.08 99.81 L373.27 99.81 L373.93 99.81 L374.42 99.77 " stroke-linecap='round' stroke-linejoin='round' brush-type='1' stroke-wetness='0.5'></path><path  style = ' stroke:#000000;  fill:none;  stroke-width:1.0;' d="M390.84 86.80 L390.77 87.93 L390.79 88.93 L391.02 90.74 L391.41 92.24 L391.81 93.75 L391.99 95.52 L392.03 97.47 L392.03 99.24 L392.08 100.56 L392.21 101.32 " stroke-linecap='round' stroke-linejoin='round' brush-type='1' stroke-wetness='0.5'></path><path  style = ' stroke:#000000;  fill:none;  stroke-width:1.0;' d="M405.84 83.08 L404.84 82.55 L403.63 82.38 L401.41 82.02 L399.38 82.16 L398.01 82.38 L397.25 82.73 L396.99 83.22 L397.03 84.19 L397.52 85.87 L398.45 88.22 L399.64 90.87 L400.75 93.35 L401.59 95.39 L402.17 96.85 L402.43 97.87 L402.52 98.48 " stroke-linecap='round' stroke-linejoin='round' brush-type='1' stroke-wetness='0.5'></path><path  style = ' stroke:#000000;  fill:none;  stroke-width:1.0;' d="M396.68 91.85 L397.28 91.71 L398.41 91.67 L400.57 91.58 L403.23 91.67 L405.88 91.80 L408.05 91.94 " stroke-linecap='round' stroke-linejoin='round' brush-type='1' stroke-wetness='0.5'></path><path  style = ' stroke:#000000;  fill:none;  stroke-width:1.0;' d="M429.60 79.37 L429.87 79.70 L430.80 81.05 L432.48 83.57 L434.69 86.80 L436.82 89.68 L438.90 92.33 L440.80 94.72 L442.39 96.85 L443.59 98.53 L444.38 99.72 L444.78 100.30 " stroke-linecap='round' stroke-linejoin='round' brush-type='1' stroke-wetness='0.5'></path><path  style = ' stroke:#000000;  fill:none;  stroke-width:1.0;' d="M443.41 76.71 L442.35 77.38 L441.55 78.35 L439.83 80.65 L438.14 83.88 L436.20 87.78 L434.21 91.54 L432.39 94.68 L431.02 96.94 L430.18 98.53 L429.82 99.41 " stroke-linecap='round' stroke-linejoin='round' brush-type='1' stroke-wetness='0.5'></path><path  style = ' stroke:#000000;  fill:none;  stroke-width:1.0;' d="M448.32 89.06 L448.65 89.19 L449.34 89.24 L450.84 89.32 L453.01 89.32 L455.54 89.32 L458.28 89.37 L460.89 89.50 L463.24 89.63 L465.23 89.77 L466.78 89.81 L467.79 89.86 L468.28 89.86 L468.28 89.37 L467.79 88.53 L466.95 87.42 L466.16 86.76 L465.67 86.45 L465.58 86.62 L465.93 87.29 L466.55 88.40 L467.17 89.68 L467.48 90.96 L467.44 92.24 L466.86 93.44 L465.85 94.41 L464.52 95.03 L463.28 95.34 L462.39 95.43 L461.82 95.43 " stroke-linecap='round' stroke-linejoin='round' brush-type='1' stroke-wetness='0.5'></path><path  style = ' stroke:#000000;  fill:none;  stroke-width:1.0;' d="M482.04 85.61 L481.18 85.54 L480.36 85.65 L478.77 86.05 L477.40 86.80 L476.42 87.64 L475.94 88.44 L475.98 89.24 L476.78 90.08 L478.15 90.87 L479.70 91.58 L480.72 92.24 L481.20 93.00 L481.11 93.88 L480.45 94.94 L479.25 95.92 L477.93 96.76 L476.51 97.56 " stroke-linecap='round' stroke-linejoin='round' brush-type='1' stroke-wetness='0.5'></path><path  style = ' stroke:#000000;  fill:none;  stroke-width:1.0;' d="M488.02 91.05 L487.42 91.38 L486.87 92.02 L485.89 93.44 L485.27 95.34 L485.10 97.38 L485.67 99.15 L486.82 100.21 " stroke-linecap='round' stroke-linejoin='round' brush-type='1' stroke-wetness='0.5'></path><path  style = ' stroke:#000000;  fill:none;  stroke-width:1.0;' d="M492.80 82.55 L493.00 83.08 L493.06 84.01 L493.19 86.40 L493.19 89.77 L493.06 93.40 L492.88 96.27 L492.71 97.95 L492.75 97.78 L493.24 96.40 L494.04 94.63 L494.96 93.66 L495.63 93.44 L496.12 93.93 L496.47 95.08 L496.73 96.71 L497.04 98.22 " stroke-linecap='round' stroke-linejoin='round' brush-type='1' stroke-wetness='0.5'></path><path  style = ' stroke:#000000;  fill:none;  stroke-width:1.0;' d="M498.24 99.94 L500.03 98.35 L501.34 97.56 L503.77 95.87 L505.36 94.90 L506.38 93.88 L506.87 92.95 L506.69 92.24 L505.81 91.85 L504.35 92.02 L502.80 92.91 L501.60 94.41 L500.98 96.23 L500.85 98.09 L501.60 99.72 L502.75 100.83 " stroke-linecap='round' stroke-linejoin='round' brush-type='1' stroke-wetness='0.5'></path><path  style = ' stroke:#000000;  fill:none;  stroke-width:1.0;' d="M505.81 101.80 L506.74 100.41 L507.05 99.15 L507.66 96.71 L507.66 94.68 L507.71 93.17 L507.97 92.29 L508.59 91.94 L509.44 92.20 L510.14 93.26 L510.54 94.90 L510.67 96.54 L510.72 97.51 L510.98 97.29 L512.09 96.09 L513.46 94.86 L514.66 94.32 L515.10 94.86 L515.28 95.92 L515.36 97.51 L515.36 98.79 " stroke-linecap='round' stroke-linejoin='round' brush-type='1' stroke-wetness='0.5'></path><path  style = ' stroke:#000000;  fill:none;  stroke-width:1.0;' d="M525.19 82.29 L524.46 83.08 L523.68 84.41 L522.09 87.20 L520.59 90.70 L519.57 94.10 L519.17 97.07 L519.66 99.37 L520.94 101.01 L523.02 101.98 L525.45 102.29 " stroke-linecap='round' stroke-linejoin='round' brush-type='1' stroke-wetness='0.5'></path><path  style = ' stroke:#000000;  fill:none;  stroke-width:1.0;' d="M532.49 83.22 L532.42 83.55 L532.40 84.63 L532.36 86.76 L532.36 89.63 L532.36 92.33 L532.31 94.77 L532.27 96.80 L532.23 98.44 " stroke-linecap='round' stroke-linejoin='round' brush-type='1' stroke-wetness='0.5'></path><path  style = ' stroke:#000000;  fill:none;  stroke-width:1.0;' d="M540.19 87.73 L539.33 87.73 L538.55 87.91 L537.00 88.44 L535.59 89.32 L534.48 90.39 L533.82 91.36 L533.60 92.24 L533.73 93.04 L534.35 93.75 L535.46 94.37 L536.87 94.77 L538.33 95.08 L539.44 95.21 " stroke-linecap='round' stroke-linejoin='round' brush-type='1' stroke-wetness='0.5'></path><path  style = ' stroke:#000000;  fill:none;  stroke-width:1.0;' d="M544.84 81.23 L545.63 82.29 L546.16 83.48 L547.23 85.87 L547.89 88.62 L548.29 91.36 L548.07 93.93 L547.05 96.09 L545.24 97.91 L542.98 99.41 L540.63 100.34 L538.77 100.79 " stroke-linecap='round' stroke-linejoin='round' brush-type='1' stroke-wetness='0.5'></path><path  style = ' stroke:#000000;  fill:none;  stroke-width:1.0;' d="M72.62 108.31 L72.95 108.24 L73.90 108.22 L75.80 108.26 L78.42 108.44 L81.11 108.62 L83.73 108.71 L86.12 108.62 L87.93 108.31 L89.04 107.82 " stroke-linecap='round' stroke-linejoin='round' brush-type='1' stroke-wetness='0.5'></path><path  style = ' stroke:#000000;  fill:none;  stroke-width:1.0;' d="M90.01 106.32 L87.55 107.91 L86.73 109.81 L85.10 113.31 L85.23 116.76 L85.54 119.64 L85.94 121.94 L86.34 123.53 " stroke-linecap='round' stroke-linejoin='round' brush-type='1' stroke-wetness='0.5'></path><path  style = ' stroke:#000000;  fill:none;  stroke-width:1.0;' d="M82.58 122.38 L82.97 122.31 L83.64 122.29 L85.32 122.25 L87.75 122.20 L90.28 122.12 " stroke-linecap='round' stroke-linejoin='round' brush-type='1' stroke-wetness='0.5'></path><path  style = ' stroke:#000000;  fill:none;  stroke-width:1.0;' d="M95.59 125.30 L95.12 124.57 L94.97 123.44 L94.97 121.41 L95.67 119.46 L96.87 118.31 L98.28 117.82 L99.88 118.31 L101.34 119.59 L102.53 121.76 L103.37 124.11 L104.17 126.32 " stroke-linecap='round' stroke-linejoin='round' brush-type='1' stroke-wetness='0.5'></path><path  style = ' stroke:#000000;  fill:none;  stroke-width:1.0;' d="M119.22 114.15 L119.68 114.68 L119.92 116.10 L120.41 118.62 L120.72 121.81 L121.12 124.55 L121.56 126.72 " stroke-linecap='round' stroke-linejoin='round' brush-type='1' stroke-wetness='0.5'></path><path  style = ' stroke:#000000;  fill:none;  stroke-width:1.0;' d="M117.09 118.66 L117.42 118.40 L118.46 118.13 L120.28 117.60 L122.09 117.25 L123.42 117.78 L124.08 121.01 L124.53 124.59 L124.57 127.43 L125.01 126.98 L125.85 125.39 L126.96 123.44 L127.71 122.16 L128.16 121.72 L128.38 122.25 L128.60 123.58 L128.77 125.66 L129.04 127.74 " stroke-linecap='round' stroke-linejoin='round' brush-type='1' stroke-wetness='0.5'></path><path  style = ' stroke:#000000;  fill:none;  stroke-width:1.0;' d="M137.80 120.12 L137.54 120.52 L137.36 121.10 L136.96 122.38 L136.74 123.97 L136.65 125.52 L136.96 126.81 " stroke-linecap='round' stroke-linejoin='round' brush-type='1' stroke-wetness='0.5'></path><path  style = ' stroke:#000000;  fill:none;  stroke-width:1.0;' d="M137.14 114.02 L137.20 114.35 L137.45 115.08 " stroke-linecap='round' stroke-linejoin='round' brush-type='1' stroke-wetness='0.5'></path><path  style = ' stroke:#000000;  fill:none;  stroke-width:1.0;' d="M146.96 118.27 L145.83 118.66 L144.71 119.02 L142.94 119.64 L141.83 120.17 L141.48 120.79 L141.61 121.72 L142.36 122.91 L143.47 124.20 L144.53 125.39 L145.10 126.32 L145.33 127.03 L145.02 127.65 L144.04 128.36 L142.40 129.02 L140.59 129.46 L139.26 129.64 " stroke-linecap='round' stroke-linejoin='round' brush-type='1' stroke-wetness='0.5'></path><path  style = ' stroke:#000000;  fill:none;  stroke-width:1.0;' d="M165.55 119.33 L165.02 119.46 L164.27 119.68 L162.76 120.43 L161.08 121.81 L159.71 123.66 L158.91 125.61 L159.35 127.25 L160.77 128.27 " stroke-linecap='round' stroke-linejoin='round' brush-type='1' stroke-wetness='0.5'></path><path  style = ' stroke:#000000;  fill:none;  stroke-width:1.0;' d="M174.31 122.91 L173.45 122.51 L172.63 122.43 L171.04 122.43 L169.53 123.13 L168.34 124.28 L167.58 125.57 L167.41 126.63 L168.12 127.20 L169.58 126.94 L171.48 125.92 L172.94 124.55 L173.69 123.40 L173.91 122.87 L173.47 123.40 L172.81 124.99 L172.14 127.20 " stroke-linecap='round' stroke-linejoin='round' brush-type='1' stroke-wetness='0.5'></path><path  style = ' stroke:#000000;  fill:none;  stroke-width:1.0;' d="M180.68 121.58 L179.82 121.39 L179.31 121.32 L178.34 121.41 L177.94 121.94 L177.76 122.82 L177.94 123.89 L178.20 124.99 L178.51 126.10 L178.60 127.16 L178.20 128.27 L177.36 129.28 L176.13 130.08 L174.71 130.39 " stroke-linecap='round' stroke-linejoin='round' brush-type='1' stroke-wetness='0.5'></path><path  style = ' stroke:#000000;  fill:none;  stroke-width:1.0;' d="M184.00 124.11 L184.47 124.17 L185.42 124.06 L187.01 123.66 L188.65 122.91 L189.67 121.98 L190.24 121.23 L190.46 120.70 L190.15 120.48 L189.27 120.61 L187.90 121.41 L186.61 122.73 L185.86 124.28 L185.60 125.61 L185.77 126.72 L186.30 127.60 L187.14 128.27 L187.90 128.62 " stroke-linecap='round' stroke-linejoin='round' brush-type='1' stroke-wetness='0.5'></path><path  style = ' stroke:#000000;  fill:none;  stroke-width:1.0;' d="M206.97 131.14 L207.30 130.88 L207.41 130.30 L207.63 128.93 L207.63 126.85 L207.59 124.06 L207.54 120.83 L207.41 117.47 L207.28 114.46 L207.10 112.16 L206.97 110.65 L206.88 109.95 L207.50 109.68 L208.83 109.64 L210.86 109.64 L212.85 109.55 L214.71 109.37 L216.13 109.15 L217.01 109.02 L217.28 109.37 L217.24 110.34 L217.01 111.89 L216.88 113.53 L216.79 114.99 L216.79 116.27 L217.01 117.29 L217.41 117.96 " stroke-linecap='round' stroke-linejoin='round' brush-type='1' stroke-wetness='0.5'></path><path  style = ' stroke:#000000;  fill:none;  stroke-width:1.0;' d="M227.02 109.64 L226.02 110.30 L225.29 111.23 L223.83 113.62 L222.72 116.98 L221.97 120.74 L221.66 124.15 L222.10 126.72 L223.25 128.53 L225.16 129.59 L227.41 130.08 L229.76 129.82 " stroke-linecap='round' stroke-linejoin='round' brush-type='1' stroke-wetness='0.5'></path><path  style = ' stroke:#000000;  fill:none;  stroke-width:1.0;' d="M232.19 113.88 L232.52 114.48 L233.43 115.70 L235.16 117.96 L237.41 120.57 L239.45 122.73 L241.18 124.42 L242.33 125.52 L242.99 126.14 " stroke-linecap='round' stroke-linejoin='round' brush-type='1' stroke-wetness='0.5'></path><path  style = ' stroke:#000000;  fill:none;  stroke-width:1.0;' d="M240.42 113.88 L239.76 114.55 L238.74 115.83 L236.88 118.31 L234.98 121.27 L233.48 123.97 L232.37 126.28 L231.71 128.00 L231.44 129.11 L231.62 129.68 " stroke-linecap='round' stroke-linejoin='round' brush-type='1' stroke-wetness='0.5'></path><path  style = ' stroke:#000000;  fill:none;  stroke-width:1.0;' d="M245.20 108.18 L246.00 108.71 L246.75 109.64 L248.21 111.80 L249.41 114.59 L250.25 117.56 L250.65 120.21 L250.73 122.47 L250.29 124.24 L249.41 125.61 L248.04 126.72 L246.62 127.60 L245.34 128.27 L244.36 128.71 L243.65 128.97 L243.21 129.15 L242.86 129.24 " stroke-linecap='round' stroke-linejoin='round' brush-type='1' stroke-wetness='0.5'></path><path  style = ' stroke:#000000;  fill:none;  stroke-width:1.0;' d="M255.16 119.59 L255.62 119.46 L256.58 119.37 L258.35 119.15 L260.43 118.93 L262.20 118.66 L263.70 118.40 L264.81 118.22 " stroke-linecap='round' stroke-linejoin='round' brush-type='1' stroke-wetness='0.5'></path><path  style = ' stroke:#000000;  fill:none;  stroke-width:1.0;' d="M258.35 122.65 L258.74 122.71 L259.59 122.73 L261.36 122.73 L263.75 122.56 L265.69 122.29 " stroke-linecap='round' stroke-linejoin='round' brush-type='1' stroke-wetness='0.5'></path><path  style = ' stroke:#000000;  fill:none;  stroke-width:1.0;' d="M274.01 110.03 L274.14 110.96 L274.19 112.56 L274.32 115.48 L274.45 118.75 L274.63 121.50 L274.81 123.71 L274.94 125.26 L275.07 126.14 L275.21 126.54 " stroke-linecap='round' stroke-linejoin='round' brush-type='1' stroke-wetness='0.5'></path><path  style = ' stroke:#000000;  fill:none;  stroke-width:1.0;' d="M281.45 113.88 L280.78 114.08 L280.12 114.55 L278.70 115.52 L277.20 116.81 L275.69 118.09 L274.41 119.15 L273.66 119.86 L273.35 120.30 L273.35 120.79 L273.79 121.45 L274.76 122.29 L276.18 123.09 L277.51 123.80 L278.61 124.28 L279.41 124.64 L280.03 124.90 L280.38 125.12 L280.69 125.35 L280.87 125.52 L281.27 125.74 " stroke-linecap='round' stroke-linejoin='round' brush-type='1' stroke-wetness='0.5'></path><path  style = ' stroke:#000000;  fill:none;  stroke-width:1.0;' d="M288.08 125.17 L288.75 124.24 L289.23 123.89 L289.99 123.27 L290.30 123.53 L290.12 124.24 L289.63 125.12 L288.92 125.88 L288.35 126.23 L288.04 125.79 " stroke-linecap='round' stroke-linejoin='round' brush-type='1' stroke-wetness='0.5'></path><path  style = ' stroke:#000000;  fill:none;  stroke-width:1.0;' d="M76.07 137.25 L74.08 138.38 L72.35 139.77 L69.70 142.07 L68.33 143.98 L68.02 145.08 L68.33 145.97 L69.34 146.81 L71.11 147.83 L73.06 149.02 L74.65 150.44 L75.54 151.94 L75.80 153.49 L75.27 155.00 L74.17 156.46 L72.71 157.78 L71.47 158.85 L70.67 159.46 " stroke-linecap='round' stroke-linejoin='round' brush-type='1' stroke-wetness='0.5'></path><path  style = ' stroke:#000000;  fill:none;  stroke-width:1.0;' d="M82.58 150.26 L82.04 150.92 L81.20 152.21 L79.92 154.60 L78.95 157.30 L78.64 159.29 L79.04 160.48 L80.10 160.84 L81.78 160.26 L83.46 158.85 L84.66 156.85 L85.23 154.91 L84.92 153.14 L83.95 151.68 L82.66 150.57 L81.60 149.99 L81.03 149.77 " stroke-linecap='round' stroke-linejoin='round' brush-type='1' stroke-wetness='0.5'></path><path  style = ' stroke:#000000;  fill:none;  stroke-width:1.0;' d="M115.90 140.44 L115.03 139.97 L114.48 139.82 L113.24 139.51 L112.18 139.60 L111.12 139.99 L110.28 140.88 L109.83 142.43 L109.79 144.55 L110.28 147.21 L111.07 150.04 L111.87 152.78 L112.40 155.08 L112.62 156.85 L112.71 158.09 " stroke-linecap='round' stroke-linejoin='round' brush-type='1' stroke-wetness='0.5'></path><path  style = ' stroke:#000000;  fill:none;  stroke-width:1.0;' d="M112.45 148.93 L112.98 148.73 L113.82 148.67 L115.41 148.62 " stroke-linecap='round' stroke-linejoin='round' brush-type='1' stroke-wetness='0.5'></path><path  style = ' stroke:#000000;  fill:none;  stroke-width:1.0;' d="M118.55 149.46 L118.02 150.06 L117.58 150.92 L116.92 152.65 L116.61 154.55 L117.00 155.97 L118.15 156.68 L119.88 156.28 L121.43 155.17 L122.31 153.71 L122.54 152.38 L122.05 151.41 L121.12 150.75 L120.01 150.57 L119.30 151.23 " stroke-linecap='round' stroke-linejoin='round' brush-type='1' stroke-wetness='0.5'></path><path  style = ' stroke:#000000;  fill:none;  stroke-width:1.0;' d="M126.65 156.23 L126.32 155.11 L126.08 153.67 L125.72 151.15 L125.59 148.84 L125.72 147.34 L126.39 146.50 L127.80 146.23 L130.24 146.76 L132.67 147.78 " stroke-linecap='round' stroke-linejoin='round' brush-type='1' stroke-wetness='0.5'></path><path  style = ' stroke:#000000;  fill:none;  stroke-width:1.0;' d="M143.38 150.66 L142.18 150.86 L141.17 151.19 L139.35 151.99 L138.07 153.05 L137.36 154.15 L137.09 155.04 L137.80 155.35 L139.31 154.69 L141.12 153.27 L142.36 151.81 L142.85 151.15 L142.76 152.07 L142.49 153.98 L142.23 156.32 " stroke-linecap='round' stroke-linejoin='round' brush-type='1' stroke-wetness='0.5'></path><path  style = ' stroke:#000000;  fill:none;  stroke-width:1.0;' d="M149.22 144.29 L149.09 145.48 L149.04 147.03 L148.95 150.17 L148.95 153.45 L148.95 156.28 " stroke-linecap='round' stroke-linejoin='round' brush-type='1' stroke-wetness='0.5'></path><path  style = ' stroke:#000000;  fill:none;  stroke-width:1.0;' d="M152.01 143.22 L152.21 144.42 L152.27 146.45 L152.41 149.99 L152.41 153.80 L152.58 156.68 L153.11 158.62 " stroke-linecap='round' stroke-linejoin='round' brush-type='1' stroke-wetness='0.5'></path><path  style = ' stroke:#000000;  fill:none;  stroke-width:1.0;' d="M167.81 139.77 L167.74 140.30 L167.72 142.07 L167.72 145.57 L167.81 150.22 L167.89 154.51 L167.98 158.09 L168.20 160.57 L168.56 161.85 " stroke-linecap='round' stroke-linejoin='round' brush-type='1' stroke-wetness='0.5'></path><path  style = ' stroke:#000000;  fill:none;  stroke-width:1.0;' d="M174.44 148.14 L173.65 148.53 L172.94 148.89 L171.52 149.86 L170.24 151.06 L169.18 152.38 L168.51 153.58 L168.25 154.69 L168.65 155.70 L169.75 156.63 L171.66 157.30 L174.22 157.74 " stroke-linecap='round' stroke-linejoin='round' brush-type='1' stroke-wetness='0.5'></path><path  style = ' stroke:#000000;  fill:none;  stroke-width:1.0;' d="M177.23 153.71 L177.70 153.65 L178.43 153.62 L180.28 153.49 L182.23 153.31 " stroke-linecap='round' stroke-linejoin='round' brush-type='1' stroke-wetness='0.5'></path><path  style = ' stroke:#000000;  fill:none;  stroke-width:1.0;' d="M190.77 151.72 L189.38 151.72 L188.43 151.81 L186.66 152.16 L185.60 153.00 L184.98 154.29 L184.75 155.70 L185.24 156.81 L186.39 157.38 L188.12 157.07 L189.71 156.06 L190.82 154.42 L191.35 152.87 L191.52 151.94 L191.30 152.52 L190.99 154.11 L190.68 156.01 L190.68 157.12 " stroke-linecap='round' stroke-linejoin='round' brush-type='1' stroke-wetness='0.5'></path><path  style = ' stroke:#000000;  fill:none;  stroke-width:1.0;' d="M195.68 139.37 L195.82 140.30 L195.86 141.63 L195.95 144.64 L195.95 148.49 L195.95 152.52 L195.95 156.06 L195.95 158.67 L196.22 160.22 " stroke-linecap='round' stroke-linejoin='round' brush-type='1' stroke-wetness='0.5'></path><path  style = ' stroke:#000000;  fill:none;  stroke-width:1.0;' d="M203.65 151.99 L202.72 151.32 L201.75 151.41 L200.02 151.85 L198.74 153.36 L198.12 155.08 L198.03 156.46 L198.65 157.25 L199.80 157.38 L201.26 156.77 L202.41 155.57 L203.07 153.93 L203.34 152.30 L203.38 151.01 L203.34 150.35 L203.30 150.97 L203.25 153.00 L203.25 156.37 L203.21 160.04 L202.94 163.23 L202.32 165.53 L201.35 167.08 L200.02 168.09 L198.43 168.62 L196.39 168.62 L194.27 167.74 L192.54 166.41 " stroke-linecap='round' stroke-linejoin='round' brush-type='1' stroke-wetness='0.5'></path><path  style = ' stroke:#000000;  fill:none;  stroke-width:1.0;' d="M216.53 159.55 L216.66 158.89 L216.75 157.74 L217.15 155.53 L217.77 152.74 L218.61 149.82 L219.40 146.72 L220.07 143.84 L220.51 141.59 L220.82 140.26 L221.00 139.73 L221.44 139.95 L222.10 141.41 L222.99 144.29 L223.74 148.05 L224.36 151.54 L224.85 154.20 L225.29 156.01 L225.64 157.21 L225.86 157.96 L225.95 158.45 " stroke-linecap='round' stroke-linejoin='round' brush-type='1' stroke-wetness='0.5'></path><path  style = ' stroke:#000000;  fill:none;  stroke-width:1.0;' d="M218.92 151.85 L218.92 151.59 L219.54 151.50 L221.04 151.32 L223.52 151.32 " stroke-linecap='round' stroke-linejoin='round' brush-type='1' stroke-wetness='0.5'></path><path  style = ' stroke:#000000;  fill:none;  stroke-width:1.0;' d="M236.31 156.50 L236.44 155.77 L236.53 155.17 L236.71 154.29 L236.84 154.29 " stroke-linecap='round' stroke-linejoin='round' brush-type='1' stroke-wetness='0.5'></path><path  style = ' stroke:#000000;  fill:none;  stroke-width:1.0;' d="M258.48 134.73 L258.28 135.19 L258.17 136.72 L257.82 139.99 L257.42 144.55 L256.97 148.98 L256.66 152.78 L256.53 155.57 L256.49 157.38 L256.49 158.36 L256.75 158.62 L257.28 158.05 " stroke-linecap='round' stroke-linejoin='round' brush-type='1' stroke-wetness='0.5'></path><path  style = ' stroke:#000000;  fill:none;  stroke-width:1.0;' d="M261.93 138.31 L262.00 138.58 L262.02 140.13 L262.06 143.49 L262.06 148.14 L262.06 152.38 L262.06 155.61 L262.06 157.69 " stroke-linecap='round' stroke-linejoin='round' brush-type='1' stroke-wetness='0.5'></path><path  style = ' stroke:#000000;  fill:none;  stroke-width:1.0;' d="M258.21 149.20 L258.81 149.26 L259.67 149.29 L261.80 149.33 L264.01 149.33 " stroke-linecap='round' stroke-linejoin='round' brush-type='1' stroke-wetness='0.5'></path><path  style = ' stroke:#000000;  fill:none;  stroke-width:1.0;' d="M272.82 148.53 L271.89 148.73 L271.22 149.07 L269.98 150.04 L269.28 151.59 L268.92 153.53 L269.19 155.30 L270.29 156.41 L272.06 156.46 L273.97 155.53 L275.25 153.98 L275.83 152.16 L275.47 150.30 L274.59 148.67 L273.44 147.65 L272.51 147.30 L271.98 148.09 L271.80 149.37 " stroke-linecap='round' stroke-linejoin='round' brush-type='1' stroke-wetness='0.5'></path><path  style = ' stroke:#000000;  fill:none;  stroke-width:1.0;' d="M278.13 154.91 L277.99 153.58 L278.08 152.21 L278.44 149.95 L279.23 148.45 L280.21 147.87 L281.18 148.27 L281.89 149.60 L282.33 151.68 L282.46 153.71 L282.51 155.04 L282.51 155.66 L282.51 154.91 L282.73 153.14 L283.30 150.66 L284.19 148.84 L285.12 147.96 L285.92 148.05 L286.54 149.02 L286.98 150.92 L287.20 153.27 L287.33 155.61 L287.42 157.25 " stroke-linecap='round' stroke-linejoin='round' brush-type='1' stroke-wetness='0.5'></path><path  style = ' stroke:#000000;  fill:none;  stroke-width:1.0;' d="M294.99 153.31 L294.26 153.38 L293.66 153.40 L292.69 153.53 L292.20 153.71 L292.07 154.15 L292.29 154.82 L292.82 155.84 L293.48 156.90 L293.97 157.96 L294.15 158.89 L293.93 159.82 L293.31 160.62 L292.24 161.15 L291.23 161.37 " stroke-linecap='round' stroke-linejoin='round' brush-type='1' stroke-wetness='0.5'></path><path  style = ' stroke:#000000;  fill:none;  stroke-width:1.0;' d="M301.49 156.50 L300.43 156.77 L299.72 157.07 L298.31 157.87 L297.42 158.93 L296.85 160.17 L296.62 161.28 L296.80 162.12 L297.60 162.61 L299.01 162.74 L300.65 162.25 L301.89 161.46 " stroke-linecap='round' stroke-linejoin='round' brush-type='1' stroke-wetness='0.5'></path><path  style = ' stroke:#000000;  fill:none;  stroke-width:1.0;' d="M302.95 149.99 L303.22 150.33 L303.31 151.72 L303.48 154.33 L303.48 157.61 L303.48 160.17 L303.48 161.77 L303.48 162.52 L303.48 162.43 L303.66 161.72 L304.06 160.66 L304.68 159.73 L305.21 159.29 L305.65 159.24 L305.92 159.69 L306.18 160.48 L306.32 161.50 L306.49 162.39 L306.67 162.96 " stroke-linecap='round' stroke-linejoin='round' brush-type='1' stroke-wetness='0.5'></path><path  style = ' stroke:#000000;  fill:none;  stroke-width:1.0;' d="M306.94 166.59 L307.27 165.86 L307.82 164.69 L309.06 162.30 L310.70 159.38 L312.47 156.50 L314.02 154.02 L315.08 152.38 L315.56 151.72 L315.70 151.81 " stroke-linecap='round' stroke-linejoin='round' brush-type='1' stroke-wetness='0.5'></path><path  style = ' stroke:#000000;  fill:none;  stroke-width:1.0;' d="M316.36 157.03 L316.43 158.03 L316.45 159.02 L316.49 161.06 L316.45 163.09 L316.41 165.04 L316.36 166.72 L316.36 168.05 L316.36 168.85 " stroke-linecap='round' stroke-linejoin='round' brush-type='1' stroke-wetness='0.5'></path><path  style = ' stroke:#000000;  fill:none;  stroke-width:1.0;' d="M322.73 159.55 L322.00 159.55 L321.32 159.64 L320.03 160.04 L318.97 160.70 L318.18 161.50 L317.69 162.08 L317.47 162.52 L317.42 162.92 L317.69 163.36 L318.22 163.80 L319.10 164.16 L319.99 164.47 L320.83 164.73 L321.49 165.00 L321.94 165.17 " stroke-linecap='round' stroke-linejoin='round' brush-type='1' stroke-wetness='0.5'></path><path  style = ' stroke:#000000;  fill:none;  stroke-width:1.0;' d="M333.09 130.21 L332.56 130.35 L331.54 131.28 L329.68 133.49 L327.69 137.25 L326.27 141.90 L325.48 146.68 L325.17 150.92 L325.43 154.15 L326.23 156.50 L327.60 158.05 L329.24 158.98 L330.83 159.46 " stroke-linecap='round' stroke-linejoin='round' brush-type='1' stroke-wetness='0.5'></path><path  style = ' stroke:#000000;  fill:none;  stroke-width:1.0;' d="M336.27 139.11 L336.87 139.97 L337.91 141.85 L339.86 145.26 L342.16 149.33 L344.24 152.65 L346.10 155.26 L347.52 156.90 L348.44 157.74 L348.93 158.05 " stroke-linecap='round' stroke-linejoin='round' brush-type='1' stroke-wetness='0.5'></path><path  style = ' stroke:#000000;  fill:none;  stroke-width:1.0;' d="M346.76 140.04 L346.17 140.77 L345.48 141.90 L343.84 144.64 L341.85 148.27 L339.77 152.03 L338.05 155.17 L336.94 157.38 L336.41 158.76 " stroke-linecap='round' stroke-linejoin='round' brush-type='1' stroke-wetness='0.5'></path><path  style = ' stroke:#000000;  fill:none;  stroke-width:1.0;' d="M354.33 155.04 L353.93 156.10 L353.36 157.30 L352.16 159.33 L350.79 161.01 L349.64 162.08 " stroke-linecap='round' stroke-linejoin='round' brush-type='1' stroke-wetness='0.5'></path><path  style = ' stroke:#000000;  fill:none;  stroke-width:1.0;' d="M367.87 140.17 L366.81 140.70 L365.66 141.68 L363.80 143.45 L362.52 145.30 L362.03 146.81 L362.16 148.14 L363.05 149.33 L364.46 150.35 L365.88 151.15 L366.72 151.99 L367.03 153.00 L366.50 154.33 L365.30 155.88 L363.49 157.47 L361.90 158.89 " stroke-linecap='round' stroke-linejoin='round' brush-type='1' stroke-wetness='0.5'></path><path  style = ' stroke:#000000;  fill:none;  stroke-width:1.0;' d="M370.66 163.27 L370.59 162.08 L370.48 160.62 L370.35 157.52 L370.26 154.11 L370.44 151.06 L370.92 148.89 L371.77 147.83 L372.74 147.47 L373.54 147.91 L374.02 148.93 L374.20 150.61 L373.93 152.43 L373.23 154.11 L372.12 155.39 L371.15 156.23 " stroke-linecap='round' stroke-linejoin='round' brush-type='1' stroke-wetness='0.5'></path><path  style = ' stroke:#000000;  fill:none;  stroke-width:1.0;' d="M374.24 153.98 L375.04 154.24 L375.62 154.33 L376.85 154.46 L378.01 154.11 L379.16 153.40 L380.04 152.34 L380.48 151.32 L380.35 150.57 L379.60 150.22 L378.31 150.48 L376.77 151.54 L375.39 153.31 L374.51 155.35 L374.20 157.12 L374.82 158.49 L376.46 159.24 " stroke-linecap='round' stroke-linejoin='round' brush-type='1' stroke-wetness='0.5'></path><path  style = ' stroke:#000000;  fill:none;  stroke-width:1.0;' d="M388.85 151.19 L388.05 151.12 L387.03 151.50 L385.17 152.43 L383.54 153.98 L382.56 155.66 L382.16 157.16 L382.47 158.36 L383.71 159.07 L385.53 159.38 " stroke-linecap='round' stroke-linejoin='round' brush-type='1' stroke-wetness='0.5'></path><path  style = ' stroke:#000000;  fill:none;  stroke-width:1.0;' d="M396.95 141.63 L396.21 142.03 L395.35 142.74 L393.67 144.60 L391.86 147.74 L390.40 151.50 L389.47 155.17 L389.38 158.00 L390.13 160.04 L391.72 161.37 L393.40 161.99 " stroke-linecap='round' stroke-linejoin='round' brush-type='1' stroke-wetness='0.5'></path><path  style = ' stroke:#000000;  fill:none;  stroke-width:1.0;' d="M396.02 162.08 L396.68 159.09 L397.03 157.12 L397.79 153.18 L398.32 150.30 L398.89 147.74 L399.38 145.88 L399.73 144.91 L400.04 144.73 L400.49 145.61 L401.02 147.60 L401.59 150.48 L402.08 153.27 L402.57 155.44 L402.92 156.81 L403.18 157.52 " stroke-linecap='round' stroke-linejoin='round' brush-type='1' stroke-wetness='0.5'></path><path  style = ' stroke:#000000;  fill:none;  stroke-width:1.0;' d="M397.21 151.99 L397.48 151.99 L398.41 151.99 L400.26 151.99 L402.70 151.99 " stroke-linecap='round' stroke-linejoin='round' brush-type='1' stroke-wetness='0.5'></path><path  style = ' stroke:#000000;  fill:none;  stroke-width:1.0;' d="M407.30 142.83 L408.10 144.09 L408.54 145.35 L409.38 147.87 L409.69 150.61 L409.78 153.40 L409.42 155.97 L408.72 157.87 L407.65 159.11 L406.42 159.77 " stroke-linecap='round' stroke-linejoin='round' brush-type='1' stroke-wetness='0.5'></path><path  style = ' stroke:#000000;  fill:none;  stroke-width:1.0;' d="M410.88 133.93 L411.75 134.86 L412.57 136.36 L413.98 139.20 L414.91 142.56 L415.31 145.75 L415.31 148.80 L414.91 151.50 L414.16 153.76 L413.14 155.57 L412.08 156.81 L411.15 157.61 L410.44 157.96 L409.87 158.05 " stroke-linecap='round' stroke-linejoin='round' brush-type='1' stroke-wetness='0.5'></path><path  style = ' stroke:#000000;  fill:none;  stroke-width:1.0;' d="M424.16 144.02 L424.89 144.09 L426.02 144.11 L428.19 144.15 L430.67 144.15 L432.92 144.15 L434.60 144.15 " stroke-linecap='round' stroke-linejoin='round' brush-type='1' stroke-wetness='0.5'></path><path  style = ' stroke:#000000;  fill:none;  stroke-width:1.0;' d="M425.36 149.07 L425.89 149.26 L426.51 149.33 L428.10 149.46 L430.22 149.46 L432.79 149.46 L434.87 149.46 " stroke-linecap='round' stroke-linejoin='round' brush-type='1' stroke-wetness='0.5'></path><path  style = ' stroke:#000000;  fill:none;  stroke-width:1.0;' d="M441.95 137.12 L441.95 137.91 L441.95 139.15 L441.95 142.34 L441.95 146.59 L441.99 151.06 L442.08 154.69 L442.26 156.99 " stroke-linecap='round' stroke-linejoin='round' brush-type='1' stroke-wetness='0.5'></path><path  style = ' stroke:#000000;  fill:none;  stroke-width:1.0;' d="M448.32 140.57 L448.19 141.43 L448.15 143.27 L448.06 146.63 L448.06 150.48 L448.23 153.71 L448.46 155.97 " stroke-linecap='round' stroke-linejoin='round' brush-type='1' stroke-wetness='0.5'></path><path  style = ' stroke:#000000;  fill:none;  stroke-width:1.0;' d="M442.88 149.20 L443.21 149.26 L443.99 149.29 L445.80 149.33 L447.84 149.33 " stroke-linecap='round' stroke-linejoin='round' brush-type='1' stroke-wetness='0.5'></path><path  style = ' stroke:#000000;  fill:none;  stroke-width:1.0;' d="M456.42 149.46 L455.42 149.73 L454.69 150.53 L453.50 152.03 L452.97 153.93 L452.92 155.53 L453.50 156.54 L454.61 156.77 L456.02 155.97 L457.13 154.51 L457.70 152.65 L457.66 150.92 L457.13 149.51 L456.38 148.67 L455.76 148.36 L455.45 148.93 L455.45 149.95 " stroke-linecap='round' stroke-linejoin='round' brush-type='1' stroke-wetness='0.5'></path><path  style = ' stroke:#000000;  fill:none;  stroke-width:1.0;' d="M461.47 157.43 L460.93 156.43 L460.71 155.08 L460.31 152.56 L460.31 150.08 L460.62 148.40 L461.29 147.56 L462.22 147.56 L463.06 148.53 L463.68 150.30 L463.99 152.47 L464.12 154.07 L464.12 154.82 L464.16 154.29 L464.30 152.74 L464.78 150.53 L465.54 148.76 L466.51 147.83 L467.35 147.91 L467.97 148.93 L468.32 150.88 L468.46 153.36 L468.55 155.88 L468.63 157.74 " stroke-linecap='round' stroke-linejoin='round' brush-type='1' stroke-wetness='0.5'></path><path  style = ' stroke:#000000;  fill:none;  stroke-width:1.0;' d="M473.28 154.38 L473.08 154.97 L473.02 156.10 L472.88 158.18 L472.88 160.57 " stroke-linecap='round' stroke-linejoin='round' brush-type='1' stroke-wetness='0.5'></path><path  style = ' stroke:#000000;  fill:none;  stroke-width:1.0;' d="M477.13 157.69 L476.40 157.69 L475.58 157.92 L474.25 158.36 L473.24 159.07 L472.79 159.73 L472.62 160.35 L472.88 160.84 L473.72 161.23 L475.10 161.46 L476.38 161.54 " stroke-linecap='round' stroke-linejoin='round' brush-type='1' stroke-wetness='0.5'></path><path  style = ' stroke:#000000;  fill:none;  stroke-width:1.0;' d="M478.06 158.89 L478.59 158.89 L479.17 158.89 L480.45 158.89 L481.87 158.89 " stroke-linecap='round' stroke-linejoin='round' brush-type='1' stroke-wetness='0.5'></path><path  style = ' stroke:#000000;  fill:none;  stroke-width:1.0;' d="M485.23 154.91 L485.43 155.90 L485.49 157.12 L485.63 159.33 L485.80 161.46 L486.07 162.96 " stroke-linecap='round' stroke-linejoin='round' brush-type='1' stroke-wetness='0.5'></path><path  style = ' stroke:#000000;  fill:none;  stroke-width:1.0;' d="M490.67 158.23 L489.68 158.96 L489.30 159.60 L488.59 160.66 L488.72 161.28 L489.21 161.37 L489.96 160.84 L490.67 159.95 L491.11 159.02 L491.29 158.58 L491.34 159.07 L491.38 160.13 L491.60 161.23 " stroke-linecap='round' stroke-linejoin='round' brush-type='1' stroke-wetness='0.5'></path><path  style = ' stroke:#000000;  fill:none;  stroke-width:1.0;' d="M497.58 157.30 L496.51 157.43 L496.12 158.00 L495.36 158.93 L495.45 159.86 L495.85 160.31 L496.38 160.44 L496.87 160.31 L497.13 159.77 L497.27 158.85 L497.31 157.78 L497.31 156.99 L497.27 156.59 L497.22 157.03 L497.18 158.23 L497.18 160.04 L496.96 161.81 L496.51 163.31 L495.81 164.51 L494.92 165.53 L493.77 166.37 L492.49 166.94 L491.16 167.21 L490.10 167.08 " stroke-linecap='round' stroke-linejoin='round' brush-type='1' stroke-wetness='0.5'></path><path  style = ' stroke:#000000;  fill:none;  stroke-width:1.0;' d="M506.60 133.40 L506.01 134.06 L505.28 135.17 L503.81 137.96 L502.27 141.98 L500.98 146.59 L500.19 150.84 L500.05 154.24 L500.81 156.77 L502.44 158.49 L504.83 159.46 L507.13 159.86 " stroke-linecap='round' stroke-linejoin='round' brush-type='1' stroke-wetness='0.5'></path><path  style = ' stroke:#000000;  fill:none;  stroke-width:1.0;' d="M513.24 158.36 L513.37 157.89 L513.55 157.16 L514.21 155.30 L515.19 152.61 L516.47 149.20 L517.53 145.66 L518.42 142.38 L518.91 139.99 L519.26 138.62 L519.44 138.13 L519.70 139.42 L520.01 142.43 L520.28 146.81 L520.45 150.92 L520.59 154.20 L520.76 156.54 L520.98 157.96 " stroke-linecap='round' stroke-linejoin='round' brush-type='1' stroke-wetness='0.5'></path><path  style = ' stroke:#000000;  fill:none;  stroke-width:1.0;' d="M517.49 151.59 L518.35 151.59 L519.21 151.59 L521.07 151.76 L523.11 152.30 " stroke-linecap='round' stroke-linejoin='round' brush-type='1' stroke-wetness='0.5'></path><path  style = ' stroke:#000000;  fill:none;  stroke-width:1.0;' d="M528.77 158.36 L528.18 159.29 L527.49 160.00 L526.12 161.28 L524.70 162.03 L523.33 162.39 " stroke-linecap='round' stroke-linejoin='round' brush-type='1' stroke-wetness='0.5'></path><path  style = ' stroke:#000000;  fill:none;  stroke-width:1.0;' d="M538.60 137.65 L538.53 138.11 L538.51 139.64 L538.55 142.65 L538.73 146.59 L538.91 150.17 L539.00 153.18 L539.00 155.53 L539.00 157.21 L539.00 158.27 " stroke-linecap='round' stroke-linejoin='round' brush-type='1' stroke-wetness='0.5'></path><path  style = ' stroke:#000000;  fill:none;  stroke-width:1.0;' d="M544.44 148.14 L543.51 148.34 L542.67 148.53 L541.08 149.02 L539.84 149.68 L539.00 150.57 L538.60 151.59 L538.69 152.65 L539.53 153.62 L541.03 154.38 L542.93 154.82 L544.75 155.04 L546.21 155.13 L547.14 155.17 " stroke-linecap='round' stroke-linejoin='round' brush-type='1' stroke-wetness='0.5'></path><path  style = ' stroke:#000000;  fill:none;  stroke-width:1.0;' d="M550.55 135.39 L551.08 136.12 L551.78 137.74 L552.98 140.52 L553.95 143.75 L554.44 146.41 L554.48 148.89 L553.86 151.10 L552.67 153.14 L550.99 154.91 L549.22 156.23 L547.71 156.99 " stroke-linecap='round' stroke-linejoin='round' brush-type='1' stroke-wetness='0.5'></path><path  style = ' stroke:#000000;  fill:none;  stroke-width:1.0;' d="M55.63 172.17 L56.36 171.90 L57.35 171.81 L59.56 171.63 L62.40 171.59 L65.67 171.46 L68.90 171.19 L71.73 170.93 L73.81 170.70 " stroke-linecap='round' stroke-linejoin='round' brush-type='1' stroke-wetness='0.5'></path><path  style = ' stroke:#000000;  fill:none;  stroke-width:1.0;' d="M64.79 171.90 L64.92 172.63 L64.96 173.71 L65.05 176.10 L65.05 179.33 L65.01 182.79 L64.96 186.10 L64.92 188.49 " stroke-linecap='round' stroke-linejoin='round' brush-type='1' stroke-wetness='0.5'></path><path  style = ' stroke:#000000;  fill:none;  stroke-width:1.0;' d="M77.66 174.42 L77.66 175.42 L77.66 177.48 L77.57 180.88 L77.44 184.38 L77.26 186.37 L77.18 187.39 L77.18 187.30 L77.62 186.24 L78.50 184.51 L79.61 182.92 L80.45 182.08 L80.94 182.30 L81.20 183.41 L81.34 185.26 L81.42 187.26 " stroke-linecap='round' stroke-linejoin='round' brush-type='1' stroke-wetness='0.5'></path><path  style = ' stroke:#000000;  fill:none;  stroke-width:1.0;' d="M86.03 182.25 L86.16 182.98 L86.20 183.98 L86.34 185.57 L86.69 186.90 L87.53 187.48 L88.90 187.17 L90.45 185.88 L91.78 183.98 L92.66 182.39 L93.06 181.50 L93.20 181.59 L93.20 182.65 L93.15 184.47 L93.11 186.24 " stroke-linecap='round' stroke-linejoin='round' brush-type='1' stroke-wetness='0.5'></path><path  style = ' stroke:#000000;  fill:none;  stroke-width:1.0;' d="M100.63 181.06 L99.83 181.19 L99.13 181.55 L98.02 182.25 L97.44 183.23 L97.36 184.25 L97.71 185.26 L98.42 186.10 L99.26 186.77 L99.88 187.21 L100.14 187.56 L99.92 187.92 L99.04 188.36 L97.53 188.80 L95.90 189.16 L94.26 189.51 " stroke-linecap='round' stroke-linejoin='round' brush-type='1' stroke-wetness='0.5'></path><path  style = ' stroke:#000000;  fill:none;  stroke-width:1.0;' d="M122.40 181.86 L121.34 181.99 L119.92 182.39 L117.71 183.27 L115.90 184.51 L115.10 185.71 L114.79 186.55 L115.45 186.90 L116.83 186.33 L118.64 185.09 L120.01 183.63 L120.77 182.79 L121.03 183.36 L120.94 184.95 L120.81 187.17 L120.68 188.85 L120.72 189.78 " stroke-linecap='round' stroke-linejoin='round' brush-type='1' stroke-wetness='0.5'></path><path  style = ' stroke:#000000;  fill:none;  stroke-width:1.0;' d="M127.45 175.62 L127.38 176.55 L127.27 177.87 L126.92 180.40 L126.39 183.23 L125.85 185.71 L125.54 187.48 " stroke-linecap='round' stroke-linejoin='round' brush-type='1' stroke-wetness='0.5'></path><path  style = ' stroke:#000000;  fill:none;  stroke-width:1.0;' d="M130.37 173.49 L130.50 174.36 L130.54 176.06 L130.63 179.42 L130.63 183.45 L130.63 187.03 L130.63 189.64 " stroke-linecap='round' stroke-linejoin='round' brush-type='1' stroke-wetness='0.5'></path><path  style = ' stroke:#000000;  fill:none;  stroke-width:1.0;' d="M145.24 188.76 L144.84 188.10 L144.66 187.17 L144.31 185.31 L144.22 183.23 L144.35 181.37 L144.93 180.04 L145.99 179.38 L147.18 179.64 L148.11 180.79 L148.56 182.70 L148.69 184.60 L148.64 185.93 L148.56 186.55 L148.51 185.79 L149.00 184.20 L149.97 182.12 L151.12 180.97 L151.92 180.79 L152.32 181.86 L152.49 183.76 L152.54 186.19 L152.54 188.36 L152.63 189.82 " stroke-linecap='round' stroke-linejoin='round' brush-type='1' stroke-wetness='0.5'></path><path  style = ' stroke:#000000;  fill:none;  stroke-width:1.0;' d="M161.03 181.99 L160.50 182.59 L160.02 183.49 L159.09 185.31 L158.42 187.30 L158.07 188.89 L158.42 189.82 L159.62 189.69 L161.34 188.49 L162.81 186.59 L163.51 184.60 L163.60 183.05 L163.20 182.12 L162.50 181.81 L161.65 182.48 L161.08 184.20 " stroke-linecap='round' stroke-linejoin='round' brush-type='1' stroke-wetness='0.5'></path><path  style = ' stroke:#000000;  fill:none;  stroke-width:1.0;' d="M166.21 191.02 L165.68 189.69 L165.28 188.18 L164.66 185.84 L164.40 184.11 L164.53 183.36 L165.24 183.01 L166.65 183.18 L168.25 183.76 L170.24 186.02 " stroke-linecap='round' stroke-linejoin='round' brush-type='1' stroke-wetness='0.5'></path><path  style = ' stroke:#000000;  fill:none;  stroke-width:1.0;' d="M170.33 199.78 L170.20 199.25 L170.15 198.19 L170.02 195.88 L169.93 192.70 L169.84 189.20 L169.89 185.93 L170.37 183.41 L171.30 182.03 L172.45 181.59 L173.34 182.21 L173.78 183.63 L173.74 185.62 L173.07 187.56 L172.01 188.98 L170.68 189.78 " stroke-linecap='round' stroke-linejoin='round' brush-type='1' stroke-wetness='0.5'></path><path  style = ' stroke:#000000;  fill:none;  stroke-width:1.0;' d="M178.03 175.09 L178.23 176.08 L178.29 177.39 L178.43 180.00 L178.34 182.79 L178.20 185.22 L178.07 186.95 L178.07 187.92 L178.43 188.05 L179.18 187.17 L180.28 185.44 L181.39 183.54 L182.28 182.34 L182.94 182.52 L183.34 184.29 L183.56 186.77 L183.60 188.85 " stroke-linecap='round' stroke-linejoin='round' brush-type='1' stroke-wetness='0.5'></path><path  style = ' stroke:#000000;  fill:none;  stroke-width:1.0;' d="M190.77 182.12 L190.97 183.32 L191.04 184.87 L191.17 187.34 L191.17 189.34 " stroke-linecap='round' stroke-linejoin='round' brush-type='1' stroke-wetness='0.5'></path><path  style = ' stroke:#000000;  fill:none;  stroke-width:1.0;' d="M198.21 181.86 L197.14 182.12 L196.48 182.30 L195.24 182.83 L194.71 183.54 L194.49 184.51 L194.89 185.53 L195.64 186.46 L196.53 187.21 L197.01 187.92 L197.06 188.63 L196.48 189.42 L195.37 190.13 L193.91 190.62 L192.76 190.84 " stroke-linecap='round' stroke-linejoin='round' brush-type='1' stroke-wetness='0.5'></path><path  style = ' stroke:#000000;  fill:none;  stroke-width:1.0;' d="M201.26 188.89 L201.13 187.96 L201.08 186.68 L201.26 184.33 L201.97 182.12 L203.03 180.79 L204.27 180.22 L205.29 180.66 L206.08 181.94 L206.44 183.89 L206.57 185.79 L206.57 187.03 L206.57 187.65 L206.57 187.39 L206.66 186.33 L207.15 184.56 L208.08 182.96 L209.23 182.08 L210.20 182.03 L210.86 182.70 L211.31 183.98 L211.53 185.57 L211.62 187.17 L211.62 188.49 L211.53 189.47 L211.39 190.00 " stroke-linecap='round' stroke-linejoin='round' brush-type='1' stroke-wetness='0.5'></path><path  style = ' stroke:#000000;  fill:none;  stroke-width:1.0;' d="M224.49 173.23 L224.82 173.69 L225.91 175.22 L227.72 177.96 L229.89 181.50 L231.57 184.51 L232.95 187.12 L233.96 189.03 L234.58 190.31 L234.94 190.97 " stroke-linecap='round' stroke-linejoin='round' brush-type='1' stroke-wetness='0.5'></path><path  style = ' stroke:#000000;  fill:none;  stroke-width:1.0;' d="M234.85 170.57 L234.58 171.04 L234.23 171.90 L233.30 173.98 L231.88 176.86 L230.11 180.09 L228.30 183.01 L226.75 185.40 L225.56 187.03 L224.76 188.10 " stroke-linecap='round' stroke-linejoin='round' brush-type='1' stroke-wetness='0.5'></path><path  style = ' stroke:#000000;  fill:none;  stroke-width:1.0;' d="M242.42 180.93 L242.95 180.93 L244.23 180.93 L246.75 180.93 L250.16 180.93 L253.48 180.93 L256.58 180.88 L259.01 180.75 L260.74 180.53 L261.71 180.35 L262.11 180.17 L261.80 179.64 L261.00 178.76 L259.85 177.79 L258.92 177.21 L258.39 177.03 L258.30 177.56 L258.70 178.67 L259.32 180.22 L259.94 181.55 L260.25 182.61 L260.25 183.49 L259.81 184.29 L258.92 185.00 L257.59 185.53 L256.22 185.88 L255.03 186.06 " stroke-linecap='round' stroke-linejoin='round' brush-type='1' stroke-wetness='0.5'></path><path  style = ' stroke:#000000;  fill:none;  stroke-width:1.0;' d="M275.74 178.27 L275.01 178.27 L274.23 178.36 L272.51 178.85 L270.69 179.86 L268.97 181.33 L267.77 182.87 L267.15 184.25 L267.02 185.31 L267.55 185.93 L268.79 186.02 L270.65 185.22 L272.46 183.71 L273.75 181.86 L274.37 180.26 L274.54 179.20 L274.41 178.67 L274.01 179.33 L273.57 181.02 L273.26 183.58 L273.48 186.15 L274.14 188.14 " stroke-linecap='round' stroke-linejoin='round' brush-type='1' stroke-wetness='0.5'></path><path  style = ' stroke:#000000;  fill:none;  stroke-width:1.0;' d="M289.41 173.09 L288.61 172.03 L287.82 171.59 L286.00 170.79 L284.01 170.75 L281.98 171.10 L280.34 171.86 L279.32 173.23 L278.88 175.17 L279.06 177.70 L279.72 180.40 L280.69 182.87 L281.53 184.87 L282.02 186.41 L282.20 187.61 L282.11 188.32 " stroke-linecap='round' stroke-linejoin='round' brush-type='1' stroke-wetness='0.5'></path><path  style = ' stroke:#000000;  fill:none;  stroke-width:1.0;' d="M278.13 181.99 L278.92 181.86 L280.30 181.81 L283.22 181.72 L286.62 181.72 " stroke-linecap='round' stroke-linejoin='round' brush-type='1' stroke-wetness='0.5'></path><path  style = ' stroke:#000000;  fill:none;  stroke-width:1.0;' d="M299.10 175.75 L298.37 174.62 L297.33 174.24 L295.39 173.49 L293.35 173.71 L291.71 174.29 L290.56 175.48 L289.99 177.25 L289.85 179.47 L290.12 181.81 L290.61 183.98 L291.09 185.79 L291.40 187.12 L291.49 188.01 " stroke-linecap='round' stroke-linejoin='round' brush-type='1' stroke-wetness='0.5'></path><path  style = ' stroke:#000000;  fill:none;  stroke-width:1.0;' d="M288.75 181.59 L289.74 181.46 L291.09 181.41 L293.04 181.33 " stroke-linecap='round' stroke-linejoin='round' brush-type='1' stroke-wetness='0.5'></path><path  style = ' stroke:#000000;  fill:none;  stroke-width:1.0;' d="M298.17 183.05 L298.17 184.11 L298.13 185.18 L298.00 187.17 L297.86 188.63 " stroke-linecap='round' stroke-linejoin='round' brush-type='1' stroke-wetness='0.5'></path><path  style = ' stroke:#000000;  fill:none;  stroke-width:1.0;' d="M301.89 185.84 L301.56 184.84 L301.49 183.98 L301.58 182.52 L302.20 181.72 L303.13 181.46 L304.06 181.94 L304.77 183.05 L305.12 184.78 L305.21 186.64 L305.21 188.10 " stroke-linecap='round' stroke-linejoin='round' brush-type='1' stroke-wetness='0.5'></path><path  style = ' stroke:#000000;  fill:none;  stroke-width:1.0;' d="M309.99 185.18 L310.72 185.24 L311.58 185.18 L313.13 184.82 L314.59 184.11 L315.56 183.14 L316.10 182.03 L316.05 180.88 L315.43 180.04 L314.33 179.82 L313.00 180.62 L311.80 182.21 L310.96 184.29 L310.52 186.33 L310.70 188.10 L311.67 189.47 L313.44 190.26 " stroke-linecap='round' stroke-linejoin='round' brush-type='1' stroke-wetness='0.5'></path><path  style = ' stroke:#000000;  fill:none;  stroke-width:1.0;' d="M329.50 182.12 L328.38 182.06 L327.65 182.03 L326.41 181.99 L325.88 182.08 L325.70 182.52 L325.83 183.32 L326.27 184.33 L326.89 185.26 L327.34 186.06 L327.51 186.72 L327.51 187.34 L327.29 187.96 L326.85 188.54 L326.23 189.03 " stroke-linecap='round' stroke-linejoin='round' brush-type='1' stroke-wetness='0.5'></path><path  style = ' stroke:#000000;  fill:none;  stroke-width:1.0;' d="M334.02 181.59 L333.29 181.92 L332.51 182.96 L331.36 184.82 L330.70 187.03 L330.65 188.80 L331.27 190.00 L332.60 190.62 " stroke-linecap='round' stroke-linejoin='round' brush-type='1' stroke-wetness='0.5'></path><path  style = ' stroke:#000000;  fill:none;  stroke-width:1.0;' d="M340.26 172.70 L340.46 173.49 L340.52 174.64 L340.66 177.17 L340.66 180.31 L340.57 183.54 L340.35 186.28 L340.12 188.05 L339.99 188.89 L340.12 188.14 L340.48 186.50 L340.88 184.60 L341.23 183.67 L341.50 184.02 L341.81 185.18 L342.03 186.90 L342.12 188.49 L342.12 189.64 " stroke-linecap='round' stroke-linejoin='round' brush-type='1' stroke-wetness='0.5'></path><path  style = ' stroke:#000000;  fill:none;  stroke-width:1.0;' d="M347.56 187.70 L348.22 187.56 L348.98 187.30 L350.21 186.55 L351.10 185.49 L351.45 184.33 L351.37 183.54 L350.75 183.14 L349.68 183.18 L348.49 183.94 L347.56 185.35 L347.07 187.26 L346.94 188.98 L347.56 190.22 " stroke-linecap='round' stroke-linejoin='round' brush-type='1' stroke-wetness='0.5'></path><path  style = ' stroke:#000000;  fill:none;  stroke-width:1.0;' d="M350.08 191.55 L351.34 189.42 L351.76 187.65 L352.65 184.51 L353.09 182.34 L353.98 181.10 L355.35 180.53 L356.76 180.71 L357.96 181.64 L358.67 183.27 L358.93 185.18 L358.93 186.77 L358.89 187.70 L358.89 187.52 L359.33 186.37 L360.08 184.82 L360.88 183.76 L361.37 183.36 L361.54 183.58 L361.63 184.33 L361.63 185.62 L361.59 187.08 L361.50 188.14 " stroke-linecap='round' stroke-linejoin='round' brush-type='1' stroke-wetness='0.5'></path><path  style = ' stroke:#000000;  fill:none;  stroke-width:1.0;' d="M366.01 185.18 L366.61 185.24 L367.34 185.18 L368.71 184.82 L369.91 184.02 L370.66 182.92 L370.92 181.81 L370.53 181.02 L369.55 180.62 L368.09 180.93 L366.68 182.03 L365.57 183.85 L364.99 185.75 L365.26 187.39 L366.68 188.49 L368.53 189.11 " stroke-linecap='round' stroke-linejoin='round' brush-type='1' stroke-wetness='0.5'></path><path  style = ' stroke:#000000;  fill:none;  stroke-width:1.0;' d="M394.16 182.39 L393.16 181.92 L392.21 181.77 L390.57 181.50 L389.25 182.08 L388.40 183.36 L387.92 185.31 L387.83 187.08 L388.27 188.18 L389.25 188.27 L390.57 187.34 L391.77 185.66 L392.52 183.76 L392.87 182.25 L392.96 181.41 L392.96 181.55 L392.96 182.74 L393.01 184.95 L393.36 187.43 " stroke-linecap='round' stroke-linejoin='round' brush-type='1' stroke-wetness='0.5'></path><path  style = ' stroke:#000000;  fill:none;  stroke-width:1.0;' d="M398.14 188.63 L397.48 187.37 L397.17 186.10 L396.64 183.89 L396.59 181.99 L396.99 180.66 L397.87 179.78 L399.11 179.42 L400.35 179.56 " stroke-linecap='round' stroke-linejoin='round' brush-type='1' stroke-wetness='0.5'></path><path  style = ' stroke:#000000;  fill:none;  stroke-width:1.0;' d="M401.19 186.10 L402.32 185.77 L403.18 185.40 L404.87 184.47 L406.11 183.27 L406.90 181.90 L407.26 180.66 L406.90 179.91 L405.80 179.60 L403.89 180.22 L401.77 181.72 L399.95 184.07 L398.89 186.46 L398.67 188.45 L399.87 189.91 L402.48 190.75 L405.71 191.11 " stroke-linecap='round' stroke-linejoin='round' brush-type='1' stroke-wetness='0.5'></path><path  style = ' stroke:#000000;  fill:none;  stroke-width:1.0;' d="M430.00 176.94 L429.07 177.61 L428.01 178.85 L426.42 181.19 L425.40 183.89 L425.67 186.15 L427.61 187.70 L430.13 188.45 " stroke-linecap='round' stroke-linejoin='round' brush-type='1' stroke-wetness='0.5'></path><path  style = ' stroke:#000000;  fill:none;  stroke-width:1.0;' d="M438.50 185.57 L439.63 183.58 L439.43 182.92 L438.99 181.81 L437.26 182.61 L435.75 184.02 L434.83 185.66 L434.52 186.95 L435.44 187.61 L437.39 187.34 L439.96 186.19 L441.82 184.42 L442.70 182.56 L442.48 181.06 L441.55 180.13 L440.09 179.82 L438.59 180.35 L437.39 181.72 L436.68 183.49 " stroke-linecap='round' stroke-linejoin='round' brush-type='1' stroke-wetness='0.5'></path><path  style = ' stroke:#000000;  fill:none;  stroke-width:1.0;' d="M445.14 188.36 L444.80 187.63 L444.69 186.68 L444.61 184.87 L445.27 183.10 L446.46 181.94 L447.97 181.46 L449.30 182.08 L450.23 183.54 L450.76 185.71 L450.93 187.87 L450.98 189.47 " stroke-linecap='round' stroke-linejoin='round' brush-type='1' stroke-wetness='0.5'></path><path  style = ' stroke:#000000;  fill:none;  stroke-width:1.0;' d="M456.02 181.59 L455.56 181.66 L454.92 181.81 L453.99 182.21 L453.37 182.79 L453.50 183.41 L454.21 184.07 L455.27 184.78 L456.20 185.62 L456.69 186.50 L456.73 187.48 L456.20 188.49 L455.14 189.42 L453.68 190.04 " stroke-linecap='round' stroke-linejoin='round' brush-type='1' stroke-wetness='0.5'></path><path  style = ' stroke:#000000;  fill:none;  stroke-width:1.0;' d="M462.26 177.61 L462.66 178.54 L462.79 179.56 L463.06 181.68 L463.01 183.94 L462.88 186.15 L462.62 188.01 L462.35 189.29 " stroke-linecap='round' stroke-linejoin='round' brush-type='1' stroke-wetness='0.5'></path><path  style = ' stroke:#000000;  fill:none;  stroke-width:1.0;' d="M458.94 183.71 L459.21 183.25 L460.58 183.10 L463.24 182.79 L466.11 182.79 L468.24 183.05 " stroke-linecap='round' stroke-linejoin='round' brush-type='1' stroke-wetness='0.5'></path><path  style = ' stroke:#000000;  fill:none;  stroke-width:1.0;' d="M471.82 183.45 L470.56 183.65 L469.61 184.02 L467.93 184.87 L466.95 186.02 L466.51 187.12 L466.95 187.87 L468.19 187.70 L470.05 186.64 L471.60 185.18 L472.53 184.02 L472.71 183.49 L472.00 183.94 L470.85 185.31 L469.70 187.48 L469.17 189.34 " stroke-linecap='round' stroke-linejoin='round' brush-type='1' stroke-wetness='0.5'></path><path  style = ' stroke:#000000;  fill:none;  stroke-width:1.0;' d="M474.21 189.29 L473.75 188.03 L473.59 186.99 L473.28 185.13 L473.28 183.80 L473.28 182.87 L473.68 182.34 L474.56 182.12 L475.85 182.56 L476.95 183.54 L477.57 185.09 L477.79 186.68 L477.75 188.05 L477.57 188.89 " stroke-linecap='round' stroke-linejoin='round' brush-type='1' stroke-wetness='0.5'></path><path  style = ' stroke:#000000;  fill:none;  stroke-width:1.0;' d="M482.84 179.73 L483.24 180.40 L483.37 181.24 L483.64 182.92 L483.64 184.78 L483.46 186.55 L483.24 187.87 " stroke-linecap='round' stroke-linejoin='round' brush-type='1' stroke-wetness='0.5'></path><path  style = ' stroke:#000000;  fill:none;  stroke-width:1.0;' d="M479.12 180.13 L479.59 179.86 L480.98 179.69 L483.77 179.11 L486.69 178.58 " stroke-linecap='round' stroke-linejoin='round' brush-type='1' stroke-wetness='0.5'></path><path  style = ' stroke:#000000;  fill:none;  stroke-width:1.0;' d="M65.05 210.40 L65.71 210.33 L67.09 210.31 L69.83 210.22 L73.37 210.00 L76.82 209.65 L80.10 209.25 L82.84 208.89 L85.01 208.58 L86.56 208.28 L87.62 208.05 L88.28 207.92 " stroke-linecap='round' stroke-linejoin='round' brush-type='1' stroke-wetness='0.5'></path><path  style = ' stroke:#000000;  fill:none;  stroke-width:1.0;' d="M95.85 204.03 L95.78 205.09 L95.76 206.37 L95.59 209.07 L95.36 211.95 L95.01 214.74 L94.74 216.68 " stroke-linecap='round' stroke-linejoin='round' brush-type='1' stroke-wetness='0.5'></path><path  style = ' stroke:#000000;  fill:none;  stroke-width:1.0;' d="M91.20 206.81 L91.67 206.81 L92.36 206.81 L94.08 206.81 L96.25 206.81 L98.42 206.81 L100.01 206.81 L100.98 207.17 L101.47 208.14 L101.65 209.87 L101.69 211.82 L101.69 213.50 L101.69 214.51 L102.18 214.20 L103.11 213.05 L104.35 211.64 L105.32 210.97 L106.03 211.11 L106.47 212.04 L106.69 213.63 L106.74 215.49 L106.74 216.95 " stroke-linecap='round' stroke-linejoin='round' brush-type='1' stroke-wetness='0.5'></path><path  style = ' stroke:#000000;  fill:none;  stroke-width:1.0;' d="M114.70 211.59 L114.97 212.59 L115.06 213.50 L115.23 215.13 L115.54 216.37 " stroke-linecap='round' stroke-linejoin='round' brush-type='1' stroke-wetness='0.5'></path><path  style = ' stroke:#000000;  fill:none;  stroke-width:1.0;' d="M122.14 209.60 L121.41 209.67 L120.85 209.78 L119.84 210.13 L119.26 210.71 L119.00 211.51 L119.35 212.52 L120.19 213.76 L121.30 215.13 L122.09 216.42 L122.45 217.52 L122.40 218.36 L121.65 218.90 " stroke-linecap='round' stroke-linejoin='round' brush-type='1' stroke-wetness='0.5'></path><path  style = ' stroke:#000000;  fill:none;  stroke-width:1.0;' d="M113.51 205.35 L115.23 205.82 " stroke-linecap='round' stroke-linejoin='round' brush-type='1' stroke-wetness='0.5'></path><path  style = ' stroke:#000000;  fill:none;  stroke-width:1.0;' d="M137.14 210.40 L137.27 211.26 L137.32 212.70 L137.45 215.09 L137.85 217.44 " stroke-linecap='round' stroke-linejoin='round' brush-type='1' stroke-wetness='0.5'></path><path  style = ' stroke:#000000;  fill:none;  stroke-width:1.0;' d="M147.36 210.00 L146.70 210.33 L146.03 210.84 L145.10 211.82 L144.62 212.97 L144.93 214.03 L145.86 214.96 L147.18 215.67 L148.33 216.20 L148.95 216.64 L149.18 217.04 L149.04 217.52 L148.29 218.05 L146.83 218.63 L144.88 219.03 L143.07 219.25 L141.87 219.29 " stroke-linecap='round' stroke-linejoin='round' brush-type='1' stroke-wetness='0.5'></path><path  style = ' stroke:#000000;  fill:none;  stroke-width:1.0;' d="M164.09 201.77 L164.35 202.63 L164.49 204.16 L164.75 207.17 L164.84 210.62 L164.88 213.72 L164.88 216.33 L164.93 218.32 L165.02 219.43 " stroke-linecap='round' stroke-linejoin='round' brush-type='1' stroke-wetness='0.5'></path><path  style = ' stroke:#000000;  fill:none;  stroke-width:1.0;' d="M170.59 206.42 L170.79 207.08 L170.86 208.54 L170.99 211.20 L170.99 214.38 L170.99 217.08 L171.04 219.07 " stroke-linecap='round' stroke-linejoin='round' brush-type='1' stroke-wetness='0.5'></path><path  style = ' stroke:#000000;  fill:none;  stroke-width:1.0;' d="M178.56 201.90 L178.82 202.63 L178.96 204.12 L179.31 206.99 L179.53 210.40 L179.84 213.50 L180.24 216.15 L180.68 217.97 " stroke-linecap='round' stroke-linejoin='round' brush-type='1' stroke-wetness='0.5'></path><path  style = ' stroke:#000000;  fill:none;  stroke-width:1.0;' d="M185.06 210.66 L184.47 210.73 L183.74 211.02 L182.63 211.77 L181.88 213.01 L181.66 214.34 L181.83 215.49 L182.45 216.15 " stroke-linecap='round' stroke-linejoin='round' brush-type='1' stroke-wetness='0.5'></path><path  style = ' stroke:#000000;  fill:none;  stroke-width:1.0;' d="M188.91 212.39 L189.45 212.52 L190.33 212.39 L191.83 211.90 L193.21 210.97 L193.91 209.91 L194.09 208.98 L193.65 208.36 L192.63 208.05 L191.08 208.50 L189.40 209.65 L187.90 211.46 L187.01 213.32 L186.66 214.91 L187.23 216.15 L188.56 216.99 L190.91 217.48 L193.56 217.57 L195.86 217.30 " stroke-linecap='round' stroke-linejoin='round' brush-type='1' stroke-wetness='0.5'></path></g><g id='id-text-layer'  type='type-normal' preserveAspectRatio="none" ><text  style = 'fill: #000000; font-family:Helvetica-Light; font-size:18.0; ' preserveAspectRatio="none" x= '40' y='40' width = '688' height = '944' transform="rotate(   0,  384,  512)" ><tspan visibility='hidden'><![CDATA[]]></tspan></text></g><recordings ></recordings><defs   ></defs></svg> 