<?xml version="1.0" standalone="no"?> <!DOCTYPE svg PUBLIC "-//W3C//DTD SVG 1.1//EN" "http://www.w3.org/Graphics/SVG/1.1/DTD/svg11.dtd"> <svg   version="1.1"     xmlns="http://www.w3.org/2000/svg"  xmlns:xlink="http://www.w3.org/1999/xlink" name="" width="768.0" height="1004.0" background="N_PAPERBACKGROUND_WHITE_WITH_GRAY_LINE" line-height="30.0" margin-top="40.0" margin-right="40.0" margin-bottom="40.0" margin-left="40.0"><g id='id-background-layer'  type='type-normal' preserveAspectRatio="none" ><rect  style = ' stroke:#FFFFFF;  fill:#FFFFFF;  stroke-width:0.0;' x="0" y="0" width="768" height="1004" preserveAspectRatio="none" transform="rotate(   0,  384,  502)" ></rect><polyline  style = ' stroke:#D7D6D6;  fill:none;  stroke-width:1.0;' points = ' 0,70 768,70' preserveAspectRatio="none" transform="rotate(   0,  384,   70)" ></polyline><polyline  style = ' stroke:#D7D6D6;  fill:none;  stroke-width:1.0;' points = ' 0,100 768,100' preserveAspectRatio="none" transform="rotate(   0,  384,  100)" ></polyline><polyline  style = ' stroke:#D7D6D6;  fill:none;  stroke-width:1.0;' points = ' 0,130 768,130' preserveAspectRatio="none" transform="rotate(   0,  384,  130)" ></polyline><polyline  style = ' stroke:#D7D6D6;  fill:none;  stroke-width:1.0;' points = ' 0,160 768,160' preserveAspectRatio="none" transform="rotate(   0,  384,  160)" ></polyline><polyline  style = ' stroke:#D7D6D6;  fill:none;  stroke-width:1.0;' points = ' 0,190 768,190' preserveAspectRatio="none" transform="rotate(   0,  384,  190)" ></polyline><polyline  style = ' stroke:#D7D6D6;  fill:none;  stroke-width:1.0;' points = ' 0,220 768,220' preserveAspectRatio="none" transform="rotate(   0,  384,  220)" ></polyline><polyline  style = ' stroke:#D7D6D6;  fill:none;  stroke-width:1.0;' points = ' 0,250 768,250' preserveAspectRatio="none" transform="rotate(   0,  384,  250)" ></polyline><polyline  style = ' stroke:#D7D6D6;  fill:none;  stroke-width:1.0;' points = ' 0,280 768,280' preserveAspectRatio="none" transform="rotate(   0,  384,  280)" ></polyline><polyline  style = ' stroke:#D7D6D6;  fill:none;  stroke-width:1.0;' points = ' 0,310 768,310' preserveAspectRatio="none" transform="rotate(   0,  384,  310)" ></polyline><polyline  style = ' stroke:#D7D6D6;  fill:none;  stroke-width:1.0;' points = ' 0,340 768,340' preserveAspectRatio="none" transform="rotate(   0,  384,  340)" ></polyline><polyline  style = ' stroke:#D7D6D6;  fill:none;  stroke-width:1.0;' points = ' 0,370 768,370' preserveAspectRatio="none" transform="rotate(   0,  384,  370)" ></polyline><polyline  style = ' stroke:#D7D6D6;  fill:none;  stroke-width:1.0;' points = ' 0,400 768,400' preserveAspectRatio="none" transform="rotate(   0,  384,  400)" ></polyline><polyline  style = ' stroke:#D7D6D6;  fill:none;  stroke-width:1.0;' points = ' 0,430 768,430' preserveAspectRatio="none" transform="rotate(   0,  384,  430)" ></polyline><polyline  style = ' stroke:#D7D6D6;  fill:none;  stroke-width:1.0;' points = ' 0,460 768,460' preserveAspectRatio="none" transform="rotate(   0,  384,  460)" ></polyline><polyline  style = ' stroke:#D7D6D6;  fill:none;  stroke-width:1.0;' points = ' 0,490 768,490' preserveAspectRatio="none" transform="rotate(   0,  384,  490)" ></polyline><polyline  style = ' stroke:#D7D6D6;  fill:none;  stroke-width:1.0;' points = ' 0,520 768,520' preserveAspectRatio="none" transform="rotate(   0,  384,  520)" ></polyline><polyline  style = ' stroke:#D7D6D6;  fill:none;  stroke-width:1.0;' points = ' 0,550 768,550' preserveAspectRatio="none" transform="rotate(   0,  384,  550)" ></polyline><polyline  style = ' stroke:#D7D6D6;  fill:none;  stroke-width:1.0;' points = ' 0,580 768,580' preserveAspectRatio="none" transform="rotate(   0,  384,  580)" ></polyline><polyline  style = ' stroke:#D7D6D6;  fill:none;  stroke-width:1.0;' points = ' 0,610 768,610' preserveAspectRatio="none" transform="rotate(   0,  384,  610)" ></polyline><polyline  style = ' stroke:#D7D6D6;  fill:none;  stroke-width:1.0;' points = ' 0,640 768,640' preserveAspectRatio="none" transform="rotate(   0,  384,  640)" ></polyline><polyline  style = ' stroke:#D7D6D6;  fill:none;  stroke-width:1.0;' points = ' 0,670 768,670' preserveAspectRatio="none" transform="rotate(   0,  384,  670)" ></polyline><polyline  style = ' stroke:#D7D6D6;  fill:none;  stroke-width:1.0;' points = ' 0,700 768,700' preserveAspectRatio="none" transform="rotate(   0,  384,  700)" ></polyline><polyline  style = ' stroke:#D7D6D6;  fill:none;  stroke-width:1.0;' points = ' 0,730 768,730' preserveAspectRatio="none" transform="rotate(   0,  384,  730)" ></polyline><polyline  style = ' stroke:#D7D6D6;  fill:none;  stroke-width:1.0;' points = ' 0,760 768,760' preserveAspectRatio="none" transform="rotate(   0,  384,  760)" ></polyline><polyline  style = ' stroke:#D7D6D6;  fill:none;  stroke-width:1.0;' points = ' 0,790 768,790' preserveAspectRatio="none" transform="rotate(   0,  384,  790)" ></polyline><polyline  style = ' stroke:#D7D6D6;  fill:none;  stroke-width:1.0;' points = ' 0,820 768,820' preserveAspectRatio="none" transform="rotate(   0,  384,  820)" ></polyline><polyline  style = ' stroke:#D7D6D6;  fill:none;  stroke-width:1.0;' points = ' 0,850 768,850' preserveAspectRatio="none" transform="rotate(   0,  384,  850)" ></polyline><polyline  style = ' stroke:#D7D6D6;  fill:none;  stroke-width:1.0;' points = ' 0,880 768,880' preserveAspectRatio="none" transform="rotate(   0,  384,  880)" ></polyline><polyline  style = ' stroke:#D7D6D6;  fill:none;  stroke-width:1.0;' points = ' 0,910 768,910' preserveAspectRatio="none" transform="rotate(   0,  384,  910)" ></polyline><polyline  style = ' stroke:#D7D6D6;  fill:none;  stroke-width:1.0;' points = ' 0,940 768,940' preserveAspectRatio="none" transform="rotate(   0,  384,  940)" ></polyline><polyline  style = ' stroke:#C74F4F;  fill:none;  stroke-width:0.5;' points = ' 40,0 40,1004' preserveAspectRatio="none" transform="rotate(   0,   40,  502)" ></polyline><polyline  style = ' stroke:#B6B6B6; stroke-opacity:0.8; fill:none;  stroke-width:0.5;' points = ' 728,0 728,1004' preserveAspectRatio="none" transform="rotate(   0,  728,  502)" ></polyline></g><g id='id-main-layer'  type='type-normal' preserveAspectRatio="none" ><path  style = ' stroke:#000000;  fill:none;  stroke-width:1.0;' d="M51.81 73.92 L51.93 74.49 L51.96 75.42 L52.04 77.68 L52.04 80.94 L52.04 84.74 L52.04 88.34 L52.04 91.27 L52.04 93.41 L52.04 94.84 " stroke-linecap='round' stroke-linejoin='round' brush-type='1' stroke-wetness='0.5'></path><path  style = ' stroke:#000000;  fill:none;  stroke-width:1.0;' d="M53.39 72.80 L54.01 73.08 L55.12 74.07 L57.18 76.33 L59.44 79.74 L60.98 83.42 L61.76 87.10 L61.65 90.41 L60.83 93.30 L59.36 95.66 L57.56 97.54 L55.61 98.82 L53.80 99.49 L52.49 99.68 " stroke-linecap='round' stroke-linejoin='round' brush-type='1' stroke-wetness='0.5'></path><path  style = ' stroke:#000000;  fill:none;  stroke-width:1.0;' d="M66.12 89.47 L67.19 89.41 L68.11 89.39 L69.72 89.17 L70.93 88.60 L71.68 87.66 L72.09 86.54 L71.90 85.52 L71.15 84.77 L69.84 84.40 L68.26 84.74 L66.57 86.01 L65.14 88.23 L64.24 90.89 L63.90 93.45 L64.24 95.62 L65.18 97.13 L66.95 98.06 L69.35 98.40 " stroke-linecap='round' stroke-linejoin='round' brush-type='1' stroke-wetness='0.5'></path><path  style = ' stroke:#000000;  fill:none;  stroke-width:1.0;' d="M83.92 77.41 L83.07 77.02 L82.30 76.89 L80.69 76.63 L79.07 76.93 L77.57 77.83 L76.52 79.74 L76.03 82.67 L76.03 86.12 L76.37 89.47 L76.89 92.17 L77.35 94.20 L77.57 95.59 " stroke-linecap='round' stroke-linejoin='round' brush-type='1' stroke-wetness='0.5'></path><path  style = ' stroke:#000000;  fill:none;  stroke-width:1.0;' d="M74.79 92.17 L75.07 91.61 L75.81 90.86 L77.35 89.50 L79.34 88.23 " stroke-linecap='round' stroke-linejoin='round' brush-type='1' stroke-wetness='0.5'></path><path  style = ' stroke:#000000;  fill:none;  stroke-width:1.0;' d="M87.63 93.41 L87.52 93.01 L87.48 92.32 L87.41 90.97 L87.41 89.47 L87.67 88.30 L88.35 87.59 L89.55 87.36 L90.94 87.93 L92.25 89.28 L93.15 91.34 L93.60 93.41 L93.72 95.25 L93.60 96.49 " stroke-linecap='round' stroke-linejoin='round' brush-type='1' stroke-wetness='0.5'></path><path  style = ' stroke:#000000;  fill:none;  stroke-width:1.0;' d="M57.90 96.34 L58.68 96.34 L60.45 96.49 L63.68 96.83 L67.96 97.43 L72.31 98.14 L76.93 98.89 L81.29 99.60 L85.34 100.24 L88.87 100.81 L91.99 101.29 L94.50 101.63 L96.61 101.82 " stroke-linecap='round' stroke-linejoin='round' brush-type='1' stroke-wetness='0.5'></path><path  style = ' stroke:#000000;  fill:none;  stroke-width:1.0;' d="M103.63 88.68 a0.50 0.50 0 1 0 0.01 0 " stroke-linecap='round' stroke-linejoin='round' brush-type='1' stroke-wetness='0.5'></path><path  style = ' stroke:#000000;  fill:none;  stroke-width:1.0;' d="M103.29 94.65 L103.57 95.27 L103.93 95.89 " stroke-linecap='round' stroke-linejoin='round' brush-type='1' stroke-wetness='0.5'></path><path  style = ' stroke:#000000;  fill:none;  stroke-width:1.0;' d="M115.34 99.72 L115.57 99.38 L115.68 98.21 L115.98 95.85 L116.21 92.51 L116.54 89.05 L116.96 85.79 L117.45 83.05 L117.97 80.98 L118.38 79.48 L118.76 78.54 L118.98 78.09 L119.36 78.39 L119.96 79.89 L120.90 82.75 L121.99 86.35 L123.15 89.95 L124.24 93.00 L125.22 95.44 L125.97 97.20 L126.53 98.40 L127.06 99.30 " stroke-linecap='round' stroke-linejoin='round' brush-type='1' stroke-wetness='0.5'></path><path  style = ' stroke:#000000;  fill:none;  stroke-width:1.0;' d="M117.14 92.40 L118.05 92.28 L119.13 92.17 L121.54 91.83 L124.32 91.34 " stroke-linecap='round' stroke-linejoin='round' brush-type='1' stroke-wetness='0.5'></path><path  style = ' stroke:#000000;  fill:none;  stroke-width:1.0;' d="M149.92 79.33 L149.92 80.00 L149.92 81.62 L149.92 85.19 L149.92 89.69 L149.92 93.82 L149.92 96.86 L149.92 98.82 L150.07 99.53 " stroke-linecap='round' stroke-linejoin='round' brush-type='1' stroke-wetness='0.5'></path><path  style = ' stroke:#000000;  fill:none;  stroke-width:1.0;' d="M150.60 78.09 L151.22 77.64 L152.21 77.86 L154.13 78.69 L156.19 80.87 L157.81 83.80 L158.75 86.99 L159.12 89.92 L158.78 92.43 L157.81 94.46 L156.08 96.07 L154.05 97.13 L151.99 97.73 L150.19 97.95 L148.95 98.03 " stroke-linecap='round' stroke-linejoin='round' brush-type='1' stroke-wetness='0.5'></path><path  style = ' stroke:#000000;  fill:none;  stroke-width:1.0;' d="M162.88 88.11 L163.50 89.80 L163.74 90.82 L164.23 92.85 L164.30 94.27 L164.30 95.74 L164.15 97.16 L163.96 98.29 L163.81 99.04 " stroke-linecap='round' stroke-linejoin='round' brush-type='1' stroke-wetness='0.5'></path><path  style = ' stroke:#000000;  fill:none;  stroke-width:1.0;' d="M170.65 90.93 L170.03 91.04 L169.41 91.49 L168.28 92.66 L167.42 94.57 L166.97 96.64 L167.31 98.33 L168.43 99.19 L170.31 99.15 L172.30 98.14 L173.84 96.45 L174.63 94.42 L174.29 92.47 L173.28 90.93 L171.74 89.95 L170.65 89.88 " stroke-linecap='round' stroke-linejoin='round' brush-type='1' stroke-wetness='0.5'></path><path  style = ' stroke:#000000;  fill:none;  stroke-width:1.0;' d="M179.21 108.62 L178.98 108.16 L178.91 107.68 L178.72 106.44 L178.38 103.58 L177.89 99.79 L177.44 95.66 L177.33 92.73 L177.67 90.67 L178.31 89.24 L179.21 88.38 L180.18 87.93 L181.24 87.96 L182.25 88.79 L182.93 90.33 L183.23 92.36 L182.96 94.27 L182.33 95.89 L181.31 96.98 L180.37 97.54 " stroke-linecap='round' stroke-linejoin='round' brush-type='1' stroke-wetness='0.5'></path><path  style = ' stroke:#000000;  fill:none;  stroke-width:1.0;' d="M184.62 79.89 L185.23 80.74 L185.59 81.88 L186.23 84.44 L186.46 87.36 L186.53 90.14 L186.53 92.17 L186.53 93.37 L186.53 93.90 L186.57 93.78 L186.79 93.03 L187.32 91.87 L188.11 90.89 L188.97 90.44 L189.72 90.52 L190.28 91.12 L190.66 92.28 L190.85 93.78 L190.92 95.32 L190.92 96.64 L190.92 97.61 " stroke-linecap='round' stroke-linejoin='round' brush-type='1' stroke-wetness='0.5'></path><path  style = ' stroke:#000000;  fill:none;  stroke-width:1.0;' d="M199.37 91.72 L198.92 91.61 L198.17 91.64 L196.82 91.91 L195.35 92.62 L194.23 93.63 L193.48 94.84 L193.14 96.07 L193.36 97.16 L194.11 97.80 L195.43 97.84 L196.93 97.05 L198.36 95.62 L199.33 93.90 L199.82 92.43 L199.86 91.49 L199.67 91.04 L199.37 91.19 L199.11 92.13 L198.96 93.78 L198.92 95.51 " stroke-linecap='round' stroke-linejoin='round' brush-type='1' stroke-wetness='0.5'></path><path  style = ' stroke:#000000;  fill:none;  stroke-width:1.0;' d="M202.86 98.82 L202.81 97.91 L202.79 96.90 L202.75 94.99 L202.79 93.15 L203.01 91.64 L203.43 90.59 L204.10 90.07 L204.89 90.48 L205.75 92.02 L206.39 94.54 L206.81 97.20 L207.03 99.30 L207.18 100.47 " stroke-linecap='round' stroke-linejoin='round' brush-type='1' stroke-wetness='0.5'></path><path  style = ' stroke:#000000;  fill:none;  stroke-width:1.0;' d="M210.86 86.54 L210.69 87.16 L210.64 88.60 L210.56 90.97 L210.75 93.63 " stroke-linecap='round' stroke-linejoin='round' brush-type='1' stroke-wetness='0.5'></path><path  style = ' stroke:#000000;  fill:none;  stroke-width:1.0;' d="M208.95 90.03 L209.40 89.64 L210.30 89.43 L211.95 88.94 " stroke-linecap='round' stroke-linejoin='round' brush-type='1' stroke-wetness='0.5'></path><path  style = ' stroke:#000000;  fill:none;  stroke-width:1.0;' d="M216.49 90.14 L216.55 90.99 L216.57 92.25 L216.60 94.39 L216.64 96.60 L216.72 98.06 " stroke-linecap='round' stroke-linejoin='round' brush-type='1' stroke-wetness='0.5'></path><path  style = ' stroke:#000000;  fill:none;  stroke-width:1.0;' d="M221.34 96.79 L221.34 96.06 L221.34 95.44 L221.34 94.05 L221.37 92.58 L221.60 91.12 L222.09 90.10 L222.91 89.65 L223.93 90.03 L224.94 91.16 L225.73 93.03 L226.18 95.10 L226.37 96.90 " stroke-linecap='round' stroke-linejoin='round' brush-type='1' stroke-wetness='0.5'></path><path  style = ' stroke:#000000;  fill:none;  stroke-width:1.0;' d="M230.80 94.20 L231.36 94.20 L231.89 94.20 L233.01 94.01 L234.33 93.45 L235.79 92.36 L237.03 91.04 L237.71 89.69 L237.48 88.60 L236.47 87.93 L234.89 87.81 L233.28 88.64 L231.96 90.26 L231.17 92.47 L230.84 94.54 L231.21 96.19 L232.34 97.28 L234.40 97.88 L236.92 97.95 L239.21 97.58 " stroke-linecap='round' stroke-linejoin='round' brush-type='1' stroke-wetness='0.5'></path><path  style = ' stroke:#000000;  fill:none;  stroke-width:1.0;' d="M146.09 100.05 L146.49 99.89 L147.48 99.79 L149.66 99.57 L152.85 99.30 L156.64 98.93 L160.77 98.59 L165.13 98.40 L169.56 98.37 L174.22 98.44 L179.10 98.74 L184.24 99.27 L189.87 99.90 L195.88 100.39 L202.26 100.66 L208.76 100.73 L215.40 100.73 L222.01 100.73 L228.51 100.73 L234.59 100.73 L240.30 100.73 L245.40 100.69 L249.95 100.62 L253.96 100.47 L257.31 100.32 L260.12 100.20 L262.11 100.17 L263.54 100.13 L264.25 100.02 L264.55 99.83 " stroke-linecap='round' stroke-linejoin='round' brush-type='1' stroke-wetness='0.5'></path><path  style = ' stroke:#000000;  fill:none;  stroke-width:1.0;' d="M217.06 83.83 a0.50 0.50 0 1 0 0.01 0 " stroke-linecap='round' stroke-linejoin='round' brush-type='1' stroke-wetness='0.5'></path><path  style = ' stroke:#000000;  fill:none;  stroke-width:1.0;' d="M255.47 98.48 L255.41 97.69 L255.43 96.64 L255.58 94.46 L255.92 91.76 L256.29 88.75 L256.55 85.67 L256.67 82.90 L256.67 80.79 L256.52 79.40 L256.29 78.73 L256.40 78.47 L257.23 78.50 L258.88 78.62 L260.98 78.77 L263.24 78.84 L265.30 78.88 L266.80 78.88 " stroke-linecap='round' stroke-linejoin='round' brush-type='1' stroke-wetness='0.5'></path><path  style = ' stroke:#000000;  fill:none;  stroke-width:1.0;' d="M256.93 88.68 L257.32 88.73 L258.39 88.75 L260.46 88.60 L263.20 88.23 L265.68 87.70 " stroke-linecap='round' stroke-linejoin='round' brush-type='1' stroke-wetness='0.5'></path><path  style = ' stroke:#000000;  fill:none;  stroke-width:1.0;' d="M255.69 95.89 L255.92 96.22 L256.59 96.34 L258.28 96.56 L260.83 96.41 L263.65 96.04 " stroke-linecap='round' stroke-linejoin='round' brush-type='1' stroke-wetness='0.5'></path><path  style = ' stroke:#000000;  fill:none;  stroke-width:1.0;' d="M275.29 90.14 L273.94 90.31 L272.66 90.71 L270.52 91.68 L269.02 93.07 L268.27 94.61 L267.93 96.04 L267.89 97.13 L268.23 97.76 L269.13 97.99 L270.52 97.65 L271.95 96.75 L273.04 95.44 L273.64 94.23 L273.90 93.45 L273.94 93.03 L273.83 93.30 L273.60 94.61 L273.26 97.09 L273.04 100.05 L273.07 102.80 L273.79 104.86 L275.25 106.10 L277.39 106.63 L279.76 105.99 " stroke-linecap='round' stroke-linejoin='round' brush-type='1' stroke-wetness='0.5'></path><path  style = ' stroke:#000000;  fill:none;  stroke-width:1.0;' d="M281.37 93.86 L280.92 94.70 L280.77 95.51 L280.77 96.86 L281.49 97.73 L282.65 98.06 L283.93 97.76 L285.13 96.83 L286.14 95.29 L286.85 93.60 L287.30 92.06 L287.49 90.97 L287.57 90.44 L287.57 91.19 L287.57 92.73 L287.87 94.80 L288.39 96.15 " stroke-linecap='round' stroke-linejoin='round' brush-type='1' stroke-wetness='0.5'></path><path  style = ' stroke:#000000;  fill:none;  stroke-width:1.0;' d="M297.25 90.26 L296.52 90.26 L295.79 90.41 L294.44 90.97 L293.27 92.13 L292.49 93.82 L292.07 95.55 L291.96 96.86 L292.45 97.50 L293.42 97.31 L294.81 96.34 L295.94 94.84 L296.69 93.26 L297.03 92.06 L297.14 91.31 L297.14 91.46 L297.14 92.43 L297.14 94.12 L297.14 95.66 " stroke-linecap='round' stroke-linejoin='round' brush-type='1' stroke-wetness='0.5'></path><path  style = ' stroke:#000000;  fill:none;  stroke-width:1.0;' d="M304.01 83.05 L304.01 83.89 L304.01 85.11 L304.01 87.59 L304.01 90.44 L303.98 93.07 L303.86 95.17 " stroke-linecap='round' stroke-linejoin='round' brush-type='1' stroke-wetness='0.5'></path><path  style = ' stroke:#000000;  fill:none;  stroke-width:1.0;' d="M301.08 87.10 L301.70 86.99 L302.40 86.95 L303.86 86.88 L305.66 86.84 L307.43 86.76 " stroke-linecap='round' stroke-linejoin='round' brush-type='1' stroke-wetness='0.5'></path><path  style = ' stroke:#000000;  fill:none;  stroke-width:1.0;' d="M309.98 86.54 L310.60 88.06 L310.77 89.50 L311.07 91.98 L310.96 93.78 L310.88 94.76 " stroke-linecap='round' stroke-linejoin='round' brush-type='1' stroke-wetness='0.5'></path><path  style = ' stroke:#000000;  fill:none;  stroke-width:1.0;' d="M316.40 89.02 L315.95 89.52 L315.61 90.18 L314.98 91.72 L314.64 93.63 L314.53 95.40 L315.05 96.49 L316.22 96.38 L317.79 95.29 L319.03 93.63 L319.63 92.09 L319.33 90.82 L318.43 89.92 L317.27 89.39 L316.40 89.24 L315.95 89.58 L315.76 90.22 " stroke-linecap='round' stroke-linejoin='round' brush-type='1' stroke-wetness='0.5'></path><path  style = ' stroke:#000000;  fill:none;  stroke-width:1.0;' d="M323.16 96.00 L323.05 95.61 L323.01 95.06 L322.94 93.71 L322.94 91.91 L323.16 90.03 L323.80 88.68 L324.93 88.04 L326.28 88.30 L327.52 89.43 L328.46 91.31 L329.06 93.52 L329.47 95.74 L329.77 97.46 " stroke-linecap='round' stroke-linejoin='round' brush-type='1' stroke-wetness='0.5'></path><path  style = ' stroke:#000000;  fill:none;  stroke-width:1.0;' d="M337.35 100.05 L336.68 100.11 L335.81 100.13 L334.01 100.17 L331.68 100.17 L328.83 100.13 L325.34 99.98 L321.36 99.79 L317.00 99.64 L312.31 99.53 L307.24 99.45 L301.80 99.38 L295.90 99.38 L289.75 99.38 L283.36 99.38 L276.94 99.45 L270.60 99.72 L264.74 100.09 L259.86 100.39 L256.25 100.47 " stroke-linecap='round' stroke-linejoin='round' brush-type='1' stroke-wetness='0.5'></path><path  style = ' stroke:#000000;  fill:none;  stroke-width:1.0;' d="M352.79 81.58 L353.01 82.31 L353.09 84.10 L353.27 87.55 L353.31 91.46 L353.35 94.57 L353.35 96.60 L353.35 97.80 L353.42 98.21 L353.84 97.28 L354.63 95.29 L355.79 92.70 L356.99 90.86 L358.19 89.95 L359.24 89.99 L360.03 90.93 L360.56 92.51 L360.82 94.42 L361.05 96.00 " stroke-linecap='round' stroke-linejoin='round' brush-type='1' stroke-wetness='0.5'></path><path  style = ' stroke:#000000;  fill:none;  stroke-width:1.0;' d="M368.22 89.80 L367.09 90.20 L366.08 91.16 L364.39 92.85 L363.34 94.76 L362.92 96.04 L363.15 96.71 L364.01 96.49 L365.33 95.55 L366.53 94.20 L367.24 93.03 L367.50 92.55 L367.43 93.33 L367.32 94.69 " stroke-linecap='round' stroke-linejoin='round' brush-type='1' stroke-wetness='0.5'></path><path  style = ' stroke:#000000;  fill:none;  stroke-width:1.0;' d="M376.44 90.59 L375.82 90.65 L375.05 90.86 L373.85 91.31 L372.99 91.94 L372.69 92.73 L372.91 93.75 L373.55 94.95 L374.26 96.19 L374.68 97.31 L374.30 98.37 L373.06 99.30 L371.00 100.09 L368.37 100.54 " stroke-linecap='round' stroke-linejoin='round' brush-type='1' stroke-wetness='0.5'></path><path  style = ' stroke:#000000;  fill:none;  stroke-width:1.0;' d="M387.93 99.15 L388.04 98.76 L388.08 98.21 L388.19 96.94 L388.27 95.17 L388.34 93.00 L388.38 90.41 L388.38 87.55 L388.34 84.70 L388.30 82.22 L388.27 80.38 L388.34 79.25 L388.76 78.73 L389.69 78.58 L391.20 78.80 L392.89 79.44 L394.35 80.42 " stroke-linecap='round' stroke-linejoin='round' brush-type='1' stroke-wetness='0.5'></path><path  style = ' stroke:#000000;  fill:none;  stroke-width:1.0;' d="M386.58 89.92 L389.22 89.47 L391.16 89.24 L395.21 88.64 " stroke-linecap='round' stroke-linejoin='round' brush-type='1' stroke-wetness='0.5'></path><path  style = ' stroke:#000000;  fill:none;  stroke-width:1.0;' d="M402.12 88.00 L401.11 88.79 L400.24 89.73 L398.59 91.61 L397.39 93.75 L396.68 95.77 L396.49 97.39 L397.09 98.25 L398.44 98.14 L400.43 96.90 L402.35 94.95 L403.74 92.77 L404.45 90.97 L404.52 89.50 L404.04 88.53 L403.17 88.04 L402.23 87.89 L401.52 88.11 L401.15 88.72 L401.00 89.62 " stroke-linecap='round' stroke-linejoin='round' brush-type='1' stroke-wetness='0.5'></path><path  style = ' stroke:#000000;  fill:none;  stroke-width:1.0;' d="M410.34 97.69 L409.78 97.01 L409.56 96.34 L409.14 94.91 L409.14 93.30 L409.63 91.53 L410.72 89.80 L412.45 88.45 L414.40 87.66 L416.05 87.36 " stroke-linecap='round' stroke-linejoin='round' brush-type='1' stroke-wetness='0.5'></path><path  style = ' stroke:#000000;  fill:none;  stroke-width:1.0;' d="M419.02 98.37 L418.68 97.86 L418.53 97.05 L418.23 95.44 L418.15 93.45 L418.23 91.61 L418.72 90.14 L419.66 89.32 L420.93 89.02 L422.21 89.58 L423.15 90.97 L423.67 93.07 L423.82 95.10 L423.86 96.53 L423.90 96.22 L424.24 94.46 L425.10 91.91 L426.53 90.07 L428.14 89.17 L429.61 89.20 L430.73 90.07 L431.52 91.61 L431.97 93.45 L432.16 95.25 L432.20 96.79 L432.12 97.91 " stroke-linecap='round' stroke-linejoin='round' brush-type='1' stroke-wetness='0.5'></path><path  style = ' stroke:#000000;  fill:none;  stroke-width:1.0;' d="M454.27 100.73 L454.16 99.94 L454.12 99.19 L454.05 97.58 L454.05 95.59 L454.09 93.11 L454.24 90.10 L454.54 87.03 L454.95 84.17 L455.44 81.84 L456.00 80.04 L456.68 78.77 L457.43 78.05 L458.29 77.86 L459.15 78.54 L459.91 79.93 L460.32 81.84 L460.43 83.61 L459.98 85.07 L458.85 86.28 L457.01 87.25 L454.95 87.89 L452.96 88.19 L451.42 88.23 " stroke-linecap='round' stroke-linejoin='round' brush-type='1' stroke-wetness='0.5'></path><path  style = ' stroke:#000000;  fill:none;  stroke-width:1.0;' d="M468.35 80.68 L467.45 81.41 L466.74 82.41 L465.16 84.77 L463.77 87.89 L462.76 91.12 L462.31 93.97 L462.65 95.96 L463.58 97.31 L465.24 97.95 L466.93 98.03 " stroke-linecap='round' stroke-linejoin='round' brush-type='1' stroke-wetness='0.5'></path><path  style = ' stroke:#000000;  fill:none;  stroke-width:1.0;' d="M471.96 87.21 L471.62 87.72 L471.51 88.19 L471.28 89.13 L471.39 89.99 L471.73 90.74 L472.56 91.19 L473.72 91.31 L474.96 90.82 L475.90 89.95 L476.46 88.72 L476.73 87.48 L476.80 86.39 L476.80 85.71 L476.80 85.90 L476.84 87.06 L476.91 89.05 L476.99 91.31 L476.99 93.33 L476.65 94.95 L475.94 96.07 L474.77 96.79 L473.50 97.13 L472.15 97.16 L470.94 96.75 L470.01 96.07 L469.52 95.40 " stroke-linecap='round' stroke-linejoin='round' brush-type='1' stroke-wetness='0.5'></path><path  style = ' stroke:#000000;  fill:none;  stroke-width:1.0;' d="M481.42 93.63 L481.42 94.25 L481.42 95.02 L481.42 96.38 L481.42 97.65 L481.42 98.59 L481.53 99.23 L481.91 99.72 " stroke-linecap='round' stroke-linejoin='round' brush-type='1' stroke-wetness='0.5'></path><path  style = ' stroke:#000000;  fill:none;  stroke-width:1.0;' d="M486.49 98.14 L486.21 99.04 L485.81 99.72 L484.87 100.92 L483.56 101.71 L482.06 102.19 L480.59 102.46 L479.50 102.27 " stroke-linecap='round' stroke-linejoin='round' brush-type='1' stroke-wetness='0.5'></path><path  style = ' stroke:#000000;  fill:none;  stroke-width:1.0;' d="M491.11 96.79 L492.12 96.45 " stroke-linecap='round' stroke-linejoin='round' brush-type='1' stroke-wetness='0.5'></path><path  style = ' stroke:#000000;  fill:none;  stroke-width:1.0;' d="M497.98 96.11 a0.50 0.50 0 1 0 0.01 0 " stroke-linecap='round' stroke-linejoin='round' brush-type='1' stroke-wetness='0.5'></path><path  style = ' stroke:#000000;  fill:none;  stroke-width:1.0;' d="M503.95 96.34 a0.50 0.50 0 1 0 0.01 0 " stroke-linecap='round' stroke-linejoin='round' brush-type='1' stroke-wetness='0.5'></path><path  style = ' stroke:#000000;  fill:none;  stroke-width:1.0;' d="M509.92 96.22 L509.92 96.79 L509.92 97.50 L509.84 98.67 L509.47 99.72 L508.64 100.47 L507.40 101.14 L506.12 101.74 L504.92 102.19 L503.83 102.46 " stroke-linecap='round' stroke-linejoin='round' brush-type='1' stroke-wetness='0.5'></path><path  style = ' stroke:#000000;  fill:none;  stroke-width:1.0;' d="M514.76 86.31 L514.59 86.93 L514.80 87.66 L515.36 88.79 L516.49 89.54 L517.99 89.69 L519.53 89.35 L520.88 88.60 L521.67 87.51 L522.01 86.39 L522.08 85.37 L522.08 84.74 L522.04 84.96 L522.01 86.20 L521.97 88.34 L521.78 90.71 L521.22 92.96 L520.17 94.87 L518.85 96.34 L517.43 97.31 L516.07 97.80 L514.80 97.99 L513.90 97.84 " stroke-linecap='round' stroke-linejoin='round' brush-type='1' stroke-wetness='0.5'></path><path  style = ' stroke:#000000;  fill:none;  stroke-width:1.0;' d="M526.48 96.90 L526.08 95.77 L525.95 95.02 L525.87 93.45 L526.44 92.25 L527.34 91.34 L528.47 90.89 L529.55 91.34 L530.38 92.43 L530.79 94.08 L530.87 95.59 L530.76 96.64 L530.57 97.13 L530.34 96.83 L530.23 95.85 L530.34 94.31 L530.87 92.85 L531.73 91.91 L532.75 91.72 L533.53 92.47 L534.06 93.90 L534.28 95.77 L534.36 97.50 L534.32 98.78 L534.17 99.42 " stroke-linecap='round' stroke-linejoin='round' brush-type='1' stroke-wetness='0.5'></path><path  style = ' stroke:#000000;  fill:none;  stroke-width:1.0;' d="M534.02 80.57 L534.64 80.62 L535.86 81.36 L537.96 83.01 L540.10 85.52 L541.49 88.30 L542.24 90.97 L542.28 93.48 L541.61 95.70 L540.37 97.58 L538.87 98.97 L537.44 99.75 L536.35 100.09 L535.75 100.17 " stroke-linecap='round' stroke-linejoin='round' brush-type='1' stroke-wetness='0.5'></path><path  style = ' stroke:#000000;  fill:none;  stroke-width:1.0;' d="M546.07 86.99 L546.52 86.88 L547.50 86.84 L549.27 86.73 L551.33 86.61 L553.10 86.39 L554.75 86.12 L555.91 85.94 " stroke-linecap='round' stroke-linejoin='round' brush-type='1' stroke-wetness='0.5'></path><path  style = ' stroke:#000000;  fill:none;  stroke-width:1.0;' d="M548.33 91.61 L548.78 91.72 L549.45 91.76 L550.84 91.83 L552.83 91.68 L554.63 91.49 " stroke-linecap='round' stroke-linejoin='round' brush-type='1' stroke-wetness='0.5'></path><path  style = ' stroke:#000000;  fill:none;  stroke-width:1.0;' d="M565.90 86.88 L564.83 87.16 L563.80 87.89 L561.99 89.43 L560.83 91.49 L560.38 93.63 L560.91 95.44 L562.37 96.60 L564.77 96.86 L567.33 96.22 L569.50 94.95 L570.82 93.41 L571.38 91.87 L571.01 90.48 L569.99 89.28 L568.56 88.49 L567.29 88.11 L566.46 88.00 " stroke-linecap='round' stroke-linejoin='round' brush-type='1' stroke-wetness='0.5'></path><path  style = ' stroke:#000000;  fill:none;  stroke-width:1.0;' d="M588.31 91.38 L588.48 92.23 L588.76 92.85 L589.44 94.23 L590.38 95.32 L591.39 96.15 L592.37 96.49 L593.38 96.11 L594.47 95.25 L595.52 93.97 L596.24 92.92 L596.65 92.25 L596.91 92.51 L597.29 93.45 L597.89 94.72 L598.83 95.47 L600.10 95.70 L601.61 95.14 L603.07 93.86 L604.23 91.76 L604.98 88.94 L605.44 86.01 L605.77 83.65 L606.04 82.45 L606.22 82.07 L606.30 82.82 L606.34 84.85 L606.22 88.42 L606.00 92.21 L605.77 95.55 L605.66 97.65 L605.66 98.78 L606.07 98.29 L606.90 96.68 L608.14 94.46 L609.19 92.92 L609.98 92.25 L610.39 92.66 L610.58 93.90 L610.62 95.70 L610.62 97.46 " stroke-linecap='round' stroke-linejoin='round' brush-type='1' stroke-wetness='0.5'></path><path  style = ' stroke:#000000;  fill:none;  stroke-width:1.0;' d="M615.46 94.99 L616.08 94.93 L617.00 94.72 L618.61 94.16 L620.19 93.26 L621.13 92.21 L621.58 91.12 L621.47 90.14 L620.83 89.47 L619.55 89.43 L617.90 90.37 L616.32 92.09 L615.35 94.16 L615.01 95.92 L615.54 97.28 L616.77 98.25 " stroke-linecap='round' stroke-linejoin='round' brush-type='1' stroke-wetness='0.5'></path><path  style = ' stroke:#000000;  fill:none;  stroke-width:1.0;' d="M619.97 99.38 L621.60 98.59 L622.14 97.43 L623.23 95.40 L623.53 93.45 L624.21 92.09 L625.30 91.16 L626.46 90.59 L627.51 90.33 L628.26 90.26 L628.68 90.41 L628.90 91.08 L629.31 92.06 L629.92 93.00 L631.12 93.45 L632.43 93.45 L633.71 93.00 L634.38 92.21 L634.65 91.23 L634.61 90.41 L634.05 89.84 L632.92 89.73 L631.34 90.48 L629.77 92.13 L628.60 94.42 L628.00 96.56 L628.23 98.14 L629.35 99.08 L631.38 99.49 L633.44 99.53 " stroke-linecap='round' stroke-linejoin='round' brush-type='1' stroke-wetness='0.5'></path><path  style = ' stroke:#000000;  fill:none;  stroke-width:1.0;' d="M81.55 131.37 L81.83 130.97 L81.93 130.39 L82.19 129.04 L82.34 127.20 L82.53 124.76 L82.68 121.83 L82.75 118.34 L82.83 114.70 L82.94 111.28 L83.13 108.62 L83.50 106.89 L84.07 105.95 L84.85 105.57 L85.87 105.54 L87.26 106.17 L88.80 107.68 L90.11 109.97 L90.82 112.41 L91.09 114.55 L90.82 116.24 L90.00 117.59 L88.53 118.68 L86.81 119.54 L85.08 120.14 L83.62 120.48 L82.53 120.63 L81.93 120.71 " stroke-linecap='round' stroke-linejoin='round' brush-type='1' stroke-wetness='0.5'></path><path  style = ' stroke:#000000;  fill:none;  stroke-width:1.0;' d="M109.03 116.95 L108.87 117.34 L108.77 118.23 L108.58 119.92 L108.51 121.98 L108.47 123.75 L108.66 125.29 L109.03 126.34 " stroke-linecap='round' stroke-linejoin='round' brush-type='1' stroke-wetness='0.5'></path><path  style = ' stroke:#000000;  fill:none;  stroke-width:1.0;' d="M117.71 120.89 L117.14 120.27 L116.66 120.10 L115.72 119.88 L115.00 120.25 L114.59 120.82 L114.44 121.61 L114.97 122.58 L116.06 123.75 L117.41 124.91 L118.27 126.00 L118.46 126.98 L117.82 127.80 L116.47 128.51 L114.63 129.08 L112.98 129.42 L111.85 129.57 L111.36 129.57 " stroke-linecap='round' stroke-linejoin='round' brush-type='1' stroke-wetness='0.5'></path><path  style = ' stroke:#000000;  fill:none;  stroke-width:1.0;' d="M135.28 120.78 L134.15 120.84 L133.40 121.19 L131.94 122.09 L131.07 123.63 L130.59 125.32 L130.62 126.60 L131.30 127.20 L132.54 126.79 L133.97 125.81 L135.13 124.38 L135.81 123.18 L136.11 122.36 L136.18 122.81 L136.18 124.27 L136.29 126.60 L136.78 128.74 " stroke-linecap='round' stroke-linejoin='round' brush-type='1' stroke-wetness='0.5'></path><path  style = ' stroke:#000000;  fill:none;  stroke-width:1.0;' d="M149.25 138.69 L149.13 138.07 L149.10 137.34 L149.02 135.65 L148.98 133.36 L148.95 130.35 L148.91 127.01 L148.98 123.90 L149.36 121.61 L150.19 120.29 L151.42 119.84 L152.78 120.29 L153.79 121.49 L154.32 123.18 L154.13 124.91 L153.30 126.45 L151.95 127.73 L150.56 128.59 L149.62 129.08 L149.47 129.34 " stroke-linecap='round' stroke-linejoin='round' brush-type='1' stroke-wetness='0.5'></path><path  style = ' stroke:#000000;  fill:none;  stroke-width:1.0;' d="M161.86 122.36 L161.19 122.30 L160.40 122.73 L159.01 123.86 L157.92 125.70 L157.39 127.46 L157.51 128.63 L158.30 129.12 L159.53 128.78 L160.89 127.80 L161.86 126.26 L162.39 124.65 L162.39 123.18 L161.94 122.24 L161.19 121.83 L160.32 122.02 L159.72 122.39 " stroke-linecap='round' stroke-linejoin='round' brush-type='1' stroke-wetness='0.5'></path><path  style = ' stroke:#000000;  fill:none;  stroke-width:1.0;' d="M167.16 114.70 L167.21 115.99 L167.23 117.63 L167.04 121.04 L166.56 124.69 L165.92 127.95 L165.50 130.43 L165.35 131.97 " stroke-linecap='round' stroke-linejoin='round' brush-type='1' stroke-wetness='0.5'></path><path  style = ' stroke:#000000;  fill:none;  stroke-width:1.0;' d="M175.49 121.46 L175.27 122.13 L174.70 123.63 L173.58 126.41 L172.23 129.60 L171.14 132.23 L170.46 133.96 " stroke-linecap='round' stroke-linejoin='round' brush-type='1' stroke-wetness='0.5'></path><path  style = ' stroke:#000000;  fill:none;  stroke-width:1.0;' d="M172.45 127.31 L172.06 125.57 L171.81 124.42 L171.29 122.39 L170.91 121.34 " stroke-linecap='round' stroke-linejoin='round' brush-type='1' stroke-wetness='0.5'></path><path  style = ' stroke:#000000;  fill:none;  stroke-width:1.0;' d="M180.22 129.12 L180.84 125.74 L181.31 124.20 L182.25 121.27 L183.08 120.52 L184.05 120.22 L185.10 120.78 L186.08 122.21 L186.79 124.46 L187.24 126.83 L187.66 128.82 " stroke-linecap='round' stroke-linejoin='round' brush-type='1' stroke-wetness='0.5'></path><path  style = ' stroke:#000000;  fill:none;  stroke-width:1.0;' d="M195.65 121.12 L194.70 121.68 L194.00 122.39 L192.76 124.08 L192.12 126.19 L191.86 128.21 L192.31 129.60 L193.40 130.09 L195.05 129.57 L196.59 128.29 L197.61 126.56 L198.02 124.87 L197.57 123.26 L196.63 121.98 L195.47 121.16 L194.60 120.97 L194.15 121.53 L193.96 122.47 " stroke-linecap='round' stroke-linejoin='round' brush-type='1' stroke-wetness='0.5'></path><path  style = ' stroke:#000000;  fill:none;  stroke-width:1.0;' d="M202.07 128.78 L201.85 127.99 L201.77 127.31 L201.59 125.74 L201.55 124.05 L201.59 122.21 L202.00 120.71 L202.86 119.84 L204.06 119.73 L205.19 120.52 L205.94 121.94 L206.28 123.71 L206.35 125.10 L206.35 125.92 L206.35 125.77 L206.39 124.72 L206.73 123.03 L207.44 121.57 L208.42 120.78 L209.32 121.01 L209.96 122.17 L210.33 124.05 L210.52 126.07 L210.67 127.54 " stroke-linecap='round' stroke-linejoin='round' brush-type='1' stroke-wetness='0.5'></path><path  style = ' stroke:#000000;  fill:none;  stroke-width:1.0;' d="M216.72 119.88 L216.83 121.06 L216.87 122.36 L216.94 124.65 L217.06 126.68 " stroke-linecap='round' stroke-linejoin='round' brush-type='1' stroke-wetness='0.5'></path><path  style = ' stroke:#000000;  fill:none;  stroke-width:1.0;' d="M226.63 121.57 L225.67 121.63 L224.98 122.02 L223.63 123.00 L222.69 124.61 L222.09 126.22 L221.97 127.35 L222.54 127.31 L223.44 126.41 L224.30 125.06 L224.83 123.97 L225.09 123.37 L225.32 123.86 L225.43 125.21 L225.54 127.09 L225.69 128.44 " stroke-linecap='round' stroke-linejoin='round' brush-type='1' stroke-wetness='0.5'></path><path  style = ' stroke:#000000;  fill:none;  stroke-width:1.0;' d="M232.15 110.42 L232.21 111.09 L232.19 112.60 L232.07 115.90 L231.74 120.10 L231.36 123.97 L231.06 126.86 L230.95 128.70 L230.84 129.72 L230.57 130.13 " stroke-linecap='round' stroke-linejoin='round' brush-type='1' stroke-wetness='0.5'></path><path  style = ' stroke:#000000;  fill:none;  stroke-width:1.0;' d="M216.94 114.81 L218.86 115.20 " stroke-linecap='round' stroke-linejoin='round' brush-type='1' stroke-wetness='0.5'></path><path  style = ' stroke:#000000;  fill:none;  stroke-width:1.0;' d="M245.78 121.46 L245.95 121.91 L246.23 122.39 L246.83 123.18 L247.58 123.75 L248.41 123.97 L249.31 123.90 L250.28 123.30 L251.15 122.32 L251.75 121.38 L252.05 120.93 L252.16 121.68 L252.20 123.18 L252.20 124.99 L252.35 126.07 L252.91 126.52 L254.08 126.04 L255.65 124.72 L257.16 122.70 L258.13 120.67 L258.54 119.20 " stroke-linecap='round' stroke-linejoin='round' brush-type='1' stroke-wetness='0.5'></path><path  style = ' stroke:#000000;  fill:none;  stroke-width:1.0;' d="M259.52 122.47 L260.08 123.31 L260.27 124.42 L260.65 126.41 L260.53 128.48 L260.38 129.94 " stroke-linecap='round' stroke-linejoin='round' brush-type='1' stroke-wetness='0.5'></path><path  style = ' stroke:#000000;  fill:none;  stroke-width:1.0;' d="M269.09 116.95 L269.04 117.91 L269.02 118.98 L268.98 121.08 L268.98 123.30 L268.98 125.25 " stroke-linecap='round' stroke-linejoin='round' brush-type='1' stroke-wetness='0.5'></path><path  style = ' stroke:#000000;  fill:none;  stroke-width:1.0;' d="M265.83 121.46 L266.50 121.57 L267.26 121.61 L268.91 121.38 L270.78 120.63 L272.70 119.47 L274.31 118.11 L275.37 116.84 L275.89 115.82 L276.04 115.26 L276.08 116.05 L276.08 118.08 L276.04 121.08 L276.00 123.75 L275.97 125.55 L276.00 126.45 L276.49 126.19 L277.28 125.10 L278.41 123.56 L279.42 122.43 L280.43 121.94 L281.30 122.39 L281.90 123.63 L282.20 125.51 L282.27 127.43 L282.27 128.97 L282.35 130.02 " stroke-linecap='round' stroke-linejoin='round' brush-type='1' stroke-wetness='0.5'></path><path  style = ' stroke:#000000;  fill:none;  stroke-width:1.0;' d="M260.31 117.06 a0.50 0.50 0 1 0 0.01 0 " stroke-linecap='round' stroke-linejoin='round' brush-type='1' stroke-wetness='0.5'></path><path  style = ' stroke:#000000;  fill:none;  stroke-width:1.0;' d="M295.79 117.40 a0.50 0.50 0 1 0 0.01 0 " stroke-linecap='round' stroke-linejoin='round' brush-type='1' stroke-wetness='0.5'></path><path  style = ' stroke:#000000;  fill:none;  stroke-width:1.0;' d="M296.02 123.37 L295.96 124.67 L295.94 126.00 L295.90 128.18 L295.90 129.68 " stroke-linecap='round' stroke-linejoin='round' brush-type='1' stroke-wetness='0.5'></path><path  style = ' stroke:#000000;  fill:none;  stroke-width:1.0;' d="M298.83 128.21 L298.66 127.54 L298.61 126.90 L298.49 125.59 L298.68 124.20 L299.17 122.70 L299.92 121.31 L300.75 120.40 L301.57 120.10 L302.36 120.78 L303.00 122.28 L303.34 124.57 L303.45 126.83 L303.45 128.55 L303.41 129.45 " stroke-linecap='round' stroke-linejoin='round' brush-type='1' stroke-wetness='0.5'></path><path  style = ' stroke:#000000;  fill:none;  stroke-width:1.0;' d="M306.83 117.29 L307.00 117.85 L307.05 118.75 L307.17 120.67 L307.17 123.11 L307.24 125.47 L307.32 127.24 " stroke-linecap='round' stroke-linejoin='round' brush-type='1' stroke-wetness='0.5'></path><path  style = ' stroke:#000000;  fill:none;  stroke-width:1.0;' d="M306.04 121.34 L306.94 120.89 L308.26 120.67 L310.40 120.22 " stroke-linecap='round' stroke-linejoin='round' brush-type='1' stroke-wetness='0.5'></path><path  style = ' stroke:#000000;  fill:none;  stroke-width:1.0;' d="M312.69 124.05 L313.08 124.38 L313.74 124.46 L315.16 124.35 L316.85 123.52 L318.28 122.36 L319.14 121.16 L319.48 120.22 L319.26 119.43 L318.43 118.94 L316.93 118.75 L315.20 119.39 L313.62 120.86 L312.61 123.03 L312.12 125.21 L312.42 127.09 L313.70 128.40 " stroke-linecap='round' stroke-linejoin='round' brush-type='1' stroke-wetness='0.5'></path><path  style = ' stroke:#000000;  fill:none;  stroke-width:1.0;' d="M327.22 120.55 L326.03 121.01 L325.26 121.79 L324.03 123.33 L323.57 124.99 L323.80 126.11 L324.51 126.49 L325.68 125.96 L326.84 124.80 L327.70 123.22 L328.12 121.46 L328.23 119.88 L328.23 118.83 L328.27 118.90 L328.42 120.10 L328.61 122.21 L328.76 124.72 L328.42 127.35 L327.52 129.83 L325.98 132.01 L324.25 133.70 L322.45 134.82 L320.76 135.42 L319.41 135.57 " stroke-linecap='round' stroke-linejoin='round' brush-type='1' stroke-wetness='0.5'></path><path  style = ' stroke:#000000;  fill:none;  stroke-width:1.0;' d="M331.05 124.95 L331.50 124.95 L332.44 124.87 L334.01 124.57 L335.70 123.97 L337.02 123.07 L338.03 122.09 L338.63 121.19 L338.59 120.52 L337.99 120.10 L336.90 119.92 L335.63 120.25 L334.35 121.23 L333.30 122.92 L332.66 124.87 L332.44 126.71 L332.89 128.14 L333.94 129.08 L335.51 129.60 L337.28 129.83 L338.82 129.90 L339.91 129.90 L340.43 129.64 L340.58 129.00 L340.58 127.76 L340.43 126.11 L340.28 124.16 L340.28 122.28 L340.81 120.78 L341.78 119.84 L343.17 119.43 L344.60 119.35 L345.95 119.69 L346.93 120.25 " stroke-linecap='round' stroke-linejoin='round' brush-type='1' stroke-wetness='0.5'></path><path  style = ' stroke:#000000;  fill:none;  stroke-width:1.0;' d="M361.46 115.71 L360.56 116.05 L359.77 116.65 L358.27 118.11 L357.14 120.37 L356.47 123.00 L356.35 125.51 L357.07 127.28 L358.53 128.25 " stroke-linecap='round' stroke-linejoin='round' brush-type='1' stroke-wetness='0.5'></path><path  style = ' stroke:#000000;  fill:none;  stroke-width:1.0;' d="M370.47 119.88 L369.34 119.88 L368.29 120.29 L366.45 121.42 L365.18 123.41 L364.54 125.59 L364.43 127.39 L365.10 128.36 L366.60 128.21 L368.63 127.09 L370.47 125.25 L371.56 123.30 L371.82 121.49 L371.18 120.07 L370.09 119.24 L368.86 118.90 L368.03 119.05 L367.62 119.47 " stroke-linecap='round' stroke-linejoin='round' brush-type='1' stroke-wetness='0.5'></path><path  style = ' stroke:#000000;  fill:none;  stroke-width:1.0;' d="M375.88 123.71 L376.44 123.88 L377.19 123.90 L378.66 123.75 L380.12 123.11 L381.28 122.13 L382.00 121.01 L382.33 119.88 L382.11 118.87 L381.32 118.19 L379.93 117.96 L378.24 118.68 L376.67 120.25 L375.43 122.54 L374.79 124.87 L374.64 126.79 L375.46 128.21 L377.23 128.97 L379.78 129.19 " stroke-linecap='round' stroke-linejoin='round' brush-type='1' stroke-wetness='0.5'></path><path  style = ' stroke:#000000;  fill:none;  stroke-width:1.0;' d="M395.14 116.16 L395.31 115.15 L395.21 114.28 L394.84 112.90 L393.79 112.11 L392.28 111.84 L390.63 111.77 L389.17 111.84 L388.12 112.33 L387.52 113.57 L387.29 115.79 L387.29 118.64 L387.37 121.72 L387.44 124.57 L387.48 126.98 L387.37 128.78 L387.03 129.87 " stroke-linecap='round' stroke-linejoin='round' brush-type='1' stroke-wetness='0.5'></path><path  style = ' stroke:#000000;  fill:none;  stroke-width:1.0;' d="M385.00 123.26 L385.85 123.03 L387.10 122.96 L389.47 122.81 L392.13 122.81 " stroke-linecap='round' stroke-linejoin='round' brush-type='1' stroke-wetness='0.5'></path><path  style = ' stroke:#000000;  fill:none;  stroke-width:1.0;' d="M403.47 116.73 L402.80 115.66 L402.23 115.30 L400.96 114.81 L399.72 115.49 L398.44 116.80 L397.47 118.75 L396.87 121.08 L396.64 123.48 L396.60 125.55 L396.60 127.09 L396.49 128.06 " stroke-linecap='round' stroke-linejoin='round' brush-type='1' stroke-wetness='0.5'></path><path  style = ' stroke:#000000;  fill:none;  stroke-width:1.0;' d="M393.45 126.64 L393.22 124.44 L394.20 123.71 L395.89 122.24 L398.52 122.24 L400.69 122.24 L402.61 122.28 " stroke-linecap='round' stroke-linejoin='round' brush-type='1' stroke-wetness='0.5'></path><path  style = ' stroke:#000000;  fill:none;  stroke-width:1.0;' d="M412.15 118.53 L412.15 119.60 " stroke-linecap='round' stroke-linejoin='round' brush-type='1' stroke-wetness='0.5'></path><path  style = ' stroke:#000000;  fill:none;  stroke-width:1.0;' d="M412.15 121.68 L412.20 123.48 L412.22 124.87 L412.26 127.24 L412.33 128.55 " stroke-linecap='round' stroke-linejoin='round' brush-type='1' stroke-wetness='0.5'></path><path  style = ' stroke:#000000;  fill:none;  stroke-width:1.0;' d="M422.73 116.84 L421.95 117.23 L421.31 117.96 L420.11 119.69 L419.28 121.94 L418.83 124.23 L418.98 125.96 L419.88 127.01 L421.42 127.39 L423.45 126.94 " stroke-linecap='round' stroke-linejoin='round' brush-type='1' stroke-wetness='0.5'></path><path  style = ' stroke:#000000;  fill:none;  stroke-width:1.0;' d="M430.51 117.63 L430.62 118.53 L430.66 119.77 L430.73 122.17 L430.73 124.84 L430.73 127.13 " stroke-linecap='round' stroke-linejoin='round' brush-type='1' stroke-wetness='0.5'></path><path  style = ' stroke:#000000;  fill:none;  stroke-width:1.0;' d="M435.01 123.71 L435.63 123.77 L436.21 123.78 L437.53 123.60 L438.92 122.96 L440.23 121.91 L441.09 120.78 L441.47 119.84 L441.13 119.24 L440.08 118.94 L438.32 119.20 L436.44 120.25 L434.90 122.13 L434.04 124.38 L433.81 126.52 L434.41 128.18 " stroke-linecap='round' stroke-linejoin='round' brush-type='1' stroke-wetness='0.5'></path><path  style = ' stroke:#000000;  fill:none;  stroke-width:1.0;' d="M441.21 129.23 L441.43 128.72 L441.70 127.58 L442.11 125.59 L442.60 123.41 L443.23 121.83 L444.21 120.82 L445.37 120.37 L446.58 120.93 L447.59 122.43 L448.27 124.72 L448.57 127.05 L448.60 128.97 L448.49 130.13 " stroke-linecap='round' stroke-linejoin='round' brush-type='1' stroke-wetness='0.5'></path><path  style = ' stroke:#000000;  fill:none;  stroke-width:1.0;' d="M453.15 115.82 L453.60 116.73 L453.75 118.30 L454.09 121.08 L454.16 124.08 L454.24 126.26 L454.27 127.61 " stroke-linecap='round' stroke-linejoin='round' brush-type='1' stroke-wetness='0.5'></path><path  style = ' stroke:#000000;  fill:none;  stroke-width:1.0;' d="M451.57 119.43 L452.25 119.26 L453.52 119.20 L455.85 119.09 L458.25 119.05 " stroke-linecap='round' stroke-linejoin='round' brush-type='1' stroke-wetness='0.5'></path><path  style = ' stroke:#000000;  fill:none;  stroke-width:1.0;' d="M466.33 117.74 L465.65 117.80 L464.90 117.89 L463.36 118.30 L461.78 119.05 L460.54 120.07 L459.87 121.19 L460.06 122.28 L461.03 123.37 L462.53 124.42 L464.00 125.44 L464.94 126.34 L465.35 127.13 L465.05 127.88 L464.07 128.59 L462.35 129.12 L460.24 129.38 L458.37 129.45 " stroke-linecap='round' stroke-linejoin='round' brush-type='1' stroke-wetness='0.5'></path><path  style = ' stroke:#000000;  fill:none;  stroke-width:1.0;' d="M432.87 112.78 a0.50 0.50 0 1 0 0.01 0 " stroke-linecap='round' stroke-linejoin='round' brush-type='1' stroke-wetness='0.5'></path><path  style = ' stroke:#000000;  fill:none;  stroke-width:1.0;' d="M42.80 148.38 L43.70 148.32 L45.02 148.26 L47.38 148.08 L49.90 147.85 L52.11 147.55 L54.10 147.33 L55.57 147.18 " stroke-linecap='round' stroke-linejoin='round' brush-type='1' stroke-wetness='0.5'></path><path  style = ' stroke:#000000;  fill:none;  stroke-width:1.0;' d="M67.13 141.28 L66.06 141.34 L65.26 141.54 L63.72 142.33 L62.33 144.02 L61.01 146.57 L59.89 149.69 L59.32 152.84 L59.25 155.70 L59.89 157.84 L61.20 159.19 L63.27 159.83 L65.56 159.94 L67.92 159.27 L69.87 157.95 L71.19 156.26 L71.71 154.68 L71.34 153.45 L70.40 152.62 L69.09 152.28 L67.92 152.28 L67.02 152.62 L66.53 153.15 " stroke-linecap='round' stroke-linejoin='round' brush-type='1' stroke-wetness='0.5'></path><path  style = ' stroke:#000000;  fill:none;  stroke-width:1.0;' d="M76.37 153.78 L76.99 153.84 L77.68 153.82 L79.00 153.63 L80.20 153.07 L81.06 152.36 L81.51 151.57 L81.48 150.97 L80.91 150.52 L79.97 150.33 L78.70 150.55 L77.38 151.38 L76.22 152.88 L75.54 154.72 L75.36 156.52 L75.88 157.95 L77.08 158.85 " stroke-linecap='round' stroke-linejoin='round' brush-type='1' stroke-wetness='0.5'></path><path  style = ' stroke:#000000;  fill:none;  stroke-width:1.0;' d="M83.69 155.36 L83.41 154.52 L83.35 153.86 L83.58 152.51 L84.40 151.46 L85.68 150.78 L86.96 150.78 L87.97 151.79 L88.53 153.60 L88.72 155.74 L88.76 157.50 L88.76 158.59 " stroke-linecap='round' stroke-linejoin='round' brush-type='1' stroke-wetness='0.5'></path><path  style = ' stroke:#000000;  fill:none;  stroke-width:1.0;' d="M93.60 153.45 L94.28 153.61 L94.92 153.67 L96.12 153.78 L97.17 153.56 L97.96 153.00 L98.45 152.09 L98.45 151.12 L97.85 150.33 L96.64 149.88 L95.07 150.18 L93.60 151.34 L92.59 153.26 L92.14 155.25 L92.51 156.97 L93.42 158.06 " stroke-linecap='round' stroke-linejoin='round' brush-type='1' stroke-wetness='0.5'></path><path  style = ' stroke:#000000;  fill:none;  stroke-width:1.0;' d="M100.14 158.51 L100.02 157.56 L99.99 156.82 L99.91 155.25 L99.91 153.78 L100.14 152.32 L100.77 151.16 L101.83 150.48 L103.10 150.22 L104.23 150.18 " stroke-linecap='round' stroke-linejoin='round' brush-type='1' stroke-wetness='0.5'></path><path  style = ' stroke:#000000;  fill:none;  stroke-width:1.0;' d="M110.50 151.08 L109.43 151.36 L108.25 151.98 L106.29 153.11 L104.87 154.57 L104.27 155.81 L104.23 156.75 L104.87 157.13 L105.96 156.82 L107.27 155.92 L108.28 154.46 L108.92 152.92 L109.18 151.72 L109.26 152.32 L109.26 154.12 L109.26 156.45 " stroke-linecap='round' stroke-linejoin='round' brush-type='1' stroke-wetness='0.5'></path><path  style = ' stroke:#000000;  fill:none;  stroke-width:1.0;' d="M114.55 140.72 L114.61 141.22 L114.63 142.86 L114.67 146.12 L114.67 150.18 L114.67 153.60 L115.00 156.04 " stroke-linecap='round' stroke-linejoin='round' brush-type='1' stroke-wetness='0.5'></path><path  style = ' stroke:#000000;  fill:none;  stroke-width:1.0;' d="M136.07 148.71 L135.11 148.55 L134.38 148.49 L132.84 148.71 L131.45 149.69 L130.10 151.49 L129.16 153.71 L128.71 155.70 L129.05 156.94 L129.99 157.16 L131.34 156.37 L132.61 154.83 L133.51 152.77 L134.08 150.74 L134.34 149.24 L134.45 148.98 L134.23 150.33 L133.70 153.18 L133.06 156.67 L132.69 159.90 L132.61 162.23 L133.14 163.70 L134.34 164.41 L136.11 164.41 " stroke-linecap='round' stroke-linejoin='round' brush-type='1' stroke-wetness='0.5'></path><path  style = ' stroke:#000000;  fill:none;  stroke-width:1.0;' d="M140.91 152.21 L140.86 152.88 L140.84 154.20 L140.80 156.45 L140.99 158.66 L141.51 159.90 L142.38 160.35 L143.31 159.75 L144.07 158.29 L144.63 156.11 L145.04 153.90 L145.38 152.21 L145.72 151.94 L145.94 153.15 L146.09 155.32 L146.13 157.28 L146.28 158.55 " stroke-linecap='round' stroke-linejoin='round' brush-type='1' stroke-wetness='0.5'></path><path  style = ' stroke:#000000;  fill:none;  stroke-width:1.0;' d="M150.15 156.60 L150.65 156.60 L151.24 156.52 L152.48 156.15 L153.75 155.44 L154.80 154.50 L155.37 153.48 L155.55 152.43 L155.22 151.49 L154.43 150.93 L153.04 151.04 L151.54 151.94 L150.19 153.52 L149.40 155.40 L149.17 157.16 L149.77 158.63 L151.24 159.60 L153.00 160.09 " stroke-linecap='round' stroke-linejoin='round' brush-type='1' stroke-wetness='0.5'></path><path  style = ' stroke:#000000;  fill:none;  stroke-width:1.0;' d="M162.31 150.40 L161.41 150.74 L160.74 151.04 L159.57 151.61 L158.97 152.13 L158.75 152.66 L159.05 153.22 L159.87 153.97 L161.04 154.91 L162.05 156.04 L162.61 157.13 L162.80 158.14 L162.46 159.04 L161.60 159.83 L159.87 160.39 L158.37 160.58 " stroke-linecap='round' stroke-linejoin='round' brush-type='1' stroke-wetness='0.5'></path><path  style = ' stroke:#000000;  fill:none;  stroke-width:1.0;' d="M168.40 147.25 L168.62 148.04 L168.70 149.62 L168.85 152.32 L168.85 155.25 L168.85 157.31 L168.81 158.63 " stroke-linecap='round' stroke-linejoin='round' brush-type='1' stroke-wetness='0.5'></path><path  style = ' stroke:#000000;  fill:none;  stroke-width:1.0;' d="M166.26 150.40 L166.65 150.40 L167.49 150.40 L169.11 150.44 L170.99 150.67 L172.38 151.23 L173.20 152.09 L173.54 153.15 L173.65 154.27 L173.69 155.51 L173.54 156.82 L173.35 158.03 L173.16 158.93 " stroke-linecap='round' stroke-linejoin='round' brush-type='1' stroke-wetness='0.5'></path><path  style = ' stroke:#000000;  fill:none;  stroke-width:1.0;' d="M179.66 153.00 L179.15 152.94 L178.65 153.18 L177.67 153.93 L176.84 155.32 L176.36 156.94 L176.43 158.14 L177.22 158.70 L178.42 158.29 L179.70 157.20 L180.49 155.62 L180.86 153.97 L180.67 152.54 L180.26 151.57 L179.55 151.76 L179.06 153.00 " stroke-linecap='round' stroke-linejoin='round' brush-type='1' stroke-wetness='0.5'></path><path  style = ' stroke:#000000;  fill:none;  stroke-width:1.0;' d="M184.16 157.73 L184.11 156.71 L184.09 155.85 L184.09 154.16 L184.47 152.62 L185.25 151.38 L186.46 150.63 L187.66 150.63 L188.60 151.49 L189.12 153.03 L189.31 154.99 L189.23 156.79 " stroke-linecap='round' stroke-linejoin='round' brush-type='1' stroke-wetness='0.5'></path><path  style = ' stroke:#000000;  fill:none;  stroke-width:1.0;' d="M196.44 143.20 a0.50 0.50 0 1 0 0.01 0 " stroke-linecap='round' stroke-linejoin='round' brush-type='1' stroke-wetness='0.5'></path><path  style = ' stroke:#000000;  fill:none;  stroke-width:1.0;' d="M196.89 153.11 a0.50 0.50 0 1 0 0.01 0 " stroke-linecap='round' stroke-linejoin='round' brush-type='1' stroke-wetness='0.5'></path><path  style = ' stroke:#000000;  fill:none;  stroke-width:1.0;' d="M216.38 138.92 L215.48 139.03 L214.39 139.82 L212.25 141.66 L210.11 144.81 L208.38 148.56 L207.29 152.47 L206.81 155.81 L207.07 158.33 L208.19 159.87 L210.30 160.58 L212.96 160.43 L215.67 159.42 L217.84 157.80 L219.20 155.96 L219.76 154.38 L219.50 153.11 L218.52 152.36 L217.02 152.02 L215.59 152.02 L214.69 152.17 L214.31 152.54 " stroke-linecap='round' stroke-linejoin='round' brush-type='1' stroke-wetness='0.5'></path><path  style = ' stroke:#000000;  fill:none;  stroke-width:1.0;' d="M223.93 152.66 L223.87 153.50 L223.85 154.72 L223.81 156.64 L223.93 158.21 " stroke-linecap='round' stroke-linejoin='round' brush-type='1' stroke-wetness='0.5'></path><path  style = ' stroke:#000000;  fill:none;  stroke-width:1.0;' d="M228.32 151.87 L228.43 152.32 L228.47 153.11 L228.54 154.42 L228.54 155.66 L228.62 156.26 L229.03 156.19 L229.86 155.25 L230.95 153.60 L232.00 151.53 L232.86 149.73 L233.39 148.56 " stroke-linecap='round' stroke-linejoin='round' brush-type='1' stroke-wetness='0.5'></path><path  style = ' stroke:#000000;  fill:none;  stroke-width:1.0;' d="M234.40 152.32 L235.02 152.77 L235.45 152.92 L236.47 153.15 L237.41 152.73 L238.31 151.91 L238.83 150.78 L239.02 149.77 L238.72 149.09 L238.08 148.79 L237.07 149.28 L236.09 150.52 L235.30 152.47 L234.89 154.50 L234.85 156.30 L235.45 157.65 " stroke-linecap='round' stroke-linejoin='round' brush-type='1' stroke-wetness='0.5'></path><path  style = ' stroke:#000000;  fill:none;  stroke-width:1.0;' d="M239.58 158.63 L239.98 156.82 L240.11 155.70 L240.37 153.56 L240.60 152.39 L241.16 151.64 L242.10 151.31 L243.15 151.61 L244.05 152.62 L244.65 154.20 L244.91 155.92 L244.99 157.46 L245.07 158.55 " stroke-linecap='round' stroke-linejoin='round' brush-type='1' stroke-wetness='0.5'></path><path  style = ' stroke:#000000;  fill:none;  stroke-width:1.0;' d="M265.49 159.42 L265.38 158.96 L265.34 158.36 L265.27 156.94 L265.19 154.99 L265.04 152.39 L264.89 149.54 L264.81 146.72 L264.85 144.51 L265.15 142.93 L265.72 142.07 L266.58 141.69 L267.59 141.81 L268.61 142.59 L269.36 144.02 L269.70 145.82 L269.40 147.48 L268.64 148.90 L267.44 150.03 L266.17 150.89 L264.89 151.38 L263.88 151.61 " stroke-linecap='round' stroke-linejoin='round' brush-type='1' stroke-wetness='0.5'></path><path  style = ' stroke:#000000;  fill:none;  stroke-width:1.0;' d="M277.77 142.18 L275.85 144.83 L274.80 146.84 L272.85 151.23 L272.17 154.46 L272.29 156.94 L273.22 158.21 L274.84 159.04 L276.75 159.53 L278.82 159.72 " stroke-linecap='round' stroke-linejoin='round' brush-type='1' stroke-wetness='0.5'></path><path  style = ' stroke:#000000;  fill:none;  stroke-width:1.0;' d="M285.65 147.81 L285.54 148.10 L285.50 148.64 L285.50 149.73 L285.88 150.97 L286.59 151.91 L287.61 152.43 L288.62 152.47 L289.48 151.98 L290.08 151.04 L290.50 149.80 L290.80 148.49 L290.98 147.25 L291.06 146.42 L291.25 146.42 L291.59 147.48 L292.04 149.39 L292.37 151.76 L292.56 154.01 L292.37 155.92 L291.66 157.39 L290.53 158.44 L289.18 159.00 L287.79 159.19 L286.37 158.74 L285.13 157.73 L284.30 156.45 L283.78 155.32 " stroke-linecap='round' stroke-linejoin='round' brush-type='1' stroke-wetness='0.5'></path><path  style = ' stroke:#000000;  fill:none;  stroke-width:1.0;' d="M284.41 143.65 L284.75 143.76 L285.35 143.80 L286.63 143.87 L288.17 143.87 L289.86 143.87 L291.06 143.83 L291.85 143.76 L292.00 143.57 L291.92 143.23 L291.59 142.74 L291.10 142.29 L290.72 141.99 L290.83 141.99 " stroke-linecap='round' stroke-linejoin='round' brush-type='1' stroke-wetness='0.5'></path><path  style = ' stroke:#000000;  fill:none;  stroke-width:1.0;' d="M297.25 141.62 L297.65 142.07 L298.01 142.82 L298.72 144.55 L299.32 146.99 L299.73 149.92 L299.92 152.88 L299.70 155.62 L299.09 157.84 L298.16 159.60 L297.22 160.73 L296.35 161.33 L295.60 161.52 L295.00 161.44 " stroke-linecap='round' stroke-linejoin='round' brush-type='1' stroke-wetness='0.5'></path><path  style = ' stroke:#000000;  fill:none;  stroke-width:1.0;' d="M302.77 149.50 L303.39 149.67 L304.05 149.73 L305.44 149.84 L307.20 149.62 " stroke-linecap='round' stroke-linejoin='round' brush-type='1' stroke-wetness='0.5'></path><path  style = ' stroke:#000000;  fill:none;  stroke-width:1.0;' d="M305.36 153.33 L305.76 153.33 L306.34 153.33 L307.62 153.26 L309.27 153.03 " stroke-linecap='round' stroke-linejoin='round' brush-type='1' stroke-wetness='0.5'></path><path  style = ' stroke:#000000;  fill:none;  stroke-width:1.0;' d="M316.63 146.80 L315.45 147.19 L314.53 148.08 L312.95 149.80 L312.16 151.94 L312.01 153.82 L312.72 155.32 L315.24 156.26 L318.39 156.41 L321.40 155.81 L322.71 154.61 L323.27 153.07 L322.86 151.27 L321.81 149.43 L320.16 148.00 L318.51 147.14 " stroke-linecap='round' stroke-linejoin='round' brush-type='1' stroke-wetness='0.5'></path><path  style = ' stroke:#000000;  fill:none;  stroke-width:1.0;' d="M338.71 148.71 L338.20 150.40 L337.95 151.57 L337.54 153.86 L337.47 155.47 " stroke-linecap='round' stroke-linejoin='round' brush-type='1' stroke-wetness='0.5'></path><path  style = ' stroke:#000000;  fill:none;  stroke-width:1.0;' d="M345.24 148.71 L344.34 149.17 L343.70 149.65 L342.54 150.67 L341.82 151.83 L341.45 153.03 L341.37 154.23 L341.82 155.36 L342.61 156.45 L343.51 157.35 L344.11 158.03 L344.38 158.51 L344.15 158.96 L343.44 159.42 L342.24 159.79 L340.92 160.02 L339.64 160.09 L338.78 160.09 " stroke-linecap='round' stroke-linejoin='round' brush-type='1' stroke-wetness='0.5'></path><path  style = ' stroke:#000000;  fill:none;  stroke-width:1.0;' d="M356.95 143.53 L356.67 144.15 L356.58 145.30 L356.54 147.59 L356.77 150.33 L357.18 152.84 L357.52 154.87 L357.85 156.19 " stroke-linecap='round' stroke-linejoin='round' brush-type='1' stroke-wetness='0.5'></path><path  style = ' stroke:#000000;  fill:none;  stroke-width:1.0;' d="M354.36 147.48 L354.81 147.59 L355.41 147.63 L356.69 147.70 L358.15 147.66 L359.51 147.48 L360.52 147.18 L361.12 146.87 L361.50 146.76 L361.68 147.36 L361.80 148.79 L361.72 151.01 L361.46 153.26 L361.16 155.02 L360.93 156.04 L361.08 155.81 L361.57 154.87 L362.32 153.71 L363.11 153.15 L363.75 153.37 L364.20 154.27 L364.46 155.70 L364.58 157.13 L364.61 158.18 " stroke-linecap='round' stroke-linejoin='round' brush-type='1' stroke-wetness='0.5'></path><path  style = ' stroke:#000000;  fill:none;  stroke-width:1.0;' d="M366.75 155.70 L367.32 155.53 L367.95 155.36 L369.27 155.06 L370.62 154.61 L371.86 153.97 L372.76 153.07 L373.29 152.13 L373.40 151.23 L373.10 150.52 L372.35 150.10 L371.18 150.29 L369.87 151.16 L368.74 152.58 L368.07 154.23 L367.84 155.77 L368.25 157.05 L369.27 157.91 L370.92 158.40 " stroke-linecap='round' stroke-linejoin='round' brush-type='1' stroke-wetness='0.5'></path><path  style = ' stroke:#000000;  fill:none;  stroke-width:1.0;' d="M374.30 158.85 L374.75 157.89 L374.90 157.13 L375.20 155.47 L375.39 153.86 L376.06 152.24 L377.23 150.89 L378.69 149.99 L380.12 149.54 L381.25 149.39 " stroke-linecap='round' stroke-linejoin='round' brush-type='1' stroke-wetness='0.5'></path><path  style = ' stroke:#000000;  fill:none;  stroke-width:1.0;' d="M382.86 154.23 L383.37 154.74 L384.06 154.87 L385.34 154.87 L386.65 154.16 L387.63 153.11 L388.23 151.87 L388.42 150.67 L387.97 149.77 L386.88 149.35 L385.23 149.88 L383.50 151.27 L382.07 153.48 L381.17 155.66 L380.91 157.50 L381.62 158.78 L383.42 159.49 L385.68 159.75 " stroke-linecap='round' stroke-linejoin='round' brush-type='1' stroke-wetness='0.5'></path><path  style = ' stroke:#000000;  fill:none;  stroke-width:1.0;' d="M406.63 150.29 L405.61 150.24 L404.45 150.55 L402.53 151.42 L401.00 153.03 L400.24 154.95 L399.94 156.64 L400.36 157.65 L401.41 157.88 L402.99 157.24 L404.49 156.04 L405.50 154.46 L405.99 153.00 L406.14 151.94 L406.10 151.79 L405.95 152.66 L405.80 154.27 L405.76 156.07 L405.95 157.46 " stroke-linecap='round' stroke-linejoin='round' brush-type='1' stroke-wetness='0.5'></path><path  style = ' stroke:#000000;  fill:none;  stroke-width:1.0;' d="M408.99 159.30 L409.44 158.12 L409.59 157.20 L409.89 155.25 L409.89 153.56 L409.93 152.09 L410.23 151.08 L410.91 150.48 L411.92 150.14 L413.09 149.99 " stroke-linecap='round' stroke-linejoin='round' brush-type='1' stroke-wetness='0.5'></path><path  style = ' stroke:#000000;  fill:none;  stroke-width:1.0;' d="M414.96 153.56 L415.47 153.73 L416.28 153.71 L417.67 153.48 L419.05 152.81 L419.88 151.91 L420.29 150.97 L420.29 150.25 L419.84 149.80 L418.83 149.73 L417.40 150.29 L415.94 151.49 L414.89 153.18 L414.32 154.76 L414.51 155.96 L415.56 156.64 L417.37 156.90 L419.54 156.79 L421.27 156.49 " stroke-linecap='round' stroke-linejoin='round' brush-type='1' stroke-wetness='0.5'></path><path  style = ' stroke:#000000;  fill:none;  stroke-width:1.0;' d="M438.17 147.36 L437.38 147.93 L437.11 149.13 L436.59 151.16 L436.59 153.52 L436.63 155.47 L436.81 157.24 L437.23 158.59 " stroke-linecap='round' stroke-linejoin='round' brush-type='1' stroke-wetness='0.5'></path><path  style = ' stroke:#000000;  fill:none;  stroke-width:1.0;' d="M442.22 158.40 L441.94 157.39 L441.85 156.37 L441.66 154.57 L441.66 153.03 L441.77 151.83 L442.15 150.97 L442.86 150.52 L443.80 150.70 L444.70 151.68 L445.37 153.52 L445.71 155.81 L445.83 157.95 L445.83 159.49 " stroke-linecap='round' stroke-linejoin='round' brush-type='1' stroke-wetness='0.5'></path><path  style = ' stroke:#000000;  fill:none;  stroke-width:1.0;' d="M449.43 147.93 L449.82 148.66 L449.96 149.69 L450.22 151.79 L450.22 154.31 L450.22 156.67 L450.22 158.48 L450.26 159.42 " stroke-linecap='round' stroke-linejoin='round' brush-type='1' stroke-wetness='0.5'></path><path  style = ' stroke:#000000;  fill:none;  stroke-width:1.0;' d="M448.30 152.43 L448.70 152.15 L449.35 152.02 L450.78 151.68 L452.77 151.49 " stroke-linecap='round' stroke-linejoin='round' brush-type='1' stroke-wetness='0.5'></path><path  style = ' stroke:#000000;  fill:none;  stroke-width:1.0;' d="M457.20 154.01 L457.54 154.29 L458.40 154.23 L459.98 153.86 L461.63 152.88 L462.65 151.79 L463.06 150.93 L462.87 150.33 L462.01 149.95 L460.62 149.88 L459.04 150.52 L457.73 151.87 L456.86 153.75 L456.49 155.62 L456.90 157.24 L457.77 158.29 " stroke-linecap='round' stroke-linejoin='round' brush-type='1' stroke-wetness='0.5'></path><path  style = ' stroke:#000000;  fill:none;  stroke-width:1.0;' d="M470.04 149.73 L469.25 150.24 L468.69 150.97 L467.68 152.47 L467.11 154.35 L466.89 156.04 L467.23 157.16 L467.90 157.16 L468.84 156.22 L469.48 154.68 L469.89 152.88 L470.01 151.04 L470.04 149.50 L470.04 148.60 L470.04 149.24 L470.12 151.19 L470.23 154.27 L470.27 157.39 L469.78 160.24 L468.69 162.64 L467.00 164.52 L465.16 165.84 L463.36 166.55 L461.71 166.55 L460.47 166.02 " stroke-linecap='round' stroke-linejoin='round' brush-type='1' stroke-wetness='0.5'></path><path  style = ' stroke:#000000;  fill:none;  stroke-width:1.0;' d="M476.24 154.23 L476.69 154.23 L477.36 154.16 L478.53 153.82 L479.65 153.18 L480.33 152.32 L480.67 151.46 L480.48 150.70 L479.73 150.25 L478.45 150.25 L476.99 151.01 L475.75 152.39 L474.92 154.31 L474.55 156.22 L474.62 157.88 L475.26 159.08 L476.50 159.79 L478.08 160.13 L479.54 160.20 L480.52 160.09 L481.04 159.72 L481.23 158.89 L481.31 157.69 L481.31 156.15 L481.31 154.46 L481.49 152.77 L482.06 151.38 L483.18 150.40 L484.69 149.92 L486.30 149.73 " stroke-linecap='round' stroke-linejoin='round' brush-type='1' stroke-wetness='0.5'></path><path  style = ' stroke:#000000;  fill:none;  stroke-width:1.0;' d="M500.57 148.15 L499.67 148.21 L498.73 148.30 L496.93 148.68 L495.35 149.32 L494.26 150.14 L493.73 150.97 L493.92 151.83 L494.67 152.73 L495.72 153.67 L496.55 154.53 L496.96 155.44 L496.89 156.37 L496.18 157.43 L494.97 158.36 L493.62 159.04 L492.76 159.34 L492.83 159.15 " stroke-linecap='round' stroke-linejoin='round' brush-type='1' stroke-wetness='0.5'></path><path  style = ' stroke:#000000;  fill:none;  stroke-width:1.0;' d="M503.50 152.77 L503.10 152.77 L502.45 153.37 L501.39 154.61 L500.57 156.34 L500.38 157.69 L501.02 158.40 L502.41 158.29 L504.29 157.39 L506.01 156.04 L507.10 154.65 L507.59 153.48 L507.21 152.47 L506.31 151.79 L505.00 151.46 L503.80 151.64 L503.01 152.06 " stroke-linecap='round' stroke-linejoin='round' brush-type='1' stroke-wetness='0.5'></path><path  style = ' stroke:#000000;  fill:none;  stroke-width:1.0;' d="M510.93 146.12 L510.65 146.74 L510.41 148.30 L509.88 151.01 L509.35 154.16 L508.98 156.56 L508.83 158.33 L509.02 159.27 " stroke-linecap='round' stroke-linejoin='round' brush-type='1' stroke-wetness='0.5'></path><path  style = ' stroke:#000000;  fill:none;  stroke-width:1.0;' d="M511.38 157.84 L513.07 156.09 L513.63 156.04 L514.76 155.92 L514.76 157.35 L514.95 158.40 L515.47 158.93 L516.41 158.81 L517.58 158.03 L518.70 156.60 L519.53 154.76 L520.02 153.07 L520.24 151.98 L520.36 152.06 L520.39 153.22 L520.39 155.14 L520.39 157.09 L520.47 158.55 " stroke-linecap='round' stroke-linejoin='round' brush-type='1' stroke-wetness='0.5'></path><path  style = ' stroke:#000000;  fill:none;  stroke-width:1.0;' d="M525.57 147.25 L525.80 148.32 L525.87 149.92 L526.02 152.58 L526.02 155.17 L526.02 156.94 " stroke-linecap='round' stroke-linejoin='round' brush-type='1' stroke-wetness='0.5'></path><path  style = ' stroke:#000000;  fill:none;  stroke-width:1.0;' d="M522.87 150.40 L523.55 150.12 L524.60 150.03 L526.40 149.84 L527.98 149.84 " stroke-linecap='round' stroke-linejoin='round' brush-type='1' stroke-wetness='0.5'></path><path  style = ' stroke:#000000;  fill:none;  stroke-width:1.0;' d="M529.74 149.84 L530.36 151.76 L530.57 153.18 L530.91 155.74 L530.83 157.35 L530.76 158.29 " stroke-linecap='round' stroke-linejoin='round' brush-type='1' stroke-wetness='0.5'></path><path  style = ' stroke:#000000;  fill:none;  stroke-width:1.0;' d="M537.29 150.63 L536.50 151.53 L535.97 152.43 L535.00 154.31 L534.55 156.15 L534.47 157.65 L535.19 158.48 L536.58 158.48 L538.34 157.73 L539.69 156.49 L540.37 155.06 L540.44 153.67 L539.99 152.58 L539.20 151.94 L538.23 151.76 L537.40 152.06 L536.80 152.77 L536.50 153.75 " stroke-linecap='round' stroke-linejoin='round' brush-type='1' stroke-wetness='0.5'></path><path  style = ' stroke:#000000;  fill:none;  stroke-width:1.0;' d="M544.27 158.74 L544.16 157.84 L544.12 156.82 L544.05 155.06 L544.05 153.48 L544.27 152.36 L544.76 151.53 L545.66 151.12 L546.79 151.12 L547.95 151.68 L548.89 152.81 L549.45 154.31 L549.72 155.89 L549.79 157.24 " stroke-linecap='round' stroke-linejoin='round' brush-type='1' stroke-wetness='0.5'></path><path  style = ' stroke:#000000;  fill:none;  stroke-width:1.0;' d="M553.51 140.38 L554.63 139.87 L555.35 139.63 L556.78 139.22 L557.71 139.14 L558.46 139.33 L558.92 139.82 L559.07 140.83 L558.65 142.29 L557.75 144.25 L556.51 146.35 L555.57 148.34 L555.09 149.99 L555.20 151.27 L555.84 152.21 L556.93 152.77 " stroke-linecap='round' stroke-linejoin='round' brush-type='1' stroke-wetness='0.5'></path><path  style = ' stroke:#000000;  fill:none;  stroke-width:1.0;' d="M557.23 159.64 L557.00 159.25 L557.26 158.48 L557.68 157.24 L558.28 156.15 L558.69 155.85 " stroke-linecap='round' stroke-linejoin='round' brush-type='1' stroke-wetness='0.5'></path><path  style = ' stroke:#000000;  fill:none;  stroke-width:1.0;' d="M570.40 136.10 L569.84 136.66 L569.13 137.79 L567.66 140.04 L566.05 143.16 L564.70 146.57 L563.83 150.14 L563.50 153.33 L563.57 155.96 L564.28 157.99 L565.67 159.38 L567.51 160.13 " stroke-linecap='round' stroke-linejoin='round' brush-type='1' stroke-wetness='0.5'></path><path  style = ' stroke:#000000;  fill:none;  stroke-width:1.0;' d="M580.65 142.29 L580.65 142.97 L580.54 144.47 L580.39 147.18 L580.17 150.29 L580.05 153.03 L579.98 155.40 L579.98 157.28 L579.98 158.40 L580.02 159.00 L580.09 159.30 L579.87 159.45 L579.19 159.53 L577.95 159.38 L576.64 159.08 L575.40 158.66 L574.50 158.29 L573.93 157.95 " stroke-linecap='round' stroke-linejoin='round' brush-type='1' stroke-wetness='0.5'></path><path  style = ' stroke:#000000;  fill:none;  stroke-width:1.0;' d="M579.19 150.85 L578.68 150.80 L578.14 150.78 L576.94 150.74 L575.70 150.74 L574.57 150.74 L573.82 150.74 L573.45 150.70 " stroke-linecap='round' stroke-linejoin='round' brush-type='1' stroke-wetness='0.5'></path><path  style = ' stroke:#000000;  fill:none;  stroke-width:1.0;' d="M580.09 144.55 L579.13 144.10 L578.25 143.95 L576.71 143.65 L575.59 143.65 L574.83 143.72 " stroke-linecap='round' stroke-linejoin='round' brush-type='1' stroke-wetness='0.5'></path><path  style = ' stroke:#000000;  fill:none;  stroke-width:1.0;' d="M588.20 143.31 L587.36 144.21 L586.66 145.30 L585.27 147.85 L584.15 150.93 L583.43 154.12 L583.17 156.82 L583.70 158.70 L584.78 159.79 L586.17 160.20 L587.60 160.32 " stroke-linecap='round' stroke-linejoin='round' brush-type='1' stroke-wetness='0.5'></path><path  style = ' stroke:#000000;  fill:none;  stroke-width:1.0;' d="M592.26 154.80 L592.20 154.01 L592.37 153.15 L592.97 151.61 L594.10 150.44 L595.37 149.92 L596.31 150.29 L596.76 151.46 L596.65 153.26 L596.05 154.99 L595.15 156.22 L594.21 156.79 L593.46 156.79 L592.86 156.15 L592.37 154.76 L592.03 152.51 L591.81 149.69 L591.73 146.72 L591.69 144.40 L591.69 143.08 L591.69 143.57 L591.81 145.82 L592.07 149.32 L592.52 152.92 L593.20 155.81 L593.91 157.69 " stroke-linecap='round' stroke-linejoin='round' brush-type='1' stroke-wetness='0.5'></path><path  style = ' stroke:#000000;  fill:none;  stroke-width:1.0;' d="M598.79 154.68 L599.01 155.36 L599.13 156.22 L599.35 157.65 L599.47 158.89 L599.54 159.60 L599.58 160.05 " stroke-linecap='round' stroke-linejoin='round' brush-type='1' stroke-wetness='0.5'></path><path  style = ' stroke:#000000;  fill:none;  stroke-width:1.0;' d="M603.63 158.06 L603.63 158.74 L603.63 159.34 L603.48 160.39 L602.96 161.11 L601.94 161.56 L600.63 161.78 L599.43 161.89 L598.56 161.86 " stroke-linecap='round' stroke-linejoin='round' brush-type='1' stroke-wetness='0.5'></path><path  style = ' stroke:#000000;  fill:none;  stroke-width:1.0;' d="M608.70 157.50 a0.50 0.50 0 1 0 0.01 0 " stroke-linecap='round' stroke-linejoin='round' brush-type='1' stroke-wetness='0.5'></path><path  style = ' stroke:#000000;  fill:none;  stroke-width:1.0;' d="M610.73 157.73 a0.50 0.50 0 1 0 0.01 0 " stroke-linecap='round' stroke-linejoin='round' brush-type='1' stroke-wetness='0.5'></path><path  style = ' stroke:#000000;  fill:none;  stroke-width:1.0;' d="M615.12 156.71 a0.50 0.50 0 1 0 0.01 0 " stroke-linecap='round' stroke-linejoin='round' brush-type='1' stroke-wetness='0.5'></path><path  style = ' stroke:#000000;  fill:none;  stroke-width:1.0;' d="M620.30 157.61 L619.91 158.12 L619.63 158.78 L618.88 159.90 L617.98 160.95 L616.81 161.71 L615.72 162.19 L614.90 162.42 L614.33 162.23 " stroke-linecap='round' stroke-linejoin='round' brush-type='1' stroke-wetness='0.5'></path><path  style = ' stroke:#000000;  fill:none;  stroke-width:1.0;' d="M622.56 156.60 L622.61 156.04 L623.01 155.25 L623.98 153.86 L625.37 152.69 L626.69 152.13 L627.55 152.32 L627.96 153.22 L627.93 154.72 L627.36 156.34 L626.39 157.58 L625.15 158.25 L624.02 158.25 L623.16 157.31 L622.59 155.21 L622.33 152.02 L622.22 148.04 L622.26 144.40 L622.37 141.84 L622.52 140.83 L622.63 141.39 L622.67 143.57 L622.67 147.29 L622.67 151.23 L622.78 154.20 " stroke-linecap='round' stroke-linejoin='round' brush-type='1' stroke-wetness='0.5'></path><path  style = ' stroke:#000000;  fill:none;  stroke-width:1.0;' d="M628.98 159.75 L628.36 158.80 L628.15 158.03 L627.78 156.41 L628.04 155.14 L628.60 154.23 L629.43 153.90 L630.22 154.35 L630.78 155.40 L631.04 156.79 L631.12 157.91 L631.08 158.59 L631.04 158.40 L631.08 157.46 L631.42 156.07 L632.06 155.10 L632.84 154.65 L633.63 154.95 L634.23 155.81 L634.68 157.16 L634.87 158.55 L634.95 159.68 L634.91 160.35 " stroke-linecap='round' stroke-linejoin='round' brush-type='1' stroke-wetness='0.5'></path><path  style = ' stroke:#000000;  fill:none;  stroke-width:1.0;' d="M636.30 143.42 L636.75 143.98 L637.46 145.04 L638.85 147.18 L640.17 149.69 L640.92 152.09 L640.92 154.35 L640.09 156.52 L638.66 158.51 L636.97 160.09 L635.62 161.11 " stroke-linecap='round' stroke-linejoin='round' brush-type='1' stroke-wetness='0.5'></path><path  style = ' stroke:#000000;  fill:none;  stroke-width:1.0;' d="M648.24 148.71 L647.39 149.56 L646.77 150.52 L645.65 152.43 L644.86 154.42 L644.37 156.26 L644.11 157.69 L644.37 158.59 L645.16 158.96 L646.55 158.89 L647.94 158.48 " stroke-linecap='round' stroke-linejoin='round' brush-type='1' stroke-wetness='0.5'></path><path  style = ' stroke:#000000;  fill:none;  stroke-width:1.0;' d="M644.52 153.22 L644.86 153.39 L646.02 153.33 L648.05 153.00 " stroke-linecap='round' stroke-linejoin='round' brush-type='1' stroke-wetness='0.5'></path><path  style = ' stroke:#000000;  fill:none;  stroke-width:1.0;' d="M656.57 144.66 L656.85 144.55 L657.55 144.51 L658.98 144.43 L660.74 144.43 L662.28 144.43 L663.37 144.43 L664.01 144.43 L664.16 144.96 L663.59 146.39 L662.39 148.83 L660.74 151.68 L659.13 154.38 L657.70 156.67 L656.65 158.44 L655.97 159.60 " stroke-linecap='round' stroke-linejoin='round' brush-type='1' stroke-wetness='0.5'></path><path  style = ' stroke:#000000;  fill:none;  stroke-width:1.0;' d="M659.28 146.57 L659.00 147.14 L658.53 148.38 L657.51 150.74 L656.24 153.48 L655.03 155.77 L654.21 157.46 L653.83 158.55 L653.87 159.12 L654.55 159.38 L655.93 159.49 L657.89 159.53 L659.95 159.53 L661.83 159.49 L663.52 159.42 L664.87 159.23 L665.88 158.78 " stroke-linecap='round' stroke-linejoin='round' brush-type='1' stroke-wetness='0.5'></path><path  style = ' stroke:#000000;  fill:none;  stroke-width:1.0;' d="M667.05 145.67 L667.22 144.77 L667.27 144.13 L667.39 142.82 L667.42 141.77 L667.54 140.94 L667.72 140.42 L667.99 140.23 L668.36 140.34 L668.78 140.91 L669.11 141.81 L669.26 142.78 L669.26 143.50 L669.26 143.42 L669.53 142.67 L670.05 141.62 L670.69 141.02 L671.25 140.87 L671.67 141.36 L671.97 142.37 L672.08 143.83 L672.12 145.19 L672.12 146.12 " stroke-linecap='round' stroke-linejoin='round' brush-type='1' stroke-wetness='0.5'></path><path  style = ' stroke:#000000;  fill:none;  stroke-width:1.0;' d="M670.43 159.19 a0.50 0.50 0 1 0 0.01 0 " stroke-linecap='round' stroke-linejoin='round' brush-type='1' stroke-wetness='0.5'></path><path  style = ' stroke:#000000;  fill:none;  stroke-width:1.0;' d="M680.34 158.96 L680.40 158.68 L680.42 158.18 L680.45 157.05 L680.45 155.47 L680.45 153.37 L680.45 150.89 L680.45 148.08 L680.45 145.56 L680.64 143.61 L681.13 142.56 L682.03 142.14 L683.08 142.26 L683.98 142.97 L684.51 144.28 L684.62 145.94 L684.21 147.44 L683.34 148.64 L682.14 149.47 L681.02 150.03 L680.23 150.29 L679.74 150.37 " stroke-linecap='round' stroke-linejoin='round' brush-type='1' stroke-wetness='0.5'></path><path  style = ' stroke:#000000;  fill:none;  stroke-width:1.0;' d="M692.28 141.96 L691.77 142.18 L691.00 143.23 L689.61 145.41 L688.19 148.56 L687.29 151.61 L686.87 154.27 L687.25 156.22 L688.34 157.54 L689.99 158.25 L691.57 158.55 " stroke-linecap='round' stroke-linejoin='round' brush-type='1' stroke-wetness='0.5'></path><path  style = ' stroke:#000000;  fill:none;  stroke-width:1.0;' d="M696.33 154.80 L696.45 154.01 L696.97 153.22 L698.14 151.91 L699.71 151.12 L701.14 151.08 L702.00 152.02 L702.38 153.71 L702.04 155.77 L701.29 157.50 L700.20 158.66 L699.19 159.27 L698.32 159.27 L697.69 158.40 L697.24 156.45 L696.97 153.52 L696.79 150.33 L696.71 147.59 L696.67 145.86 L696.67 145.75 L696.67 147.33 L696.67 150.25 L696.67 153.45 L696.67 156.07 L696.67 157.69 L696.71 158.55 " stroke-linecap='round' stroke-linejoin='round' brush-type='1' stroke-wetness='0.5'></path><path  style = ' stroke:#000000;  fill:none;  stroke-width:1.0;' d="M696.11 142.97 L697.01 143.03 L697.84 143.12 L699.38 143.27 L700.50 143.42 L701.14 143.50 L701.03 143.20 L700.50 142.67 L699.86 142.03 L699.49 141.73 L699.49 141.88 " stroke-linecap='round' stroke-linejoin='round' brush-type='1' stroke-wetness='0.5'></path><path  style = ' stroke:#000000;  fill:none;  stroke-width:1.0;' d="M704.67 141.06 L705.51 141.73 L706.36 143.01 L707.75 145.37 L708.69 148.23 L709.10 150.97 L709.14 153.56 L708.76 155.77 L708.01 157.54 L707.07 158.81 L706.17 159.64 L705.35 160.02 L704.67 160.17 L704.26 160.05 " stroke-linecap='round' stroke-linejoin='round' brush-type='1' stroke-wetness='0.5'></path><path  style = ' stroke:#000000;  fill:none;  stroke-width:1.0;' d="M713.46 149.73 L713.85 149.73 L714.73 149.73 L716.31 149.73 L718.11 149.69 L719.35 149.65 " stroke-linecap='round' stroke-linejoin='round' brush-type='1' stroke-wetness='0.5'></path><path  style = ' stroke:#000000;  fill:none;  stroke-width:1.0;' d="M713.91 153.56 L714.36 153.56 L714.92 153.56 L716.31 153.37 " stroke-linecap='round' stroke-linejoin='round' brush-type='1' stroke-wetness='0.5'></path><path  style = ' stroke:#000000;  fill:none;  stroke-width:1.0;' d="M726.41 145.22 L725.79 145.39 L725.21 145.79 L724.01 146.80 L722.92 148.45 L722.09 150.59 L721.68 152.77 L721.90 154.61 L722.92 155.77 L724.64 156.34 L726.67 156.11 L728.40 155.21 L729.56 153.82 L730.09 152.21 L729.83 150.52 L728.85 148.83 L727.42 147.40 L726.26 146.50 " stroke-linecap='round' stroke-linejoin='round' brush-type='1' stroke-wetness='0.5'></path></g><g id='id-text-layer'  type='type-normal' preserveAspectRatio="none" ><text  style = 'fill: #000000; font-family:Helvetica-Light; font-size:18.0; ' preserveAspectRatio="none" x= '40' y='40' width = '688' height = '924' transform="rotate(   0,  384,  502)" ><tspan visibility='hidden'><![CDATA[]]></tspan></text></g><recordings ></recordings><defs   ></defs><htext lang='en_US' timestamp='20170413-121315'><![CDATA[Deft: A Diophantinttquatiory has form PG,..,Ym)=o where
P is a polynomial with integer coefficients
-General question: Given P (55-0 is there are integer solution? (IU.,bm)tZ? Plato]]></htext></svg> 