<?xml version="1.0" standalone="no"?> <!DOCTYPE svg PUBLIC "-//W3C//DTD SVG 1.1//EN" "http://www.w3.org/Graphics/SVG/1.1/DTD/svg11.dtd"> <svg   version="1.1"     xmlns="http://www.w3.org/2000/svg"  xmlns:xlink="http://www.w3.org/1999/xlink" name="" width="768.0" height="1024.0" background="N_PAPERBACKGROUND_WHITE_WITH_GRAY_LINE" line-height="30.0" margin-top="40.0" margin-right="40.0" margin-bottom="40.0" margin-left="40.0"><g id='id-background-layer'  type='type-normal' preserveAspectRatio="none" ><rect  style = ' stroke:#FFFFFF;  fill:#FFFFFF;  stroke-width:0.0;' x="0" y="0" width="768" height="1024" preserveAspectRatio="none" transform="rotate(   0,  384,  512)" ></rect><polyline  style = ' stroke:#D7D6D6;  fill:none;  stroke-width:1.0;' points = ' 0,70 768,70' preserveAspectRatio="none" transform="rotate(   0,  384,   70)" ></polyline><polyline  style = ' stroke:#D7D6D6;  fill:none;  stroke-width:1.0;' points = ' 0,100 768,100' preserveAspectRatio="none" transform="rotate(   0,  384,  100)" ></polyline><polyline  style = ' stroke:#D7D6D6;  fill:none;  stroke-width:1.0;' points = ' 0,130 768,130' preserveAspectRatio="none" transform="rotate(   0,  384,  130)" ></polyline><polyline  style = ' stroke:#D7D6D6;  fill:none;  stroke-width:1.0;' points = ' 0,160 768,160' preserveAspectRatio="none" transform="rotate(   0,  384,  160)" ></polyline><polyline  style = ' stroke:#D7D6D6;  fill:none;  stroke-width:1.0;' points = ' 0,190 768,190' preserveAspectRatio="none" transform="rotate(   0,  384,  190)" ></polyline><polyline  style = ' stroke:#D7D6D6;  fill:none;  stroke-width:1.0;' points = ' 0,220 768,220' preserveAspectRatio="none" transform="rotate(   0,  384,  220)" ></polyline><polyline  style = ' stroke:#D7D6D6;  fill:none;  stroke-width:1.0;' points = ' 0,250 768,250' preserveAspectRatio="none" transform="rotate(   0,  384,  250)" ></polyline><polyline  style = ' stroke:#D7D6D6;  fill:none;  stroke-width:1.0;' points = ' 0,280 768,280' preserveAspectRatio="none" transform="rotate(   0,  384,  280)" ></polyline><polyline  style = ' stroke:#D7D6D6;  fill:none;  stroke-width:1.0;' points = ' 0,310 768,310' preserveAspectRatio="none" transform="rotate(   0,  384,  310)" ></polyline><polyline  style = ' stroke:#D7D6D6;  fill:none;  stroke-width:1.0;' points = ' 0,340 768,340' preserveAspectRatio="none" transform="rotate(   0,  384,  340)" ></polyline><polyline  style = ' stroke:#D7D6D6;  fill:none;  stroke-width:1.0;' points = ' 0,370 768,370' preserveAspectRatio="none" transform="rotate(   0,  384,  370)" ></polyline><polyline  style = ' stroke:#D7D6D6;  fill:none;  stroke-width:1.0;' points = ' 0,400 768,400' preserveAspectRatio="none" transform="rotate(   0,  384,  400)" ></polyline><polyline  style = ' stroke:#D7D6D6;  fill:none;  stroke-width:1.0;' points = ' 0,430 768,430' preserveAspectRatio="none" transform="rotate(   0,  384,  430)" ></polyline><polyline  style = ' stroke:#D7D6D6;  fill:none;  stroke-width:1.0;' points = ' 0,460 768,460' preserveAspectRatio="none" transform="rotate(   0,  384,  460)" ></polyline><polyline  style = ' stroke:#D7D6D6;  fill:none;  stroke-width:1.0;' points = ' 0,490 768,490' preserveAspectRatio="none" transform="rotate(   0,  384,  490)" ></polyline><polyline  style = ' stroke:#D7D6D6;  fill:none;  stroke-width:1.0;' points = ' 0,520 768,520' preserveAspectRatio="none" transform="rotate(   0,  384,  520)" ></polyline><polyline  style = ' stroke:#D7D6D6;  fill:none;  stroke-width:1.0;' points = ' 0,550 768,550' preserveAspectRatio="none" transform="rotate(   0,  384,  550)" ></polyline><polyline  style = ' stroke:#D7D6D6;  fill:none;  stroke-width:1.0;' points = ' 0,580 768,580' preserveAspectRatio="none" transform="rotate(   0,  384,  580)" ></polyline><polyline  style = ' stroke:#D7D6D6;  fill:none;  stroke-width:1.0;' points = ' 0,610 768,610' preserveAspectRatio="none" transform="rotate(   0,  384,  610)" ></polyline><polyline  style = ' stroke:#D7D6D6;  fill:none;  stroke-width:1.0;' points = ' 0,640 768,640' preserveAspectRatio="none" transform="rotate(   0,  384,  640)" ></polyline><polyline  style = ' stroke:#D7D6D6;  fill:none;  stroke-width:1.0;' points = ' 0,670 768,670' preserveAspectRatio="none" transform="rotate(   0,  384,  670)" ></polyline><polyline  style = ' stroke:#D7D6D6;  fill:none;  stroke-width:1.0;' points = ' 0,700 768,700' preserveAspectRatio="none" transform="rotate(   0,  384,  700)" ></polyline><polyline  style = ' stroke:#D7D6D6;  fill:none;  stroke-width:1.0;' points = ' 0,730 768,730' preserveAspectRatio="none" transform="rotate(   0,  384,  730)" ></polyline><polyline  style = ' stroke:#D7D6D6;  fill:none;  stroke-width:1.0;' points = ' 0,760 768,760' preserveAspectRatio="none" transform="rotate(   0,  384,  760)" ></polyline><polyline  style = ' stroke:#D7D6D6;  fill:none;  stroke-width:1.0;' points = ' 0,790 768,790' preserveAspectRatio="none" transform="rotate(   0,  384,  790)" ></polyline><polyline  style = ' stroke:#D7D6D6;  fill:none;  stroke-width:1.0;' points = ' 0,820 768,820' preserveAspectRatio="none" transform="rotate(   0,  384,  820)" ></polyline><polyline  style = ' stroke:#D7D6D6;  fill:none;  stroke-width:1.0;' points = ' 0,850 768,850' preserveAspectRatio="none" transform="rotate(   0,  384,  850)" ></polyline><polyline  style = ' stroke:#D7D6D6;  fill:none;  stroke-width:1.0;' points = ' 0,880 768,880' preserveAspectRatio="none" transform="rotate(   0,  384,  880)" ></polyline><polyline  style = ' stroke:#D7D6D6;  fill:none;  stroke-width:1.0;' points = ' 0,910 768,910' preserveAspectRatio="none" transform="rotate(   0,  384,  910)" ></polyline><polyline  style = ' stroke:#D7D6D6;  fill:none;  stroke-width:1.0;' points = ' 0,940 768,940' preserveAspectRatio="none" transform="rotate(   0,  384,  940)" ></polyline><polyline  style = ' stroke:#D7D6D6;  fill:none;  stroke-width:1.0;' points = ' 0,970 768,970' preserveAspectRatio="none" transform="rotate(   0,  384,  970)" ></polyline><polyline  style = ' stroke:#C74F4F;  fill:none;  stroke-width:0.5;' points = ' 40,0 40,1024' preserveAspectRatio="none" transform="rotate(   0,   40,  512)" ></polyline><polyline  style = ' stroke:#B6B6B6; stroke-opacity:0.8; fill:none;  stroke-width:0.5;' points = ' 728,0 728,1024' preserveAspectRatio="none" transform="rotate(   0,  728,  512)" ></polyline></g><g id='id-main-layer'  type='type-normal' preserveAspectRatio="none" ><path  style = ' stroke:#000000;  fill:none;  stroke-width:1.0;' d="M48.99 78.13 L49.25 78.53 L49.43 79.37 L49.92 81.63 L50.32 85.12 L50.62 89.33 L50.71 93.13 L50.67 95.92 L50.62 97.38 L50.62 97.96 L51.20 97.87 L52.44 97.34 L54.34 96.41 L56.33 95.26 L57.93 94.24 " stroke-linecap='round' stroke-linejoin='round' brush-type='1' stroke-wetness='0.5'></path><path  style = ' stroke:#000000;  fill:none;  stroke-width:1.0;' d="M60.80 92.87 L61.53 92.93 L62.26 92.91 L63.86 92.56 L65.63 91.59 L67.35 90.12 L68.55 88.66 L69.08 87.56 L68.55 86.89 L67.18 86.58 L64.96 86.98 L62.66 88.22 L60.71 90.30 L59.56 92.60 L59.25 94.68 L60.09 96.19 L61.95 97.03 L64.96 97.07 " stroke-linecap='round' stroke-linejoin='round' brush-type='1' stroke-wetness='0.5'></path><path  style = ' stroke:#000000;  fill:none;  stroke-width:1.0;' d="M75.14 85.04 L75.21 85.77 L75.23 86.81 L75.27 89.02 L75.19 91.76 L74.88 94.51 L74.39 96.54 " stroke-linecap='round' stroke-linejoin='round' brush-type='1' stroke-wetness='0.5'></path><path  style = ' stroke:#000000;  fill:none;  stroke-width:1.0;' d="M69.83 90.61 L70.89 90.35 L72.35 90.26 L75.14 89.99 " stroke-linecap='round' stroke-linejoin='round' brush-type='1' stroke-wetness='0.5'></path><path  style = ' stroke:#000000;  fill:none;  stroke-width:1.0;' d="M91.07 97.91 L91.40 97.18 L91.78 96.36 L92.89 94.24 L94.39 91.23 L96.38 87.47 L98.46 83.62 L100.50 80.39 L102.27 78.00 L103.60 76.50 L104.44 75.70 L104.79 75.96 L104.52 77.60 L103.77 80.61 L102.62 84.46 L101.56 88.35 L100.81 91.81 L100.45 94.46 L100.81 96.41 L101.96 97.69 L104.08 98.40 L106.78 98.58 L109.66 98.09 L112.00 97.16 L113.37 96.05 L113.86 95.21 " stroke-linecap='round' stroke-linejoin='round' brush-type='1' stroke-wetness='0.5'></path><path  style = ' stroke:#000000;  fill:none;  stroke-width:1.0;' d="M92.00 89.55 L92.47 89.42 L93.37 89.37 L95.63 89.15 L98.95 88.84 L102.93 88.40 L107.05 87.96 L110.19 87.69 " stroke-linecap='round' stroke-linejoin='round' brush-type='1' stroke-wetness='0.5'></path><path  style = ' stroke:#000000;  fill:none;  stroke-width:1.0;' d="M128.51 95.52 L128.77 94.53 L129.13 93.75 L130.24 92.25 L131.78 91.19 L133.60 90.57 L135.10 90.66 L136.03 91.76 L136.34 93.75 L135.77 96.01 L134.57 97.74 L132.89 98.62 L131.25 98.75 L129.75 97.56 L128.55 94.64 L127.76 89.95 L127.40 85.12 L127.40 81.41 L127.62 79.59 L128.11 79.46 L128.82 81.14 L129.66 84.64 L130.50 88.93 L131.43 92.82 " stroke-linecap='round' stroke-linejoin='round' brush-type='1' stroke-wetness='0.5'></path><path  style = ' stroke:#000000;  fill:none;  stroke-width:1.0;' d="M140.59 92.60 L141.32 92.54 L142.32 92.34 L144.31 91.63 L146.39 90.30 L148.02 88.53 L148.95 86.89 L149.26 85.74 L148.64 85.21 L147.27 85.26 L145.15 86.27 L143.02 88.35 L141.34 91.19 L140.41 94.06 L140.37 96.50 L141.43 98.27 L143.91 99.24 L147.71 99.11 " stroke-linecap='round' stroke-linejoin='round' brush-type='1' stroke-wetness='0.5'></path><path  style = ' stroke:#000000;  fill:none;  stroke-width:1.0;' d="M171.12 85.57 L170.13 85.70 L168.96 86.23 L166.92 87.51 L165.24 89.59 L164.35 92.03 L164.35 94.37 L165.64 96.01 " stroke-linecap='round' stroke-linejoin='round' brush-type='1' stroke-wetness='0.5'></path><path  style = ' stroke:#000000;  fill:none;  stroke-width:1.0;' d="M176.43 94.59 L177.10 93.33 L176.39 93.00 L175.20 92.56 L173.03 93.49 L171.52 94.86 L170.68 96.32 L170.50 97.38 L171.17 97.91 L172.50 97.74 L174.13 96.90 L175.37 95.57 L176.04 94.28 L176.26 93.67 L176.08 95.21 L175.86 97.56 " stroke-linecap='round' stroke-linejoin='round' brush-type='1' stroke-wetness='0.5'></path><path  style = ' stroke:#000000;  fill:none;  stroke-width:1.0;' d="M183.34 86.89 L183.21 87.62 L183.16 89.11 L183.07 91.90 L183.07 95.04 L183.03 97.43 L182.98 98.80 " stroke-linecap='round' stroke-linejoin='round' brush-type='1' stroke-wetness='0.5'></path><path  style = ' stroke:#000000;  fill:none;  stroke-width:1.0;' d="M180.28 90.74 L182.74 90.68 L185.29 90.66 L189.93 90.61 " stroke-linecap='round' stroke-linejoin='round' brush-type='1' stroke-wetness='0.5'></path><path  style = ' stroke:#000000;  fill:none;  stroke-width:1.0;' d="M195.15 93.67 L195.42 93.80 L196.30 93.84 L198.03 93.84 L200.29 93.44 L202.32 92.60 L203.87 91.45 L204.76 90.26 L204.98 89.20 L204.27 88.40 L202.63 87.96 L200.07 88.40 L197.23 89.86 L194.71 92.12 L193.03 94.42 L192.28 96.28 L192.76 97.56 L194.53 98.27 L197.90 98.36 L201.35 97.78 " stroke-linecap='round' stroke-linejoin='round' brush-type='1' stroke-wetness='0.5'></path><path  style = ' stroke:#000000;  fill:none;  stroke-width:1.0;' d="M211.35 93.00 L211.81 91.94 L211.17 91.72 L210.24 91.67 L208.74 93.00 L208.03 94.95 L207.94 96.72 L208.78 97.87 L210.16 97.87 L211.84 96.72 L213.03 94.82 L213.74 92.69 L213.96 90.97 L214.01 89.90 L214.01 89.95 L214.14 91.59 L214.40 94.37 L214.71 97.78 L214.89 100.83 L214.40 103.44 L213.03 105.48 L210.64 107.07 L207.77 108.14 L204.54 108.45 L201.79 107.69 L200.02 106.37 " stroke-linecap='round' stroke-linejoin='round' brush-type='1' stroke-wetness='0.5'></path><path  style = ' stroke:#000000;  fill:none;  stroke-width:1.0;' d="M225.42 91.41 L224.43 91.54 L223.43 91.76 L221.44 92.51 L219.58 93.84 L218.08 95.70 L217.24 97.60 L217.28 99.06 L218.65 99.82 L221.04 99.24 L223.74 97.60 L225.78 95.13 L226.79 92.87 L226.71 91.10 L225.60 90.17 L223.87 89.99 L222.06 90.88 L220.73 92.69 L220.02 95.17 " stroke-linecap='round' stroke-linejoin='round' brush-type='1' stroke-wetness='0.5'></path><path  style = ' stroke:#000000;  fill:none;  stroke-width:1.0;' d="M229.54 100.17 L229.47 99.71 L229.32 98.71 L228.96 96.72 L228.65 94.28 L228.65 92.20 L229.45 90.61 L231.00 89.55 L233.34 88.97 L235.51 88.75 " stroke-linecap='round' stroke-linejoin='round' brush-type='1' stroke-wetness='0.5'></path><path  style = ' stroke:#000000;  fill:none;  stroke-width:1.0;' d="M241.35 91.41 L241.02 92.67 L240.51 93.93 L239.49 96.59 L238.26 99.42 L237.02 102.16 " stroke-linecap='round' stroke-linejoin='round' brush-type='1' stroke-wetness='0.5'></path><path  style = ' stroke:#000000;  fill:none;  stroke-width:1.0;' d="M236.97 100.97 L236.97 99.51 L236.75 98.05 L236.18 95.48 L235.42 93.53 L234.58 92.25 " stroke-linecap='round' stroke-linejoin='round' brush-type='1' stroke-wetness='0.5'></path><path  style = ' stroke:#000000;  fill:none;  stroke-width:1.0;' d="M266.98 91.67 L266.05 91.21 L264.85 91.05 L262.86 90.92 L260.96 91.63 L259.59 93.13 L258.61 95.13 L258.21 96.90 L258.74 97.91 L260.20 97.74 L262.33 96.45 L264.36 94.42 L265.69 92.43 L266.36 91.05 L266.53 90.43 L266.27 91.45 L265.78 93.62 L265.29 96.54 L265.16 98.53 " stroke-linecap='round' stroke-linejoin='round' brush-type='1' stroke-wetness='0.5'></path><path  style = ' stroke:#000000;  fill:none;  stroke-width:1.0;' d="M268.70 98.05 L268.24 97.05 L268.08 96.14 L267.86 94.20 L268.44 92.34 L269.59 90.79 L271.18 89.95 L272.73 90.04 L273.83 91.05 L274.45 92.91 L274.63 95.21 L274.68 97.25 " stroke-linecap='round' stroke-linejoin='round' brush-type='1' stroke-wetness='0.5'></path><path  style = ' stroke:#000000;  fill:none;  stroke-width:1.0;' d="M280.65 93.27 L279.79 92.93 L279.01 92.91 L277.46 93.31 L276.09 94.73 L275.03 96.85 L274.45 98.89 L274.28 100.26 L274.68 100.83 L275.47 100.52 L276.71 99.24 L277.91 96.72 L278.79 93.13 L279.23 88.89 L279.32 84.86 L279.28 81.94 L279.19 80.48 L278.97 81.05 L278.57 83.80 L278.04 88.13 L277.60 92.65 L277.37 96.28 L277.37 98.67 " stroke-linecap='round' stroke-linejoin='round' brush-type='1' stroke-wetness='0.5'></path><path  style = ' stroke:#000000;  fill:none;  stroke-width:1.0;' d="M307.20 78.40 L307.47 78.53 L308.84 78.58 L311.58 78.62 L315.43 78.53 L319.10 78.40 L322.38 78.27 L324.86 78.18 L326.45 78.13 L326.41 78.00 " stroke-linecap='round' stroke-linejoin='round' brush-type='1' stroke-wetness='0.5'></path><path  style = ' stroke:#000000;  fill:none;  stroke-width:1.0;' d="M322.60 78.00 L321.34 78.60 L320.92 79.59 L320.08 81.94 L320.03 85.12 L319.95 88.58 L319.81 91.76 L319.68 94.28 L319.59 96.14 L319.55 97.34 " stroke-linecap='round' stroke-linejoin='round' brush-type='1' stroke-wetness='0.5'></path><path  style = ' stroke:#000000;  fill:none;  stroke-width:1.0;' d="M311.85 96.59 L312.71 96.72 L314.41 96.76 L317.69 96.85 L321.54 96.85 L325.03 96.85 L328.18 96.85 L330.79 96.81 L332.60 96.72 " stroke-linecap='round' stroke-linejoin='round' brush-type='1' stroke-wetness='0.5'></path><path  style = ' stroke:#000000;  fill:none;  stroke-width:1.0;' d="M350.61 93.13 L350.81 92.01 L351.06 91.36 L351.85 89.73 L353.09 88.44 L354.68 87.34 L356.19 87.07 L357.29 88.00 L357.87 89.90 L357.56 92.43 L356.59 94.55 L355.13 95.88 L353.62 96.36 L352.07 95.74 L350.52 93.89 L349.33 90.30 L348.67 85.79 L348.62 81.41 L348.93 78.49 L349.42 77.20 L349.95 77.69 L350.48 79.81 L351.06 83.53 L351.72 87.60 L352.65 91.05 " stroke-linecap='round' stroke-linejoin='round' brush-type='1' stroke-wetness='0.5'></path><path  style = ' stroke:#000000;  fill:none;  stroke-width:1.0;' d="M361.63 91.67 L362.23 91.81 L362.91 91.85 L364.42 91.67 L366.06 90.83 L367.47 89.33 L368.31 87.65 L368.45 86.19 L367.65 85.35 L366.01 84.95 L363.84 85.57 L361.81 87.12 L360.44 89.46 L359.86 91.81 L360.61 93.71 L362.91 94.99 L367.03 95.61 " stroke-linecap='round' stroke-linejoin='round' brush-type='1' stroke-wetness='0.5'></path><path  style = ' stroke:#000000;  fill:none;  stroke-width:1.0;' d="M394.29 88.49 L393.29 88.16 L392.25 88.05 L390.22 87.82 L388.14 88.18 L386.19 89.15 L384.55 90.74 L383.63 92.69 L383.45 94.42 L384.29 95.61 L385.84 95.92 L387.83 95.26 L389.60 93.84 L390.84 92.12 L391.50 90.57 L391.72 89.55 L391.77 89.99 L391.77 91.76 L392.03 94.51 L392.61 96.50 " stroke-linecap='round' stroke-linejoin='round' brush-type='1' stroke-wetness='0.5'></path><path  style = ' stroke:#000000;  fill:none;  stroke-width:1.0;' d="M408.76 89.82 L407.50 89.68 L406.42 89.73 L404.38 90.04 L402.74 90.79 L401.64 91.72 L401.06 92.65 L401.41 93.49 L402.61 94.37 L404.29 95.17 L405.75 95.88 L406.59 96.50 L406.95 97.07 L406.77 97.69 L405.93 98.27 L404.60 98.71 L403.41 98.93 " stroke-linecap='round' stroke-linejoin='round' brush-type='1' stroke-wetness='0.5'></path><path  style = ' stroke:#000000;  fill:none;  stroke-width:1.0;' d="M412.74 96.59 L412.54 96.05 L412.48 95.08 L412.39 93.31 L412.96 91.45 L414.16 90.21 L415.93 89.59 L417.70 89.64 L419.07 90.39 L419.82 91.72 L420.00 93.40 L419.65 94.77 L419.16 95.66 L418.67 95.88 L418.50 95.17 L418.98 93.62 L420.27 91.72 L422.08 90.52 L423.59 90.35 L424.34 91.28 L424.56 92.96 L424.51 95.17 L424.43 97.25 L424.25 98.80 " stroke-linecap='round' stroke-linejoin='round' brush-type='1' stroke-wetness='0.5'></path><path  style = ' stroke:#000000;  fill:none;  stroke-width:1.0;' d="M430.40 92.60 L429.94 92.34 L429.03 92.29 L427.52 92.51 L426.06 93.53 L425.31 95.08 L425.09 96.59 L425.80 97.47 L427.35 97.34 L429.38 96.19 L431.11 94.46 L432.08 92.78 L432.48 91.67 L432.48 91.14 L432.13 91.36 L431.51 92.91 L430.84 95.17 L430.49 97.38 " stroke-linecap='round' stroke-linejoin='round' brush-type='1' stroke-wetness='0.5'></path><path  style = ' stroke:#000000;  fill:none;  stroke-width:1.0;' d="M434.91 83.04 L435.11 83.64 L435.18 84.64 L435.31 86.94 L435.31 89.82 L435.31 92.78 L435.31 95.04 " stroke-linecap='round' stroke-linejoin='round' brush-type='1' stroke-wetness='0.5'></path><path  style = ' stroke:#000000;  fill:none;  stroke-width:1.0;' d="M438.76 82.38 L439.10 83.18 L439.21 84.42 L439.43 87.07 L439.43 90.39 L439.52 93.71 L439.87 96.50 " stroke-linecap='round' stroke-linejoin='round' brush-type='1' stroke-wetness='0.5'></path><path  style = ' stroke:#000000;  fill:none;  stroke-width:1.0;' d="M462.79 88.62 L461.80 88.35 L460.27 88.62 L457.70 89.37 L455.14 91.10 L453.37 93.31 L452.26 95.66 L452.22 97.69 L453.63 99.02 L455.93 99.64 " stroke-linecap='round' stroke-linejoin='round' brush-type='1' stroke-wetness='0.5'></path><path  style = ' stroke:#000000;  fill:none;  stroke-width:1.0;' d="M470.23 91.28 L469.43 90.74 L468.68 90.66 L467.13 90.79 L465.71 91.98 L464.65 93.84 L464.12 95.88 L464.21 97.34 L465.01 97.96 L466.33 97.34 L467.88 95.83 L469.08 93.71 L469.78 91.98 L469.96 91.81 L469.74 93.31 L469.30 96.01 L468.94 98.44 L468.77 99.99 " stroke-linecap='round' stroke-linejoin='round' brush-type='1' stroke-wetness='0.5'></path><path  style = ' stroke:#000000;  fill:none;  stroke-width:1.0;' d="M475.54 86.76 L475.40 87.62 L475.36 89.28 L475.18 92.29 L475.01 95.66 L474.83 98.18 " stroke-linecap='round' stroke-linejoin='round' brush-type='1' stroke-wetness='0.5'></path><path  style = ' stroke:#000000;  fill:none;  stroke-width:1.0;' d="M470.89 91.54 L471.75 91.41 L473.10 91.36 L475.58 91.28 L477.93 91.28 " stroke-linecap='round' stroke-linejoin='round' brush-type='1' stroke-wetness='0.5'></path><path  style = ' stroke:#000000;  fill:none;  stroke-width:1.0;' d="M482.18 93.67 L482.57 94.06 L483.28 94.20 L484.92 94.11 L487.00 93.27 L488.90 91.90 L490.10 90.48 L490.58 89.20 L490.32 88.22 L489.39 87.60 L487.66 87.78 L485.63 89.06 L483.72 91.28 L482.49 93.75 L482.00 95.88 L482.75 97.34 L484.43 98.09 " stroke-linecap='round' stroke-linejoin='round' brush-type='1' stroke-wetness='0.5'></path><path  style = ' stroke:#000000;  fill:none;  stroke-width:1.0;' d="M501.16 91.01 L500.83 90.48 L500.14 90.30 L498.73 90.17 L496.91 90.83 L495.23 92.07 L494.12 93.67 L493.68 95.17 L494.34 96.10 L495.81 95.92 L497.89 94.68 L499.74 92.82 L500.94 90.97 L501.47 89.42 L501.38 88.31 L500.98 87.74 L500.45 87.91 L500.05 89.11 L499.88 91.45 L499.83 94.42 L499.83 97.43 L499.66 99.95 L498.99 101.98 L497.66 103.44 L495.76 104.37 L493.46 104.86 L490.98 104.86 L488.95 104.42 L487.53 103.36 " stroke-linecap='round' stroke-linejoin='round' brush-type='1' stroke-wetness='0.5'></path><path  style = ' stroke:#000000;  fill:none;  stroke-width:1.0;' d="M514.04 89.28 L513.24 89.15 L511.78 89.37 L509.21 90.04 L506.38 91.59 L504.21 93.75 L502.75 96.14 L502.18 98.09 L502.97 99.20 L505.19 99.20 L508.42 97.96 L511.60 96.01 L513.82 93.89 L514.97 92.29 L514.92 91.05 L513.95 90.39 L512.27 90.08 L510.41 90.48 L508.77 91.54 L507.75 93.44 " stroke-linecap='round' stroke-linejoin='round' brush-type='1' stroke-wetness='0.5'></path><path  style = ' stroke:#000000;  fill:none;  stroke-width:1.0;' d="M518.68 98.71 L518.48 97.71 L518.42 96.23 L518.29 93.53 L518.51 90.74 L519.39 88.66 L521.07 87.38 L523.42 86.81 L525.68 86.67 " stroke-linecap='round' stroke-linejoin='round' brush-type='1' stroke-wetness='0.5'></path><path  style = ' stroke:#000000;  fill:none;  stroke-width:1.0;' d="M534.61 88.49 L534.08 89.48 L533.46 90.74 L532.05 93.49 L530.41 96.85 L528.60 100.57 L527.22 103.58 " stroke-linecap='round' stroke-linejoin='round' brush-type='1' stroke-wetness='0.5'></path><path  style = ' stroke:#000000;  fill:none;  stroke-width:1.0;' d="M529.70 94.99 L528.71 93.67 L527.62 92.65 L525.54 90.70 L523.51 89.15 L521.91 88.00 " stroke-linecap='round' stroke-linejoin='round' brush-type='1' stroke-wetness='0.5'></path><path  style = ' stroke:#000000;  fill:none;  stroke-width:1.0;' d="M56.42 108.40 L56.16 109.07 L55.89 110.57 L55.40 113.62 L55.05 117.61 L54.83 121.50 L54.70 125.00 L54.61 127.70 L54.56 129.29 L54.65 129.55 " stroke-linecap='round' stroke-linejoin='round' brush-type='1' stroke-wetness='0.5'></path><path  style = ' stroke:#000000;  fill:none;  stroke-width:1.0;' d="M58.15 109.73 L58.41 110.39 L58.50 111.50 L58.81 114.15 L59.08 117.78 L59.43 121.77 L59.65 125.17 L59.74 127.47 " stroke-linecap='round' stroke-linejoin='round' brush-type='1' stroke-wetness='0.5'></path><path  style = ' stroke:#000000;  fill:none;  stroke-width:1.0;' d="M55.09 119.95 L55.82 119.82 L57.13 119.77 L59.65 119.69 L62.13 119.69 " stroke-linecap='round' stroke-linejoin='round' brush-type='1' stroke-wetness='0.5'></path><path  style = ' stroke:#000000;  fill:none;  stroke-width:1.0;' d="M67.57 120.08 L66.38 120.42 L65.58 121.10 L64.34 122.43 L63.90 124.11 L63.90 125.44 L64.34 126.23 L65.36 125.88 L66.82 124.55 L68.24 122.52 L69.17 120.70 L69.61 119.55 L69.70 119.69 L69.52 120.92 L69.17 122.96 L68.81 124.73 " stroke-linecap='round' stroke-linejoin='round' brush-type='1' stroke-wetness='0.5'></path><path  style = ' stroke:#000000;  fill:none;  stroke-width:1.0;' d="M72.22 119.29 L72.29 120.02 L72.31 120.88 L72.35 122.65 L72.35 124.42 L72.35 125.70 L72.66 126.32 L73.41 125.97 L74.61 124.69 L75.89 122.56 L77.04 120.39 L77.84 118.89 L78.28 118.23 " stroke-linecap='round' stroke-linejoin='round' brush-type='1' stroke-wetness='0.5'></path><path  style = ' stroke:#000000;  fill:none;  stroke-width:1.0;' d="M78.59 123.93 L79.12 124.27 L79.65 124.38 L80.85 124.20 L82.04 123.31 L83.06 121.99 L83.64 120.75 L83.55 119.86 L82.75 119.42 L81.29 119.55 L79.61 120.53 L78.15 122.25 L77.26 124.24 L76.96 125.93 L77.62 127.08 L79.39 127.78 L82.18 128.09 L85.14 127.87 " stroke-linecap='round' stroke-linejoin='round' brush-type='1' stroke-wetness='0.5'></path><path  style = ' stroke:#000000;  fill:none;  stroke-width:1.0;' d="M108.60 112.91 L107.47 112.45 L106.47 112.34 L104.70 112.25 L103.37 112.78 L102.58 113.76 L102.18 115.39 L102.13 117.74 L102.31 120.48 L102.53 123.05 L102.71 125.00 L102.75 126.28 L102.67 126.94 " stroke-linecap='round' stroke-linejoin='round' brush-type='1' stroke-wetness='0.5'></path><path  style = ' stroke:#000000;  fill:none;  stroke-width:1.0;' d="M101.29 120.88 L102.02 121.08 L102.84 121.15 L104.52 121.28 L105.98 121.28 " stroke-linecap='round' stroke-linejoin='round' brush-type='1' stroke-wetness='0.5'></path><path  style = ' stroke:#000000;  fill:none;  stroke-width:1.0;' d="M112.05 120.75 L111.52 121.68 L111.34 122.74 L110.99 124.55 L110.99 125.97 L111.34 126.68 L112.22 126.50 L113.68 125.35 L115.15 123.54 L116.21 121.85 L116.69 120.84 L116.83 121.46 L116.83 123.27 L116.83 125.97 L116.83 127.96 " stroke-linecap='round' stroke-linejoin='round' brush-type='1' stroke-wetness='0.5'></path><path  style = ' stroke:#000000;  fill:none;  stroke-width:1.0;' d="M118.95 128.45 L119.02 127.78 L119.04 127.12 L119.35 125.70 L120.01 124.29 L120.99 123.14 L121.92 122.52 L122.67 122.56 L123.24 123.45 L123.64 125.04 L123.82 126.99 L123.86 128.58 " stroke-linecap='round' stroke-linejoin='round' brush-type='1' stroke-wetness='0.5'></path><path  style = ' stroke:#000000;  fill:none;  stroke-width:1.0;' d="M131.56 120.88 L130.37 121.28 L129.70 121.59 L128.20 122.61 L127.14 123.98 L126.30 125.70 L125.90 127.25 L126.30 128.36 L127.36 128.93 L128.82 129.02 " stroke-linecap='round' stroke-linejoin='round' brush-type='1' stroke-wetness='0.5'></path><path  style = ' stroke:#000000;  fill:none;  stroke-width:1.0;' d="M136.08 117.56 L136.08 118.23 L136.08 119.51 L136.08 122.03 L136.08 125.00 L136.03 127.56 L135.86 129.24 " stroke-linecap='round' stroke-linejoin='round' brush-type='1' stroke-wetness='0.5'></path><path  style = ' stroke:#000000;  fill:none;  stroke-width:1.0;' d="M133.42 122.74 L133.95 122.21 L134.70 121.99 L136.39 121.54 L138.38 121.46 L140.24 121.46 L141.61 121.59 L142.49 121.72 L142.98 121.81 L143.07 121.99 L142.63 122.52 L141.83 123.67 L141.12 125.26 L140.77 126.94 L140.94 128.18 L141.79 128.80 L143.42 128.36 L145.28 127.12 L146.61 125.31 L147.10 123.58 L146.65 122.16 L145.55 121.23 L144.00 120.84 L142.58 121.01 L141.61 121.99 " stroke-linecap='round' stroke-linejoin='round' brush-type='1' stroke-wetness='0.5'></path><path  style = ' stroke:#000000;  fill:none;  stroke-width:1.0;' d="M146.56 127.52 L146.23 126.46 L146.12 125.26 L146.12 123.18 L146.92 121.32 L148.33 120.08 L150.06 119.33 L151.56 119.07 L152.72 119.11 L153.38 119.51 L153.73 120.08 " stroke-linecap='round' stroke-linejoin='round' brush-type='1' stroke-wetness='0.5'></path><path  style = ' stroke:#000000;  fill:none;  stroke-width:1.0;' d="M172.32 128.85 L172.65 128.58 L173.20 128.01 L174.35 126.77 L175.95 124.91 L177.76 122.65 L179.71 119.86 L181.48 116.76 L183.03 113.53 L184.22 110.70 L185.11 108.67 L185.60 107.65 L185.82 107.91 L185.86 109.68 L185.68 113.05 L185.24 117.25 L184.71 121.32 L184.36 124.64 L184.31 127.16 L184.71 128.98 L185.64 130.17 L187.23 130.75 L189.22 130.84 L191.30 130.31 L192.99 129.42 L194.05 128.45 L194.49 127.65 " stroke-linecap='round' stroke-linejoin='round' brush-type='1' stroke-wetness='0.5'></path><path  style = ' stroke:#000000;  fill:none;  stroke-width:1.0;' d="M177.10 120.08 L177.70 120.08 L178.91 120.04 L181.35 119.91 L184.31 119.73 L187.10 119.60 L189.49 119.55 L191.26 119.55 L192.28 119.55 " stroke-linecap='round' stroke-linejoin='round' brush-type='1' stroke-wetness='0.5'></path><path  style = ' stroke:#000000;  fill:none;  stroke-width:1.0;' d="M207.10 120.48 L208.76 120.35 L221.44 120.13 L234.80 119.77 L247.11 119.42 L247.28 119.15 L247.28 118.89 L247.11 118.71 " stroke-linecap='round' stroke-linejoin='round' brush-type='1' stroke-wetness='0.5'></path><path  style = ' stroke:#000000;  fill:none;  stroke-width:1.0;' d="M249.72 117.69 L249.25 117.03 L248.65 116.37 L247.59 115.17 L246.62 114.29 L246.00 113.71 L245.60 113.45 L245.56 113.58 L245.96 114.11 L246.75 114.95 L247.50 115.79 L247.90 116.76 L247.90 117.96 L247.42 119.51 L246.49 121.23 L245.38 122.87 L244.45 124.24 L243.92 125.17 " stroke-linecap='round' stroke-linejoin='round' brush-type='1' stroke-wetness='0.5'></path><path  style = ' stroke:#000000;  fill:none;  stroke-width:1.0;' d="M217.99 114.64 L218.52 114.44 L219.09 113.98 L220.29 112.87 L221.48 111.32 L222.59 109.64 L223.48 108.09 L224.14 106.85 L224.63 106.06 L224.94 105.66 L225.42 105.88 L226.09 106.72 L227.02 108.27 L227.99 110.08 L228.96 111.81 L229.89 113.27 L230.64 114.33 L231.18 115.04 L231.48 115.39 L231.35 115.53 L230.64 115.57 L229.23 115.57 L227.33 115.48 L225.11 115.30 L222.90 115.04 L221.00 114.86 L219.58 114.77 L218.70 114.73 " stroke-linecap='round' stroke-linejoin='round' brush-type='1' stroke-wetness='0.5'></path><path  style = ' stroke:#000000;  fill:none;  stroke-width:1.0;' d="M255.69 129.78 L255.96 129.44 L256.49 128.31 L257.77 126.01 L259.63 122.69 L261.71 119.11 L263.61 115.53 L265.21 112.38 L266.36 110.17 L267.20 108.89 L267.59 108.49 L267.77 109.60 L267.64 111.85 L267.20 115.13 L266.58 118.36 L265.91 121.50 L265.56 124.20 L265.38 126.37 L265.60 127.96 L266.31 129.16 L267.59 129.91 L269.41 130.35 L271.49 130.53 L273.52 130.26 L275.07 129.69 L276.00 128.80 L276.40 127.87 L276.53 127.03 " stroke-linecap='round' stroke-linejoin='round' brush-type='1' stroke-wetness='0.5'></path><path  style = ' stroke:#000000;  fill:none;  stroke-width:1.0;' d="M259.14 121.28 L259.54 121.15 L260.16 121.10 L261.80 120.97 L264.19 120.79 L266.98 120.48 L269.67 120.13 L271.84 119.91 L273.48 119.82 L274.54 119.73 " stroke-linecap='round' stroke-linejoin='round' brush-type='1' stroke-wetness='0.5'></path><path  style = ' stroke:#000000;  fill:none;  stroke-width:1.0;' d="M277.07 104.95 L277.60 104.82 L278.66 104.77 L280.69 104.68 L283.04 104.68 L284.94 104.68 L286.23 104.68 L286.89 104.68 " stroke-linecap='round' stroke-linejoin='round' brush-type='1' stroke-wetness='0.5'></path><path  style = ' stroke:#000000;  fill:none;  stroke-width:1.0;' d="M281.58 107.47 L281.78 108.14 L281.84 109.11 L281.98 110.79 L281.98 112.38 L281.98 113.53 L281.98 114.24 " stroke-linecap='round' stroke-linejoin='round' brush-type='1' stroke-wetness='0.5'></path><path  style = ' stroke:#000000;  fill:none;  stroke-width:1.0;' d="M279.32 112.78 L279.72 112.91 L280.43 112.96 L281.98 113.05 L284.06 113.05 L286.27 113.05 L288.31 113.05 L289.81 113.05 " stroke-linecap='round' stroke-linejoin='round' brush-type='1' stroke-wetness='0.5'></path><path  style = ' stroke:#000000;  fill:none;  stroke-width:1.0;' d="M315.30 126.32 L314.83 125.13 L315.25 123.85 L316.41 121.59 L318.66 119.95 L320.92 119.33 L322.42 120.31 L323.04 122.69 L322.51 125.88 L321.14 128.67 L319.10 130.44 L317.07 131.28 L315.21 130.84 L313.71 129.02 L312.64 125.57 L312.11 120.97 L312.33 116.19 L313.04 112.38 L314.02 110.30 L314.81 109.91 L315.30 111.63 L315.52 115.70 L315.48 121.37 L315.25 126.81 L315.03 130.70 L315.03 132.92 " stroke-linecap='round' stroke-linejoin='round' brush-type='1' stroke-wetness='0.5'></path><path  style = ' stroke:#000000;  fill:none;  stroke-width:1.0;' d="M329.64 120.08 L329.64 120.61 L329.46 122.65 L328.80 126.68 L327.69 131.94 L326.45 136.32 L325.61 139.16 L325.21 138.63 L325.12 135.57 L324.95 131.28 L324.59 128.18 L324.11 126.46 L323.75 125.66 " stroke-linecap='round' stroke-linejoin='round' brush-type='1' stroke-wetness='0.5'></path><path  style = ' stroke:#000000;  fill:none;  stroke-width:1.0;' d="M341.59 131.77 L341.98 131.10 L342.69 129.82 L344.11 127.30 L345.79 124.07 L347.43 120.61 L348.89 116.90 L350.13 113.40 L351.01 110.61 L351.54 108.84 L351.81 107.96 L352.21 108.14 L352.91 109.29 L353.89 111.45 L354.91 114.15 L355.79 117.12 L356.59 119.86 L357.21 122.21 L357.69 124.02 L358.09 125.44 L358.40 126.41 L358.62 126.99 L358.22 127.30 L357.03 127.52 L354.95 127.74 L352.47 127.87 L349.95 127.92 L347.74 127.92 L346.10 127.92 L345.08 127.92 L345.26 127.70 " stroke-linecap='round' stroke-linejoin='round' brush-type='1' stroke-wetness='0.5'></path><path  style = ' stroke:#000000;  fill:none;  stroke-width:1.0;' d="M362.69 125.79 L362.96 125.33 L363.40 124.24 L364.24 122.16 L365.13 119.46 L365.88 116.68 L366.50 113.93 L366.99 111.50 L367.34 109.82 L367.52 108.89 L367.92 109.64 L368.53 111.90 L369.46 115.57 L370.31 119.38 L371.15 122.87 L371.85 125.53 L372.47 127.30 L372.83 128.18 L372.74 127.83 " stroke-linecap='round' stroke-linejoin='round' brush-type='1' stroke-wetness='0.5'></path><path  style = ' stroke:#000000;  fill:none;  stroke-width:1.0;' d="M365.75 118.76 L366.21 118.82 L366.90 118.84 L368.40 118.89 L370.13 118.93 " stroke-linecap='round' stroke-linejoin='round' brush-type='1' stroke-wetness='0.5'></path><path  style = ' stroke:#000000;  fill:none;  stroke-width:1.0;' d="M375.17 116.63 a0.50 0.50 0 1 0 0.01 0 " stroke-linecap='round' stroke-linejoin='round' brush-type='1' stroke-wetness='0.5'></path><path  style = ' stroke:#000000;  fill:none;  stroke-width:1.0;' d="M377.30 122.61 a0.50 0.50 0 1 0 0.01 0 " stroke-linecap='round' stroke-linejoin='round' brush-type='1' stroke-wetness='0.5'></path><path  style = ' stroke:#000000;  fill:none;  stroke-width:1.0;' d="M381.01 111.85 L381.41 111.92 L382.61 111.94 L384.86 111.99 L387.48 111.99 L389.47 111.99 L390.66 111.99 " stroke-linecap='round' stroke-linejoin='round' brush-type='1' stroke-wetness='0.5'></path><path  style = ' stroke:#000000;  fill:none;  stroke-width:1.0;' d="M385.79 113.31 L385.26 114.31 L385.09 115.35 L384.73 117.61 L384.86 120.13 L385.09 122.78 L385.40 125.04 L385.57 126.72 L385.66 127.65 " stroke-linecap='round' stroke-linejoin='round' brush-type='1' stroke-wetness='0.5'></path><path  style = ' stroke:#000000;  fill:none;  stroke-width:1.0;' d="M379.95 126.06 L380.62 126.32 L381.46 126.41 L383.40 126.59 L385.75 126.63 L388.18 126.81 L390.31 127.03 L391.86 127.21 " stroke-linecap='round' stroke-linejoin='round' brush-type='1' stroke-wetness='0.5'></path><path  style = ' stroke:#000000;  fill:none;  stroke-width:1.0;' d="M393.89 120.88 L394.36 120.81 L395.13 120.79 L396.95 120.75 L399.47 120.75 L402.26 120.75 L404.87 120.75 L406.99 120.75 L408.50 120.75 L409.34 120.75 L409.65 120.61 L409.07 119.91 L408.10 118.84 L406.90 117.74 L406.24 117.16 L405.93 117.16 L406.06 117.78 L406.50 118.84 L406.99 120.08 L407.26 121.46 L407.03 123.00 L406.24 124.73 L404.82 126.23 L403.05 127.30 " stroke-linecap='round' stroke-linejoin='round' brush-type='1' stroke-wetness='0.5'></path><path  style = ' stroke:#000000;  fill:none;  stroke-width:1.0;' d="M412.08 127.92 L412.68 127.05 L413.45 125.88 L415.00 123.27 L416.77 119.95 L418.50 116.28 L420.09 112.96 L421.42 110.44 L422.39 108.98 L422.97 108.27 L423.19 108.45 L423.23 109.68 L423.05 112.16 L422.70 115.53 L422.26 119.07 L421.99 122.39 L421.90 125.17 L422.17 127.34 L422.83 128.80 L423.94 129.60 L425.40 130.00 L427.13 130.08 L428.94 129.73 L430.44 128.98 L431.42 128.05 L431.90 127.25 L432.08 126.63 " stroke-linecap='round' stroke-linejoin='round' brush-type='1' stroke-wetness='0.5'></path><path  style = ' stroke:#000000;  fill:none;  stroke-width:1.0;' d="M414.73 119.42 L415.13 119.49 L416.24 119.51 L418.45 119.51 L421.24 119.38 L423.89 119.20 L426.11 119.02 L427.79 118.93 L428.72 118.89 " stroke-linecap='round' stroke-linejoin='round' brush-type='1' stroke-wetness='0.5'></path><path  style = ' stroke:#000000;  fill:none;  stroke-width:1.0;' d="M437.57 130.17 L436.77 130.90 L436.02 131.24 L434.56 131.90 L433.32 132.12 L432.35 132.25 " stroke-linecap='round' stroke-linejoin='round' brush-type='1' stroke-wetness='0.5'></path><path  style = ' stroke:#000000;  fill:none;  stroke-width:1.0;' d="M446.46 127.92 L446.99 127.52 L447.92 126.19 L450.05 122.74 L452.13 118.71 L453.63 115.35 L454.21 113.67 L454.52 112.78 L454.69 112.43 L455.18 112.96 L456.02 114.29 L457.17 116.59 L458.28 119.29 L459.39 122.12 L460.45 124.69 L461.47 126.81 L462.26 128.27 L462.88 129.11 L463.19 129.47 L463.10 129.60 L462.31 129.60 L460.71 129.42 L458.28 129.07 L455.40 128.67 L452.48 128.31 L450.09 128.09 L448.41 127.96 L447.53 127.87 L447.61 127.78 " stroke-linecap='round' stroke-linejoin='round' brush-type='1' stroke-wetness='0.5'></path><path  style = ' stroke:#000000;  fill:none;  stroke-width:1.0;' d="M468.37 130.04 L468.44 129.78 L468.46 129.24 L468.63 127.92 L469.12 125.88 L469.96 123.23 L470.89 120.31 L471.69 117.47 L472.17 115.22 L472.53 113.67 L472.66 112.87 L472.97 113.18 L473.37 114.69 L473.90 117.25 L474.39 120.08 L474.83 122.83 L475.32 125.31 L475.85 127.43 L476.42 129.02 L476.91 129.95 L477.22 130.04 " stroke-linecap='round' stroke-linejoin='round' brush-type='1' stroke-wetness='0.5'></path><path  style = ' stroke:#000000;  fill:none;  stroke-width:1.0;' d="M472.35 121.54 L473.02 121.61 L473.86 121.63 L475.18 121.68 L476.25 121.68 " stroke-linecap='round' stroke-linejoin='round' brush-type='1' stroke-wetness='0.5'></path><path  style = ' stroke:#000000;  fill:none;  stroke-width:1.0;' d="M480.58 111.06 L481.58 111.85 L482.26 112.78 L483.59 114.77 L484.34 117.12 L484.74 119.69 L484.52 122.34 L483.77 124.91 L482.49 127.25 L480.98 129.29 L479.30 130.84 L477.79 131.86 " stroke-linecap='round' stroke-linejoin='round' brush-type='1' stroke-wetness='0.5'></path><path  style = ' stroke:#000000;  fill:none;  stroke-width:1.0;' d="M449.65 107.07 L448.46 108.14 L447.79 108.93 L445.93 112.65 L444.69 117.12 L443.72 122.16 L444.12 125.57 L445.80 128.09 L449.16 130.04 L453.72 131.37 L457.97 132.16 " stroke-linecap='round' stroke-linejoin='round' brush-type='1' stroke-wetness='0.5'></path><path  style = ' stroke:#000000;  fill:none;  stroke-width:1.0;' d="M489.88 123.54 a0.50 0.50 0 1 0 0.01 0 " stroke-linecap='round' stroke-linejoin='round' brush-type='1' stroke-wetness='0.5'></path><path  style = ' stroke:#000000;  fill:none;  stroke-width:1.0;' d="M486.95 128.18 L486.76 129.11 L486.69 130.00 L486.69 131.50 L487.09 132.61 L487.75 133.23 L488.64 133.54 L489.61 133.63 L490.58 133.27 L491.34 132.65 L491.82 131.86 " stroke-linecap='round' stroke-linejoin='round' brush-type='1' stroke-wetness='0.5'></path><path  style = ' stroke:#000000;  fill:none;  stroke-width:1.0;' d="M496.12 118.23 L496.45 118.23 L496.96 118.23 L498.02 118.23 L499.30 118.18 L500.67 118.09 L501.96 118.00 L502.97 117.96 L503.64 117.96 L504.04 117.96 L504.30 118.05 " stroke-linecap='round' stroke-linejoin='round' brush-type='1' stroke-wetness='0.5'></path><path  style = ' stroke:#000000;  fill:none;  stroke-width:1.0;' d="M496.12 122.47 L496.58 122.54 L497.18 122.56 L498.50 122.61 L500.14 122.56 L502.00 122.52 L503.77 122.47 L505.32 122.47 L506.51 122.47 L507.40 122.47 " stroke-linecap='round' stroke-linejoin='round' brush-type='1' stroke-wetness='0.5'></path><path  style = ' stroke:#000000;  fill:none;  stroke-width:1.0;' d="M508.73 129.24 L509.06 128.98 L509.66 128.27 L510.98 126.59 L512.71 124.11 L514.44 121.23 L515.94 118.23 L517.09 115.30 L517.84 112.87 L518.29 111.19 L518.46 110.35 L518.73 110.70 L519.08 112.43 L519.61 115.26 L520.14 118.45 L520.72 121.41 L521.34 123.98 L521.96 126.06 L522.40 127.52 L522.71 128.40 L522.84 128.80 L522.62 128.54 " stroke-linecap='round' stroke-linejoin='round' brush-type='1' stroke-wetness='0.5'></path><path  style = ' stroke:#000000;  fill:none;  stroke-width:1.0;' d="M514.83 122.08 L515.36 121.88 L516.21 121.81 L517.93 121.72 L520.01 121.85 L521.96 122.12 L523.42 122.43 " stroke-linecap='round' stroke-linejoin='round' brush-type='1' stroke-wetness='0.5'></path><path  style = ' stroke:#000000;  fill:none;  stroke-width:1.0;' d="M530.10 127.52 L530.10 128.05 L530.10 128.67 L530.10 129.91 L530.10 131.19 L529.92 132.39 L529.35 133.40 L528.24 134.24 L526.74 134.82 L525.19 135.13 L524.04 135.22 " stroke-linecap='round' stroke-linejoin='round' brush-type='1' stroke-wetness='0.5'></path><path  style = ' stroke:#000000;  fill:none;  stroke-width:1.0;' d="M549.09 129.64 a0.50 0.50 0 1 0 0.01 0 " stroke-linecap='round' stroke-linejoin='round' brush-type='1' stroke-wetness='0.5'></path><path  style = ' stroke:#000000;  fill:none;  stroke-width:1.0;' d="M550.01 112.52 L549.75 112.85 L549.66 113.49 L549.44 114.73 L549.40 116.19 L549.35 117.56 L549.35 118.84 L549.40 120.00 L549.70 120.97 L550.46 121.68 L551.83 122.12 L553.64 122.30 L555.59 121.99 L557.32 121.19 L558.64 119.86 L559.53 118.31 L559.97 116.68 L559.88 115.08 L559.26 113.76 L558.33 112.83 L557.27 112.38 L556.30 112.25 L555.37 112.34 L554.66 117.74 L554.44 122.96 " stroke-linecap='round' stroke-linejoin='round' brush-type='1' stroke-wetness='0.5'></path><path  style = ' stroke:#000000;  fill:none;  stroke-width:1.0;' d="M564.62 117.03 a0.50 0.50 0 1 0 0.01 0 " stroke-linecap='round' stroke-linejoin='round' brush-type='1' stroke-wetness='0.5'></path><path  style = ' stroke:#000000;  fill:none;  stroke-width:1.0;' d="M554.53 122.61 L554.66 123.00 L554.71 123.71 L554.79 125.00 L554.79 126.46 L554.75 127.65 L554.66 128.71 L554.57 129.55 L554.53 130.22 L554.62 130.66 " stroke-linecap='round' stroke-linejoin='round' brush-type='1' stroke-wetness='0.5'></path><path  style = ' stroke:#000000;  fill:none;  stroke-width:1.0;' d="M563.95 122.74 L564.55 122.41 L564.97 122.30 L565.64 122.16 L565.90 122.39 L565.90 122.78 L565.59 123.14 L564.97 123.40 L564.18 123.49 L563.60 123.54 L563.73 123.40 " stroke-linecap='round' stroke-linejoin='round' brush-type='1' stroke-wetness='0.5'></path><path  style = ' stroke:#000000;  fill:none;  stroke-width:1.0;' d="M573.51 110.13 L573.38 110.66 L573.34 110.97 L573.38 111.01 L573.56 110.70 L573.73 110.61 " stroke-linecap='round' stroke-linejoin='round' brush-type='1' stroke-wetness='0.5'></path><path  style = ' stroke:#000000;  fill:none;  stroke-width:1.0;' d="M572.45 118.76 L572.72 119.35 L572.80 120.48 L572.80 122.69 L572.45 125.17 L572.10 127.25 L571.92 128.76 L572.10 129.73 L572.76 130.22 L574.00 130.39 L575.59 130.04 L577.01 129.33 L578.07 128.31 L578.65 127.52 L578.96 126.99 " stroke-linecap='round' stroke-linejoin='round' brush-type='1' stroke-wetness='0.5'></path><path  style = ' stroke:#000000;  fill:none;  stroke-width:1.0;' d="M582.14 119.55 L582.67 119.69 L583.91 119.73 L586.30 119.91 L589.22 120.04 L591.83 120.17 L593.91 120.22 L595.28 120.22 L595.95 120.22 L595.73 119.51 L595.02 118.45 L594.05 117.16 L593.43 116.54 L593.16 116.68 L593.25 117.52 L593.60 118.84 L593.96 120.04 L594.18 121.01 L594.22 121.77 L593.96 122.52 L593.25 123.27 L592.05 124.02 L590.86 124.60 L590.06 124.91 " stroke-linecap='round' stroke-linejoin='round' brush-type='1' stroke-wetness='0.5'></path><path  style = ' stroke:#000000;  fill:none;  stroke-width:1.0;' d="M606.04 113.31 a0.50 0.50 0 1 0 0.01 0 " stroke-linecap='round' stroke-linejoin='round' brush-type='1' stroke-wetness='0.5'></path><path  style = ' stroke:#000000;  fill:none;  stroke-width:1.0;' d="M606.30 118.76 L606.17 119.82 L606.13 120.79 L606.04 122.56 L606.04 124.02 L605.99 125.13 L605.73 125.93 L605.15 126.41 L604.22 126.63 L603.07 126.72 L601.83 126.46 L600.77 125.93 L600.15 125.26 L599.98 124.86 " stroke-linecap='round' stroke-linejoin='round' brush-type='1' stroke-wetness='0.5'></path><path  style = ' stroke:#000000;  fill:none;  stroke-width:1.0;' d="M619.71 127.25 L620.04 126.85 L620.64 125.70 L621.88 123.36 L623.39 120.39 L624.89 117.38 L626.26 114.60 L627.41 112.16 L628.21 110.48 L628.70 109.55 L628.96 109.15 L629.40 109.55 L630.02 110.88 L630.95 113.36 L631.93 116.50 L632.94 119.77 L633.96 122.74 L634.89 125.08 L635.69 126.72 L636.17 127.61 L636.40 128.01 L636.00 128.14 L634.76 128.14 L632.59 127.96 L629.89 127.70 L627.28 127.43 L625.16 127.21 L623.83 127.03 L623.21 126.81 L623.47 126.46 " stroke-linecap='round' stroke-linejoin='round' brush-type='1' stroke-wetness='0.5'></path><path  style = ' stroke:#000000;  fill:none;  stroke-width:1.0;' d="M640.56 115.30 L640.36 115.64 L640.25 116.59 L639.98 118.27 L639.85 120.31 L639.76 121.77 L640.11 122.78 L641.04 123.23 L642.68 123.40 L644.67 123.18 L646.66 122.65 L648.30 121.72 L649.49 120.53 L650.20 119.20 L650.56 117.83 L650.42 116.50 L649.85 115.35 L648.92 114.46 L647.90 114.02 L647.10 113.84 L646.53 113.93 L646.26 114.51 L646.13 115.75 L646.13 117.61 L646.13 119.64 L646.13 121.50 L646.13 123.05 L646.13 124.29 L646.18 125.35 L646.31 126.28 L646.49 127.03 L646.66 127.56 L646.75 127.92 L646.79 128.23 L646.79 128.58 L646.79 128.93 L646.79 129.38 L646.79 129.91 L646.79 130.48 L646.79 130.93 L646.79 130.66 " stroke-linecap='round' stroke-linejoin='round' brush-type='1' stroke-wetness='0.5'></path><path  style = ' stroke:#000000;  fill:none;  stroke-width:1.0;' d="M654.23 118.89 L654.63 118.96 L655.65 118.98 L657.37 119.02 L659.36 119.02 L660.87 119.02 L662.02 119.02 L662.77 119.02 " stroke-linecap='round' stroke-linejoin='round' brush-type='1' stroke-wetness='0.5'></path><path  style = ' stroke:#000000;  fill:none;  stroke-width:1.0;' d="M655.42 123.40 L656.09 123.27 L657.06 123.23 L658.92 123.14 L660.91 123.14 L662.46 123.14 " stroke-linecap='round' stroke-linejoin='round' brush-type='1' stroke-wetness='0.5'></path><path  style = ' stroke:#000000;  fill:none;  stroke-width:1.0;' d="M671.36 115.04 L672.02 114.64 L672.95 113.84 L674.67 112.34 L676.36 110.61 L677.55 109.20 L678.30 108.22 L678.70 107.74 L678.88 107.96 L678.92 109.15 L678.92 111.37 L678.92 114.29 L678.92 117.34 L678.92 120.17 L678.92 122.52 L678.92 124.24 L678.92 125.35 L678.66 126.01 " stroke-linecap='round' stroke-linejoin='round' brush-type='1' stroke-wetness='0.5'></path><path  style = ' stroke:#000000;  fill:none;  stroke-width:1.0;' d="M670.96 125.79 L671.55 125.86 L672.42 125.88 L674.50 125.93 L677.24 125.93 L680.21 125.93 L682.86 125.93 L684.85 125.93 L686.09 125.93 " stroke-linecap='round' stroke-linejoin='round' brush-type='1' stroke-wetness='0.5'></path><path  style = ' stroke:#000000;  fill:none;  stroke-width:1.0;' d="M688.75 131.50 L689.21 130.97 L689.76 130.17 L690.91 128.49 L692.15 126.32 L693.30 123.98 L694.19 121.72 L694.81 120.00 L695.12 118.98 L695.30 118.58 L695.43 119.20 L695.61 120.79 L695.83 123.31 L696.09 125.97 L696.45 128.40 L696.80 130.35 L697.11 131.68 L697.38 132.43 L697.55 132.39 L697.42 131.77 " stroke-linecap='round' stroke-linejoin='round' brush-type='1' stroke-wetness='0.5'></path><path  style = ' stroke:#000000;  fill:none;  stroke-width:1.0;' d="M691.80 127.12 L692.13 127.12 L692.95 127.12 L694.54 127.12 L696.22 127.12 " stroke-linecap='round' stroke-linejoin='round' brush-type='1' stroke-wetness='0.5'></path><path  style = ' stroke:#000000;  fill:none;  stroke-width:1.0;' d="M53.24 150.62 L53.50 150.62 L54.52 150.62 L56.29 150.62 L58.28 150.62 L59.56 150.40 L60.23 149.78 L60.49 148.85 L60.49 147.79 L60.01 146.86 L58.99 146.19 L57.22 145.97 L55.09 146.72 L52.84 148.23 L51.16 150.22 L50.27 151.90 L50.45 153.23 L51.69 154.20 L53.90 154.82 L56.55 155.09 L58.99 155.13 L60.67 155.00 " stroke-linecap='round' stroke-linejoin='round' brush-type='1' stroke-wetness='0.5'></path><path  style = ' stroke:#000000;  fill:none;  stroke-width:1.0;' d="M64.12 151.28 L64.72 150.42 L65.54 151.02 L66.91 151.86 L68.24 153.76 L69.12 155.18 L69.74 156.33 L70.01 157.03 " stroke-linecap='round' stroke-linejoin='round' brush-type='1' stroke-wetness='0.5'></path><path  style = ' stroke:#000000;  fill:none;  stroke-width:1.0;' d="M69.83 147.96 L68.70 148.16 L67.44 148.98 L65.14 150.53 L62.93 152.61 L61.07 154.47 L59.39 156.06 " stroke-linecap='round' stroke-linejoin='round' brush-type='1' stroke-wetness='0.5'></path><path  style = ' stroke:#000000;  fill:none;  stroke-width:1.0;' d="M51.11 156.99 L51.71 156.99 L52.35 156.99 L53.94 156.99 L56.02 156.99 L58.77 156.99 L61.82 156.99 L65.05 157.03 L68.10 157.12 L70.76 157.30 L72.80 157.43 L74.12 157.52 L74.88 157.52 " stroke-linecap='round' stroke-linejoin='round' brush-type='1' stroke-wetness='0.5'></path><path  style = ' stroke:#000000;  fill:none;  stroke-width:1.0;' d="M76.47 149.69 a0.50 0.50 0 1 0 0.01 0 " stroke-linecap='round' stroke-linejoin='round' brush-type='1' stroke-wetness='0.5'></path><path  style = ' stroke:#000000;  fill:none;  stroke-width:1.0;' d="M77.40 153.27 a0.50 0.50 0 1 0 0.01 0 " stroke-linecap='round' stroke-linejoin='round' brush-type='1' stroke-wetness='0.5'></path><path  style = ' stroke:#000000;  fill:none;  stroke-width:1.0;' d="M87.75 143.18 L88.42 143.52 L89.83 143.67 L92.36 144.02 L95.19 144.25 L97.27 144.51 L98.55 144.69 " stroke-linecap='round' stroke-linejoin='round' brush-type='1' stroke-wetness='0.5'></path><path  style = ' stroke:#000000;  fill:none;  stroke-width:1.0;' d="M95.19 143.98 L95.05 144.64 L95.01 146.02 L94.92 148.63 L94.92 151.68 L94.92 154.20 L94.88 156.24 " stroke-linecap='round' stroke-linejoin='round' brush-type='1' stroke-wetness='0.5'></path><path  style = ' stroke:#000000;  fill:none;  stroke-width:1.0;' d="M90.54 156.72 L91.27 156.59 L92.80 156.50 L95.63 156.19 L98.99 155.80 L101.78 155.35 " stroke-linecap='round' stroke-linejoin='round' brush-type='1' stroke-wetness='0.5'></path><path  style = ' stroke:#000000;  fill:none;  stroke-width:1.0;' d="M110.85 150.62 L111.12 151.28 L111.21 152.48 L111.43 154.51 L111.69 156.68 L112.18 158.05 " stroke-linecap='round' stroke-linejoin='round' brush-type='1' stroke-wetness='0.5'></path><path  style = ' stroke:#000000;  fill:none;  stroke-width:1.0;' d="M120.54 151.28 L119.81 151.08 L119.17 151.06 L117.98 151.24 L117.14 151.81 L116.69 152.70 L116.92 153.76 L117.71 155.00 L118.77 156.19 L119.48 157.17 L119.75 157.83 L119.44 158.23 L118.46 158.50 L116.87 158.63 L115.28 158.58 " stroke-linecap='round' stroke-linejoin='round' brush-type='1' stroke-wetness='0.5'></path><path  style = ' stroke:#000000;  fill:none;  stroke-width:1.0;' d="M146.43 151.28 L146.76 150.62 L147.23 150.35 L148.16 149.87 L149.09 149.87 L149.75 150.26 L150.06 151.15 L149.97 152.34 L149.40 153.36 L148.47 153.98 L147.49 154.25 L146.79 154.29 L146.39 153.85 L146.25 152.92 L146.79 151.72 L148.07 150.88 L149.88 150.53 L151.48 150.80 L152.36 151.41 L152.63 152.30 L152.01 153.10 L150.90 153.63 L149.44 153.89 L148.38 153.94 L147.80 153.72 L148.25 153.36 " stroke-linecap='round' stroke-linejoin='round' brush-type='1' stroke-wetness='0.5'></path><path  style = ' stroke:#000000;  fill:none;  stroke-width:1.0;' d="M179.75 150.75 L180.42 150.02 L180.95 149.78 L182.01 149.33 L182.72 149.78 L183.12 150.57 L182.76 151.59 L181.75 152.43 L180.24 152.92 L178.91 153.14 L178.16 152.96 L177.90 152.34 L178.29 151.50 L179.13 150.80 L180.28 150.53 L181.13 150.53 L181.52 150.71 L181.48 151.06 L180.95 151.50 L180.02 151.95 " stroke-linecap='round' stroke-linejoin='round' brush-type='1' stroke-wetness='0.5'></path><path  style = ' stroke:#000000;  fill:none;  stroke-width:1.0;' d="M205.24 148.63 L205.31 148.16 L205.77 147.96 L206.79 147.61 L208.12 147.83 L209.14 148.63 L209.62 149.82 L209.58 151.02 L209.00 151.77 L208.12 152.17 L207.23 152.30 L206.62 151.99 L206.31 151.15 L206.39 150.00 L207.15 149.16 L208.30 148.85 L209.36 149.20 L209.89 150.04 L209.85 151.10 L209.18 151.99 L208.08 152.52 L206.75 152.79 L205.69 152.83 L205.02 152.52 L204.80 151.95 " stroke-linecap='round' stroke-linejoin='round' brush-type='1' stroke-wetness='0.5'></path><path  style = ' stroke:#000000;  fill:none;  stroke-width:1.0;' d="M174.31 151.68 L173.85 151.75 L172.98 151.77 L171.35 151.81 L169.35 151.90 L167.36 151.99 L165.28 152.08 L163.25 152.08 L161.34 152.08 L159.75 152.08 L158.51 152.08 L157.67 152.03 L157.14 151.81 L156.70 151.46 L156.34 151.02 L155.95 150.57 L155.68 150.13 L155.50 149.73 L155.46 149.87 L155.46 150.35 L155.59 151.10 L155.95 151.68 L156.43 152.21 L156.88 152.74 L157.10 153.18 L157.18 153.58 L157.36 153.85 " stroke-linecap='round' stroke-linejoin='round' brush-type='1' stroke-wetness='0.5'></path><path  style = ' stroke:#000000;  fill:none;  stroke-width:1.0;' d="M186.66 152.21 L187.19 152.14 L188.16 152.12 L190.02 152.08 L192.19 152.08 L194.18 152.08 L195.95 152.08 L197.41 152.08 L198.34 152.03 L198.87 151.86 L199.05 151.55 L199.14 151.15 L199.00 150.71 L198.61 150.31 L198.03 149.95 L197.54 149.78 L197.63 150.26 L197.99 151.10 L198.38 152.21 L198.47 152.92 L198.07 153.49 L197.23 153.89 L196.04 154.11 L195.02 154.20 L194.22 154.38 " stroke-linecap='round' stroke-linejoin='round' brush-type='1' stroke-wetness='0.5'></path><path  style = ' stroke:#000000;  fill:none;  stroke-width:1.0;' d="M142.98 147.03 L142.71 146.77 L142.63 146.24 L142.40 145.26 L142.36 143.98 L142.32 142.43 L142.32 140.62 L142.36 138.85 L142.71 137.48 L143.42 136.41 L144.48 135.66 L145.59 135.17 L146.70 135.00 L147.76 135.04 L148.73 135.53 L149.62 136.55 L150.28 138.09 L150.72 139.86 L150.90 141.63 L150.95 143.27 L150.95 144.69 L150.86 145.79 L150.72 146.50 L150.86 146.24 L151.39 145.57 L152.18 144.78 L152.89 144.56 L153.47 144.51 L153.87 144.51 L154.13 144.69 L153.95 145.00 L153.29 145.35 L151.96 145.53 L150.33 145.57 L148.73 145.53 L147.63 145.31 L147.05 145.04 L147.10 144.64 " stroke-linecap='round' stroke-linejoin='round' brush-type='1' stroke-wetness='0.5'></path><path  style = ' stroke:#000000;  fill:none;  stroke-width:1.0;' d="M177.90 147.43 L178.03 146.70 L178.07 146.19 L178.16 145.13 L178.12 144.16 L178.07 142.96 L178.03 141.50 L178.03 140.00 L178.07 138.67 L178.43 137.74 L179.09 137.12 L179.98 136.77 L180.90 136.59 L181.88 136.68 L182.85 137.17 L183.65 138.09 L184.18 139.38 L184.44 140.79 L184.53 142.17 L184.44 143.32 L184.13 144.20 L183.65 144.91 L183.07 145.48 L182.63 145.97 L182.36 146.37 L182.23 146.68 L182.19 146.46 L182.14 145.79 L182.14 144.87 L182.14 144.20 L182.10 143.85 L181.83 144.11 L181.44 144.82 L181.04 145.71 L180.86 146.28 L181.17 146.64 L182.14 146.81 L183.82 146.90 L185.37 146.90 " stroke-linecap='round' stroke-linejoin='round' brush-type='1' stroke-wetness='0.5'></path><path  style = ' stroke:#000000;  fill:none;  stroke-width:1.0;' d="M208.03 145.44 L208.30 144.91 L208.39 144.11 L208.69 142.56 L209.05 140.79 L209.67 139.20 L210.51 137.83 L211.62 136.72 L212.90 135.79 L214.36 135.17 L215.78 134.86 L217.19 134.91 L218.39 135.35 L219.36 136.15 L219.98 137.30 L220.29 138.54 L220.29 140.00 L219.76 141.50 L218.61 143.01 L216.97 144.29 L215.24 145.31 L213.74 146.06 L212.63 146.55 L211.97 146.90 L211.70 147.12 L211.84 146.90 L212.19 146.33 L212.81 145.44 L213.43 144.69 L214.09 144.11 L214.58 143.76 L214.89 143.63 L214.71 143.54 L214.27 143.49 L213.61 143.45 L213.16 143.45 L212.81 143.49 L212.63 143.76 L212.54 144.20 L212.54 144.82 L212.54 145.40 L212.54 145.93 L212.54 146.41 L212.63 146.90 L212.94 147.34 L213.47 147.74 L214.14 148.05 L214.80 148.41 L215.33 148.72 " stroke-linecap='round' stroke-linejoin='round' brush-type='1' stroke-wetness='0.5'></path><path  style = ' stroke:#000000;  fill:none;  stroke-width:1.0;' d="M240.42 146.77 L240.56 147.03 L240.60 147.74 L240.69 149.47 L240.69 152.03 L240.69 154.78 L240.69 157.12 L240.69 158.67 " stroke-linecap='round' stroke-linejoin='round' brush-type='1' stroke-wetness='0.5'></path><path  style = ' stroke:#000000;  fill:none;  stroke-width:1.0;' d="M236.84 151.02 L237.57 150.68 L238.43 150.44 L240.16 149.78 L242.15 149.03 L244.23 148.10 L246.00 147.39 L247.11 146.99 L247.46 147.43 L247.37 148.80 L247.06 151.19 L246.71 153.80 L246.49 155.84 L246.40 156.90 L246.49 156.72 L246.97 155.88 L247.81 154.78 L248.74 154.16 L249.36 153.94 L249.67 154.29 L249.81 155.09 L249.85 156.28 L249.85 157.30 " stroke-linecap='round' stroke-linejoin='round' brush-type='1' stroke-wetness='0.5'></path><path  style = ' stroke:#000000;  fill:none;  stroke-width:1.0;' d="M251.58 156.99 L252.84 156.66 L253.79 156.42 L255.51 155.66 L256.58 154.78 L257.15 153.67 L257.28 152.70 L256.89 151.86 L256.00 151.37 L254.67 151.55 L253.26 152.65 L252.11 154.42 L251.49 156.15 L251.66 157.48 L252.81 158.14 L254.36 158.45 " stroke-linecap='round' stroke-linejoin='round' brush-type='1' stroke-wetness='0.5'></path><path  style = ' stroke:#000000;  fill:none;  stroke-width:1.0;' d="M259.81 157.92 L259.81 157.52 L259.81 156.81 L259.94 155.40 L260.51 153.80 L261.58 152.65 L262.86 152.08 L264.05 152.08 L264.98 152.70 L265.60 153.85 L265.87 155.44 L266.00 157.03 L266.27 158.27 " stroke-linecap='round' stroke-linejoin='round' brush-type='1' stroke-wetness='0.5'></path><path  style = ' stroke:#000000;  fill:none;  stroke-width:1.0;' d="M289.28 157.79 L289.81 157.46 L290.43 156.37 L292.16 153.23 L293.93 149.47 L295.65 146.15 L296.58 144.56 L297.16 143.80 L297.55 143.80 L298.08 144.60 L298.93 146.10 L299.86 148.14 L300.87 150.31 L301.80 152.34 L302.69 154.11 L303.40 155.53 L303.97 156.59 L304.28 157.26 L304.41 157.61 L304.15 157.83 L303.13 158.01 L300.87 158.19 L297.69 158.27 L294.24 158.32 L291.36 158.32 L289.46 158.32 L288.57 158.27 L288.66 158.14 " stroke-linecap='round' stroke-linejoin='round' brush-type='1' stroke-wetness='0.5'></path><path  style = ' stroke:#000000;  fill:none;  stroke-width:1.0;' d="M309.06 158.85 L309.46 158.32 L309.94 157.30 L310.87 155.35 L311.85 152.83 L312.69 150.26 L313.44 147.79 L313.97 145.93 L314.37 144.87 L314.59 144.47 L314.90 144.73 L315.30 145.79 L315.87 147.79 L316.41 150.31 L316.94 152.83 L317.42 155.04 L317.91 156.86 L318.35 158.36 L318.66 159.47 L318.93 160.13 L318.71 159.87 " stroke-linecap='round' stroke-linejoin='round' brush-type='1' stroke-wetness='0.5'></path><path  style = ' stroke:#000000;  fill:none;  stroke-width:1.0;' d="M311.18 153.80 L311.78 153.67 L312.87 153.63 L314.86 153.54 L316.98 153.54 L318.44 153.54 " stroke-linecap='round' stroke-linejoin='round' brush-type='1' stroke-wetness='0.5'></path><path  style = ' stroke:#000000;  fill:none;  stroke-width:1.0;' d="M344.37 148.63 L344.04 149.22 L344.02 149.95 L344.15 151.28 L344.68 152.65 L345.26 153.98 L345.61 155.31 L345.88 156.46 L346.05 157.21 " stroke-linecap='round' stroke-linejoin='round' brush-type='1' stroke-wetness='0.5'></path><path  style = ' stroke:#000000;  fill:none;  stroke-width:1.0;' d="M352.34 150.49 L351.54 150.42 L350.92 150.44 L349.90 150.53 L349.42 150.93 L349.42 151.68 L349.99 152.88 L350.92 154.20 L351.81 155.44 L352.29 156.37 L352.38 157.08 L351.85 157.61 L350.61 158.05 L348.84 158.32 L347.38 158.45 " stroke-linecap='round' stroke-linejoin='round' brush-type='1' stroke-wetness='0.5'></path><path  style = ' stroke:#000000;  fill:none;  stroke-width:1.0;' d="M378.09 158.58 L378.36 158.32 L378.49 157.52 L378.89 156.02 L379.33 153.94 L380.00 151.72 L380.75 149.29 L381.55 146.90 L382.30 144.91 L382.83 143.58 L383.18 142.96 L383.58 143.27 L384.16 144.51 L384.86 146.68 L385.53 149.38 L386.24 152.39 L386.99 155.40 L387.70 158.05 L388.27 159.96 L388.63 161.06 L388.67 160.53 " stroke-linecap='round' stroke-linejoin='round' brush-type='1' stroke-wetness='0.5'></path><path  style = ' stroke:#000000;  fill:none;  stroke-width:1.0;' d="M381.55 152.61 L382.01 152.61 L382.65 152.61 L384.20 152.61 L386.32 152.61 " stroke-linecap='round' stroke-linejoin='round' brush-type='1' stroke-wetness='0.5'></path><path  style = ' stroke:#000000;  fill:none;  stroke-width:1.0;' d="M414.87 152.08 L414.40 152.14 L413.85 152.17 L412.52 152.21 L410.71 152.12 L408.41 151.95 L405.71 151.64 L402.83 151.24 L400.09 150.84 L397.79 150.49 L396.06 150.22 L394.91 149.95 L394.33 149.69 L394.20 149.38 L394.51 148.94 L395.13 148.36 L395.88 147.74 L396.46 147.34 L396.77 147.17 L396.37 147.79 L395.53 148.94 L394.47 150.66 L393.89 152.12 L393.67 153.27 L393.71 154.03 L394.20 154.56 L395.18 154.91 L396.55 155.09 L397.92 155.00 " stroke-linecap='round' stroke-linejoin='round' brush-type='1' stroke-wetness='0.5'></path><path  style = ' stroke:#000000;  fill:none;  stroke-width:1.0;' d="M405.18 141.99 a0.50 0.50 0 1 0 0.01 0 " stroke-linecap='round' stroke-linejoin='round' brush-type='1' stroke-wetness='0.5'></path><path  style = ' stroke:#000000;  fill:none;  stroke-width:1.0;' d="M405.31 145.71 a0.50 0.50 0 1 0 0.01 0 " stroke-linecap='round' stroke-linejoin='round' brush-type='1' stroke-wetness='0.5'></path><path  style = ' stroke:#000000;  fill:none;  stroke-width:1.0;' d="M412.61 143.98 L411.68 144.18 L410.75 144.47 L409.25 145.09 L408.32 145.88 L408.01 146.64 L408.01 147.25 L408.45 147.56 L409.29 147.61 L410.53 147.08 L411.68 145.93 L412.70 144.02 L413.45 141.68 L413.98 138.89 L414.34 136.24 L414.51 134.20 L414.65 133.18 L414.69 134.02 L414.69 136.37 L414.56 139.95 L414.42 143.32 L414.34 146.24 L414.42 148.32 " stroke-linecap='round' stroke-linejoin='round' brush-type='1' stroke-wetness='0.5'></path><path  style = ' stroke:#000000;  fill:none;  stroke-width:1.0;' d="M424.29 158.45 L424.69 158.05 L425.31 156.86 L426.42 154.60 L427.66 151.24 L428.67 147.74 L429.65 144.29 L430.36 141.81 L430.89 140.44 L431.15 140.04 L431.33 140.79 L431.51 142.92 L431.73 146.24 L431.90 149.87 L432.08 153.01 L432.26 155.44 L432.52 157.12 L432.79 158.10 L432.92 158.54 " stroke-linecap='round' stroke-linejoin='round' brush-type='1' stroke-wetness='0.5'></path><path  style = ' stroke:#000000;  fill:none;  stroke-width:1.0;' d="M427.61 151.81 L428.08 151.68 L428.98 151.64 L430.75 151.55 L432.97 151.55 " stroke-linecap='round' stroke-linejoin='round' brush-type='1' stroke-wetness='0.5'></path><path  style = ' stroke:#000000;  fill:none;  stroke-width:1.0;' d="M439.16 151.41 L439.56 151.15 L440.40 151.06 L442.48 150.88 L445.58 150.88 L449.21 150.88 L452.84 150.88 L456.15 150.88 L458.99 150.88 L461.20 150.84 L462.66 150.75 L463.46 150.62 L463.77 150.35 L463.81 149.73 L463.50 148.72 L463.01 147.61 L462.48 146.72 L462.17 146.28 L462.04 146.37 L462.13 147.30 L462.39 148.85 L462.66 150.66 L462.66 152.26 L462.26 153.54 L461.51 154.47 L460.40 154.95 L458.94 155.13 L457.66 155.00 " stroke-linecap='round' stroke-linejoin='round' brush-type='1' stroke-wetness='0.5'></path><path  style = ' stroke:#000000;  fill:none;  stroke-width:1.0;' d="M446.20 142.92 a0.50 0.50 0 1 0 0.01 0 " stroke-linecap='round' stroke-linejoin='round' brush-type='1' stroke-wetness='0.5'></path><path  style = ' stroke:#000000;  fill:none;  stroke-width:1.0;' d="M446.99 146.24 a0.50 0.50 0 1 0 0.01 0 " stroke-linecap='round' stroke-linejoin='round' brush-type='1' stroke-wetness='0.5'></path><path  style = ' stroke:#000000;  fill:none;  stroke-width:1.0;' d="M453.90 144.78 L453.37 144.64 L452.70 144.64 L451.42 144.87 L450.27 145.48 L449.52 146.41 L449.21 147.39 L449.34 148.18 L450.09 148.63 L451.33 148.32 L452.70 147.21 L453.77 145.26 L454.52 142.83 L454.96 140.04 L455.27 137.48 L455.49 135.62 L455.71 134.82 L455.85 135.84 L455.89 138.14 L455.89 141.46 L455.89 144.51 L455.98 147.39 L456.46 149.64 " stroke-linecap='round' stroke-linejoin='round' brush-type='1' stroke-wetness='0.5'></path><path  style = ' stroke:#000000;  fill:none;  stroke-width:1.0;' d="M468.50 156.46 L469.23 156.13 L469.96 155.18 L471.29 153.27 L472.48 150.71 L473.55 147.92 L474.56 145.09 L475.40 142.56 L476.02 140.84 L476.38 140.00 L476.64 140.44 L476.91 142.21 L477.31 145.09 L477.79 148.27 L478.37 151.37 L478.90 154.07 L479.39 156.33 L479.79 157.92 L480.14 158.94 L480.36 159.42 " stroke-linecap='round' stroke-linejoin='round' brush-type='1' stroke-wetness='0.5'></path><path  style = ' stroke:#000000;  fill:none;  stroke-width:1.0;' d="M474.21 149.56 L474.61 149.76 L475.45 149.82 L476.87 150.00 L478.50 150.13 L479.70 150.31 " stroke-linecap='round' stroke-linejoin='round' brush-type='1' stroke-wetness='0.5'></path><path  style = ' stroke:#000000;  fill:none;  stroke-width:1.0;' d="M446.73 144.78 L446.66 145.18 L446.64 145.66 L446.60 146.59 L446.60 147.52 L446.60 148.32 L446.60 149.03 L446.60 149.60 L446.68 150.13 " stroke-linecap='round' stroke-linejoin='round' brush-type='1' stroke-wetness='0.5'></path><path  style = ' stroke:#000000;  fill:none;  stroke-width:1.0;' d="M405.18 144.51 L405.24 144.98 L405.26 145.40 L405.31 146.33 L405.31 147.25 L405.31 148.23 L405.31 149.07 L405.31 149.78 L405.35 150.26 " stroke-linecap='round' stroke-linejoin='round' brush-type='1' stroke-wetness='0.5'></path><path  style = ' stroke:#000000;  fill:none;  stroke-width:1.0;' d="M42.22 181.68 L42.75 181.68 L43.59 181.68 L45.49 181.68 L47.93 181.64 L50.54 181.55 L52.97 181.42 L55.14 181.33 L56.86 181.29 L58.10 181.29 " stroke-linecap='round' stroke-linejoin='round' brush-type='1' stroke-wetness='0.5'></path><path  style = ' stroke:#000000;  fill:none;  stroke-width:1.0;' d="M63.59 188.06 L63.79 187.86 L63.99 186.55 L64.43 183.85 L64.83 179.87 L65.18 176.02 L65.45 173.01 L65.67 171.33 L65.89 170.89 L66.25 172.04 L66.82 174.91 L67.66 178.98 L68.68 182.52 L69.79 184.52 L71.03 185.05 L72.44 184.16 L74.12 181.95 L75.80 178.54 L77.22 175.18 L78.15 172.83 L78.68 171.82 L78.99 171.95 L79.39 173.01 " stroke-linecap='round' stroke-linejoin='round' brush-type='1' stroke-wetness='0.5'></path><path  style = ' stroke:#000000;  fill:none;  stroke-width:1.0;' d="M82.97 181.29 L82.31 181.42 L81.47 181.77 L80.01 182.66 L78.73 184.03 L78.06 185.67 L77.80 187.21 L78.02 188.32 L78.86 188.85 L80.32 188.59 L82.00 187.57 L83.19 186.06 L83.77 184.56 L83.50 183.36 L82.71 182.52 L81.60 182.08 L80.85 181.95 " stroke-linecap='round' stroke-linejoin='round' brush-type='1' stroke-wetness='0.5'></path><path  style = ' stroke:#000000;  fill:none;  stroke-width:1.0;' d="M90.67 177.44 L90.81 177.83 L90.85 179.12 L90.89 181.46 L90.76 184.34 L90.58 186.42 L90.41 187.66 " stroke-linecap='round' stroke-linejoin='round' brush-type='1' stroke-wetness='0.5'></path><path  style = ' stroke:#000000;  fill:none;  stroke-width:1.0;' d="M87.75 181.95 L88.42 181.75 L89.17 181.68 L90.72 181.55 " stroke-linecap='round' stroke-linejoin='round' brush-type='1' stroke-wetness='0.5'></path><path  style = ' stroke:#000000;  fill:none;  stroke-width:1.0;' d="M93.46 182.21 L94.52 183.01 L95.28 183.28 L96.82 183.76 L98.02 183.41 L98.95 182.75 L99.48 181.73 L99.61 180.80 L99.17 180.18 L97.93 180.18 L96.03 181.15 L94.04 182.83 L92.66 184.74 L92.00 186.15 L92.13 186.99 L93.06 187.48 L94.79 187.79 L96.87 188.01 L98.68 188.14 L99.83 188.19 L100.41 188.19 " stroke-linecap='round' stroke-linejoin='round' brush-type='1' stroke-wetness='0.5'></path><path  style = ' stroke:#000000;  fill:none;  stroke-width:1.0;' d="M63.86 190.58 L64.39 190.51 L66.25 190.49 L70.14 190.45 L75.58 190.45 L81.25 190.45 L86.78 190.40 L91.82 190.22 L95.94 189.87 L99.08 189.34 L101.29 188.59 " stroke-linecap='round' stroke-linejoin='round' brush-type='1' stroke-wetness='0.5'></path><path  style = ' stroke:#000000;  fill:none;  stroke-width:1.0;' d="M107.40 180.75 a0.50 0.50 0 1 0 0.01 0 " stroke-linecap='round' stroke-linejoin='round' brush-type='1' stroke-wetness='0.5'></path><path  style = ' stroke:#000000;  fill:none;  stroke-width:1.0;' d="M107.67 186.46 a0.50 0.50 0 1 0 0.01 0 " stroke-linecap='round' stroke-linejoin='round' brush-type='1' stroke-wetness='0.5'></path><path  style = ' stroke:#000000;  fill:none;  stroke-width:1.0;' d="M115.63 177.04 L115.76 177.44 L115.99 178.59 L116.52 180.80 L117.27 183.45 L118.11 185.36 L118.91 186.37 L119.70 186.60 L120.72 185.80 L122.00 184.07 L123.38 181.77 L124.44 180.05 L125.10 179.25 L125.41 179.82 L125.54 181.46 L125.59 183.63 L125.63 185.18 L126.03 185.84 L126.96 185.44 L128.60 183.90 L130.59 181.15 L132.49 178.10 L133.95 175.80 L134.79 174.69 L135.24 174.78 " stroke-linecap='round' stroke-linejoin='round' brush-type='1' stroke-wetness='0.5'></path><path  style = ' stroke:#000000;  fill:none;  stroke-width:1.0;' d="M136.47 184.47 L137.01 184.80 L137.94 184.91 L139.71 184.91 L141.74 184.29 L143.29 183.23 L144.22 182.04 L144.44 181.02 L143.86 180.44 L142.54 180.36 L140.55 181.06 L138.51 182.48 L137.05 184.34 L136.34 186.06 L136.83 187.44 L138.78 188.37 L142.54 188.85 L146.61 188.94 " stroke-linecap='round' stroke-linejoin='round' brush-type='1' stroke-wetness='0.5'></path><path  style = ' stroke:#000000;  fill:none;  stroke-width:1.0;' d="M164.62 182.21 L164.42 181.82 L163.73 181.68 L162.19 181.73 L159.88 182.61 L157.67 184.16 L156.03 185.98 L155.28 187.61 L155.77 188.76 L157.14 189.34 " stroke-linecap='round' stroke-linejoin='round' brush-type='1' stroke-wetness='0.5'></path><path  style = ' stroke:#000000;  fill:none;  stroke-width:1.0;' d="M167.41 186.60 L167.14 184.60 L166.43 183.98 L165.11 183.19 L163.65 184.29 L162.76 185.89 L162.41 187.17 L162.85 187.92 L163.96 187.79 L165.59 186.73 L167.05 184.87 L167.94 182.92 L168.34 181.59 L168.43 181.64 L168.47 183.06 L168.43 185.36 L168.38 187.48 L168.34 188.72 L169.31 187.92 " stroke-linecap='round' stroke-linejoin='round' brush-type='1' stroke-wetness='0.5'></path><path  style = ' stroke:#000000;  fill:none;  stroke-width:1.0;' d="M175.24 173.59 L175.24 173.25 L175.02 174.56 L174.62 176.86 L174.22 180.40 L174.05 183.32 L174.05 185.62 L174.05 186.95 " stroke-linecap='round' stroke-linejoin='round' brush-type='1' stroke-wetness='0.5'></path><path  style = ' stroke:#000000;  fill:none;  stroke-width:1.0;' d="M178.43 173.59 L178.49 174.25 L178.51 175.31 L178.43 177.88 L178.03 181.29 L177.54 184.91 L177.01 188.14 L176.74 190.40 " stroke-linecap='round' stroke-linejoin='round' brush-type='1' stroke-wetness='0.5'></path><path  style = ' stroke:#000000;  fill:none;  stroke-width:1.0;' d="M193.03 183.94 L193.96 183.87 L194.93 183.76 L196.66 183.36 L197.99 182.70 L198.65 181.73 L198.65 180.58 L197.90 179.56 L196.57 178.94 L195.02 179.16 L193.60 180.36 L192.68 182.52 L192.23 185.14 L192.68 187.35 L194.00 188.76 L196.17 189.34 L198.52 188.90 L200.46 187.70 " stroke-linecap='round' stroke-linejoin='round' brush-type='1' stroke-wetness='0.5'></path><path  style = ' stroke:#000000;  fill:none;  stroke-width:1.0;' d="M205.64 171.46 L205.64 172.26 L205.64 174.25 L205.64 177.92 L205.64 182.21 L205.73 185.58 L205.95 187.75 " stroke-linecap='round' stroke-linejoin='round' brush-type='1' stroke-wetness='0.5'></path><path  style = ' stroke:#000000;  fill:none;  stroke-width:1.0;' d="M209.49 183.14 L210.22 183.48 L210.91 183.59 L212.32 183.81 L213.74 183.54 L214.98 182.88 L215.78 181.77 L215.91 180.49 L215.20 179.47 L213.70 178.94 L211.66 179.56 L209.76 181.20 L208.52 183.50 L208.03 185.71 L208.65 187.26 L209.93 188.14 " stroke-linecap='round' stroke-linejoin='round' brush-type='1' stroke-wetness='0.5'></path><path  style = ' stroke:#000000;  fill:none;  stroke-width:1.0;' d="M216.53 188.06 L217.26 187.13 L217.50 186.24 L217.94 184.34 L217.90 182.17 L218.21 179.96 L219.09 178.14 L220.51 177.21 L222.06 177.48 L223.34 178.94 L224.14 181.24 L224.45 183.63 L224.36 185.40 L224.18 186.37 L224.01 185.67 L224.32 183.81 L225.29 181.33 L226.79 179.87 L228.25 179.65 L229.23 180.75 L229.67 182.70 L229.80 184.87 L229.80 186.51 " stroke-linecap='round' stroke-linejoin='round' brush-type='1' stroke-wetness='0.5'></path><path  style = ' stroke:#000000;  fill:none;  stroke-width:1.0;' d="M232.59 184.07 L233.59 183.94 L234.63 183.72 L236.57 183.23 L238.21 182.48 L239.18 181.59 L239.49 180.67 L238.88 180.00 L237.64 179.69 L235.91 180.27 L234.23 181.86 L232.99 184.29 L232.33 186.73 L232.86 188.54 L234.18 189.60 L236.13 190.05 L237.81 190.18 L239.14 189.96 L239.98 189.34 L240.56 188.23 L240.95 186.73 L241.31 184.91 L241.66 183.06 L242.06 181.64 L242.59 180.93 L243.26 180.89 L243.96 181.73 L244.50 183.50 L244.80 185.89 L244.89 187.97 L244.94 189.16 " stroke-linecap='round' stroke-linejoin='round' brush-type='1' stroke-wetness='0.5'></path><path  style = ' stroke:#000000;  fill:none;  stroke-width:1.0;' d="M248.52 178.10 L248.85 178.76 L248.96 179.69 L249.19 181.64 L249.19 183.98 L249.05 186.20 L248.88 187.79 " stroke-linecap='round' stroke-linejoin='round' brush-type='1' stroke-wetness='0.5'></path><path  style = ' stroke:#000000;  fill:none;  stroke-width:1.0;' d="M247.33 180.09 L247.92 180.49 L248.70 180.71 L250.47 181.15 L252.24 181.42 " stroke-linecap='round' stroke-linejoin='round' brush-type='1' stroke-wetness='0.5'></path><path  style = ' stroke:#000000;  fill:none;  stroke-width:1.0;' d="M256.09 181.95 L254.89 182.15 L253.97 182.35 L252.50 182.79 L251.84 183.41 L252.37 184.21 L253.66 185.05 L255.43 185.80 L256.71 186.37 L257.37 186.91 L257.24 187.44 L256.18 187.97 L254.27 188.45 L252.11 188.76 L250.56 189.03 L249.85 189.21 " stroke-linecap='round' stroke-linejoin='round' brush-type='1' stroke-wetness='0.5'></path><path  style = ' stroke:#000000;  fill:none;  stroke-width:1.0;' d="M277.07 183.67 L276.27 183.14 L275.21 183.19 L273.44 183.67 L272.02 185.18 L271.40 186.91 L271.80 188.19 L273.26 188.81 L275.56 188.81 L277.86 188.23 L279.45 187.30 L280.21 186.15 L279.72 185.00 L278.53 184.03 L276.93 183.45 L275.87 183.41 L275.34 184.03 " stroke-linecap='round' stroke-linejoin='round' brush-type='1' stroke-wetness='0.5'></path><path  style = ' stroke:#000000;  fill:none;  stroke-width:1.0;' d="M293.13 175.58 L292.00 174.45 L291.09 173.94 L289.50 173.05 L288.39 172.97 L287.60 173.59 L287.02 175.18 L286.71 177.79 L286.62 180.75 L286.62 183.45 L286.58 185.53 L286.36 186.95 L285.96 187.75 " stroke-linecap='round' stroke-linejoin='round' brush-type='1' stroke-wetness='0.5'></path><path  style = ' stroke:#000000;  fill:none;  stroke-width:1.0;' d="M283.97 181.68 L284.96 181.82 L285.92 181.86 L287.91 182.08 L290.08 182.30 L292.24 182.61 " stroke-linecap='round' stroke-linejoin='round' brush-type='1' stroke-wetness='0.5'></path><path  style = ' stroke:#000000;  fill:none;  stroke-width:1.0;' d="M307.20 189.78 L307.60 189.45 L308.53 188.54 L310.30 186.68 L312.60 184.12 L314.77 181.42 L316.72 178.72 L318.18 176.28 L319.15 174.38 L319.72 173.28 L319.99 172.88 L319.95 174.16 L319.55 176.68 L318.93 180.18 L318.26 183.28 L317.87 185.89 L317.69 188.06 L317.73 189.78 L318.13 191.06 L319.06 191.91 L320.61 192.30 L322.42 192.39 L324.06 192.08 L325.21 191.42 L325.79 190.53 L326.01 189.69 " stroke-linecap='round' stroke-linejoin='round' brush-type='1' stroke-wetness='0.5'></path><path  style = ' stroke:#000000;  fill:none;  stroke-width:1.0;' d="M312.25 182.08 L312.78 182.08 L313.53 182.08 L315.30 182.08 L317.69 182.08 L320.26 182.08 L322.60 182.08 L324.11 182.08 " stroke-linecap='round' stroke-linejoin='round' brush-type='1' stroke-wetness='0.5'></path><path  style = ' stroke:#000000;  fill:none;  stroke-width:1.0;' d="M324.73 165.62 L325.19 165.42 L325.88 165.35 L327.38 165.22 L329.15 165.18 L330.70 165.13 L332.03 165.13 " stroke-linecap='round' stroke-linejoin='round' brush-type='1' stroke-wetness='0.5'></path><path  style = ' stroke:#000000;  fill:none;  stroke-width:1.0;' d="M328.57 166.95 L328.44 167.54 L328.40 168.32 L328.31 169.96 L328.31 171.77 L328.31 173.36 L328.31 174.38 L328.31 174.87 L328.22 175.13 " stroke-linecap='round' stroke-linejoin='round' brush-type='1' stroke-wetness='0.5'></path><path  style = ' stroke:#000000;  fill:none;  stroke-width:1.0;' d="M324.46 173.59 L325.12 173.59 L326.10 173.59 L327.87 173.67 L329.77 173.85 L331.36 174.03 L332.78 174.12 " stroke-linecap='round' stroke-linejoin='round' brush-type='1' stroke-wetness='0.5'></path></g><g id='id-text-layer'  type='type-normal' preserveAspectRatio="none" ><text  style = 'fill: #000000; font-family:Helvetica-Light; font-size:18.0; ' preserveAspectRatio="none" x= '40' y='40' width = '688' height = '944' transform="rotate(   0,  384,  512)" ><tspan visibility='hidden'><![CDATA[]]></tspan></text></g><recordings ></recordings><defs   ></defs></svg> 