<?xml version="1.0" standalone="no"?> <!DOCTYPE svg PUBLIC "-//W3C//DTD SVG 1.1//EN" "http://www.w3.org/Graphics/SVG/1.1/DTD/svg11.dtd"> <svg   version="1.1"     xmlns="http://www.w3.org/2000/svg"  xmlns:xlink="http://www.w3.org/1999/xlink" name="" width="768.0" height="1024.0" background="N_PAPERBACKGROUND_WHITE_WITH_GRAY_LINE" line-height="30.0" margin-top="40.0" margin-right="40.0" margin-bottom="40.0" margin-left="40.0"><g id='id-background-layer'  type='type-normal' preserveAspectRatio="none" ><rect  style = ' stroke:#FFFFFF;  fill:#FFFFFF;  stroke-width:0.0;' x="0" y="0" width="768" height="1024" preserveAspectRatio="none" transform="rotate(   0,  384,  512)" ></rect><polyline  style = ' stroke:#D7D6D6;  fill:none;  stroke-width:1.0;' points = ' 0,70 768,70' preserveAspectRatio="none" transform="rotate(   0,  384,   70)" ></polyline><polyline  style = ' stroke:#D7D6D6;  fill:none;  stroke-width:1.0;' points = ' 0,100 768,100' preserveAspectRatio="none" transform="rotate(   0,  384,  100)" ></polyline><polyline  style = ' stroke:#D7D6D6;  fill:none;  stroke-width:1.0;' points = ' 0,130 768,130' preserveAspectRatio="none" transform="rotate(   0,  384,  130)" ></polyline><polyline  style = ' stroke:#D7D6D6;  fill:none;  stroke-width:1.0;' points = ' 0,160 768,160' preserveAspectRatio="none" transform="rotate(   0,  384,  160)" ></polyline><polyline  style = ' stroke:#D7D6D6;  fill:none;  stroke-width:1.0;' points = ' 0,190 768,190' preserveAspectRatio="none" transform="rotate(   0,  384,  190)" ></polyline><polyline  style = ' stroke:#D7D6D6;  fill:none;  stroke-width:1.0;' points = ' 0,220 768,220' preserveAspectRatio="none" transform="rotate(   0,  384,  220)" ></polyline><polyline  style = ' stroke:#D7D6D6;  fill:none;  stroke-width:1.0;' points = ' 0,250 768,250' preserveAspectRatio="none" transform="rotate(   0,  384,  250)" ></polyline><polyline  style = ' stroke:#D7D6D6;  fill:none;  stroke-width:1.0;' points = ' 0,280 768,280' preserveAspectRatio="none" transform="rotate(   0,  384,  280)" ></polyline><polyline  style = ' stroke:#D7D6D6;  fill:none;  stroke-width:1.0;' points = ' 0,310 768,310' preserveAspectRatio="none" transform="rotate(   0,  384,  310)" ></polyline><polyline  style = ' stroke:#D7D6D6;  fill:none;  stroke-width:1.0;' points = ' 0,340 768,340' preserveAspectRatio="none" transform="rotate(   0,  384,  340)" ></polyline><polyline  style = ' stroke:#D7D6D6;  fill:none;  stroke-width:1.0;' points = ' 0,370 768,370' preserveAspectRatio="none" transform="rotate(   0,  384,  370)" ></polyline><polyline  style = ' stroke:#D7D6D6;  fill:none;  stroke-width:1.0;' points = ' 0,400 768,400' preserveAspectRatio="none" transform="rotate(   0,  384,  400)" ></polyline><polyline  style = ' stroke:#D7D6D6;  fill:none;  stroke-width:1.0;' points = ' 0,430 768,430' preserveAspectRatio="none" transform="rotate(   0,  384,  430)" ></polyline><polyline  style = ' stroke:#D7D6D6;  fill:none;  stroke-width:1.0;' points = ' 0,460 768,460' preserveAspectRatio="none" transform="rotate(   0,  384,  460)" ></polyline><polyline  style = ' stroke:#D7D6D6;  fill:none;  stroke-width:1.0;' points = ' 0,490 768,490' preserveAspectRatio="none" transform="rotate(   0,  384,  490)" ></polyline><polyline  style = ' stroke:#D7D6D6;  fill:none;  stroke-width:1.0;' points = ' 0,520 768,520' preserveAspectRatio="none" transform="rotate(   0,  384,  520)" ></polyline><polyline  style = ' stroke:#D7D6D6;  fill:none;  stroke-width:1.0;' points = ' 0,550 768,550' preserveAspectRatio="none" transform="rotate(   0,  384,  550)" ></polyline><polyline  style = ' stroke:#D7D6D6;  fill:none;  stroke-width:1.0;' points = ' 0,580 768,580' preserveAspectRatio="none" transform="rotate(   0,  384,  580)" ></polyline><polyline  style = ' stroke:#D7D6D6;  fill:none;  stroke-width:1.0;' points = ' 0,610 768,610' preserveAspectRatio="none" transform="rotate(   0,  384,  610)" ></polyline><polyline  style = ' stroke:#D7D6D6;  fill:none;  stroke-width:1.0;' points = ' 0,640 768,640' preserveAspectRatio="none" transform="rotate(   0,  384,  640)" ></polyline><polyline  style = ' stroke:#D7D6D6;  fill:none;  stroke-width:1.0;' points = ' 0,670 768,670' preserveAspectRatio="none" transform="rotate(   0,  384,  670)" ></polyline><polyline  style = ' stroke:#D7D6D6;  fill:none;  stroke-width:1.0;' points = ' 0,700 768,700' preserveAspectRatio="none" transform="rotate(   0,  384,  700)" ></polyline><polyline  style = ' stroke:#D7D6D6;  fill:none;  stroke-width:1.0;' points = ' 0,730 768,730' preserveAspectRatio="none" transform="rotate(   0,  384,  730)" ></polyline><polyline  style = ' stroke:#D7D6D6;  fill:none;  stroke-width:1.0;' points = ' 0,760 768,760' preserveAspectRatio="none" transform="rotate(   0,  384,  760)" ></polyline><polyline  style = ' stroke:#D7D6D6;  fill:none;  stroke-width:1.0;' points = ' 0,790 768,790' preserveAspectRatio="none" transform="rotate(   0,  384,  790)" ></polyline><polyline  style = ' stroke:#D7D6D6;  fill:none;  stroke-width:1.0;' points = ' 0,820 768,820' preserveAspectRatio="none" transform="rotate(   0,  384,  820)" ></polyline><polyline  style = ' stroke:#D7D6D6;  fill:none;  stroke-width:1.0;' points = ' 0,850 768,850' preserveAspectRatio="none" transform="rotate(   0,  384,  850)" ></polyline><polyline  style = ' stroke:#D7D6D6;  fill:none;  stroke-width:1.0;' points = ' 0,880 768,880' preserveAspectRatio="none" transform="rotate(   0,  384,  880)" ></polyline><polyline  style = ' stroke:#D7D6D6;  fill:none;  stroke-width:1.0;' points = ' 0,910 768,910' preserveAspectRatio="none" transform="rotate(   0,  384,  910)" ></polyline><polyline  style = ' stroke:#D7D6D6;  fill:none;  stroke-width:1.0;' points = ' 0,940 768,940' preserveAspectRatio="none" transform="rotate(   0,  384,  940)" ></polyline><polyline  style = ' stroke:#D7D6D6;  fill:none;  stroke-width:1.0;' points = ' 0,970 768,970' preserveAspectRatio="none" transform="rotate(   0,  384,  970)" ></polyline><polyline  style = ' stroke:#C74F4F;  fill:none;  stroke-width:0.5;' points = ' 40,0 40,1024' preserveAspectRatio="none" transform="rotate(   0,   40,  512)" ></polyline><polyline  style = ' stroke:#B6B6B6; stroke-opacity:0.8; fill:none;  stroke-width:0.5;' points = ' 728,0 728,1024' preserveAspectRatio="none" transform="rotate(   0,  728,  512)" ></polyline></g><g id='id-main-layer'  type='type-normal' preserveAspectRatio="none" ><path  style = ' stroke:#000000;  fill:none;  stroke-width:1.0;' d="M46.58 100.90 L46.64 100.10 L46.66 99.26 L46.69 97.22 L46.69 94.51 L46.62 91.15 L46.48 87.66 L46.26 84.62 L46.08 82.23 L45.94 80.48 L45.83 79.20 L45.76 78.27 L45.76 77.59 L46.08 77.16 L46.83 76.95 L47.94 76.95 L49.08 77.45 L49.97 78.48 L50.47 80.16 L50.47 82.23 L49.76 84.62 L48.55 87.12 L47.12 89.37 L45.94 91.12 L45.23 92.40 L44.91 93.30 L45.26 94.05 L46.26 94.62 L47.83 95.04 L49.62 95.29 L51.33 95.44 L52.97 95.54 " stroke-linecap='round' stroke-linejoin='round' brush-type='1' stroke-wetness='0.5'></path><path  style = ' stroke:#000000;  fill:none;  stroke-width:1.0;' d="M56.33 91.48 L56.76 91.42 L57.44 91.37 L58.72 91.12 L60.22 90.58 L61.50 89.65 L62.43 88.55 L62.86 87.55 L62.72 86.87 L62.15 86.55 L61.22 86.48 L60.22 86.83 L59.22 87.73 L58.43 89.19 L57.97 90.83 L57.90 92.40 L58.47 93.76 L59.79 94.87 " stroke-linecap='round' stroke-linejoin='round' brush-type='1' stroke-wetness='0.5'></path><path  style = ' stroke:#000000;  fill:none;  stroke-width:1.0;' d="M68.86 89.98 L68.22 90.40 L67.54 90.76 L66.29 91.69 L65.25 92.83 L64.61 94.33 L64.36 95.83 L64.93 97.19 L66.40 98.04 L68.50 98.40 " stroke-linecap='round' stroke-linejoin='round' brush-type='1' stroke-wetness='0.5'></path><path  style = ' stroke:#000000;  fill:none;  stroke-width:1.0;' d="M74.53 91.58 L73.52 92.01 L72.75 92.69 L71.54 93.97 L71.00 95.37 L71.11 96.40 L71.86 96.97 L73.18 96.54 L74.64 95.29 L75.71 93.26 L76.28 91.26 L76.50 89.73 L76.57 89.05 L76.53 89.58 L76.35 91.15 L76.07 93.47 L75.82 95.72 L75.71 97.22 " stroke-linecap='round' stroke-linejoin='round' brush-type='1' stroke-wetness='0.5'></path><path  style = ' stroke:#000000;  fill:none;  stroke-width:1.0;' d="M81.28 79.80 L81.33 80.39 L81.35 82.19 L81.24 85.51 L81.03 89.51 L80.82 92.72 L80.75 95.04 L80.75 96.33 " stroke-linecap='round' stroke-linejoin='round' brush-type='1' stroke-wetness='0.5'></path><path  style = ' stroke:#000000;  fill:none;  stroke-width:1.0;' d="M84.60 78.62 L84.55 79.21 L84.53 80.16 L84.49 82.52 L84.49 85.98 L84.46 89.80 L84.31 93.26 L83.82 95.90 " stroke-linecap='round' stroke-linejoin='round' brush-type='1' stroke-wetness='0.5'></path><path  style = ' stroke:#000000;  fill:none;  stroke-width:1.0;' d="M49.37 101.54 L49.74 101.43 L50.76 101.40 L53.15 101.33 L56.90 101.29 L61.58 101.11 L66.90 100.65 L72.36 100.01 L77.71 99.33 L82.57 98.86 L86.81 98.58 L90.10 98.44 L92.38 98.33 L93.67 98.26 L94.24 97.86 " stroke-linecap='round' stroke-linejoin='round' brush-type='1' stroke-wetness='0.5'></path><path  style = ' stroke:#000000;  fill:none;  stroke-width:1.0;' d="M93.06 87.83 a0.50 0.50 0 1 0 0.01 0 " stroke-linecap='round' stroke-linejoin='round' brush-type='1' stroke-wetness='0.5'></path><path  style = ' stroke:#000000;  fill:none;  stroke-width:1.0;' d="M94.24 92.65 a0.50 0.50 0 1 0 0.01 0 " stroke-linecap='round' stroke-linejoin='round' brush-type='1' stroke-wetness='0.5'></path><path  style = ' stroke:#000000;  fill:none;  stroke-width:1.0;' d="M111.59 77.77 L111.75 78.20 L111.84 79.55 L112.09 82.44 L112.30 86.58 L112.52 90.90 L112.62 94.72 L112.66 97.79 L112.66 99.94 " stroke-linecap='round' stroke-linejoin='round' brush-type='1' stroke-wetness='0.5'></path><path  style = ' stroke:#000000;  fill:none;  stroke-width:1.0;' d="M115.98 77.87 L115.87 78.14 L115.83 79.55 L115.94 82.48 L116.30 86.58 L116.80 90.48 L117.16 93.76 L117.37 96.22 L117.44 97.97 " stroke-linecap='round' stroke-linejoin='round' brush-type='1' stroke-wetness='0.5'></path><path  style = ' stroke:#000000;  fill:none;  stroke-width:1.0;' d="M112.23 89.87 L113.03 89.76 L113.73 89.73 L115.55 89.65 L117.05 89.58 " stroke-linecap='round' stroke-linejoin='round' brush-type='1' stroke-wetness='0.5'></path><path  style = ' stroke:#000000;  fill:none;  stroke-width:1.0;' d="M124.33 75.73 L124.38 76.70 L124.44 77.80 L124.54 80.09 L124.62 82.44 L124.65 84.23 " stroke-linecap='round' stroke-linejoin='round' brush-type='1' stroke-wetness='0.5'></path><path  style = ' stroke:#000000;  fill:none;  stroke-width:1.0;' d="M122.19 79.16 L122.72 79.11 L123.37 79.09 L124.33 79.02 " stroke-linecap='round' stroke-linejoin='round' brush-type='1' stroke-wetness='0.5'></path><path  style = ' stroke:#000000;  fill:none;  stroke-width:1.0;' d="M127.22 75.84 L126.90 76.38 L126.65 77.20 L126.01 78.87 L125.44 80.66 " stroke-linecap='round' stroke-linejoin='round' brush-type='1' stroke-wetness='0.5'></path><path  style = ' stroke:#000000;  fill:none;  stroke-width:1.0;' d="M121.97 78.95 L122.35 79.00 L123.08 79.09 L124.51 79.45 L126.37 80.20 " stroke-linecap='round' stroke-linejoin='round' brush-type='1' stroke-wetness='0.5'></path><path  style = ' stroke:#000000;  fill:none;  stroke-width:1.0;' d="M139.00 73.48 L138.41 74.02 L137.18 75.70 L134.97 79.27 L132.50 84.23 L130.76 89.05 L129.76 93.26 L129.51 96.69 L130.04 99.40 L131.15 101.58 L132.79 103.15 L134.68 104.25 L136.43 104.79 " stroke-linecap='round' stroke-linejoin='round' brush-type='1' stroke-wetness='0.5'></path><path  style = ' stroke:#000000;  fill:none;  stroke-width:1.0;' d="M141.79 100.90 L142.27 100.31 L142.43 99.69 L142.75 98.11 L142.75 95.90 L142.68 93.05 L142.43 90.08 L141.96 87.44 L141.46 85.44 L141.07 84.01 L140.86 83.12 L140.75 82.59 L140.72 82.27 L141.21 82.05 L142.18 81.87 L143.71 81.73 L145.32 81.66 L146.96 81.62 L148.46 81.62 L149.71 81.62 L150.57 81.66 " stroke-linecap='round' stroke-linejoin='round' brush-type='1' stroke-wetness='0.5'></path><path  style = ' stroke:#000000;  fill:none;  stroke-width:1.0;' d="M142.21 86.23 L142.86 86.23 L144.07 86.23 L146.14 86.19 L148.46 86.19 " stroke-linecap='round' stroke-linejoin='round' brush-type='1' stroke-wetness='0.5'></path><path  style = ' stroke:#000000;  fill:none;  stroke-width:1.0;' d="M149.50 99.72 L149.87 99.45 L150.46 98.83 L151.67 97.44 L152.99 95.26 L154.17 92.55 L155.07 89.69 L155.74 87.26 L156.17 85.59 L156.39 84.51 L156.46 83.84 L156.35 83.44 L155.60 83.87 L154.46 85.34 L153.24 87.69 L152.67 90.19 L152.71 92.44 L153.42 94.33 L154.74 95.76 L156.56 96.65 L158.49 97.08 L160.17 97.22 " stroke-linecap='round' stroke-linejoin='round' brush-type='1' stroke-wetness='0.5'></path><path  style = ' stroke:#000000;  fill:none;  stroke-width:1.0;' d="M171.24 80.34 L168.34 89.87 L167.84 93.47 L166.99 100.40 L168.70 100.97 " stroke-linecap='round' stroke-linejoin='round' brush-type='1' stroke-wetness='0.5'></path><path  style = ' stroke:#000000;  fill:none;  stroke-width:1.0;' d="M174.34 96.83 L174.02 96.29 L173.91 95.79 L173.70 94.69 L173.70 93.47 L173.91 92.12 L174.41 90.73 L175.27 89.48 L176.23 88.44 L177.30 87.83 L178.41 87.62 L179.52 88.26 L180.45 89.69 L181.12 91.98 L181.55 94.33 L181.84 96.47 L182.05 97.86 " stroke-linecap='round' stroke-linejoin='round' brush-type='1' stroke-wetness='0.5'></path><path  style = ' stroke:#000000;  fill:none;  stroke-width:1.0;' d="M183.02 80.34 L183.55 80.18 L184.37 80.16 L185.94 80.45 L187.76 81.62 L189.33 83.73 L190.55 86.55 L191.19 89.44 L191.44 92.19 L191.48 94.47 L191.33 96.37 L190.98 97.83 L190.44 99.01 L189.87 99.97 L189.41 100.68 L189.08 101.08 " stroke-linecap='round' stroke-linejoin='round' brush-type='1' stroke-wetness='0.5'></path><path  style = ' stroke:#000000;  fill:none;  stroke-width:1.0;' d="M194.37 74.45 L194.74 74.77 L195.58 75.91 L197.12 78.30 L198.83 81.66 L200.15 85.19 L200.93 88.66 L201.29 91.83 L201.08 94.51 L200.44 96.76 L199.36 98.61 L198.19 100.11 L197.04 101.15 L196.01 101.72 L195.26 101.93 " stroke-linecap='round' stroke-linejoin='round' brush-type='1' stroke-wetness='0.5'></path><path  style = ' stroke:#000000;  fill:none;  stroke-width:1.0;' d="M203.36 88.91 L204.11 88.80 L205.15 88.76 L207.00 88.69 L209.04 88.69 L210.86 88.69 L212.22 88.73 " stroke-linecap='round' stroke-linejoin='round' brush-type='1' stroke-wetness='0.5'></path><path  style = ' stroke:#000000;  fill:none;  stroke-width:1.0;' d="M207.65 93.51 L208.13 93.46 L208.86 93.44 L210.54 93.40 L212.93 93.40 L215.07 93.40 " stroke-linecap='round' stroke-linejoin='round' brush-type='1' stroke-wetness='0.5'></path><path  style = ' stroke:#000000;  fill:none;  stroke-width:1.0;' d="M239.24 76.27 L238.76 75.47 L238.34 75.09 L237.38 74.41 L236.17 74.27 L234.60 74.27 L232.81 74.73 L230.92 75.77 L229.10 77.48 L227.56 79.55 L226.64 81.94 L226.28 84.44 L226.89 86.91 L228.31 88.80 L230.92 89.94 L234.13 90.08 L237.92 89.15 L241.59 87.30 L244.56 84.76 L246.31 81.94 L246.95 79.27 L246.80 76.95 L245.98 75.23 L244.20 74.06 " stroke-linecap='round' stroke-linejoin='round' brush-type='1' stroke-wetness='0.5'></path><path  style = ' stroke:#000000;  fill:none;  stroke-width:1.0;' d="M232.92 75.84 L233.08 77.07 L233.20 78.37 L233.53 81.02 L233.78 83.51 L233.95 85.62 L233.99 87.19 " stroke-linecap='round' stroke-linejoin='round' brush-type='1' stroke-wetness='0.5'></path><path  style = ' stroke:#000000;  fill:none;  stroke-width:1.0;' d="M228.10 82.91 L228.58 82.64 L229.71 82.48 L231.99 82.19 L234.85 82.09 L237.45 82.19 " stroke-linecap='round' stroke-linejoin='round' brush-type='1' stroke-wetness='0.5'></path><path  style = ' stroke:#000000;  fill:none;  stroke-width:1.0;' d="M219.21 95.12 L219.69 95.33 L220.03 95.76 L220.64 96.69 L221.03 97.79 L221.32 98.65 L221.57 99.11 L221.82 99.26 L222.14 98.97 L222.53 98.22 L222.89 97.22 L223.17 96.51 L223.39 96.72 L223.57 97.44 L223.82 98.29 L224.17 98.65 L224.78 98.61 L225.53 98.08 L226.39 97.08 L227.17 95.90 L227.81 95.04 " stroke-linecap='round' stroke-linejoin='round' brush-type='1' stroke-wetness='0.5'></path><path  style = ' stroke:#000000;  fill:none;  stroke-width:1.0;' d="M235.27 93.94 L234.79 94.15 L234.20 94.65 L233.17 95.72 L232.38 97.15 L232.03 98.58 L232.06 99.86 L232.63 100.86 L233.74 101.47 L235.13 101.61 L236.13 101.40 " stroke-linecap='round' stroke-linejoin='round' brush-type='1' stroke-wetness='0.5'></path><path  style = ' stroke:#000000;  fill:none;  stroke-width:1.0;' d="M231.96 98.54 L232.44 98.38 L233.20 98.29 L234.95 98.01 L237.10 97.65 " stroke-linecap='round' stroke-linejoin='round' brush-type='1' stroke-wetness='0.5'></path><path  style = ' stroke:#000000;  fill:none;  stroke-width:1.0;' d="M245.02 91.69 L244.43 91.69 L243.77 91.80 L242.56 92.15 L241.49 92.80 L240.81 93.62 L240.52 94.44 L240.88 95.26 L241.70 96.04 L242.77 96.87 L243.52 97.62 L243.88 98.44 L243.84 99.29 L243.41 100.26 L242.52 101.18 L241.27 102.11 L240.17 103.04 " stroke-linecap='round' stroke-linejoin='round' brush-type='1' stroke-wetness='0.5'></path><path  style = ' stroke:#000000;  fill:none;  stroke-width:1.0;' d="M246.52 105.40 L246.41 104.33 L246.38 103.18 L246.34 101.29 L246.59 99.86 L247.02 99.15 L247.66 98.79 L248.34 98.69 L249.02 99.01 L249.55 99.76 L249.91 100.97 L250.09 102.26 L250.16 103.58 L250.16 104.58 " stroke-linecap='round' stroke-linejoin='round' brush-type='1' stroke-wetness='0.5'></path><path  style = ' stroke:#000000;  fill:none;  stroke-width:1.0;' d="M260.12 78.62 L260.55 78.57 L261.26 78.55 L262.83 78.52 L264.97 78.48 L267.22 78.45 L269.22 78.41 L270.58 78.41 L271.33 78.59 L271.61 79.27 L271.47 80.77 L270.76 83.09 L269.36 85.94 L267.62 88.76 L265.97 91.12 L264.80 92.76 L264.08 93.76 L263.72 94.22 " stroke-linecap='round' stroke-linejoin='round' brush-type='1' stroke-wetness='0.5'></path><path  style = ' stroke:#000000;  fill:none;  stroke-width:1.0;' d="M268.79 80.77 L268.10 80.93 L267.37 81.84 L265.97 84.09 L264.58 87.55 L263.23 91.15 L262.01 94.01 L261.12 95.79 L260.69 96.62 L261.26 96.90 L262.87 96.94 L265.58 96.83 L268.44 96.58 L271.22 96.26 L273.43 95.97 L274.97 95.79 " stroke-linecap='round' stroke-linejoin='round' brush-type='1' stroke-wetness='0.5'></path><path  style = ' stroke:#000000;  fill:none;  stroke-width:1.0;' d="M290.32 77.55 L289.78 77.07 L289.32 76.91 L288.43 76.52 L287.64 76.41 L286.93 76.30 L286.29 76.27 L285.75 76.45 L285.36 77.23 L285.11 79.05 L285.00 81.94 L284.96 85.59 L284.89 89.37 L284.68 92.90 L284.29 95.83 L283.79 98.04 L283.43 99.44 L283.25 100.15 L283.25 100.47 L283.93 100.65 L285.32 100.76 L287.36 100.79 L289.32 100.79 L291.14 100.79 L292.75 100.79 " stroke-linecap='round' stroke-linejoin='round' brush-type='1' stroke-wetness='0.5'></path><path  style = ' stroke:#000000;  fill:none;  stroke-width:1.0;' d="M295.78 78.41 L295.99 78.79 L296.78 80.30 L298.17 82.98 L299.92 86.44 L301.28 89.19 L302.42 91.51 L303.28 93.12 L303.95 94.12 " stroke-linecap='round' stroke-linejoin='round' brush-type='1' stroke-wetness='0.5'></path><path  style = ' stroke:#000000;  fill:none;  stroke-width:1.0;' d="M303.92 79.59 L303.33 79.80 L302.85 80.37 L301.81 81.91 L300.71 84.34 L299.35 87.33 L298.03 90.19 L296.96 92.65 L296.39 94.55 " stroke-linecap='round' stroke-linejoin='round' brush-type='1' stroke-wetness='0.5'></path><path  style = ' stroke:#000000;  fill:none;  stroke-width:1.0;' d="M305.63 92.97 L305.85 93.40 L305.92 94.08 L306.13 95.12 L306.31 95.94 L306.60 96.22 L306.99 96.26 L307.52 95.87 L308.13 95.12 L308.67 94.26 L309.02 93.76 L309.24 93.87 L309.42 94.55 L309.63 95.47 L309.95 96.26 L310.49 96.62 L311.20 96.62 L312.06 96.08 L312.81 95.04 L313.45 93.65 L313.88 92.44 L314.20 91.58 L314.38 91.15 L314.66 90.80 " stroke-linecap='round' stroke-linejoin='round' brush-type='1' stroke-wetness='0.5'></path><path  style = ' stroke:#000000;  fill:none;  stroke-width:1.0;' d="M317.63 72.20 L318.05 72.15 L318.70 72.13 L320.09 72.09 L321.70 72.02 L323.16 71.95 L324.34 71.88 L325.19 71.88 L325.87 72.16 L326.34 73.02 L326.66 74.84 L326.80 77.48 L326.69 80.87 L326.44 84.59 L326.19 88.41 L326.09 92.08 L326.19 95.29 L326.48 97.86 L326.84 99.58 L327.12 100.65 L327.23 101.18 L327.09 101.47 L326.41 101.61 L325.09 101.76 L323.20 101.83 L321.12 101.86 L319.09 101.86 L317.38 101.86 L316.23 101.79 " stroke-linecap='round' stroke-linejoin='round' brush-type='1' stroke-wetness='0.5'></path><path  style = ' stroke:#000000;  fill:none;  stroke-width:1.0;' d="M330.58 88.16 L331.23 88.05 L331.87 88.01 L333.05 87.94 L334.12 87.94 L335.15 87.98 " stroke-linecap='round' stroke-linejoin='round' brush-type='1' stroke-wetness='0.5'></path><path  style = ' stroke:#000000;  fill:none;  stroke-width:1.0;' d="M329.62 92.87 L330.26 92.87 L331.16 92.87 L333.23 92.87 L336.15 92.87 L338.97 92.87 " stroke-linecap='round' stroke-linejoin='round' brush-type='1' stroke-wetness='0.5'></path><path  style = ' stroke:#000000;  fill:none;  stroke-width:1.0;' d="M349.43 74.77 L350.18 74.39 L351.04 74.23 L353.11 73.88 L355.68 73.66 L358.53 73.45 L361.18 73.31 L363.32 73.27 L364.85 73.34 L365.78 73.66 L366.24 74.52 L366.21 76.16 L365.46 78.59 L364.07 81.62 L362.18 84.76 L360.32 87.66 L358.75 89.94 L357.71 91.58 L357.18 92.55 " stroke-linecap='round' stroke-linejoin='round' brush-type='1' stroke-wetness='0.5'></path><path  style = ' stroke:#000000;  fill:none;  stroke-width:1.0;' d="M362.60 74.56 L362.23 74.93 L361.75 75.98 L360.75 78.16 L359.53 81.23 L358.32 84.23 L357.14 86.87 L356.18 88.76 L355.50 89.94 L355.18 90.55 L355.14 90.83 L355.46 91.12 L356.32 91.48 L357.93 91.87 L359.96 92.19 L362.21 92.47 L364.32 92.72 L366.14 93.01 L367.53 93.26 L368.46 93.47 L369.03 93.58 L369.35 93.62 L369.71 93.40 " stroke-linecap='round' stroke-linejoin='round' brush-type='1' stroke-wetness='0.5'></path><path  style = ' stroke:#000000;  fill:none;  stroke-width:1.0;' d="M381.77 74.02 L381.40 73.70 L381.06 73.59 L380.45 73.34 L379.95 73.27 L379.60 73.16 L379.31 73.09 L379.06 73.02 L378.81 72.98 L378.45 73.09 L378.06 73.70 L377.52 75.05 L376.99 77.20 L376.42 79.80 L375.88 82.52 L375.45 85.01 L375.17 87.16 L375.06 88.87 L375.03 90.15 L375.03 91.08 L375.06 91.76 L375.31 92.30 L375.88 92.76 L376.85 93.15 L378.02 93.55 L379.49 93.87 L381.17 94.08 L382.70 94.15 " stroke-linecap='round' stroke-linejoin='round' brush-type='1' stroke-wetness='0.5'></path><path  style = ' stroke:#000000;  fill:none;  stroke-width:1.0;' d="M382.20 78.52 L382.52 78.62 L382.95 78.91 L383.91 79.73 L385.02 81.09 L386.16 82.80 L387.20 84.55 L388.09 85.98 " stroke-linecap='round' stroke-linejoin='round' brush-type='1' stroke-wetness='0.5'></path><path  style = ' stroke:#000000;  fill:none;  stroke-width:1.0;' d="M388.09 78.52 L387.45 78.73 L386.98 79.16 L386.02 80.23 L385.24 81.80 L384.56 83.59 L384.16 85.23 L384.02 86.58 L384.02 87.44 " stroke-linecap='round' stroke-linejoin='round' brush-type='1' stroke-wetness='0.5'></path><path  style = ' stroke:#000000;  fill:none;  stroke-width:1.0;' d="M390.98 84.51 L391.09 85.10 L391.13 85.62 L391.20 86.73 L391.34 87.80 L391.73 88.80 L392.23 89.44 " stroke-linecap='round' stroke-linejoin='round' brush-type='1' stroke-wetness='0.5'></path><path  style = ' stroke:#000000;  fill:none;  stroke-width:1.0;' d="M395.05 87.51 L394.73 88.53 L394.34 89.12 L393.66 90.12 L392.95 90.48 L392.45 90.58 " stroke-linecap='round' stroke-linejoin='round' brush-type='1' stroke-wetness='0.5'></path><path  style = ' stroke:#000000;  fill:none;  stroke-width:1.0;' d="M398.59 87.94 L399.07 87.89 L399.48 87.87 L400.19 87.83 " stroke-linecap='round' stroke-linejoin='round' brush-type='1' stroke-wetness='0.5'></path><path  style = ' stroke:#000000;  fill:none;  stroke-width:1.0;' d="M404.48 87.30 a0.50 0.50 0 1 0 0.01 0 " stroke-linecap='round' stroke-linejoin='round' brush-type='1' stroke-wetness='0.5'></path><path  style = ' stroke:#000000;  fill:none;  stroke-width:1.0;' d="M411.12 86.98 L411.86 88.16 L411.97 88.76 L412.01 89.94 L411.19 90.55 L410.01 91.12 L408.76 91.58 L407.72 91.87 " stroke-linecap='round' stroke-linejoin='round' brush-type='1' stroke-wetness='0.5'></path><path  style = ' stroke:#000000;  fill:none;  stroke-width:1.0;' d="M414.65 79.27 L415.08 79.48 L415.54 79.80 L416.61 80.59 L417.79 81.77 L419.00 83.19 L420.00 84.62 L420.79 85.80 L421.32 86.66 L421.68 87.23 " stroke-linecap='round' stroke-linejoin='round' brush-type='1' stroke-wetness='0.5'></path><path  style = ' stroke:#000000;  fill:none;  stroke-width:1.0;' d="M422.79 78.95 L422.20 79.16 L421.68 79.45 L420.61 80.30 L419.50 81.73 L418.40 83.59 L417.43 85.51 " stroke-linecap='round' stroke-linejoin='round' brush-type='1' stroke-wetness='0.5'></path><path  style = ' stroke:#000000;  fill:none;  stroke-width:1.0;' d="M426.11 89.12 L425.95 88.48 L426.00 87.80 L426.25 86.62 L426.93 85.69 L427.82 85.19 L428.71 84.98 L429.46 85.16 L430.00 85.76 L430.28 86.80 L430.39 88.05 L430.21 89.15 " stroke-linecap='round' stroke-linejoin='round' brush-type='1' stroke-wetness='0.5'></path><path  style = ' stroke:#000000;  fill:none;  stroke-width:1.0;' d="M432.21 74.88 L432.53 74.82 L433.07 74.81 L434.21 74.77 L435.64 74.77 L437.00 74.77 L438.07 74.77 L438.82 74.77 L439.28 75.02 L439.57 75.88 L439.67 77.66 L439.64 80.30 L439.57 83.19 L439.49 85.94 L439.57 88.08 L439.74 89.65 L440.03 90.51 L440.24 90.90 L439.92 91.01 L439.07 91.05 L437.78 91.05 L436.53 91.05 L435.39 91.05 L434.43 91.05 L433.78 91.05 " stroke-linecap='round' stroke-linejoin='round' brush-type='1' stroke-wetness='0.5'></path><path  style = ' stroke:#000000;  fill:none;  stroke-width:1.0;' d="M435.21 101.43 L435.53 101.33 L435.96 100.79 L437.28 99.40 L439.35 97.01 L442.24 93.94 L445.42 90.37 L448.85 86.37 L452.09 82.23 L455.16 78.48 L457.56 75.66 L459.38 73.84 L460.48 72.81 L461.16 72.27 " stroke-linecap='round' stroke-linejoin='round' brush-type='1' stroke-wetness='0.5'></path><path  style = ' stroke:#000000;  fill:none;  stroke-width:1.0;' d="M460.70 84.73 L460.43 85.16 L460.16 85.69 L459.38 86.91 L458.16 88.41 L456.63 90.01 L455.09 91.48 L453.88 92.65 L453.02 93.55 L452.56 94.15 L452.38 94.55 L452.34 94.83 L452.52 95.26 L453.06 95.90 L454.20 96.79 L455.77 97.83 L457.52 98.90 L459.09 99.94 L460.38 100.79 L461.34 101.47 L461.95 101.90 " stroke-linecap='round' stroke-linejoin='round' brush-type='1' stroke-wetness='0.5'></path><path  style = ' stroke:#000000;  fill:none;  stroke-width:1.0;' d="M467.34 92.87 L467.60 92.65 L467.94 92.58 L468.69 92.44 L469.62 92.30 L470.51 92.01 L471.26 91.58 L471.76 91.15 L472.08 90.73 L472.23 90.30 L472.23 89.83 L472.01 89.48 L471.58 89.26 L470.94 89.23 L470.12 89.37 L469.05 89.98 L467.84 91.12 L466.77 92.58 L466.16 93.94 L465.94 94.97 L466.09 95.72 L466.66 96.26 L467.77 96.69 L469.37 97.01 L471.09 97.26 " stroke-linecap='round' stroke-linejoin='round' brush-type='1' stroke-wetness='0.5'></path><path  style = ' stroke:#000000;  fill:none;  stroke-width:1.0;' d="M476.44 97.04 L476.12 97.37 L476.01 98.15 L475.73 99.47 L475.65 100.93 L475.58 101.93 L475.73 102.61 L476.15 102.97 L476.94 103.11 L477.83 103.11 L478.62 102.79 L479.08 102.29 " stroke-linecap='round' stroke-linejoin='round' brush-type='1' stroke-wetness='0.5'></path><path  style = ' stroke:#000000;  fill:none;  stroke-width:1.0;' d="M475.80 93.72 L475.96 93.35 L476.08 93.19 L476.15 93.33 L476.12 93.97 " stroke-linecap='round' stroke-linejoin='round' brush-type='1' stroke-wetness='0.5'></path><path  style = ' stroke:#000000;  fill:none;  stroke-width:1.0;' d="M486.18 85.69 L485.70 86.12 L485.26 86.83 L484.29 88.48 L483.40 90.73 L482.76 93.19 L482.47 95.47 L482.65 97.33 L483.29 98.79 L484.40 99.90 L485.58 100.68 L486.54 101.11 L487.29 101.29 " stroke-linecap='round' stroke-linejoin='round' brush-type='1' stroke-wetness='0.5'></path><path  style = ' stroke:#000000;  fill:none;  stroke-width:1.0;' d="M490.25 89.55 L490.63 89.98 L491.36 90.83 L492.68 92.44 L494.15 94.30 L495.29 95.90 L496.14 97.19 L496.72 97.94 " stroke-linecap='round' stroke-linejoin='round' brush-type='1' stroke-wetness='0.5'></path><path  style = ' stroke:#000000;  fill:none;  stroke-width:1.0;' d="M495.07 89.55 L494.22 89.98 L493.68 90.48 L492.65 91.55 L492.04 92.76 L491.65 94.05 L491.47 95.26 L491.54 96.29 " stroke-linecap='round' stroke-linejoin='round' brush-type='1' stroke-wetness='0.5'></path><path  style = ' stroke:#000000;  fill:none;  stroke-width:1.0;' d="M497.75 94.90 L498.02 95.38 L498.11 96.33 L498.32 97.97 L498.43 99.79 L498.64 101.22 L498.93 102.33 " stroke-linecap='round' stroke-linejoin='round' brush-type='1' stroke-wetness='0.5'></path><path  style = ' stroke:#000000;  fill:none;  stroke-width:1.0;' d="M504.18 98.22 L503.80 98.65 L503.50 99.19 L502.82 100.08 L502.11 100.86 L501.25 101.40 L500.57 101.72 " stroke-linecap='round' stroke-linejoin='round' brush-type='1' stroke-wetness='0.5'></path><path  style = ' stroke:#000000;  fill:none;  stroke-width:1.0;' d="M507.82 98.86 a0.50 0.50 0 1 0 0.01 0 " stroke-linecap='round' stroke-linejoin='round' brush-type='1' stroke-wetness='0.5'></path><path  style = ' stroke:#000000;  fill:none;  stroke-width:1.0;' d="M511.67 97.69 a0.50 0.50 0 1 0 0.01 0 " stroke-linecap='round' stroke-linejoin='round' brush-type='1' stroke-wetness='0.5'></path><path  style = ' stroke:#000000;  fill:none;  stroke-width:1.0;' d="M516.28 97.26 L516.44 97.69 L516.49 98.08 L516.56 98.90 L516.38 99.69 L515.92 100.47 L515.13 101.08 L514.10 101.47 " stroke-linecap='round' stroke-linejoin='round' brush-type='1' stroke-wetness='0.5'></path><path  style = ' stroke:#000000;  fill:none;  stroke-width:1.0;' d="M518.53 88.69 L518.90 88.91 L519.35 89.40 L520.38 90.51 L521.60 92.12 L522.81 93.87 L523.88 95.54 L524.84 96.83 " stroke-linecap='round' stroke-linejoin='round' brush-type='1' stroke-wetness='0.5'></path><path  style = ' stroke:#000000;  fill:none;  stroke-width:1.0;' d="M525.49 89.33 L525.00 89.87 L524.56 90.80 L523.74 92.58 L523.02 94.69 L522.52 96.69 " stroke-linecap='round' stroke-linejoin='round' brush-type='1' stroke-wetness='0.5'></path><path  style = ' stroke:#000000;  fill:none;  stroke-width:1.0;' d="M526.77 98.86 L526.83 98.28 L526.84 97.86 L527.02 97.04 L527.34 96.51 L527.91 96.19 L528.59 96.12 L529.23 96.51 L529.70 97.26 L529.98 98.33 L530.13 99.22 " stroke-linecap='round' stroke-linejoin='round' brush-type='1' stroke-wetness='0.5'></path><path  style = ' stroke:#000000;  fill:none;  stroke-width:1.0;' d="M532.02 86.01 L533.09 86.39 L534.09 87.37 L535.73 89.23 L536.77 91.65 L537.16 94.01 L537.09 96.22 L536.59 98.15 L535.73 99.65 L534.62 100.68 L533.52 101.22 " stroke-linecap='round' stroke-linejoin='round' brush-type='1' stroke-wetness='0.5'></path><path  style = ' stroke:#000000;  fill:none;  stroke-width:1.0;' d="M539.94 92.33 L540.75 92.33 L541.69 92.33 L543.41 92.33 L544.73 92.33 " stroke-linecap='round' stroke-linejoin='round' brush-type='1' stroke-wetness='0.5'></path><path  style = ' stroke:#000000;  fill:none;  stroke-width:1.0;' d="M541.44 96.40 L542.25 96.35 L543.19 96.26 L545.16 96.01 " stroke-linecap='round' stroke-linejoin='round' brush-type='1' stroke-wetness='0.5'></path><path  style = ' stroke:#000000;  fill:none;  stroke-width:1.0;' d="M554.40 89.76 L553.65 90.08 L552.97 90.48 L551.62 91.51 L550.51 93.08 L549.83 94.97 L549.72 96.76 L550.44 97.94 L551.87 98.51 L553.90 98.40 L555.83 97.72 L557.22 96.62 L557.90 95.22 L557.93 93.72 L557.36 92.19 L556.33 90.90 L555.22 90.01 L554.51 89.58 " stroke-linecap='round' stroke-linejoin='round' brush-type='1' stroke-wetness='0.5'></path><path  style = ' stroke:#000000;  fill:none;  stroke-width:1.0;' d="M574.43 88.05 L574.43 89.23 L574.43 90.44 L574.43 92.94 L574.39 95.37 L574.35 97.51 L574.32 99.11 L574.32 100.08 " stroke-linecap='round' stroke-linejoin='round' brush-type='1' stroke-wetness='0.5'></path><path  style = ' stroke:#000000;  fill:none;  stroke-width:1.0;' d="M582.57 90.51 L582.19 90.73 L581.60 91.01 L580.57 91.65 L579.46 92.40 L578.75 93.12 L578.32 93.65 L578.25 94.12 L578.60 94.55 L579.35 94.97 L580.53 95.29 L581.71 95.47 L582.71 95.54 L583.28 95.54 " stroke-linecap='round' stroke-linejoin='round' brush-type='1' stroke-wetness='0.5'></path><path  style = ' stroke:#000000;  fill:none;  stroke-width:1.0;' d="M588.45 90.08 a0.50 0.50 0 1 0 0.01 0 " stroke-linecap='round' stroke-linejoin='round' brush-type='1' stroke-wetness='0.5'></path><path  style = ' stroke:#000000;  fill:none;  stroke-width:1.0;' d="M588.24 94.05 L588.24 94.69 L588.24 95.22 L588.31 96.15 L588.56 96.76 L589.06 97.08 L589.70 97.22 L590.35 97.26 L590.88 97.26 L591.27 97.22 " stroke-linecap='round' stroke-linejoin='round' brush-type='1' stroke-wetness='0.5'></path><path  style = ' stroke:#000000;  fill:none;  stroke-width:1.0;' d="M578.71 97.69 L579.30 97.69 L580.03 97.69 L581.49 97.76 L583.03 97.97 L584.21 98.26 " stroke-linecap='round' stroke-linejoin='round' brush-type='1' stroke-wetness='0.5'></path><path  style = ' stroke:#000000;  fill:none;  stroke-width:1.0;' d="M596.49 92.33 L596.22 92.60 L595.63 93.08 L594.81 93.90 L594.13 94.65 L593.95 95.19 L594.24 95.54 L594.95 95.87 L596.02 96.01 L597.09 96.08 L598.06 96.08 L598.70 96.08 " stroke-linecap='round' stroke-linejoin='round' brush-type='1' stroke-wetness='0.5'></path><path  style = ' stroke:#000000;  fill:none;  stroke-width:1.0;' d="M595.20 98.44 L596.00 98.33 L596.77 98.29 L598.38 98.15 L599.70 98.08 " stroke-linecap='round' stroke-linejoin='round' brush-type='1' stroke-wetness='0.5'></path><path  style = ' stroke:#000000;  fill:none;  stroke-width:1.0;' d="M602.48 99.29 L602.11 98.60 L601.98 98.01 L601.73 96.69 L601.91 95.40 L602.27 94.30 L602.80 93.62 L603.45 93.37 L604.23 93.37 L605.16 93.80 L605.95 94.69 L606.48 95.90 L606.70 97.12 L606.77 98.01 " stroke-linecap='round' stroke-linejoin='round' brush-type='1' stroke-wetness='0.5'></path><path  style = ' stroke:#000000;  fill:none;  stroke-width:1.0;' d="M606.87 85.26 L607.30 85.59 L607.73 85.91 L608.62 86.69 L610.19 88.01 L611.91 89.37 L613.62 90.62 L614.62 91.26 L615.41 91.76 L616.01 92.12 L616.44 92.33 L616.66 92.58 L616.44 92.97 L615.83 93.76 L614.83 94.83 L613.73 96.01 L612.55 97.08 L611.48 97.97 L610.66 98.83 " stroke-linecap='round' stroke-linejoin='round' brush-type='1' stroke-wetness='0.5'></path><path  style = ' stroke:#000000;  fill:none;  stroke-width:1.0;' d="M59.54 110.54 L59.86 110.59 L60.29 111.18 L61.11 112.71 L61.97 115.11 L62.83 117.75 L63.68 120.14 L64.57 122.17 L65.40 123.74 L66.11 124.78 L66.75 125.28 L67.50 124.96 L68.50 123.60 L69.75 121.07 L70.96 118.10 L71.93 115.68 L72.46 114.39 L72.71 114.86 L72.78 116.78 L72.82 119.85 L72.86 122.85 L73.00 125.10 L73.28 126.24 L73.86 126.53 L74.86 125.64 L76.25 123.57 L77.89 120.53 L79.53 117.50 L80.92 115.25 L81.96 113.96 L82.67 113.64 L83.17 114.00 " stroke-linecap='round' stroke-linejoin='round' brush-type='1' stroke-wetness='0.5'></path><path  style = ' stroke:#000000;  fill:none;  stroke-width:1.0;' d="M85.99 122.00 L85.30 122.10 L84.74 122.25 L83.67 122.75 L82.85 123.67 L82.32 124.92 L82.07 126.21 L82.10 127.14 L82.53 127.64 L83.49 127.21 L84.74 125.92 L85.78 123.99 L86.31 122.35 L86.49 121.39 L86.53 121.71 L86.53 123.03 L86.53 124.71 " stroke-linecap='round' stroke-linejoin='round' brush-type='1' stroke-wetness='0.5'></path><path  style = ' stroke:#000000;  fill:none;  stroke-width:1.0;' d="M86.85 126.49 L86.85 125.58 L86.96 124.89 L87.31 123.67 L87.99 122.92 L88.81 122.57 L89.49 122.53 L89.92 123.07 L90.13 124.10 L90.28 125.42 L90.42 126.64 L90.70 127.39 " stroke-linecap='round' stroke-linejoin='round' brush-type='1' stroke-wetness='0.5'></path><path  style = ' stroke:#000000;  fill:none;  stroke-width:1.0;' d="M95.84 116.96 L95.84 117.39 L95.84 118.57 L95.84 120.75 L95.84 123.46 L95.84 125.74 L95.77 127.56 L95.63 128.64 " stroke-linecap='round' stroke-linejoin='round' brush-type='1' stroke-wetness='0.5'></path><path  style = ' stroke:#000000;  fill:none;  stroke-width:1.0;' d="M92.42 120.07 L93.01 119.80 L93.81 119.71 L95.52 119.53 L97.74 119.57 L99.81 119.78 " stroke-linecap='round' stroke-linejoin='round' brush-type='1' stroke-wetness='0.5'></path><path  style = ' stroke:#000000;  fill:none;  stroke-width:1.0;' d="M113.19 118.57 L113.41 119.16 L113.48 119.96 L113.62 121.82 L113.62 124.03 L113.55 126.28 L113.37 128.14 L113.05 129.46 L112.48 130.17 L111.77 130.28 " stroke-linecap='round' stroke-linejoin='round' brush-type='1' stroke-wetness='0.5'></path><path  style = ' stroke:#000000;  fill:none;  stroke-width:1.0;' d="M108.37 122.42 L108.64 122.21 L109.23 122.14 L110.66 122.00 L112.55 122.00 L114.26 122.00 " stroke-linecap='round' stroke-linejoin='round' brush-type='1' stroke-wetness='0.5'></path><path  style = ' stroke:#000000;  fill:none;  stroke-width:1.0;' d="M118.65 122.53 L119.14 122.53 L119.15 123.03 L119.15 124.17 L118.80 125.89 L118.58 127.49 L118.80 128.64 L119.51 129.24 L120.73 129.31 L122.01 128.81 L123.01 127.85 L123.55 126.53 L123.76 125.21 L123.65 124.07 L123.26 123.35 L122.65 123.03 L122.01 122.96 L121.58 122.96 " stroke-linecap='round' stroke-linejoin='round' brush-type='1' stroke-wetness='0.5'></path><path  style = ' stroke:#000000;  fill:none;  stroke-width:1.0;' d="M147.68 115.03 L147.03 114.39 L146.50 114.14 L145.32 113.54 L143.71 113.29 L142.07 113.07 L140.61 113.00 L139.86 113.14 L139.43 113.86 L139.25 115.43 L139.25 117.75 L139.43 120.32 L139.72 122.64 L140.04 124.49 L140.22 125.82 L140.18 126.74 L139.68 127.28 " stroke-linecap='round' stroke-linejoin='round' brush-type='1' stroke-wetness='0.5'></path><path  style = ' stroke:#000000;  fill:none;  stroke-width:1.0;' d="M136.54 121.25 L136.91 120.98 L137.40 120.89 L138.43 120.67 L139.79 120.64 L141.18 120.60 L142.32 120.64 " stroke-linecap='round' stroke-linejoin='round' brush-type='1' stroke-wetness='0.5'></path><path  style = ' stroke:#000000;  fill:none;  stroke-width:1.0;' d="M146.50 122.00 L146.71 122.48 L146.78 123.14 L146.93 124.42 L146.96 125.99 L147.07 127.31 " stroke-linecap='round' stroke-linejoin='round' brush-type='1' stroke-wetness='0.5'></path><path  style = ' stroke:#000000;  fill:none;  stroke-width:1.0;' d="M149.28 127.24 L149.50 126.55 L149.71 125.82 L150.21 124.57 L150.75 123.60 L151.28 123.14 L151.78 122.96 L152.21 123.14 L152.57 123.82 L152.89 125.03 L153.28 126.60 " stroke-linecap='round' stroke-linejoin='round' brush-type='1' stroke-wetness='0.5'></path><path  style = ' stroke:#000000;  fill:none;  stroke-width:1.0;' d="M160.96 124.78 L160.47 124.41 L159.96 124.28 L158.96 124.10 L157.99 124.46 L157.21 125.28 L156.71 126.42 L156.49 127.56 L156.46 128.35 L156.64 128.78 L157.17 128.85 L158.03 128.31 L158.99 126.99 L159.81 124.57 L160.49 121.50 L161.06 118.21 L161.53 115.43 L161.88 113.43 L162.06 112.21 L162.13 111.61 L162.13 111.96 L162.13 113.54 L162.06 116.43 L161.92 119.71 L161.78 122.75 L161.70 125.03 L161.70 126.71 L161.60 127.85 " stroke-linecap='round' stroke-linejoin='round' brush-type='1' stroke-wetness='0.5'></path><path  style = ' stroke:#000000;  fill:none;  stroke-width:1.0;' d="M147.25 118.57 a0.50 0.50 0 1 0 0.01 0 " stroke-linecap='round' stroke-linejoin='round' brush-type='1' stroke-wetness='0.5'></path><path  style = ' stroke:#000000;  fill:none;  stroke-width:1.0;' d="M176.38 129.49 L176.48 129.12 L176.52 128.81 L176.59 127.96 L176.59 127.06 L176.59 125.21 L176.55 122.92 L176.45 120.14 L176.30 117.93 L176.20 116.18 L176.16 114.93 L176.30 114.04 L176.80 113.36 L177.70 112.86 L178.87 112.57 L180.12 112.46 L181.41 112.64 L182.52 113.11 " stroke-linecap='round' stroke-linejoin='round' brush-type='1' stroke-wetness='0.5'></path><path  style = ' stroke:#000000;  fill:none;  stroke-width:1.0;' d="M172.95 121.67 L173.54 121.41 L174.63 121.28 L177.05 120.92 L180.20 120.75 L182.80 120.60 " stroke-linecap='round' stroke-linejoin='round' brush-type='1' stroke-wetness='0.5'></path><path  style = ' stroke:#000000;  fill:none;  stroke-width:1.0;' d="M188.26 121.25 L187.35 121.67 L186.34 122.35 L184.66 123.78 L183.48 125.53 L183.02 127.10 L183.44 128.21 L184.87 128.56 L187.44 127.35 L187.87 126.71 " stroke-linecap='round' stroke-linejoin='round' brush-type='1' stroke-wetness='0.5'></path><path  style = ' stroke:#000000;  fill:none;  stroke-width:1.0;' d="M188.91 128.96 L189.01 128.53 L189.12 127.89 L189.26 126.49 L189.33 125.03 L189.55 123.78 L190.15 122.92 L191.30 122.35 L192.83 122.00 L194.47 121.85 " stroke-linecap='round' stroke-linejoin='round' brush-type='1' stroke-wetness='0.5'></path><path  style = ' stroke:#000000;  fill:none;  stroke-width:1.0;' d="M211.72 126.28 L211.98 126.23 L212.46 126.14 L213.50 125.78 L214.86 125.07 L216.25 124.03 L217.32 122.92 L217.89 121.92 L217.82 121.14 L217.18 120.64 L216.00 120.46 L214.50 120.85 L213.00 121.85 L211.86 123.46 L211.25 125.17 L211.47 126.71 L212.75 127.85 L214.96 128.53 " stroke-linecap='round' stroke-linejoin='round' brush-type='1' stroke-wetness='0.5'></path><path  style = ' stroke:#000000;  fill:none;  stroke-width:1.0;' d="M222.42 126.28 L222.75 124.62 L222.46 124.14 L221.78 123.42 L220.53 124.35 L219.53 125.64 L219.03 126.85 L219.14 127.56 L219.96 127.74 L221.25 127.17 L222.64 125.96 L223.60 124.39 L224.17 123.17 L224.39 122.60 L224.39 122.89 L224.24 123.96 L224.10 125.57 L224.07 126.96 " stroke-linecap='round' stroke-linejoin='round' brush-type='1' stroke-wetness='0.5'></path><path  style = ' stroke:#000000;  fill:none;  stroke-width:1.0;' d="M231.74 121.78 L231.04 122.16 L230.10 122.89 L228.67 124.24 L227.64 125.85 L227.42 127.24 L228.06 128.28 L229.53 128.81 L231.67 128.35 " stroke-linecap='round' stroke-linejoin='round' brush-type='1' stroke-wetness='0.5'></path><path  style = ' stroke:#000000;  fill:none;  stroke-width:1.0;' d="M234.74 113.75 L234.74 114.87 L234.88 116.53 L235.06 119.71 L235.24 123.14 L235.27 125.85 L235.27 127.56 L235.31 128.28 L235.52 127.89 L236.10 126.71 L236.99 125.17 L238.02 124.14 L238.99 123.85 L239.84 124.46 L240.56 125.67 L241.16 127.46 L241.81 129.13 " stroke-linecap='round' stroke-linejoin='round' brush-type='1' stroke-wetness='0.5'></path><path  style = ' stroke:#000000;  fill:none;  stroke-width:1.0;' d="M254.98 122.64 L255.19 122.96 L255.34 123.82 L255.69 125.21 L256.05 126.67 L256.44 127.46 L256.87 127.85 L257.44 127.89 L258.23 127.28 L259.08 125.99 L259.83 124.46 L260.30 123.49 L260.51 123.46 L260.55 124.28 L260.55 125.49 L260.55 126.60 L260.58 127.17 L261.08 126.96 L261.98 125.99 L263.19 124.57 L264.19 123.25 L265.08 122.35 L266.05 121.89 " stroke-linecap='round' stroke-linejoin='round' brush-type='1' stroke-wetness='0.5'></path><path  style = ' stroke:#000000;  fill:none;  stroke-width:1.0;' d="M274.15 119.10 L273.77 119.32 L273.36 119.53 L272.54 120.18 L271.69 121.14 L270.83 122.46 L270.19 123.92 L269.83 125.32 L270.04 126.49 L270.83 127.35 L272.22 127.85 L273.83 127.99 L275.08 127.74 " stroke-linecap='round' stroke-linejoin='round' brush-type='1' stroke-wetness='0.5'></path><path  style = ' stroke:#000000;  fill:none;  stroke-width:1.0;' d="M270.40 124.24 L271.10 124.19 L272.01 124.14 L273.86 123.85 L276.08 123.46 " stroke-linecap='round' stroke-linejoin='round' brush-type='1' stroke-wetness='0.5'></path><path  style = ' stroke:#000000;  fill:none;  stroke-width:1.0;' d="M281.86 112.25 L281.43 112.09 L280.86 112.07 L279.82 112.25 L278.79 112.93 L278.07 114.00 L277.68 115.21 L277.93 116.46 L278.90 117.78 L280.32 119.28 L281.68 120.89 L282.47 122.42 L282.79 123.82 L282.47 125.07 L281.64 126.21 L280.40 127.14 L279.15 127.96 L278.25 128.71 " stroke-linecap='round' stroke-linejoin='round' brush-type='1' stroke-wetness='0.5'></path><path  style = ' stroke:#000000;  fill:none;  stroke-width:1.0;' d="M286.04 133.03 L285.61 132.38 L285.46 131.81 L285.18 130.56 L285.25 129.28 L285.71 127.99 L286.61 126.99 L287.82 126.46 L288.93 126.35 L289.78 126.81 L290.32 127.71 L290.57 129.06 L290.64 130.53 L290.64 131.95 " stroke-linecap='round' stroke-linejoin='round' brush-type='1' stroke-wetness='0.5'></path><path  style = ' stroke:#000000;  fill:none;  stroke-width:1.0;' d="M308.85 120.71 L308.85 120.39 L308.63 120.28 L308.20 120.07 L307.49 120.14 L306.74 120.43 L305.92 121.03 L305.13 121.89 L304.45 123.00 L304.03 124.24 L303.85 125.57 L303.99 126.71 L304.45 127.46 L305.24 127.81 L306.24 127.81 L307.31 127.31 L308.27 126.31 L308.92 124.82 L309.20 123.21 L309.27 121.64 L309.27 120.35 L309.27 119.50 L309.27 120.03 L309.27 121.67 L309.38 124.10 L309.81 126.07 L310.52 127.35 " stroke-linecap='round' stroke-linejoin='round' brush-type='1' stroke-wetness='0.5'></path><path  style = ' stroke:#000000;  fill:none;  stroke-width:1.0;' d="M329.41 110.22 L329.03 110.70 L328.87 111.36 L328.55 112.64 L328.48 114.04 L328.44 115.21 " stroke-linecap='round' stroke-linejoin='round' brush-type='1' stroke-wetness='0.5'></path><path  style = ' stroke:#000000;  fill:none;  stroke-width:1.0;' d="M332.08 110.22 L331.92 110.59 L331.66 111.57 L331.16 113.46 L330.76 115.82 L330.58 117.61 " stroke-linecap='round' stroke-linejoin='round' brush-type='1' stroke-wetness='0.5'></path><path  style = ' stroke:#000000;  fill:none;  stroke-width:1.0;' d="M338.94 116.21 L338.19 116.64 L337.05 117.61 L335.30 119.46 L333.73 121.92 L333.05 124.32 L332.94 126.49 L333.94 127.99 L336.01 128.78 " stroke-linecap='round' stroke-linejoin='round' brush-type='1' stroke-wetness='0.5'></path><path  style = ' stroke:#000000;  fill:none;  stroke-width:1.0;' d="M345.47 121.89 L344.77 122.05 L344.04 122.64 L342.83 123.96 L342.04 125.67 L341.79 127.06 L342.22 127.78 L343.19 127.53 L344.47 126.42 L345.51 124.82 L346.04 123.46 L346.22 122.67 L346.22 123.39 L346.22 125.21 L346.40 127.64 " stroke-linecap='round' stroke-linejoin='round' brush-type='1' stroke-wetness='0.5'></path><path  style = ' stroke:#000000;  fill:none;  stroke-width:1.0;' d="M348.79 126.60 L348.79 125.32 L348.90 124.57 L349.22 123.21 L349.82 122.71 L350.65 122.57 L351.54 122.96 L352.32 123.89 L352.89 125.35 L353.25 127.03 L353.47 128.35 " stroke-linecap='round' stroke-linejoin='round' brush-type='1' stroke-wetness='0.5'></path><path  style = ' stroke:#000000;  fill:none;  stroke-width:1.0;' d="M357.89 129.28 L357.73 128.74 L357.68 128.06 L357.57 126.71 L357.57 125.17 L357.57 123.71 L357.68 122.46 L357.96 121.64 L358.43 121.25 L359.00 121.17 L359.57 121.71 L360.00 122.92 L360.28 124.82 L360.50 126.74 L360.78 128.14 " stroke-linecap='round' stroke-linejoin='round' brush-type='1' stroke-wetness='0.5'></path><path  style = ' stroke:#000000;  fill:none;  stroke-width:1.0;' d="M366.78 123.60 L366.41 123.44 L365.96 123.60 L365.10 124.28 L364.39 125.71 L364.00 127.53 L364.39 128.96 L365.67 129.67 L367.60 129.17 L369.39 127.85 L370.39 125.92 L370.56 124.10 L370.03 122.75 L369.14 122.07 L368.07 122.00 L367.07 122.71 L366.35 124.24 " stroke-linecap='round' stroke-linejoin='round' brush-type='1' stroke-wetness='0.5'></path><path  style = ' stroke:#000000;  fill:none;  stroke-width:1.0;' d="M371.81 126.81 L371.87 125.58 L371.88 124.67 L372.10 123.03 L372.56 122.03 L373.38 121.46 L374.42 121.25 L375.45 121.67 L376.31 122.85 L376.78 124.71 L376.95 126.64 " stroke-linecap='round' stroke-linejoin='round' brush-type='1' stroke-wetness='0.5'></path><path  style = ' stroke:#000000;  fill:none;  stroke-width:1.0;' d="M380.27 121.67 L380.27 122.16 L380.27 123.21 L380.27 124.96 L380.27 126.99 " stroke-linecap='round' stroke-linejoin='round' brush-type='1' stroke-wetness='0.5'></path><path  style = ' stroke:#000000;  fill:none;  stroke-width:1.0;' d="M387.66 121.89 L387.23 122.05 L386.52 122.42 L385.38 123.39 L384.45 124.89 L384.16 126.64 L384.77 128.17 L385.84 129.06 " stroke-linecap='round' stroke-linejoin='round' brush-type='1' stroke-wetness='0.5'></path><path  style = ' stroke:#000000;  fill:none;  stroke-width:1.0;' d="M392.70 126.07 L392.54 124.73 L391.95 124.32 L391.02 123.71 L390.05 124.39 L389.63 125.42 L389.55 126.42 L390.16 127.06 L391.34 127.06 L392.80 126.35 L393.84 125.14 L394.34 123.96 L394.48 123.21 L394.48 123.67 L394.34 124.99 L394.20 126.96 L394.09 128.42 L394.30 129.10 " stroke-linecap='round' stroke-linejoin='round' brush-type='1' stroke-wetness='0.5'></path><path  style = ' stroke:#000000;  fill:none;  stroke-width:1.0;' d="M397.84 113.00 L398.00 113.54 L398.05 114.43 L398.16 116.71 L398.16 119.75 L398.16 123.00 L398.16 125.82 L398.12 127.99 L398.09 129.42 L398.12 129.35 " stroke-linecap='round' stroke-linejoin='round' brush-type='1' stroke-wetness='0.5'></path><path  style = ' stroke:#000000;  fill:none;  stroke-width:1.0;' d="M402.33 111.72 L402.44 111.98 L402.48 112.46 L402.62 113.57 L402.73 115.07 L402.83 116.43 " stroke-linecap='round' stroke-linejoin='round' brush-type='1' stroke-wetness='0.5'></path><path  style = ' stroke:#000000;  fill:none;  stroke-width:1.0;' d="M407.15 111.50 L406.99 112.09 L406.90 112.89 L406.69 114.39 L406.47 116.14 L406.26 117.53 " stroke-linecap='round' stroke-linejoin='round' brush-type='1' stroke-wetness='0.5'></path><path  style = ' stroke:#000000;  fill:none;  stroke-width:1.0;' d="M419.90 135.70 L419.79 135.17 L419.72 134.56 L419.54 133.10 L419.33 131.03 L419.11 128.24 L418.97 125.24 L419.11 122.57 L419.61 120.64 L420.50 119.46 L421.72 118.96 L422.97 119.39 L423.93 120.60 L424.39 122.46 L424.14 124.39 L423.36 126.17 L422.15 127.60 L421.04 128.67 L420.29 129.24 " stroke-linecap='round' stroke-linejoin='round' brush-type='1' stroke-wetness='0.5'></path><path  style = ' stroke:#000000;  fill:none;  stroke-width:1.0;' d="M427.61 124.46 L426.86 124.78 L426.18 125.46 L425.22 126.74 L424.75 128.21 L425.29 129.28 L426.68 129.81 L428.71 129.38 L430.57 128.17 L431.71 126.46 L432.10 124.89 L431.71 123.67 L430.71 122.96 L429.32 122.67 L427.89 122.82 L426.71 123.32 L426.04 123.89 " stroke-linecap='round' stroke-linejoin='round' brush-type='1' stroke-wetness='0.5'></path><path  style = ' stroke:#000000;  fill:none;  stroke-width:1.0;' d="M437.25 117.39 L436.98 117.98 L436.53 119.28 L435.67 121.85 L434.71 125.07 L434.07 128.03 L433.89 130.53 " stroke-linecap='round' stroke-linejoin='round' brush-type='1' stroke-wetness='0.5'></path><path  style = ' stroke:#000000;  fill:none;  stroke-width:1.0;' d="M447.42 121.46 L446.83 122.26 L446.17 123.46 L444.81 125.96 L443.46 129.03 L442.42 132.06 " stroke-linecap='round' stroke-linejoin='round' brush-type='1' stroke-wetness='0.5'></path><path  style = ' stroke:#000000;  fill:none;  stroke-width:1.0;' d="M443.56 133.67 L443.83 131.95 L443.92 130.38 L443.78 127.21 L443.31 124.64 L442.78 122.85 L443.03 122.67 " stroke-linecap='round' stroke-linejoin='round' brush-type='1' stroke-wetness='0.5'></path><path  style = ' stroke:#000000;  fill:none;  stroke-width:1.0;' d="M450.10 129.92 L450.15 129.60 L450.17 128.49 L450.20 126.46 L450.31 124.03 L450.67 122.32 L451.27 121.42 L452.13 121.14 L453.13 121.57 L454.13 122.71 L454.88 124.57 L455.27 126.56 L455.49 128.24 L455.91 129.28 " stroke-linecap='round' stroke-linejoin='round' brush-type='1' stroke-wetness='0.5'></path><path  style = ' stroke:#000000;  fill:none;  stroke-width:1.0;' d="M461.23 123.17 L461.29 122.80 L461.09 122.71 L460.55 122.92 L459.66 124.07 L458.81 125.85 L458.31 127.64 L458.45 128.78 L459.38 128.85 L460.77 127.92 L462.02 126.35 L462.66 124.64 L462.66 123.21 L462.20 122.32 L461.41 121.96 L460.48 122.10 L459.63 122.82 L459.09 124.10 " stroke-linecap='round' stroke-linejoin='round' brush-type='1' stroke-wetness='0.5'></path><path  style = ' stroke:#000000;  fill:none;  stroke-width:1.0;' d="M466.91 129.49 L467.07 128.69 L467.12 127.56 L467.23 125.49 L467.27 123.46 L467.48 122.07 L467.87 121.32 L468.44 121.10 L469.01 121.60 L469.44 122.85 L469.66 124.57 L469.69 125.96 L469.69 126.67 L470.09 126.35 L470.91 125.14 L472.16 123.49 L473.26 122.35 L474.16 122.03 L474.73 122.60 L475.08 123.92 L475.23 125.71 L475.26 127.46 " stroke-linecap='round' stroke-linejoin='round' brush-type='1' stroke-wetness='0.5'></path><path  style = ' stroke:#000000;  fill:none;  stroke-width:1.0;' d="M480.94 122.64 L481.21 123.01 L481.29 123.99 L481.47 125.57 L481.47 127.42 L481.47 128.81 " stroke-linecap='round' stroke-linejoin='round' brush-type='1' stroke-wetness='0.5'></path><path  style = ' stroke:#000000;  fill:none;  stroke-width:1.0;' d="M486.83 124.89 L486.29 125.21 L485.90 125.46 L485.19 126.14 L484.83 126.92 L484.86 127.67 L485.61 128.03 L486.86 127.60 L488.18 126.67 L488.97 125.67 L489.25 125.10 L489.25 125.17 L489.04 125.85 L488.68 127.10 L488.36 128.53 L488.22 129.63 " stroke-linecap='round' stroke-linejoin='round' brush-type='1' stroke-wetness='0.5'></path><path  style = ' stroke:#000000;  fill:none;  stroke-width:1.0;' d="M494.64 116.43 L494.64 116.96 L494.64 118.50 L494.61 121.10 L494.50 124.21 L494.36 126.71 L494.18 128.78 L494.07 130.03 " stroke-linecap='round' stroke-linejoin='round' brush-type='1' stroke-wetness='0.5'></path><path  style = ' stroke:#000000;  fill:none;  stroke-width:1.0;' d="M481.58 117.82 a0.50 0.50 0 1 0 0.01 0 " stroke-linecap='round' stroke-linejoin='round' brush-type='1' stroke-wetness='0.5'></path><path  style = ' stroke:#000000;  fill:none;  stroke-width:1.0;' d="M516.71 111.29 L516.71 110.97 L516.63 110.72 L516.46 110.14 L516.17 109.61 L515.85 109.04 L515.49 108.50 L515.13 107.97 L514.78 107.47 L514.46 106.97 L514.14 106.50 L513.81 106.04 L513.46 105.65 L513.10 105.29 L512.78 105.04 L512.53 104.86 L512.28 104.79 L511.99 104.90 L511.64 105.25 L511.21 105.90 L510.71 106.68 L510.17 107.57 L509.64 108.50 L509.10 109.36 L508.57 110.11 L508.00 110.72 L507.42 111.25 L506.85 111.72 L506.35 112.11 L505.96 112.43 L505.64 112.64 L505.43 112.82 L505.28 113.04 L505.28 113.29 L505.53 113.57 L506.07 113.89 L506.82 114.36 L507.64 114.89 L508.50 115.50 L509.42 116.11 L510.42 116.75 L511.46 117.39 L512.49 118.03 L513.39 118.64 L514.10 119.21 L514.71 119.71 L515.28 120.14 L515.85 120.50 L516.31 120.75 L516.67 120.92 L516.88 121.14 L516.96 121.46 L516.85 121.89 L516.56 122.35 L516.13 122.85 L515.63 123.46 L515.03 124.17 L514.35 125.03 L513.56 125.89 L512.78 126.67 L511.99 127.31 L511.32 127.81 L510.78 128.24 L510.39 128.56 L510.14 128.85 L509.96 129.06 L509.67 129.21 L509.24 129.17 L508.60 128.92 L507.92 128.53 L507.17 128.06 L506.46 127.56 L505.82 127.03 L505.28 126.56 L504.93 126.14 L504.71 125.85 L504.57 125.60 " stroke-linecap='round' stroke-linejoin='round' brush-type='1' stroke-wetness='0.5'></path><path  style = ' stroke:#000000;  fill:none;  stroke-width:1.0;' d="M517.88 126.60 L518.04 127.08 L518.17 127.71 L518.49 128.89 L518.85 129.99 L519.24 130.71 L519.63 131.06 L520.10 131.06 L520.70 130.56 L521.42 129.53 L522.06 128.31 L522.52 127.46 L522.77 127.10 L522.92 127.53 L523.06 128.49 L523.24 129.78 L523.49 130.60 L523.84 130.96 L524.38 130.67 L525.09 129.81 L525.99 128.21 L526.95 126.21 L527.88 124.24 L528.66 122.82 L529.45 122.10 " stroke-linecap='round' stroke-linejoin='round' brush-type='1' stroke-wetness='0.5'></path><path  style = ' stroke:#000000;  fill:none;  stroke-width:1.0;' d="M542.73 113.86 L541.71 113.75 L540.66 114.21 L538.80 115.39 L537.23 117.64 L536.27 120.39 L535.77 123.28 L535.84 125.85 L536.45 127.96 L537.62 129.53 L539.27 130.49 L541.01 130.92 L542.48 130.92 " stroke-linecap='round' stroke-linejoin='round' brush-type='1' stroke-wetness='0.5'></path><path  style = ' stroke:#000000;  fill:none;  stroke-width:1.0;' d="M545.19 116.43 L545.51 116.75 L546.23 117.78 L547.51 119.75 L549.08 122.39 L550.37 124.74 L551.40 126.64 L551.94 127.74 " stroke-linecap='round' stroke-linejoin='round' brush-type='1' stroke-wetness='0.5'></path><path  style = ' stroke:#000000;  fill:none;  stroke-width:1.0;' d="M551.19 118.25 L550.28 118.68 L549.33 119.57 L547.65 121.21 L546.33 123.25 L545.62 125.14 L545.33 126.67 " stroke-linecap='round' stroke-linejoin='round' brush-type='1' stroke-wetness='0.5'></path><path  style = ' stroke:#000000;  fill:none;  stroke-width:1.0;' d="M556.44 124.24 L556.44 124.89 L556.44 125.78 L556.44 127.46 L556.54 129.21 L556.72 130.46 " stroke-linecap='round' stroke-linejoin='round' brush-type='1' stroke-wetness='0.5'></path><path  style = ' stroke:#000000;  fill:none;  stroke-width:1.0;' d="M562.54 127.46 L562.33 128.15 L562.04 128.92 L561.36 130.38 L560.47 131.74 L559.43 132.78 L558.36 133.45 L557.47 133.78 " stroke-linecap='round' stroke-linejoin='round' brush-type='1' stroke-wetness='0.5'></path><path  style = ' stroke:#000000;  fill:none;  stroke-width:1.0;' d="M565.00 128.21 L565.59 127.94 L566.07 127.85 L566.82 127.64 " stroke-linecap='round' stroke-linejoin='round' brush-type='1' stroke-wetness='0.5'></path><path  style = ' stroke:#000000;  fill:none;  stroke-width:1.0;' d="M569.93 126.92 a0.50 0.50 0 1 0 0.01 0 " stroke-linecap='round' stroke-linejoin='round' brush-type='1' stroke-wetness='0.5'></path><path  style = ' stroke:#000000;  fill:none;  stroke-width:1.0;' d="M576.03 126.39 L576.35 126.81 L576.46 127.46 L576.68 128.60 L576.68 129.78 L576.46 130.71 L575.89 131.46 L574.89 132.03 L573.71 132.42 L572.57 132.63 " stroke-linecap='round' stroke-linejoin='round' brush-type='1' stroke-wetness='0.5'></path><path  style = ' stroke:#000000;  fill:none;  stroke-width:1.0;' d="M577.75 116.21 L577.96 116.53 L578.35 117.18 L579.35 118.75 L580.71 120.82 L582.28 123.03 L583.71 124.92 L584.89 126.42 L585.56 127.42 " stroke-linecap='round' stroke-linejoin='round' brush-type='1' stroke-wetness='0.5'></path><path  style = ' stroke:#000000;  fill:none;  stroke-width:1.0;' d="M584.60 118.35 L584.17 118.62 L583.71 119.25 L582.71 120.67 L581.53 122.67 L580.28 124.82 L579.28 126.81 L578.75 128.28 " stroke-linecap='round' stroke-linejoin='round' brush-type='1' stroke-wetness='0.5'></path><path  style = ' stroke:#000000;  fill:none;  stroke-width:1.0;' d="M587.38 130.13 L587.49 129.22 L587.60 128.14 L587.99 126.21 L588.60 124.60 L589.35 123.67 L590.10 123.28 L590.74 123.49 L591.24 124.42 L591.49 125.96 L591.56 127.71 L591.38 129.17 " stroke-linecap='round' stroke-linejoin='round' brush-type='1' stroke-wetness='0.5'></path><path  style = ' stroke:#000000;  fill:none;  stroke-width:1.0;' d="M593.60 111.72 L593.92 112.25 L594.45 113.07 L595.56 114.89 L596.81 117.28 L597.84 119.85 L598.49 122.39 L598.77 124.74 L598.74 126.85 L598.34 128.67 L597.52 130.13 L596.27 131.35 L594.84 132.24 L593.45 132.85 L592.24 133.20 L591.17 133.38 L590.28 133.53 " stroke-linecap='round' stroke-linejoin='round' brush-type='1' stroke-wetness='0.5'></path><path  style = ' stroke:#000000;  fill:none;  stroke-width:1.0;' d="M607.41 118.68 L606.98 118.25 L606.27 118.28 L605.02 118.68 L603.77 119.93 L602.95 121.53 L602.52 123.03 L602.41 124.24 L602.88 125.17 L603.91 125.82 L605.48 126.21 L607.05 126.35 L608.16 126.39 " stroke-linecap='round' stroke-linejoin='round' brush-type='1' stroke-wetness='0.5'></path><path  style = ' stroke:#000000;  fill:none;  stroke-width:1.0;' d="M602.70 122.10 L603.34 122.00 L604.16 121.96 L605.91 121.78 L607.73 121.60 " stroke-linecap='round' stroke-linejoin='round' brush-type='1' stroke-wetness='0.5'></path><path  style = ' stroke:#000000;  fill:none;  stroke-width:1.0;' d="M615.44 111.61 L616.14 111.07 L617.01 110.89 L619.08 110.39 L621.69 110.11 L624.54 109.75 L627.04 109.50 L628.76 109.39 L629.61 109.47 L629.86 110.11 L629.22 111.79 L627.83 114.57 L625.54 118.14 L623.22 121.75 L621.19 124.99 L619.80 127.35 L619.12 128.71 " stroke-linecap='round' stroke-linejoin='round' brush-type='1' stroke-wetness='0.5'></path><path  style = ' stroke:#000000;  fill:none;  stroke-width:1.0;' d="M627.76 110.54 L627.27 111.07 L626.69 111.79 L625.33 113.57 L623.51 116.11 L621.55 119.00 L619.65 121.71 L618.19 123.78 L617.19 125.17 L616.73 125.96 L616.94 126.46 L617.94 126.96 L620.01 127.49 L622.58 127.89 L625.33 128.06 L627.61 128.10 L629.54 128.10 L631.01 127.99 L631.97 127.71 " stroke-linecap='round' stroke-linejoin='round' brush-type='1' stroke-wetness='0.5'></path><path  style = ' stroke:#000000;  fill:none;  stroke-width:1.0;' d="M643.82 109.79 L643.07 108.82 L642.36 108.25 L641.00 107.29 L639.79 106.97 L638.75 106.90 L637.93 107.25 L637.43 108.18 L637.22 110.00 L637.14 112.57 L637.04 115.75 L636.86 119.10 L636.61 122.17 L636.36 124.64 L636.18 126.24 L636.11 127.06 L636.40 127.46 L637.25 127.64 L638.68 127.78 L640.29 127.78 L641.68 127.78 L642.75 127.74 " stroke-linecap='round' stroke-linejoin='round' brush-type='1' stroke-wetness='0.5'></path><path  style = ' stroke:#000000;  fill:none;  stroke-width:1.0;' d="M642.86 115.25 L643.12 115.78 L643.57 116.46 L644.50 117.93 L645.64 119.68 L646.82 121.46 L647.78 122.85 " stroke-linecap='round' stroke-linejoin='round' brush-type='1' stroke-wetness='0.5'></path><path  style = ' stroke:#000000;  fill:none;  stroke-width:1.0;' d="M649.60 114.29 L648.80 114.61 L647.75 115.61 L645.82 117.53 L644.03 119.96 L642.82 121.96 " stroke-linecap='round' stroke-linejoin='round' brush-type='1' stroke-wetness='0.5'></path><path  style = ' stroke:#000000;  fill:none;  stroke-width:1.0;' d="M653.03 119.43 L653.40 120.18 L653.53 120.96 L653.81 122.60 L653.92 124.32 L654.21 125.89 L654.56 127.03 " stroke-linecap='round' stroke-linejoin='round' brush-type='1' stroke-wetness='0.5'></path><path  style = ' stroke:#000000;  fill:none;  stroke-width:1.0;' d="M657.10 125.10 L657.37 125.74 L657.46 126.42 L657.60 127.81 L657.31 129.24 L656.67 130.53 L655.64 131.49 L654.49 132.03 L653.49 132.24 " stroke-linecap='round' stroke-linejoin='round' brush-type='1' stroke-wetness='0.5'></path><path  style = ' stroke:#000000;  fill:none;  stroke-width:1.0;' d="M661.92 126.71 L662.67 126.39 L663.45 126.24 L664.70 125.96 " stroke-linecap='round' stroke-linejoin='round' brush-type='1' stroke-wetness='0.5'></path><path  style = ' stroke:#000000;  fill:none;  stroke-width:1.0;' d="M668.24 125.85 a0.50 0.50 0 1 0 0.01 0 " stroke-linecap='round' stroke-linejoin='round' brush-type='1' stroke-wetness='0.5'></path><path  style = ' stroke:#000000;  fill:none;  stroke-width:1.0;' d="M674.55 125.32 L674.66 125.58 L674.70 126.24 L674.59 127.49 L673.98 129.06 L672.88 130.38 L671.41 131.31 L669.91 131.74 " stroke-linecap='round' stroke-linejoin='round' brush-type='1' stroke-wetness='0.5'></path><path  style = ' stroke:#000000;  fill:none;  stroke-width:1.0;' d="M675.41 114.07 L676.11 114.66 L676.87 115.43 L678.45 117.07 L680.19 118.96 L681.98 120.82 L683.62 122.39 L684.69 123.39 " stroke-linecap='round' stroke-linejoin='round' brush-type='1' stroke-wetness='0.5'></path><path  style = ' stroke:#000000;  fill:none;  stroke-width:1.0;' d="M683.12 116.86 L682.05 117.39 L681.34 118.07 L679.84 119.50 L678.66 121.28 L677.70 123.17 " stroke-linecap='round' stroke-linejoin='round' brush-type='1' stroke-wetness='0.5'></path><path  style = ' stroke:#000000;  fill:none;  stroke-width:1.0;' d="M683.12 127.56 L683.07 126.49 L683.19 125.42 L683.51 123.74 L684.23 122.75 L685.05 122.50 L685.83 123.00 L686.37 124.14 L686.66 125.89 L686.73 127.64 L686.55 128.96 " stroke-linecap='round' stroke-linejoin='round' brush-type='1' stroke-wetness='0.5'></path><path  style = ' stroke:#000000;  fill:none;  stroke-width:1.0;' d="M687.83 112.04 L688.48 111.72 L689.33 111.61 L690.83 111.36 L692.19 111.32 L693.08 111.29 L693.69 111.39 L694.12 112.11 L694.40 113.75 L694.54 116.39 L694.62 119.57 L694.76 122.82 L695.08 125.67 L695.51 127.89 L695.87 129.35 L696.04 130.21 L695.90 130.63 L695.22 130.85 L693.94 130.96 L692.15 130.92 L690.26 130.71 L688.62 130.46 " stroke-linecap='round' stroke-linejoin='round' brush-type='1' stroke-wetness='0.5'></path><path  style = ' stroke:#000000;  fill:none;  stroke-width:1.0;' d="M85.14 145.88 L83.96 146.25 L82.92 146.70 L81.28 147.48 L80.39 148.20 L80.25 148.80 L80.85 149.52 L82.14 150.41 L83.82 151.52 L85.21 152.77 L85.96 154.09 L86.03 155.41 L85.35 156.62 L84.28 157.62 L83.10 158.30 L82.39 158.62 " stroke-linecap='round' stroke-linejoin='round' brush-type='1' stroke-wetness='0.5'></path><path  style = ' stroke:#000000;  fill:none;  stroke-width:1.0;' d="M90.92 151.87 L90.76 152.52 L90.67 153.52 L90.53 155.12 L90.53 156.41 L91.03 156.91 L92.03 156.48 L93.52 155.34 L94.81 153.77 L95.70 152.55 L96.06 151.98 L96.13 152.23 L95.95 153.30 L95.74 154.91 L95.59 156.59 L95.74 157.73 " stroke-linecap='round' stroke-linejoin='round' brush-type='1' stroke-wetness='0.5'></path><path  style = ' stroke:#000000;  fill:none;  stroke-width:1.0;' d="M103.23 150.05 L102.48 150.64 L101.66 151.80 L100.52 153.91 L99.88 156.26 L100.31 157.94 L101.48 158.73 L102.98 158.48 " stroke-linecap='round' stroke-linejoin='round' brush-type='1' stroke-wetness='0.5'></path><path  style = ' stroke:#000000;  fill:none;  stroke-width:1.0;' d="M107.41 143.09 L107.41 143.52 L107.41 144.45 L107.41 146.95 L107.37 150.62 L107.34 154.37 L107.30 157.09 L107.34 158.33 L107.77 158.23 L108.59 156.91 L109.87 155.01 L111.12 153.41 L112.30 152.62 L113.26 152.87 L114.12 154.12 L114.84 156.19 L115.69 158.48 L116.66 160.26 " stroke-linecap='round' stroke-linejoin='round' brush-type='1' stroke-wetness='0.5'></path><path  style = ' stroke:#000000;  fill:none;  stroke-width:1.0;' d="M131.18 148.13 L131.40 148.61 L131.47 150.02 L131.61 152.52 L131.43 155.55 L131.18 157.69 " stroke-linecap='round' stroke-linejoin='round' brush-type='1' stroke-wetness='0.5'></path><path  style = ' stroke:#000000;  fill:none;  stroke-width:1.0;' d="M127.54 151.87 L128.19 151.39 L129.04 150.95 L130.65 150.12 L132.26 149.52 L133.40 149.20 L134.15 149.52 L134.50 150.62 L134.68 152.62 L134.72 154.87 L134.72 156.84 L134.72 158.05 L134.79 158.58 L135.11 158.58 L135.75 157.98 L136.61 156.87 L137.36 155.62 L137.90 154.84 L138.18 155.01 L138.39 155.91 L138.75 157.26 L139.25 158.30 " stroke-linecap='round' stroke-linejoin='round' brush-type='1' stroke-wetness='0.5'></path><path  style = ' stroke:#000000;  fill:none;  stroke-width:1.0;' d="M145.43 152.52 L144.73 152.62 L144.21 152.94 L143.21 153.84 L142.54 155.23 L142.14 156.73 L142.32 157.73 L143.11 158.05 L144.32 157.58 L145.46 156.55 L146.21 155.12 L146.57 153.87 L146.68 153.12 L146.68 153.37 L146.57 154.48 L146.46 156.23 L146.43 157.87 " stroke-linecap='round' stroke-linejoin='round' brush-type='1' stroke-wetness='0.5'></path><path  style = ' stroke:#000000;  fill:none;  stroke-width:1.0;' d="M151.85 147.91 L151.91 148.45 L151.92 149.41 L151.96 151.62 L151.96 154.37 L151.96 157.01 L151.96 158.98 " stroke-linecap='round' stroke-linejoin='round' brush-type='1' stroke-wetness='0.5'></path><path  style = ' stroke:#000000;  fill:none;  stroke-width:1.0;' d="M148.96 151.45 L149.55 151.50 L150.89 151.52 L153.14 151.59 L155.85 151.66 " stroke-linecap='round' stroke-linejoin='round' brush-type='1' stroke-wetness='0.5'></path><path  style = ' stroke:#000000;  fill:none;  stroke-width:1.0;' d="M177.45 138.59 L177.13 138.33 L176.70 138.20 L175.77 137.81 L174.66 137.42 L173.59 136.99 L172.73 136.67 L172.16 136.52 L171.84 136.45 L171.63 136.63 L171.45 137.63 L171.27 139.67 L171.16 142.74 L171.02 146.38 L170.77 150.27 L170.31 153.98 L169.84 157.05 L169.42 159.41 L169.17 160.98 L169.02 161.90 L169.13 162.26 L169.66 162.37 L170.74 162.37 L172.34 162.37 L173.95 162.37 L175.27 162.37 L176.16 162.48 " stroke-linecap='round' stroke-linejoin='round' brush-type='1' stroke-wetness='0.5'></path><path  style = ' stroke:#000000;  fill:none;  stroke-width:1.0;' d="M195.33 143.09 L195.22 142.77 L194.97 142.45 L194.51 141.77 L193.90 141.02 L193.30 140.20 L192.69 139.42 L192.15 138.74 L191.73 138.24 L191.44 137.88 L191.23 137.63 L191.05 137.45 L190.76 137.49 L190.26 137.84 L189.55 138.52 L188.66 139.34 L187.73 140.24 L186.73 141.06 L185.73 141.81 L184.84 142.38 L184.26 142.81 L183.98 143.06 L184.12 143.38 L184.59 143.95 L185.44 144.84 L186.51 145.91 L187.80 147.09 L189.19 148.27 L190.48 149.37 L191.40 150.27 L191.94 150.87 L192.19 151.23 L192.30 151.55 L192.12 152.05 L191.51 152.84 L190.44 153.87 L189.16 155.12 L187.91 156.41 L186.83 157.51 L185.94 158.33 L185.30 158.87 L184.91 159.19 L184.55 159.23 L184.09 158.91 L183.44 158.23 L182.80 157.26 L182.27 156.26 L181.91 155.44 L181.73 154.98 L182.05 155.37 " stroke-linecap='round' stroke-linejoin='round' brush-type='1' stroke-wetness='0.5'></path><path  style = ' stroke:#000000;  fill:none;  stroke-width:1.0;' d="M194.69 157.12 L194.58 157.76 L194.72 158.51 L195.05 159.91 L195.58 161.12 L196.08 161.83 L196.51 162.12 L196.97 162.05 L197.54 161.51 L198.22 160.44 L198.90 159.16 L199.40 158.26 L199.69 157.91 L199.86 158.08 L200.04 158.58 L200.29 159.19 L200.61 159.62 L201.11 159.66 L201.83 159.16 L202.68 158.01 L203.54 156.34 L204.29 154.59 L204.90 153.09 L205.40 152.02 L205.83 151.37 L206.18 151.09 " stroke-linecap='round' stroke-linejoin='round' brush-type='1' stroke-wetness='0.5'></path><path  style = ' stroke:#000000;  fill:none;  stroke-width:1.0;' d="M207.97 137.95 L208.29 137.74 L209.11 137.67 L210.86 137.63 L213.11 137.84 L215.32 138.24 L217.14 138.63 L218.53 139.09 L219.35 139.59 L219.82 140.34 L220.00 141.38 L220.07 142.95 L220.10 145.06 L220.18 147.80 L220.32 150.84 L220.46 153.94 L220.68 156.69 L220.89 159.01 L221.14 160.73 L221.35 161.90 L221.50 162.62 L221.57 163.01 L221.28 163.30 L220.43 163.47 L218.82 163.62 L216.86 163.65 L214.93 163.65 L213.39 163.62 L212.32 163.51 L211.75 163.33 L211.54 163.08 L211.68 162.73 L212.11 162.33 " stroke-linecap='round' stroke-linejoin='round' brush-type='1' stroke-wetness='0.5'></path><path  style = ' stroke:#000000;  fill:none;  stroke-width:1.0;' d="M225.21 150.80 L225.69 150.75 L226.56 150.73 L228.17 150.66 L229.92 150.62 " stroke-linecap='round' stroke-linejoin='round' brush-type='1' stroke-wetness='0.5'></path><path  style = ' stroke:#000000;  fill:none;  stroke-width:1.0;' d="M225.21 154.66 L225.58 154.60 L226.71 154.59 L228.96 154.55 L231.35 154.55 " stroke-linecap='round' stroke-linejoin='round' brush-type='1' stroke-wetness='0.5'></path><path  style = ' stroke:#000000;  fill:none;  stroke-width:1.0;' d="M250.27 141.27 L249.84 140.68 L249.45 140.38 L248.59 139.70 L247.66 139.31 L246.59 138.95 L245.52 138.74 L244.52 138.63 L243.73 138.59 L243.13 138.63 L242.74 138.95 L242.49 139.81 L242.38 141.34 L242.34 143.52 L242.34 146.16 L242.34 149.12 L242.16 152.12 L241.66 154.98 L240.91 157.51 L240.09 159.66 L239.49 161.23 L239.09 162.23 L238.95 162.76 L239.06 163.12 L239.70 163.55 L240.95 164.01 L242.77 164.55 L244.81 164.94 L246.80 165.30 L248.63 165.55 L250.09 165.72 L251.27 165.80 " stroke-linecap='round' stroke-linejoin='round' brush-type='1' stroke-wetness='0.5'></path><path  style = ' stroke:#000000;  fill:none;  stroke-width:1.0;' d="M253.80 143.52 L254.12 144.06 L254.84 145.20 L256.34 147.45 L258.37 150.20 L260.51 152.66 L262.51 154.73 L264.08 156.34 L265.12 157.51 L265.69 158.19 " stroke-linecap='round' stroke-linejoin='round' brush-type='1' stroke-wetness='0.5'></path><path  style = ' stroke:#000000;  fill:none;  stroke-width:1.0;' d="M264.30 143.52 L263.65 143.84 L262.87 144.56 L261.30 146.23 L259.41 148.88 L257.48 151.87 L255.80 154.84 L254.84 157.16 L254.48 158.73 " stroke-linecap='round' stroke-linejoin='round' brush-type='1' stroke-wetness='0.5'></path><path  style = ' stroke:#000000;  fill:none;  stroke-width:1.0;' d="M269.54 154.55 L270.08 155.35 L270.29 156.16 L270.79 157.44 L271.08 158.30 L271.58 158.62 L272.29 158.55 L273.18 157.91 L274.08 156.87 L274.72 155.91 L275.08 155.41 L275.18 155.84 L275.25 156.73 L275.40 157.76 L275.75 158.26 L276.47 158.41 L277.54 158.08 L278.82 157.23 L279.97 155.76 L280.79 154.09 L281.22 152.69 L281.43 151.62 " stroke-linecap='round' stroke-linejoin='round' brush-type='1' stroke-wetness='0.5'></path><path  style = ' stroke:#000000;  fill:none;  stroke-width:1.0;' d="M281.11 141.27 L281.70 141.16 L282.64 141.13 L284.39 141.06 L286.21 141.09 L287.57 141.16 L288.50 141.41 L289.14 141.88 L289.60 142.74 L290.00 143.95 L290.35 145.59 L290.64 147.59 L290.89 149.84 L291.07 152.19 L291.25 154.41 L291.46 156.37 L291.68 157.91 L291.93 159.05 L292.07 159.76 L292.14 160.23 L291.96 160.48 L291.25 160.69 L290.00 160.87 L288.39 161.05 L286.71 161.19 L284.93 161.26 L283.39 161.30 " stroke-linecap='round' stroke-linejoin='round' brush-type='1' stroke-wetness='0.5'></path><path  style = ' stroke:#000000;  fill:none;  stroke-width:1.0;' d="M64.90 173.61 L65.27 173.13 L66.40 172.86 L68.79 172.36 L72.00 172.08 L75.18 171.76 L77.85 171.47 L79.82 171.29 " stroke-linecap='round' stroke-linejoin='round' brush-type='1' stroke-wetness='0.5'></path><path  style = ' stroke:#000000;  fill:none;  stroke-width:1.0;' d="M75.28 172.86 L75.02 173.88 L74.93 175.43 L74.75 178.54 L74.75 182.07 L74.86 185.18 L75.14 187.50 L75.68 188.75 L76.25 189.10 " stroke-linecap='round' stroke-linejoin='round' brush-type='1' stroke-wetness='0.5'></path><path  style = ' stroke:#000000;  fill:none;  stroke-width:1.0;' d="M82.14 174.90 L82.30 175.22 L82.35 175.93 L82.46 177.68 L82.46 180.36 L82.32 183.39 L82.14 186.00 L81.96 187.57 L82.07 188.11 L82.78 187.46 L83.99 186.14 L85.31 184.57 L86.17 183.64 L86.53 183.86 L86.64 184.82 L86.64 185.93 L86.99 186.53 L87.85 186.46 L89.06 186.21 L90.78 185.39 L92.53 184.36 L94.24 182.97 L95.24 181.75 L95.70 180.82 L95.77 180.25 L95.27 180.00 L94.24 180.29 L92.81 181.29 L91.49 183.07 L90.67 185.07 L90.31 186.86 L90.78 188.00 L92.06 188.57 L93.99 188.39 " stroke-linecap='round' stroke-linejoin='round' brush-type='1' stroke-wetness='0.5'></path><path  style = ' stroke:#000000;  fill:none;  stroke-width:1.0;' d="M101.52 182.50 L101.57 181.91 L101.41 181.68 L100.52 181.43 L99.27 181.86 L98.06 182.47 L97.59 183.00 L97.63 183.39 L98.31 183.93 L99.38 184.71 L100.52 185.71 L101.20 186.82 L101.48 187.89 L101.23 188.89 L100.63 189.75 L99.95 190.28 " stroke-linecap='round' stroke-linejoin='round' brush-type='1' stroke-wetness='0.5'></path><path  style = ' stroke:#000000;  fill:none;  stroke-width:1.0;' d="M104.95 185.39 L105.86 185.07 L106.77 184.89 L108.45 184.43 L109.91 183.93 L111.02 183.32 L111.69 182.72 L111.94 182.22 L111.41 181.89 L110.23 181.82 L108.41 182.36 L106.59 183.54 L105.13 185.21 L104.34 186.89 L104.52 188.25 L105.88 189.25 L108.66 189.78 " stroke-linecap='round' stroke-linejoin='round' brush-type='1' stroke-wetness='0.5'></path><path  style = ' stroke:#000000;  fill:none;  stroke-width:1.0;' d="M134.29 183.79 L134.02 183.63 L133.33 183.57 L131.72 183.64 L129.47 184.25 L127.26 185.32 L125.58 186.61 L124.72 187.75 L124.54 188.53 L125.47 188.93 L127.33 188.53 L129.72 187.46 L131.76 185.89 L132.97 184.46 L133.58 183.43 L133.68 182.93 L133.22 183.89 L132.50 186.03 L131.83 188.82 L131.72 190.78 L132.15 191.75 L132.83 191.71 L133.54 190.85 L134.08 189.35 L134.40 187.43 L134.72 185.43 L135.04 183.75 L135.50 182.72 L136.11 182.25 L137.00 182.11 L137.90 182.11 " stroke-linecap='round' stroke-linejoin='round' brush-type='1' stroke-wetness='0.5'></path><path  style = ' stroke:#000000;  fill:none;  stroke-width:1.0;' d="M140.29 186.14 L140.77 186.09 L141.64 185.86 L143.21 185.25 L144.86 184.29 L145.89 183.29 L146.39 182.50 L146.21 182.07 L145.39 181.89 L144.03 182.11 L142.57 182.86 L141.36 184.25 L140.68 185.96 L140.50 187.64 L141.21 189.07 L143.14 190.10 L145.71 190.68 " stroke-linecap='round' stroke-linejoin='round' brush-type='1' stroke-wetness='0.5'></path><path  style = ' stroke:#000000;  fill:none;  stroke-width:1.0;' d="M168.99 180.57 L167.86 181.00 L166.92 181.64 L165.27 183.04 L164.31 184.71 L164.02 186.50 L164.92 188.03 " stroke-linecap='round' stroke-linejoin='round' brush-type='1' stroke-wetness='0.5'></path><path  style = ' stroke:#000000;  fill:none;  stroke-width:1.0;' d="M178.41 183.36 L177.34 183.30 L176.38 183.39 L174.52 183.75 L172.91 184.61 L171.74 185.75 L171.09 186.86 L171.34 187.53 L172.48 187.53 L174.31 186.71 L176.13 185.36 L177.41 183.82 L178.02 182.72 L178.02 182.93 L177.63 184.36 L177.16 186.64 L176.88 188.50 L176.84 189.64 " stroke-linecap='round' stroke-linejoin='round' brush-type='1' stroke-wetness='0.5'></path><path  style = ' stroke:#000000;  fill:none;  stroke-width:1.0;' d="M183.34 173.18 L183.12 173.77 L183.05 174.83 L182.59 177.25 L182.05 180.32 L181.37 183.39 L180.98 185.89 " stroke-linecap='round' stroke-linejoin='round' brush-type='1' stroke-wetness='0.5'></path><path  style = ' stroke:#000000;  fill:none;  stroke-width:1.0;' d="M185.91 174.90 L185.96 175.49 L185.98 177.04 L185.87 179.90 L185.62 183.25 L185.34 185.96 L185.19 187.78 " stroke-linecap='round' stroke-linejoin='round' brush-type='1' stroke-wetness='0.5'></path><path  style = ' stroke:#000000;  fill:none;  stroke-width:1.0;' d="M188.26 184.64 L188.69 184.70 L189.23 184.71 L190.51 184.61 L192.12 184.11 L193.65 183.32 L194.65 182.39 L194.97 181.54 L194.58 180.93 L193.65 180.61 L192.26 180.93 L190.83 181.82 L189.62 183.39 L188.94 185.25 L188.94 187.07 L189.51 188.39 " stroke-linecap='round' stroke-linejoin='round' brush-type='1' stroke-wetness='0.5'></path><path  style = ' stroke:#000000;  fill:none;  stroke-width:1.0;' d="M200.36 183.79 L200.10 183.25 L199.61 183.11 L198.65 183.25 L197.54 184.36 L196.65 185.93 L196.15 187.32 L196.01 188.11 L196.33 188.36 L197.08 187.78 L198.29 186.36 L199.65 183.79 L200.79 180.25 L201.54 176.15 L201.90 172.47 L202.04 170.01 L202.08 168.94 L201.79 169.97 L201.22 172.90 L200.47 177.65 L200.01 182.43 " stroke-linecap='round' stroke-linejoin='round' brush-type='1' stroke-wetness='0.5'></path><path  style = ' stroke:#000000;  fill:none;  stroke-width:1.0;' d="M218.57 174.36 L217.77 174.26 L216.86 174.47 L215.28 175.08 L214.04 176.18 L213.39 177.43 L213.39 178.54 L214.21 179.50 L215.68 180.39 L217.28 181.36 L218.46 182.36 L219.03 183.39 L219.03 184.46 L218.39 185.57 L217.14 186.57 L215.57 187.32 L214.18 187.82 L213.36 188.18 " stroke-linecap='round' stroke-linejoin='round' brush-type='1' stroke-wetness='0.5'></path><path  style = ' stroke:#000000;  fill:none;  stroke-width:1.0;' d="M224.78 181.22 L223.92 181.70 L223.17 182.68 L221.96 184.50 L221.32 186.50 L221.42 188.03 L222.57 188.89 L224.49 188.75 " stroke-linecap='round' stroke-linejoin='round' brush-type='1' stroke-wetness='0.5'></path><path  style = ' stroke:#000000;  fill:none;  stroke-width:1.0;' d="M230.56 171.36 L230.40 171.74 L230.31 173.18 L230.10 176.22 L229.88 180.36 L229.60 184.07 L229.35 186.75 L229.21 188.14 L229.49 188.03 L230.31 186.78 L231.56 185.11 L232.74 184.00 L233.53 183.89 L233.95 184.68 L234.20 186.07 L234.45 187.68 L234.81 188.93 " stroke-linecap='round' stroke-linejoin='round' brush-type='1' stroke-wetness='0.5'></path><path  style = ' stroke:#000000;  fill:none;  stroke-width:1.0;' d="M239.34 183.57 L239.13 184.00 L239.06 184.68 L238.92 186.07 L238.95 187.50 L239.42 188.46 L240.42 188.78 L241.84 188.28 L243.13 187.28 L244.02 186.14 L244.48 185.46 L244.70 185.64 L244.81 186.53 L245.06 187.96 " stroke-linecap='round' stroke-linejoin='round' brush-type='1' stroke-wetness='0.5'></path><path  style = ' stroke:#000000;  fill:none;  stroke-width:1.0;' d="M250.37 186.25 L250.70 185.50 L251.02 184.82 L251.87 183.57 L252.94 182.64 L254.16 182.14 L255.05 182.32 L255.51 183.36 L255.41 185.04 L254.73 186.78 L253.62 188.00 L252.30 188.57 L251.09 188.21 L250.09 186.82 L249.41 184.14 L249.09 180.64 L248.98 177.22 L249.09 174.79 L249.30 173.68 L249.59 174.18 L249.77 176.22 L249.84 179.43 L249.84 182.79 L250.27 185.43 L250.98 186.93 L252.69 187.18 L254.80 186.57 L257.55 185.57 L259.73 184.54 L261.40 183.43 L262.26 182.32 L262.65 181.32 L262.33 180.68 L261.33 180.43 L259.66 180.93 L257.94 182.18 L256.62 184.14 L256.01 186.21 L256.23 188.07 L257.44 189.39 L259.44 190.10 L261.65 190.18 L263.30 189.68 L264.26 188.82 L264.62 187.68 L264.72 186.28 L264.72 184.71 L264.72 183.25 L264.83 182.22 L265.30 181.68 L266.26 181.47 L267.65 181.43 " stroke-linecap='round' stroke-linejoin='round' brush-type='1' stroke-wetness='0.5'></path><path  style = ' stroke:#000000;  fill:none;  stroke-width:1.0;' d="M275.33 179.82 L275.17 180.31 L275.08 181.04 L274.76 182.57 L274.40 184.54 L273.90 186.71 L273.47 188.50 " stroke-linecap='round' stroke-linejoin='round' brush-type='1' stroke-wetness='0.5'></path><path  style = ' stroke:#000000;  fill:none;  stroke-width:1.0;' d="M270.94 182.61 L271.52 182.55 L272.51 182.54 L274.51 182.50 L276.90 182.57 L278.86 182.86 " stroke-linecap='round' stroke-linejoin='round' brush-type='1' stroke-wetness='0.5'></path><path  style = ' stroke:#000000;  fill:none;  stroke-width:1.0;' d="M214.61 189.25 L214.93 189.19 L216.25 189.18 L219.10 189.14 L223.53 189.18 L228.74 189.25 L234.81 189.39 L241.74 189.53 L249.20 189.64 L257.09 189.68 L264.80 189.68 L272.18 189.68 L279.00 189.68 L285.18 189.68 L290.60 189.68 L295.07 189.60 L298.56 189.46 " stroke-linecap='round' stroke-linejoin='round' brush-type='1' stroke-wetness='0.5'></path><path  style = ' stroke:#000000;  fill:none;  stroke-width:1.0;' d="M287.00 199.10 L286.95 198.51 L286.93 197.85 L286.89 196.28 L286.89 194.07 L286.89 191.14 L286.89 187.86 L286.89 184.75 L286.89 182.25 L287.07 180.47 L287.57 179.32 L288.53 178.72 L289.78 178.54 L291.00 179.07 L291.78 180.22 L292.07 181.79 L291.57 183.29 L290.50 184.54 L288.93 185.46 L287.53 186.11 L286.61 186.46 " stroke-linecap='round' stroke-linejoin='round' brush-type='1' stroke-wetness='0.5'></path><path  style = ' stroke:#000000;  fill:none;  stroke-width:1.0;' d="M297.17 183.57 L296.58 183.68 L295.96 184.04 L294.75 185.00 L293.71 186.53 L293.10 188.21 L293.14 189.50 L294.03 190.10 L295.57 189.75 L297.28 188.71 L298.46 187.25 L298.99 185.86 L298.85 184.57 L298.17 183.54 L297.10 182.93 L295.96 182.75 " stroke-linecap='round' stroke-linejoin='round' brush-type='1' stroke-wetness='0.5'></path><path  style = ' stroke:#000000;  fill:none;  stroke-width:1.0;' d="M304.99 175.75 L304.83 176.45 L304.49 178.22 L303.63 181.64 L302.56 185.86 L301.56 189.57 L300.99 192.57 L300.74 194.64 " stroke-linecap='round' stroke-linejoin='round' brush-type='1' stroke-wetness='0.5'></path><path  style = ' stroke:#000000;  fill:none;  stroke-width:1.0;' d="M313.88 183.25 L313.45 184.00 L312.77 185.75 L311.42 188.78 L309.99 192.21 L308.95 194.82 L308.45 196.57 L308.60 196.17 L308.92 194.00 L309.24 190.60 L309.27 187.86 L309.27 185.93 L309.27 184.96 " stroke-linecap='round' stroke-linejoin='round' brush-type='1' stroke-wetness='0.5'></path><path  style = ' stroke:#000000;  fill:none;  stroke-width:1.0;' d="M314.74 187.32 L315.00 186.25 L315.34 185.46 L316.13 183.89 L317.23 182.72 L318.48 181.86 L319.73 181.43 L320.70 181.75 L321.34 182.93 L321.62 184.93 L321.55 187.14 L321.37 189.14 L321.20 190.60 " stroke-linecap='round' stroke-linejoin='round' brush-type='1' stroke-wetness='0.5'></path><path  style = ' stroke:#000000;  fill:none;  stroke-width:1.0;' d="M328.98 183.04 L328.39 183.04 L327.69 183.54 L326.62 184.75 L325.94 186.78 L325.87 188.89 L326.59 190.43 L328.01 191.00 L329.98 190.39 L331.73 189.00 L332.83 187.11 L333.23 185.36 L332.80 183.89 L331.83 183.00 L330.58 182.57 L329.58 182.86 L329.01 183.82 L328.84 185.04 " stroke-linecap='round' stroke-linejoin='round' brush-type='1' stroke-wetness='0.5'></path><path  style = ' stroke:#000000;  fill:none;  stroke-width:1.0;' d="M334.44 188.61 L334.65 188.02 L334.73 187.46 L334.87 186.14 L334.94 184.50 L335.37 182.72 L336.15 181.32 L337.22 180.64 L338.22 180.97 L339.01 182.14 L339.47 184.04 L339.65 185.86 L339.69 187.07 L339.87 187.25 L340.44 186.28 L341.40 184.57 L342.51 182.82 L343.40 181.79 L344.01 181.68 L344.29 182.57 L344.40 184.29 L344.40 186.46 L344.40 188.28 " stroke-linecap='round' stroke-linejoin='round' brush-type='1' stroke-wetness='0.5'></path><path  style = ' stroke:#000000;  fill:none;  stroke-width:1.0;' d="M349.97 180.89 L349.70 181.70 L349.57 182.82 L349.36 184.93 L349.43 186.78 " stroke-linecap='round' stroke-linejoin='round' brush-type='1' stroke-wetness='0.5'></path><path  style = ' stroke:#000000;  fill:none;  stroke-width:1.0;' d="M355.96 182.82 L355.05 182.88 L354.39 183.07 L353.18 183.64 L352.43 184.61 L352.04 185.71 L352.11 186.57 L352.89 186.86 L354.22 186.21 L355.68 184.96 L356.68 183.54 L357.18 182.64 L357.14 182.93 L356.89 184.14 L356.57 185.82 L356.43 186.89 " stroke-linecap='round' stroke-linejoin='round' brush-type='1' stroke-wetness='0.5'></path><path  style = ' stroke:#000000;  fill:none;  stroke-width:1.0;' d="M362.39 171.69 L362.76 172.17 L362.89 173.26 L363.10 175.86 L363.00 179.32 L362.89 182.79 L363.10 185.43 " stroke-linecap='round' stroke-linejoin='round' brush-type='1' stroke-wetness='0.5'></path><path  style = ' stroke:#000000;  fill:none;  stroke-width:1.0;' d="M370.21 178.65 L369.19 178.70 L368.07 179.40 L366.60 180.82 L366.24 182.61 L367.21 184.07 L368.53 185.18 L369.49 186.28 L369.96 187.39 L369.99 188.43 L369.56 189.35 L368.64 190.14 L367.39 190.75 L366.28 191.10 L365.64 191.25 " stroke-linecap='round' stroke-linejoin='round' brush-type='1' stroke-wetness='0.5'></path><path  style = ' stroke:#000000;  fill:none;  stroke-width:1.0;' d="M389.27 181.32 L388.63 181.38 L387.84 181.86 L386.45 183.07 L385.34 185.07 L384.81 187.21 L385.13 188.89 L386.38 189.75 L388.27 189.57 L390.09 188.64 L391.16 187.32 L391.48 186.00 L390.95 184.89 L389.88 184.04 L388.52 183.61 L387.31 183.57 L386.52 183.93 " stroke-linecap='round' stroke-linejoin='round' brush-type='1' stroke-wetness='0.5'></path><path  style = ' stroke:#000000;  fill:none;  stroke-width:1.0;' d="M403.30 173.40 L402.55 173.02 L401.87 173.22 L400.66 174.11 L399.73 176.33 L399.12 179.29 L398.73 182.25 L398.48 184.71 L398.26 186.50 L397.98 187.57 " stroke-linecap='round' stroke-linejoin='round' brush-type='1' stroke-wetness='0.5'></path><path  style = ' stroke:#000000;  fill:none;  stroke-width:1.0;' d="M396.23 182.82 L397.14 182.66 L398.44 182.61 L400.73 182.50 L403.30 182.50 " stroke-linecap='round' stroke-linejoin='round' brush-type='1' stroke-wetness='0.5'></path><path  style = ' stroke:#000000;  fill:none;  stroke-width:1.0;' d="M420.97 174.36 L421.18 174.68 L421.25 175.97 L421.40 178.43 L421.18 181.68 L420.72 184.71 L420.00 187.39 L419.29 189.64 L418.72 191.25 L418.40 192.25 L418.33 192.71 L418.90 192.85 L420.04 192.89 L421.90 192.82 L423.79 192.67 L425.50 192.50 L426.79 192.39 L427.68 192.35 L428.25 192.35 " stroke-linecap='round' stroke-linejoin='round' brush-type='1' stroke-wetness='0.5'></path><path  style = ' stroke:#000000;  fill:none;  stroke-width:1.0;' d="M437.67 182.93 L436.82 182.50 L435.89 182.36 L434.21 182.32 L432.78 182.97 L431.85 184.18 L431.39 185.64 L431.39 186.96 L432.07 187.71 L433.35 187.64 L435.00 186.78 L436.42 185.43 L437.32 184.11 L437.71 183.21 L437.53 183.57 L437.17 184.96 L436.82 187.18 L437.07 189.14 L437.74 190.35 " stroke-linecap='round' stroke-linejoin='round' brush-type='1' stroke-wetness='0.5'></path><path  style = ' stroke:#000000;  fill:none;  stroke-width:1.0;' d="M445.17 180.79 L444.47 180.89 L444.03 181.04 L443.21 181.36 L442.85 181.79 L442.85 182.39 L443.46 183.18 L444.56 184.21 L445.85 185.32 L446.78 186.43 L447.20 187.43 L446.92 188.36 L446.06 189.21 L444.78 189.89 L443.63 190.32 L442.85 190.46 " stroke-linecap='round' stroke-linejoin='round' brush-type='1' stroke-wetness='0.5'></path><path  style = ' stroke:#000000;  fill:none;  stroke-width:1.0;' d="M460.91 174.68 L460.16 174.90 L458.81 176.00 L456.52 178.22 L454.31 181.18 L453.09 183.82 L452.59 185.93 L453.13 187.32 L454.74 188.03 L456.95 188.07 " stroke-linecap='round' stroke-linejoin='round' brush-type='1' stroke-wetness='0.5'></path><path  style = ' stroke:#000000;  fill:none;  stroke-width:1.0;' d="M465.62 180.36 L464.61 180.36 L463.73 180.57 L462.13 181.29 L460.91 182.54 L460.16 184.14 L459.84 185.64 L460.34 186.68 L461.80 186.96 L463.95 186.28 L466.02 185.00 L467.27 183.43 L467.77 182.07 L467.44 181.11 L466.69 180.61 L465.48 180.68 L464.48 181.07 " stroke-linecap='round' stroke-linejoin='round' brush-type='1' stroke-wetness='0.5'></path><path  style = ' stroke:#000000;  fill:none;  stroke-width:1.0;' d="M468.52 181.11 L468.41 181.80 L468.37 182.54 L468.30 184.00 L468.30 185.39 L468.66 186.46 L469.51 187.03 L471.05 186.71 L472.76 185.64 L474.26 184.07 L475.19 182.68 L475.65 181.79 L475.76 182.25 L475.65 183.86 L475.40 186.25 L475.23 188.21 L475.30 189.53 L475.58 190.14 " stroke-linecap='round' stroke-linejoin='round' brush-type='1' stroke-wetness='0.5'></path><path  style = ' stroke:#000000;  fill:none;  stroke-width:1.0;' d="M480.51 179.82 L480.88 180.52 L481.29 181.25 L482.22 182.68 L483.36 184.14 L484.69 185.61 L485.97 186.89 L486.97 187.75 " stroke-linecap='round' stroke-linejoin='round' brush-type='1' stroke-wetness='0.5'></path><path  style = ' stroke:#000000;  fill:none;  stroke-width:1.0;' d="M486.93 178.75 L486.61 179.45 L486.11 180.36 L485.08 182.18 L483.79 184.36 L482.54 186.53 L481.51 188.71 L480.79 190.25 " stroke-linecap='round' stroke-linejoin='round' brush-type='1' stroke-wetness='0.5'></path><path  style = ' stroke:#000000;  fill:none;  stroke-width:1.0;' d="M507.28 180.89 L506.37 180.89 L505.64 180.89 L503.89 181.43 L502.28 182.50 L500.89 184.21 L500.18 185.93 L499.93 187.39 L500.28 188.28 L501.36 188.39 L502.96 187.61 L504.64 186.07 L505.78 184.25 L506.42 182.68 L506.60 181.72 L506.46 181.72 L506.14 182.86 L505.82 185.00 L505.85 187.43 " stroke-linecap='round' stroke-linejoin='round' brush-type='1' stroke-wetness='0.5'></path><path  style = ' stroke:#000000;  fill:none;  stroke-width:1.0;' d="M509.64 187.21 L509.58 186.14 L509.57 185.29 L509.64 183.71 L509.96 182.61 L510.49 181.89 L511.17 181.54 L511.85 181.64 L512.42 182.47 L512.81 184.07 L513.14 186.07 " stroke-linecap='round' stroke-linejoin='round' brush-type='1' stroke-wetness='0.5'></path><path  style = ' stroke:#000000;  fill:none;  stroke-width:1.0;' d="M519.81 183.57 L519.38 182.77 L518.63 182.79 L517.31 183.11 L516.03 184.64 L515.24 186.43 L514.88 187.86 L514.96 188.64 L515.56 188.71 L516.63 187.86 L517.92 186.07 L519.03 183.18 L519.81 179.61 L520.35 175.75 L520.70 172.33 L520.99 169.94 L521.17 168.65 L521.24 168.76 L520.99 170.33 L520.42 173.47 L519.67 177.36 L519.13 181.00 L518.88 183.89 L518.85 186.00 L518.88 187.57 L518.95 188.53 L519.10 188.96 " stroke-linecap='round' stroke-linejoin='round' brush-type='1' stroke-wetness='0.5'></path><path  style = ' stroke:#000000;  fill:none;  stroke-width:1.0;' d="M539.19 169.44 L538.71 169.11 L538.16 169.36 L537.02 170.08 L535.80 171.65 L534.73 173.40 L534.05 174.86 L533.77 175.90 L534.05 176.65 L534.91 177.50 L536.30 178.57 L537.69 179.90 L538.69 181.22 L539.19 182.47 L539.12 183.57 L538.44 184.71 L537.23 185.86 L535.77 186.86 L534.55 187.53 L533.98 187.82 " stroke-linecap='round' stroke-linejoin='round' brush-type='1' stroke-wetness='0.5'></path><path  style = ' stroke:#000000;  fill:none;  stroke-width:1.0;' d="M547.65 178.43 L547.17 178.38 L546.33 178.82 L544.91 179.93 L543.44 181.97 L542.59 184.29 L542.16 186.46 L542.48 188.03 L543.51 188.89 L545.23 188.96 L546.87 188.50 " stroke-linecap='round' stroke-linejoin='round' brush-type='1' stroke-wetness='0.5'></path><path  style = ' stroke:#000000;  fill:none;  stroke-width:1.0;' d="M550.65 171.36 L550.76 172.17 L550.80 173.36 L550.76 176.08 L550.40 179.43 L549.76 182.68 L549.05 185.07 L548.55 186.36 L548.69 186.21 L549.51 185.21 L550.87 183.93 L552.12 183.25 L553.04 183.21 L553.54 183.82 L553.83 184.86 L553.97 186.11 L554.15 187.25 L554.44 188.07 " stroke-linecap='round' stroke-linejoin='round' brush-type='1' stroke-wetness='0.5'></path><path  style = ' stroke:#000000;  fill:none;  stroke-width:1.0;' d="M561.79 180.36 L561.20 181.32 L560.86 182.36 L560.22 184.39 L559.97 186.36 L559.90 187.86 L560.33 188.71 L561.29 188.78 L562.75 187.96 L564.29 186.32 L565.57 184.18 L566.50 182.29 L567.00 181.07 L567.22 181.14 L567.18 182.36 L566.93 184.43 L566.57 186.43 L566.25 187.89 " stroke-linecap='round' stroke-linejoin='round' brush-type='1' stroke-wetness='0.5'></path><path  style = ' stroke:#000000;  fill:none;  stroke-width:1.0;' d="M560.72 175.54 a0.50 0.50 0 1 0 0.01 0 " stroke-linecap='round' stroke-linejoin='round' brush-type='1' stroke-wetness='0.5'></path><path  style = ' stroke:#000000;  fill:none;  stroke-width:1.0;' d="M564.25 175.75 a0.50 0.50 0 1 0 0.01 0 " stroke-linecap='round' stroke-linejoin='round' brush-type='1' stroke-wetness='0.5'></path><path  style = ' stroke:#000000;  fill:none;  stroke-width:1.0;' d="M572.39 174.15 L572.61 174.68 L572.68 175.50 L572.82 177.40 L572.78 179.82 L572.64 182.47 L572.46 184.86 L572.32 186.61 " stroke-linecap='round' stroke-linejoin='round' brush-type='1' stroke-wetness='0.5'></path><path  style = ' stroke:#000000;  fill:none;  stroke-width:1.0;' d="M570.57 178.86 L570.95 178.65 L571.71 178.57 L573.25 178.43 L575.28 178.57 " stroke-linecap='round' stroke-linejoin='round' brush-type='1' stroke-wetness='0.5'></path><path  style = ' stroke:#000000;  fill:none;  stroke-width:1.0;' d="M577.10 179.40 L577.37 179.40 L577.92 179.40 L579.10 179.40 L580.57 179.40 L581.78 179.57 L582.57 180.07 L582.89 181.00 L582.78 182.29 L582.24 183.79 L581.39 185.36 L580.57 186.71 L580.03 187.71 L579.82 188.32 L579.99 188.68 L580.60 188.86 L581.74 188.93 L583.14 188.89 L584.42 188.75 L585.39 188.50 L585.92 188.11 " stroke-linecap='round' stroke-linejoin='round' brush-type='1' stroke-wetness='0.5'></path><path  style = ' stroke:#000000;  fill:none;  stroke-width:1.0;' d="M579.99 184.54 L580.42 184.16 L581.03 183.96 L582.60 183.43 L584.24 183.04 L585.53 182.72 " stroke-linecap='round' stroke-linejoin='round' brush-type='1' stroke-wetness='0.5'></path><path  style = ' stroke:#000000;  fill:none;  stroke-width:1.0;' d="M587.81 184.64 L588.35 184.70 L588.88 184.71 L590.06 184.61 L591.27 184.18 L592.35 183.46 L593.02 182.68 L593.27 182.04 L592.95 181.64 L592.06 181.47 L590.70 181.64 L589.35 182.36 L588.35 183.64 L587.85 185.25 L588.03 186.78 L588.95 188.00 " stroke-linecap='round' stroke-linejoin='round' brush-type='1' stroke-wetness='0.5'></path><path  style = ' stroke:#000000;  fill:none;  stroke-width:1.0;' d="M593.92 187.00 L593.97 186.14 L594.17 185.54 L594.74 184.39 L595.70 183.68 L596.81 183.29 L597.77 183.36 L598.45 184.11 L598.91 185.46 L599.34 187.21 " stroke-linecap='round' stroke-linejoin='round' brush-type='1' stroke-wetness='0.5'></path><path  style = ' stroke:#000000;  fill:none;  stroke-width:1.0;' d="M603.66 181.75 L603.93 181.00 L604.55 180.39 L605.77 179.50 L607.23 179.29 L608.34 180.04 L608.94 181.54 L608.84 183.36 L608.09 184.86 L606.84 185.68 L605.41 185.93 L604.05 185.43 L602.95 184.00 L602.23 181.54 L601.91 178.18 L601.84 174.90 L601.91 172.36 L602.02 171.19 L602.06 172.04 L601.77 174.40 L601.27 177.93 L600.84 181.04 L600.63 183.11 " stroke-linecap='round' stroke-linejoin='round' brush-type='1' stroke-wetness='0.5'></path><path  style = ' stroke:#000000;  fill:none;  stroke-width:1.0;' d="M607.09 181.97 L607.89 182.23 L608.77 182.32 L610.52 182.25 L612.26 181.61 L613.73 180.57 L614.62 179.36 L614.98 178.25 L614.76 177.54 L614.05 177.33 L612.80 178.04 L611.44 179.57 L610.41 181.89 L609.91 184.29 L610.16 186.28 " stroke-linecap='round' stroke-linejoin='round' brush-type='1' stroke-wetness='0.5'></path><path  style = ' stroke:#000000;  fill:none;  stroke-width:1.0;' d="M612.01 188.50 L613.94 187.00 L614.58 185.75 L615.87 183.36 L616.12 181.47 L616.83 180.00 L618.15 179.15 L619.97 178.79 L622.08 179.07 " stroke-linecap='round' stroke-linejoin='round' brush-type='1' stroke-wetness='0.5'></path><path  style = ' stroke:#000000;  fill:none;  stroke-width:1.0;' d="M628.93 179.40 L628.13 179.23 L627.04 179.40 L625.26 179.93 L623.72 181.18 L623.01 182.79 L622.90 184.32 L623.62 185.32 L624.90 185.64 L626.40 185.11 L627.47 184.00 L627.97 182.36 L628.08 180.68 L628.08 179.32 L628.33 179.72 L628.61 181.68 L628.90 184.93 L628.43 188.07 L627.40 190.89 L625.69 193.10 L623.79 194.53 L621.87 195.24 L620.19 194.89 " stroke-linecap='round' stroke-linejoin='round' brush-type='1' stroke-wetness='0.5'></path><path  style = ' stroke:#000000;  fill:none;  stroke-width:1.0;' d="M631.93 184.43 L632.47 184.48 L633.00 184.50 L634.15 184.46 L635.40 184.14 L636.54 183.54 L637.36 182.75 L637.72 181.89 L637.57 181.14 L636.86 180.64 L635.61 180.68 L634.11 181.54 L632.79 183.14 L631.97 185.32 L631.79 187.50 L632.36 189.39 L633.22 190.60 L634.86 190.85 L636.68 188.28 L638.75 184.75 L640.25 181.32 L641.54 180.25 L642.93 180.04 L644.57 180.07 L646.28 180.29 " stroke-linecap='round' stroke-linejoin='round' brush-type='1' stroke-wetness='0.5'></path></g><g id='id-text-layer'  type='type-normal' preserveAspectRatio="none" ><text  style = 'fill: #000000; font-family:Helvetica-Light; font-size:18.0; ' preserveAspectRatio="none" x= '40' y='40' width = '688' height = '944' transform="rotate(   0,  384,  512)" ><tspan visibility='hidden'><![CDATA[]]></tspan></text></g><recordings ></recordings><defs   ></defs><htext lang='en_US' timestamp='20180410-140419'><![CDATA[Recall: A * (Feln))=QnZ[Xw]= ZQ''nKeik,.,xD=o ken>
Want to find for each won a "Canonical" polynomial Sw (Xi,.,XDeZ[b.,D
such that [Sw]=[XD
These are called Schubert lmomials of Lascaux and Schiitzenberge]]></htext></svg> 