<?xml version="1.0" standalone="no"?> <!DOCTYPE svg PUBLIC "-//W3C//DTD SVG 1.1//EN" "http://www.w3.org/Graphics/SVG/1.1/DTD/svg11.dtd"> <svg   version="1.1"     xmlns="http://www.w3.org/2000/svg"  xmlns:xlink="http://www.w3.org/1999/xlink" name="" width="768.0" height="1004.0" background="N_PAPERBACKGROUND_WHITE_WITH_GRAY_LINE" line-height="30.0" margin-top="40.0" margin-right="40.0" margin-bottom="40.0" margin-left="40.0"><g id='id-background-layer'  type='type-normal' preserveAspectRatio="none" ><rect  style = ' stroke:#FFFFFF;  fill:#FFFFFF;  stroke-width:0.0;' x="0" y="0" width="768" height="1004" preserveAspectRatio="none" transform="rotate(   0,  384,  502)" ></rect><polyline  style = ' stroke:#D7D6D6;  fill:none;  stroke-width:1.0;' points = ' 0,70 768,70' preserveAspectRatio="none" transform="rotate(   0,  384,   70)" ></polyline><polyline  style = ' stroke:#D7D6D6;  fill:none;  stroke-width:1.0;' points = ' 0,100 768,100' preserveAspectRatio="none" transform="rotate(   0,  384,  100)" ></polyline><polyline  style = ' stroke:#D7D6D6;  fill:none;  stroke-width:1.0;' points = ' 0,130 768,130' preserveAspectRatio="none" transform="rotate(   0,  384,  130)" ></polyline><polyline  style = ' stroke:#D7D6D6;  fill:none;  stroke-width:1.0;' points = ' 0,160 768,160' preserveAspectRatio="none" transform="rotate(   0,  384,  160)" ></polyline><polyline  style = ' stroke:#D7D6D6;  fill:none;  stroke-width:1.0;' points = ' 0,190 768,190' preserveAspectRatio="none" transform="rotate(   0,  384,  190)" ></polyline><polyline  style = ' stroke:#D7D6D6;  fill:none;  stroke-width:1.0;' points = ' 0,220 768,220' preserveAspectRatio="none" transform="rotate(   0,  384,  220)" ></polyline><polyline  style = ' stroke:#D7D6D6;  fill:none;  stroke-width:1.0;' points = ' 0,250 768,250' preserveAspectRatio="none" transform="rotate(   0,  384,  250)" ></polyline><polyline  style = ' stroke:#D7D6D6;  fill:none;  stroke-width:1.0;' points = ' 0,280 768,280' preserveAspectRatio="none" transform="rotate(   0,  384,  280)" ></polyline><polyline  style = ' stroke:#D7D6D6;  fill:none;  stroke-width:1.0;' points = ' 0,310 768,310' preserveAspectRatio="none" transform="rotate(   0,  384,  310)" ></polyline><polyline  style = ' stroke:#D7D6D6;  fill:none;  stroke-width:1.0;' points = ' 0,340 768,340' preserveAspectRatio="none" transform="rotate(   0,  384,  340)" ></polyline><polyline  style = ' stroke:#D7D6D6;  fill:none;  stroke-width:1.0;' points = ' 0,370 768,370' preserveAspectRatio="none" transform="rotate(   0,  384,  370)" ></polyline><polyline  style = ' stroke:#D7D6D6;  fill:none;  stroke-width:1.0;' points = ' 0,400 768,400' preserveAspectRatio="none" transform="rotate(   0,  384,  400)" ></polyline><polyline  style = ' stroke:#D7D6D6;  fill:none;  stroke-width:1.0;' points = ' 0,430 768,430' preserveAspectRatio="none" transform="rotate(   0,  384,  430)" ></polyline><polyline  style = ' stroke:#D7D6D6;  fill:none;  stroke-width:1.0;' points = ' 0,460 768,460' preserveAspectRatio="none" transform="rotate(   0,  384,  460)" ></polyline><polyline  style = ' stroke:#D7D6D6;  fill:none;  stroke-width:1.0;' points = ' 0,490 768,490' preserveAspectRatio="none" transform="rotate(   0,  384,  490)" ></polyline><polyline  style = ' stroke:#D7D6D6;  fill:none;  stroke-width:1.0;' points = ' 0,520 768,520' preserveAspectRatio="none" transform="rotate(   0,  384,  520)" ></polyline><polyline  style = ' stroke:#D7D6D6;  fill:none;  stroke-width:1.0;' points = ' 0,550 768,550' preserveAspectRatio="none" transform="rotate(   0,  384,  550)" ></polyline><polyline  style = ' stroke:#D7D6D6;  fill:none;  stroke-width:1.0;' points = ' 0,580 768,580' preserveAspectRatio="none" transform="rotate(   0,  384,  580)" ></polyline><polyline  style = ' stroke:#D7D6D6;  fill:none;  stroke-width:1.0;' points = ' 0,610 768,610' preserveAspectRatio="none" transform="rotate(   0,  384,  610)" ></polyline><polyline  style = ' stroke:#D7D6D6;  fill:none;  stroke-width:1.0;' points = ' 0,640 768,640' preserveAspectRatio="none" transform="rotate(   0,  384,  640)" ></polyline><polyline  style = ' stroke:#D7D6D6;  fill:none;  stroke-width:1.0;' points = ' 0,670 768,670' preserveAspectRatio="none" transform="rotate(   0,  384,  670)" ></polyline><polyline  style = ' stroke:#D7D6D6;  fill:none;  stroke-width:1.0;' points = ' 0,700 768,700' preserveAspectRatio="none" transform="rotate(   0,  384,  700)" ></polyline><polyline  style = ' stroke:#D7D6D6;  fill:none;  stroke-width:1.0;' points = ' 0,730 768,730' preserveAspectRatio="none" transform="rotate(   0,  384,  730)" ></polyline><polyline  style = ' stroke:#D7D6D6;  fill:none;  stroke-width:1.0;' points = ' 0,760 768,760' preserveAspectRatio="none" transform="rotate(   0,  384,  760)" ></polyline><polyline  style = ' stroke:#D7D6D6;  fill:none;  stroke-width:1.0;' points = ' 0,790 768,790' preserveAspectRatio="none" transform="rotate(   0,  384,  790)" ></polyline><polyline  style = ' stroke:#D7D6D6;  fill:none;  stroke-width:1.0;' points = ' 0,820 768,820' preserveAspectRatio="none" transform="rotate(   0,  384,  820)" ></polyline><polyline  style = ' stroke:#D7D6D6;  fill:none;  stroke-width:1.0;' points = ' 0,850 768,850' preserveAspectRatio="none" transform="rotate(   0,  384,  850)" ></polyline><polyline  style = ' stroke:#D7D6D6;  fill:none;  stroke-width:1.0;' points = ' 0,880 768,880' preserveAspectRatio="none" transform="rotate(   0,  384,  880)" ></polyline><polyline  style = ' stroke:#D7D6D6;  fill:none;  stroke-width:1.0;' points = ' 0,910 768,910' preserveAspectRatio="none" transform="rotate(   0,  384,  910)" ></polyline><polyline  style = ' stroke:#D7D6D6;  fill:none;  stroke-width:1.0;' points = ' 0,940 768,940' preserveAspectRatio="none" transform="rotate(   0,  384,  940)" ></polyline><polyline  style = ' stroke:#C74F4F;  fill:none;  stroke-width:0.5;' points = ' 40,0 40,1004' preserveAspectRatio="none" transform="rotate(   0,   40,  502)" ></polyline><polyline  style = ' stroke:#B6B6B6; stroke-opacity:0.8; fill:none;  stroke-width:0.5;' points = ' 728,0 728,1004' preserveAspectRatio="none" transform="rotate(   0,  728,  502)" ></polyline></g><g id='id-main-layer'  type='type-normal' preserveAspectRatio="none" ><path  style = ' stroke:#000000;  fill:none;  stroke-width:1.0;' d="M65.12 78.72 L64.32 78.32 L63.70 78.19 L62.28 78.19 L60.95 78.90 L59.09 80.22 L57.06 81.91 L54.93 83.95 L53.34 86.25 L52.18 88.91 L51.56 91.74 L51.39 94.58 L51.83 97.06 L52.98 99.10 L54.84 100.42 L57.23 101.13 L59.98 101.22 L62.73 100.51 L65.03 99.36 L66.27 97.94 L66.71 96.88 L66.09 95.91 L64.59 95.29 L62.02 94.93 L59.36 95.02 L57.14 95.37 L55.82 95.91 L55.20 96.62 L55.64 97.24 " stroke-linecap='round' stroke-linejoin='round' brush-type='0' stroke-wetness='0.0'></path><path  style = ' stroke:#000000;  fill:none;  stroke-width:1.0;' d="M72.03 88.82 L72.03 89.35 L72.03 90.06 L72.03 91.65 L72.03 93.34 L72.03 94.93 L72.29 95.99 " stroke-linecap='round' stroke-linejoin='round' brush-type='0' stroke-wetness='0.0'></path><path  style = ' stroke:#000000;  fill:none;  stroke-width:1.0;' d="M77.61 91.21 L77.34 91.74 L77.26 92.45 L77.08 93.78 L77.17 95.02 L77.61 95.82 L78.59 96.17 L80.27 95.82 L82.39 94.22 L84.43 92.01 L85.94 89.79 L86.82 88.55 L87.36 87.76 " stroke-linecap='round' stroke-linejoin='round' brush-type='0' stroke-wetness='0.0'></path><path  style = ' stroke:#000000;  fill:none;  stroke-width:1.0;' d="M88.77 92.81 L89.04 92.67 L89.48 92.54 L90.55 92.27 L91.87 91.83 L93.03 91.21 L93.82 90.41 L94.18 89.44 L94.36 88.55 L93.65 87.93 L92.23 87.76 L90.19 88.20 L88.51 89.26 L87.18 91.03 L86.47 93.16 L86.29 95.37 L87.18 97.50 " stroke-linecap='round' stroke-linejoin='round' brush-type='0' stroke-wetness='0.0'></path><path  style = ' stroke:#000000;  fill:none;  stroke-width:1.0;' d="M96.48 98.65 L96.48 97.99 L96.48 97.32 L96.48 95.64 L96.66 93.78 L97.10 92.01 L97.90 90.86 L98.87 90.32 L100.20 90.24 L101.62 91.03 L103.04 92.54 L104.28 94.58 L105.52 96.44 L107.29 97.94 " stroke-linecap='round' stroke-linejoin='round' brush-type='0' stroke-wetness='0.0'></path><path  style = ' stroke:#000000;  fill:none;  stroke-width:1.0;' d="M154.69 78.72 L154.16 77.79 L153.45 77.30 L152.12 76.24 L150.35 75.79 L148.40 75.44 L146.27 75.35 L144.50 75.35 L142.99 75.53 L141.75 76.24 L140.87 77.39 L140.43 79.25 L140.34 81.64 L140.51 84.48 L140.96 87.49 L141.49 90.24 L141.93 92.72 L142.20 94.67 L142.37 96.35 L142.46 97.59 L142.37 98.48 L141.67 98.92 " stroke-linecap='round' stroke-linejoin='round' brush-type='0' stroke-wetness='0.0'></path><path  style = ' stroke:#000000;  fill:none;  stroke-width:1.0;' d="M137.41 90.41 L137.94 90.01 L138.74 89.70 L140.34 89.00 L142.46 88.55 L144.86 88.29 L147.51 88.29 L149.46 88.29 " stroke-linecap='round' stroke-linejoin='round' brush-type='0' stroke-wetness='0.0'></path><path  style = ' stroke:#000000;  fill:none;  stroke-width:1.0;' d="M163.19 85.89 L163.73 84.83 L164.17 84.48 L165.14 83.77 L165.85 83.77 L166.38 83.86 L166.56 84.12 L166.56 84.48 L166.38 84.92 L165.85 85.27 L165.32 85.54 L164.70 85.63 L164.26 85.63 " stroke-linecap='round' stroke-linejoin='round' brush-type='0' stroke-wetness='0.0'></path><path  style = ' stroke:#000000;  fill:none;  stroke-width:1.0;' d="M163.46 94.67 L163.59 93.60 L163.99 93.16 L164.70 92.36 L165.50 92.27 L166.03 92.27 L166.30 92.45 L166.12 92.81 L165.68 93.25 L164.88 93.51 L164.08 93.69 " stroke-linecap='round' stroke-linejoin='round' brush-type='0' stroke-wetness='0.0'></path><path  style = ' stroke:#000000;  fill:none;  stroke-width:1.0;' d="M176.75 93.87 L176.75 93.07 L176.93 92.36 L177.28 90.77 L177.99 88.73 L179.05 86.07 L180.38 83.15 L181.71 80.67 L182.60 78.98 L183.31 78.19 L183.84 77.92 L184.37 78.81 L184.72 81.20 L184.90 84.83 L184.99 88.82 L184.90 91.92 L184.81 93.96 L184.72 94.84 L184.81 93.69 L185.34 90.77 L186.50 86.52 L188.09 83.06 L189.51 81.02 L190.39 80.22 L191.01 80.49 L191.46 82.17 L191.81 85.10 L191.90 88.38 L191.90 91.12 L191.90 92.89 L191.81 94.05 " stroke-linecap='round' stroke-linejoin='round' brush-type='0' stroke-wetness='0.0'></path><path  style = ' stroke:#000000;  fill:none;  stroke-width:1.0;' d="M196.95 77.66 L197.22 76.99 L197.57 76.50 L198.10 75.62 L198.63 75.00 L199.08 74.64 L199.61 74.47 L200.23 74.91 L200.76 75.79 L201.11 77.04 L201.20 78.19 L201.20 79.16 L201.20 79.96 L201.20 80.67 L201.38 81.29 " stroke-linecap='round' stroke-linejoin='round' brush-type='0' stroke-wetness='0.0'></path><path  style = ' stroke:#000000;  fill:none;  stroke-width:1.0;' d="M201.20 80.58 L201.34 79.91 L201.47 79.34 L201.82 78.28 L202.44 77.39 L203.15 76.50 L204.04 75.79 L204.84 75.26 L205.99 75.26 L207.05 76.06 L207.85 77.57 L208.11 79.43 L208.11 81.11 L207.94 82.71 " stroke-linecap='round' stroke-linejoin='round' brush-type='0' stroke-wetness='0.0'></path><path  style = ' stroke:#000000;  fill:none;  stroke-width:1.0;' d="M213.43 92.27 L214.09 92.01 L215.29 91.83 L217.86 91.39 L221.40 91.03 L225.48 90.59 L229.73 90.32 L233.89 90.15 L237.44 90.15 L240.54 90.15 L242.84 90.15 L244.53 90.15 L245.41 90.06 L245.77 89.79 L245.59 89.17 L244.61 88.11 L243.20 86.87 L241.69 85.72 L240.27 84.92 L238.77 84.48 L237.08 85.01 " stroke-linecap='round' stroke-linejoin='round' brush-type='0' stroke-wetness='0.0'></path><path  style = ' stroke:#000000;  fill:none;  stroke-width:1.0;' d="M240.54 91.74 L240.41 92.01 L240.27 92.54 L239.83 93.69 L239.12 95.20 L238.32 96.79 L237.53 98.39 " stroke-linecap='round' stroke-linejoin='round' brush-type='0' stroke-wetness='0.0'></path><path  style = ' stroke:#000000;  fill:none;  stroke-width:1.0;' d="M252.50 98.12 L252.77 97.72 L252.85 97.06 L253.21 95.55 L253.47 93.43 L253.92 90.50 L254.36 87.14 L254.89 84.03 L255.34 81.91 L255.69 80.76 L255.87 80.05 L256.13 79.78 L256.66 80.49 L257.55 82.88 L258.52 86.60 L259.32 90.59 L259.94 93.60 L260.56 95.55 L261.09 96.62 L261.54 97.15 L261.80 96.97 L262.07 95.46 L262.42 92.45 L263.04 88.38 L263.93 84.74 L264.73 82.17 L265.44 80.58 L265.88 79.52 L266.32 78.81 L266.59 78.54 L266.94 78.72 " stroke-linecap='round' stroke-linejoin='round' brush-type='0' stroke-wetness='0.0'></path><path  style = ' stroke:#000000;  fill:none;  stroke-width:1.0;' d="M267.65 84.57 L267.65 83.90 L267.65 83.41 L267.65 82.35 L267.65 81.38 L267.74 80.31 L267.92 79.25 L268.09 78.45 L268.18 77.92 L268.18 77.66 L268.36 77.48 L268.62 77.30 L268.98 77.12 L269.33 76.95 L269.78 76.86 L270.49 76.86 L271.28 77.12 L272.08 77.74 L272.61 78.72 L272.97 79.69 L273.14 80.76 L273.23 81.73 L273.23 82.71 L273.23 83.41 L273.23 84.03 L273.23 84.48 L273.23 84.83 L273.23 85.27 " stroke-linecap='round' stroke-linejoin='round' brush-type='0' stroke-wetness='0.0'></path><path  style = ' stroke:#000000;  fill:none;  stroke-width:1.0;' d="M307.52 91.48 L306.46 91.34 L305.57 91.48 L303.53 92.01 L301.67 93.07 L300.16 94.40 L299.28 95.91 L298.92 97.59 L298.84 99.10 L299.63 100.07 L301.05 100.42 L303.53 99.45 L305.39 98.03 L306.72 96.35 L306.99 95.55 L307.16 95.02 L306.99 94.75 L306.46 95.11 L305.84 96.08 L305.48 97.86 L305.66 99.63 " stroke-linecap='round' stroke-linejoin='round' brush-type='0' stroke-wetness='0.0'></path><path  style = ' stroke:#000000;  fill:none;  stroke-width:1.0;' d="M310.97 98.39 L310.84 97.46 L310.80 96.62 L310.89 95.02 L311.15 93.69 L311.59 92.81 L312.21 92.36 L313.10 92.27 L314.07 92.81 L314.96 94.31 L315.58 96.62 L316.38 99.10 " stroke-linecap='round' stroke-linejoin='round' brush-type='0' stroke-wetness='0.0'></path><path  style = ' stroke:#000000;  fill:none;  stroke-width:1.0;' d="M325.33 92.27 L324.26 91.61 L323.47 91.48 L321.87 91.48 L320.54 92.36 L319.48 93.69 L318.77 95.37 L318.50 97.06 L318.42 98.39 L318.86 99.01 L319.66 99.01 L320.81 98.30 L321.78 96.88 L322.49 94.75 L322.85 91.83 L322.93 88.29 L323.02 84.48 L323.11 81.47 L323.20 79.52 L323.20 78.54 L323.20 78.98 L323.02 81.38 L322.85 85.54 L322.76 90.06 L323.38 93.60 " stroke-linecap='round' stroke-linejoin='round' brush-type='0' stroke-wetness='0.0'></path><path  style = ' stroke:#000000;  fill:none;  stroke-width:1.0;' d="M346.06 82.17 L345.79 83.90 L345.70 84.92 L345.70 86.96 L346.15 88.20 L346.94 89.08 L348.10 89.62 L349.60 89.70 L351.20 89.26 L352.61 88.29 L353.68 86.78 L354.30 85.27 L354.56 83.68 L354.47 82.26 L354.03 81.20 L353.32 80.49 L352.26 80.22 L351.20 80.05 L350.22 80.22 L349.51 81.11 L349.16 83.06 L348.98 85.63 L348.98 88.55 L348.98 91.30 L348.98 93.78 L348.98 95.46 L348.98 96.53 L348.72 97.06 " stroke-linecap='round' stroke-linejoin='round' brush-type='0' stroke-wetness='0.0'></path><path  style = ' stroke:#000000;  fill:none;  stroke-width:1.0;' d="M359.61 85.63 L359.48 85.10 L359.79 84.92 L360.41 84.57 L361.30 84.57 L361.92 84.65 L362.18 85.01 L362.27 85.63 L362.09 86.34 L361.65 86.78 L361.03 86.96 L360.50 86.96 L360.59 86.60 " stroke-linecap='round' stroke-linejoin='round' brush-type='0' stroke-wetness='0.0'></path><path  style = ' stroke:#000000;  fill:none;  stroke-width:1.0;' d="M360.94 95.99 L361.08 95.46 L361.56 95.20 L362.54 94.58 L363.69 94.22 L364.57 93.96 L365.11 93.96 L365.37 94.31 L365.11 94.84 L364.49 95.37 L363.60 95.73 L362.89 95.91 L362.36 95.99 L362.09 95.82 L362.09 95.46 L362.45 95.11 L362.98 94.84 L363.69 94.67 " stroke-linecap='round' stroke-linejoin='round' brush-type='0' stroke-wetness='0.0'></path><path  style = ' stroke:#000000;  fill:none;  stroke-width:1.0;' d="M370.51 98.65 L370.64 97.99 L370.69 97.32 L370.78 95.64 L370.86 93.34 L371.13 90.41 L371.49 87.31 L371.84 84.48 L372.11 82.35 L372.37 81.11 L372.64 80.67 L373.26 80.84 L374.23 82.35 L375.47 85.36 L376.45 89.62 L377.16 93.69 L377.69 96.70 L378.13 98.39 L378.48 99.01 L378.93 98.30 L379.55 95.91 L380.43 91.83 L381.41 87.05 L382.38 82.79 L383.00 79.78 L383.36 78.01 L383.53 77.21 L383.80 77.66 " stroke-linecap='round' stroke-linejoin='round' brush-type='0' stroke-wetness='0.0'></path><path  style = ' stroke:#000000;  fill:none;  stroke-width:1.0;' d="M385.93 83.77 L385.93 82.84 L385.93 82.00 L385.93 80.49 L385.93 79.25 L386.10 78.28 L386.55 77.48 L387.34 77.04 L388.32 76.95 L389.20 77.48 L389.82 78.72 L390.18 80.40 L390.36 82.35 L390.27 84.12 " stroke-linecap='round' stroke-linejoin='round' brush-type='0' stroke-wetness='0.0'></path><path  style = ' stroke:#000000;  fill:none;  stroke-width:1.0;' d="M393.37 88.82 L393.63 88.95 L394.17 89.00 L395.32 89.08 L397.00 89.08 L399.30 89.00 L401.96 88.91 L404.89 88.82 L407.54 88.82 L409.85 88.82 L411.53 88.82 L412.59 88.82 L413.21 88.82 L413.48 88.64 L413.21 88.20 L412.59 87.40 L411.44 86.34 L410.29 85.36 L409.23 84.65 L408.61 84.39 L408.25 84.21 " stroke-linecap='round' stroke-linejoin='round' brush-type='0' stroke-wetness='0.0'></path><path  style = ' stroke:#000000;  fill:none;  stroke-width:1.0;' d="M415.16 88.02 L415.03 88.55 L414.81 89.17 L414.28 90.59 L413.48 92.19 L412.59 93.78 L411.97 95.11 L411.62 96.08 " stroke-linecap='round' stroke-linejoin='round' brush-type='0' stroke-wetness='0.0'></path><path  style = ' stroke:#000000;  fill:none;  stroke-width:1.0;' d="M421.01 97.32 L421.14 97.06 L421.19 96.53 L421.28 95.29 L421.45 93.16 L421.90 90.06 L422.61 86.60 L423.49 83.33 L424.29 81.02 L425.00 79.52 L425.53 78.81 L426.06 78.63 L426.68 79.52 L427.48 81.82 L428.10 85.10 L428.54 88.73 L428.63 91.74 L428.72 94.05 L428.72 95.29 L428.72 95.91 L428.72 95.02 L428.81 92.89 L429.07 89.26 L429.60 85.98 L430.31 83.24 L431.11 81.64 L431.82 80.58 L432.35 80.05 L432.79 79.87 L433.15 80.58 L433.41 82.17 L433.06 84.57 L432.09 87.14 L430.76 89.26 L429.69 90.86 L429.07 91.83 L428.72 92.54 L428.63 93.07 L429.34 93.43 L430.93 93.60 L433.68 93.60 L436.51 93.60 " stroke-linecap='round' stroke-linejoin='round' brush-type='0' stroke-wetness='0.0'></path><path  style = ' stroke:#000000;  fill:none;  stroke-width:1.0;' d="M452.37 89.08 L452.37 89.48 L452.37 90.15 L452.55 91.57 L452.91 93.25 L453.44 94.75 L453.97 95.64 L454.68 96.08 L455.65 96.08 L456.98 95.29 L458.22 93.96 L459.11 92.63 L459.55 92.10 L459.73 92.19 L459.73 92.81 L459.64 93.78 L459.55 94.93 L459.64 95.64 L460.35 95.99 L461.85 95.46 L463.89 94.22 L465.75 92.36 " stroke-linecap='round' stroke-linejoin='round' brush-type='0' stroke-wetness='0.0'></path><path  style = ' stroke:#000000;  fill:none;  stroke-width:1.0;' d="M467.26 93.60 L467.79 93.87 L468.32 94.05 L469.65 94.31 L471.24 94.31 L472.75 93.96 L473.81 93.34 L474.26 92.54 L474.17 91.65 L473.46 90.94 L472.13 90.50 L470.62 90.68 L469.30 91.65 L468.59 93.16 L468.32 95.02 L468.85 96.53 L470.36 97.68 L472.04 98.30 " stroke-linecap='round' stroke-linejoin='round' brush-type='0' stroke-wetness='0.0'></path><path  style = ' stroke:#000000;  fill:none;  stroke-width:1.0;' d="M486.93 81.91 L486.79 82.84 L486.75 84.30 L486.57 87.14 L486.39 90.32 L486.22 92.89 L486.13 94.67 L486.13 95.64 L486.57 95.20 L487.55 93.78 L488.88 91.83 L489.94 90.68 L490.74 90.24 L491.36 90.24 L491.80 90.94 L491.98 92.36 L491.98 94.22 L491.98 95.55 " stroke-linecap='round' stroke-linejoin='round' brush-type='0' stroke-wetness='0.0'></path><path  style = ' stroke:#000000;  fill:none;  stroke-width:1.0;' d="M498.36 89.88 L497.69 89.88 L497.29 90.06 L496.32 90.59 L495.61 91.74 L494.99 93.07 L494.72 94.22 L494.72 94.93 L495.17 95.29 L495.87 94.84 L496.67 93.51 L497.20 91.65 L497.56 90.32 L497.82 89.53 L497.91 89.79 L497.65 90.77 L497.29 92.63 L496.94 94.58 " stroke-linecap='round' stroke-linejoin='round' brush-type='0' stroke-wetness='0.0'></path><path  style = ' stroke:#000000;  fill:none;  stroke-width:1.0;' d="M499.42 92.54 L500.22 93.34 L500.84 93.60 L501.99 93.78 L502.79 93.16 L503.58 92.10 L504.29 91.21 L505.18 90.41 " stroke-linecap='round' stroke-linejoin='round' brush-type='0' stroke-wetness='0.0'></path><path  style = ' stroke:#000000;  fill:none;  stroke-width:1.0;' d="M505.53 93.60 L505.80 94.00 L506.33 94.05 L507.30 93.96 L508.54 93.16 L509.43 92.01 L509.96 90.77 L510.05 89.70 L509.34 89.08 L507.66 89.53 L505.44 91.03 L503.58 93.16 L502.70 95.29 L502.43 96.79 L503.58 97.86 L505.71 98.21 L507.92 98.30 " stroke-linecap='round' stroke-linejoin='round' brush-type='0' stroke-wetness='0.0'></path><path  style = ' stroke:#000000;  fill:none;  stroke-width:1.0;' d="M524.93 110.35 L524.93 109.02 L524.93 107.78 L524.93 105.03 L524.93 101.75 L524.93 97.59 L524.93 93.43 L525.20 89.70 L525.82 87.31 L526.79 85.81 L527.95 85.36 L529.19 85.89 L530.25 87.58 L530.96 90.32 L531.22 93.07 L531.05 95.46 L530.43 97.15 L529.19 98.56 L527.77 99.36 L526.53 99.54 " stroke-linecap='round' stroke-linejoin='round' brush-type='0' stroke-wetness='0.0'></path><path  style = ' stroke:#000000;  fill:none;  stroke-width:1.0;' d="M534.50 92.27 L534.64 93.07 L534.68 93.69 L534.95 94.93 L535.39 95.82 L536.36 96.44 L537.78 96.62 L539.46 95.91 L540.79 94.49 L541.50 92.36 L541.68 90.50 L541.68 89.08 L541.68 88.38 L541.68 88.82 L541.68 90.24 L541.77 92.45 L541.94 94.40 L542.56 95.82 " stroke-linecap='round' stroke-linejoin='round' brush-type='0' stroke-wetness='0.0'></path><path  style = ' stroke:#000000;  fill:none;  stroke-width:1.0;' d="M546.46 80.31 L546.60 81.64 L546.64 83.15 L546.73 86.43 L546.64 90.15 L546.46 93.51 L546.29 95.91 L546.46 97.15 " stroke-linecap='round' stroke-linejoin='round' brush-type='0' stroke-wetness='0.0'></path><path  style = ' stroke:#000000;  fill:none;  stroke-width:1.0;' d="M551.51 82.71 L551.38 83.77 L551.34 85.10 L551.25 88.11 L551.25 91.65 L551.34 95.46 L551.60 98.92 " stroke-linecap='round' stroke-linejoin='round' brush-type='0' stroke-wetness='0.0'></path><path  style = ' stroke:#000000;  fill:none;  stroke-width:1.0;' d="M564.27 90.41 L563.21 90.55 L562.50 91.21 L561.26 92.63 L560.73 94.49 L560.55 96.08 L560.73 96.97 L561.35 97.32 L562.23 96.70 L563.12 95.37 L563.74 93.43 L564.09 91.92 L564.36 90.94 L564.45 91.65 L564.54 93.25 L564.45 95.73 " stroke-linecap='round' stroke-linejoin='round' brush-type='0' stroke-wetness='0.0'></path><path  style = ' stroke:#000000;  fill:none;  stroke-width:1.0;' d="M572.51 90.68 a0.50 0.50 0 1 0 0.01 0 " stroke-linecap='round' stroke-linejoin='round' brush-type='0' stroke-wetness='0.0'></path><path  style = ' stroke:#000000;  fill:none;  stroke-width:1.0;' d="M577.29 82.44 a0.50 0.50 0 1 0 0.01 0 " stroke-linecap='round' stroke-linejoin='round' brush-type='0' stroke-wetness='0.0'></path><path  style = ' stroke:#000000;  fill:none;  stroke-width:1.0;' d="M570.65 93.07 L569.85 92.27 L568.88 92.27 L567.28 92.54 L565.87 93.96 L565.16 95.55 L564.80 97.15 L564.98 98.48 L565.78 99.45 L567.46 99.89 L569.41 99.54 L571.62 98.30 " stroke-linecap='round' stroke-linejoin='round' brush-type='0' stroke-wetness='0.0'></path><path  style = ' stroke:#000000;  fill:none;  stroke-width:1.0;' d="M578.09 81.91 L578.09 82.31 L578.09 83.06 L578.09 85.10 L578.00 88.11 L577.83 91.65 L577.65 94.75 L577.56 97.32 L577.47 99.18 " stroke-linecap='round' stroke-linejoin='round' brush-type='0' stroke-wetness='0.0'></path><path  style = ' stroke:#000000;  fill:none;  stroke-width:1.0;' d="M582.08 90.94 L581.15 91.21 L580.40 91.48 L578.89 92.19 L577.74 93.07 L576.85 94.13 L576.41 95.29 L576.32 96.35 L576.67 97.24 L577.47 97.86 L578.80 98.30 L580.31 98.56 " stroke-linecap='round' stroke-linejoin='round' brush-type='0' stroke-wetness='0.0'></path><path  style = ' stroke:#000000;  fill:none;  stroke-width:1.0;' d="M555.23 97.32 L555.23 93.60 L555.41 90.59 L555.77 88.38 L556.30 87.40 L557.01 86.96 L557.71 87.58 L558.34 89.00 L558.60 91.21 L558.42 93.43 L557.71 95.37 L556.56 96.97 L555.23 98.03 L554.26 98.56 " stroke-linecap='round' stroke-linejoin='round' brush-type='0' stroke-wetness='0.0'></path><path  style = ' stroke:#000000;  fill:none;  stroke-width:1.0;' d="M555.06 95.64 L555.15 92.19 L555.23 88.29 L555.32 84.65 L555.50 81.73 L555.77 79.60 L556.03 78.01 L556.21 76.77 L556.39 75.97 L556.47 75.44 L557.01 75.17 " stroke-linecap='round' stroke-linejoin='round' brush-type='0' stroke-wetness='0.0'></path><path  style = ' stroke:#000000;  fill:none;  stroke-width:1.0;' d="M521.48 104.77 L522.54 104.50 L523.87 104.41 L526.71 104.15 L530.52 104.06 L535.21 103.79 L540.70 103.53 L546.46 103.17 L552.22 102.99 L557.98 102.91 L563.56 102.91 L568.88 102.82 L573.49 102.73 L577.56 102.55 L580.75 102.29 L583.23 102.02 L584.91 101.75 L586.24 101.67 L587.13 101.49 L587.66 101.40 L587.93 101.22 " stroke-linecap='round' stroke-linejoin='round' brush-type='0' stroke-wetness='0.0'></path><path  style = ' stroke:#000000;  fill:none;  stroke-width:1.0;' d="M600.68 92.54 L599.62 92.01 L599.09 91.83 L597.76 91.74 L596.96 92.36 L596.25 93.51 L595.99 95.02 L596.08 96.62 L596.61 97.86 L597.67 98.48 L599.36 98.56 L601.13 98.12 L602.46 97.41 L603.08 96.35 L603.16 95.11 L602.72 93.87 L601.84 92.89 L600.60 92.45 L599.53 92.27 L598.56 92.36 " stroke-linecap='round' stroke-linejoin='round' brush-type='0' stroke-wetness='0.0'></path><path  style = ' stroke:#000000;  fill:none;  stroke-width:1.0;' d="M615.83 83.24 L615.17 82.57 L614.42 82.00 L613.09 81.11 L611.76 80.67 L610.70 80.58 L609.63 80.84 L608.84 81.82 L608.21 83.95 L607.95 86.69 L607.86 89.35 L607.86 91.39 L607.86 92.98 L607.86 94.31 L607.86 95.29 L607.68 95.91 " stroke-linecap='round' stroke-linejoin='round' brush-type='0' stroke-wetness='0.0'></path><path  style = ' stroke:#000000;  fill:none;  stroke-width:1.0;' d="M605.20 89.35 L606.00 88.82 L606.89 88.64 L608.84 88.29 L611.05 88.29 L612.73 88.38 " stroke-linecap='round' stroke-linejoin='round' brush-type='0' stroke-wetness='0.0'></path><path  style = ' stroke:#000000;  fill:none;  stroke-width:1.0;' d="M628.33 82.71 L628.19 83.37 L628.24 84.12 L628.41 85.63 L628.95 87.14 L629.74 88.46 L630.63 89.53 L631.60 90.24 L632.58 90.68 L633.82 90.77 L635.15 90.32 L636.48 89.35 L637.54 87.76 L638.25 86.07 L638.60 84.21 L638.51 82.71 L637.98 81.47 L636.92 80.84 L635.59 80.58 L634.17 80.84 L633.11 81.73 L632.22 83.68 L631.69 86.07 L631.34 88.55 L631.25 90.77 L631.25 92.72 L631.25 94.49 L631.25 95.73 L631.16 97.15 " stroke-linecap='round' stroke-linejoin='round' brush-type='0' stroke-wetness='0.0'></path><path  style = ' stroke:#000000;  fill:none;  stroke-width:1.0;' d="M648.53 95.20 L648.53 94.27 L648.70 93.60 L649.32 92.19 L650.48 91.21 L652.07 90.59 L653.58 90.68 L654.82 91.74 L655.44 93.69 L655.44 95.99 L654.73 97.86 L653.58 98.92 L652.34 99.36 L651.18 99.18 L650.30 97.86 L649.77 95.20 L649.59 90.94 L649.59 86.69 L649.59 83.24 L649.68 81.47 L649.86 80.76 L650.12 81.02 L650.30 82.88 L650.39 86.69 L650.39 91.65 L650.39 96.26 L650.74 99.80 " stroke-linecap='round' stroke-linejoin='round' brush-type='0' stroke-wetness='0.0'></path><path  style = ' stroke:#000000;  fill:none;  stroke-width:1.0;' d="M663.94 91.21 L663.94 91.74 L663.94 92.81 L663.76 95.02 L663.06 98.39 L661.90 102.11 L660.58 105.56 " stroke-linecap='round' stroke-linejoin='round' brush-type='0' stroke-wetness='0.0'></path><path  style = ' stroke:#000000;  fill:none;  stroke-width:1.0;' d="M661.28 96.79 L660.75 94.40 L660.49 92.98 L659.96 90.59 L659.60 89.79 " stroke-linecap='round' stroke-linejoin='round' brush-type='0' stroke-wetness='0.0'></path><path  style = ' stroke:#000000;  fill:none;  stroke-width:1.0;' d="M691.58 80.05 L691.19 79.65 L690.34 79.25 L688.57 78.72 L686.53 78.36 L684.76 78.28 L683.61 78.19 L682.64 78.19 L682.02 78.28 L681.57 78.72 L681.48 79.87 L681.66 82.00 L681.93 84.92 L682.28 88.02 L682.46 90.94 L682.55 93.16 L682.55 94.84 L682.28 95.99 L681.84 96.79 " stroke-linecap='round' stroke-linejoin='round' brush-type='0' stroke-wetness='0.0'></path><path  style = ' stroke:#000000;  fill:none;  stroke-width:1.0;' d="M678.29 88.55 L678.83 88.29 L679.71 88.11 L681.40 87.76 L683.34 87.40 L685.65 87.14 L687.51 86.78 " stroke-linecap='round' stroke-linejoin='round' brush-type='0' stroke-wetness='0.0'></path><path  style = ' stroke:#000000;  fill:none;  stroke-width:1.0;' d="M120.40 111.94 L120.14 111.14 L119.61 110.88 L118.28 110.26 L116.68 110.08 L114.91 109.90 L113.49 109.82 L112.25 109.82 L111.37 109.90 L110.83 110.61 L110.66 112.21 L110.92 114.78 L111.37 117.97 L111.81 121.51 L112.07 124.70 L112.16 127.09 L112.16 128.60 L111.90 129.48 L111.01 129.93 " stroke-linecap='round' stroke-linejoin='round' brush-type='0' stroke-wetness='0.0'></path><path  style = ' stroke:#000000;  fill:none;  stroke-width:1.0;' d="M106.05 121.78 L106.98 121.38 L108.18 121.24 L110.66 120.98 L113.31 120.89 L115.26 120.62 " stroke-linecap='round' stroke-linejoin='round' brush-type='0' stroke-wetness='0.0'></path><path  style = ' stroke:#000000;  fill:none;  stroke-width:1.0;' d="M128.11 107.96 L127.98 109.02 L127.93 110.08 L127.84 112.30 L127.84 114.33 L127.84 115.93 L127.76 117.17 " stroke-linecap='round' stroke-linejoin='round' brush-type='0' stroke-wetness='0.0'></path><path  style = ' stroke:#000000;  fill:none;  stroke-width:1.0;' d="M124.12 113.27 L125.32 112.87 L126.25 112.74 L128.20 112.47 L129.97 112.30 " stroke-linecap='round' stroke-linejoin='round' brush-type='0' stroke-wetness='0.0'></path><path  style = ' stroke:#000000;  fill:none;  stroke-width:1.0;' d="M130.77 110.35 L130.10 110.48 L129.53 110.97 L128.55 112.03 L127.67 113.71 L126.78 115.57 L125.90 117.17 L125.01 118.14 " stroke-linecap='round' stroke-linejoin='round' brush-type='0' stroke-wetness='0.0'></path><path  style = ' stroke:#000000;  fill:none;  stroke-width:1.0;' d="M123.33 114.07 L123.46 113.54 L123.59 113.18 L124.04 112.56 L124.92 112.30 L126.16 112.30 L127.76 112.56 L129.62 113.27 L131.65 114.25 " stroke-linecap='round' stroke-linejoin='round' brush-type='0' stroke-wetness='0.0'></path><path  style = ' stroke:#000000;  fill:none;  stroke-width:1.0;' d="M143.53 111.14 L142.99 111.41 L142.82 112.03 L142.46 113.54 L142.46 115.57 L142.46 117.79 L142.64 119.92 L143.26 121.69 L144.41 122.84 L145.92 123.28 L147.87 123.11 L149.99 122.40 L152.21 121.16 L153.89 119.65 L155.22 117.88 L156.02 116.02 L156.46 114.25 L156.55 112.74 L156.37 111.59 L155.66 110.88 L154.25 110.61 L152.39 110.70 L150.61 111.23 L149.29 112.56 L148.31 114.78 L147.78 117.70 L147.42 120.80 L147.34 123.81 L147.25 126.29 L147.34 128.16 L147.42 129.48 L147.60 130.37 L148.04 130.99 " stroke-linecap='round' stroke-linejoin='round' brush-type='0' stroke-wetness='0.0'></path><path  style = ' stroke:#000000;  fill:none;  stroke-width:1.0;' d="M169.57 115.93 L169.97 115.13 L170.28 114.87 L170.81 114.42 L171.17 114.87 L171.35 115.40 L171.43 116.02 L171.17 116.37 L170.81 116.73 L170.37 116.90 L170.11 116.73 L169.93 116.28 L169.93 115.49 L170.19 114.87 L170.81 114.42 L171.43 114.33 L171.97 114.42 L172.14 114.78 L172.14 115.40 L171.70 116.37 " stroke-linecap='round' stroke-linejoin='round' brush-type='0' stroke-wetness='0.0'></path><path  style = ' stroke:#000000;  fill:none;  stroke-width:1.0;' d="M169.84 124.70 L170.11 124.17 L170.37 123.90 L171.08 123.37 L172.05 123.19 L173.03 123.11 L173.74 123.11 L174.09 123.11 L174.00 123.19 L173.47 123.28 L172.67 123.37 L171.97 123.37 L171.43 123.28 L171.08 123.02 L170.90 122.57 L170.99 122.04 L171.43 121.69 L172.05 121.51 L172.76 121.69 L173.12 122.04 L173.29 122.66 L172.85 123.19 L172.23 123.64 L171.43 123.90 L170.90 123.99 " stroke-linecap='round' stroke-linejoin='round' brush-type='0' stroke-wetness='0.0'></path><path  style = ' stroke:#000000;  fill:none;  stroke-width:1.0;' d="M177.81 116.19 L177.95 115.93 L178.52 115.84 L179.76 115.66 L181.80 115.57 L184.19 115.31 L186.58 114.95 L188.98 114.60 L191.01 114.33 L192.87 114.16 L194.20 114.07 L195.18 113.98 L195.80 113.89 L195.44 114.07 " stroke-linecap='round' stroke-linejoin='round' brush-type='0' stroke-wetness='0.0'></path><path  style = ' stroke:#000000;  fill:none;  stroke-width:1.0;' d="M181.80 121.24 L182.60 121.38 L183.39 121.42 L185.70 121.51 L188.18 121.51 L190.57 121.51 L192.08 121.51 L193.14 121.51 L193.85 121.51 L194.38 121.60 " stroke-linecap='round' stroke-linejoin='round' brush-type='0' stroke-wetness='0.0'></path><path  style = ' stroke:#000000;  fill:none;  stroke-width:1.0;' d="M209.18 109.55 L209.57 110.21 L209.80 110.79 L210.59 112.39 L211.39 114.07 L212.45 115.75 L213.34 116.82 L214.31 117.52 L215.29 117.97 L216.71 118.14 L218.30 117.70 L219.99 116.73 L221.23 115.49 L222.11 114.07 L222.64 112.56 L222.91 110.79 L223.00 109.20 L222.73 107.78 L222.20 106.80 L221.31 106.18 L220.16 105.92 L218.83 106.09 L217.50 106.80 L216.71 108.40 L216.35 110.61 L216.26 113.63 L216.18 116.73 L216.09 119.74 L216.09 122.04 L216.09 123.81 L216.09 125.14 L216.09 126.21 L216.26 127.09 " stroke-linecap='round' stroke-linejoin='round' brush-type='0' stroke-wetness='0.0'></path><path  style = ' stroke:#000000;  fill:none;  stroke-width:1.0;' d="M230.44 117.26 L229.91 117.39 L229.46 117.70 L228.76 118.50 L228.40 119.65 L228.31 120.89 L228.40 121.78 L228.84 122.31 L230.00 122.49 L231.41 122.31 L232.83 121.69 L233.63 120.71 L234.07 119.65 L234.07 118.59 L233.72 117.79 L233.10 117.35 L232.39 117.26 L231.95 117.44 L232.03 117.79 " stroke-linecap='round' stroke-linejoin='round' brush-type='0' stroke-wetness='0.0'></path><path  style = ' stroke:#000000;  fill:none;  stroke-width:1.0;' d="M249.58 111.41 L249.18 110.75 L248.51 110.26 L247.18 109.46 L245.77 109.11 L244.53 109.02 L243.37 109.11 L242.13 109.46 L241.07 110.26 L240.36 111.77 L240.10 114.07 L240.10 116.73 L240.36 119.47 L240.63 121.69 L240.89 123.55 L240.98 124.88 L241.07 125.85 L240.98 126.47 L240.63 126.83 L239.74 127.00 " stroke-linecap='round' stroke-linejoin='round' brush-type='0' stroke-wetness='0.0'></path><path  style = ' stroke:#000000;  fill:none;  stroke-width:1.0;' d="M236.29 120.18 L237.08 119.65 L237.88 119.47 L239.56 119.12 L241.51 119.12 L244.08 119.12 L246.74 119.30 " stroke-linecap='round' stroke-linejoin='round' brush-type='0' stroke-wetness='0.0'></path><path  style = ' stroke:#000000;  fill:none;  stroke-width:1.0;' d="M251.17 129.48 L251.44 128.82 L251.70 128.51 L252.15 127.98 L252.06 128.16 L251.70 128.51 L251.26 128.95 L251.44 128.78 L252.06 128.33 L252.94 127.71 L253.65 127.45 L254.09 127.36 L254.36 127.45 " stroke-linecap='round' stroke-linejoin='round' brush-type='0' stroke-wetness='0.0'></path><path  style = ' stroke:#000000;  fill:none;  stroke-width:1.0;' d="M94.62 149.68 L94.89 149.68 L95.42 149.68 L97.01 149.68 L99.49 149.68 L102.24 149.42 L105.08 149.15 L107.73 148.80 L110.66 148.62 " stroke-linecap='round' stroke-linejoin='round' brush-type='0' stroke-wetness='0.0'></path><path  style = ' stroke:#000000;  fill:none;  stroke-width:1.0;' d="M127.58 142.24 L127.18 142.51 L126.43 143.13 L124.74 144.63 L122.79 146.76 L121.02 149.42 L119.87 152.25 L119.25 155.00 L119.16 157.13 L119.78 158.72 L121.38 159.61 L123.68 159.96 L126.25 159.25 L128.20 158.19 L129.44 156.86 L129.88 155.80 L129.53 154.73 L128.73 153.94 L127.22 153.49 L125.81 153.49 L124.66 153.67 L124.04 154.03 " stroke-linecap='round' stroke-linejoin='round' brush-type='0' stroke-wetness='0.0'></path><path  style = ' stroke:#000000;  fill:none;  stroke-width:1.0;' d="M136.35 149.68 L136.35 150.48 L136.35 151.46 L136.35 153.23 L136.35 154.91 L136.53 156.15 L137.06 156.95 L138.12 157.04 " stroke-linecap='round' stroke-linejoin='round' brush-type='0' stroke-wetness='0.0'></path><path  style = ' stroke:#000000;  fill:none;  stroke-width:1.0;' d="M141.67 151.54 L141.93 151.41 L142.02 151.90 L142.20 152.61 L142.37 153.67 L142.73 154.29 L143.70 154.56 L145.03 153.94 L146.72 152.52 L148.22 150.75 L149.55 149.33 L150.61 148.53 L151.50 148.09 " stroke-linecap='round' stroke-linejoin='round' brush-type='0' stroke-wetness='0.0'></path><path  style = ' stroke:#000000;  fill:none;  stroke-width:1.0;' d="M151.77 152.87 L152.96 153.27 L153.89 153.41 L156.02 153.41 L157.79 152.87 L159.47 151.99 L160.36 151.01 L160.89 149.95 L160.98 148.89 L160.54 148.00 L159.30 147.47 L156.28 149.06 L153.71 151.99 L152.47 155.35 " stroke-linecap='round' stroke-linejoin='round' brush-type='0' stroke-wetness='0.0'></path><path  style = ' stroke:#000000;  fill:none;  stroke-width:1.0;' d="M166.12 151.01 L165.19 151.28 L164.61 151.63 L163.64 152.34 L163.28 153.14 L163.28 154.03 L163.81 155.00 L164.79 156.06 L165.94 156.95 L166.83 157.75 L167.27 158.28 L167.45 158.90 L166.92 159.43 L165.59 159.96 L163.81 160.32 L162.13 160.49 L160.89 160.58 L160.01 160.58 L160.01 160.40 " stroke-linecap='round' stroke-linejoin='round' brush-type='0' stroke-wetness='0.0'></path><path  style = ' stroke:#000000;  fill:none;  stroke-width:1.0;' d="M192.70 137.72 L192.70 138.92 L192.70 140.38 L192.79 143.84 L192.87 148.09 L192.87 152.34 L192.70 155.71 L192.52 157.84 L192.43 159.08 L192.52 158.90 L192.87 157.39 L193.76 154.82 L194.91 152.61 L196.06 151.10 L196.86 150.48 L197.48 150.30 L197.92 151.01 L198.19 152.34 L198.28 154.20 L198.28 155.80 L198.46 157.30 " stroke-linecap='round' stroke-linejoin='round' brush-type='0' stroke-wetness='0.0'></path><path  style = ' stroke:#000000;  fill:none;  stroke-width:1.0;' d="M204.66 151.01 L203.99 151.41 L203.42 151.99 L202.35 153.32 L201.73 154.91 L201.47 156.77 L201.56 158.37 L202.09 159.52 L203.33 159.78 L204.92 159.25 L206.25 158.19 L206.96 156.68 L207.05 154.82 L206.70 153.23 L205.90 152.17 L205.19 151.90 L204.48 151.81 L204.21 152.43 " stroke-linecap='round' stroke-linejoin='round' brush-type='0' stroke-wetness='0.0'></path><path  style = ' stroke:#000000;  fill:none;  stroke-width:1.0;' d="M212.63 158.99 L212.37 158.19 L212.28 157.48 L212.10 155.89 L212.19 154.29 L212.45 152.87 L212.99 151.99 L213.78 151.63 L214.67 151.63 L215.38 152.34 L215.82 153.49 L216.09 154.91 L216.26 155.80 L216.35 156.33 L216.44 155.80 L216.88 154.56 L217.68 152.96 L218.66 151.99 L219.54 151.63 L220.52 151.81 L221.23 152.43 L221.76 153.41 L222.11 154.65 L222.82 155.89 " stroke-linecap='round' stroke-linejoin='round' brush-type='0' stroke-wetness='0.0'></path><path  style = ' stroke:#000000;  fill:none;  stroke-width:1.0;' d="M229.11 149.68 L228.58 149.68 L227.96 149.86 L226.81 150.48 L225.83 151.72 L225.21 153.58 L224.95 155.62 L225.04 157.57 L225.83 158.90 L227.43 159.61 L229.20 159.34 L230.53 158.37 L231.15 156.77 L231.41 154.82 L231.06 152.96 L230.35 151.63 L229.46 151.28 L229.02 152.25 L229.11 154.11 " stroke-linecap='round' stroke-linejoin='round' brush-type='0' stroke-wetness='0.0'></path><path  style = ' stroke:#000000;  fill:none;  stroke-width:1.0;' d="M234.69 157.39 L234.43 156.46 L234.34 155.44 L234.16 153.41 L234.25 151.54 L234.78 149.95 L235.76 148.98 L237.00 148.36 L238.59 148.27 L240.36 148.71 " stroke-linecap='round' stroke-linejoin='round' brush-type='0' stroke-wetness='0.0'></path><path  style = ' stroke:#000000;  fill:none;  stroke-width:1.0;' d="M240.54 167.76 L240.41 167.36 L240.27 166.69 L240.10 165.19 L240.01 162.80 L240.01 159.70 L240.36 156.24 L241.16 153.32 L242.31 151.28 L243.37 150.22 L244.26 149.77 L244.97 149.68 L245.50 150.22 L245.77 151.54 L245.59 153.41 L244.88 155.27 L243.82 156.59 L242.58 157.57 " stroke-linecap='round' stroke-linejoin='round' brush-type='0' stroke-wetness='0.0'></path><path  style = ' stroke:#000000;  fill:none;  stroke-width:1.0;' d="M247.45 143.31 L248.25 144.24 L248.51 145.25 L249.04 147.82 L249.04 150.75 L249.04 153.58 L249.04 155.53 L249.04 156.68 L249.13 156.77 L249.58 155.71 L250.29 154.03 L251.08 152.61 L251.61 151.99 L252.06 151.90 L252.32 152.52 L252.50 153.94 L252.50 155.71 L252.50 157.39 L252.41 158.46 " stroke-linecap='round' stroke-linejoin='round' brush-type='0' stroke-wetness='0.0'></path><path  style = ' stroke:#000000;  fill:none;  stroke-width:1.0;' d="M256.49 153.14 L256.75 154.34 L256.84 155.27 L257.11 156.95 L257.64 158.19 " stroke-linecap='round' stroke-linejoin='round' brush-type='0' stroke-wetness='0.0'></path><path  style = ' stroke:#000000;  fill:none;  stroke-width:1.0;' d="M262.87 151.01 L261.40 151.28 L260.74 151.46 L259.41 151.90 L259.06 152.43 L258.97 153.23 L259.68 154.20 L260.83 155.18 L262.07 155.89 L262.87 156.51 L263.22 157.04 L263.13 157.66 L262.33 158.19 L261.18 158.63 L259.94 158.90 L258.97 158.99 L259.14 158.81 " stroke-linecap='round' stroke-linejoin='round' brush-type='0' stroke-wetness='0.0'></path><path  style = ' stroke:#000000;  fill:none;  stroke-width:1.0;' d="M266.85 157.39 L266.85 156.99 L266.76 156.59 L266.59 155.53 L266.41 154.11 L266.50 152.61 L267.03 151.54 L268.00 151.01 L269.16 150.92 L270.13 151.37 L270.75 152.34 L271.11 153.67 L271.28 154.91 L271.37 155.80 L271.37 156.33 L271.46 155.62 L271.90 153.94 L272.79 151.72 L274.03 150.30 L275.36 149.77 L276.60 149.77 L277.48 150.57 L277.93 152.25 L277.48 154.65 L276.16 157.04 " stroke-linecap='round' stroke-linejoin='round' brush-type='0' stroke-wetness='0.0'></path><path  style = ' stroke:#000000;  fill:none;  stroke-width:1.0;' d="M296.09 152.87 L294.76 153.80 L293.87 154.56 L292.19 156.15 L291.31 157.75 L290.86 159.25 L290.77 160.58 L291.75 161.29 L293.52 161.38 L296.09 160.40 L298.39 158.72 L300.16 156.95 L301.14 155.44 L301.32 154.11 L300.70 152.87 L299.63 151.90 L298.22 151.46 L296.71 151.28 L295.47 151.72 L295.03 152.52 " stroke-linecap='round' stroke-linejoin='round' brush-type='0' stroke-wetness='0.0'></path><path  style = ' stroke:#000000;  fill:none;  stroke-width:1.0;' d="M316.02 139.58 L315.23 138.79 L314.52 138.52 L313.19 137.99 L312.21 137.99 L311.24 138.43 L310.44 139.41 L309.82 141.18 L309.64 143.75 L309.73 146.94 L309.91 150.39 L310.09 153.41 L310.18 155.71 L310.00 157.30 L309.20 158.46 " stroke-linecap='round' stroke-linejoin='round' brush-type='0' stroke-wetness='0.0'></path><path  style = ' stroke:#000000;  fill:none;  stroke-width:1.0;' d="M305.66 153.67 L305.92 153.01 L306.46 152.61 L307.87 151.72 L310.00 151.28 L313.01 150.92 L316.29 150.75 " stroke-linecap='round' stroke-linejoin='round' brush-type='0' stroke-wetness='0.0'></path><path  style = ' stroke:#000000;  fill:none;  stroke-width:1.0;' d="M330.11 158.99 L329.58 158.19 L329.40 157.48 L329.05 155.71 L329.14 153.58 L329.49 151.46 L330.11 149.77 L330.82 148.89 L331.53 148.44 L332.33 148.36 L333.39 148.80 L334.63 149.60 " stroke-linecap='round' stroke-linejoin='round' brush-type='0' stroke-wetness='0.0'></path><path  style = ' stroke:#000000;  fill:none;  stroke-width:1.0;' d="M338.08 152.08 L338.48 153.14 L338.62 154.11 L338.88 156.33 L338.97 158.54 L339.24 160.76 " stroke-linecap='round' stroke-linejoin='round' brush-type='0' stroke-wetness='0.0'></path><path  style = ' stroke:#000000;  fill:none;  stroke-width:1.0;' d="M343.67 157.66 L343.67 156.86 L343.67 156.15 L343.84 154.38 L344.29 152.70 L345.17 151.19 L346.24 150.39 L347.48 150.04 L348.72 150.57 L349.78 151.90 L350.58 154.03 L351.11 156.24 L352.08 158.10 " stroke-linecap='round' stroke-linejoin='round' brush-type='0' stroke-wetness='0.0'></path><path  style = ' stroke:#000000;  fill:none;  stroke-width:1.0;' d="M360.41 151.54 L360.14 151.28 L359.79 151.10 L358.82 150.84 L357.49 150.84 L355.98 151.37 L354.83 152.61 L354.12 154.29 L353.94 156.06 L354.30 157.30 L355.36 158.01 L356.60 158.01 L357.66 157.48 L358.28 156.33 L358.64 154.56 L358.82 152.70 L358.82 151.37 L358.82 152.17 L358.82 154.47 L358.82 157.92 L358.73 160.76 L358.20 163.42 L357.04 165.63 L355.36 167.40 L353.32 168.47 L351.11 168.91 L348.80 168.64 L347.21 168.02 " stroke-linecap='round' stroke-linejoin='round' brush-type='0' stroke-wetness='0.0'></path><path  style = ' stroke:#000000;  fill:none;  stroke-width:1.0;' d="M370.78 149.68 L369.98 149.68 L369.45 149.86 L368.30 150.30 L367.50 151.19 L366.88 152.25 L366.61 153.58 L366.61 154.82 L367.06 156.24 L367.85 157.75 L368.74 159.25 L369.27 160.49 L369.45 161.56 L369.27 162.53 L368.65 163.42 L367.50 163.86 L365.55 164.04 L363.69 163.77 L362.09 162.97 " stroke-linecap='round' stroke-linejoin='round' brush-type='0' stroke-wetness='0.0'></path><path  style = ' stroke:#000000;  fill:none;  stroke-width:1.0;' d="M402.94 140.38 L402.14 140.51 L401.34 140.82 L399.57 141.80 L397.62 143.84 L395.85 146.58 L394.61 149.86 L394.08 152.87 L394.25 155.53 L395.49 157.39 L397.89 158.37 L401.52 158.72 L405.06 158.28 L407.54 157.75 " stroke-linecap='round' stroke-linejoin='round' brush-type='0' stroke-wetness='0.0'></path><path  style = ' stroke:#000000;  fill:none;  stroke-width:1.0;' d="M411.97 141.98 L412.51 141.31 L413.04 140.74 L414.10 139.76 L415.25 139.05 L416.67 138.70 L417.91 138.70 L418.80 139.41 L419.06 140.74 L418.97 142.51 L418.35 144.10 L417.29 145.17 L416.14 145.70 L414.90 145.79 L413.66 145.17 L412.33 143.84 L411.09 141.71 L410.11 140.03 L409.32 138.96 L408.70 138.88 L407.99 139.50 L407.46 140.65 L407.19 142.15 L407.37 143.31 L408.08 144.10 L409.58 144.46 L411.53 144.28 L413.39 143.48 " stroke-linecap='round' stroke-linejoin='round' brush-type='0' stroke-wetness='0.0'></path><path  style = ' stroke:#000000;  fill:none;  stroke-width:1.0;' d="M430.31 136.93 L429.25 137.59 L427.92 138.61 L425.35 141.09 L422.69 144.46 L420.57 148.53 L419.24 152.34 L418.71 155.44 L419.06 157.57 L420.39 158.99 L422.96 159.78 L425.97 159.78 L428.28 159.34 " stroke-linecap='round' stroke-linejoin='round' brush-type='0' stroke-wetness='0.0'></path><path  style = ' stroke:#000000;  fill:none;  stroke-width:1.0;' d="M436.16 160.58 L436.56 159.65 L436.69 158.72 L436.96 156.77 L437.05 154.65 L437.40 152.25 L437.76 149.86 L438.20 147.74 L438.46 146.32 L438.82 145.43 L439.26 145.17 L439.97 145.79 L440.94 147.82 L442.01 150.92 L442.81 154.03 L443.34 156.15 L443.69 157.22 L444.05 157.66 L444.40 157.48 L444.93 156.15 L445.55 153.67 L446.35 150.57 L446.97 148.09 L447.59 146.49 L448.12 145.70 L448.92 145.25 " stroke-linecap='round' stroke-linejoin='round' brush-type='0' stroke-wetness='0.0'></path><path  style = ' stroke:#000000;  fill:none;  stroke-width:1.0;' d="M452.91 141.44 L453.30 141.71 L453.88 142.24 L455.03 143.66 L456.45 145.79 L457.78 148.36 L458.75 150.84 L459.20 153.05 L459.20 155.09 L458.84 156.86 L457.96 158.46 L456.63 159.61 L455.12 160.49 L453.97 161.02 L453.08 161.29 " stroke-linecap='round' stroke-linejoin='round' brush-type='0' stroke-wetness='0.0'></path><path  style = ' stroke:#000000;  fill:none;  stroke-width:1.0;' d="M468.06 151.01 L468.72 150.88 L469.30 150.84 L470.98 150.75 L473.02 150.75 L475.85 150.75 L478.95 150.75 L482.41 150.75 L485.95 150.75 L489.05 150.75 L491.62 150.75 L493.13 150.75 L494.19 150.75 L494.72 150.75 L494.99 150.57 L494.55 150.13 L493.66 149.33 L492.51 148.53 L491.44 147.82 L490.47 147.38 L489.76 147.03 L489.58 147.12 " stroke-linecap='round' stroke-linejoin='round' brush-type='0' stroke-wetness='0.0'></path><path  style = ' stroke:#000000;  fill:none;  stroke-width:1.0;' d="M495.43 149.68 L494.77 150.61 L494.10 151.46 L492.69 153.14 L491.27 154.65 L489.94 155.89 L489.05 156.86 L488.34 157.75 " stroke-linecap='round' stroke-linejoin='round' brush-type='0' stroke-wetness='0.0'></path><path  style = ' stroke:#000000;  fill:none;  stroke-width:1.0;' d="M515.10 141.71 L514.30 141.44 L513.59 141.62 L512.09 142.42 L510.49 144.28 L508.72 146.85 L507.21 149.68 L506.33 152.34 L506.15 154.56 L506.77 156.33 L508.19 157.66 L510.40 158.63 L513.24 159.08 L516.25 159.16 L519.35 158.46 L521.48 157.57 " stroke-linecap='round' stroke-linejoin='round' brush-type='0' stroke-wetness='0.0'></path><path  style = ' stroke:#000000;  fill:none;  stroke-width:1.0;' d="M529.45 142.24 L529.72 141.44 L529.90 141.18 L530.52 140.38 L531.40 139.94 L532.55 139.50 L533.88 139.41 L534.86 139.94 L535.48 141.18 L535.39 142.86 L534.77 144.55 L533.71 145.87 L532.20 146.76 L530.52 147.20 L528.92 146.94 L527.50 145.61 L526.62 143.57 L526.00 141.53 L525.73 140.20 L525.29 139.58 L524.76 139.58 L524.14 140.38 L523.78 141.53 L523.61 142.86 L523.69 143.84 L524.05 144.55 L524.67 144.81 L525.64 144.63 L526.62 144.01 L527.41 142.86 L527.86 141.71 L528.12 140.82 " stroke-linecap='round' stroke-linejoin='round' brush-type='0' stroke-wetness='0.0'></path><path  style = ' stroke:#000000;  fill:none;  stroke-width:1.0;' d="M545.93 139.32 L545.00 139.58 L544.25 139.94 L542.65 141.00 L540.88 143.13 L538.93 146.23 L537.16 149.68 L536.19 152.61 L535.92 154.73 L536.54 156.24 L537.96 157.22 L540.44 157.75 L542.56 157.92 " stroke-linecap='round' stroke-linejoin='round' brush-type='0' stroke-wetness='0.0'></path><path  style = ' stroke:#000000;  fill:none;  stroke-width:1.0;' d="M549.92 156.86 L549.65 156.20 L549.65 155.27 L549.92 153.05 L550.98 149.77 L552.31 146.41 L553.55 143.66 L554.44 142.33 L555.15 141.80 L555.59 141.80 L555.85 142.86 L556.03 144.81 L556.21 147.29 L556.30 149.15 L556.30 150.39 L556.30 151.10 L556.47 151.46 L556.74 150.92 L557.45 149.33 L558.34 146.85 L559.40 144.63 L560.11 143.31 L560.55 142.86 L560.90 142.95 L561.26 144.01 L561.61 145.96 L561.88 148.53 L562.06 150.92 L562.23 152.70 L562.68 153.94 " stroke-linecap='round' stroke-linejoin='round' brush-type='0' stroke-wetness='0.0'></path><path  style = ' stroke:#000000;  fill:none;  stroke-width:1.0;' d="M565.60 137.99 L566.26 138.92 L566.84 139.94 L567.99 141.98 L568.97 144.10 L569.76 146.32 L570.21 148.62 L569.94 151.01 L568.52 153.41 L566.22 155.53 L563.47 157.30 L560.73 158.46 L558.16 159.16 L555.94 159.43 " stroke-linecap='round' stroke-linejoin='round' brush-type='0' stroke-wetness='0.0'></path><path  style = ' stroke:#000000;  fill:none;  stroke-width:1.0;' d="M52.09 180.25 L51.56 180.91 L50.94 181.31 L49.70 182.11 L48.46 182.47 L47.40 182.64 L46.51 182.64 L45.98 182.20 L45.80 181.31 L46.51 180.07 L47.75 179.19 L49.26 178.74 L50.32 178.66 L50.94 178.74 L51.21 179.19 L50.85 179.98 L50.23 180.78 L49.26 181.22 L48.55 181.31 L48.02 180.96 L48.20 180.07 L48.99 178.92 L50.15 178.12 L51.21 177.77 L51.92 177.68 L52.27 177.86 L52.27 178.39 L51.92 179.01 L51.47 179.45 L50.94 179.54 " stroke-linecap='round' stroke-linejoin='round' brush-type='0' stroke-wetness='0.0'></path><path  style = ' stroke:#000000;  fill:none;  stroke-width:1.0;' d="M63.79 170.95 L64.32 170.95 L64.94 170.95 L66.18 170.95 L67.95 170.95 L70.17 170.95 L72.47 170.95 L74.51 170.95 L76.19 170.95 L77.79 170.95 L78.94 170.95 L79.74 170.95 " stroke-linecap='round' stroke-linejoin='round' brush-type='0' stroke-wetness='0.0'></path><path  style = ' stroke:#000000;  fill:none;  stroke-width:1.0;' d="M71.50 171.48 L71.23 171.88 L71.14 172.45 L70.88 173.78 L70.70 175.91 L70.35 178.57 L69.99 181.49 L69.64 184.33 L69.46 186.81 L69.37 188.67 L69.37 189.82 L69.46 190.62 " stroke-linecap='round' stroke-linejoin='round' brush-type='0' stroke-wetness='0.0'></path><path  style = ' stroke:#000000;  fill:none;  stroke-width:1.0;' d="M77.08 182.38 L77.74 183.04 L78.32 183.62 L79.47 184.86 L80.53 186.19 L81.51 187.60 L82.39 188.93 L83.10 190.00 L83.72 190.79 L84.17 191.32 L84.52 191.77 " stroke-linecap='round' stroke-linejoin='round' brush-type='0' stroke-wetness='0.0'></path><path  style = ' stroke:#000000;  fill:none;  stroke-width:1.0;' d="M83.19 185.03 L82.26 185.70 L81.60 186.36 L80.18 187.69 L79.03 188.84 L77.96 189.82 L77.17 190.53 L76.64 191.15 L76.46 191.77 " stroke-linecap='round' stroke-linejoin='round' brush-type='0' stroke-wetness='0.0'></path><path  style = ' stroke:#000000;  fill:none;  stroke-width:1.0;' d="M93.56 189.55 L93.56 189.29 L93.65 188.84 L94.00 187.78 L94.53 186.27 L95.24 184.33 L95.86 181.84 L96.66 179.10 L97.37 176.53 L98.16 174.58 L98.79 173.25 L99.41 172.54 L100.03 172.37 L100.56 173.25 L101.00 175.38 L101.27 178.57 L101.53 181.58 L101.80 183.62 L102.06 184.59 L102.42 184.95 L103.13 184.50 L104.10 183.00 L105.34 180.34 L106.58 177.15 L107.64 174.23 L108.44 172.01 L108.89 170.68 L109.24 170.33 L109.51 171.57 L109.68 174.23 L109.77 177.95 L109.77 181.31 L109.77 184.06 L109.77 185.92 L110.04 187.52 " stroke-linecap='round' stroke-linejoin='round' brush-type='0' stroke-wetness='0.0'></path><path  style = ' stroke:#000000;  fill:none;  stroke-width:1.0;' d="M121.20 182.11 L122.00 181.71 L122.88 181.58 L125.01 181.31 L127.49 181.31 L130.77 181.31 L134.22 181.31 L138.12 181.31 L142.02 181.31 L146.10 181.31 L150.17 181.31 L154.07 181.31 L157.70 181.31 L160.80 181.40 L163.28 181.49 L165.23 181.58 L166.65 181.58 L167.62 181.58 L168.16 181.49 L168.42 181.22 L168.24 180.52 L167.80 179.63 L167.09 178.66 L166.56 177.95 L165.94 177.15 L165.41 176.62 " stroke-linecap='round' stroke-linejoin='round' brush-type='0' stroke-wetness='0.0'></path><path  style = ' stroke:#000000;  fill:none;  stroke-width:1.0;' d="M167.18 181.05 L166.65 181.71 L166.12 182.38 L164.88 183.71 L163.11 185.39 L161.25 186.81 " stroke-linecap='round' stroke-linejoin='round' brush-type='0' stroke-wetness='0.0'></path><path  style = ' stroke:#000000;  fill:none;  stroke-width:1.0;' d="M135.55 165.90 L135.55 166.16 L135.55 166.78 L135.55 168.02 L135.55 169.88 L135.55 172.01 L135.55 174.05 L135.55 175.73 L135.55 176.88 " stroke-linecap='round' stroke-linejoin='round' brush-type='0' stroke-wetness='0.0'></path><path  style = ' stroke:#000000;  fill:none;  stroke-width:1.0;' d="M136.35 165.90 a0.50 0.50 0 1 0 0.01 0 " stroke-linecap='round' stroke-linejoin='round' brush-type='0' stroke-wetness='0.0'></path><path  style = ' stroke:#000000;  fill:none;  stroke-width:1.0;' d="M136.62 165.90 L138.21 165.76 L139.19 165.72 L141.13 165.90 L142.37 166.61 L143.44 167.76 L144.15 169.09 L144.59 170.59 L144.77 172.01 L144.68 173.43 L144.06 174.49 L142.91 175.38 L141.49 175.91 L140.16 176.26 L138.83 176.53 L137.59 176.79 L136.53 176.97 L135.64 177.15 " stroke-linecap='round' stroke-linejoin='round' brush-type='0' stroke-wetness='0.0'></path><path  style = ' stroke:#000000;  fill:none;  stroke-width:1.0;' d="M153.36 166.43 L153.09 166.30 L152.74 166.25 L152.12 166.16 L151.41 166.16 L150.88 166.16 L150.44 166.25 L150.26 166.43 L150.17 166.87 L150.17 167.58 L150.26 168.82 L150.35 170.15 L150.44 171.57 L150.44 172.63 L150.44 173.69 L150.44 174.49 L150.44 175.20 L150.44 175.64 L150.44 176.09 L150.44 176.44 L150.44 176.79 L150.08 176.79 " stroke-linecap='round' stroke-linejoin='round' brush-type='0' stroke-wetness='0.0'></path><path  style = ' stroke:#000000;  fill:none;  stroke-width:1.0;' d="M148.58 172.28 L148.98 172.28 L149.46 172.28 L150.35 172.28 L151.32 172.28 L152.30 172.28 L153.36 172.28 L154.34 172.28 L155.13 172.28 L155.75 172.37 " stroke-linecap='round' stroke-linejoin='round' brush-type='0' stroke-wetness='0.0'></path><path  style = ' stroke:#000000;  fill:none;  stroke-width:1.0;' d="M174.62 168.82 L175.02 168.42 L175.42 168.29 L176.48 168.02 L177.81 168.11 L179.50 168.20 L181.45 168.47 L183.57 168.73 L185.70 169.09 L187.56 169.26 L189.24 169.44 L190.75 169.53 L191.99 169.71 " stroke-linecap='round' stroke-linejoin='round' brush-type='0' stroke-wetness='0.0'></path><path  style = ' stroke:#000000;  fill:none;  stroke-width:1.0;' d="M184.19 169.35 L184.59 170.81 L184.72 172.01 L185.08 174.76 L185.17 177.33 L185.26 180.07 L185.26 182.29 L185.17 184.33 L185.08 185.83 L184.90 187.16 L184.55 188.31 " stroke-linecap='round' stroke-linejoin='round' brush-type='0' stroke-wetness='0.0'></path><path  style = ' stroke:#000000;  fill:none;  stroke-width:1.0;' d="M197.48 181.31 L195.89 181.31 L195.18 181.40 L193.67 181.76 L193.05 182.47 L192.61 183.71 L192.43 185.30 L192.43 187.07 L192.52 188.58 L192.61 189.73 L192.70 190.62 L192.70 191.24 L192.25 191.86 " stroke-linecap='round' stroke-linejoin='round' brush-type='0' stroke-wetness='0.0'></path><path  style = ' stroke:#000000;  fill:none;  stroke-width:1.0;' d="M190.04 188.49 L190.84 188.22 L191.63 188.14 L193.23 187.96 L195.00 187.87 " stroke-linecap='round' stroke-linejoin='round' brush-type='0' stroke-wetness='0.0'></path><path  style = ' stroke:#000000;  fill:none;  stroke-width:1.0;' d="M202.80 183.17 L202.53 183.44 L202.18 183.88 L201.47 184.95 L200.85 186.54 L200.49 188.31 L200.41 190.08 L200.49 191.41 L200.76 192.39 L201.47 192.83 L202.53 192.74 " stroke-linecap='round' stroke-linejoin='round' brush-type='0' stroke-wetness='0.0'></path><path  style = ' stroke:#000000;  fill:none;  stroke-width:1.0;' d="M204.39 187.16 L204.79 187.43 L205.28 187.60 L206.25 188.22 L207.32 188.84 L208.29 189.64 L209.09 190.17 L209.71 190.79 " stroke-linecap='round' stroke-linejoin='round' brush-type='0' stroke-wetness='0.0'></path><path  style = ' stroke:#000000;  fill:none;  stroke-width:1.0;' d="M208.38 185.03 L207.98 185.70 L207.58 186.36 L206.70 187.78 L205.81 189.29 L205.01 190.88 L204.48 192.30 " stroke-linecap='round' stroke-linejoin='round' brush-type='0' stroke-wetness='0.0'></path><path  style = ' stroke:#000000;  fill:none;  stroke-width:1.0;' d="M212.63 183.97 L213.43 184.90 L213.87 185.74 L214.58 187.43 L214.58 189.02 L213.87 190.62 L212.45 192.21 L210.86 193.54 L209.26 194.60 L208.11 195.13 L206.87 195.49 L205.63 195.75 " stroke-linecap='round' stroke-linejoin='round' brush-type='0' stroke-wetness='0.0'></path><path  style = ' stroke:#000000;  fill:none;  stroke-width:1.0;' d="M222.47 186.89 L222.47 186.10 L222.47 185.39 L222.55 183.88 L222.73 182.11 L223.00 180.25 L223.26 178.12 L223.53 176.26 L223.71 174.49 L223.88 173.16 L224.15 172.19 L224.59 171.57 L225.04 171.30 L225.66 171.57 L226.45 172.90 L227.60 175.55 L228.58 178.92 L229.55 182.29 L230.44 185.03 L231.33 187.07 L232.03 188.31 L232.57 188.84 L233.19 188.84 L233.72 187.96 L234.16 186.01 L234.60 183.09 L235.05 179.63 L235.49 176.44 L235.84 173.69 L236.20 171.66 L236.55 169.97 L236.73 168.73 L236.82 167.85 L236.91 167.14 " stroke-linecap='round' stroke-linejoin='round' brush-type='0' stroke-wetness='0.0'></path><path  style = ' stroke:#000000;  fill:none;  stroke-width:1.0;' d="M298.75 178.39 L298.08 178.39 L297.33 178.48 L295.65 179.01 L293.79 180.07 L292.01 181.84 L290.77 183.88 L290.15 186.01 L290.06 187.69 L290.60 188.84 L291.84 189.38 L293.61 189.02 L295.47 187.87 L296.80 186.10 L297.60 184.33 L297.95 182.73 L298.22 181.58 L298.39 180.87 L298.48 180.96 L298.48 182.02 L298.57 183.97 L298.92 186.10 L299.72 187.96 " stroke-linecap='round' stroke-linejoin='round' brush-type='0' stroke-wetness='0.0'></path><path  style = ' stroke:#000000;  fill:none;  stroke-width:1.0;' d="M303.00 185.57 L302.60 184.90 L302.47 184.41 L302.29 183.35 L302.56 182.29 L303.18 181.14 L303.97 180.25 L305.21 179.90 L306.19 180.25 L306.99 181.58 L307.25 183.53 L307.70 185.57 L308.58 186.98 " stroke-linecap='round' stroke-linejoin='round' brush-type='0' stroke-wetness='0.0'></path><path  style = ' stroke:#000000;  fill:none;  stroke-width:1.0;' d="M315.49 182.11 L314.96 182.11 L314.43 182.20 L313.37 182.47 L312.39 183.09 L311.59 184.15 L311.15 185.65 L310.97 187.25 L311.06 188.40 L311.42 189.02 L312.04 189.20 L312.83 188.76 L313.63 187.43 L314.25 185.21 L314.69 182.64 L314.87 179.54 L314.96 176.53 L314.96 173.61 L314.96 171.66 L314.96 170.33 L314.87 169.71 L314.78 169.97 L314.69 171.66 L314.69 175.02 L314.78 178.92 L314.96 182.47 L315.23 185.03 L315.58 186.81 L316.11 188.05 " stroke-linecap='round' stroke-linejoin='round' brush-type='0' stroke-wetness='0.0'></path><path  style = ' stroke:#000000;  fill:none;  stroke-width:1.0;' d="M369.45 170.68 L369.98 170.68 L370.51 170.68 L371.93 170.68 L373.97 170.68 L376.62 170.68 L379.72 170.77 L382.47 170.95 L384.86 171.12 L386.55 171.21 L387.96 171.21 L388.94 171.21 L389.47 171.12 " stroke-linecap='round' stroke-linejoin='round' brush-type='0' stroke-wetness='0.0'></path><path  style = ' stroke:#000000;  fill:none;  stroke-width:1.0;' d="M380.08 172.01 L379.95 172.94 L379.90 173.87 L379.72 176.00 L379.64 178.66 L379.46 181.49 L379.28 184.33 L379.10 186.54 L379.02 188.31 L379.02 189.38 L379.02 190.08 " stroke-linecap='round' stroke-linejoin='round' brush-type='0' stroke-wetness='0.0'></path><path  style = ' stroke:#000000;  fill:none;  stroke-width:1.0;' d="M385.39 183.17 L385.79 183.84 L386.37 184.59 L387.70 186.10 L389.20 187.69 L390.53 189.11 L391.51 190.26 L392.22 191.06 L392.84 191.59 L393.28 192.03 " stroke-linecap='round' stroke-linejoin='round' brush-type='0' stroke-wetness='0.0'></path><path  style = ' stroke:#000000;  fill:none;  stroke-width:1.0;' d="M390.98 185.03 L389.91 185.83 L389.03 186.36 L387.43 187.69 L386.01 189.11 L384.77 190.70 L383.62 192.03 L382.83 192.92 " stroke-linecap='round' stroke-linejoin='round' brush-type='0' stroke-wetness='0.0'></path><path  style = ' stroke:#000000;  fill:none;  stroke-width:1.0;' d="M400.81 166.43 L400.68 167.23 L400.63 168.02 L400.54 169.80 L400.54 171.57 L400.54 173.25 L400.54 174.67 L400.54 175.73 L400.54 176.44 L400.46 176.79 " stroke-linecap='round' stroke-linejoin='round' brush-type='0' stroke-wetness='0.0'></path><path  style = ' stroke:#000000;  fill:none;  stroke-width:1.0;' d="M397.36 171.74 L400.54 171.21 L401.70 171.04 L403.91 170.50 L404.00 170.15 L403.91 169.80 L403.56 169.62 L402.94 169.71 L402.14 170.33 L401.43 171.66 L400.81 173.43 L400.37 175.02 L400.01 176.09 L399.48 176.71 " stroke-linecap='round' stroke-linejoin='round' brush-type='0' stroke-wetness='0.0'></path><path  style = ' stroke:#000000;  fill:none;  stroke-width:1.0;' d="M397.62 172.28 L398.42 172.28 L399.30 172.45 L400.99 172.81 L402.85 173.52 L404.71 174.49 " stroke-linecap='round' stroke-linejoin='round' brush-type='0' stroke-wetness='0.0'></path><path  style = ' stroke:#000000;  fill:none;  stroke-width:1.0;' d="M407.19 188.76 L407.19 188.36 L407.28 187.78 L407.46 186.63 L407.81 185.12 L408.34 183.44 L409.05 181.40 L409.76 179.28 L410.56 177.15 L411.18 175.29 L411.71 173.87 L412.06 172.81 L412.42 172.19 L412.77 171.74 L413.13 171.74 L413.66 172.63 L414.28 174.85 L414.90 178.04 L415.34 181.14 L415.61 183.62 L415.78 185.21 L415.96 186.27 L416.14 186.81 L416.40 186.27 L416.67 184.68 L417.20 181.93 L417.73 178.92 L418.44 176.00 L418.97 173.61 L419.50 171.92 L419.86 170.86 L420.21 170.33 L420.48 170.15 L420.66 170.95 L420.83 172.81 L421.01 176.00 L421.28 179.19 L421.54 182.20 L421.81 184.41 L421.99 186.27 L422.07 187.52 L422.07 188.31 L422.07 188.76 L422.07 188.67 L421.99 188.22 " stroke-linecap='round' stroke-linejoin='round' brush-type='0' stroke-wetness='0.0'></path><path  style = ' stroke:#000000;  fill:none;  stroke-width:1.0;' d="M477.09 179.72 L476.83 179.72 L476.38 179.72 L475.41 179.72 L473.99 179.72 L472.40 179.72 L470.36 179.72 L467.79 179.72 L464.95 179.72 L461.76 179.72 L458.66 179.72 L455.21 179.72 L451.93 179.72 L448.56 179.72 L445.37 179.72 L442.19 179.72 L439.26 179.72 L436.78 179.72 L434.83 179.72 L433.33 179.72 L432.09 179.72 L431.29 179.72 L430.84 179.72 L430.84 179.45 L431.29 179.01 L432.17 178.21 L433.50 177.42 L434.83 176.53 L436.16 175.82 L437.14 175.29 L438.02 174.93 L438.55 174.67 L438.91 174.49 L438.46 174.76 " stroke-linecap='round' stroke-linejoin='round' brush-type='0' stroke-wetness='0.0'></path><path  style = ' stroke:#000000;  fill:none;  stroke-width:1.0;' d="M433.77 177.33 L433.50 178.12 L433.41 178.83 L433.15 180.34 L432.97 181.76 L432.79 183.09 L432.71 184.24 L432.71 185.21 L432.79 186.01 L433.06 186.63 " stroke-linecap='round' stroke-linejoin='round' brush-type='0' stroke-wetness='0.0'></path><path  style = ' stroke:#000000;  fill:none;  stroke-width:1.0;' d="M451.58 167.49 L451.44 167.23 L451.40 167.49 L451.31 168.11 L451.31 169.35 L451.31 170.77 L451.31 172.10 L451.22 173.34 L451.13 174.40 L450.96 175.29 L450.78 176.00 L450.60 176.53 L450.51 176.97 " stroke-linecap='round' stroke-linejoin='round' brush-type='0' stroke-wetness='0.0'></path><path  style = ' stroke:#000000;  fill:none;  stroke-width:1.0;' d="M452.64 166.69 L452.91 166.69 L453.35 166.69 L453.97 166.78 L454.59 167.23 L455.03 168.02 L455.56 169.18 L456.09 170.77 L456.45 172.45 L456.63 174.05 L456.27 175.02 L455.65 175.91 L454.77 176.53 L453.88 177.06 L452.91 177.33 L452.02 177.59 " stroke-linecap='round' stroke-linejoin='round' brush-type='0' stroke-wetness='0.0'></path><path  style = ' stroke:#000000;  fill:none;  stroke-width:1.0;' d="M465.13 168.02 L464.20 167.36 L463.63 167.14 L462.56 166.69 L462.03 166.69 L461.68 166.78 L461.32 167.23 L461.06 168.20 L460.88 169.80 L460.88 171.48 L460.88 173.07 L460.88 174.23 L460.79 175.11 L460.61 175.64 L460.08 175.91 " stroke-linecap='round' stroke-linejoin='round' brush-type='0' stroke-wetness='0.0'></path><path  style = ' stroke:#000000;  fill:none;  stroke-width:1.0;' d="M459.28 171.74 L460.21 171.74 L460.88 171.74 L462.39 171.74 L463.63 171.66 " stroke-linecap='round' stroke-linejoin='round' brush-type='0' stroke-wetness='0.0'></path><path  style = ' stroke:#000000;  fill:none;  stroke-width:1.0;' d="M469.38 166.43 L470.18 167.23 L470.54 167.85 L471.24 169.09 L471.51 170.15 L471.69 171.30 L471.42 172.63 L470.71 174.05 L469.47 175.38 L468.06 176.44 L466.11 177.33 " stroke-linecap='round' stroke-linejoin='round' brush-type='0' stroke-wetness='0.0'></path><path  style = ' stroke:#000000;  fill:none;  stroke-width:1.0;' d="M448.39 165.63 L447.46 166.96 L446.88 168.20 L445.91 170.68 L445.55 172.99 L445.64 175.02 L446.44 176.62 L448.03 177.68 L450.51 178.21 L452.55 178.39 " stroke-linecap='round' stroke-linejoin='round' brush-type='0' stroke-wetness='0.0'></path><path  style = ' stroke:#000000;  fill:none;  stroke-width:1.0;' d="M473.64 162.71 L473.90 162.71 L474.35 162.71 L475.23 162.71 L476.38 162.71 L477.54 162.71 L478.60 162.71 L479.48 162.71 L480.10 162.71 L480.55 162.71 L480.99 162.71 " stroke-linecap='round' stroke-linejoin='round' brush-type='0' stroke-wetness='0.0'></path><path  style = ' stroke:#000000;  fill:none;  stroke-width:1.0;' d="M477.62 163.77 L477.62 164.57 L477.62 165.28 L477.62 166.52 L477.62 167.49 L477.62 168.29 L477.54 168.91 L477.45 169.35 L477.36 169.62 L477.27 169.97 " stroke-linecap='round' stroke-linejoin='round' brush-type='0' stroke-wetness='0.0'></path><path  style = ' stroke:#000000;  fill:none;  stroke-width:1.0;' d="M486.13 170.15 L486.39 170.02 L486.93 169.97 L488.52 169.88 L490.65 169.97 L493.57 170.24 L496.32 170.50 L499.06 170.77 L501.01 170.95 L502.70 171.30 L503.76 171.57 L504.56 171.83 " stroke-linecap='round' stroke-linejoin='round' brush-type='0' stroke-wetness='0.0'></path><path  style = ' stroke:#000000;  fill:none;  stroke-width:1.0;' d="M495.70 171.74 L495.96 173.07 L496.14 174.49 L496.41 177.42 L496.49 180.60 L496.49 183.71 L496.49 186.36 L496.49 188.31 L496.41 189.73 L496.32 190.70 L496.23 191.50 " stroke-linecap='round' stroke-linejoin='round' brush-type='0' stroke-wetness='0.0'></path><path  style = ' stroke:#000000;  fill:none;  stroke-width:1.0;' d="M511.91 180.52 L511.64 180.38 L511.02 180.34 L509.87 180.25 L508.54 180.34 L507.48 180.60 L506.51 180.96 L505.71 181.49 L505.09 182.47 L504.82 184.06 L504.73 186.27 L504.82 188.31 L505.00 190.08 L505.27 191.41 L505.44 192.48 L505.09 193.19 " stroke-linecap='round' stroke-linejoin='round' brush-type='0' stroke-wetness='0.0'></path><path  style = ' stroke:#000000;  fill:none;  stroke-width:1.0;' d="M502.08 187.43 L502.87 187.43 L503.76 187.43 L505.35 187.43 L507.21 187.43 L508.54 187.60 " stroke-linecap='round' stroke-linejoin='round' brush-type='0' stroke-wetness='0.0'></path><path  style = ' stroke:#000000;  fill:none;  stroke-width:1.0;' d="M516.69 181.05 L515.63 181.45 L515.01 182.11 L513.86 183.62 L513.42 185.74 L513.24 187.78 L513.33 189.38 L513.77 190.35 L514.57 190.88 L515.72 191.15 " stroke-linecap='round' stroke-linejoin='round' brush-type='0' stroke-wetness='0.0'></path><path  style = ' stroke:#000000;  fill:none;  stroke-width:1.0;' d="M516.96 186.10 L517.76 186.76 L518.38 187.25 L519.53 188.14 L520.33 188.76 L520.77 189.20 L521.04 189.46 L521.30 189.38 L521.74 188.67 " stroke-linecap='round' stroke-linejoin='round' brush-type='0' stroke-wetness='0.0'></path><path  style = ' stroke:#000000;  fill:none;  stroke-width:1.0;' d="M521.21 182.38 L520.02 183.04 L519.00 183.88 L517.23 185.39 L516.07 186.89 L515.54 188.14 L515.28 189.38 " stroke-linecap='round' stroke-linejoin='round' brush-type='0' stroke-wetness='0.0'></path><path  style = ' stroke:#000000;  fill:none;  stroke-width:1.0;' d="M526.26 180.52 L527.33 180.38 L528.12 180.60 L529.63 181.22 L530.96 182.73 L531.93 184.59 L532.55 186.54 L532.64 188.22 L532.20 189.73 L531.31 190.97 L529.98 191.86 L528.48 192.39 L526.88 192.65 L525.55 192.74 " stroke-linecap='round' stroke-linejoin='round' brush-type='0' stroke-wetness='0.0'></path><path  style = ' stroke:#000000;  fill:none;  stroke-width:1.0;' d="M520.95 163.24 L521.08 164.30 L521.12 165.63 L521.21 168.20 L521.30 170.86 L521.48 172.99 L521.66 174.58 L521.92 175.47 " stroke-linecap='round' stroke-linejoin='round' brush-type='0' stroke-wetness='0.0'></path><path  style = ' stroke:#000000;  fill:none;  stroke-width:1.0;' d="M519.62 168.82 L520.42 168.69 L521.04 168.64 L522.54 168.56 L524.14 168.47 " stroke-linecap='round' stroke-linejoin='round' brush-type='0' stroke-wetness='0.0'></path><path  style = ' stroke:#000000;  fill:none;  stroke-width:1.0;' d="M524.40 166.43 L523.47 167.23 L522.90 168.02 L521.83 169.53 L521.04 171.04 " stroke-linecap='round' stroke-linejoin='round' brush-type='0' stroke-wetness='0.0'></path><path  style = ' stroke:#000000;  fill:none;  stroke-width:1.0;' d="M519.35 168.02 L520.15 168.02 L520.86 168.11 L522.36 168.56 L524.05 169.44 L526.26 170.95 " stroke-linecap='round' stroke-linejoin='round' brush-type='0' stroke-wetness='0.0'></path><path  style = ' stroke:#000000;  fill:none;  stroke-width:1.0;' d="M546.99 190.35 L546.60 189.55 L546.46 188.84 L546.20 187.43 L546.20 185.92 L546.20 183.97 L546.20 181.31 L546.20 178.48 L546.37 176.00 L546.55 174.31 L546.91 173.25 L547.26 172.72 L547.97 172.72 L548.77 173.78 L549.74 176.00 L550.63 179.10 L551.51 182.11 L552.31 184.33 L552.93 185.65 L553.55 186.27 L554.08 186.54 L554.70 186.10 L555.23 184.50 L555.68 181.67 L556.12 178.12 L556.47 174.85 L556.83 172.37 L557.01 170.68 L557.18 169.44 L557.45 168.56 " stroke-linecap='round' stroke-linejoin='round' brush-type='0' stroke-wetness='0.0'></path></g><g id='id-text-layer'  type='type-normal' preserveAspectRatio="none" ><text  style = 'fill: #000000; font-family:Helvetica-Light; font-size:18.0; ' preserveAspectRatio="none" x= '40' y='40' width = '688' height = '924' transform="rotate(   0,  384,  502)" ><tspan visibility='hidden'><![CDATA[]]></tspan></text></g><recordings ></recordings><defs   ></defs></svg> 